<?xml version="1.0" standalone="no"?>
<!DOCTYPE svg PUBLIC "-//W3C//DTD SVG 20010904//EN"
 "http://www.w3.org/TR/2001/REC-SVG-20010904/DTD/svg10.dtd">
<svg version="1.0" xmlns="http://www.w3.org/2000/svg"
 width="512.000000pt" height="512.000000pt" viewBox="0 0 512.000000 512.000000"
 preserveAspectRatio="xMidYMid meet">
<metadata>
Created by potrace 1.11, written by Peter Selinger 2001-2013
</metadata>
<g transform="translate(0.000000,512.000000) scale(0.100000,-0.100000)"
fill="#000000" stroke="none">
<path d="M0 4010 l0 -1110 33 0 c40 0 77 -10 77 -20 0 -5 -25 -16 -55 -25
l-55 -18 0 -78 0 -78 65 31 c59 27 78 31 188 35 142 6 366 -15 552 -53 112
-23 122 -27 152 -60 28 -32 41 -38 110 -50 43 -7 79 -14 81 -14 1 0 2 11 2 25
0 22 4 24 58 27 54 3 57 4 60 30 3 22 -8 40 -49 83 -29 30 -50 58 -47 61 3 3
35 -21 69 -53 88 -82 119 -101 178 -114 57 -12 85 -1 74 29 -11 29 -62 99
-123 169 -33 38 -60 75 -60 84 0 9 -7 22 -15 29 -8 7 -15 17 -15 23 0 5 -11
34 -25 62 -13 29 -29 83 -34 121 -5 38 -32 179 -60 314 -54 261 -61 339 -35
417 19 60 161 309 225 396 27 37 70 83 97 104 37 28 56 54 77 100 57 131 160
243 335 369 30 21 87 66 125 99 94 82 132 110 196 145 l54 30 -1117 0 -1118 0
0 -1110z"/>
<path d="M3220 5113 c192 -32 373 -98 598 -216 189 -99 249 -148 277 -221 15
-40 15 -47 1 -91 -37 -107 -58 -119 -204 -113 l-104 5 89 -46 c64 -33 108 -65
162 -118 49 -48 82 -73 97 -73 31 0 39 -17 19 -40 -9 -10 -14 -24 -10 -29 13
-21 35 -10 60 29 29 46 43 49 74 16 17 -18 22 -33 19 -62 -3 -32 -11 -44 -55
-79 -42 -33 -52 -46 -52 -72 -1 -17 3 -34 8 -38 6 -3 24 -51 41 -108 18 -56
40 -129 51 -162 51 -164 60 -259 48 -485 -4 -92 3 -109 166 -350 112 -166 134
-214 121 -262 -11 -41 -23 -50 -102 -77 -63 -21 -81 -32 -92 -54 -12 -24 -11
-33 12 -83 41 -89 34 -117 -39 -160 -25 -14 -45 -28 -45 -30 0 -2 13 -10 29
-18 31 -16 65 -84 55 -110 -3 -8 -21 -27 -40 -41 -19 -15 -41 -37 -50 -50 -14
-21 -13 -27 0 -60 36 -85 4 -215 -64 -264 -84 -61 -147 -63 -430 -12 -186 33
-287 38 -354 19 -60 -17 -199 -160 -249 -255 -79 -151 -109 -301 -88 -440 20
-132 -3 -115 421 -298 545 -234 546 -235 696 -351 95 -73 170 -153 232 -246
l45 -68 278 0 279 0 0 2560 0 2560 -962 -1 c-530 -1 -952 -4 -938 -6z"/>
<path d="M4015 3415 c-33 -6 -83 -19 -111 -27 -58 -18 -158 -67 -151 -74 3 -3
33 3 68 12 67 19 223 25 272 11 39 -11 32 -34 -23 -74 -25 -19 -62 -47 -82
-63 -20 -17 -44 -30 -52 -30 -9 0 -18 -11 -22 -25 -5 -20 -12 -25 -38 -25 -17
0 -37 -4 -45 -9 -21 -13 44 -51 87 -51 20 0 35 -6 38 -15 4 -8 15 -15 25 -15
12 0 19 -7 19 -19 0 -23 -11 -31 -54 -42 -22 -5 -8 -7 50 -8 107 -1 113 4 116
102 3 83 16 106 66 122 25 7 28 25 10 44 -11 10 -8 16 10 29 31 24 62 73 62
99 0 27 -16 36 -98 57 -72 18 -66 18 -147 1z"/>
<path d="M310 2660 c-74 -16 -173 -40 -219 -54 -47 -14 -86 -26 -88 -26 -2 0
-3 -8 -3 -18 0 -17 13 -15 152 20 83 21 173 45 200 54 27 9 88 24 136 34 l87
19 -65 0 c-36 0 -126 -13 -200 -29z"/>
<path d="M0 2461 c0 -68 1 -72 26 -81 14 -6 23 -14 19 -19 -6 -10 9 -16 68
-26 36 -6 49 -19 26 -27 -6 -2 35 -17 92 -33 245 -67 397 -127 519 -203 l74
-46 -54 -24 c-142 -63 -441 -142 -534 -142 -25 0 -46 -4 -46 -10 0 -5 -11 -10
-24 -10 -13 0 -40 -7 -59 -15 -20 -8 -51 -15 -68 -15 -27 0 -30 2 -19 15 10
12 10 15 -4 15 -14 0 -16 -24 -16 -225 0 -195 2 -225 16 -233 15 -8 15 -10 0
-15 -14 -6 -16 -61 -16 -562 0 -305 3 -555 6 -555 3 0 28 20 55 44 134 121
343 242 777 451 470 226 482 234 663 427 181 192 322 333 394 395 68 58 68 83
-1 34 -25 -18 -48 -30 -51 -27 -4 3 -4 7 -2 9 2 2 21 16 41 31 45 34 41 56
-11 56 -46 0 -120 -36 -185 -90 -36 -30 -54 -38 -71 -34 -28 7 -62 -10 -190
-96 -118 -79 -142 -93 -154 -85 -5 3 -44 -9 -85 -25 -68 -28 -90 -31 -204 -34
-232 -7 -467 -67 -551 -141 -25 -22 -59 -49 -76 -59 -38 -24 -96 -73 -190
-160 -41 -38 -75 -65 -75 -60 0 5 18 36 39 68 22 33 38 63 36 67 -6 8 51 59
93 85 29 16 48 59 32 69 -4 3 -25 -13 -46 -35 -22 -22 -47 -40 -56 -40 -14 0
-12 10 16 63 28 53 42 68 99 102 81 48 73 58 -12 16 -33 -17 -66 -31 -73 -31
-20 1 32 40 52 40 10 0 22 6 29 13 19 24 184 96 266 116 44 12 168 34 275 51
107 17 229 39 270 51 92 24 188 81 323 190 43 35 97 122 97 157 0 21 -8 16
-69 -40 -134 -124 -314 -230 -441 -262 -36 -8 -119 -20 -185 -26 -66 -6 -136
-12 -156 -14 l-35 -4 25 29 c14 16 30 29 36 29 17 0 65 24 65 33 0 10 -34 9
-65 -3 -15 -6 -30 -8 -35 -5 -13 8 1 45 18 45 8 0 24 10 36 23 12 13 93 63
181 111 170 93 198 112 153 101 -40 -10 -34 9 7 24 20 7 77 32 128 57 71 34
84 42 55 38 -40 -7 -54 10 -18 21 18 6 22 15 19 42 0 4 8 10 18 14 10 3 18 15
18 25 0 14 13 23 49 35 46 15 48 17 28 28 -26 14 -28 38 -7 67 22 32 57 166
45 178 -5 5 -23 -3 -47 -24 -46 -41 -115 -73 -213 -99 -187 -49 -232 -46 -312
20 -135 113 -416 197 -712 215 l-116 7 0 -72z m302 -707 c20 -11 27 -19 20
-26 -9 -9 -144 -37 -179 -38 -23 0 -2 28 30 40 18 6 46 18 62 25 17 8 31 14
33 14 2 1 17 -6 34 -15z"/>
<path d="M355 1140 c-3 -5 -2 -10 4 -10 5 0 13 5 16 10 3 6 2 10 -4 10 -5 0
-13 -4 -16 -10z"/>
</g>
</svg>
