<svg id="bloc_marque_horizontal" xmlns="http://www.w3.org/2000/svg" viewBox="0 0 309.96 94.58"><defs><style>.cls-1,.cls-2{fill:#fff;}.cls-1{stroke:#221f20;}.cls-3{fill:#1d4d9c;}.cls-4{fill:#dc3832;}.cls-5{fill:#949598;}.cls-6{fill:#221f20;}</style></defs><title>2018_MENJ_logo_horizontal_vect</title><rect class="cls-1" x="0.5" y="0.5" width="137.21" height="93.57"/><polygon class="cls-2" points="116.28 20.47 116.28 52.36 21.99 52.37 21.97 20.47 116.28 20.47"/><path class="cls-3" d="M316.06,290.55a12.55,12.55,0,0,0-2.52.71,16.41,16.41,0,0,1,5.55.8,9,9,0,0,1,1.8.85,4.11,4.11,0,0,0,.71.59,1.56,1.56,0,0,0,1.23.08h.35a5.93,5.93,0,0,0,3-1.37c0,.06.08.06.14.06a5,5,0,0,1-.64,1.74c0,.07-.08.21.06.28h.15c-.07,0-.15,0-.15.07s.22,0,.3.14a1.47,1.47,0,0,0-.94.45c0,.07.14.07.21.07-.13.13-.35.07-.43.21a.29.29,0,0,0,.15.07c-.07,0-.15,0-.15.08v.21c-.21,0-.28.14-.43.21.29.22.51,0,.79,0a24.15,24.15,0,0,1-2.24.94c-.13,0,0,.21-.13.21.22.15.35-.07.58-.07-1,.58-2,1.09-3.11,1.73a.53.53,0,0,0-.14.29h-.29c-.14.08-.07.29-.21.43.35.22.79-.28,1,0,.07,0-.15.08-.29.08s-.08.14-.15.14H320c-.14.14-.28.21-.28.42-.14,0-.29,0-.36.15,1.59-.21,3.24-.06,4.75-.86a11.28,11.28,0,0,0,3.17-2.38.25.25,0,0,1,.07.15,3.08,3.08,0,0,1-1.22,1.65c-.44.22-.71.58-1.08.73l-.65.43c-2.66.92-5.83.51-8.13,2.3,0-.08-.08-.08-.15-.08-.14.16-.36.23-.43.37s.22.07.29.07a4.87,4.87,0,0,1,1.36-.65c-.57.29-1.13.87-1.72.87H312c.71-.43,1.44-.94,2.23-1.37a1.12,1.12,0,0,0-.66-.14c-.35.07-.78-.15-1.14,0-1.08.49-2.52.36-3.1,1.51H288l0-31.9h42.81a6.07,6.07,0,0,0-3.66,3.81,6.18,6.18,0,0,0-2,2.31c-.65,1.22-1.58,2.3-1.44,3.67.15,1.15.43,2.23.64,3.46a7.49,7.49,0,0,0,.3,1.22c.14.43,0,.94.22,1.3s.06.5.36.65v.28c.06.07.06.15.21.15V288a11.63,11.63,0,0,1,1.66,2.16c.14.43-.73.21-1.09.07a8.28,8.28,0,0,1-1.73-1.45.29.29,0,0,0-.07.15c.29.5,1.37,1.16.8,1.51-.29.15-.66-.21-.94.08-.08.14,0,.28,0,.43-.43-.29-.86-.15-1.3-.29-.28-.07-.36-.65-.71-.65a19,19,0,0,0-2.74-.5,13.24,13.24,0,0,0-3.82-.16,4.24,4.24,0,0,0-2.74,1.81v.23c.51.06.73-.37,1.16-.51.71-.15,1.37-.44,2.09-.58a12.15,12.15,0,0,1,3.08-.43,2.55,2.55,0,0,1,.73,0,10.79,10.79,0,0,0-3.67.72" transform="translate(-265.96 -250.35)"/><path class="cls-2" d="M312,293.93c-.22.06-.44.22-.36.35.21.3.65-.07,1-.07-.43.15-.93.07-1.29.44.29.22.58.07.86.07,0,.15.15.15.22.22a1.27,1.27,0,0,0-.72.65c-.15.35-.51.5-.72.79v.21a13.3,13.3,0,0,0-2.09,1.87c.08,0,.08.07.08.15-.16.21-.44.29-.51.5s0,.15.07.15c.86-.28,1.51-.93,2.31-1.23.57-.14,1-.49,1.51-.64.35-.07.79-.22,1.15-.29,0,.07,0,.14.06.14h.59c-.08.15-.36.08-.29.15.21.22.64.15.93,0a1.16,1.16,0,0,1,.72-.15c.08,0,.08-.14.08-.21a1.62,1.62,0,0,0,.57.07,19.72,19.72,0,0,0,5-1.51c-1.88-1.44-4.25-1.95-6.48-2.6.21,0,.43.22.65,0-.36-.27-.8-.15-1.15-.35.07,0,.22.08.29-.07a6.43,6.43,0,0,0-1.74-.43.72.72,0,0,0,.59-.73c0-.07-.15-.07-.22-.07a3.82,3.82,0,0,0-1.8,2.17c.5.28,1.08.06,1.58.13-.22.21-.57.21-.86.29" transform="translate(-265.96 -250.35)"/><path class="cls-2" d="M309.08,291.11a9.36,9.36,0,0,1-2.46,2,21.05,21.05,0,0,1-2.3,3.66.24.24,0,0,0,.08.15,24.48,24.48,0,0,1,5.54-5c.14-.07-.22.21.08.15.93-.22,1.21-1.16,1.65-1.88.57-.94,1.58-1.3,2.31-2.09a.26.26,0,0,1-.08.22.28.28,0,0,0,.21.07c.3-.22.65-.15.87-.43a2.8,2.8,0,0,0-1.87-.08,13.91,13.91,0,0,0-4,3.16" transform="translate(-265.96 -250.35)"/><path class="cls-2" d="M310.15,292.49c.07-.13.15-.14.22-.29s0-.14-.07-.14a.92.92,0,0,0-.58.66c0,.06.07.06.15.06a.47.47,0,0,0,.28-.29" transform="translate(-265.96 -250.35)"/><path class="cls-2" d="M315.92,298c-.29.15-.8.15-.87.5-.07.15.22.07.36.07.51-.2,1.09,0,1.51-.42-.14-.15-.36-.08-.5-.3-.14-.06-.36.09-.5.15" transform="translate(-265.96 -250.35)"/><path class="cls-3" d="M323.71,301.78a11.41,11.41,0,0,0,1.29-.5v.15c1.08-.44,1.87-1.37,2.95-1.73.07,0,.21.14.36.07a2.94,2.94,0,0,1,2.3-1.08c0,.07,0,.14.07.14s.15,0,.15-.07c-.29.22-.57.44-.87.65-.06.07,0,.14.08.14.36-.14.57-.43.94-.57-.08.07-.08.22-.15.29a30.38,30.38,0,0,0-3.46,3.45h-9.79c1.44-.22,2.88-.71,4.33-.86a7.41,7.41,0,0,0,1.8-.08" transform="translate(-265.96 -250.35)"/><path class="cls-4" d="M352.13,298.18a1.93,1.93,0,0,0,.08-1.59c-.43-.65.43-.87.72-1.29s-.15-.58-.22-.94c-.07-.15-.36-.08-.5-.29.5-.22,1.29-.65.93-1.29-.21-.35-.57-.93-.14-1.3s1.29-.21,1.51-.72c.36-.87-.44-1.58-.87-2.3a10.86,10.86,0,0,0-.79-1.16,6.18,6.18,0,0,1-.78-1.51c-.23-.57.06-1.08.06-1.66a9.75,9.75,0,0,0-.5-3.22c-.21-.51-.29-1.11-.51-1.6a2.24,2.24,0,0,0-.35-.86.57.57,0,0,1,0-.51,8.7,8.7,0,0,0,.86-.71.83.83,0,0,0-.29-1.09c-.5-.21-.43.51-.79.65h-.22c-.06-.22.08-.28.22-.43s0-.22-.07-.22c-.29,0-.58-.06-.65-.21A5.87,5.87,0,0,0,347,274a3.24,3.24,0,0,0,.87.15,2.66,2.66,0,0,0,1.51-.15c.36-.14.43-.71.57-1.08s-.07-.72-.21-.92a4.59,4.59,0,0,0-1.41-1.16h33.89v31.9h-40.4a6.94,6.94,0,0,1,2.52-3.74,3.41,3.41,0,0,1,1-.29,32.78,32.78,0,0,1,3.66.49,1,1,0,0,1,.44.15,3,3,0,0,0,1.37-.07,1.78,1.78,0,0,0,1.29-1.08" transform="translate(-265.96 -250.35)"/><path class="cls-5" d="M349.4,284a4.61,4.61,0,0,0-1.23,0,9.36,9.36,0,0,0-1.58.42,4.91,4.91,0,0,1,1.36-.71,5.59,5.59,0,0,1,1.08-.29,2.43,2.43,0,0,1,1.24-.08c.35.14.93.14,1,.37.15.42-.22.86-.65,1.14-.07.15.22.23.22.37a.49.49,0,0,1-.43.21,3,3,0,0,0-.44.44c.14,0,0,.22.14.22-.28.36.16,1.07-.28,1.21a3.11,3.11,0,0,1-1.66,0c.29-.07.65.07.86-.21v-.29c0-.08-.07-.08-.13-.08a.23.23,0,0,1-.14.08.32.32,0,0,0-.22-.29,1.25,1.25,0,0,1-1.08-.42.93.93,0,0,1,.65-.09c.2,0,.13-.35.35-.49h.22c.43-.58,1.29-.71,1.43-1.3,0-.16-.43-.16-.71-.21" transform="translate(-265.96 -250.35)"/><path class="cls-6" d="M292.76,325.12a1.21,1.21,0,0,1-.73-.18,3.33,3.33,0,0,1-.83-1.1c-.33-.55-.69-1.14-1-1.64h-.4v.5c0,.25,0,.5,0,.76a2.81,2.81,0,0,0,.09.93.6.6,0,0,0,.57.39V325l-.21,0h-2.05l-.22,0v-.26a.65.65,0,0,0,.46-.18,1,1,0,0,0,.19-.52,11.53,11.53,0,0,0,0-1.38v-1.59a6.39,6.39,0,0,0-.11-1.68c-.07-.25-.25-.35-.58-.39v-.26c.19,0,.38,0,.56,0,.49,0,.64,0,1.22,0l1,0a2.25,2.25,0,0,1,1.34.31,1.6,1.6,0,0,1,.59,1.23,1.85,1.85,0,0,1-1.38,1.72c.36.46.64.91,1,1.41a6.22,6.22,0,0,0,.84,1.14.7.7,0,0,0,.39.24V325a3.81,3.81,0,0,1-.78.08m-2.42-5.88a2.76,2.76,0,0,0-.55.07c0,.55,0,1.56,0,2.33a2.5,2.5,0,0,0,.4,0,1.19,1.19,0,0,0,1.3-1.21,1.14,1.14,0,0,0-1.14-1.22" transform="translate(-265.96 -250.35)"/><path class="cls-6" d="M295.85,319.36l-.37-.21.77-1.14.89.16Zm1.73,5.56c-.07.12-.15.14-.58.14l-.78,0c-.37,0-.74,0-1.12,0s-.75,0-1.11,0v-.22c.35,0,.5-.22.53-.57s0-.49,0-.88v-2.2a2.26,2.26,0,0,0-.08-.77.48.48,0,0,0-.47-.32v-.21h3.62v.67c0,.2,0,.37,0,.55h-.27c-.06-.6-.32-.76-1.24-.76h-.58c0,.32,0,.42,0,.87v.9h.35c.8,0,1-.11,1.1-.53h.28a6.72,6.72,0,0,0,0,.76c0,.4,0,.64,0,.75H297c0-.43-.23-.54-1-.54h-.42c0,.47,0,1,0,1.47,0,.32.05.43.24.47a2.35,2.35,0,0,0,.54,0c.83,0,1.12-.18,1.31-.83l.29.06a5.08,5.08,0,0,1-.31,1.15" transform="translate(-265.96 -250.35)"/><path class="cls-6" d="M300.81,322.73a.82.82,0,0,1-.21,0l-.18-.38c.73,0,1.13-.4,1.13-1a1,1,0,0,0-1-1.06,1.59,1.59,0,0,0-.29,0c0,.49,0,1,0,1.44v1.36c0,1,0,1.19.09,1.4a.47.47,0,0,0,.46.32V325l-.18,0h-1.7l-.19,0v-.22a.53.53,0,0,0,.54-.57,8.69,8.69,0,0,0,0-1.15v-1.93a2.19,2.19,0,0,0-.09-.77.47.47,0,0,0-.48-.32v-.22h.93c.4,0,.79,0,1.18,0,1.11,0,1.77.54,1.77,1.44a1.59,1.59,0,0,1-1.78,1.47" transform="translate(-265.96 -250.35)"/><path class="cls-6" d="M307.86,320.25a1,1,0,0,0-.14.58c0,.34,0,.59,0,1.07v1.25a1.94,1.94,0,0,1-.3,1.2,2,2,0,0,1-1.73.78,2.09,2.09,0,0,1-1.21-.32,1.69,1.69,0,0,1-.75-1.64c0-.83,0-1.19,0-1.47a6.89,6.89,0,0,0-.05-1.2c-.05-.28-.19-.4-.51-.42v-.21h2.07v.21a.52.52,0,0,0-.44.22,1.16,1.16,0,0,0-.1.62c0,.47,0,1,0,1.45,0,1.34,0,1.59.27,1.88a1.19,1.19,0,0,0,.88.35,1.17,1.17,0,0,0,1.18-.77,4.6,4.6,0,0,0,.12-1.46v-.76a3.22,3.22,0,0,0-.11-1.29.5.5,0,0,0-.41-.24v-.21h1.62v.21a.51.51,0,0,0-.36.17" transform="translate(-265.96 -250.35)"/><path class="cls-6" d="M312.63,324.67a2.34,2.34,0,0,1-1.57.38l-1.26,0h-.71l-.09,0v-.22c.36,0,.5-.22.54-.57a11.35,11.35,0,0,0,0-1.15v-1.47a4,4,0,0,0-.09-1.23.49.49,0,0,0-.48-.32v-.22c.36,0,.57,0,1.07,0l1.56,0c.72,0,1.37.35,1.37,1.15,0,.61-.37,1-1.11,1.19a1.36,1.36,0,0,1,1.26,1.39,1.25,1.25,0,0,1-.52,1.09m-1.69-4.41-.42,0c0,.51,0,1.36,0,1.7l.35,0c.76,0,1.2-.32,1.2-.89s-.41-.85-1.09-.85m0,2.17-.49,0v1.07a2.21,2.21,0,0,0,.08.82c.05.19.24.28.56.28a.92.92,0,0,0,1-1,1.09,1.09,0,0,0-1.18-1.17" transform="translate(-265.96 -250.35)"/><path class="cls-6" d="M317.53,324.93c-.07.11-.16.13-.55.13h-.59c-.48,0-.92,0-1.45,0s-.66,0-.9,0v-.22a.48.48,0,0,0,.38-.15c.14-.17.18-.36.18-.94v-1.94a4.15,4.15,0,0,0-.08-1.39.49.49,0,0,0-.48-.32v-.22h2.15v.22c-.4,0-.57.21-.61.59a8,8,0,0,0,0,1.12v1.3c0,1.09,0,1.22.11,1.33s.25.12.58.12a1.69,1.69,0,0,0,.86-.15,1.09,1.09,0,0,0,.46-.68l.28.07a4.92,4.92,0,0,1-.31,1.15" transform="translate(-265.96 -250.35)"/><path class="cls-6" d="M320.23,325h-1.7l-.19,0v-.22c.37,0,.51-.22.54-.57a11.35,11.35,0,0,0,0-1.15v-1.31c0-.18,0-.41,0-.62a2.26,2.26,0,0,0-.08-.77.47.47,0,0,0-.48-.32v-.21h2.07v.21c-.33,0-.5.23-.53.59a8.87,8.87,0,0,0,0,1.12v1.31a4.1,4.1,0,0,0,.09,1.4c.06.2.21.29.47.32V325Z" transform="translate(-265.96 -250.35)"/><path class="cls-6" d="M327.48,326.44a4,4,0,0,1-1.87-.54,8,8,0,0,1-1.19-.82,3.27,3.27,0,0,1-.61.05,2.44,2.44,0,0,1-2.6-2.57,2.65,2.65,0,0,1,2.77-2.79,2.47,2.47,0,0,1,2.65,2.56,2.74,2.74,0,0,1-1.45,2.51,8.52,8.52,0,0,1,.84.46,3.6,3.6,0,0,0,1.84.68,2,2,0,0,0,.9-.22l.09.27a2.29,2.29,0,0,1-1.37.41m-3.66-6.14a1.71,1.71,0,0,0-1.63,1.9c0,1.34.81,2.4,1.82,2.4a1.72,1.72,0,0,0,1.63-1.93c0-1.33-.8-2.37-1.82-2.37" transform="translate(-265.96 -250.35)"/><path class="cls-6" d="M332,320.25a1,1,0,0,0-.14.58c0,.34,0,.59,0,1.07,0,.18,0,.71,0,1.25a1.88,1.88,0,0,1-.31,1.2,2,2,0,0,1-1.72.78,2,2,0,0,1-1.21-.32,1.69,1.69,0,0,1-.75-1.64c0-.83,0-1.19,0-1.47a8,8,0,0,0,0-1.2.48.48,0,0,0-.52-.42v-.21h2.08v.21a.51.51,0,0,0-.44.22,1.27,1.27,0,0,0-.1.62c0,.47,0,1,0,1.45,0,1.34,0,1.59.27,1.88a1.29,1.29,0,0,0,2.06-.42,4.6,4.6,0,0,0,.12-1.46v-.76c0-.88,0-1.16-.12-1.29a.47.47,0,0,0-.4-.24v-.21h1.62v.21a.49.49,0,0,0-.36.17" transform="translate(-265.96 -250.35)"/><path class="cls-6" d="M336.73,324.92c-.06.12-.15.14-.58.14l-.78,0c-.36,0-.74,0-1.11,0s-.74,0-1.11,0v-.22a.54.54,0,0,0,.53-.57,7.17,7.17,0,0,0,0-.88v-2.2a2.19,2.19,0,0,0-.09-.77.48.48,0,0,0-.47-.32v-.21h3.62v.67c0,.2,0,.37,0,.55h-.28c-.05-.6-.3-.76-1.23-.76h-.58c0,.32,0,.42,0,.87v.9H335c.81,0,1.05-.11,1.1-.53h.28a6.72,6.72,0,0,0,0,.76c0,.4,0,.64,0,.75h-.28c0-.43-.23-.54-1-.54h-.42c0,.47,0,1,0,1.47,0,.32.05.43.24.47a2.3,2.3,0,0,0,.53,0c.84,0,1.13-.18,1.31-.83l.31.06a6,6,0,0,1-.33,1.15" transform="translate(-265.96 -250.35)"/><path class="cls-6" d="M343.91,320.28c0-.67-.4-.93-1.46-.93l-.66,0c0,.64,0,1.09,0,2.12h.5c.88,0,1.15-.14,1.19-.64h.34c0,.24,0,.52,0,.77s0,.72,0,1.07h-.34c-.06-.58-.28-.68-1.27-.68h-.42v1c0,.2,0,.44,0,.68,0,.51.07,1,.68,1V325h-2.51v-.26a.67.67,0,0,0,.65-.7,12.85,12.85,0,0,0,0-1.39v-2.35a2.32,2.32,0,0,0-.11-.91c-.08-.24-.25-.35-.57-.4v-.25h4.32c0,.17,0,.48,0,.87a5.1,5.1,0,0,0,0,.63Z" transform="translate(-265.96 -250.35)"/><path class="cls-6" d="M349.1,325.11a1,1,0,0,1-.61-.16,2.85,2.85,0,0,1-.68-.89,14.44,14.44,0,0,0-.85-1.36h-.32v1a2.47,2.47,0,0,0,.08.77.49.49,0,0,0,.48.33V325h-2.05v-.22a.44.44,0,0,0,.37-.15.8.8,0,0,0,.17-.42,11.35,11.35,0,0,0,0-1.15v-1.31a4.62,4.62,0,0,0-.1-1.39c-.05-.2-.21-.3-.47-.32v-.22a3.53,3.53,0,0,0,.46,0c.4,0,.53,0,1,0l.85,0a1.8,1.8,0,0,1,1.11.27,1.28,1.28,0,0,1,.48,1,1.55,1.55,0,0,1-1.13,1.43c.29.37.53.74.8,1.16a5.19,5.19,0,0,0,.69.93.5.5,0,0,0,.32.2V325a3.06,3.06,0,0,1-.64.07m-2-4.87a2,2,0,0,0-.47.06v1.94l.33,0a1,1,0,0,0,1.07-1,1,1,0,0,0-.93-1" transform="translate(-265.96 -250.35)"/><path class="cls-6" d="M354.7,325h-1.85v-.22c.25,0,.4-.15.4-.36a1.18,1.18,0,0,0-.11-.42c-.08-.3-.15-.48-.24-.75h-1.49l-.15.44a3,3,0,0,0-.18.75c0,.23.09.33.35.34V325l-.78,0-.77,0v-.22a.3.3,0,0,0,.24-.11,2.63,2.63,0,0,0,.53-1l.74-1.87c.2-.51.51-1.32.71-2h.53c.07.24.23.61.34.91l1.1,2.79a8.89,8.89,0,0,0,.41.94.57.57,0,0,0,.41.32V325Zm-2.51-3.8c-.2.52-.49,1.22-.6,1.59h1.15Z" transform="translate(-265.96 -250.35)"/><path class="cls-6" d="M360.22,320.31a1.33,1.33,0,0,0-.11.68c0,.69,0,1.79,0,2.3v1.19c0,.17,0,.45,0,.56h-.53l-1.55-2-1.59-1.95c0,.17,0,.08,0,.58v.5c0,.58,0,1.15,0,1.74a1.71,1.71,0,0,0,.12.64.42.42,0,0,0,.42.22V325c-.27,0-.54,0-.81,0s-.56,0-.84,0v-.22c.51,0,.53-.43.54-.85s0-.6,0-1.09v-1.63c0-.66,0-.8-.15-1s-.18-.17-.41-.19v-.22c.26,0,.35,0,.67,0s.41,0,.67,0a9.8,9.8,0,0,0,.78,1c.76.92,1.44,1.71,2.08,2.52v-1.7a7.69,7.69,0,0,0-.05-1.18.48.48,0,0,0-.49-.4v-.22c.32,0,.43,0,.82,0s.51,0,.82,0v.22a.43.43,0,0,0-.43.23" transform="translate(-265.96 -250.35)"/><path class="cls-6" d="M365.64,324.85a3.94,3.94,0,0,1-1.56.28l-.08.3h.15a.47.47,0,0,1,.49.47c0,.43-.34.72-.86.72a1.39,1.39,0,0,1-.47-.09l.11-.3a1.18,1.18,0,0,0,.28.06c.22,0,.37-.11.37-.32s-.07-.25-.19-.25a.48.48,0,0,0-.18.06l-.17,0,.15-.61a2.41,2.41,0,0,1-1.59-.72,2.72,2.72,0,0,1-.73-1.95,2.55,2.55,0,0,1,2.84-2.68,4.56,4.56,0,0,1,1.51.23,4.43,4.43,0,0,0,0,.52c0,.14,0,.42,0,.59h-.3a1.16,1.16,0,0,0-1.28-.85,1.71,1.71,0,0,0-1.76,1.94c0,1.4.79,2.41,1.86,2.41a1.22,1.22,0,0,0,1.28-.94l.29.05a7.47,7.47,0,0,0-.16,1.13" transform="translate(-265.96 -250.35)"/><path class="cls-6" d="M371,325h-1.84v-.22a.36.36,0,0,0,.39-.36,1.33,1.33,0,0,0-.1-.42c-.09-.3-.16-.48-.25-.75h-1.49l-.15.44a3,3,0,0,0-.18.75c0,.23.1.33.35.34V325l-.77,0-.77,0v-.22a.3.3,0,0,0,.23-.11,2.6,2.6,0,0,0,.54-1l.73-1.87c.2-.51.5-1.32.72-2H369c.06.24.23.61.34.91l1.09,2.79a8.35,8.35,0,0,0,.42.94.56.56,0,0,0,.4.32V325Zm-2.5-3.8c-.21.52-.49,1.22-.61,1.59h1.15Z" transform="translate(-265.96 -250.35)"/><path class="cls-6" d="M373.54,325h-1.7l-.18,0v-.22c.37,0,.51-.22.54-.57a8.78,8.78,0,0,0,0-1.15v-1.93a2.26,2.26,0,0,0-.08-.77.49.49,0,0,0-.49-.32v-.21h2.08v.21c-.33,0-.5.23-.53.59a6.67,6.67,0,0,0,0,1.12v1.31a3.94,3.94,0,0,0,.1,1.4c.06.2.2.29.47.32V325Z" transform="translate(-265.96 -250.35)"/><path class="cls-6" d="M376,325.13a3.12,3.12,0,0,1-1.3-.27c0-.28-.08-.74-.14-1.12l.29,0a1.19,1.19,0,0,0,1.2.95c.56,0,.92-.28.92-.72s-.23-.59-.59-.81l-.81-.52a1.53,1.53,0,0,1-.89-1.4c0-.88.67-1.43,1.69-1.43a2.77,2.77,0,0,1,1.27.28v1.06h-.29a1,1,0,0,0-1-.87.76.76,0,0,0-.84.74c0,.36.27.61.68.88l.66.43a1.65,1.65,0,0,1,1,1.42c0,.85-.74,1.42-1.83,1.42" transform="translate(-265.96 -250.35)"/><path class="cls-6" d="M382.2,324.92c-.06.12-.15.14-.58.14l-.78,0c-.37,0-.74,0-1.11,0s-.75,0-1.11,0v-.22c.33,0,.49-.22.53-.57s0-.49,0-.88v-2.2a2.26,2.26,0,0,0-.08-.77.48.48,0,0,0-.47-.32v-.21h3.63c0,.22,0,.45,0,.67a3.33,3.33,0,0,0,0,.55H382c0-.6-.32-.76-1.23-.76h-.59c0,.32,0,.42,0,.87v.9h.35c.81,0,1-.11,1.11-.53h.27c0,.12,0,.38,0,.76s0,.64,0,.75h-.27c0-.43-.24-.54-1-.54h-.42c0,.47,0,1,0,1.47,0,.32.05.43.25.47a2.26,2.26,0,0,0,.52,0c.85,0,1.14-.18,1.31-.83l.31.06a5.5,5.5,0,0,1-.32,1.15" transform="translate(-265.96 -250.35)"/><path class="cls-6" d="M290.63,311.76c-.07.09-.18.13-.45.13s-.74,0-1.1,0l-.73,0-.94,0h-.1l0-.16a.65.65,0,0,0,.47-.24,2,2,0,0,0,.29-.78c.1-.42.15-.66.31-1.44l.12-.6a6.61,6.61,0,0,0,.16-1.14c0-.33-.11-.48-.44-.51l0-.17.1,0h1.69a.32.32,0,0,0,.12,0l0,.17a.57.57,0,0,0-.48.22,5.33,5.33,0,0,0-.57,2l-.1.51c-.11.62-.16.82-.2,1.11,0,.09,0,.18,0,.22,0,.31.14.4.63.4.85,0,1.17-.18,1.45-.8l.2.08a6,6,0,0,1-.44,1" transform="translate(-265.96 -250.35)"/><path class="cls-6" d="M292.88,308.08a.36.36,0,0,1-.39-.36.44.44,0,0,1,.47-.46.33.33,0,0,1,.36.36.44.44,0,0,1-.44.46m-.83,3.86c-.15,0-.25-.08-.25-.22a1.78,1.78,0,0,1,.06-.35c.1-.41.23-.95.31-1.23a3.53,3.53,0,0,0,.15-.78c0-.1,0-.13-.13-.13a.9.9,0,0,0-.29.06h0l0-.2a3.62,3.62,0,0,1,1-.26c.11,0,.16,0,.16.13a5,5,0,0,1-.18.87l-.11.43a5.69,5.69,0,0,0-.23,1.12.16.16,0,0,0,.17.17,1.72,1.72,0,0,0,.42-.1v.21a3.45,3.45,0,0,1-1,.27" transform="translate(-265.96 -250.35)"/><path class="cls-6" d="M296.21,311.59A1.65,1.65,0,0,1,295,312c-.6,0-.94-.1-.94-.25a1.58,1.58,0,0,1,.08-.45l.39-1.72c.13-.55.22-1,.37-1.6a4.53,4.53,0,0,0,.1-.67.13.13,0,0,0-.13-.14,2.51,2.51,0,0,0-.33.08V307l.09,0a4.35,4.35,0,0,1,.91-.2c.1,0,.16,0,.16.12a6.18,6.18,0,0,1-.17.84l-.23,1-.12.55a2.62,2.62,0,0,1,1.27-.4c.46,0,.69.23.69.71a3,3,0,0,1-1,2m0-2.43a1.08,1.08,0,0,0-.51.17,1.33,1.33,0,0,0-.47.35,2.72,2.72,0,0,0-.28.86,5.56,5.56,0,0,0-.18.88c0,.13.18.21.47.21a.9.9,0,0,0,.77-.41,3.24,3.24,0,0,0,.53-1.61c0-.29-.11-.45-.33-.45" transform="translate(-265.96 -250.35)"/><path class="cls-6" d="M298.8,310.64h-.22a2.43,2.43,0,0,0,0,.36c0,.4.13.59.4.59a2,2,0,0,0,1-.41l.09.26a2.68,2.68,0,0,1-1.37.52.7.7,0,0,1-.73-.79,2.18,2.18,0,0,1,1.82-2.33c.48,0,.77.22.77.59,0,.7-.75,1.21-1.72,1.21m.79-1.5c-.37,0-.75.49-.94,1.24h.08c.69,0,1.23-.38,1.23-.86a.37.37,0,0,0-.37-.38" transform="translate(-265.96 -250.35)"/><path class="cls-6" d="M303.54,309.81l-.25,0a2.83,2.83,0,0,0,0-.3c0-.13-.12-.24-.31-.24a.44.44,0,0,0-.32.19,3.59,3.59,0,0,0-.57,1.68l-.14.73c-.3,0-.36,0-.66,0,.08-.27.13-.5.19-.76l.17-.69a5.17,5.17,0,0,0,.16-.94c0-.19-.05-.27-.13-.27l-.19,0-.2.06v-.22a3.44,3.44,0,0,1,1-.27c.09,0,.13,0,.15.1s0,.2,0,.32a1.64,1.64,0,0,1,.85-.43.87.87,0,0,1,.5.2,3.62,3.62,0,0,0-.27.78" transform="translate(-265.96 -250.35)"/><path class="cls-6" d="M306.1,309.29h-.63l-.31,1.55a2.62,2.62,0,0,0-.09.57c0,.11,0,.16.15.16a1.5,1.5,0,0,0,.34-.07l.07,0,0,.22a3,3,0,0,1-1,.27c-.15,0-.25-.07-.25-.22a2,2,0,0,1,.09-.55c.06-.27.11-.49.18-.78l.23-1.12h-.4l.05-.24c.52-.09.69-.49.84-.93l.36-.08-.19.88h.63Z" transform="translate(-265.96 -250.35)"/><path class="cls-6" d="M308.42,308.38l-.24-.21.91-1,.68.17Zm-.85,2.26h-.21a1.63,1.63,0,0,0,0,.36c0,.4.13.59.4.59a2.05,2.05,0,0,0,1-.41l.08.26a2.65,2.65,0,0,1-1.37.52c-.46,0-.72-.29-.72-.79a2.18,2.18,0,0,1,1.82-2.33c.48,0,.76.22.76.59,0,.7-.74,1.21-1.72,1.21m.79-1.5c-.37,0-.75.49-.94,1.24h.08c.69,0,1.22-.38,1.22-.86a.36.36,0,0,0-.36-.38" transform="translate(-265.96 -250.35)"/><path class="cls-6" d="M321.39,306.31l-.24-.19.92-1.05.69.18Zm1.43,1.62h-.21a1.16,1.16,0,0,0,0-.17c0-.42-.27-.56-1-.56-.24,0-.48,0-.74,0-.15.63-.25,1.17-.38,1.84h.27a4.17,4.17,0,0,0,.86,0,.64.64,0,0,0,.53-.51h.21c-.11.44-.24,1.07-.3,1.47h-.2a.34.34,0,0,0,0-.13c0-.33-.2-.43-.82-.43h-.64c0,.2,0,0-.17.89a4.7,4.7,0,0,0-.12.83c0,.26.14.34.64.34.95,0,1.25-.16,1.54-.8l.19.07a4.05,4.05,0,0,1-.46,1c-.07.09-.16.12-.48.12l-.81,0h-2.1l0-.16a.61.61,0,0,0,.46-.24,1.85,1.85,0,0,0,.31-.78c.1-.42.13-.59.3-1.44l.12-.6a6.61,6.61,0,0,0,.16-1.14c0-.33-.11-.48-.43-.51l0-.17H323c-.09.35-.16.76-.22,1.11" transform="translate(-265.96 -250.35)"/><path class="cls-6" d="M326.56,309.29H326a.84.84,0,0,1,.13.46,1.26,1.26,0,0,1-1.34,1.22,1.2,1.2,0,0,1-.41-.06c-.19.12-.25.17-.25.24s.08.13.42.23l.59.18c.61.19.91.37.91.81a1.63,1.63,0,0,1-1.8,1.43c-.84,0-1.35-.39-1.35-1s.39-.87,1-1c-.39-.14-.47-.2-.47-.33s.22-.36.68-.62a.77.77,0,0,1-.35-.68,1.27,1.27,0,0,1,1.33-1.26,1.4,1.4,0,0,1,.51.08h1Zm-1.45-.16a.87.87,0,0,0-.74.95.53.53,0,0,0,.51.58.84.84,0,0,0,.72-.92c0-.38-.19-.61-.49-.61m.12,3.05c-.26-.09-.56-.2-.89-.29a1.05,1.05,0,0,0-.88.95c0,.41.35.68.89.68s1.26-.44,1.26-.93c0-.18-.11-.3-.38-.41" transform="translate(-265.96 -250.35)"/><path class="cls-6" d="M329.39,312c-.13,0-.18-.1-.25-.47a2.73,2.73,0,0,1-1.36.47.63.63,0,0,1-.72-.65,2.9,2.9,0,0,1,.5-1.43,1.91,1.91,0,0,1,1.69-1,4.06,4.06,0,0,1,1,.14l0,.13a10.35,10.35,0,0,0-.46,2.14c0,.21,0,.31.13.31a1.5,1.5,0,0,0,.41-.1l0,.23a4.67,4.67,0,0,1-.89.27m-.35-2.8c-.29,0-.59.22-.85.65a3.12,3.12,0,0,0-.49,1.47c0,.23.1.35.3.35a1.78,1.78,0,0,0,1-.42,1.42,1.42,0,0,0,.24-.56,13,13,0,0,0,.3-1.39,1.24,1.24,0,0,0-.46-.1" transform="translate(-265.96 -250.35)"/><path class="cls-6" d="M332.74,307.51c-.25,1-.5,2.12-.74,3.19a3.74,3.74,0,0,0-.12.69c0,.1.06.15.17.15a1.66,1.66,0,0,0,.42-.08l0,.21a4.18,4.18,0,0,1-1.06.29.22.22,0,0,1-.23-.24,3.68,3.68,0,0,1,.13-.72c.25-1,.5-2.06.7-3,.09-.45.14-.66.14-.74a.12.12,0,0,0-.13-.13,1.3,1.3,0,0,0-.33.08l0-.23a3.76,3.76,0,0,1,1-.24q.15,0,.15.12a3.41,3.41,0,0,1-.13.65" transform="translate(-265.96 -250.35)"/><path class="cls-6" d="M334.61,308.08a.35.35,0,0,1-.38-.36.44.44,0,0,1,.47-.46.33.33,0,0,1,.37.36.45.45,0,0,1-.46.46m-.82,3.86c-.15,0-.25-.08-.25-.22a1.38,1.38,0,0,1,.07-.35c.1-.41.22-.95.3-1.23a4.29,4.29,0,0,0,.15-.78c0-.1-.05-.13-.13-.13a.9.9,0,0,0-.29.06h-.06l0-.2a3.54,3.54,0,0,1,1-.26c.11,0,.16,0,.16.13a5,5,0,0,1-.18.87l-.1.43a5.35,5.35,0,0,0-.24,1.12.16.16,0,0,0,.17.17,1.72,1.72,0,0,0,.42-.1v.21a3.68,3.68,0,0,1-1,.27" transform="translate(-265.96 -250.35)"/><path class="cls-6" d="M337.59,309.29H337l-.32,1.55a2.62,2.62,0,0,0-.09.57c0,.11.05.16.15.16a1.55,1.55,0,0,0,.35-.07l.07,0,0,.22a3,3,0,0,1-1,.27c-.15,0-.24-.07-.24-.22a2.31,2.31,0,0,1,.08-.55c.07-.27.12-.49.18-.78l.23-1.12H336l0-.24c.51-.09.68-.49.84-.93l.35-.08-.19.88h.63Z" transform="translate(-265.96 -250.35)"/><path class="cls-6" d="M339.91,308.38l-.25-.21.93-1,.67.17Zm-.84,2.26h-.23a2.43,2.43,0,0,0,0,.36c0,.4.13.59.4.59a2,2,0,0,0,1-.41l.09.26a2.71,2.71,0,0,1-1.36.52c-.48,0-.73-.29-.73-.79a2.17,2.17,0,0,1,1.81-2.33c.48,0,.77.22.77.59,0,.7-.75,1.21-1.71,1.21m.78-1.5c-.38,0-.76.49-.94,1.24H339c.69,0,1.22-.38,1.22-.86a.36.36,0,0,0-.36-.38" transform="translate(-265.96 -250.35)"/><path class="cls-6" d="M354.21,307.92H354c0-.08,0-.14,0-.18a.53.53,0,0,0-.14-.36c-.15-.14-.42-.19-1-.19l-.55,0c-.13.61-.25,1.21-.39,1.85h.43c.84,0,1-.07,1.16-.56h.2a14.65,14.65,0,0,0-.28,1.47h-.22a.74.74,0,0,0,0-.12.38.38,0,0,0-.14-.33c-.13-.1-.28-.11-.73-.11h-.52l-.09.53a7.56,7.56,0,0,0-.19,1.26.43.43,0,0,0,.44.49l0,.16h-1.9l0-.16a.62.62,0,0,0,.47-.24,1.8,1.8,0,0,0,.3-.78c.11-.43.15-.66.31-1.44l.12-.6a7.87,7.87,0,0,0,.16-1.14c0-.33-.12-.48-.44-.51l0-.17h3.36c-.07.35-.15.73-.21,1.1" transform="translate(-265.96 -250.35)"/><path class="cls-6" d="M356.78,309.81l-.25,0a1.45,1.45,0,0,0,0-.3c0-.13-.12-.24-.32-.24a.44.44,0,0,0-.32.19,3.72,3.72,0,0,0-.56,1.68l-.15.73c-.29,0-.36,0-.65,0,.07-.27.13-.5.18-.76l.17-.69a5.17,5.17,0,0,0,.16-.94c0-.19,0-.27-.13-.27l-.19,0-.19.06,0-.22a3.63,3.63,0,0,1,1-.27c.08,0,.12,0,.13.1a1.4,1.4,0,0,1,.06.32,1.6,1.6,0,0,1,.85-.43.92.92,0,0,1,.5.2,4.32,4.32,0,0,0-.28.78" transform="translate(-265.96 -250.35)"/><path class="cls-6" d="M359.76,312c-.13,0-.18-.1-.25-.47a2.76,2.76,0,0,1-1.36.47c-.46,0-.72-.24-.72-.65a2.81,2.81,0,0,1,.5-1.43,1.9,1.9,0,0,1,1.68-1,3.92,3.92,0,0,1,1,.14l0,.13a9.89,9.89,0,0,0-.47,2.14c0,.21,0,.31.14.31a1.55,1.55,0,0,0,.4-.1l0,.23a4.44,4.44,0,0,1-.88.27m-.35-2.8c-.3,0-.6.22-.87.65a3.21,3.21,0,0,0-.48,1.47c0,.23.11.35.3.35a1.81,1.81,0,0,0,1-.42,1.42,1.42,0,0,0,.24-.56,9.47,9.47,0,0,0,.29-1.39,1.12,1.12,0,0,0-.45-.1" transform="translate(-265.96 -250.35)"/><path class="cls-6" d="M363.36,309.29h-.62l-.32,1.55a2.62,2.62,0,0,0-.09.57c0,.11.05.16.15.16a1.61,1.61,0,0,0,.34-.07l.08,0,0,.22a3.09,3.09,0,0,1-1,.27c-.16,0-.26-.07-.26-.22a2.44,2.44,0,0,1,.09-.55c.06-.27.12-.49.17-.78l.24-1.12h-.4l.05-.24c.52-.09.7-.49.83-.93L363,308l-.19.88h.63Z" transform="translate(-265.96 -250.35)"/><path class="cls-6" d="M364.84,310.64h-.21a1.71,1.71,0,0,0,0,.36c0,.4.15.59.41.59a2.09,2.09,0,0,0,1-.41l.07.26a2.62,2.62,0,0,1-1.36.52.69.69,0,0,1-.73-.79,2.17,2.17,0,0,1,1.82-2.33c.49,0,.75.22.75.59,0,.7-.73,1.21-1.7,1.21m.78-1.5c-.36,0-.74.49-.94,1.24h.08c.7,0,1.23-.38,1.23-.86a.37.37,0,0,0-.37-.38" transform="translate(-265.96 -250.35)"/><path class="cls-6" d="M369.58,309.81l-.25,0a2.83,2.83,0,0,0,0-.3c0-.13-.12-.24-.31-.24a.44.44,0,0,0-.32.19,3.39,3.39,0,0,0-.56,1.68l-.16.73c-.28,0-.36,0-.65,0,.07-.27.13-.5.18-.76l.18-.69a5.17,5.17,0,0,0,.16-.94c0-.19-.05-.27-.13-.27l-.2,0-.18.06,0-.22a3.58,3.58,0,0,1,1-.27c.09,0,.12,0,.14.1a1,1,0,0,1,.05.32,1.64,1.64,0,0,1,.85-.43.89.89,0,0,1,.5.2,5.17,5.17,0,0,0-.27.78" transform="translate(-265.96 -250.35)"/><path class="cls-6" d="M372.59,312a.21.21,0,0,1-.24-.23,3.37,3.37,0,0,1,.12-.63l.07-.33a10.18,10.18,0,0,0,.29-1.38.15.15,0,0,0-.16-.17,1.21,1.21,0,0,0-.57.21,1.44,1.44,0,0,0-.51.44,2.45,2.45,0,0,0-.22.69c-.12.57-.19.94-.25,1.3-.3,0-.37,0-.67,0,.16-.55.26-1,.38-1.55a4.75,4.75,0,0,0,.16-.88c0-.18-.05-.26-.17-.26a1.77,1.77,0,0,0-.37.08v-.2a3.16,3.16,0,0,1,.93-.25c.17,0,.22.1.22.45v.06a3.47,3.47,0,0,1,1.58-.51c.25,0,.34.06.34.21a4.45,4.45,0,0,1-.21,1c-.08.34-.17.7-.2.87s-.06.36-.06.45.06.16.17.16a1.27,1.27,0,0,0,.39-.1l0,.22a4.23,4.23,0,0,1-1,.27" transform="translate(-265.96 -250.35)"/><path class="cls-6" d="M375.77,308.08a.36.36,0,0,1-.39-.36.45.45,0,0,1,.47-.46.33.33,0,0,1,.37.36.44.44,0,0,1-.45.46m-.82,3.86c-.15,0-.25-.08-.25-.22a1.78,1.78,0,0,1,.06-.35c.09-.41.23-.95.31-1.23a4.29,4.29,0,0,0,.15-.78c0-.1-.05-.13-.12-.13a.9.9,0,0,0-.3.06h-.06l0-.2a3.54,3.54,0,0,1,1-.26c.11,0,.16,0,.16.13a5,5,0,0,1-.18.87l-.11.43a6.25,6.25,0,0,0-.24,1.12.16.16,0,0,0,.18.17,1.63,1.63,0,0,0,.42-.1l0,.21a3.65,3.65,0,0,1-1.05.27" transform="translate(-265.96 -250.35)"/><path class="cls-6" d="M378.75,309.29h-.63l-.31,1.55a3.26,3.26,0,0,0-.1.57c0,.11.05.16.15.16a1.55,1.55,0,0,0,.35-.07l.07,0,0,.22a3,3,0,0,1-1,.27c-.15,0-.26-.07-.26-.22a2.07,2.07,0,0,1,.1-.55c.06-.27.11-.49.18-.78l.23-1.12h-.4l.05-.24c.52-.09.69-.49.83-.93l.36-.08-.18.88h.63Z" transform="translate(-265.96 -250.35)"/><path class="cls-6" d="M381.07,308.38l-.24-.21.92-1,.67.17Zm-.85,2.26H380a2.6,2.6,0,0,0,0,.36c0,.4.13.59.4.59a2.09,2.09,0,0,0,1-.41l.08.26a2.68,2.68,0,0,1-1.35.52c-.48,0-.73-.29-.73-.79a2.17,2.17,0,0,1,1.81-2.33c.47,0,.75.22.75.59,0,.7-.74,1.21-1.71,1.21m.78-1.5c-.36,0-.74.49-.93,1.24h.07c.7,0,1.24-.38,1.24-.86a.37.37,0,0,0-.38-.38" transform="translate(-265.96 -250.35)"/><path class="cls-6" d="M345.65,310.53a.91.91,0,0,0,.92-.91.92.92,0,1,0-.92.91" transform="translate(-265.96 -250.35)"/><path class="cls-6" d="M314.19,310.53a.92.92,0,0,0,.92-.91.92.92,0,0,0-1.84,0,.91.91,0,0,0,.92.91" transform="translate(-265.96 -250.35)"/><rect class="cls-6" x="21.84" y="64.53" width="94.34" height="0.8"/><rect class="cls-1" x="137.23" y="0.5" width="172.23" height="93.58"/><path class="cls-6" d="M451.08,276.72l-4.35-9.47v7.51a2.28,2.28,0,0,0,.23,1.3,1.23,1.23,0,0,0,1,.35h.4v.31h-3.92v-.31h.4a1.16,1.16,0,0,0,1-.43,2.57,2.57,0,0,0,.18-1.22v-7.35a2.6,2.6,0,0,0-.16-1.08.94.94,0,0,0-.43-.4,2.27,2.27,0,0,0-1-.16v-.31h3.19l4.08,8.81,4-8.81h3.19v.31h-.39a1.16,1.16,0,0,0-1,.43,2.55,2.55,0,0,0-.18,1.21v7.35a2.28,2.28,0,0,0,.23,1.3,1.26,1.26,0,0,0,1,.35h.39v.31H454.1v-.31h.4a1.17,1.17,0,0,0,1-.43,2.57,2.57,0,0,0,.18-1.22v-7.51l-4.34,9.47Z" transform="translate(-265.96 -250.35)"/><path class="cls-6" d="M464.49,276.41v.31h-4.82v-.31h.39a1.21,1.21,0,0,0,1-.41,2.53,2.53,0,0,0,.2-1.28v-7.27a3.81,3.81,0,0,0-.11-1.13.76.76,0,0,0-.34-.35,1.53,1.53,0,0,0-.77-.2h-.39v-.31h4.82v.31h-.41a1.18,1.18,0,0,0-1,.4,2.44,2.44,0,0,0-.21,1.28v7.27a3.77,3.77,0,0,0,.11,1.13.71.71,0,0,0,.35.36,1.53,1.53,0,0,0,.75.2Z" transform="translate(-265.96 -250.35)"/><path class="cls-6" d="M464.68,265.46h3.05l6.89,8.44v-6.49a2.16,2.16,0,0,0-.24-1.29,1.19,1.19,0,0,0-1-.35H473v-.31h3.92v.31h-.4a1.14,1.14,0,0,0-1,.43,2.55,2.55,0,0,0-.18,1.21v9.49h-.3l-7.42-9.07v6.93a2.31,2.31,0,0,0,.22,1.3,1.25,1.25,0,0,0,1,.35h.4v.31H465.3v-.31h.39a1.17,1.17,0,0,0,1-.43,2.54,2.54,0,0,0,.19-1.22v-7.82a5.3,5.3,0,0,0-.75-.76,2.88,2.88,0,0,0-.74-.34,2.65,2.65,0,0,0-.73-.07Z" transform="translate(-265.96 -250.35)"/><path class="cls-6" d="M482.43,276.41v.31H477.6v-.31h.4a1.23,1.23,0,0,0,1-.41,2.57,2.57,0,0,0,.19-1.28v-7.27a3.93,3.93,0,0,0-.1-1.13.76.76,0,0,0-.34-.35,1.53,1.53,0,0,0-.77-.2h-.4v-.31h4.83v.31H482a1.18,1.18,0,0,0-1,.4,2.44,2.44,0,0,0-.21,1.28v7.27a3.45,3.45,0,0,0,.11,1.13.73.73,0,0,0,.34.36,1.57,1.57,0,0,0,.76.2Z" transform="translate(-265.96 -250.35)"/><path class="cls-6" d="M490.64,265.2v3.9h-.31a4.8,4.8,0,0,0-.54-1.79,2.72,2.72,0,0,0-1.1-1.05,3,3,0,0,0-1.47-.39,2,2,0,0,0-1.43.52,1.63,1.63,0,0,0-.57,1.2,1.4,1.4,0,0,0,.36.94,9,9,0,0,0,2.45,1.66,17.4,17.4,0,0,1,2.15,1.3,3.13,3.13,0,0,1,.89,1.07,2.78,2.78,0,0,1,.31,1.28,2.92,2.92,0,0,1-1,2.21,3.61,3.61,0,0,1-2.55.92,5.37,5.37,0,0,1-.92-.07,11,11,0,0,1-1.07-.3,4.71,4.71,0,0,0-1-.27.45.45,0,0,0-.33.13,1,1,0,0,0-.18.51H484v-3.86h.31a5.47,5.47,0,0,0,.58,1.82,2.82,2.82,0,0,0,1.12,1,3.53,3.53,0,0,0,1.65.4,2.34,2.34,0,0,0,1.63-.55,1.69,1.69,0,0,0,.61-1.3,1.84,1.84,0,0,0-.23-.84,2.45,2.45,0,0,0-.71-.78,20.59,20.59,0,0,0-1.77-1.06,16.89,16.89,0,0,1-2.05-1.29,3.43,3.43,0,0,1-.93-1.07,2.6,2.6,0,0,1-.32-1.27,2.77,2.77,0,0,1,.93-2.09,3.3,3.3,0,0,1,2.37-.88,4.79,4.79,0,0,1,1.9.44,1.94,1.94,0,0,0,.66.21.48.48,0,0,0,.35-.13,1.06,1.06,0,0,0,.22-.52Z" transform="translate(-265.96 -250.35)"/><path class="cls-6" d="M502.13,265.46l.13,2.64h-.32a3,3,0,0,0-.25-1,1.73,1.73,0,0,0-.68-.71,2.44,2.44,0,0,0-1.13-.23H498.3v8.6a2.31,2.31,0,0,0,.22,1.3,1.26,1.26,0,0,0,1,.35h.39v.31h-4.77v-.31h.4a1.15,1.15,0,0,0,1-.43,2.57,2.57,0,0,0,.18-1.22v-8.6h-1.35a3.67,3.67,0,0,0-1.12.12,1.59,1.59,0,0,0-.74.61,2.51,2.51,0,0,0-.36,1.21h-.32l.13-2.64Z" transform="translate(-265.96 -250.35)"/><path class="cls-6" d="M506.23,266.07v4.45h2.48a2,2,0,0,0,1.28-.29,1.87,1.87,0,0,0,.49-1.34h.3v3.92h-.3a4.28,4.28,0,0,0-.24-1.06,1,1,0,0,0-.49-.45,2.3,2.3,0,0,0-1-.17h-2.48v3.71a3.59,3.59,0,0,0,.07.91.52.52,0,0,0,.23.26,1.48,1.48,0,0,0,.63.09h1.91a5.16,5.16,0,0,0,1.39-.13,2.09,2.09,0,0,0,.83-.52,6.53,6.53,0,0,0,1.05-1.56h.33l-1,2.83H503v-.31h.4a1.64,1.64,0,0,0,.75-.19.67.67,0,0,0,.36-.4,3.64,3.64,0,0,0,.1-1.09v-7.31a2.35,2.35,0,0,0-.22-1.32,1.28,1.28,0,0,0-1-.33H503v-.31h8.67l.13,2.46h-.33a3.71,3.71,0,0,0-.38-1.21,1.29,1.29,0,0,0-.63-.51,3.8,3.8,0,0,0-1.17-.13Zm-.18-4.27h1.85l.88,2.86h-.29Z" transform="translate(-265.96 -250.35)"/><path class="cls-6" d="M524.55,276.72h-3l-3.81-5.27-.69,0h-.23l-.26,0v3.27a2.34,2.34,0,0,0,.23,1.32,1.17,1.17,0,0,0,1,.37h.44v.31h-4.82v-.31h.42a1.13,1.13,0,0,0,1-.47,2.56,2.56,0,0,0,.17-1.22v-7.27a2.25,2.25,0,0,0-.23-1.32,1.21,1.21,0,0,0-1-.36h-.42v-.31h4.1a10,10,0,0,1,2.64.26,3.06,3.06,0,0,1,1.44,1,2.51,2.51,0,0,1,.6,1.68,2.64,2.64,0,0,1-.68,1.8,3.81,3.81,0,0,1-2.09,1.08l2.32,3.23a5.69,5.69,0,0,0,1.37,1.47,3.4,3.4,0,0,0,1.49.47Zm-8-5.79H517a3.61,3.61,0,0,0,2.43-.7,2.22,2.22,0,0,0,.82-1.78,2.31,2.31,0,0,0-.66-1.71,2.36,2.36,0,0,0-1.75-.66,6.93,6.93,0,0,0-1.3.16Z" transform="translate(-265.96 -250.35)"/><path class="cls-6" d="M528,266.07v4.45h2.47a2,2,0,0,0,1.29-.29,1.87,1.87,0,0,0,.48-1.34h.31v3.92h-.31a5,5,0,0,0-.23-1.06,1.08,1.08,0,0,0-.49-.45,2.38,2.38,0,0,0-1.05-.17H528v3.71a3.82,3.82,0,0,0,.06.91.55.55,0,0,0,.24.26,1.48,1.48,0,0,0,.63.09h1.91a5.13,5.13,0,0,0,1.38-.13,2,2,0,0,0,.83-.52,6.24,6.24,0,0,0,1.06-1.56h.33l-1,2.83h-8.68v-.31h.4a1.68,1.68,0,0,0,.76-.19.74.74,0,0,0,.36-.4,4.16,4.16,0,0,0,.09-1.09v-7.31a2.47,2.47,0,0,0-.21-1.32,1.29,1.29,0,0,0-1-.33h-.4v-.31h8.68l.12,2.46h-.32a3.92,3.92,0,0,0-.39-1.21,1.29,1.29,0,0,0-.63-.51,3.8,3.8,0,0,0-1.17-.13Z" transform="translate(-265.96 -250.35)"/><path class="cls-6" d="M420.42,294.72v-.31h.42a1.11,1.11,0,0,0,1-.46,2.63,2.63,0,0,0,.18-1.23v-7.27a2.3,2.3,0,0,0-.23-1.32,1.21,1.21,0,0,0-1-.36h-.42v-.31H425a10.07,10.07,0,0,1,3.84.57,4.56,4.56,0,0,1,2.11,1.91,5.83,5.83,0,0,1,.8,3.09,5.65,5.65,0,0,1-1.42,3.93,6.3,6.3,0,0,1-4.88,1.76Zm3.21-.82a8.09,8.09,0,0,0,1.77.23,4.19,4.19,0,0,0,3.19-1.35,5.94,5.94,0,0,0,0-7.34,4.26,4.26,0,0,0-3.26-1.35,7,7,0,0,0-1.7.24Z" transform="translate(-265.96 -250.35)"/><path class="cls-6" d="M436,284.07v4.45h2.47a2,2,0,0,0,1.28-.29,1.87,1.87,0,0,0,.49-1.34h.3v3.92h-.3a4.28,4.28,0,0,0-.24-1.06,1,1,0,0,0-.49-.45,2.3,2.3,0,0,0-1-.17H436v3.71a3.82,3.82,0,0,0,.06.91.58.58,0,0,0,.23.26,1.48,1.48,0,0,0,.63.09h1.91a5.16,5.16,0,0,0,1.39-.13,2.09,2.09,0,0,0,.83-.52,6.53,6.53,0,0,0,1.05-1.56h.34l-1,2.83h-8.67v-.31h.4a1.61,1.61,0,0,0,.75-.19.72.72,0,0,0,.37-.4,4.16,4.16,0,0,0,.09-1.09v-7.31a2.47,2.47,0,0,0-.21-1.32,1.31,1.31,0,0,0-1-.33h-.4v-.31h8.67l.13,2.46h-.32a3.92,3.92,0,0,0-.39-1.21,1.29,1.29,0,0,0-.63-.51,3.8,3.8,0,0,0-1.17-.13Z" transform="translate(-265.96 -250.35)"/><path class="cls-6" d="M456.78,291.6l.28.06-1,3.06h-8.71v-.31h.42a1.12,1.12,0,0,0,1-.47,2.55,2.55,0,0,0,.18-1.22v-7.27a2.28,2.28,0,0,0-.24-1.32,1.21,1.21,0,0,0-1-.36h-.42v-.31h5.09v.31a3.15,3.15,0,0,0-1.25.16,1,1,0,0,0-.5.44,3.62,3.62,0,0,0-.13,1.27v7.08a2.28,2.28,0,0,0,.13.94.62.62,0,0,0,.31.26,5.79,5.79,0,0,0,1.29.08h.83a5.79,5.79,0,0,0,1.81-.19,2.36,2.36,0,0,0,1-.68A5.44,5.44,0,0,0,456.78,291.6Z" transform="translate(-265.96 -250.35)"/><path class="cls-6" d="M457.84,287.5v-.39a3.9,3.9,0,0,0,1.16-.94,1.35,1.35,0,0,0,.21-.76.64.64,0,0,0-.09-.38.29.29,0,0,0-.21-.13.69.69,0,0,0-.24.06,1.25,1.25,0,0,1-.36.08.85.85,0,0,1-.59-.25.86.86,0,0,1-.26-.63.82.82,0,0,1,.26-.64,1.2,1.2,0,0,1,.83-.32,1.37,1.37,0,0,1,1,.47,1.61,1.61,0,0,1,.44,1.17,2.53,2.53,0,0,1-.74,1.78A3.45,3.45,0,0,1,457.84,287.5Z" transform="translate(-265.96 -250.35)"/><path class="cls-6" d="M465.07,284.07v4.45h2.48a2,2,0,0,0,1.28-.29,1.87,1.87,0,0,0,.49-1.34h.3v3.92h-.3a4.28,4.28,0,0,0-.24-1.06,1,1,0,0,0-.49-.45,2.3,2.3,0,0,0-1-.17h-2.48v3.71a3.59,3.59,0,0,0,.07.91.52.52,0,0,0,.23.26,1.48,1.48,0,0,0,.63.09h1.91a5.16,5.16,0,0,0,1.39-.13,2.09,2.09,0,0,0,.83-.52,6.53,6.53,0,0,0,1.05-1.56h.34l-1,2.83h-8.67v-.31h.4a1.64,1.64,0,0,0,.75-.19.67.67,0,0,0,.36-.4,3.64,3.64,0,0,0,.1-1.09v-7.31a2.35,2.35,0,0,0-.22-1.32,1.27,1.27,0,0,0-1-.33h-.4v-.31h8.67l.13,2.46h-.33a3.71,3.71,0,0,0-.38-1.21,1.29,1.29,0,0,0-.63-.51,3.8,3.8,0,0,0-1.17-.13Zm3.53-4.27-2.45,2.86h-.28l.87-2.86Z" transform="translate(-265.96 -250.35)"/><path class="cls-6" d="M472.2,294.72v-.31h.42a1.1,1.1,0,0,0,1-.46,2.63,2.63,0,0,0,.18-1.23v-7.27a2.3,2.3,0,0,0-.23-1.32,1.21,1.21,0,0,0-1-.36h-.42v-.31h4.58a10.07,10.07,0,0,1,3.84.57,4.56,4.56,0,0,1,2.11,1.91,5.84,5.84,0,0,1,.81,3.09,5.66,5.66,0,0,1-1.43,3.93,6.3,6.3,0,0,1-4.88,1.76Zm3.21-.82a8.09,8.09,0,0,0,1.77.23,4.19,4.19,0,0,0,3.19-1.35,5.94,5.94,0,0,0,0-7.34,4.26,4.26,0,0,0-3.26-1.35,7,7,0,0,0-1.7.24Z" transform="translate(-265.96 -250.35)"/><path class="cls-6" d="M492.29,283.77v-.31h4v.31h-.43a1.14,1.14,0,0,0-1,.55,2.68,2.68,0,0,0-.17,1.2v4.56a7.9,7.9,0,0,1-.34,2.63,3.24,3.24,0,0,1-1.32,1.6,4.65,4.65,0,0,1-2.67.67,5,5,0,0,1-2.8-.64,3.45,3.45,0,0,1-1.36-1.72,9.81,9.81,0,0,1-.26-2.77v-4.4a2.21,2.21,0,0,0-.29-1.36,1.19,1.19,0,0,0-.92-.32h-.43v-.31h4.87v.31h-.43a1.1,1.1,0,0,0-1,.44,2.41,2.41,0,0,0-.21,1.24v4.91a10.84,10.84,0,0,0,.12,1.5,3.24,3.24,0,0,0,.44,1.32,2.27,2.27,0,0,0,.91.78,3.17,3.17,0,0,0,1.45.31,4,4,0,0,0,2-.48,2.62,2.62,0,0,0,1.19-1.24,7.2,7.2,0,0,0,.32-2.54v-4.56a2.39,2.39,0,0,0-.23-1.32,1.24,1.24,0,0,0-1-.36Z" transform="translate(-265.96 -250.35)"/><path class="cls-6" d="M506.69,283.2,507,287h-.26a4.73,4.73,0,0,0-1.47-2.47,3.51,3.51,0,0,0-2.29-.76,3.71,3.71,0,0,0-2,.57,3.81,3.81,0,0,0-1.43,1.81,8.2,8.2,0,0,0-.51,3.1,6.53,6.53,0,0,0,.49,2.65,3.65,3.65,0,0,0,1.47,1.72,4.28,4.28,0,0,0,2.24.59,3.82,3.82,0,0,0,1.94-.47,6.31,6.31,0,0,0,1.84-1.86l.26.17a6,6,0,0,1-2,2.2,5,5,0,0,1-2.68.69,5.08,5.08,0,0,1-4.33-2.07,6,6,0,0,1-1.15-3.64,6.48,6.48,0,0,1,.76-3.09,5.49,5.49,0,0,1,2.08-2.19,5.57,5.57,0,0,1,2.89-.78,5.3,5.3,0,0,1,2.41.6,1.31,1.31,0,0,0,.5.18.56.56,0,0,0,.39-.15,1.33,1.33,0,0,0,.3-.63Z" transform="translate(-265.96 -250.35)"/><path class="cls-6" d="M515.58,291h-4.36l-.77,1.77a3,3,0,0,0-.28,1,.56.56,0,0,0,.25.46,2.13,2.13,0,0,0,1.06.25v.31h-3.55v-.31a1.86,1.86,0,0,0,.91-.32,5,5,0,0,0,.94-1.62l4-9.27H514l3.92,9.37a4.24,4.24,0,0,0,.86,1.46,1.78,1.78,0,0,0,1.07.38v.31h-4.44v-.31a1.62,1.62,0,0,0,.91-.23.56.56,0,0,0,.24-.46,3.43,3.43,0,0,0-.33-1.15Zm-.24-.62-1.91-4.55-1.95,4.55Z" transform="translate(-265.96 -250.35)"/><path class="cls-6" d="M528,283.46l.12,2.64h-.31a3.3,3.3,0,0,0-.25-1,1.69,1.69,0,0,0-.69-.71,2.39,2.39,0,0,0-1.12-.23h-1.59v8.6a2.28,2.28,0,0,0,.23,1.3,1.25,1.25,0,0,0,1,.35h.39v.31H521v-.31h.4a1.17,1.17,0,0,0,1-.43,2.57,2.57,0,0,0,.18-1.22v-8.6h-1.35a3.75,3.75,0,0,0-1.13.12,1.56,1.56,0,0,0-.73.61,2.41,2.41,0,0,0-.37,1.21h-.31l.13-2.64Z" transform="translate(-265.96 -250.35)"/><path class="cls-6" d="M533.82,294.41v.31H529v-.31h.4a1.21,1.21,0,0,0,1-.41,2.53,2.53,0,0,0,.2-1.28v-7.27a3.81,3.81,0,0,0-.11-1.13.71.71,0,0,0-.34-.35,1.49,1.49,0,0,0-.76-.2H529v-.31h4.82v.31h-.41a1.19,1.19,0,0,0-1,.4,2.44,2.44,0,0,0-.21,1.28v7.27a3.77,3.77,0,0,0,.11,1.13.75.75,0,0,0,.35.36,1.56,1.56,0,0,0,.75.2Z" transform="translate(-265.96 -250.35)"/><path class="cls-6" d="M540.45,283.2a5.11,5.11,0,0,1,3.8,1.67,5.74,5.74,0,0,1,1.61,4.15,5.92,5.92,0,0,1-1.62,4.26,5.41,5.41,0,0,1-7.82,0,5.91,5.91,0,0,1-1.59-4.27,5.7,5.7,0,0,1,1.83-4.38A5.39,5.39,0,0,1,540.45,283.2Zm-.15.61a3,3,0,0,0-2.43,1.12,6.32,6.32,0,0,0-1.14,4.08,6.71,6.71,0,0,0,1.18,4.24,2.9,2.9,0,0,0,2.39,1.13,3.27,3.27,0,0,0,2.62-1.23,6,6,0,0,0,1-3.9,6.79,6.79,0,0,0-1.14-4.31A3,3,0,0,0,540.3,283.81Z" transform="translate(-265.96 -250.35)"/><path class="cls-6" d="M546.29,283.46h3.05l6.88,8.44v-6.49a2.18,2.18,0,0,0-.23-1.29,1.2,1.2,0,0,0-1-.35h-.39v-.31h3.92v.31h-.4a1.13,1.13,0,0,0-1,.43,2.55,2.55,0,0,0-.18,1.21v9.49h-.3l-7.42-9.07v6.93a2.31,2.31,0,0,0,.22,1.3,1.25,1.25,0,0,0,1,.35h.4v.31h-3.92v-.31h.39a1.17,1.17,0,0,0,1-.43,2.57,2.57,0,0,0,.18-1.22v-7.82a4.88,4.88,0,0,0-.74-.76,2.88,2.88,0,0,0-.74-.34,2.65,2.65,0,0,0-.73-.07Z" transform="translate(-265.96 -250.35)"/><path class="cls-6" d="M428.72,301.46h3.06l6.88,8.44v-6.49a2.16,2.16,0,0,0-.24-1.29,1.19,1.19,0,0,0-1-.35h-.39v-.31H441v.31h-.4a1.14,1.14,0,0,0-1,.43,2.55,2.55,0,0,0-.18,1.21v9.49h-.3l-7.42-9.07v6.93a2.31,2.31,0,0,0,.22,1.3,1.26,1.26,0,0,0,1,.35h.4v.31h-3.92v-.31h.39a1.16,1.16,0,0,0,1-.43,2.42,2.42,0,0,0,.19-1.22v-7.82a5.3,5.3,0,0,0-.75-.76,2.72,2.72,0,0,0-.74-.34,2.65,2.65,0,0,0-.73-.07Z" transform="translate(-265.96 -250.35)"/><path class="cls-6" d="M449,309h-4.36l-.76,1.77a2.8,2.8,0,0,0-.28,1,.57.57,0,0,0,.24.46,2.17,2.17,0,0,0,1.06.25v.31h-3.55v-.31a1.8,1.8,0,0,0,.92-.33,5.16,5.16,0,0,0,.94-1.61l4-9.27h.29l3.91,9.37a4.41,4.41,0,0,0,.86,1.46,1.81,1.81,0,0,0,1.08.38v.31h-4.44v-.31a1.62,1.62,0,0,0,.91-.23.58.58,0,0,0,.23-.46,3.43,3.43,0,0,0-.33-1.15Zm-.23-.62-1.91-4.55-2,4.55Z" transform="translate(-265.96 -250.35)"/><path class="cls-6" d="M461.45,301.46l.13,2.64h-.32a3,3,0,0,0-.25-1,1.73,1.73,0,0,0-.68-.71,2.44,2.44,0,0,0-1.13-.22h-1.58v8.59a2.31,2.31,0,0,0,.22,1.3,1.25,1.25,0,0,0,1,.35h.39v.31h-4.77v-.31h.4a1.16,1.16,0,0,0,1-.43,2.57,2.57,0,0,0,.18-1.22v-8.59h-1.35a3.71,3.71,0,0,0-1.12.11,1.54,1.54,0,0,0-.74.61,2.51,2.51,0,0,0-.37,1.21h-.31l.13-2.64Z" transform="translate(-265.96 -250.35)"/><path class="cls-6" d="M467.25,312.41v.31h-4.83v-.31h.4a1.19,1.19,0,0,0,1-.41,2.42,2.42,0,0,0,.2-1.28v-7.27a3.49,3.49,0,0,0-.11-1.13.67.67,0,0,0-.34-.35,1.47,1.47,0,0,0-.76-.2h-.4v-.31h4.83v.31h-.41a1.2,1.2,0,0,0-1,.4,2.59,2.59,0,0,0-.2,1.28v7.27a3.88,3.88,0,0,0,.1,1.13.8.8,0,0,0,.35.36,1.57,1.57,0,0,0,.76.2Z" transform="translate(-265.96 -250.35)"/><path class="cls-6" d="M473.88,301.2a5.09,5.09,0,0,1,3.79,1.67,5.7,5.7,0,0,1,1.61,4.15,5.92,5.92,0,0,1-1.62,4.26,5.41,5.41,0,0,1-7.82,0,5.94,5.94,0,0,1-1.58-4.27,5.73,5.73,0,0,1,1.82-4.38A5.41,5.41,0,0,1,473.88,301.2Zm-.16.61a2.94,2.94,0,0,0-2.42,1.12,6.32,6.32,0,0,0-1.14,4.08,6.65,6.65,0,0,0,1.18,4.24,2.89,2.89,0,0,0,2.39,1.13,3.27,3.27,0,0,0,2.62-1.23,6,6,0,0,0,1-3.9,6.79,6.79,0,0,0-1.14-4.31A3,3,0,0,0,473.72,301.81Z" transform="translate(-265.96 -250.35)"/><path class="cls-6" d="M479.71,301.46h3.06l6.88,8.44v-6.49a2.26,2.26,0,0,0-.23-1.29,1.21,1.21,0,0,0-1-.35h-.4v-.31H492v.31h-.4a1.14,1.14,0,0,0-1,.43,2.55,2.55,0,0,0-.18,1.21v9.49h-.3l-7.42-9.07v6.93a2.31,2.31,0,0,0,.22,1.3,1.26,1.26,0,0,0,1,.35h.4v.31h-3.92v-.31h.4a1.17,1.17,0,0,0,1-.43,2.57,2.57,0,0,0,.18-1.22v-7.82a6,6,0,0,0-.74-.76,3,3,0,0,0-.75-.34,2.65,2.65,0,0,0-.73-.07Z" transform="translate(-265.96 -250.35)"/><path class="cls-6" d="M500,309h-4.36l-.76,1.77a2.8,2.8,0,0,0-.28,1,.57.57,0,0,0,.24.46,2.2,2.2,0,0,0,1.06.25v.31h-3.54v-.31a1.79,1.79,0,0,0,.91-.33,5.16,5.16,0,0,0,.94-1.61l4-9.27h.29l3.92,9.37a4.27,4.27,0,0,0,.85,1.46,1.81,1.81,0,0,0,1.08.38v.31h-4.44v-.31a1.62,1.62,0,0,0,.91-.23.55.55,0,0,0,.23-.46,3.43,3.43,0,0,0-.33-1.15Zm-.23-.62-1.91-4.55-2,4.55Z" transform="translate(-265.96 -250.35)"/><path class="cls-6" d="M514.24,309.6l.27.06-1,3.06h-8.72v-.31h.42a1.15,1.15,0,0,0,1-.47,2.73,2.73,0,0,0,.17-1.22v-7.27a2.39,2.39,0,0,0-.23-1.32,1.25,1.25,0,0,0-1-.36h-.42v-.31h5.1v.31a3.17,3.17,0,0,0-1.26.16,1,1,0,0,0-.49.44,3.53,3.53,0,0,0-.14,1.27v7.08a2.24,2.24,0,0,0,.14.94.56.56,0,0,0,.3.26,5.84,5.84,0,0,0,1.3.08h.82a5.91,5.91,0,0,0,1.82-.19,2.34,2.34,0,0,0,1-.68A5.43,5.43,0,0,0,514.24,309.6Z" transform="translate(-265.96 -250.35)"/><path class="cls-6" d="M518.43,302.07v4.45h2.47a2,2,0,0,0,1.29-.29,1.83,1.83,0,0,0,.48-1.34H523v3.92h-.31a5,5,0,0,0-.23-1.06,1.08,1.08,0,0,0-.49-.45,2.38,2.38,0,0,0-1.05-.17h-2.47v3.71a3.82,3.82,0,0,0,.06.91.6.6,0,0,0,.24.26,1.48,1.48,0,0,0,.63.09h1.91a5.08,5.08,0,0,0,1.38-.13,2,2,0,0,0,.83-.52,6.44,6.44,0,0,0,1.06-1.56h.33l-1,2.83h-8.68v-.31h.4a1.68,1.68,0,0,0,.76-.19.74.74,0,0,0,.36-.4,4.16,4.16,0,0,0,.09-1.09v-7.31a2.47,2.47,0,0,0-.21-1.32,1.29,1.29,0,0,0-1-.33h-.4v-.31h8.68l.12,2.46h-.32a3.92,3.92,0,0,0-.39-1.21,1.31,1.31,0,0,0-.62-.51,3.89,3.89,0,0,0-1.17-.13Z" transform="translate(-265.96 -250.35)"/><path class="cls-6" d="M533.06,302.07v4.45h2.48a2,2,0,0,0,1.28-.29,1.83,1.83,0,0,0,.48-1.34h.31v3.92h-.31a4,4,0,0,0-.23-1.06,1,1,0,0,0-.49-.45,2.33,2.33,0,0,0-1-.17h-2.48v3.71a3.15,3.15,0,0,0,.07.91.52.52,0,0,0,.23.26,1.48,1.48,0,0,0,.63.09h1.91a5.16,5.16,0,0,0,1.39-.13,2.16,2.16,0,0,0,.83-.52,6.74,6.74,0,0,0,1-1.56h.33l-1,2.83h-8.67v-.31h.4a1.67,1.67,0,0,0,.75-.19.67.67,0,0,0,.36-.4,3.64,3.64,0,0,0,.1-1.09v-7.31a2.35,2.35,0,0,0-.22-1.32,1.28,1.28,0,0,0-1-.33h-.4v-.31h8.67l.13,2.46h-.33a3.71,3.71,0,0,0-.38-1.21,1.29,1.29,0,0,0-.63-.51,3.8,3.8,0,0,0-1.17-.13Z" transform="translate(-265.96 -250.35)"/><path class="cls-6" d="M549.73,301.46l.12,2.64h-.31a3,3,0,0,0-.25-1,1.73,1.73,0,0,0-.68-.71,2.44,2.44,0,0,0-1.13-.22H545.9v8.59a2.31,2.31,0,0,0,.22,1.3,1.25,1.25,0,0,0,1,.35h.39v.31h-4.77v-.31h.4a1.16,1.16,0,0,0,1-.43,2.57,2.57,0,0,0,.18-1.22v-8.59H543a3.71,3.71,0,0,0-1.12.11,1.54,1.54,0,0,0-.74.61,2.41,2.41,0,0,0-.37,1.21h-.31l.13-2.64Z" transform="translate(-265.96 -250.35)"/><path class="cls-6" d="M420.57,330.72v-.31H421a1.11,1.11,0,0,0,1-.46,2.63,2.63,0,0,0,.18-1.23v-7.27a2.3,2.3,0,0,0-.23-1.32,1.22,1.22,0,0,0-1-.36h-.42v-.31h4.58A10.07,10.07,0,0,1,429,320a4.62,4.62,0,0,1,2.11,1.91,5.83,5.83,0,0,1,.8,3.09,5.65,5.65,0,0,1-1.42,3.93,6.3,6.3,0,0,1-4.88,1.76Zm3.21-.82a8.09,8.09,0,0,0,1.77.23,4.19,4.19,0,0,0,3.19-1.35,5.94,5.94,0,0,0,0-7.34,4.26,4.26,0,0,0-3.26-1.35,7,7,0,0,0-1.7.24Z" transform="translate(-265.96 -250.35)"/><path class="cls-6" d="M436.1,320.07v4.45h2.48a2,2,0,0,0,1.29-.29,1.92,1.92,0,0,0,.48-1.34h.3v3.92h-.3a4.28,4.28,0,0,0-.24-1.06,1,1,0,0,0-.49-.45,2.3,2.3,0,0,0-1-.17H436.1v3.71a3.59,3.59,0,0,0,.07.91.58.58,0,0,0,.23.26,1.48,1.48,0,0,0,.63.09h1.91a5.16,5.16,0,0,0,1.39-.13,2.09,2.09,0,0,0,.83-.52,6.74,6.74,0,0,0,1-1.56h.34l-1,2.83H432.9v-.31h.4a1.64,1.64,0,0,0,.75-.19.72.72,0,0,0,.37-.4,4.16,4.16,0,0,0,.09-1.09v-7.31a2.35,2.35,0,0,0-.22-1.32,1.27,1.27,0,0,0-1-.33h-.4v-.31h8.68l.12,2.46h-.32a3.92,3.92,0,0,0-.39-1.21,1.29,1.29,0,0,0-.63-.51,3.8,3.8,0,0,0-1.17-.13Z" transform="translate(-265.96 -250.35)"/><path class="cls-6" d="M456.93,327.6l.28.06-1,3.06h-8.71v-.31H448a1.12,1.12,0,0,0,1-.47,2.55,2.55,0,0,0,.18-1.22v-7.27a2.28,2.28,0,0,0-.24-1.32,1.21,1.21,0,0,0-1-.36h-.42v-.31h5.09v.31a3.15,3.15,0,0,0-1.25.16,1,1,0,0,0-.5.44,3.62,3.62,0,0,0-.13,1.27v7.08a2.28,2.28,0,0,0,.13.94.62.62,0,0,0,.31.26,5.79,5.79,0,0,0,1.29.08h.83a5.84,5.84,0,0,0,1.81-.19,2.36,2.36,0,0,0,1-.68A5.44,5.44,0,0,0,456.93,327.6Z" transform="translate(-265.96 -250.35)"/><path class="cls-6" d="M465.35,327H461l-.76,1.77a2.88,2.88,0,0,0-.29,1,.59.59,0,0,0,.25.46,2.17,2.17,0,0,0,1.06.25v.31H457.7v-.31a1.84,1.84,0,0,0,.92-.33,5,5,0,0,0,.93-1.61l4-9.27h.29l3.92,9.37a4.24,4.24,0,0,0,.86,1.46,1.81,1.81,0,0,0,1.08.38v.31h-4.44v-.31a1.58,1.58,0,0,0,.9-.23.56.56,0,0,0,.24-.46,3.43,3.43,0,0,0-.33-1.15Zm-.23-.62-1.91-4.55-2,4.55Z" transform="translate(-265.96 -250.35)"/><path class="cls-6" d="M474.85,319.77v-.31h4.83v.31h-.41a1.2,1.2,0,0,0-1,.4,2.62,2.62,0,0,0-.19,1.28V327a6.41,6.41,0,0,1-.28,2.05,3.27,3.27,0,0,1-1,1.38,2.43,2.43,0,0,1-1.65.58,1.84,1.84,0,0,1-1.22-.38,1.15,1.15,0,0,1-.45-.89.82.82,0,0,1,.21-.61.89.89,0,0,1,.63-.26.72.72,0,0,1,.48.18,2.74,2.74,0,0,1,.54.93c.13.29.29.44.49.44a.54.54,0,0,0,.42-.27,1.77,1.77,0,0,0,.19-1v-7.69a3.49,3.49,0,0,0-.11-1.13A.7.7,0,0,0,476,320a1.41,1.41,0,0,0-.75-.2Z" transform="translate(-265.96 -250.35)"/><path class="cls-6" d="M483.33,320.07v4.45h2.47a2,2,0,0,0,1.29-.29,1.83,1.83,0,0,0,.48-1.34h.31v3.92h-.31a4.43,4.43,0,0,0-.23-1.06,1.08,1.08,0,0,0-.49-.45,2.38,2.38,0,0,0-1.05-.17h-2.47v3.71a3.82,3.82,0,0,0,.06.91.6.6,0,0,0,.24.26,1.48,1.48,0,0,0,.63.09h1.91a5.08,5.08,0,0,0,1.38-.13,2,2,0,0,0,.83-.52,6.44,6.44,0,0,0,1.06-1.56h.33l-1,2.83h-8.68v-.31h.4a1.68,1.68,0,0,0,.76-.19.67.67,0,0,0,.36-.4,4.16,4.16,0,0,0,.09-1.09v-7.31a2.47,2.47,0,0,0-.21-1.32,1.29,1.29,0,0,0-1-.33h-.4v-.31h8.68l.12,2.46h-.32a3.92,3.92,0,0,0-.39-1.21,1.31,1.31,0,0,0-.62-.51,3.84,3.84,0,0,0-1.17-.13Z" transform="translate(-265.96 -250.35)"/><path class="cls-6" d="M498.27,319.77v-.31h4v.31h-.42a1.14,1.14,0,0,0-1,.55,2.5,2.5,0,0,0-.18,1.2v4.56a8.21,8.21,0,0,1-.33,2.63,3.35,3.35,0,0,1-1.32,1.6,4.68,4.68,0,0,1-2.68.67,5,5,0,0,1-2.8-.64,3.49,3.49,0,0,1-1.35-1.72,9.44,9.44,0,0,1-.26-2.77v-4.4a2.21,2.21,0,0,0-.29-1.36,1.2,1.2,0,0,0-.93-.32h-.42v-.31h4.87v.31h-.44a1.1,1.1,0,0,0-1,.44,2.41,2.41,0,0,0-.21,1.24v4.91a10.84,10.84,0,0,0,.12,1.5,3.24,3.24,0,0,0,.44,1.32,2.3,2.3,0,0,0,.9.78,3.12,3.12,0,0,0,1.46.31,4,4,0,0,0,2-.48,2.62,2.62,0,0,0,1.19-1.24,7.2,7.2,0,0,0,.32-2.54v-4.56a2.39,2.39,0,0,0-.23-1.32,1.25,1.25,0,0,0-1-.36Z" transform="translate(-265.96 -250.35)"/><path class="cls-6" d="M502.21,319.46h3.06l6.88,8.44v-6.49a2.26,2.26,0,0,0-.23-1.29,1.22,1.22,0,0,0-1-.35h-.39v-.31h3.92v.31h-.4a1.14,1.14,0,0,0-1,.43,2.55,2.55,0,0,0-.18,1.21v9.49h-.3l-7.42-9.07v6.93a2.31,2.31,0,0,0,.22,1.3,1.26,1.26,0,0,0,1,.35h.4v.31h-3.92v-.31h.39a1.18,1.18,0,0,0,1-.43,2.57,2.57,0,0,0,.18-1.22v-7.82a6,6,0,0,0-.74-.76,3,3,0,0,0-.75-.34,2.65,2.65,0,0,0-.73-.07Z" transform="translate(-265.96 -250.35)"/><path class="cls-6" d="M518.27,320.07v4.45h2.47a2,2,0,0,0,1.29-.29,1.92,1.92,0,0,0,.48-1.34h.3v3.92h-.3a5,5,0,0,0-.23-1.06,1.08,1.08,0,0,0-.49-.45,2.38,2.38,0,0,0-1-.17h-2.47v3.71a3.82,3.82,0,0,0,.06.91.58.58,0,0,0,.23.26,1.57,1.57,0,0,0,.64.09h1.9a5.16,5.16,0,0,0,1.39-.13,2,2,0,0,0,.83-.52,6.74,6.74,0,0,0,1.06-1.56h.33l-1,2.83h-8.68v-.31h.4a1.68,1.68,0,0,0,.76-.19.74.74,0,0,0,.36-.4,4.16,4.16,0,0,0,.09-1.09v-7.31a2.47,2.47,0,0,0-.21-1.32,1.31,1.31,0,0,0-1-.33h-.4v-.31h8.68l.12,2.46h-.32a3.92,3.92,0,0,0-.39-1.21,1.29,1.29,0,0,0-.63-.51,3.8,3.8,0,0,0-1.17-.13Z" transform="translate(-265.96 -250.35)"/><path class="cls-6" d="M532.89,319.2v3.9h-.31a4.63,4.63,0,0,0-.53-1.79,2.78,2.78,0,0,0-1.1-1.05,3.06,3.06,0,0,0-1.48-.39,2,2,0,0,0-1.43.52,1.65,1.65,0,0,0-.56,1.2,1.4,1.4,0,0,0,.36.94,9,9,0,0,0,2.45,1.66,18.23,18.23,0,0,1,2.15,1.3,3.25,3.25,0,0,1,.89,1.07,2.78,2.78,0,0,1,.31,1.28,2.92,2.92,0,0,1-1,2.21,3.59,3.59,0,0,1-2.56.92,5.45,5.45,0,0,1-.92-.07c-.17,0-.52-.13-1.06-.3a4.6,4.6,0,0,0-1-.27.45.45,0,0,0-.33.13.9.9,0,0,0-.17.51h-.31v-3.86h.31a5.24,5.24,0,0,0,.58,1.82,2.79,2.79,0,0,0,1.11,1,3.53,3.53,0,0,0,1.65.4,2.37,2.37,0,0,0,1.64-.55,1.71,1.71,0,0,0,.6-1.3,1.84,1.84,0,0,0-.23-.84,2.45,2.45,0,0,0-.71-.78,18.26,18.26,0,0,0-1.76-1.06,17.21,17.21,0,0,1-2.06-1.29,3.4,3.4,0,0,1-.92-1.07,2.5,2.5,0,0,1-.32-1.27,2.77,2.77,0,0,1,.93-2.09,3.3,3.3,0,0,1,2.37-.88,4.83,4.83,0,0,1,1.9.44,1.9,1.9,0,0,0,.65.21.5.5,0,0,0,.36-.13,1,1,0,0,0,.21-.52Z" transform="translate(-265.96 -250.35)"/><path class="cls-6" d="M542.35,319.2v3.9H542a4.8,4.8,0,0,0-.54-1.79,2.72,2.72,0,0,0-1.1-1.05,3,3,0,0,0-1.47-.39,2,2,0,0,0-1.43.52,1.63,1.63,0,0,0-.57,1.2,1.4,1.4,0,0,0,.36.94,9,9,0,0,0,2.45,1.66,17.4,17.4,0,0,1,2.15,1.3,3.13,3.13,0,0,1,.89,1.07,2.78,2.78,0,0,1,.31,1.28,2.92,2.92,0,0,1-1,2.21,3.57,3.57,0,0,1-2.55.92,5.37,5.37,0,0,1-.92-.07,11,11,0,0,1-1.07-.3,4.71,4.71,0,0,0-1-.27.45.45,0,0,0-.33.13,1,1,0,0,0-.18.51h-.31v-3.86H536a5.47,5.47,0,0,0,.58,1.82,2.82,2.82,0,0,0,1.12,1,3.53,3.53,0,0,0,1.65.4,2.34,2.34,0,0,0,1.63-.55,1.69,1.69,0,0,0,.61-1.3,1.84,1.84,0,0,0-.23-.84,2.45,2.45,0,0,0-.71-.78,20.59,20.59,0,0,0-1.77-1.06,16.89,16.89,0,0,1-2-1.29,3.43,3.43,0,0,1-.93-1.07,2.6,2.6,0,0,1-.32-1.27,2.77,2.77,0,0,1,.93-2.09,3.3,3.3,0,0,1,2.37-.88,4.79,4.79,0,0,1,1.9.44,1.94,1.94,0,0,0,.66.21.48.48,0,0,0,.35-.13,1.06,1.06,0,0,0,.22-.52Z" transform="translate(-265.96 -250.35)"/><path class="cls-6" d="M547.56,320.07v4.45H550a2,2,0,0,0,1.29-.29,1.83,1.83,0,0,0,.48-1.34h.31v3.92h-.31a4.43,4.43,0,0,0-.23-1.06,1,1,0,0,0-.49-.45,2.38,2.38,0,0,0-1.05-.17h-2.47v3.71a3.15,3.15,0,0,0,.07.91.52.52,0,0,0,.23.26,1.48,1.48,0,0,0,.63.09h1.91a5,5,0,0,0,1.38-.13,2,2,0,0,0,.83-.52,6.44,6.44,0,0,0,1.06-1.56H554l-1,2.83h-8.67v-.31h.39a1.68,1.68,0,0,0,.76-.19.67.67,0,0,0,.36-.4,4,4,0,0,0,.1-1.09v-7.31a2.44,2.44,0,0,0-.22-1.32,1.29,1.29,0,0,0-1-.33h-.39v-.31H553l.12,2.46h-.32a3.67,3.67,0,0,0-.39-1.21,1.31,1.31,0,0,0-.62-.51,3.8,3.8,0,0,0-1.17-.13Z" transform="translate(-265.96 -250.35)"/></svg>