<svg height="512" viewBox="0 0 512 512" width="512" xmlns="http://www.w3.org/2000/svg"><g id="Filledotuline"><path d="m344 80.753-24-32a24.721 24.721 0 0 1 35.777-22.111l28.223 14.111 28.223-14.111a24.721 24.721 0 0 1 35.777 22.111l-24 32v32l54.751 88.97a62.356 62.356 0 0 1 9.249 32.677 62.352 62.352 0 0 1 -62.352 62.351h-83.3a62.352 62.352 0 0 1 -62.348-62.351 62.356 62.356 0 0 1 9.249-32.678l54.751-88.969z" fill="#eaae48"/><path d="m344 80.753h80v32h-80z" fill="#b0792c"/><path d="m128 448v-248h192v232z" fill="#85bb40"/><path d="m64 360h28.278a178.893 178.893 0 0 1 80.006 18.887 48.44 48.44 0 0 0 21.66 5.113h62.056a20 20 0 0 1 20 20 20 20 0 0 1 -20 20h-.493a41.742 41.742 0 0 0 16.311-3.319l66.883-28.4a21.04 21.04 0 0 1 27.78 11.868 21.624 21.624 0 0 1 -12.215 28.131l-123.582 47.12a130.744 130.744 0 0 1 -95.943-1.06l-70.741-29.375-32-.965v-88z" fill="#f8caa8"/><path d="m16 352h48v112h-48z" fill="#0093b9"/><rect fill="#e99180" height="16" rx="8" width="95.507" x="160" y="416"/><path d="m136 208h176v168h16v-176a8 8 0 0 0 -8-8h-192a8 8 0 0 0 -8 8v136h16z"/><path d="m280 296h-16v-24a8 8 0 0 0 -8-8h-24v-24a8 8 0 0 0 -8-8h-32a8 8 0 0 0 -8 8v56h-16v16h112zm-32-16v16h-16v-16zm-48-32h16v48h-16z"/><path d="m358.013 384.88a28.641 28.641 0 0 0 -22.439.038l-51.721 21.961a28.013 28.013 0 0 0 -27.853-30.879h-62.056a40.647 40.647 0 0 1 -18.082-4.269 187.848 187.848 0 0 0 -83.584-19.731h-20.278a8 8 0 0 0 -8-8h-48v16h40v96h-40v16h48a8 8 0 0 0 8-8v-3.05l59.728 24.8a138.434 138.434 0 0 0 101.806 1.125l123.582-47.123a29.1 29.1 0 0 0 16.339-15.571 29.61 29.61 0 0 0 .47-22.963 29.115 29.115 0 0 0 -15.912-16.338zm.805 32.84a13.214 13.214 0 0 1 -7.4 7.086l-123.585 47.123a122.436 122.436 0 0 1 -90.023-.975l-65.81-27.33v-75.624h20.278a171.761 171.761 0 0 1 76.428 18.042 56.734 56.734 0 0 0 25.238 5.958h62.056a11.993 11.993 0 0 1 .473 23.976c-.322.009-.643.024-.966.024h-95.507v16h95.507c.165 0 .328-.011.493-.012v.012c.558 0 1.111-.021 1.661-.053a49.43 49.43 0 0 0 17.283-3.9l66.877-28.4a12.757 12.757 0 0 1 9.995-.015 13.238 13.238 0 0 1 7.22 7.446 13.725 13.725 0 0 1 -.218 10.642z"/><path d="m485.564 196.777-53.564-87.041v-27.069l22.4-29.867a8 8 0 0 0 1.6-4.8 32.722 32.722 0 0 0 -47.355-29.267l-24.645 12.323-24.645-12.323a32.722 32.722 0 0 0 -47.355 29.267 8 8 0 0 0 1.6 4.8l22.4 29.867v27.069l-38.813 63.072 13.626 8.384 37.657-61.192h71.06l52.408 85.162a54.353 54.353 0 0 1 -46.29 82.838h-81.648v16h81.648a70.352 70.352 0 0 0 59.916-107.223zm-149.633-163a16.615 16.615 0 0 1 16.268-.732l28.223 14.111a8 8 0 0 0 7.156 0l28.222-14.112a16.727 16.727 0 0 1 24.025 12.521l-19.825 26.435h-72l-19.826-26.435a16.6 16.6 0 0 1 7.757-11.789zm80.069 70.223h-64v-16h64z"/><path d="m360 224v1.167a22.876 22.876 0 0 0 16 21.788v9.045h16v-9.045a22.834 22.834 0 0 0 3.379-42.21l-15.6-7.8a6.833 6.833 0 0 1 3.054-12.945h2.334a6.84 6.84 0 0 1 6.833 6.833v1.167h16v-1.167a22.876 22.876 0 0 0 -16-21.788v-9.045h-16v9.045a22.834 22.834 0 0 0 -3.379 42.21l15.6 7.8a6.833 6.833 0 0 1 -3.054 12.945h-2.334a6.84 6.84 0 0 1 -6.833-6.833v-1.167z"/><path d="m424 200h16v16h-16z"/><path d="m160 336h16v16h-16z"/><path d="m192 336h96v16h-96z"/><path d="m275.047 60.739-9.816 29.448 15.18 5.058 15.179-45.537a8 8 0 0 0 -5.061-10.119l-45.537-15.179-5.058 15.18 24.809 8.269a169.41 169.41 0 0 0 -86.163 93.341l14.988 5.6a153.266 153.266 0 0 1 81.479-86.061z"/><path d="m188.788 162-15.494-3.99a167.792 167.792 0 0 0 -3.417 16.806l15.822 2.378a152.1 152.1 0 0 1 3.089-15.194z"/><path d="m342.408 348.96 3.184 15.68a167.835 167.835 0 0 0 77.535-38.64l-10.588-12a151.806 151.806 0 0 1 -70.131 34.96z"/></g></svg>