<?xml version="1.0" encoding="UTF-8" standalone="no"?>
<svg
   xmlns:dc="http://purl.org/dc/elements/1.1/"
   xmlns:cc="http://creativecommons.org/ns#"
   xmlns:rdf="http://www.w3.org/1999/02/22-rdf-syntax-ns#"
   xmlns:svg="http://www.w3.org/2000/svg"
   xmlns="http://www.w3.org/2000/svg"
   xmlns:sodipodi="http://sodipodi.sourceforge.net/DTD/sodipodi-0.dtd"
   xmlns:inkscape="http://www.inkscape.org/namespaces/inkscape"
   version="1.1"
   id="Calque_2"
   x="0px"
   y="0px"
   width="1180.0414"
   height="1017.5853"
   viewBox="0 0 1180.0414 1017.5853"
   enable-background="new 0 0 1600 1300"
   xml:space="preserve"
   sodipodi:docname="acheteur.svg"
   inkscape:version="1.0 (4035a4f, 2020-05-01)"><metadata
   id="metadata1394"><rdf:RDF><cc:Work
       rdf:about=""><dc:format>image/svg+xml</dc:format><dc:type
         rdf:resource="http://purl.org/dc/dcmitype/StillImage" /></cc:Work></rdf:RDF></metadata><defs
   id="defs1392" /><sodipodi:namedview
   inkscape:document-rotation="0"
   pagecolor="#ffffff"
   bordercolor="#666666"
   borderopacity="1"
   objecttolerance="10"
   gridtolerance="10"
   guidetolerance="10"
   inkscape:pageopacity="0"
   inkscape:pageshadow="2"
   inkscape:window-width="1215"
   inkscape:window-height="1000"
   id="namedview1390"
   showgrid="false"
   inkscape:zoom="0.13815778"
   inkscape:cx="353.75665"
   inkscape:cy="313.06745"
   inkscape:window-x="65"
   inkscape:window-y="24"
   inkscape:window-maximized="1"
   inkscape:current-layer="Calque_2" />
<g
   transform="translate(-253,-199.337)"
   id="g1297">
	<path
   fill="#ffc291"
   d="m 682.959,669 c -0.005,0 -0.013,0 -0.018,0 -1.745,1 -3.502,2.627 -5.266,3.869 l -0.121,-0.104 c -20.801,14.638 -42.799,24.22 -64.691,31.667 -14.078,4.788 -28.12,7.934 -41.811,9.084 l -0.554,0.258 c -1.839,0.147 -3.673,0.265 -5.499,0.339 -1.856,-0.076 -3.72,-0.192 -5.59,-0.344 l -0.56,-0.256 c -13.66,-1.157 -27.669,-4.293 -41.714,-9.07 -21.91,-7.452 -43.924,-17.033 -64.738,-31.689 l -0.121,0.084 c -1.748,-1.232 -3.489,-2.837 -5.219,-3.837 -0.005,0 -0.013,0 -0.018,0 C 472.397,733 546.9,923.74 565,985.25 583.1,923.74 657.603,733 682.959,669 Z"
   id="path1281"
   style="fill:#6f6ab8;fill-opacity:1" />
	<path
   fill="#6f6ab8"
   d="m 349,969.048 c 1.362,10.076 5.894,36.054 18.746,61.813 21.598,43.287 55.18,65.539 100.141,66.139 21.893,0.104 48.113,0.164 74.113,0.194 V 1097 h 19 v -86.532 l -183.898,-216.88 56.361,-21.125 -43.232,-17.811 18.029,-85.687 -15.52,0.036 c -2.085,0 -9.847,0.086 -11.741,0.082 -29.386,-0.071 -54.343,9.138 -74.207,28.781 -2.728,2.699 -6.274,5.528 -8.724,8.484 -9.12,10.999 -16.314,23.642 -22.023,36.937 C 295.438,771.173 349,851.499 349,888 Z"
   id="path1283" />
	<path
   fill="#6f6ab8"
   d="M 455.318,772.814 390.558,797.087 560,996.919 c -9.488,-40.327 -84.325,-233.486 -121.646,-328.066 -1.3,-0.005 -2.388,-0.008 -2.955,-0.009 -1.485,-0.004 -2.956,0.023 -4.417,0.068 l -14.542,0.034 -17.01,80.843 z"
   id="path1285" />
	<path
   fill="#6f6ab8"
   d="m 739.272,797.088 -64.76,-24.273 55.889,-23.025 -17.01,-80.843 -14.373,-0.034 c -1.462,-0.045 -2.933,-0.072 -4.417,-0.068 -0.567,10e-4 -1.655,0.004 -2.956,0.008 C 654.41,763.216 579.83,955.706 570.063,996.644 Z"
   id="path1287" />
	<path
   fill="#6f6ab8"
   d="m 781,888 c 0,-36.5 53.561,-116.826 72.955,-144.714 -5.71,-13.294 -12.903,-25.938 -22.023,-36.937 -2.45,-2.956 -5.996,-5.785 -8.725,-8.484 -19.864,-19.644 -44.738,-28.896 -74.123,-28.824 -1.895,0.004 -9.74,-0.039 -11.825,-0.039 l -15.689,-0.037 18.029,85.688 -43.232,17.811 56.361,21.125 L 569,1010.267 v 86.733 0.216 c 94.441,0.044 193.616,-0.213 194.989,-0.216 L 768,1096.989 V 1108 h 13 z"
   id="path1289" />
	<path
   fill="#6f6ab8"
   d="m 760,1116 v -8 -2.99 c -19.558,0.047 -107.134,0.245 -191,0.205 -2.671,-10e-4 -5.339,0 -8,0 -33.513,-0.021 -66.063,-0.084 -93.019,-0.211 -47.63,-0.635 -84.792,-25.11 -107.5,-70.781 -4.922,-9.898 -8.653,-19.729 -11.481,-28.742 -4.986,-15.888 -7.151,-29.199 -8,-35.774 V 965.287 888 C 341,855.825 293.407,782.803 272.458,752.221 257.957,790.935 254.848,833.189 253,855.809 v 216.555 c 4.943,14.88 14.419,38.063 30.94,61.046 16.091,22.385 35.155,39.903 57.06,52.507 2.625,1.51 5.294,2.943 8,4.312 25.985,13.143 55.709,19.772 89,19.772 33.088,0.156 77.561,0.221 123,0.236 2.664,10e-4 5.332,0 8,0 85.195,0.019 171.635,-0.129 191,-0.164 v -20.244 -5.596 z"
   id="path1291" />
	<path
   fill="#6f6ab8"
   d="m 803.122,1107.815 c 6.701,0 26.521,1.846 65.896,19.757 0.693,0.193 2.762,-0.573 5.884,-0.426 L 877,1127.14 V 855.809 C 875.152,833.189 872.043,790.935 857.542,752.221 836.594,782.803 789,855.825 789,888 v 220 h 10.901 c 1.095,-0.158 2.448,-0.185 3.221,-0.185 z"
   id="path1293" />
	<path
   fill="#6f6ab8"
   d="M 838.53,1212.281"
   id="path1295" />
</g>
<g
   id="g1355"
   transform="matrix(1.6753782,0,0,1.6753782,-1220.8451,-840.70317)">
	<g
   id="g1353">
		<g
   id="g1343">
			<path
   style="fill:#ff9947;fill-opacity:1"
   fill="#ffc291"
   d="m 1352,589.382 v 0.092 c 14,-4.938 80.4627,-7.57005 80.4627,-7.57005 0,0 -44.3348,-62.76715 -71.0168,-52.37415 -26.684,10.392 -120.9203,-25.35707 -120.9203,-25.35707 0,0 56.8007,62.13146 58.8517,73.73646 1.603,1.201 39.6227,14.27281 52.6227,11.47281 z"
   id="path1341"
   sodipodi:nodetypes="ccccccc" />
		</g>
		<g
   id="g1347">
			<path
   style="fill:#ff9947;fill-opacity:1"
   fill="#ffc291"
   d="m 1357.515,613.516 c -2.126,-1.47 -3.973,-2.862 -5.565,-4.183 v 10e-4 c -12.784,-9.985 -51.1046,-9.58 -60.5036,-7.493 -21.54,7.065 -160.8874,64.446 -132.7734,167.026 27.035,98.645 203.39,77.277 250.688,29.153 42.73,-43.475 28.901,-128.69 -51.846,-184.504 z"
   id="path1345"
   sodipodi:nodetypes="ccccccc" />
		</g>
		<g
   id="g1351">
			<path
   fill="#0f0689"
   d="m 1351.949,609 h 0.012 C 1339.137,599 1343,592.77 1352,589.474 v -0.092 c -13,2.8 -51.0187,-10.27181 -52.6227,-11.47281 1.12,6.336 -0.8249,17.64381 -7.9309,23.93181 0,0 15.057,-1.67324 13.549,-1.17924 9.7245,0.0652 34.7347,3.15276 46.9536,8.33824 z"
   id="path1349"
   sodipodi:nodetypes="cccccccc" />
		</g>
	</g>
</g><g
   style="fill:#e1ac69;fill-opacity:1"
   id="g1305"
   transform="matrix(1.8560554,0,0,1.8560554,-1070.3006,-1212.4591)">
	<g
   style="fill:#e1ac69;fill-opacity:1"
   id="g1303">
		<path
   sodipodi:nodetypes="cccssccscssssc"
   style="fill:#ffc291;fill-opacity:1;stroke-width:1.12287"
   fill="#e2e2fd"
   d="m 871.31106,1142.8118 c 31.68345,7.7841 -5.24784,-2.8957 37.23865,10.545 -0.0794,3.4914 26.65173,0.9196 29.91834,2.412 H 1092.738 c 9.3506,0 16.9313,-7.5018 16.9313,-16.755 l 0,-179.07541 c -23.5993,-0.22373 -62.2335,11.81002 -114.23262,-16.50501 -36.42868,-27.09086 -46.71025,-64.79103 -38.15317,-96.10212 6.95665,-25.455 48.82399,-67.99082 48.82399,-67.99082 l -147.02126,0 c -9.35059,0 -16.93129,7.50176 -16.93129,16.75496 v 338.7821 c 0,6.9064 6.60675,7.5349 11.96859,7.9343 4.90223,0.3651 9.69332,-0.4247 17.18752,0 z"
   id="path1299" />
		<path
   style="fill:#e1ac69;fill-opacity:1"
   fill="#e2e2fd"
   d="M 838.53,1212.281"
   id="path1301" />
	</g>
</g>
<path
   fill="#ff0000"
   d="M 592.36956,1016.9634"
   id="path1307"
   style="stroke-width:1.88738;stroke-miterlimit:10;stroke-dasharray:none" />
<path
   fill="#ff0000"
   d="M 584.54716,1016.8715"
   id="path1309"
   style="stroke-width:1.88738;stroke-miterlimit:10;stroke-dasharray:none" />
<path
   fill="#ff0000"
   d="M 601.08855,997.10161"
   id="path1311"
   style="stroke-width:1.88738;stroke-miterlimit:10;stroke-dasharray:none" />






<line
   fill="none"
   stroke="#6f6ab8"
   stroke-width="1.03875"
   stroke-miterlimit="10"
   x1="542.28247"
   y1="713.30988"
   x2="943.97772"
   y2="713.30988"
   id="line1325"
   style="stroke-width:26;stroke-miterlimit:10;stroke-dasharray:none" />
<rect
   x="553.73407"
   y="767.41119"
   fill="none"
   stroke="#6f6ab8"
   stroke-width="1.03875"
   stroke-miterlimit="10"
   width="385.15475"
   height="107.30595"
   id="rect1327"
   style="stroke-width:26;stroke-miterlimit:10;stroke-dasharray:none" />

<g
   transform="matrix(1.0850351,-0.21583012,0.21583012,1.0850351,-568.26183,-267.27371)"
   id="g1339">
	<g
   id="g1337">
		<path
   style="stroke-width:27.1176;stroke-miterlimit:10;stroke-dasharray:none"
   sodipodi:nodetypes="cc"
   fill="none"
   stroke="#0f0689"
   stroke-width="8.34895"
   stroke-miterlimit="10"
   d="M 921.47244,635.40519 C 989.07822,451.324 1119.6986,553.45934 1166.5304,616.50526"
   id="path1331" />
		<g
   style="stroke-width:41.3146;stroke-miterlimit:10;stroke-dasharray:none"
   transform="matrix(1.9020969,1.7486279,-1.7486279,1.9020969,109.7502,-2618.3158)"
   id="g1335">
			<polygon
   style="stroke-width:41.3146;stroke-miterlimit:10;stroke-dasharray:none"
   transform="translate(35.677045,-26.432155)"
   fill="#0f0689"
   points="1097.858,638.633 1135.702,669.008 1102.662,704.542 1096.734,699.04 1123.869,669.87 1092.791,644.936 "
   id="polygon1333" />
		</g>
	<path
   id="path1331-8"
   d="m 1381.3154,988.55573 c 40.5609,123.32787 -89.8477,226.81697 -180.0707,208.98017"
   stroke-miterlimit="10"
   stroke-width="8.34895"
   stroke="#0f0689"
   fill="none"
   sodipodi:nodetypes="cc"
   style="stroke-width:27.1176;stroke-miterlimit:10;stroke-dasharray:none" /></g>
</g>

<g
   id="g1365"
   transform="matrix(1.7774233,0,0,1.7774233,-1360.5965,-939.55232)">
	<g
   id="g1363">
		<g
   id="g1361">
			<g
   id="g1359">
				<path
   fill="#0f0689"
   d="m 1247.104,723.058 11.921,-1.436 c 0.866,-4.798 2.32,-9.228 4.356,-13.295 2.038,-4.065 4.689,-7.65 7.957,-10.751 3.267,-3.102 7.173,-5.646 11.716,-7.637 4.545,-1.992 9.693,-3.334 15.446,-4.026 1.959,-0.235 3.91,-0.378 5.858,-0.435 1.948,-0.053 3.817,-0.036 5.602,0.048 1.785,0.088 3.46,0.247 5.023,0.479 1.562,0.233 2.935,0.52 4.119,0.858 l 1.435,11.921 c -2.961,-0.605 -6.141,-1.021 -9.536,-1.244 -3.396,-0.223 -6.786,-0.131 -10.165,0.275 -7.177,0.863 -13.093,3.081 -17.747,6.649 -4.655,3.569 -7.785,8.698 -9.386,15.39 l 33.007,-3.973 1.424,11.832 -35.585,4.284 c 0.017,1.142 0.065,2.309 0.149,3.501 0.084,1.194 0.201,2.413 0.352,3.659 0.235,1.957 0.516,3.789 0.841,5.495 l 29.004,-3.492 1.424,11.832 -26.957,3.244 c 2.876,6.394 7.007,10.726 12.394,12.995 5.387,2.271 12.144,2.916 20.272,1.937 1.54,-0.185 3.176,-0.472 4.902,-0.859 1.729,-0.39 3.465,-0.838 5.209,-1.349 1.744,-0.512 3.422,-1.059 5.037,-1.645 1.615,-0.585 3.045,-1.193 4.293,-1.826 l 1.436,11.923 c -2.659,1.403 -5.777,2.619 -9.353,3.652 -3.578,1.031 -7.294,1.779 -11.147,2.242 -12.635,1.521 -22.874,0.048 -30.723,-4.424 -7.849,-4.47 -13.547,-11.425 -17.088,-20.868 l -11.121,1.339 -1.425,-11.833 9.342,-1.124 c -0.267,-1.711 -0.423,-2.761 -0.47,-3.147 -0.046,-0.385 -0.111,-0.935 -0.197,-1.646 -0.179,-1.482 -0.314,-2.85 -0.404,-4.103 -0.092,-1.253 -0.151,-2.51 -0.183,-3.77 l -9.607,1.156 z"
   id="path1357" />
			</g>
		</g>
	</g>
</g>

<g
   transform="translate(-253,-199.337)"
   id="g1371">
	
</g>
<g
   transform="translate(-253,-199.337)"
   id="g1377">
	<g
   id="g1375">
		<path
   fill="#7d4e5b"
   d="m 1019.243,1147.909 c -3.394,-6.675 -17.862,-1.498 -19.523,-1.073 -17.267,4.413 -45.145,16.899 -63.97,18.414 -26.519,2.134 -85.416,3.583 -88.75,1.75 -0.85,-0.722 -1.5,-3 0,-4.458 48,0.291 83.24,-1.997 83.24,-1.997 0.039,0 6.32,0.105 9.907,-3.396 1.752,-1.713 2.609,-5.078 2.607,-8.233 -0.005,-8.915 -10.133,-10.635 -12.255,-10.665 l -55.783,-1.926 c -1.791,-0.08 -6.197,-0.354 -8.444,-1.144 l -0.379,-0.152 c -47.61,-21.684 -64.722,-19.139 -64.884,-19.105 l -0.446,0.077 H 768 v 68.234 l 1.115,0.407 c 0.663,0.342 66.659,34.103 101.02,32.203 l 0.258,-0.01 c 13.647,0 28.442,-4.159 30.519,-4.764 0,0 80.151,-33.47 111.166,-48.642 1.796,-0.878 12.422,-5.181 7.165,-15.522 z"
   id="path1373"
   style="fill:#6f6ab8;fill-opacity:1" />
	</g>
</g>
<g
   transform="translate(-253,-199.337)"
   id="g1387">
	<path
   fill="#6f6ab8"
   d="m 781,1199.211 c -5.832,-2.665 -10.367,-4.871 -13,-6.178 V 1210 h 13 z"
   id="path1379" />
	<path
   fill="#6f6ab8"
   d="M 789,1202.784 V 1210 h 17.493 c -6.263,-2.429 -12.193,-4.903 -17.493,-7.216 z"
   id="path1381" />
	<path
   fill="#6f6ab8"
   d="m 341,1194.886 c -1.185,-0.643 -2.375,-1.276 -3.545,-1.945 -23.269,-13.31 -43.519,-31.851 -60.189,-55.11 -10.815,-15.09 -18.665,-30.086 -24.266,-42.959 V 1210 h 88 z"
   id="path1383" />
	<path
   fill="#6f6ab8"
   d="M 349,1198.986 V 1210 h 29.212 c -10.153,-2.896 -19.905,-6.559 -29.212,-11.014 z"
   id="path1385" />
</g>
<line
   style="stroke-width:26;stroke-miterlimit:10;stroke-dasharray:none"
   id="line1325-2"
   y2="662.63782"
   x2="944.62708"
   y1="662.63782"
   x1="542.93188"
   stroke-miterlimit="10"
   stroke-width="1.03875"
   stroke="#6f6ab8"
   fill="none" /><line
   fill="none"
   stroke="#6f6ab8"
   stroke-width="1.03875"
   stroke-miterlimit="10"
   x1="543.75085"
   y1="612.6496"
   x2="945.44604"
   y2="612.6496"
   id="line1325-2-0"
   style="stroke-width:26;stroke-miterlimit:10;stroke-dasharray:none" /><line
   style="stroke-width:26;stroke-miterlimit:10;stroke-dasharray:none"
   id="line1325-2-0-4"
   y2="558.6496"
   x2="751.06201"
   y1="558.6496"
   x1="545.75085"
   stroke-miterlimit="10"
   stroke-width="1.03875"
   stroke="#6f6ab8"
   fill="none" /><line
   fill="none"
   stroke="#6f6ab8"
   stroke-width="1.03875"
   stroke-miterlimit="10"
   x1="544.62396"
   y1="505.55121"
   x2="706.43115"
   y2="505.55121"
   id="line1325-2-0-4-4"
   style="stroke-width:26;stroke-miterlimit:10;stroke-dasharray:none" /><line
   style="stroke-width:26;stroke-miterlimit:10;stroke-dasharray:none"
   id="line1325-2-0-4-4-0"
   y2="455.5748"
   x2="687.62402"
   y1="455.5748"
   x1="543.73029"
   stroke-miterlimit="10"
   stroke-width="1.03875"
   stroke="#6f6ab8"
   fill="none" /><line
   fill="none"
   stroke="#6f6ab8"
   stroke-width="1.03875"
   stroke-miterlimit="10"
   x1="545.73029"
   y1="403.5748"
   x2="678.10828"
   y2="403.5748"
   id="line1325-2-0-4-4-0-9"
   style="stroke-width:26;stroke-miterlimit:10;stroke-dasharray:none" /><line
   style="stroke-width:26;stroke-miterlimit:10;stroke-dasharray:none"
   id="line1325-2-0-4-4-0-9-1"
   y2="353.5748"
   x2="690.90356"
   y1="353.5748"
   x1="545.73029"
   stroke-miterlimit="10"
   stroke-width="1.03875"
   stroke="#6f6ab8"
   fill="none" /><line
   fill="none"
   stroke="#6f6ab8"
   stroke-width="1.03875"
   stroke-miterlimit="10"
   x1="547.73029"
   y1="299.5748"
   x2="709.53748"
   y2="299.5748"
   id="line1325-2-0-4-4-0-9-1-9"
   style="stroke-width:26;stroke-miterlimit:10;stroke-dasharray:none" /><path
   fill="#7D4E5B"
   d="m 388.39387,225.30607 c -79.44512,-14.12793 -121.73812,-55.24951 -147.97943,-72.43341 -4.68086,28.85277 -80.66626,76.61359 -89.0631,81.03046 -3.93706,2.07095 0.0178,8.95497 0.0709,13.5039 0.0532,4.54895 0.14055,9.14041 0.27877,13.75669 1.20368,40.01678 6.27236,82.00147 26.10888,115.53088 32.15445,54.34633 117.07475,92.30538 164.23444,92.30538 47.15498,0 73.01698,-37.95549 105.1726,-92.30538 19.83652,-33.52824 24.90755,-75.5141 26.11123,-115.53088 0.13822,-4.61746 0.22563,-9.20774 0.27879,-13.75669 0.0533,-4.54893 0.53546,-12.84819 0.0709,-13.5039 -6.2203,-6.84609 -8.20328,5.1105 -85.28393,-8.59705 z m -1.06447,136.99987 c -2.60935,5.43722 -16.64954,31.33939 -47.57786,31.33939 h -0.32602 c -30.15226,0 -44.54918,-24.09604 -47.58024,-29.89828 -0.34136,-0.65442 -0.39452,-0.79261 -0.40987,-0.93319 -0.0366,-0.35082 0.58944,-0.6284 0.58944,-0.6284 l 6.7862,-3.11729 c 0,0 0.70283,-0.32721 0.95208,-0.30713 0.22207,0.019 0.32011,0.38509 0.67566,1.04539 2.75465,5.12539 14.71821,24.38783 38.99499,24.38783 h 0.2646 c 24.92527,0 36.7849,-21.36149 39.00562,-25.85846 0.24806,-0.50439 0.27759,-0.62724 0.44296,-0.68275 0.17601,-0.0591 0.71347,0.19963 0.71347,0.19963 l 7.17129,3.17516 c 0,0 0.54928,0.24334 0.51267,0.53865 -0.0166,0.12167 0.0296,0.23033 -0.21499,0.73945 z"
   id="path24-9"
   style="fill:#6e6ab7;fill-opacity:1;stroke-width:1.18124"
   sodipodi:nodetypes="scssccsscscscssccccccsscscccc" /><path
   d="M 470.87591,109.26255 C 455.24106,43.716912 391.11763,3.32216 314.78609,3.32216 c -0.93672,0 -1.86045,0.018944 -2.78653,0.031887 -0.5162,0.011771 -1.03948,0.011771 -1.55214,0.018944 -0.045,9.85e-4 -0.0886,0 -0.1323,0 -5.71955,0.1252119 -11.06938,0.3082951 -16.12507,0.5256411 C 224.85972,9.0228362 168.27729,48.23872 153.72209,109.25905 c -3.77405,15.81794 -4.96829,54.78104 -5.1561,81.11198 0.084,14.83398 0.32483,25.68954 0.32483,25.68954 0.39454,-0.0532 0.78907,-0.0945 1.19305,-0.16537 0.0141,0 0.0272,0 0.0401,-0.0118 16.03176,-2.83379 40.03567,-21.64853 58.07787,-41.69294 0.007,-0.0118 0.0153,-0.0165 0.0202,-0.0249 0.53629,-0.59534 1.06902,-1.19187 1.59703,-1.78839 0.0473,-0.052 0.0921,-0.10389 0.1394,-0.15474 0.49965,-0.56699 0.99696,-1.13164 1.49188,-1.69862 0.0709,-0.0827 0.14412,-0.16536 0.21736,-0.24806 0.47367,-0.54456 0.94263,-1.08674 1.40921,-1.63127 0.0898,-0.10521 0.17836,-0.21029 0.26932,-0.31423 0.45124,-0.52684 0.9001,-1.05366 1.3478,-1.5805 0.10039,-0.12285 0.20554,-0.24332 0.30712,-0.36618 0.42763,-0.5103 0.85521,-1.01823 1.2781,-1.52615 0.11695,-0.14057 0.23151,-0.27878 0.3461,-0.41816 0.41579,-0.49966 0.8257,-0.99698 1.2344,-1.49427 0.11694,-0.14175 0.23152,-0.28468 0.34728,-0.42523 0.40162,-0.49142 0.79852,-0.98281 1.19541,-1.47184 0.12049,-0.14884 0.23506,-0.29531 0.35556,-0.4418 0.38862,-0.48547 0.77607,-0.97213 1.16115,-1.45409 0.11576,-0.14528 0.22915,-0.29295 0.3461,-0.43824 0.378,-0.47958 0.75717,-0.95916 1.12925,-1.4352 0.11576,-0.14882 0.22799,-0.29531 0.34376,-0.44295 0.37207,-0.47958 0.74417,-0.95799 1.11036,-1.43283 0.0899,-0.12051 0.17836,-0.23744 0.27286,-0.35676 0.38035,-0.50082 0.76191,-0.99815 1.13518,-1.49309 0.0615,-0.0815 0.12166,-0.163 0.17954,-0.24213 1.70452,-2.2609 3.31101,-4.46508 4.80645,-6.58894 0.0496,-0.0709 0.10273,-0.14176 0.1512,-0.21145 0.26459,-0.37682 0.51973,-0.74891 0.77843,-1.11981 0.14057,-0.20199 0.2835,-0.40517 0.41933,-0.60598 0.22326,-0.32365 0.44062,-0.64496 0.65916,-0.96623 0.16416,-0.23862 0.32955,-0.48077 0.4902,-0.71704 0.19844,-0.29766 0.3898,-0.58943 0.58589,-0.88121 0.16892,-0.25512 0.33784,-0.51146 0.50557,-0.76188 0.18309,-0.2764 0.35555,-0.54691 0.53038,-0.81743 0.17128,-0.26224 0.33901,-0.5221 0.50438,-0.77842 0.1701,-0.26577 0.3343,-0.52448 0.49849,-0.78435 0.16184,-0.25396 0.3213,-0.50793 0.47839,-0.75952 0.15474,-0.2516 0.30831,-0.49967 0.4595,-0.74535 0.15711,-0.25396 0.31185,-0.50678 0.46187,-0.75601 0.14056,-0.23506 0.27994,-0.46777 0.41815,-0.70048 0.14767,-0.24923 0.2965,-0.49611 0.43706,-0.74181 0.12993,-0.22443 0.25989,-0.44533 0.38509,-0.66503 0.1382,-0.24215 0.27404,-0.48075 0.40753,-0.7182 0.12047,-0.21263 0.2386,-0.42406 0.35083,-0.63196 0.12756,-0.23272 0.25514,-0.46422 0.37681,-0.6922 0.10866,-0.20081 0.2138,-0.39809 0.31775,-0.59298 0.11932,-0.22681 0.23033,-0.44887 0.34257,-0.66858 0.0981,-0.18663 0.19136,-0.37328 0.28467,-0.55755 0.10508,-0.21499 0.20552,-0.42524 0.30358,-0.63314 0.085,-0.17718 0.17246,-0.35319 0.25396,-0.52564 0.0945,-0.20317 0.18191,-0.40163 0.26932,-0.59771 0.0744,-0.1642 0.14765,-0.32958 0.21616,-0.48904 0.0804,-0.19372 0.15712,-0.38036 0.23153,-0.56699 0.0625,-0.14885 0.12402,-0.30005 0.17956,-0.44532 0.0709,-0.18546 0.13228,-0.36266 0.19607,-0.54103 0.0473,-0.13111 0.0969,-0.26694 0.13939,-0.39453 0.0578,-0.17953 0.10636,-0.34728 0.15947,-0.51738 0.0307,-0.11338 0.072,-0.23033 0.0992,-0.339 0.0509,-0.17955 0.0851,-0.34848 0.12287,-0.5162 0.0177,-0.0851 0.0424,-0.176 0.0601,-0.25988 0.046,-0.24216 0.0803,-0.4725 0.0992,-0.68747 0,0 18.66945,31.09369 69.58665,57.15177 36.40692,18.63164 89.29207,34.69057 163.66273,34.96343 0.69811,0 1.1517,-82.29204 -4.78991,-107.19606 z"
   id="path218-8"
   style="fill:#6e6ab7;fill-opacity:1;stroke-width:1.18124" /></svg>
