<?xml version="1.0" encoding="UTF-8" standalone="no"?>
<svg
   xmlns:dc="http://purl.org/dc/elements/1.1/"
   xmlns:cc="http://creativecommons.org/ns#"
   xmlns:rdf="http://www.w3.org/1999/02/22-rdf-syntax-ns#"
   xmlns:svg="http://www.w3.org/2000/svg"
   xmlns="http://www.w3.org/2000/svg"
   xmlns:sodipodi="http://sodipodi.sourceforge.net/DTD/sodipodi-0.dtd"
   xmlns:inkscape="http://www.inkscape.org/namespaces/inkscape"
   inkscape:version="1.0 (4035a4f, 2020-05-01)"
   sodipodi:docname="acheteur.svg"
   id="svg37"
   version="1.1"
   width="512"
   viewBox="0 0 512 512"
   height="512">
  <metadata
     id="metadata43">
    <rdf:RDF>
      <cc:Work
         rdf:about="">
        <dc:format>image/svg+xml</dc:format>
        <dc:type
           rdf:resource="http://purl.org/dc/dcmitype/StillImage" />
      </cc:Work>
    </rdf:RDF>
  </metadata>
  <defs
     id="defs41" />
  <sodipodi:namedview
     inkscape:current-layer="svg37"
     inkscape:window-maximized="0"
     inkscape:window-y="24"
     inkscape:window-x="65"
     inkscape:cy="180.57306"
     inkscape:cx="372.32101"
     inkscape:zoom="7.65625"
     showgrid="false"
     id="namedview39"
     inkscape:window-height="823"
     inkscape:window-width="1168"
     inkscape:pageshadow="2"
     inkscape:pageopacity="0"
     guidetolerance="10"
     gridtolerance="10"
     objecttolerance="10"
     borderopacity="1"
     bordercolor="#666666"
     pagecolor="#ffffff" />
  <g
     id="Filledotuline">
    <path
       style="fill:#f6bf58;fill-opacity:1"
       id="path2"
       fill="#eaae48"
       d="m344 80.753-24-32a24.721 24.721 0 0 1 35.777-22.111l28.223 14.111 28.223-14.111a24.721 24.721 0 0 1 35.777 22.111l-24 32v32l54.751 88.97a62.356 62.356 0 0 1 9.249 32.677 62.352 62.352 0 0 1 -62.352 62.351h-83.3a62.352 62.352 0 0 1 -62.348-62.351 62.356 62.356 0 0 1 9.249-32.678l54.751-88.969z" />
    <path
       id="path4"
       fill="#b0792c"
       d="m344 80.753h80v32h-80z" />
    <path
       style="fill:#66cedb;fill-opacity:1"
       id="path6"
       fill="#85bb40"
       d="m128 448v-248h192v232z" />
    <path
       style="fill:#c68642;fill-opacity:1"
       id="path8"
       fill="#f8caa8"
       d="m64 360h28.278a178.893 178.893 0 0 1 80.006 18.887 48.44 48.44 0 0 0 21.66 5.113h62.056a20 20 0 0 1 20 20 20 20 0 0 1 -20 20h-.493a41.742 41.742 0 0 0 16.311-3.319l66.883-28.4a21.04 21.04 0 0 1 27.78 11.868 21.624 21.624 0 0 1 -12.215 28.131l-123.582 47.12a130.744 130.744 0 0 1 -95.943-1.06l-70.741-29.375-32-.965v-88z" />
    <path
       style="fill:#5d5360;fill-opacity:1"
       id="path10"
       fill="#0093b9"
       d="m16 352h48v112h-48z" />
    <rect
       id="rect12"
       y="416"
       x="160"
       width="95.507"
       rx="8"
       height="16"
       fill="#e99180" />
    <path
       id="path14"
       d="m136 208h176v168h16v-176a8 8 0 0 0 -8-8h-192a8 8 0 0 0 -8 8v136h16z" />
    <path
       id="path16"
       d="m280 296h-16v-24a8 8 0 0 0 -8-8h-24v-24a8 8 0 0 0 -8-8h-32a8 8 0 0 0 -8 8v56h-16v16h112zm-32-16v16h-16v-16zm-48-32h16v48h-16z" />
    <path
       id="path18"
       d="m358.013 384.88a28.641 28.641 0 0 0 -22.439.038l-51.721 21.961a28.013 28.013 0 0 0 -27.853-30.879h-62.056a40.647 40.647 0 0 1 -18.082-4.269 187.848 187.848 0 0 0 -83.584-19.731h-20.278a8 8 0 0 0 -8-8h-48v16h40v96h-40v16h48a8 8 0 0 0 8-8v-3.05l59.728 24.8a138.434 138.434 0 0 0 101.806 1.125l123.582-47.123a29.1 29.1 0 0 0 16.339-15.571 29.61 29.61 0 0 0 .47-22.963 29.115 29.115 0 0 0 -15.912-16.338zm.805 32.84a13.214 13.214 0 0 1 -7.4 7.086l-123.585 47.123a122.436 122.436 0 0 1 -90.023-.975l-65.81-27.33v-75.624h20.278a171.761 171.761 0 0 1 76.428 18.042 56.734 56.734 0 0 0 25.238 5.958h62.056a11.993 11.993 0 0 1 .473 23.976c-.322.009-.643.024-.966.024h-95.507v16h95.507c.165 0 .328-.011.493-.012v.012c.558 0 1.111-.021 1.661-.053a49.43 49.43 0 0 0 17.283-3.9l66.877-28.4a12.757 12.757 0 0 1 9.995-.015 13.238 13.238 0 0 1 7.22 7.446 13.725 13.725 0 0 1 -.218 10.642z" />
    <path
       id="path20"
       d="m485.564 196.777-53.564-87.041v-27.069l22.4-29.867a8 8 0 0 0 1.6-4.8 32.722 32.722 0 0 0 -47.355-29.267l-24.645 12.323-24.645-12.323a32.722 32.722 0 0 0 -47.355 29.267 8 8 0 0 0 1.6 4.8l22.4 29.867v27.069l-38.813 63.072 13.626 8.384 37.657-61.192h71.06l52.408 85.162a54.353 54.353 0 0 1 -46.29 82.838h-81.648v16h81.648a70.352 70.352 0 0 0 59.916-107.223zm-149.633-163a16.615 16.615 0 0 1 16.268-.732l28.223 14.111a8 8 0 0 0 7.156 0l28.222-14.112a16.727 16.727 0 0 1 24.025 12.521l-19.825 26.435h-72l-19.826-26.435a16.6 16.6 0 0 1 7.757-11.789zm80.069 70.223h-64v-16h64z" />
    <path
       sodipodi:nodetypes="cssccccsccscccsssccccccccccccccc"
       id="path22"
       d="m 358.17143,207.80408 c -0.14262,2.22367 -0.1642,4.407 -0.0525,6.54591 0.0436,0.83535 -5.77001,0.0966 -5.68503,0.91813 0.23778,2.29879 0.29889,8.47231 0.29889,8.47231 0,0 5.53375,-0.14969 5.6999,0.38167 0.0131,9.97411 8.05445,19.83492 17.56735,22.8329 1.72807,2.11515 15.61754,1.59466 16,0 7.39136,-2.31845 15.23722,-11.72877 15.71888,-18.98928 0.0544,-0.81952 -9.08855,0.12053 -15.34354,-0.0282 -1.00985,3.4581 -3.46982,4.87085 -5.00942,5.6955 -2.57662,1.3801 -6.78307,1.50817 -7.42562,1.08105 -4.13075,-2.74584 -7.94513,-7.99431 -6.3009,-11.73164 1.69792,-0.8448 27.57016,-0.44894 25.88672,-0.68463 -0.9676,-3.53704 0.60492,-5.42644 -0.43232,-7.94252 -5.11793,-0.3883 -24.46945,0.83634 -24.8729,-0.22826 -1.74026,-4.59222 0.78129,-2.37685 -0.4973,-4.53972 -0.67767,-1.14635 27.41126,-0.42289 27.16363,-1.18021 -1.82794,-5.59031 0.0373,0.60999 -1.421,-7.80731 l -26.49491,0.39031 C 371.56233,196.64631 376.16783,183.87998 382.833,184 h 2.334 c 3.77216,0.004 6.82914,3.06084 6.833,6.833 V 192 h 16 v -1.167 c -0.0131,-9.97411 -6.4871,-18.79002 -16,-21.788 -1.73138,-2.36662 -14.0557,-1.2836 -16,0 -13.26288,6.3201 -16.45714,20.21214 -16.45714,20.21214 0.0573,3.98633 -0.62042,9.70633 -0.47978,10.43132 -6.47083,1.05011 -6.64099,-0.17497 -6.37717,0.38931 -0.90482,1.83876 0.0719,2.59003 -0.008,6.80068 0.465,0.82559 5.49054,0.0474 5.49401,0.92563 z" />
    <path
       id="path24"
       d="m424 200h16v16h-16z" />
    <path
       id="path26"
       d="m160 336h16v16h-16z" />
    <path
       id="path28"
       d="m192 336h96v16h-96z" />
    <path
       id="path30"
       d="m275.047 60.739-9.816 29.448 15.18 5.058 15.179-45.537a8 8 0 0 0 -5.061-10.119l-45.537-15.179-5.058 15.18 24.809 8.269a169.41 169.41 0 0 0 -86.163 93.341l14.988 5.6a153.266 153.266 0 0 1 81.479-86.061z" />
    <path
       id="path32"
       d="m188.788 162-15.494-3.99a167.792 167.792 0 0 0 -3.417 16.806l15.822 2.378a152.1 152.1 0 0 1 3.089-15.194z" />
    <path
       id="path34"
       d="m342.408 348.96 3.184 15.68a167.835 167.835 0 0 0 77.535-38.64l-10.588-12a151.806 151.806 0 0 1 -70.131 34.96z" />
  </g>
</svg>
