<?xml version="1.0" encoding="UTF-8" standalone="no"?>
<svg
   xmlns:dc="http://purl.org/dc/elements/1.1/"
   xmlns:cc="http://creativecommons.org/ns#"
   xmlns:rdf="http://www.w3.org/1999/02/22-rdf-syntax-ns#"
   xmlns:svg="http://www.w3.org/2000/svg"
   xmlns="http://www.w3.org/2000/svg"
   xmlns:sodipodi="http://sodipodi.sourceforge.net/DTD/sodipodi-0.dtd"
   xmlns:inkscape="http://www.inkscape.org/namespaces/inkscape"
   inkscape:version="1.0 (4035a4f, 2020-05-01)"
   sodipodi:docname="acheteur.svg"
   xml:space="preserve"
   enable-background="new 0 0 1600 1300"
   viewBox="0 0 1180.0414 1017.5853"
   height="1017.5853"
   width="1180.0414"
   y="0px"
   x="0px"
   id="Calque_2"
   version="1.1"><metadata
   id="metadata1394"><rdf:RDF><cc:Work
       rdf:about=""><dc:format>image/svg+xml</dc:format><dc:type
         rdf:resource="http://purl.org/dc/dcmitype/StillImage" /></cc:Work></rdf:RDF></metadata><defs
   id="defs1392" /><sodipodi:namedview
   inkscape:current-layer="Calque_2"
   inkscape:window-maximized="1"
   inkscape:window-y="24"
   inkscape:window-x="65"
   inkscape:cy="626.73266"
   inkscape:cx="557.28902"
   inkscape:zoom="0.78153845"
   showgrid="false"
   id="namedview1390"
   inkscape:window-height="1000"
   inkscape:window-width="1215"
   inkscape:pageshadow="2"
   inkscape:pageopacity="0"
   guidetolerance="10"
   gridtolerance="10"
   objecttolerance="10"
   borderopacity="1"
   bordercolor="#666666"
   pagecolor="#ffffff"
   inkscape:document-rotation="0" />
<g
   id="g1297"
   transform="translate(-253,-199.337)">
	<path
   style="fill:#6f6ab8;fill-opacity:1"
   id="path1281"
   d="m 682.959,669 c -0.005,0 -0.013,0 -0.018,0 -1.745,1 -3.502,2.627 -5.266,3.869 l -0.121,-0.104 c -20.801,14.638 -42.799,24.22 -64.691,31.667 -14.078,4.788 -28.12,7.934 -41.811,9.084 l -0.554,0.258 c -1.839,0.147 -3.673,0.265 -5.499,0.339 -1.856,-0.076 -3.72,-0.192 -5.59,-0.344 l -0.56,-0.256 c -13.66,-1.157 -27.669,-4.293 -41.714,-9.07 -21.91,-7.452 -43.924,-17.033 -64.738,-31.689 l -0.121,0.084 c -1.748,-1.232 -3.489,-2.837 -5.219,-3.837 -0.005,0 -0.013,0 -0.018,0 C 472.397,733 546.9,923.74 565,985.25 583.1,923.74 657.603,733 682.959,669 Z"
   fill="#ffc291" />
	<path
   id="path1283"
   d="m 349,969.048 c 1.362,10.076 5.894,36.054 18.746,61.813 21.598,43.287 55.18,65.539 100.141,66.139 21.893,0.104 48.113,0.164 74.113,0.194 V 1097 h 19 v -86.532 l -183.898,-216.88 56.361,-21.125 -43.232,-17.811 18.029,-85.687 -15.52,0.036 c -2.085,0 -9.847,0.086 -11.741,0.082 -29.386,-0.071 -54.343,9.138 -74.207,28.781 -2.728,2.699 -6.274,5.528 -8.724,8.484 -9.12,10.999 -16.314,23.642 -22.023,36.937 C 295.438,771.173 349,851.499 349,888 Z"
   fill="#6f6ab8" />
	<path
   id="path1285"
   d="M 455.318,772.814 390.558,797.087 560,996.919 c -9.488,-40.327 -84.325,-233.486 -121.646,-328.066 -1.3,-0.005 -2.388,-0.008 -2.955,-0.009 -1.485,-0.004 -2.956,0.023 -4.417,0.068 l -14.542,0.034 -17.01,80.843 z"
   fill="#6f6ab8" />
	<path
   id="path1287"
   d="m 739.272,797.088 -64.76,-24.273 55.889,-23.025 -17.01,-80.843 -14.373,-0.034 c -1.462,-0.045 -2.933,-0.072 -4.417,-0.068 -0.567,10e-4 -1.655,0.004 -2.956,0.008 C 654.41,763.216 579.83,955.706 570.063,996.644 Z"
   fill="#6f6ab8" />
	<path
   id="path1289"
   d="m 781,888 c 0,-36.5 53.561,-116.826 72.955,-144.714 -5.71,-13.294 -12.903,-25.938 -22.023,-36.937 -2.45,-2.956 -5.996,-5.785 -8.725,-8.484 -19.864,-19.644 -44.738,-28.896 -74.123,-28.824 -1.895,0.004 -9.74,-0.039 -11.825,-0.039 l -15.689,-0.037 18.029,85.688 -43.232,17.811 56.361,21.125 L 569,1010.267 v 86.733 0.216 c 94.441,0.044 193.616,-0.213 194.989,-0.216 L 768,1096.989 V 1108 h 13 z"
   fill="#6f6ab8" />
	<path
   id="path1291"
   d="m 760,1116 v -8 -2.99 c -19.558,0.047 -107.134,0.245 -191,0.205 -2.671,-10e-4 -5.339,0 -8,0 -33.513,-0.021 -66.063,-0.084 -93.019,-0.211 -47.63,-0.635 -84.792,-25.11 -107.5,-70.781 -4.922,-9.898 -8.653,-19.729 -11.481,-28.742 -4.986,-15.888 -7.151,-29.199 -8,-35.774 V 965.287 888 C 341,855.825 293.407,782.803 272.458,752.221 257.957,790.935 254.848,833.189 253,855.809 v 216.555 c 4.943,14.88 14.419,38.063 30.94,61.046 16.091,22.385 35.155,39.903 57.06,52.507 2.625,1.51 5.294,2.943 8,4.312 25.985,13.143 55.709,19.772 89,19.772 33.088,0.156 77.561,0.221 123,0.236 2.664,10e-4 5.332,0 8,0 85.195,0.019 171.635,-0.129 191,-0.164 v -20.244 -5.596 z"
   fill="#6f6ab8" />
	<path
   id="path1293"
   d="m 803.122,1107.815 c 6.701,0 26.521,1.846 65.896,19.757 0.693,0.193 2.762,-0.573 5.884,-0.426 L 877,1127.14 V 855.809 C 875.152,833.189 872.043,790.935 857.542,752.221 836.594,782.803 789,855.825 789,888 v 220 h 10.901 c 1.095,-0.158 2.448,-0.185 3.221,-0.185 z"
   fill="#6f6ab8" />
	<path
   id="path1295"
   d="M 838.53,1212.281"
   fill="#6f6ab8" />
</g>
<g
   transform="matrix(1.6753782,0,0,1.6753782,-1220.8451,-840.70317)"
   id="g1355">
	<g
   id="g1353">
		<g
   id="g1343">
			<path
   sodipodi:nodetypes="ccccccc"
   id="path1341"
   d="m 1352,589.382 v 0.092 c 14,-4.938 80.4627,-7.57005 80.4627,-7.57005 0,0 -44.3348,-62.76715 -71.0168,-52.37415 -26.684,10.392 -120.9203,-25.35707 -120.9203,-25.35707 0,0 56.8007,62.13146 58.8517,73.73646 1.603,1.201 39.6227,14.27281 52.6227,11.47281 z"
   fill="#ffc291"
   style="fill:#ff9947;fill-opacity:1" />
		</g>
		<g
   id="g1347">
			<path
   sodipodi:nodetypes="ccccccc"
   id="path1345"
   d="m 1357.515,613.516 c -2.126,-1.47 -3.973,-2.862 -5.565,-4.183 v 10e-4 c -12.784,-9.985 -51.1046,-9.58 -60.5036,-7.493 -21.54,7.065 -160.8874,64.446 -132.7734,167.026 27.035,98.645 203.39,77.277 250.688,29.153 42.73,-43.475 28.901,-128.69 -51.846,-184.504 z"
   fill="#ffc291"
   style="fill:#ff9947;fill-opacity:1" />
		</g>
		<g
   id="g1351">
			<path
   sodipodi:nodetypes="cccccccc"
   id="path1349"
   d="m 1351.949,609 h 0.012 C 1339.137,599 1343,592.77 1352,589.474 v -0.092 c -13,2.8 -51.0187,-10.27181 -52.6227,-11.47281 1.12,6.336 -0.8249,17.64381 -7.9309,23.93181 0,0 15.057,-1.67324 13.549,-1.17924 9.7245,0.0652 34.7347,3.15276 46.9536,8.33824 z"
   fill="#0f0689" />
		</g>
	</g>
</g><g
   transform="matrix(1.8560554,0,0,1.8560554,-1070.3006,-1212.4591)"
   id="g1305"
   style="fill:#e1ac69;fill-opacity:1">
	<g
   id="g1303"
   style="fill:#e1ac69;fill-opacity:1">
		<path
   id="path1299"
   d="m 871.31106,1142.8118 c 31.68345,7.7841 -5.24784,-2.8957 37.23865,10.545 -0.0794,3.4914 26.65173,0.9196 29.91834,2.412 H 1092.738 c 9.3506,0 16.9313,-7.5018 16.9313,-16.755 l 0,-179.07541 c -23.5993,-0.22373 -62.2335,11.81002 -114.23262,-16.50501 -36.42868,-27.09086 -46.71025,-64.79103 -38.15317,-96.10212 6.95665,-25.455 48.82399,-67.99082 48.82399,-67.99082 l -147.02126,0 c -9.35059,0 -16.93129,7.50176 -16.93129,16.75496 v 338.7821 c 0,6.9064 6.60675,7.5349 11.96859,7.9343 4.90223,0.3651 9.69332,-0.4247 17.18752,0 z"
   fill="#e2e2fd"
   style="fill:#ffc291;fill-opacity:1;stroke-width:1.12287"
   sodipodi:nodetypes="cccssccscssssc" />
		<path
   id="path1301"
   d="M 838.53,1212.281"
   fill="#e2e2fd"
   style="fill:#e1ac69;fill-opacity:1" />
	</g>
</g>
<path
   style="stroke-width:1.88738;stroke-miterlimit:10;stroke-dasharray:none"
   id="path1307"
   d="M 592.36956,1016.9634"
   fill="#ff0000" />
<path
   style="stroke-width:1.88738;stroke-miterlimit:10;stroke-dasharray:none"
   id="path1309"
   d="M 584.54716,1016.8715"
   fill="#ff0000" />
<path
   style="stroke-width:1.88738;stroke-miterlimit:10;stroke-dasharray:none"
   id="path1311"
   d="M 601.08855,997.10161"
   fill="#ff0000" />






<line
   style="stroke-width:26;stroke-miterlimit:10;stroke-dasharray:none"
   id="line1325"
   y2="713.30988"
   x2="943.97772"
   y1="713.30988"
   x1="542.28247"
   stroke-miterlimit="10"
   stroke-width="1.03875"
   stroke="#6f6ab8"
   fill="none" />
<rect
   style="stroke-width:26;stroke-miterlimit:10;stroke-dasharray:none"
   id="rect1327"
   height="107.30595"
   width="385.15475"
   stroke-miterlimit="10"
   stroke-width="1.03875"
   stroke="#6f6ab8"
   fill="none"
   y="767.41119"
   x="553.73407" />

<g
   id="g1339"
   transform="matrix(1.0850351,-0.21583012,0.21583012,1.0850351,-568.26183,-267.27371)">
	<g
   id="g1337">
		<path
   id="path1331"
   d="M 921.47244,635.40519 C 989.07822,451.324 1119.6986,553.45934 1166.5304,616.50526"
   stroke-miterlimit="10"
   stroke-width="8.34895"
   stroke="#0f0689"
   fill="none"
   sodipodi:nodetypes="cc"
   style="stroke-width:27.1176;stroke-miterlimit:10;stroke-dasharray:none" />
		<g
   id="g1335"
   transform="matrix(1.9020969,1.7486279,-1.7486279,1.9020969,109.7502,-2618.3158)"
   style="stroke-width:41.3146;stroke-miterlimit:10;stroke-dasharray:none">
			<polygon
   id="polygon1333"
   points="1097.858,638.633 1135.702,669.008 1102.662,704.542 1096.734,699.04 1123.869,669.87 1092.791,644.936 "
   fill="#0f0689"
   transform="translate(35.677045,-26.432155)"
   style="stroke-width:41.3146;stroke-miterlimit:10;stroke-dasharray:none" />
		</g>
	<path
   style="stroke-width:27.1176;stroke-miterlimit:10;stroke-dasharray:none"
   sodipodi:nodetypes="cc"
   fill="none"
   stroke="#0f0689"
   stroke-width="8.34895"
   stroke-miterlimit="10"
   d="m 1381.3154,988.55573 c 40.5609,123.32787 -89.8477,226.81697 -180.0707,208.98017"
   id="path1331-8" /></g>
</g>

<g
   transform="matrix(1.7774233,0,0,1.7774233,-1360.5965,-939.55232)"
   id="g1365">
	<g
   id="g1363">
		<g
   id="g1361">
			<g
   id="g1359">
				<path
   id="path1357"
   d="m 1247.104,723.058 11.921,-1.436 c 0.866,-4.798 2.32,-9.228 4.356,-13.295 2.038,-4.065 4.689,-7.65 7.957,-10.751 3.267,-3.102 7.173,-5.646 11.716,-7.637 4.545,-1.992 9.693,-3.334 15.446,-4.026 1.959,-0.235 3.91,-0.378 5.858,-0.435 1.948,-0.053 3.817,-0.036 5.602,0.048 1.785,0.088 3.46,0.247 5.023,0.479 1.562,0.233 2.935,0.52 4.119,0.858 l 1.435,11.921 c -2.961,-0.605 -6.141,-1.021 -9.536,-1.244 -3.396,-0.223 -6.786,-0.131 -10.165,0.275 -7.177,0.863 -13.093,3.081 -17.747,6.649 -4.655,3.569 -7.785,8.698 -9.386,15.39 l 33.007,-3.973 1.424,11.832 -35.585,4.284 c 0.017,1.142 0.065,2.309 0.149,3.501 0.084,1.194 0.201,2.413 0.352,3.659 0.235,1.957 0.516,3.789 0.841,5.495 l 29.004,-3.492 1.424,11.832 -26.957,3.244 c 2.876,6.394 7.007,10.726 12.394,12.995 5.387,2.271 12.144,2.916 20.272,1.937 1.54,-0.185 3.176,-0.472 4.902,-0.859 1.729,-0.39 3.465,-0.838 5.209,-1.349 1.744,-0.512 3.422,-1.059 5.037,-1.645 1.615,-0.585 3.045,-1.193 4.293,-1.826 l 1.436,11.923 c -2.659,1.403 -5.777,2.619 -9.353,3.652 -3.578,1.031 -7.294,1.779 -11.147,2.242 -12.635,1.521 -22.874,0.048 -30.723,-4.424 -7.849,-4.47 -13.547,-11.425 -17.088,-20.868 l -11.121,1.339 -1.425,-11.833 9.342,-1.124 c -0.267,-1.711 -0.423,-2.761 -0.47,-3.147 -0.046,-0.385 -0.111,-0.935 -0.197,-1.646 -0.179,-1.482 -0.314,-2.85 -0.404,-4.103 -0.092,-1.253 -0.151,-2.51 -0.183,-3.77 l -9.607,1.156 z"
   fill="#0f0689" />
			</g>
		</g>
	</g>
</g>
<path
   style="fill:#6f6ab8;fill-opacity:1"
   id="path1367"
   d="m 311.828,20.378 c -97.758,0 -177.29,96.571 -177.29,215.272 0,45.502 2.249,97.361 29.105,136.933 35.372,52.116 96.306,88.519 148.185,88.519 51.875,0 112.811,-36.398 148.185,-88.519 26.857,-39.572 29.109,-91.431 29.109,-136.933 0,-118.701 -79.532,-215.272 -177.294,-215.272 z m 51.613,334.873 c -3.272,6.514 -18.217,32.079 -51.284,32.079 -32.915,0 -46.874,-26.095 -49.75,-32.365 -0.377,-0.823 -0.357,-1.002 -0.357,-1.211 10e-4,-0.23 0.66,-0.465 0.66,-0.465 l 5.974,-2.255 c 0,0 0.496,-0.126 0.616,-0.037 0.098,0.072 0.233,0.261 0.483,0.821 2.311,5.197 13.888,27.472 42.375,27.473 28.21,0 41.324,-22.26 44.044,-27.556 0.353,-0.685 0.527,-0.855 0.554,-0.879 0.171,-0.188 0.731,0.081 0.731,0.081 l 5.979,2.578 c 0,0 0.515,0.198 0.51,0.418 -0.004,0.162 -0.139,0.525 -0.535,1.318 z"
   fill="#7d4e5b" />
<g
   id="g1371"
   transform="translate(-253,-199.337)">
	
</g>
<g
   id="g1377"
   transform="translate(-253,-199.337)">
	<g
   id="g1375">
		<path
   style="fill:#6f6ab8;fill-opacity:1"
   id="path1373"
   d="m 1019.243,1147.909 c -3.394,-6.675 -17.862,-1.498 -19.523,-1.073 -17.267,4.413 -45.145,16.899 -63.97,18.414 -26.519,2.134 -85.416,3.583 -88.75,1.75 -0.85,-0.722 -1.5,-3 0,-4.458 48,0.291 83.24,-1.997 83.24,-1.997 0.039,0 6.32,0.105 9.907,-3.396 1.752,-1.713 2.609,-5.078 2.607,-8.233 -0.005,-8.915 -10.133,-10.635 -12.255,-10.665 l -55.783,-1.926 c -1.791,-0.08 -6.197,-0.354 -8.444,-1.144 l -0.379,-0.152 c -47.61,-21.684 -64.722,-19.139 -64.884,-19.105 l -0.446,0.077 H 768 v 68.234 l 1.115,0.407 c 0.663,0.342 66.659,34.103 101.02,32.203 l 0.258,-0.01 c 13.647,0 28.442,-4.159 30.519,-4.764 0,0 80.151,-33.47 111.166,-48.642 1.796,-0.878 12.422,-5.181 7.165,-15.522 z"
   fill="#7d4e5b" />
	</g>
</g>
<g
   id="g1387"
   transform="translate(-253,-199.337)">
	<path
   id="path1379"
   d="m 781,1199.211 c -5.832,-2.665 -10.367,-4.871 -13,-6.178 V 1210 h 13 z"
   fill="#6f6ab8" />
	<path
   id="path1381"
   d="M 789,1202.784 V 1210 h 17.493 c -6.263,-2.429 -12.193,-4.903 -17.493,-7.216 z"
   fill="#6f6ab8" />
	<path
   id="path1383"
   d="m 341,1194.886 c -1.185,-0.643 -2.375,-1.276 -3.545,-1.945 -23.269,-13.31 -43.519,-31.851 -60.189,-55.11 -10.815,-15.09 -18.665,-30.086 -24.266,-42.959 V 1210 h 88 z"
   fill="#6f6ab8" />
	<path
   id="path1385"
   d="M 349,1198.986 V 1210 h 29.212 c -10.153,-2.896 -19.905,-6.559 -29.212,-11.014 z"
   fill="#6f6ab8" />
</g>
<line
   fill="none"
   stroke="#6f6ab8"
   stroke-width="1.03875"
   stroke-miterlimit="10"
   x1="542.93188"
   y1="662.63782"
   x2="944.62708"
   y2="662.63782"
   id="line1325-2"
   style="stroke-width:26;stroke-miterlimit:10;stroke-dasharray:none" /><line
   style="stroke-width:26;stroke-miterlimit:10;stroke-dasharray:none"
   id="line1325-2-0"
   y2="612.6496"
   x2="945.44604"
   y1="612.6496"
   x1="543.75085"
   stroke-miterlimit="10"
   stroke-width="1.03875"
   stroke="#6f6ab8"
   fill="none" /><line
   fill="none"
   stroke="#6f6ab8"
   stroke-width="1.03875"
   stroke-miterlimit="10"
   x1="545.75085"
   y1="558.6496"
   x2="751.06201"
   y2="558.6496"
   id="line1325-2-0-4"
   style="stroke-width:26;stroke-miterlimit:10;stroke-dasharray:none" /><line
   style="stroke-width:26;stroke-miterlimit:10;stroke-dasharray:none"
   id="line1325-2-0-4-4"
   y2="505.55121"
   x2="706.43115"
   y1="505.55121"
   x1="544.62396"
   stroke-miterlimit="10"
   stroke-width="1.03875"
   stroke="#6f6ab8"
   fill="none" /><line
   fill="none"
   stroke="#6f6ab8"
   stroke-width="1.03875"
   stroke-miterlimit="10"
   x1="543.73029"
   y1="455.5748"
   x2="687.62402"
   y2="455.5748"
   id="line1325-2-0-4-4-0"
   style="stroke-width:26;stroke-miterlimit:10;stroke-dasharray:none" /><line
   style="stroke-width:26;stroke-miterlimit:10;stroke-dasharray:none"
   id="line1325-2-0-4-4-0-9"
   y2="403.5748"
   x2="678.10828"
   y1="403.5748"
   x1="545.73029"
   stroke-miterlimit="10"
   stroke-width="1.03875"
   stroke="#6f6ab8"
   fill="none" /><line
   fill="none"
   stroke="#6f6ab8"
   stroke-width="1.03875"
   stroke-miterlimit="10"
   x1="545.73029"
   y1="353.5748"
   x2="690.90356"
   y2="353.5748"
   id="line1325-2-0-4-4-0-9-1"
   style="stroke-width:26;stroke-miterlimit:10;stroke-dasharray:none" /><line
   style="stroke-width:26;stroke-miterlimit:10;stroke-dasharray:none"
   id="line1325-2-0-4-4-0-9-1-9"
   y2="299.5748"
   x2="709.53748"
   y1="299.5748"
   x1="547.73029"
   stroke-miterlimit="10"
   stroke-width="1.03875"
   stroke="#6f6ab8"
   fill="none" /></svg>
