<?xml version="1.0" encoding="utf-8"?>
<!-- Generator: Adobe Illustrator 16.0.0, SVG Export Plug-In . SVG Version: 6.00 Build 0)  -->
<!DOCTYPE svg PUBLIC "-//W3C//DTD SVG 1.1//EN" "http://www.w3.org/Graphics/SVG/1.1/DTD/svg11.dtd">
<svg version="1.1" id="Calque_6" xmlns="http://www.w3.org/2000/svg" xmlns:xlink="http://www.w3.org/1999/xlink" x="0px" y="0px"
	 width="1600px" height="1300px" viewBox="0 0 1600 1300" enable-background="new 0 0 1600 1300" xml:space="preserve">
<path fill="#4545CE" d="M1076.784,302.05"/>
<path fill="#4545CE" d="M1076.784,302.05"/>
<g>
	<g>
		<path fill="#FFC291" d="M640.745,694.949l-22.191-23.163c-20.8,14.638-42.798,24.209-64.691,31.656
			c-14.078,4.788-28.12,7.929-41.811,9.079l-0.664,0.306l36.74,75.36L640.745,694.949z"/>
		<path fill="#FFC291" d="M463.792,788.188l36.74-75.361l-0.682-0.313c-13.66-1.157-27.669-4.293-41.714-9.07
			c-21.91-7.452-43.924-17.033-64.738-31.689l-22.223,23.196L463.792,788.188z"/>
		<path fill="#FFC291" d="M794.955,742.286c-5.71-13.294-12.903-25.938-22.023-36.937c-2.45-2.956-5.996-5.785-8.725-8.484
			c-19.864-19.644-44.739-28.896-74.124-28.824c-1.894,0.004-9.74-0.039-11.825-0.039c-0.058,0.043,0.058-0.043,0,0l-38.24-0.09
			c-1.462-0.045-2.933-0.072-4.417-0.068c-1.499,0.003-6.613,0.021-9.719,0.028l26.038,27.179l-106.05,106.762L510,728.235V1217h212
			V887C722,850.5,775.561,770.174,794.955,742.286z M662,893v4h-90v-4v-4h90V893z"/>
		<path fill="#FFC291" d="M818,854.809c-1.848-22.62-4.957-64.874-19.458-103.588C777.594,781.803,730,854.825,730,887v330h88
			V854.809z"/>
		<path fill="#FFC291" d="M213.458,751.221c-14.501,38.714-17.61,80.968-19.458,103.588V1217h88V887
			C282,854.825,234.407,781.803,213.458,751.221z"/>
		<path fill="#FFC291" d="M360.04,695.051l26.038-27.179c-3.11-0.008-8.187-0.025-9.679-0.028c-1.485-0.004-2.956,0.023-4.417,0.068
			l-38.241,0.09c-0.057-0.043,0.058,0.043,0,0c-2.085,0-9.847,0.086-11.741,0.082c-29.386-0.071-54.343,9.138-74.207,28.781
			c-2.728,2.699-6.274,5.528-8.724,8.484c-9.12,10.999-16.314,23.642-22.023,36.937C236.438,770.173,290,850.499,290,887v330h212
			V728.234l-35.91,73.578L360.04,695.051z"/>
	</g>
</g>
<g>
	<g>
		<path fill="#A0A0EF" d="M869.782,577.754L869.782,577.754C869.814,577.779,869.799,577.767,869.782,577.754z"/>
		<path fill="#A0A0EF" d="M1271.109,577.754L1271.109,577.754C1271.092,577.767,1271.076,577.779,1271.109,577.754z"/>
		<path fill="#A0A0EF" d="M1228.903,608.076l-25.896-26.926c-24.654,17.633-50.798,29.041-76.809,37.888
			c-16.581,5.64-33.12,9.316-49.236,10.62l42.917,87.914L1228.903,608.076z"/>
		<path fill="#A0A0EF" d="M1410.789,673.343C1394.41,697.36,1331,792.804,1331,830.667c0,86.759,0.84,343.769,0.98,386.333H1434
			V795.362C1431.877,768.749,1428.153,718.805,1410.789,673.343z"/>
		<path fill="#A0A0EF" d="M1037.865,699.522l-15.437,31.656L900.001,608.173l29.404-30.574c-3.597-0.01-8.396-0.026-9.932-0.029
			c-1.729-0.004-3.442,0.027-5.146,0.08l-44.546,0.104c0.017,0.013,0.032,0.025-0.001,0c-2.429,0-11.698,0-13.905-0.004
			c-34.229-0.083-63.073,10.744-86.213,33.626c-3.179,3.145-7.31,6.44-10.164,9.883c-13.079,15.774-22.761,34.45-29.995,53.873
			c13.256,4.785,25.182,12.328,35.703,22.732c2.729,2.699,6.274,5.528,8.725,8.484C811.16,751.248,816.363,823.525,819,855.809V1217
			h1h206.464l21.424-489.394L1037.865,699.522z"/>
		<path fill="#A0A0EF" d="M869.781,577.754L869.781,577.754C869.766,577.741,869.748,577.729,869.781,577.754z"/>
		<polygon fill="#A0A0EF" points="1054.737,723 1070,723 1084.938,723 1097.109,689.164 1076.423,646.788 1069.992,633.459 
			1063.563,646.823 1042.77,689.465 		"/>
		<path fill="#A0A0EF" d="M1271.109,577.754L1271.109,577.754C1271.143,577.729,1271.126,577.741,1271.109,577.754z"/>
		<path fill="#A0A0EF" d="M1407.188,664.45c-6.672-15.546-15.082-30.333-25.743-43.19c-2.854-3.443-7.013-6.739-10.19-9.883
			c-23.141-22.882-52.024-33.522-86.254-33.439c-2.206,0.004-11.462-0.184-13.891-0.184c-0.033,0.025-0.018,0.013,0,0l-44.547-0.104
			c-1.703-0.052-3.417-0.084-5.146-0.08c-1.65,0.003-7.076,0.022-10.722,0.031l29.402,30.572L1117.62,731.179l-15.615-31.988
			l-10.225,28.421L1113.204,1217h210.776c-0.142-42.646-0.98-299.58-0.98-386.333C1323,786.854,1397.748,678.018,1407.188,664.45z"
			/>
		<polygon fill="#A0A0EF" points="1070,731 1055.746,731 1034.472,1217 1065,1217 1066,1217 1074,1217 1075,1217 1105.196,1217 
			1083.922,731 		"/>
		<path fill="#A0A0EF" d="M1020.169,717.571l42.906-87.986c-15.848-1.362-32.096-5.006-48.386-10.547
			c-26.174-8.903-52.48-20.406-77.273-38.229l-26.222,27.267L1020.169,717.571z"/>
		<path fill="#A0A0EF" d="M794.797,741.92l3.749,9.295C797.598,748.513,795.889,744.626,794.797,741.92z"/>
		<path fill="#A0A0EF" d="M798.67,752.079l0.143-0.204l-0.267-0.66c0.001,0.002,0.002,0.004,0.002,0.006
			C798.621,751.426,798.67,752.079,798.67,752.079z"/>
	</g>
</g>
<path fill="#7D4E5B" d="M505.828,218.715c-97.758,0-177.29,96.571-177.29,215.272c0,45.502,2.249,97.361,29.105,136.933
	c35.373,52.116,96.306,88.519,148.184,88.519c51.875,0,112.811-36.399,148.185-88.519c26.857-39.572,29.109-91.431,29.109-136.933
	C683.122,315.286,603.589,218.715,505.828,218.715z M556.873,553.406c-3.256,6.483-18.131,31.928-51.043,31.928
	c-32.76,0-46.654-25.971-49.518-32.213c-0.375-0.817-0.354-0.996-0.354-1.204c0-0.229,0.656-0.462,0.656-0.462l5.946-2.245
	c0,0,0.493-0.125,0.611-0.038c0.097,0.072,0.233,0.261,0.481,0.819c2.302,5.171,13.823,27.342,42.177,27.343
	c28.079,0,41.131-22.155,43.838-27.426c0.35-0.682,0.527-0.85,0.55-0.876c0.172-0.188,0.729,0.081,0.729,0.081l5.951,2.565
	c0,0,0.514,0.197,0.508,0.416C557.401,552.255,557.269,552.617,556.873,553.406z"/>
<path fill="#F2C3B1" d="M1070.782,126.715c-97.758,0-177.29,96.571-177.29,215.272c0,45.502,2.249,97.361,29.105,136.933
	c35.372,52.116,96.306,88.519,148.185,88.519c51.875,0,112.811-36.399,148.185-88.519c26.857-39.572,29.109-91.431,29.109-136.933
	C1248.076,223.286,1168.544,126.715,1070.782,126.715z M1121.873,461.406c-3.256,6.482-18.131,31.928-51.043,31.928
	c-32.76,0-46.654-25.971-49.518-32.213c-0.375-0.817-0.354-0.996-0.354-1.205c0-0.229,0.655-0.462,0.655-0.462l5.946-2.245
	c0,0,0.493-0.125,0.611-0.037c0.098,0.072,0.232,0.261,0.481,0.818c2.302,5.172,13.823,27.343,42.177,27.344
	c28.078,0,41.131-22.155,43.838-27.427c0.351-0.682,0.527-0.851,0.551-0.876c0.172-0.188,0.729,0.081,0.729,0.081l5.951,2.565
	c0,0,0.514,0.197,0.508,0.416C1122.401,460.255,1122.269,460.617,1121.873,461.406z"/>
<path d="M596.313,214.357c0.42-3.088,0.643-6.23,0.643-9.417c0-43.743-40.723-79.203-90.956-79.203s-90.957,35.46-90.957,79.203
	c0,3.174,0.222,6.303,0.638,9.38c-94.583,41.004-104.658,147.297-90.467,202.474c34.66,0,100.731-82.914,102.094-97.903
	c0,0,60.886,99.473,259.707,98.11c-0.036-0.218-0.076-0.436-0.117-0.654C700.91,361.134,690.321,255.246,596.313,214.357z"/>
<path fill="#0F0689" d="M1256.624,273.579c0.085-2.101,0.133-4.21,0.133-6.329c0-93.475-83.255-169.25-185.955-169.25
	c-1.588,0-3.157,0.022-4.717,0.054c-0.049,0.001-0.099,0.002-0.147,0.003C998.031,99.512,956.228,130.91,902.5,106
	c2.648,20.596,11.498,39.535,22.668,56.012c-25.236,28.892-40.32,65.459-40.32,105.238c-0.02,2.437-0.051,3.562-0.031,5.594
	c-0.712,19.436,1.477,37.457,5.204,51.949c1.377,0,2.808-0.145,4.277-0.397c0.015-0.002,0.03-0.005,0.045-0.007
	c17.43-3.018,40.958-23.056,60.574-44.405c0.008-0.009,0.016-0.017,0.023-0.025c0.582-0.634,1.16-1.269,1.735-1.905
	c0.05-0.055,0.1-0.11,0.149-0.165c0.545-0.603,1.085-1.205,1.622-1.808c0.078-0.088,0.157-0.177,0.236-0.265
	c0.515-0.579,1.025-1.158,1.533-1.738c0.098-0.111,0.194-0.222,0.292-0.333c0.491-0.562,0.979-1.123,1.463-1.684
	c0.111-0.13,0.224-0.259,0.335-0.389c0.467-0.543,0.931-1.084,1.391-1.626c0.126-0.148,0.252-0.296,0.377-0.445
	c0.45-0.531,0.897-1.062,1.34-1.591c0.127-0.151,0.252-0.302,0.378-0.453c0.437-0.524,0.87-1.046,1.3-1.568
	c0.129-0.157,0.257-0.313,0.386-0.47c0.425-0.518,0.847-1.034,1.264-1.549c0.127-0.156,0.251-0.312,0.377-0.467
	c0.413-0.511,0.823-1.021,1.228-1.529c0.126-0.158,0.249-0.314,0.374-0.471c0.405-0.511,0.81-1.02,1.206-1.526
	c0.1-0.127,0.197-0.253,0.297-0.38c0.415-0.532,0.829-1.063,1.235-1.589c0.066-0.086,0.131-0.172,0.197-0.258
	c1.852-2.407,3.6-4.754,5.226-7.017c0.054-0.075,0.11-0.151,0.163-0.225c0.288-0.402,0.567-0.796,0.848-1.192
	c0.151-0.215,0.307-0.432,0.456-0.645c0.244-0.347,0.479-0.687,0.717-1.029c0.177-0.255,0.357-0.513,0.53-0.766
	c0.218-0.316,0.427-0.626,0.639-0.938c0.185-0.271,0.37-0.544,0.55-0.812c0.197-0.293,0.387-0.581,0.578-0.87
	c0.185-0.278,0.369-0.556,0.548-0.829c0.185-0.282,0.362-0.558,0.541-0.835c0.175-0.271,0.35-0.542,0.52-0.808
	c0.17-0.268,0.335-0.531,0.5-0.794c0.169-0.27,0.337-0.539,0.501-0.804c0.154-0.251,0.306-0.499,0.455-0.745
	c0.161-0.266,0.321-0.53,0.477-0.791c0.142-0.239,0.281-0.474,0.418-0.708c0.15-0.258,0.299-0.513,0.443-0.765
	c0.13-0.227,0.258-0.451,0.382-0.673c0.141-0.249,0.276-0.494,0.409-0.737c0.117-0.213,0.232-0.425,0.344-0.633
	c0.13-0.241,0.254-0.477,0.376-0.711c0.104-0.2,0.207-0.398,0.306-0.593c0.116-0.229,0.227-0.453,0.335-0.675
	c0.092-0.188,0.185-0.377,0.271-0.56c0.104-0.217,0.198-0.427,0.294-0.636c0.079-0.175,0.16-0.352,0.234-0.521
	c0.09-0.208,0.171-0.406,0.253-0.604c0.065-0.159,0.134-0.32,0.194-0.474c0.077-0.199,0.145-0.387,0.214-0.577
	c0.051-0.141,0.106-0.285,0.151-0.42c0.065-0.191,0.118-0.37,0.173-0.551c0.036-0.121,0.078-0.247,0.109-0.362
	c0.053-0.192,0.092-0.37,0.132-0.549c0.021-0.09,0.048-0.188,0.064-0.275c0.051-0.259,0.088-0.504,0.108-0.733
	c0,0,59.653,97.407,253.598,98.104c2.029,0.008,4.051,0.021,6.11,0.006c-0.037-0.218-0.076-0.436-0.117-0.654
	C1255.313,310.128,1257.283,292.544,1256.624,273.579z"/>
</svg>
