<?xml version="1.0" encoding="UTF-8" standalone="no"?>
<svg
   xmlns:dc="http://purl.org/dc/elements/1.1/"
   xmlns:cc="http://creativecommons.org/ns#"
   xmlns:rdf="http://www.w3.org/1999/02/22-rdf-syntax-ns#"
   xmlns:svg="http://www.w3.org/2000/svg"
   xmlns="http://www.w3.org/2000/svg"
   xmlns:sodipodi="http://sodipodi.sourceforge.net/DTD/sodipodi-0.dtd"
   xmlns:inkscape="http://www.inkscape.org/namespaces/inkscape"
   width="385.24426"
   height="295.14279"
   version="1.1"
   id="svg1141"
   sodipodi:docname="france-entiere.svg"
   inkscape:version="1.0 (4035a4f, 2020-05-01)">
  <metadata
     id="metadata1147">
    <rdf:RDF>
      <cc:Work
         rdf:about="">
        <dc:format>image/svg+xml</dc:format>
        <dc:type
           rdf:resource="http://purl.org/dc/dcmitype/StillImage" />
      </cc:Work>
    </rdf:RDF>
  </metadata>
  <defs
     id="defs1145" />
  <sodipodi:namedview
     inkscape:document-rotation="0"
     pagecolor="#ffffff"
     bordercolor="#666666"
     borderopacity="1"
     objecttolerance="10"
     gridtolerance="10"
     guidetolerance="10"
     inkscape:pageopacity="0"
     inkscape:pageshadow="2"
     inkscape:window-width="1215"
     inkscape:window-height="1000"
     id="namedview1143"
     showgrid="false"
     inkscape:zoom="1.7162162"
     inkscape:cx="73.789752"
     inkscape:cy="51.720238"
     inkscape:window-x="65"
     inkscape:window-y="24"
     inkscape:window-maximized="1"
     inkscape:current-layer="svg1141" />
  <g
     id="Departments"
     transform="matrix(0.195088,0,0,0.195088,-2.6889188,-41.133674)" />
  <g
     id="Cadre"
     transform="matrix(0.195088,0,0,0.195088,-2.6889188,-41.133674)"
     style="fill:#0053b3;fill-opacity:1">
    <rect
       style="display:inline;opacity:0.909091;fill:#0053b3;fill-opacity:1;stroke:none;stroke-width:4.86866;stroke-miterlimit:4;stroke-dasharray:none;stroke-opacity:1"
       id="rect4241"
       width="1968.8501"
       height="1508.0013"
       x="17.219053"
       y="213.2811" />
  </g>
  <g
     id="Regions"
     transform="matrix(0.195088,0,0,0.195088,-2.6889188,-41.133674)"
     style="fill:#ffffff;fill-opacity:1;stroke:#0053b3;stroke-opacity:1">
    <g
       id="g1733"
       style="stroke:#ffffff;stroke-width:5.12589;stroke-miterlimit:4;stroke-dasharray:none;stroke-opacity:1">
      <path
         id="Haute-normandie"
         d="m 994.10078,488.76119 c 0.69299,7.96775 2.7551,14.92095 1.57192,21.52521 10.6099,-7.25356 0.24478,8.31765 2.63677,7.63144 8.83423,1.65683 3.04423,11.87237 9.30473,14.45155 -4.5691,4.37374 0.6498,9.49042 -5.2228,11.76407 7.3775,3.04791 8.0155,12.58516 1.217,19.80117 3.3981,11.98491 21.8977,-2.15576 22.8182,9.65972 -3.0344,7.30954 22.5356,9.8506 14.4516,21.27167 -1.1066,0.45001 2.4913,9.62463 6.744,4.33547 4.9287,-9.03143 17.4788,-2.50482 23.7817,-11.43448 6.1839,4.75046 5.3622,-10.31159 10.7499,-1.72404 6.4894,-0.73906 17.4431,4.42611 20.6632,-3.34668 -6.8672,-10.93525 17.1773,-8.56771 8.2907,-19.62369 4.6767,-1.23721 8.4157,-7.2431 1.724,-6.82012 3.1696,-4.85892 -7.3319,-14.9016 3.6763,-13.13316 2.1597,-4.51799 15.6384,-0.0772 15.2882,-11.94155 2.3819,-7.35386 4.0467,-25.35442 14.2994,-16.32772 -1.0347,-6.90889 -3.1283,-16.28895 -8.1131,-23.27461 1.2319,-6.68345 13.6579,-16.41195 1.8001,-12.2965 -2.1768,-3.80672 2.6758,-10.51636 -3.8284,-12.57538 2.5049,-4.72457 0.2845,-12.38553 5.2228,-17.01227 -9.062,7.03972 -1.5679,-12.46386 3.6509,-10.69922 -8.1988,-7.77173 -4.2344,-22.93698 -18.0264,-25.80997 -5.0816,-7.20307 -14.6129,-13.16072 -17.6207,-18.27995 -31.0699,25.2246 -79.8193,23.35513 -114.82649,47.61407 -51.67994,21.92954 1.90983,57.26895 13.25729,42.74871 l -6.7921,2.48212 z"
         style="fill:#ffffff;fill-opacity:1;stroke:#ffffff;stroke-width:5.12589;stroke-miterlimit:4;stroke-dasharray:none;stroke-opacity:1" />
      <path
         id="Lorraine"
         d="m 1517.4499,461.45536 c -4.4329,4.0624 -9.191,10.86833 -15.4911,10.72458 -3.5748,-4.45988 -10.9894,-2.89968 -14.0205,-5.75527 0.207,7.25782 -7.6393,12.74599 0.1774,18.81237 0.556,8.93183 -1.97,11.82537 -8.2906,18.00106 6.7922,7.99973 -2.8177,9.55104 -5.9581,14.22337 5.0174,6.60166 -6.4225,8.01636 0.7099,15.69388 5.5972,7.45003 -1.7132,14.50765 5.9835,16.53055 -4.4532,4.87419 4.0539,11.39647 -6.8456,14.22337 -11.1049,1.12853 0.9072,13.41898 -7.6313,16.53055 3.3267,4.26987 16.2796,12.48648 10.5217,18.55884 0.9468,4.96487 -1.448,13.90021 6.1102,8.0878 0.3418,5.99844 6.9536,5.70608 9.5583,9.45689 6.4619,7.15934 16.6948,6.23327 22.7929,13.58953 3.6267,1.22988 8.8365,7.46054 9.0006,9.33013 -5.6331,0.13177 -5.6778,14.51561 0,8.56952 8.8766,-4.7281 7.7417,14.64423 15.3389,9.05123 5.1745,6.53086 5.8695,8.0793 12.195,13.91913 -2.6874,2.9607 -4.2697,6.80525 -7.0482,11.99226 -0.852,5.05944 -3.8407,4.60699 4.1326,7.45396 6.5776,3.80815 10.5619,9.77997 9.9386,17.21509 5.9946,-9.19419 8.5555,9.77281 11.5359,-2.99172 9.0292,-5.95305 -0.2796,10.87543 5.6031,1.85081 5.8129,-0.86171 7.9125,-10.34442 15.7193,-9.55831 6.8319,2.89447 1.978,13.41868 11.4091,13.08246 8.4637,-6.93234 22.9334,-4.72787 25.2269,6.82012 6.5482,-1.72588 13.7776,-15.12624 17.4686,-2.23112 10.2899,3.89711 17.9912,18.43739 26.5452,7.7075 -1.3519,-6.72732 -0.1452,-15.79705 4.5637,-22.48865 5.3177,-3.02207 10.838,-13.59124 11.1302,-17.74752 -0.518,-9.55128 11.5396,-21.28264 11.8655,-28.64957 -1.631,-1.9394 -15.5376,-1.98949 -8.316,-9.55831 -3.6217,-5.22967 3.1969,-13.05601 -1.0396,-18.33066 8.1816,1.68509 -10.5842,-2.57702 0.6085,-4.10728 10.3302,3.93409 20.4202,-12.39926 18.3307,-17.925 -8.8439,-5.48831 10.0039,-18.96894 -3.1945,-22.10834 -3.8579,-2.2133 -7.9422,-8.47408 -10.9021,-0.73525 -2.2026,6.49889 -8.4002,2.06992 -8.4427,0.20283 -6.1445,-6.71082 11.064,-6.91902 -0.7099,-8.01174 -9.615,-2.72599 -13.964,-9.70127 -6.6427,-13.48812 8.1515,-0.76775 4.9473,-15.73476 11.6373,-18.88843 3.3726,3.85573 3.1142,11.30161 11.1556,12.57538 8.6911,2.76005 14.0889,9.67693 25.1508,3.62557 5.7705,4.53859 13.886,6.56596 13.8684,-3.21991 10.9601,-19.42539 -8.43,-8.21989 -8.5696,-22.8436 -14.2927,-1.55787 -56.9303,7.1857 -45.3263,5.89251 -8.5693,-35.56212 -32.8891,10.12 -38.3405,-20.09052 -12.1096,-18.27662 -18.1795,-34.06203 -43.9378,-37.87829 -20.8227,8.41508 -33.45,6.89153 -51.5548,-7.33861 -17.1753,1.7838 -28.6457,15.61067 -36.0165,-9.77507 z"
         style="fill:#ffffff;fill-opacity:1;stroke:#ffffff;stroke-width:5.12589;stroke-miterlimit:4;stroke-dasharray:none;stroke-opacity:1" />
    </g>
    <path
       style="fill:#ffffff;fill-opacity:1;stroke:#0053b3;stroke-opacity:1"
       d="m 126.83248,1119.6512 c -1.51594,1.0352 2.20253,0.7515 0,0 z m 208.76142,62.0107 c -3.61435,0.7644 -4.70766,3.2641 -0.10604,1.654 -0.40162,-0.6092 1.83555,-0.5877 0.10604,-1.654 z m -221.68972,-66.4225 c -0.0713,2.335 3.43079,0.9004 0,0 z m 36.24179,-2.3183 c -0.24807,1.3573 -3.99292,7.2325 -0.97738,3.8615 1.82968,0.4255 8.11461,-0.2937 3.54427,-2.9791 -1.20678,0.074 -1.28351,-0.7471 -2.56689,-0.8824 z m -33.06279,3.5329 c 1.74817,2.5219 -0.22256,0.3487 0,0 z m 215.64946,67.9658 c -2.03926,2.3503 -6.95994,-1.3498 -6.88804,1.9862 2.68984,1.0511 5.79869,1.1107 8.72211,-0.1139 0.4772,-1.0137 -1.40901,-1.1653 -1.83407,-1.8723 z m -158.10749,-70.2843 c -5.66175,-0.4845 3.77741,2.9061 0,0 z m 196.57465,0.4395 c -2.36187,1.5815 -4.4661,2.0862 -6.88663,4.1877 -1.28778,0.8477 -2.29007,0.1649 -4.7701,1.9639 -2.34491,0.9614 -2.67814,1.9288 -4.84461,2.8969 -1.6878,1.0981 -3.72216,3.0471 -5.64641,3.2545 -2.47728,-1.605 -2.92305,2.0957 -4.38589,2.5933 -2.0534,0.62 -4.12921,-0.8121 -4.83968,2.0993 -2.30616,1.2813 -2.65459,6.142 -0.73562,6.9081 1.31381,-3.0306 5.49675,-2.1869 7.10011,-3.7636 1.66649,-1.8306 5.74505,-1.3208 8.6359,-2.2645 5.09315,-1.6864 7.8411,-6.9462 13.08789,-8.536 2.2616,0.1928 2.29219,-0.9089 4.17398,-0.5126 2.13439,-0.9794 4.30958,-3.2971 2.07837,-4.2979 -0.54824,-1.7268 -1.34668,-2.4569 -1.60709,-4.5292 -0.47412,0.5826 -0.84975,-0.2301 -1.36022,10e-5 z m -297.246431,71.6094 c -3.131439,2.2781 3.994872,1.6247 0,0 z m 2.967125,-79.772 c -0.02149,5.6641 4.489812,1.2326 0,0 z m 91.134366,60.2426 c -2.4465,3.9062 7.00809,2.094 1.42512,1.5467 -0.67923,0.01 -0.53744,-1.5841 -1.42512,-1.5467 z m -25.85663,150.724 c -1.03181,3.0844 5.85703,3.4831 0,0 z m 4.23871,-15.6678 c -1.92726,3.32 6.28672,3.3361 2.59064,0.1108 -0.6241,1.0546 -1.85347,0.528 -2.59064,-0.1108 z m 3.28521,14.4534 c -3.81462,2.772 -1.92452,3.4716 1.69538,4.1653 3.34813,-0.031 -0.6977,-3.4914 -1.69538,-4.1653 z m 6.67598,-16.3289 c -0.83369,6.3946 -1.66083,1.5401 -3.28507,2.0243 -1.99559,1.7924 0.14618,6.1788 -3.49695,5.892 -2.69348,-1.2765 -5.64621,2.2878 -5.0866,3.0326 2.23548,1.9076 5.91478,0.694 7.18236,-0.028 3.21196,-0.1355 4.02862,1.2472 2.88485,-2.521 1.57942,-0.9514 7.21191,-6.3338 3.81488,-3.3963 -1.61153,-1.1709 1.39229,-4.5898 -1.73666,-5.0031 h -0.27681 z m -23.73729,5.1833 c -1.17977,4.1655 -4.55292,3.1073 -4.76869,7.1446 -2.11746,3.2527 2.73181,3.2498 4.56799,4.7726 3.64537,1.5667 4.61593,-3.811 6.44175,-5.6619 1.55864,3.935 3.4117,-3.1064 -1.60073,-1.5113 1.98436,-4.1039 -2.53408,-2.3241 -4.11048,-4.1902 v -0.4969 l -0.52984,-0.057 z m 130.44933,-51.3046 c -1.73286,2.0391 -3.12907,4.8566 -4.55663,6.0655 0.3445,4.7377 -7.51954,1.7747 -4.45075,7.7807 0.0131,3.5144 -1.02959,6.6707 -4.76869,7.7802 -4.40896,1.1868 -1.28353,5.6975 -1.45989,9.045 0.13009,3.2907 2.89612,6.7601 1.24798,9.4345 2.02633,2.2669 3.16681,5.1936 5.38918,7.5686 3.78711,0.061 6.59427,2.7433 10.40038,3.4088 2.81376,1.3323 5.04449,2.5187 8.45394,1.3252 3.6893,-1.7341 8.76072,-1.0901 12.10429,-4.235 2.85328,-1.9379 5.23025,-4.0048 7.31185,-6.6605 3.66814,-1.027 5.74582,-3.088 6.7822,-6.6479 1.51604,-4.6947 1.54499,-9.1053 -0.8889,-13.4602 -1.43125,-2.8363 -5.39999,-3.3418 -6.42313,-5.7248 -2.24554,-2.4791 -3.80494,-2.4102 -4.45074,-5.9997 -0.26143,-1.8078 -1.25404,-3.7551 -3.64413,-5.0473 -1.65466,0.8122 -2.24251,-3.0035 -4.09169,-1.3252 -1.91736,-1.0366 -4.12892,-3.449 -7.04002,-4.5226 -3.27559,-0.8006 -1.85883,-2.5806 -5.49307,-0.2215 -1.41504,-0.8179 -3.45617,0.078 -4.42218,1.4362 z m -98.24883,-112.0297 c 0.91633,1.301 -0.1419,0.1869 0,0 z m -1.60226,2.215 c 0.78897,0.1859 -0.0503,-1.454 0,0 z m -17.24596,109.8147 c -1.15697,3.1163 -3.19196,2.4705 -4.9157,4.9653 -1.6389,2.9474 -0.5152,6.6008 -3.92089,6.8409 -2.31232,-1.0228 -1.68972,3.6359 -4.51569,1.7236 -2.15574,-0.3184 -4.67371,-1.3915 -6.46421,0 -2.25295,4.4706 -3.00316,-0.6696 -6.35822,1.9989 -1.14049,3.3422 -4.2343,4.9179 -7.67094,4.7723 -2.57884,1.608 -7.21264,1.4179 -7.16482,-1.695 -0.34345,-3.7673 0.43877,-9.0857 -3.39109,-11.4777 -3.566683,-1.7545 -5.691264,-5.4641 -8.371678,-8.3145 -5.154226,-3.0174 -1.446988,-10.171 -5.722327,-13.6818 -0.957829,-2.6546 -4.890058,-4.6712 -5.404408,-7.9447 -1.456879,-3.1221 0.170032,-7.3754 0.31776,-10.3865 0.815131,-3.0809 -2.853218,-1.7371 -1.459857,-4.9775 -1.268323,-1.5397 -0.334737,-2.9805 -0.97741,-5.5034 0.440876,-2.4234 -1.098006,-6.381 1.589515,-7.6536 0.887372,-3.9207 -6.010496,-3.223 -2.861098,-6.0566 1.587182,-3.2257 0.27455,-8.1523 0.317959,-11.0631 -4.171944,0.1292 -2.199872,-3.9978 -2.695357,-6.5799 -3.564296,-3.6406 1.195508,-6.3313 0.363935,-10.3687 -1.165261,-2.6754 -0.98627,-5.7181 -3.709035,-7.834 -2.735398,-1.5727 -4.117576,-4.5869 -4.366661,-7.333 -1.579645,-2.5469 -0.169559,-6.02 -2.281065,-7.6276 3.26372,-0.9845 2.561461,-4.3432 2.690312,-7.0848 -2.710178,-4.3886 5.074783,-5.7747 1.838091,-7.7471 -4.152784,-2.8798 3.357458,-3.0649 3.920884,-5.8037 -1.488103,-3.8902 0.911173,-5.1234 3.804589,-7.2779 -1.023492,-3.7719 3.457987,-2.5169 5.644163,-4.5726 2.360892,-1.034 5.906512,1.5649 6.234785,-2.0937 1.185196,-2.4757 3.710019,1.6031 5.9344,1.0058 3.036744,0.1383 2.896777,3.6154 5.127783,4.3995 0.007,1.1504 1.54619,4.5122 5.15137,3.7223 2.48513,0.6086 5.75544,1.0396 7.26493,4.0671 1.62846,-0.2227 3.13942,-2.132 5.0275,1.8504 2.097,-0.2815 2.56196,1.0476 4.87474,0.8822 1.8764,-1.4494 8.87713,0.2891 5.62265,2.4952 1.03851,2.243 4.4673,2.615 6.7758,3.7545 2.05789,2.8067 7.36154,-2.5811 9.74929,0.6578 -2.62788,1.9515 -3.91831,4.6601 -5.16889,7.6155 -3.40977,2.135 -0.56486,-7.2615 -1.90746,-1.3252 -4.89061,2.0052 -1.01379,5.5132 2.62561,2.9791 1.22557,0.8379 -2.0924,6.4071 2.43728,3.7007 2.16466,-2.0624 3.1269,-7.6067 3.70902,-2.5968 -2.31692,2.3468 -0.2154,4.7006 2.6492,3.4507 1.9586,-1.5475 4.2477,-3.5987 3.52689,-5.987 1.66744,-2.486 3.12361,2.3869 5.41574,-1.436 2.20673,1.316 3.69958,-1.4817 4.89533,2.294 -1.34291,0.3924 -4.1596,1.2319 -0.68253,2.4604 2.14981,-4.9924 3.20182,3.4539 2.67151,5.7587 -1.77915,2.8537 -0.43796,5.2838 -0.6731,8.7543 0.87929,2.4749 4.24465,1.2791 1.90744,4.4971 -2.06542,1.6792 0.0595,2.8157 -3.70901,0.8855 1.23752,-1.2704 -2.13999,-6.6681 -2.846,-2.8116 -2.26349,-2.4712 -5.43156,-1.8137 -7.75109,-1.7553 -0.49203,2.42 -3.7765,6.6146 -1.27157,8.1378 -1.89477,2.9041 2.87621,4.7088 -1.1008,7.0872 -1.14458,2.7861 0.27409,7.0383 3.22016,7.2269 0.68522,3.0954 -3.38054,5.0593 -0.6357,8.4288 3.76686,2.0528 1.18317,4.6104 2.86108,7.5586 2.42568,1.1531 8.05974,3.0132 3.28505,5.4746 -3.82,2.3465 0.15457,6.5871 1.05984,8.0553 2.19653,3.3313 1.16649,7.8728 1.37761,11.917 -1.91039,3.2528 1.91846,7.1415 1.05967,8.7986 -1.44153,2.4052 -3.20164,5.0951 -3.39109,8.1378 -1.1172,2.9989 -3.78938,4.2256 -6.04026,6.5656 -2.12261,2.1261 -4.00431,3.1446 -6.04027,5.2249 -0.0368,0.9864 -1.10443,0.3164 -1.48366,0.8444 z m 17.80304,-114.4229 c 1.84982,-0.5535 4.74326,-2.0206 2.64919,-4.8359 1.03504,-2.7235 2.66665,0.7597 3.92093,-4.2127 1.51327,-2.1605 0.89077,-4.0599 1.16572,-6.7302 -0.57288,-2.9516 2.39235,-4.2153 3.60297,-5.7781 0.10397,-3.2908 6.48649,2.3412 6.67617,-1.3629 -0.1969,-0.7568 -1.27634,-2.6368 3.11426,-2.4577 1.94878,-0.5738 0.63694,-2.4887 -0.78303,-4.8546 1.9732,-0.9261 2.35273,-4.3482 1.33647,-6.5086 -1.93366,-3.5588 -3.37023,-2.0858 -5.02174,-2.6506 -2.66567,-2.2887 -7.4942,-2.3124 -6.80578,-6.9481 -1.51788,-3.3249 -2.17862,-5.7336 -2.41352,-9.1592 -0.86806,-3.2733 -3.71867,-3.7311 -1.08343,-6.6895 0.43786,-3.6665 2.03217,-6.4356 5.42194,-7.6531 0.5898,-4.6011 6.86534,-1.7953 6.6586,-6.2186 1.54564,-3.0362 4.91411,-3.1338 7.73582,-5.2591 2.64542,-2.0879 2.62832,-5.7477 5.40455,-6.9516 1.38309,-0.3442 4.03313,-2.9393 2.22538,1.4361 2.07032,1.1977 1.31744,3.0534 4.76869,2.9507 2.92191,-1.3906 4.71322,1.596 4.59781,3.4472 2.87817,0.3568 3.89875,3.1232 5.78722,4.4564 1.5867,1.8965 3.52539,3.1015 5.51041,3.9027 1.25491,2.8071 1.07215,5.7105 2.11936,7.9162 0.9474,1.5686 2.12176,4.6056 2.8201,6.8979 0.77246,3.3123 -0.49208,6.0058 -0.80662,8.1061 -1.56677,2.3864 -1.62163,4.8636 -1.54838,7.6726 -0.78472,3.0242 1.14832,6.3173 2.39613,8.6465 1.74918,2.7004 3.26547,5.8228 5.82837,8.3145 0.76917,3.228 5.96047,3.3014 6.05306,5.8632 1.63495,-3.2039 5.4607,2.7083 7.67975,-0.3979 2.24233,4.2697 3.73923,-0.2365 7.90269,1.1826 2.68331,2.3194 7.08296,-1.2691 8.35411,2.9545 3.21412,-2.1978 3.60238,2.4053 7.20598,1.6128 2.44079,2.1938 4.08207,2.9949 6.69354,4.0419 0.15709,3.1226 3.88243,2.0581 4.74543,5.7239 0.58637,1.8819 3.654,4.733 4.13869,7.6098 1.95026,3.5221 6.09337,5.1396 10.06707,6.0155 1.08152,1.9437 6.59587,4.7987 7.54766,2.3879 1.61693,1.6672 5.35144,0.1648 6.97033,3.1972 1.89973,0.4567 4.28576,0.5329 2.01346,2.6917 -1.82427,-0.5596 -5.08023,-3.3776 -7.30579,-2.9096 -3.80883,0.5644 -7.8034,-1.1258 -11.32125,-1.5467 -3.40717,0.5206 -7.87587,-1.0709 -11.08576,-0.8823 -2.86978,-0.3088 -5.63225,3.4726 -8.78309,1.7645 -3.38707,0.9258 -5.63797,3.6365 -9.72056,2.9097 -2.81806,1.1918 -8.16076,1.3711 -8.47769,0.8128 -1.39218,0.8023 -4.93601,-0.9073 -5.82841,0.8035 -2.90709,0.07 -5.66466,2.5337 -8.81283,1.9863 -3.28375,0.3281 -4.24123,3.4252 -6.87068,5.0442 -4.22683,-2.5151 -4.8712,2.3715 -7.62993,1.4644 -2.22519,1.1073 -3.88507,3.7419 -6.78202,2.7578 -1.87569,1.5017 -2.14307,1.5 -4.1487,0.5122 -3.97407,-0.4709 -4.80139,2.5398 -7.71993,3.7228 -2.9793,-0.3567 -3.90978,0.1436 -6.29277,1.4677 -2.05118,-1.1447 -4.7046,-1.5485 -7.16556,-2.6127 -2.8525,-1.4817 -10.26974,1.0473 -8.92507,-4.0831 -2.49734,-2.5077 -5.59376,2.3209 -7.74221,-1.1514 -3.29171,-0.8001 0.22378,-2.3949 -1.87747,-3.2354 0.53197,-3.8891 -2.72793,-3.7121 -3.28507,-6.9764 -3.0577,-2.6896 -2.41439,-3.9151 -1.94482,-6.8215 -0.46032,-3.2102 -0.14463,-6.3329 -1.10748,-9.232 2.25405,-0.7458 -4.17121,-0.1997 -1.82227,-2.1543 z"
       id="Guadeloupe" />
    <path
       id="Guyane"
       d="m 341.38935,807.02116 c 4.04329,-2.79383 8.08658,-5.58767 12.12987,-8.3815 0.94391,-3.96254 0.67991,-8.14818 2.21007,-11.9373 1.35655,-3.89921 -3.13137,-6.67661 -2.41456,-10.48216 -1.27207,-5.98094 -3.15408,-11.79728 -4.90593,-17.64875 -2.51967,-1.49265 -5.69893,-2.43433 -7.81332,-4.26551 -0.9984,-2.08518 -0.50355,-5.47179 -3.33539,-5.95904 -3.00734,-1.3619 -6.01468,-2.72381 -9.02202,-4.08573 -1.39868,3.37711 -0.17257,7.29476 -0.99678,10.60511 -1.90728,2.84993 -3.88334,0.20544 -3.97794,-2.22359 -1.6774,-4.61359 -2.80832,-9.62831 -4.8208,-13.99593 -3.36373,-2.98192 -8.21011,-3.73081 -11.60217,-6.4699 -1.64237,-1.5331 -0.82052,-5.0009 -3.79301,-5.08764 -1.42367,0.0833 -6.09331,2.51513 -4.91095,-0.15373 2.23572,-1.50139 3.22188,-3.69541 0.12468,-4.348 -1.58338,-1.25534 -1.09953,-5.72178 -3.51736,-4.78181 -2.48382,0.0785 -2.33157,5.96606 -4.24503,3.35246 -0.80805,-4.0038 -4.80595,-6.01001 -7.23904,-8.99634 -2.83079,-2.35169 -5.4941,-5.18183 -8.66377,-6.96847 -2.55134,-0.37923 -4.57332,-1.56509 -5.89902,-3.81193 -1.44183,-2.01918 -2.19916,-4.15068 -4.87968,-4.98291 -5.22462,-3.46388 -10.5197,-6.85014 -15.91955,-10.05874 -0.17344,-2.65195 -1.60857,-4.60453 -3.60674,-6.24501 -5.5441,-5.64134 -11.0882,-11.28268 -16.6323,-16.92402 -1.44413,0.37937 -7.28329,-0.83904 -5.35445,0.76656 3.60729,2.38418 -1.54032,0.49365 -3.16322,0.32411 -2.59683,-0.41332 -5.31641,-1.65004 -7.8399,-1.57146 -2.41805,0.88333 -4.59469,4.07969 -7.26849,2.51247 -3.6869,-1.08963 -7.3295,-2.69073 -11.04311,-3.47198 -2.77635,0.41194 -5.55269,0.82389 -8.32904,1.23583 -1.2462,-2.43366 -3.00803,-4.52715 -5.82253,-5.0535 -9.21758,-3.53584 -18.36057,-7.46347 -27.62457,-10.75547 -2.59807,-0.3189 -5.89704,1.05436 -7.49126,-1.68804 -0.98669,-0.68204 -7.17186,-0.82644 -4.93212,0.20806 4.21966,1.91777 -0.1921,1.36026 -2.48054,1.41167 -1.31018,0.85155 0.49591,4.31846 0.0712,6.24726 0.46558,2.51289 -1.59695,4.21238 0.17078,5.99662 0.27926,3.92536 -4.51702,5.29356 -5.58814,8.74473 -3.00587,3.21913 -5.93567,6.73984 -6.3725,11.30951 -0.37979,2.72938 -3.83312,3.4644 -5.65423,5.21215 -2.82769,2.03883 -5.84137,3.86764 -7.66619,6.91302 -4.17745,5.45644 -9.55843,10.16838 -12.687841,16.30837 -1.36441,5.09054 -2.953151,10.16223 -4.484662,15.16901 0,5.02363 0,10.04728 0,15.07091 2.14847,1.20397 4.886949,1.99288 4.478624,4.9955 0.330601,2.62285 1.216619,5.12431 1.859089,7.679 0.0212,1.96216 -1.592616,4.20954 -2.99496,6.03457 -1.392325,2.1659 0.352676,4.30011 0.164751,6.51648 0.261121,2.813 0.521284,5.58546 0.377002,8.54479 0.375219,1.67994 5.080667,0.92829 4.614997,3.88612 -0.68145,4.02339 0.0967,8.16645 -1.53785,12.01847 -0.96993,2.46602 3.13857,3.17821 4.43334,4.86212 3.2072,1.09657 2.03294,3.55553 1.03051,5.96106 -1.77639,2.51546 -0.36819,4.28867 1.76772,5.89225 3.13625,2.46581 0.68862,7.58005 3.78928,10.21096 2.36244,2.55753 5.75421,4.30327 7.94778,6.91651 -0.16841,3.33053 2.5781,3.20876 5.13857,3.30731 2.53815,-0.0249 2.55235,3.35558 3.6197,4.62319 2.27032,3.77037 4.54064,7.54072 6.81096,11.31109 2.58734,-3.01378 3.33299,-0.36411 4.05713,2.35171 1.24987,2.31392 -2.91623,3.3314 -1.50193,6.15771 0.40329,2.54833 -0.5569,4.53219 -0.57879,6.9045 -0.23429,2.34805 1.00097,5.47536 -1.97615,6.36895 -2.57386,0.69528 -2.41511,3.60359 -1.63604,5.46361 0.69707,2.87134 -0.7428,4.63826 -3.2457,5.85577 -3.17386,2.45671 -6.92783,4.50155 -9.74352,7.21256 -0.97189,2.34491 -1.01695,4.8208 -0.91165,7.31794 3.34486,0.2009 2.09529,3.41937 2.23132,5.7278 0.4369,2.01306 -1.08459,5.94984 0.66452,6.67392 0,4.84963 0,9.69926 0,14.54889 -3.08489,4.4727 -5.00553,9.73688 -8.07154,14.27839 -4.2427,7.02412 -7.82076,14.41814 -11.65562,21.66714 -1.99749,0.52333 -5.956715,-0.87541 -6.644185,0.93146 -0.706653,2.09765 -1.554086,4.00462 -2.350942,6.17279 0.209704,3.73668 -3.196667,1.04964 -5.145778,1.07324 -3.050707,-1.1386 -4.803804,2.23135 -0.856333,1.75696 3.365727,-0.82375 3.227192,2.48046 3.879669,4.85287 -0.01137,2.86389 2.151601,4.22278 4.364881,5.54684 1.836073,1.91622 4.199808,2.1351 6.710778,1.88038 2.41827,-0.0371 5.20183,-0.68084 5.70593,2.46143 0.50518,3.18863 3.62774,1.93101 5.9236,2.07774 2.25678,-0.37594 4.66561,1.58698 6.59659,-0.50385 2.13956,-2.99621 3.51387,-0.17822 5.00422,1.75805 1.31584,2.672 4.67987,1.06431 7.06697,1.49792 1.15852,-2.38504 2.31704,-4.77009 3.47556,-7.15514 1.71606,3.25453 3.65949,-0.59427 5.51772,-1.78137 3.39576,-2.83379 6.38803,-6.09766 9.54167,-9.18952 2.02649,-0.569 5.88562,1.3933 6.22069,-1.51196 0.14937,-3.21484 2.23569,-3.72179 5.0491,-3.21227 3.48889,-0.83962 1.32558,3.33124 1.06453,5.20103 3.44695,0.82992 6.96949,2.48353 10.37086,2.81676 2.2099,-2.22868 4.31307,0.11203 6.44567,1.19334 3.26083,1.40461 7.06919,-0.1914 10.54151,-0.2178 2.28914,-0.43981 5.25965,0.30417 6.21993,-2.44441 1.61715,-1.38662 2.58653,-5.18016 4.63003,-4.98261 2.7543,0.60865 4.26739,2.1582 3.9847,5.06901 1.40282,1.56902 4.26559,2.05322 6.20474,3.22372 0.4888,1.48876 -4.20386,2.83417 -2.89881,5.23646 4.8e-4,2.7996 4.17591,0.0681 6.04765,0.38857 3.23577,-0.32231 6.64413,-1.96546 9.55243,0.21844 2.7444,1.28855 5.44283,2.79203 8.58063,2.24134 2.94028,0 5.88056,0 8.82084,0 2.47954,-3.46524 4.60606,-7.31899 7.30071,-10.54751 5.55335,-3.13475 11.42566,-5.90652 16.7826,-9.26479 2.88368,-4.27641 6.40374,-8.34747 8.89807,-12.74953 0.2259,-4.08132 -0.44863,-8.35812 0.32993,-12.31948 3.3882,-7.43626 6.7764,-14.87251 10.1646,-22.30876 2.66445,0.48854 5.45668,-0.0985 3.30533,-3.17318 1.52477,-4.30549 3.36271,-8.60494 5.00786,-12.90811 -0.75239,-2.23671 -2.76583,-4.44213 -1.08571,-6.73922 1.56228,-4.07671 4.79684,-7.27936 7.08279,-10.97783 3.07429,0.98933 3.93523,-1.57626 4.92965,-3.92745 5.06574,-10.98881 11.24013,-21.4252 16.19421,-32.46118 0.86327,-2.36242 1.72654,-4.72485 2.58981,-7.08729 2.10768,-0.26073 6.306,1.16335 4.39906,-2.33272 -0.89151,-2.49021 0.36364,-4.47837 2.35792,-5.92295 2.05907,-2.04891 4.41346,-3.89907 5.09965,-6.87202 1.77519,-2.06357 4.35596,-3.79347 5.65597,-6.05386 0.80036,-1.65909 -1.42511,-2.11896 -0.47726,-3.28124 z"
       style="fill:#ffffff;fill-opacity:1;stroke:#0053b3;stroke-opacity:1" />
    <path
       style="fill:#ffffff;fill-opacity:1;stroke:#0053b3;stroke-opacity:1"
       d="m 208.20209,538.35455 -1.03042,1.06925 z m 135.37198,22.89691 c 2.82742,1.0845 0.41846,-1.63676 0,0 z m -33.60376,-33.43634 c -0.7912,1.30835 -0.67329,-1.42687 0,0 z m -25.2591,-209.2156 c -1.0927,-0.0603 1.01075,-0.76253 0,0 z m 33.65183,-7.57575 c -0.43351,0.75919 -0.81661,-1.06299 0,0 z m -41.10529,30.23703 c 2.67,-0.89472 -0.30876,2.15033 0,0 z m 35.8089,31.94837 c -0.16279,1.17032 -1.19724,-0.73808 0,0 z m -0.12155,7.29135 c -0.48543,1.13476 -0.48894,-1.33432 0,0 z m 0.51144,-91.17563 c -1.3625,0.97856 0.51869,-1.39078 0,0 z m 20.81595,85.51047 c 0.35315,2.05952 -1.69333,-1.77155 0,0 z M 82.308914,265.36255 c -0.518211,0.75097 -0.126867,-0.89547 0,0 z m 2.091232,1.25171 -0.168228,-0.0243 z m 106.976024,-2.99082 -0.17124,0.10019 z M 300.3396,373.75452 c 0.66989,-0.64104 0.22913,1.02909 0,0 z m -119.32835,96.43795 c -3.51574,-0.607 2.9267,-2.39701 0,0 z m 28.89218,-0.46826 c 0.96188,0.28168 -0.0608,-0.82061 0,0 z m -1.29372,0.47998 c -0.25644,0.8015 -0.55395,-0.54822 0,0 z m 22.45903,-4.6886 c 0.93467,-1.42922 -1.87538,0.32056 0,0 z m -9.7836,-0.40115 c -8.59828,2.28687 5.27568,3.84185 0,0 z M 164.87297,436.7226 c -0.29651,3.08825 3.73269,-0.90877 0,0 z m 92.17799,-124.81189 c -0.81897,3.68019 3.63215,0.67044 0,0 z m -17.32972,-9.90769 c 0.20804,4.13649 4.62062,-0.69251 0,0 z m 70.79243,80.22162 c -1.04099,3.34318 4.03569,0.0965 0,0 z m -0.36709,-12.19525 c -0.94856,5.48167 3.85791,1.11945 0,0 z m -11.61564,1.33441 c -0.93571,4.45811 5.0003,-0.85578 0,0 z m -5.34701,-0.38187 c -4.10097,3.99887 3.22444,2.52174 0,0 z m 7.7446,-6.09765 c 1.87617,8.38731 19.5757,1.35861 5.14715,0.56609 l -2.56099,0.11735 z m 22.48941,61.16687 c -2.39285,3.73097 4.05817,0.54313 0,0 z m 7.74457,-4.95447 c -12.41065,3.27518 7.01183,6.89771 0,0 z m 3.31912,-9.14645 c -5.60331,4.38624 4.23542,3.80921 0,0 z m -3.68875,-0.95252 c -5.03209,4.82384 4.0613,2.08053 0,0 z m -4.05582,4.95447 c -9.03518,2.10109 1.35191,5.55583 0,0 z m -19.72476,-8.95642 c -3.26035,7.86163 8.41149,0.7979 0,0 z m 35.58102,44.39902 c -7.83603,2.76193 3.62492,4.24662 0,0 z m -21.94006,121.95184 c -2.76413,5.83261 4.79131,1.76685 0,0 z m 24.70471,-18.10224 c -4.75472,3.41432 3.24647,2.28564 0,0 z m 1.84311,-8.76519 c -4.16199,4.84095 7.9081,0.2949 0,0 z M 233.08556,520.37427 c 7.56846,8.96727 5.54651,-8.60228 9.49777,-2.6314 5.64176,-12.34018 4.66895,10.99787 11.55075,1.28283 11.58628,6.55831 24.91074,6.54586 36.58987,3.02464 1.63228,9.87457 13.32535,17.84657 17.41924,4.72853 4.53221,-4.55248 7.26103,-6.7648 8.95386,-3.98651 5.62112,-3.89082 -1.56281,5.73272 5.46643,0.85829 2.44073,7.76383 -7.16032,5.9931 -7.80527,11.10763 -9.26214,-3.43645 2.14362,12.94341 -7.59604,16.42557 -4.0155,8.54777 8.62986,24.31091 20.66258,19.46186 -0.10028,-6.47651 13.89771,-10.83252 10.84688,-13.09356 -6.83985,-5.17451 -3.90325,-9.00635 2.82375,-4.35731 6.76657,-7.68215 10.92652,-25.98584 17.22417,-26.21339 -5.01124,-3.03716 -9.91561,-11.77949 -2.27428,-9.18138 7.33316,-11.22706 -11.92204,-14.64447 -5.67163,-26.22598 -11.58079,2.58911 -8.46188,-7.28695 -0.43481,-8.96023 2.98423,-7.54706 -13.14851,-4.09959 -1.93621,-8.17146 -6.58184,-7.12548 -8.89644,-10.58774 -2.37956,-18.97222 3.90875,-7.97792 -15.22723,10.96929 -7.06099,-1.29864 -9.61539,5.81457 2.6246,-7.9546 -6.27224,-1.74975 -7.97089,-4.68286 12.03242,-7.08365 -0.95486,-7.56798 6.19364,-3.94898 -1.47293,-11.71405 -6.78123,-6.92666 -10.78899,-0.42125 -0.83299,-11.60674 -10.65899,-15.18957 14.56754,-9.69906 -25.55889,1.3477 -9.474,-12.60082 -3.56989,-6.24701 6.90413,-8.42753 -3.12895,-8.50303 -14.35606,-4.9122 19.77702,-5.57418 6.776,-15.83079 -6.33813,8.54999 -12.08401,-4.95537 -19.87686,2.83655 -9.43357,17.47896 -25.81707,-19.83812 -5.93177,-11.21409 -7.32168,-10.49321 19.813,-4.68692 15.42192,-16.47598 -10.9497,7.7286 -4.56157,-15.47754 -14.55735,-4.67824 -12.67474,4.10203 6.15404,-14.29344 -5.88393,-6.46067 -4.36483,5.20047 -10.97827,-9.90529 -2.74436,-10.57985 -12.55903,-9.77806 16.39065,-15.99214 18.38738,-2.06547 4.57145,4.40133 20.1115,0.87617 8.34338,-5.8895 11.59765,-2.98112 -7.04897,-14.48885 7.53967,-14.06859 4.7658,2.2164 5.61541,13.77655 8.04453,1.26796 2.22508,-13.06886 -13.63194,-9.61576 -18.9626,-2.09372 -8.17253,-0.40532 -9.92687,8.94984 -19.6001,4.27999 -11.57666,-1.80864 -12.71477,20.09842 -20.31287,14.09047 -2.60126,-12.30666 -10.52683,-23.43883 -18.1685,-27.90363 -11.49615,-4.04137 -3.4896,-24.64267 -17.11749,-18.17433 -5.04922,-12.86269 -14.73346,-20.51622 -27.63801,-18.8063 -13.04278,-8.32724 -25.5522,-18.64975 -40.14031,-24.38893 -14.06036,-5.90937 -32.40651,-7.71264 -45.43176,1.03005 -15.19676,3.64411 -23.652106,16.80461 -27.987161,31.11281 -2.736676,17.79025 11.276667,28.39762 21.722871,39.51211 10.08853,8.47313 16.3686,19.46482 8.43682,32.23509 -4.80713,18.48211 14.53125,30.95495 19.55571,47.11342 9.03457,9.18075 19.26463,14.01949 30.55595,20.25748 5.99206,10.18673 12.11153,17.51215 23.36197,14.82925 7.07207,-2.4647 8.70801,7.83526 13.88617,2.31616 1.22903,7.73449 4.96919,-0.8536 8.91546,1.30113 -6.23845,-11.46812 18.59458,-14.6702 8.41327,-3.28781 11.19662,-0.0699 -7.70777,11.46539 6.18444,12.68435 0.9302,3.75257 4.07725,2.50877 2.22987,10.36525 4.32297,5.02944 17.90099,4.95159 9.48419,11.3289 3.21479,2.36906 -12.92021,11.68393 -14.95814,6.63552 -5.13409,3.94538 -12.07921,-2.1845 -14.22361,-4.71253 8.89794,-7.36752 -0.85808,-5.43075 -5.43629,-5.15505 2.1186,-8.70059 -5.10141,-2.77797 -3.77938,1.43906 -7.06536,9.19194 -19.42672,5.90297 -23.94256,18.2404 -5.81399,5.77846 -7.35883,15.31702 4.02919,13.42826 5.03308,4.91578 -8.69865,7.64546 2.69114,11.19106 4.53968,3.93556 -4.88728,15.93311 6.74314,15.67383 7.48391,13.5381 17.36099,6.88706 20.38968,-4.36651 6.7203,-8.5236 17.09893,-2.53013 22.69356,-0.41159 2.26548,-5.75511 3.64324,-2.52869 4.2805,2.13502 z"
       id="Martinique" />
    <path
       id="Reunion"
       d="m 320.77406,1482.3181 c -0.68097,2.6414 2.36763,3.8232 3.65692,5.6936 4.69691,4.8124 7.93338,10.8258 11.97602,16.1762 3.2552,4.248 7.07743,8.0476 10.55614,12.1188 3.80304,1.2906 7.97474,1.7819 11.54295,3.5816 3.36119,2.2555 6.72237,4.511 10.08356,6.7665 1.61737,5.4488 3.54161,10.8539 4.97059,16.3294 0.83837,2.8316 -2.57262,2.6881 -4.34779,3.6898 -2.63069,0.4181 -2.09522,3.7798 -3.11101,5.6993 -2.75525,9.7626 -6.31278,19.2605 -9.69815,28.8152 1.25099,15.1999 2.80369,30.3897 3.86547,45.596 -0.29808,2.0471 -2.85425,3.128 -4.04911,4.7914 -4.14303,4.1138 -8.28605,8.2276 -12.42908,12.3415 -15.10873,1.3343 -30.21746,2.6686 -45.32619,4.0029 -1.19059,2.2259 -2.38118,4.4518 -3.57177,6.6777 -11.20757,0.3087 -22.41514,0.6173 -33.62271,0.926 -2.75005,-2.106 -5.27871,-4.7616 -8.16486,-6.5296 -7.64734,-0.6167 -15.35658,-0.9577 -22.96527,-1.7465 -13.0587,-4.9822 -26.05309,-10.29 -39.15184,-15.0695 -2.60595,0.7727 -3.46695,-1.8289 -4.82215,-3.4748 -1.15376,-2.7578 -4.47646,-2.225 -6.86711,-3.1062 -3.70058,-1.0374 -7.80717,-1.4984 -11.25304,-2.8972 -2.38658,-3.4947 -4.47104,-7.3048 -7.04665,-10.6021 -3.85091,-2.0502 -7.41516,-4.7772 -11.44615,-6.4022 -6.85099,-1.8986 -13.70198,-3.7973 -20.55297,-5.6959 -1.92196,-3.2795 -3.9347,-6.5217 -4.52939,-10.3452 -0.28561,-2.7953 -3.26569,-3.9971 -5.16691,-5.6752 -4.02479,-2.388 -8.04959,-4.7759 -12.07439,-7.1639 -1.61606,-4.5978 -2.70427,-9.4586 -4.64708,-13.8935 -2.10303,-1.7396 -1.63715,-3.6721 -0.17861,-5.6793 0.93703,-2.2526 2.6232,-4.4389 3.11851,-6.7306 -1.29022,-4.3227 -2.58045,-8.6455 -3.87068,-12.9682 -2.058065,-1.9468 -5.414344,-2.9881 -5.692546,-6.1765 -2.009224,-5.4367 -4.97517,-10.4947 -7.370214,-15.7787 -5.747734,-5.9785 -11.495468,-11.957 -17.243202,-17.9355 0.08522,-4.3644 0.171798,-8.7287 0.257224,-13.093 -0.833482,-1.7369 -3.662915,-3.2714 -3.230355,-5.1365 1.06768,-2.7281 2.719452,-5.0254 5.025898,-6.8399 1.737363,-1.4271 3.199955,-3.5565 5.103753,-4.5583 2.236225,-0.1179 4.694442,0.4112 6.797687,-0.095 3.379211,-2.9336 7.236456,-5.45 10.309782,-8.6506 2.066062,-2.857 3.3733,-6.0451 4.104844,-9.4844 0.608969,-2.0718 1.607119,-4.1549 0.27274,-6.1707 -0.641821,-2.562 -2.289202,-5.0726 -2.272152,-7.6683 1.387406,-5.8273 2.774811,-11.6545 4.162221,-17.4818 5.09481,1.0705 10.18963,2.141 15.28444,3.2115 8.9874,-6.4656 18.24826,-12.5999 27.06432,-19.2732 3.81122,-3.4686 7.08749,-7.651 11.90725,-9.7741 3.34272,-1.5142 7.26537,-1.4194 10.84026,-2.2895 4.73573,-0.7782 9.57316,-0.6693 14.33551,-1.271 2.48868,2.0872 4.72569,4.7991 7.37168,6.4959 8.3422,0.3773 16.71578,-0.066 25.04164,0.2283 4.09394,0.056 7.62837,2.2125 11.40273,3.4173 10.4514,0.7288 20.90281,1.4576 31.35423,2.1864 1.97313,2.0011 3.61624,4.6051 5.78622,6.2466 5.86306,0.8936 11.72611,1.7873 17.58917,2.6809 6.07227,6.4153 12.52547,12.4976 17.73748,19.6651 2.02196,2.3132 4.7585,4.348 6.34401,6.8313 -0.21624,6.5804 -0.43248,13.1608 -0.64871,19.7412 2.70782,4.3447 4.58418,9.3126 8.57368,12.6965 2.94083,3.2667 6.42647,6.2719 9.03214,9.6995 0.0801,1.1453 0.58969,2.3051 -0.11898,3.3505 z"
       style="fill:#ffffff;fill-opacity:1;stroke:#0053b3;stroke-opacity:1" />
  </g>
  <g
     transform="translate(100.66762,-660.19958)"
     id="g1062">
    <path
       d="m 134.00307,665.83995 -3.34514,1.56753 -5.02582,0.80802 -0.17775,0.0324 h -0.0324 l -0.29089,0.0484 v 0.0162 l -5.36516,1.01809 -4.57332,3.50675 v 13.70378 l -0.0162,0.21009 -0.0324,0.3232 -0.25857,3.26434 2.2301,2.02003 v 0.69488 l -2.60177,-1.55137 -3.29667,4.04003 -0.21008,0.25856 -0.50097,0.61408 -4.31475,3.31284 -7.659898,1.92305 -5.074277,1.82609 -4.137,2.2301 -2.472496,3.68451 -0.549457,2.97347 2.10083,1.58369 2.181616,0.46864 -2.020027,0.35552 -3.878424,2.24626 -4.266273,1.68065 -3.377467,-1.89073 -8.290143,-1.22817 -1.955375,-1.01808 -2.876503,0.74336 -0.937292,0.22625 -0.09696,-2.27859 -2.601784,-3.08658 0.727209,-1.84227 h 1.228169 l -1.098889,-3.03809 -4.508675,-0.21008 -2.278581,1.58368 -2.537144,-1.66448 -3.926902,-1.16354 -0.500971,1.24434 2.165454,1.74529 v 2.10081 l -0.856481,1.06658 0.614081,0.61408 0.226246,0.1616 -0.193921,1.87458 0.727208,1.64833 2.327059,2.6341 0.4848,2.27857 0.500962,0.72721 v 3.58756 l 1.212008,2.47249 v 2.74722 l -1.325127,2.65026 1.470571,3.78147 2.197778,0.48481 0.161598,0.80801 -0.969609,0.43632 h -2.068498 v 7.6e-4 h -4.718644 l -1.632176,-1.00295 1.276648,-1.72913 -2.795696,-0.11312 -1.066566,1.21201 v 0.0161 l -0.533286,0.59793 -1.987703,-0.21007 -0.210076,1.1312 -0.921129,0.0808 -0.09697,-1.35745 -1.228161,-0.37169 -0.500963,0.58177 v -1.92305 l -1.405938,1.0504 -1.858413,-0.30703 -0.646406,1.26048 -3.765314,2.05233 v 0.95346 h -0.500963 v -1.77762 l -2.100817,-0.98576 0.193926,-1.80995 -1.923056,-1.40593 v -1.76145 l -1.405935,-0.30704 0.09696,-1.63217 -1.098884,-0.097 0.09696,-1.13121 h -2.294734 l -0.226244,0.69489 -0.500962,-1.19585 -1.050409,0.80801 -2.327059,0.29088 -0.468645,0.6464 -1.583696,-1.17969 -2.343218,1.56754 0.840331,1.13121 -1.260492,1.72913 -1.64833,-0.95345 -3.0219494,0.097 v 2.02 h -0.53331 l -0.193918,-0.93729 -1.195851,0.19393 -0.2262429,-2.50483 -1.2604924,1.38977 -1.1473676,-0.48479 -2.3593775,0.22623 -0.4040033,1.01809 -1.082733,0.25856 -0.19391933,-1.09889 -2.60177837,0.33937 v 0.69488 l -1.4059359,0.0808 -0.7433643,-0.51712 -0.9696071,0.48479 -0.1939184,1.16355 -2.6664207,0.097 -1.5675375,1.89072 1.1796921,0.88881 -1.5675365,1.27665 0.5494459,0.96961 -0.4201622,2.32706 1.8422562,0.22624 0.5494459,-0.53329 0.2424018,0.33937 3.9269063,-0.51712 0.7918477,-0.54945 -0.6787219,0.6464 0.2585606,1.27666 1.89073192,-0.84033 -0.37167882,1.27665 2.2624174,0.11312 -0.048479,0.27473 -2.2624184,-0.0808 -1.8907318,-0.4848 -2.4401845,-1.16352 -1.6321721,1.87457 1.9230573,0.6464 -0.1131181,2.94114 0.7756812,-0.61408 1.066574,-1.63217 1.987691,1.14737 0.96960817,0.21008 0.3716864,1.45441 -0.54944684,0.95344 -1.21200993,-0.0808 h -1.2443258 l -2.0038566,0.30704 -3.5067528,0.19391 -0.8403235,1.11505 1.195851,0.71106 1.0988832,-0.097 0.9049658,0.80801 1.2928179,-0.097 2.0523334,2.34323 0.4848035,2.52098 -0.7756887,1.55137 2.34321855,0.45249 2.42401895,-0.11312 0.5817704,-1.06657 -0.5979293,-0.82417 0.3878453,0.17775 0.9211238,-0.0969 1.6160209,0.90496 1.1958424,-0.22624 v -0.50097 l 0.096968,0.42017 1.3574439,2.2301 3.0542656,0.21008 0.06463,-0.37168 0.517121,0.74336 1.826097,0.32321 h 1.228169 l 0.01615,0.0162 1.179686,1.89074 1.777613,0.43632 0.145443,-0.19393 -0.09696,0.30705 1.502887,0.66256 1.79378,1.76145 0.565605,1.05041 -0.420169,2.68259 1.405936,1.03425 0.791846,-0.90497 -0.662563,-0.87265 v -1.55137 l 1.163526,0.27472 0.323202,-0.9696 0.145444,0.33936 1.486728,1.2928 0.75953,-1.24434 -0.09697,-0.19391 0.339369,0.46865 0.0808,-0.0161 -0.969607,1.22818 1.357445,0.45248 0.93729,1.43825 5.526767,-0.50096 1.082726,0.24239 -0.517122,0.43633 0.110091,1.03829 -0.06162,0.0121 0.662563,0.45249 -1.890732,1.69681 0.500963,0.50095 0.355527,0.71106 -1.066575,1.48672 1.260494,0.67873 2.116974,0.45249 0.145444,-0.6464 0.969608,1.22816 h 1.971541 l 1.308973,-1.42209 h 0.985762 l -1.308965,0.66256 0.09696,1.11506 0.371681,0.85648 -0.985771,1.00193 h -1.325126 l 0.258561,1.85842 2.294744,-0.42017 2.472495,2.26242 -0.03233,0.0484 -0.113126,0.14545 -2.941142,3.78146 -0.09696,2.53714 3.1189,3.02195 -0.113118,1.00192 h 0.969608 l 1.906891,5.72069 2.052335,1.01809 2.052344,2.05234 h 2.278572 l 0.904968,2.02001 h 2.246257 l 0.98577,1.48673 2.472504,1.22817 0.09696,-1.32512 0.182814,0.17472 -0.0053,0.003 0.157567,0.14443 0.06867,0.0657 0.0026,-7.5e-4 0.531271,0.4858 -1.519057,1.22817 -0.177759,0.96961 -1.325135,0.1616 -0.79184,-0.88881 -1.971533,-0.17776 -0.210084,-0.9696 -1.325135,-0.88881 -1.971532,0.71105 1.276648,1.84225 h 1.438254 l 1.373606,0.87265 1.163538,0.93728 2.068488,-0.0969 0.387844,0.8888 1.405938,0.30705 0.500962,1.38977 0.872652,0.37168 -0.08077,0.84033 -1.147376,-0.17776 -0.517124,0.75952 0.921129,1.3413 -0.452484,2.03617 -1.244332,-0.097 -0.323203,-0.69489 -0.484799,-0.42017 -0.210084,-2.48865 -1.777611,-0.22624 -1.616013,-1.97154 -0.2424,4.02388 2.327059,1.72912 0.193922,1.85842 0.403996,2.19779 0.226247,2.39168 1.308964,-0.12926 2.08466,1.71296 1.341298,0.75952 0.113119,1.05042 1.179692,0.21008 3.167379,3.16737 0.711046,3.26436 0.06463,0.30704 h 0.01613 l 0.808013,3.42595 0.193924,2.87651 -0.274728,0.43631 -0.420155,-2.05233 -1.438254,-5.59141 -5.138931,-4.63795 0.129289,-2.18162 -1.260495,-0.12928 -1.696816,2.53715 -0.500962,8.51637 -1.308964,8.58104 -0.921131,6.67412 -0.09696,1.72915 0.307049,0.0484 0.694884,-2.29474 1.292811,-1.68065 1.858413,1.69681 0.210076,0.56561 0.43633,0.61407 -2.133138,0.097 -0.436321,-0.6464 -1.195855,0.4848 -0.226237,1.56753 -1.115043,1.51905 v 2.34322 l -0.0162,0.0646 -1.793773,9.61525 -2.32706,8.88807 -0.711046,3.44208 -0.581765,2.40786 -1.422083,2.44018 -0.06465,0.11312 -0.09696,0.1455 -0.323203,0.58171 -2.294743,2.79575 -1.745295,0.69489 -1.438246,0.21007 v 1.32522 l 1.308974,1.19574 1.729124,0.0808 0.09697,1.309 1.664483,0.12927 0.387843,-0.87264 1.793773,0.75953 1.131213,0.27478 0.2424,1.03431 -0.678721,0.59778 v 1.87463 l -1.405939,0.71105 -0.113118,1.06662 0.969608,1.09886 1.826098,0.56563 0.339364,-1.64833 0.565603,-0.63026 -0.06465,0.90496 0.791849,1.13118 h 1.809926 l 0.79185,1.08277 2.45634,0.40397 2.343222,1.43827 H 63.1895 l 0.210084,2.03621 2.634098,2.05229 1.098893,1.29284 1.212004,-0.64642 0.90497,-0.17774 0.517122,0.51715 2.538155,-1.39085 -7.58e-4,0.0174 0.249471,-0.15351 0.07366,-0.0401 v -0.008 l 0.09697,-0.0596 1.632158,0.96959 1.971548,1.48674 0.193914,1.19589 1.69681,1.38971 h 1.389775 l 3.280509,-1.38971 1.35745,1.56753 2.084658,0.54947 0.711036,-1.17973 0.775686,0.33942 1.858428,0.12926 4.411709,0.30701 0.210074,-4.96114 1.212014,0.17774 1.858408,1.09887 0.743371,0.42019 3.199703,0.61411 h 1.24433 l 1.71298,2.23003 4.33091,-0.21006 1.7453,2.76335 1.59985,-0.64634 4.28243,0.59794 0.29089,1.59978 0.0484,0.30709 0.1616,0.95343 1.55137,1.45444 2.97347,0.82416 0.0969,1.76143 1.72914,1.51906 1.3413,-0.24237 1.72912,-2.11701 2.02003,-0.38788 3.26433,1.09894 2.92499,2.5048 0.85648,-1.0827 h 0.58177 l 0.74337,0.53331 0.77568,-0.37172 0.097,-1.40596 2.97345,-0.69489 1.00194,-1.30891 1.45441,-0.48484 h 2.02001 l 1.32514,1.40595 1.84225,0.12927 v -1.84223 l -0.85649,-1.17973 -1.3736,-0.59794 -0.21009,-8.46788 -0.0969,-3.13507 0.12927,-3.50673 -1.30897,0.0969 -0.90496,-1.34131 0.66256,-1.06654 1.6645,1.56753 1.63217,-1.30899 1.06657,-1.03423 0.11312,-0.98575 0.0808,-0.58178 3.6037,-1.1151 0.38785,-0.87264 2.81186,-0.097 0.92111,-1.14734 5.44598,-4.34712 3.39363,-2.39163 0.95344,0.0649 1.77762,0.12928 v 2.03614 l 2.45634,-0.11311 1.01808,0.0483 v 0 l 3.42595,0.16159 4.18547,0.30702 0.50097,0.50099 h -1.22817 l -1.14737,1.97149 4.55717,0.95344 3.78145,-0.6625 -1.92304,-1.80992 1.00192,-0.84039 1.79377,0.75953 0.90498,1.95542 5.89844,0.0969 1.38977,-0.56563 0.21007,0.66258 -1.82608,1.59985 2.40785,0.097 -0.32319,0.79185 -0.80801,0.95343 h 5.25204 l 2.35938,0.7757 0.17776,0.24245 0.3232,0.45244 1.79378,0.79185 0.50096,2.05237 1.27666,0.22622 1.06657,-0.74337 1.76145,-1.08278 2.92498,0.29093 -0.0646,0.56563 -0.95346,0.4686 0.0646,0.29085 2.81186,0.12934 -0.82416,-0.85754 -0.19392,-1.16349 1.16353,-0.808 1.4544,0.46867 0.56561,0.1939 0.56561,0.67874 0.8888,-0.6141 0.19392,-1.34132 0.71105,-0.6141 h 2.1493 l 0.59792,-0.90496 1.3413,0.40404 1.76144,-0.75953 v -2.90885 l -1.68064,0.0808 1.11504,-0.6949 0.84033,-1.14732 0.22624,-1.56754 2.8765,-0.40404 1.55138,-1.72913 v -0.0151 l 0.097,-0.097 0.11312,-0.12927 0.0161,-0.0325 0.097,-2.18157 1.93921,0.38781 0.71105,-0.92112 1.09889,0.22622 0.097,-3.18355 2.24626,-0.17774 2.00385,-1.82608 h 1.89073 l 0.11312,-1.17972 1.87458,-1.13119 -1.03425,-2.34322 1.5029,-1.29285 -0.29088,-1.47051 2.18161,-0.69489 0.63024,-2.32707 -0.30704,-1.55137 -0.51712,-0.93728 -0.43633,-1.43826 -1.63217,0.12926 -4.76724,1.71297 h -1.43825 l -2.56947,-2.08462 -2.69873,-0.74343 h -1.40593 V 862.7 l -2.11698,-1.30897 v -1.79377 l 1.63217,-0.22625 -1.06657,-0.93728 -1.00192,-0.30704 -0.45249,-1.17969 0.37168,-0.82417 1.84226,-1.97154 -0.29088,-1.4221 0.1616,-0.16159 0.0324,-0.0323 0.24241,-0.25858 0.67873,-0.74336 1.17968,0.11313 v -1.1797 l -1.40593,-0.71105 -0.30704,-2.94114 -1.24433,-0.45248 -1.40593,0.21009 -2.50483,-1.26051 -0.42016,-3.0381 -1.53521,-0.50096 -0.48479,-0.96961 -0.54946,-1.21403 0.0161,7.6e-4 -0.0808,-0.1616 2.7957,-1.11506 1.08271,0.69489 h 1.29282 l 0.11312,-1.27665 1.22818,-0.66256 0.51711,-0.61409 2.68259,-1.03424 0.33935,-1.85842 -0.50096,-0.77569 1.47057,-2.50482 -1.42208,-0.53328 -0.38785,-1.40593 -2.7149,-1.59985 c 0.0269,-0.58022 0.13355,-3.04341 -0.11311,-3.63603 l 0.19391,-0.1616 h -0.48481 c -0.33405,0.0837 -1.48245,0.17012 -1.79376,0.19391 l -1.43826,-1.616 0.0484,-1.7453 0.0484,-1.51905 3.40979,-1.42209 0.43632,-1.08273 -0.21007,-2.32706 -2.34323,-2.44017 -0.58177,0.33935 v -2.26242 l -1.93921,-0.92113 -0.0646,-0.66256 1.09889,-1.19585 v -1.53521 l -1.82609,-1.92305 -0.097,-1.38978 h -3.61986 l -2.34323,0.404 -2.13313,1.72915 -0.54944,-0.84034 -1.30897,0.11313 -1.05041,2.31089 -0.0162,0.0485 0.12928,1.00193 0.98578,0.80801 -1.87458,1.22818 -1.26049,1.17969 h -2.21394 -0.0161 -0.88881 v -1.68066 l 1.11504,-0.6464 1.89074,-0.21009 0.14545,-1.22817 -0.54946,-0.37168 1.47057,-1.85842 -0.25855,-0.72721 -1.87358,-1.00899 0.17676,-1.96447 1.63217,-1.9392 -1.09888,-0.43633 0.0808,-0.53329 6.22164,-5.83381 0.0484,-0.0485 -0.19391,-4.81572 2.11697,-1.05042 1.51905,-0.71104 1.48674,-1.37361 0.11312,-1.89073 1.32513,-0.67873 3.34514,-3.8461 -0.48481,-1.16354 0.98578,-0.43632 1.45441,-1.76145 -0.87265,-0.87266 -2.35938,0.48481 -0.0324,-0.17776 2.3109,-2.66642 h -0.0162 l 0.22624,-0.25856 1.13122,-0.17776 v 7.5e-4 l 1.1312,-0.17776 -0.19392,0.9696 0.82416,0.71104 3.84612,-0.0969 2.02002,-1.59986 0.0969,-2.24626 1.06657,-1.3736 -1.38977,-1.59987 -0.6464,-1.50288 0.77568,-1.08274 v -2.55329 l 0.50097,-1.17969 v -2.03618 l 0.93728,-1.35745 -1.03425,-1.45441 -0.0808,-2.61795 -0.0161,-0.22624 v -0.11311 l -0.0162,-0.17776 2.61794,-5.12277 0.0324,-0.0484 -0.3232,-2.94114 1.21201,-3.94307 0.30704,-3.36131 2.61794,-1.92305 v -1.22817 l 0.93729,-1.22817 h 0.80801 l 1.00192,-1.00193 -0.21008,-1.74529 0.87265,-2.3109 1.63217,-0.37169 -1.69681,-1.34128 -2.53715,-0.29089 -2.27857,-1.14737 -1.47058,0.88881 -0.77568,-0.85648 h -1.16353 l -1.59985,0.43632 v -0.0162 l -0.29089,0.0808 -0.14543,0.0484 -0.0324,0.0161 -0.63024,-0.90497 -2.03619,-1.24434 -0.74336,-1.16353 -2.56945,0.22625 -1.42209,1.30896 -3.31284,0.097 -0.95345,-0.66256 c -0.12876,-0.22908 -0.60568,-1.02895 -1.0504,-1.27665 -0.0202,-0.0109 -0.0367,-0.0381 -0.0646,-0.0484 -0.0196,-0.01 -0.0475,-0.008 -0.0646,-0.0161 l -0.097,-0.0161 v 0.14543 l -0.0484,-0.14543 c -0.35682,0 -1.08595,-0.38216 -1.4221,-0.58177 l -0.0646,-0.0324 -1.5837,0.66256 -0.0969,1.1797 -1.48675,0.17776 -0.98575,-1.87457 -0.56561,-0.19394 v -1.40592 l -1.42209,-0.61408 -0.097,-2.39171 -1.06656,-1.03424 -2.1493,-1.0504 -1.11504,-0.0162 -0.30705,0.21008 h -0.92113 l -1.40593,-1.212 -1.63217,0.0959 -1.26049,1.05039 -0.29089,0.46865 h -1.55136 l -0.59793,-0.61408 h -0.17776 -1.43825 l -1.82611,-2.02002 h -2.45632 l -1.21201,1.11506 -1.72914,0.097 -0.59792,0.61407 h -0.19393 -0.22624 l -0.38785,-1.84225 -0.87263,-0.87264 -0.40401,-0.0646 -0.3232,-0.0484 -0.51713,-0.0808 -0.40399,-1.97154 -0.88882,-0.67872 -2.77954,-0.30706 -0.4848,-1.26048 -0.95345,-0.63024 -3.18355,-0.40401 -0.17776,-2.13314 0.40401,-0.404 v -1.0504 l -1.58369,-1.00193 0.25855,-0.98577 0.45249,-1.11505 -0.66256,-0.5656 1.03424,-0.9373 v -1.97153 l -0.50096,-0.35553 h -1.64833 l -1.05042,1.55138 -0.95344,0.95344 v 2.10082 l -1.13122,0.75953 -2.19776,0.69488 -1.13121,0.46864 -1.38978,-1.08272 h -1.79378 -1.72913 -0.53329 l -0.0646,-0.77568 2.02002,-1.21201 -0.33936,-2.11698 -1.76146,-0.46864 0.35553,-0.37169 v -1.38977 l 1.56753,-1.14737 -0.46864,-0.92112 -3.31283,-2.60179 -5.80148,0.30704 -0.59793,1.00193 h -0.46864 l 0.097,-3.44211 -1.71298,-2.02001 -1.212,0.19392 -0.72721,-0.82416 -2.02003,0.90497 -0.66255,-0.66257 -1.37362,-0.19392 -0.37167,-1.19586 -0.097,-4.12082 -0.92113,-0.40401 -0.11312,-0.66257 h -0.59792 l -0.21008,-1.22817 -1.48674,0.12928 -2.56945,0.82417 -1.19586,1.48673 h -1.06656 l -0.74337,-0.92112 -0.29088,-1.08273 -1.08274,-1.22818 h -1.40593 l -0.53328,-0.98576 v -1.64832 l 0.71104,-1.11506 -0.43631,-1.61602 z m -106.656845,99.40095 0.953442,0.22625 0.904972,1.08273 -0.387843,0.61408 -1.163533,-0.35553 -1.551372,-0.7272 1.486737,-0.22623 z m 30.688079,52.76283 0.09697,1.47057 0.177768,0.33937 h -1.018095 l -0.145444,-0.63025 z m 203.630756,78.40895 -1.68066,1.13124 0.22625,1.09886 0.74336,0.95344 -0.8888,0.67873 0.21008,0.42012 0.21008,0.42021 -0.58176,0.66257 v 1.03423 l 1.01809,0.92112 v 1.309 l -0.58176,1.2282 -0.51713,0.22622 -0.30705,-0.40404 -0.4848,-0.67873 -1.45441,0.11318 -0.30705,-0.21013 h -1.30896 l -1.1797,1.09894 -0.40399,1.66448 -2.56947,0.48484 -2.08465,1.76136 -0.37168,1.05046 -0.82417,-0.0808 -0.69488,-0.82417 -0.32321,1.97151 -0.72721,0.29093 -0.22624,1.74528 0.27472,0.64643 -1.0504,0.75944 -0.27472,0.74337 h -0.85649 v 1.35748 l 1.08272,0.75954 1.6645,0.96959 0.0808,0.59794 -0.87264,0.2747 -1.7453,0.32325 v 0.88879 l 0.59793,0.61403 0.11312,2.06854 2.32706,0.74337 0.74336,0.17774 0.63024,0.98575 -0.42015,0.58178 -0.808,0.29086 -0.63026,1.14741 -0.64641,0.75954 0.32321,2.02005 1.59986,-0.097 0.43631,0.32325 1.4221,-0.6949 0.2424,0.24238 -0.71104,1.51906 0.66256,0.66259 -1.09889,0.82416 -0.90496,2.01998 2.42401,0.56556 2.82804,0.25869 -1.05042,1.21196 c -0.21254,-0.0718 -0.6464,-0.18309 -0.90497,-0.0648 -0.0156,0.009 -0.03,0.009 -0.0646,0.0315 -0.004,0.009 -0.0211,0.0193 -0.0484,0.0482 -0.01,0.009 -0.0345,0.0254 -0.0484,0.0482 l -0.0324,0.0648 c -7.6e-4,0 0,0.0149 0,0.0158 v 0.0158 c -0.007,0.0131 -0.011,0.035 -0.0161,0.0648 v 0.0482 c 0,0.37957 -0.48997,1.31953 -0.67873,1.64829 l -0.0646,0.0971 1.08272,1.17963 1.85842,1.14739 3.45827,0.92112 0.98577,0.40402 0.77568,0.32316 -0.66256,1.22824 1.7776,-0.11317 0.30706,0.69493 h 1.84224 l 0.46865,-2.19781 -0.90497,-0.17783 1.34129,-1.40591 -0.5656,-0.56555 0.0808,-0.75958 1.82609,-1.00189 0.12928,-1.35746 -1.43826,-0.11309 -0.59792,0.5171 v -0.5171 l 1.56753,-0.097 0.53329,-1.2928 0.42016,-3.58754 v -0.0325 l -0.30704,-1.50283 -0.0324,-1.37363 -0.0646,-3.02196 2.42401,-3.42594 v -5.70451 l -0.0484,-0.0808 -0.95345,-1.89078 -0.30705,-6.06001 -0.72719,-1.14742 -1.29282,-1.00191 -0.21007,-3.65221 0.63024,-1.72906 -0.82417,-2.76343 -0.50096,-2.21396 -0.45249,-0.67865 z"
       style="fill:#ffffff;fill-opacity:1;stroke:#ffffff;stroke-width:2.0685;stroke-miterlimit:4;stroke-dasharray:none;stroke-opacity:1"
       id="path386" />
  </g>
</svg>
