<?xml version="1.0" encoding="UTF-8" standalone="no"?>
<svg
   xmlns:dc="http://purl.org/dc/elements/1.1/"
   xmlns:cc="http://creativecommons.org/ns#"
   xmlns:rdf="http://www.w3.org/1999/02/22-rdf-syntax-ns#"
   xmlns:svg="http://www.w3.org/2000/svg"
   xmlns="http://www.w3.org/2000/svg"
   xmlns:sodipodi="http://sodipodi.sourceforge.net/DTD/sodipodi-0.dtd"
   xmlns:inkscape="http://www.inkscape.org/namespaces/inkscape"
   version="1.1"
   id="_x37_47ad91c-18bb-4936-b655-cddf352f94cc"
   x="0"
   y="0"
   viewBox="-1942 2500 1029.7 340.4"
   xml:space="preserve"
   inkscape:version="0.91 r13725"
   sodipodi:docname="intro.svg"><metadata
     id="metadata93"><rdf:RDF><cc:Work
         rdf:about=""><dc:format>image/svg+xml</dc:format><dc:type
           rdf:resource="http://purl.org/dc/dcmitype/StillImage" /></cc:Work></rdf:RDF></metadata><defs
     id="defs91" /><sodipodi:namedview
     pagecolor="#ffffff"
     bordercolor="#666666"
     borderopacity="1"
     objecttolerance="10"
     gridtolerance="10"
     guidetolerance="10"
     inkscape:pageopacity="0"
     inkscape:pageshadow="2"
     inkscape:window-width="1215"
     inkscape:window-height="1000"
     id="namedview89"
     showgrid="false"
     inkscape:zoom="0.90645916"
     inkscape:cx="455.55222"
     inkscape:cy="187.20905"
     inkscape:window-x="65"
     inkscape:window-y="24"
     inkscape:window-maximized="1"
     inkscape:current-layer="_x37_47ad91c-18bb-4936-b655-cddf352f94cc" /><style
     id="style3">.st0{fill:#f0f0f0}.st1{opacity:.5}.st2{fill:#03bd5b}.st4{fill:#fda57d}.st5{enable-background:new}.st5,.st6{opacity:5.000000e-02}.st7{fill:#4d8af0}.st8{fill:#fff}.st11{fill:#3ad29f}.st12{fill:#ff0}</style><path
     id="path78-0-6"
     class="st0"
     d="M-912.3 2500h-381v299.3h381V2500z" /><path
     id="path78-0"
     class="st0"
     d="M-1561.8 2502.3h-381v299.3h381v-299.3z" /><g
     id="g4420"
     transform="translate(-24.526 -24.204)"><g
       id="g18"
       class="st1"><path
         id="path20"
         class="st2"
         d="M-1250.4 2538.3h344.3v267.3h-344.3v-267.3z" /></g><g
       id="g22"
       class="st1"><linearGradient
         id="path31_1_"
         gradientUnits="userSpaceOnUse"
         x1="-1063.622"
         y1="2829.239"
         x2="-927.744"
         y2="2829.239"
         gradientTransform="translate(-83.556 -140.084)"><stop
           offset="0"
           stop-color="gray"
           stop-opacity=".25"
           id="stop12" /><stop
           offset=".54"
           stop-color="gray"
           stop-opacity=".12"
           id="stop14" /><stop
           offset="1"
           stop-color="gray"
           stop-opacity=".1"
           id="stop16" /></linearGradient><path
         id="path31"
         d="M-1013 2722.3c-.2-10.5-4.5-20.6-12-28-6.8-6.6-15.8-14.3-25.7-18.9h-.1c-4.2-2-8.6-3.4-13.2-4V2655c3.4-3 6.1-6.6 8.2-10.6v1.3s15.7-15.8 15.3-34.4c.2-11.2-5.1-23.5-23.2-34-41.8-24.4-57.8 11.1-60.9 19.3-.2.4-.3.8-.4 1.2l-.1.4c-.1.4-.1.8 0 1.2v.7c0 2.7 2.3 5.3 6.3 7.3-11.2 16.8-6.8 39.5 10 50.7 2.6 1.7 5.3 3.1 8.2 4.1v10.5l-.8-1.5s-5.6 3.3-12.8 8.5c-12.1 8.6-28.7 22.2-31.2 33.5-4 18 0 94.2 0 94.2l134.1 2-1.7-87.1zm-110.8-119.9l.1.1-.1-.1zm.5.6l.1.1-.1-.1zm.5.5l.1.1-.1-.1zm4.5 3l.1.1-.1-.1zm-3.9-2.4l.2.1-.2-.1zm.6.5l.2.1-.2-.1zm.8.5l.2.2-.2-.2zm.8.5l.3.2-.3-.2zm.8.5l.3.2-.3-.2z"
         fill="url(#path31_1_)" /></g><path
       id="path33"
       class="st4"
       d="M-1100 2655.6h35.6v52.2h-35.6v-52.2z" /><path
       id="path35"
       class="st5"
       d="M-1098.8 2663.9c3.7 1.3 5.3 2.4 9.5 2.4 8.8 0 17.2-3.2 23.7-9.1v-.4h-33.2v7.1z" /><circle
       id="circle37"
       class="st4"
       cx="-1088.2"
       cy="2629.5"
       r="35.6" /><ellipse
       id="ellipse39"
       cx="-1092.1"
       cy="2601.3"
       rx="31.8"
       ry="12.1" /><path
       id="path41"
       d="M-1085.7 2605.8l29.3 17.8v22s38.2-38.6-7.6-65.3c-45.8-26.7-59.8 20.4-59.8 20.4s12.6 10.2 38.1 5.1z" /><ellipse
       id="ellipse43"
       class="st4"
       cx="-1055.1"
       cy="2629.5"
       rx="3.6"
       ry="5.9" /><g
       id="g45"
       class="st6"><path
         id="path47"
         d="M-1056.4 2623.6l-19.5-11.8c-5.3 1.1-10.7 1.7-16.1 1.7-17.1 0-31-5.1-31.8-11.6v.7c0 6.7 14.2 12.1 31.8 12.1 5.4 0 10.8-.5 16.2-1.7l19.5 11.8-.1-1.2zm0 22.1v1.3s15.2-15.4 14.9-33.5c-.4 17.4-14.9 32.2-14.9 32.2z" /></g><path
       id="path49"
       class="st7"
       d="M-1100.8 2671.8s-38.9 23.4-42.8 40.9c-3.9 17.5 0 91.6 0 91.6l130.4 2-1.7-84.8c-.2-10.3-4.4-20-11.7-27.2-9.7-9.6-24.5-21.3-39.2-22.4l-17.5 33.1-17.5-33.2z" /><path
       id="path51"
       class="st5"
       d="M-1118.8 2711.4s-10.2 53.4-1.3 70m75.1-70s10.2 53.4 1.3 70" /><path
       id="path53"
       class="st8"
       d="M-1101 2672l37-.6-24.2 61.6-12.8-61z" /><path
       id="path55"
       class="st8"
       d="M-1101 2668.1v3.9h36.9l.1-3.9h-37z" /><path
       id="path57"
       d="M-1085.7 2668.1h5.1v5.1h-5.1v-5.1z" /><path
       id="path59"
       class="st7"
       d="M-1101 2672l-7.6 7.6 16.5 28.2-8.9-35.8zm35.6 2.5l6.4 6.4-19.1 25.4 12.7-31.8z" /><path
       id="path61"
       d="M-1101 2672l-7.6 7.6 16.5 28.2-8.9-35.8zm35.6 2.5l6.4 6.4-19.1 25.4 12.7-31.8z"
       opacity=".1"
       fill="#fff" /><path
       id="path63"
       d="M-1083.2 2670.7l-20.3 85.8 12.7 19.1 16.5-19.1-8.9-85.8z" /></g><g
     id="g142"
     transform="matrix(-1 0 0 1 -1197.85 -63.316)"
     class="st1"><path
       id="path144"
       class="st2"
       d="M380.5 2580.5h344.3v267.3H380.5v-267.3z"
       style="fill:#03bd5b;fill-opacity:1" /></g><g
     id="g5008"><g
       id="g146"
       transform="matrix(-1 0 0 1 -1197.85 -63.316)"
       class="st1"><linearGradient
         id="path155_1_"
         gradientUnits="userSpaceOnUse"
         x1="2201.22"
         y1="2895.533"
         x2="2376.52"
         y2="2895.533"
         gradientTransform="matrix(-1 0 0 1 2679.12 -179.196)"><stop
           offset="0"
           stop-color="gray"
           stop-opacity=".25"
           id="stop40" /><stop
           offset=".54"
           stop-color="gray"
           stop-opacity=".12"
           id="stop42" /><stop
           offset="1"
           stop-color="gray"
           stop-opacity=".1"
           id="stop44" /></linearGradient><path
         id="path155"
         d="M584 2747.4l1-.8 1.4-1.1 66.8-49.6-23-91.8v-.3c.2-2.8 1.3-24.5-10.5-20.6-11.4 3.8-7.2 19.8-6.4 22.5l.1.4 14.6 77.2-46.4 27.1-6.4-.7c7.3-10.1 11.2-22.2 11.1-34.7 0-28.8-19.6-52.2-43.8-52.2-24.2 0-43.8 23.3-43.8 52.2 0 21.6 11 40.1 26.7 48l-16.6 8.3v.1c-4.8-1-22.8-.7-15.5 65.6 1.8 16.1-2 32.2-10.8 45.8l-4.6 6.4 114.3.7h.3c.2.1-16-25.9-8.5-102.5z"
         fill="url(#path155_1_)" /></g><path
       id="path157"
       class="st11"
       d="M-1708.8 2668.7s23.6-10.2 16.7 59.8c-1.9 18.7 2.7 37.4 12.9 53.2l1.5 2.2h-21.9l-16.5-17.5 7.3-97.7zm-117.9-125.2v-.3l16.5 1.9-.1.4-14.3 75.7 49.1 28.6-2 36.8-71.6-53.2 22.4-89.9z"
       style="fill:#248c69;fill-opacity:1" /><ellipse
       id="ellipse159"
       class="st12"
       cx="-1740.8"
       cy="2613"
       rx="42.9"
       ry="51.1" /><path
       id="path161"
       class="st4"
       d="M-1731.6 2630.4h-30.7v45h30.7v-45z" /><path
       id="path163"
       class="st11"
       d="M-1740.8 2668.3l8.2-12.3 24.5 12.3v20.3s8.9 15.7 1.7 33.8c2 26.6 7.4 61.4 7.4 61.4l-90.9.7s16.4-26.2 8.2-103.9l2-32.7 18.4-2 20.5 22.4z"
       style="fill:#248c69;fill-opacity:1" /><path
       id="path165"
       class="st5"
       d="M-1779.6 2647.8l-2.1 2.1-2 32.2 2.4 1.8 1.7-36.1zm47-10.2c-3.2 1.1-4.6 2-8.2 2-7.6 0-14.8-2.8-20.5-7.9v-.3h28.6l.1 6.2z" /><circle
       id="circle167"
       class="st4"
       cx="-1741.8"
       cy="2607.9"
       r="30.7" /><ellipse
       id="ellipse169"
       class="st4"
       cx="-1772.5"
       cy="2607.9"
       rx="3.1"
       ry="5.1" /><path
       id="path171"
       class="st5"
       d="M-1714.9 2598.3v1.5h-52.7v1.4h53.4l-.7-2.9z" /><path
       id="path173"
       class="st12"
       d="M-1714.2 2574.2h-53.2v26.6h53.2v-26.6z" /><path
       id="path175"
       class="st4"
       d="M-1816.3 2523.1c11.2 3.7 7.1 19.4 6.3 22.1l-16.5-1.9c-.3-2.8-1.3-24.1 10.2-20.2z" /><g
       id="g177"
       transform="matrix(-1 0 0 1 -1197.85 -63.316)"
       class="st6"><path
         id="path179"
         d="M502.9 2847.1s5.4-34.8 7.4-61.4c-7.2-18 1.7-33.8 1.7-33.8v-20.3l22.9-11.4-.5-.8-24.5 12.3v20.3s-8.9 15.8-1.7 33.8c-2 26.6-7.4 61.4-7.4 61.4l90.9.7-88.8-.8zm41.8-115.5l20.3-22.3-2-.2-19.2 21.1.9 1.4z" /></g><path
       id="path181"
       class="st5"
       d="M-1724.8 2661l-15.7 36.2-28.8-49.4 8-1.1 19.7 19.8 8.8-9.9 8 4.4z" /><path
       id="path183"
       class="st8"
       d="M-1724.8 2659.9l-15.7 36.2-28.8-49.4 8-1.1 19.7 19.8 8.8-9.9 8 4.4z" /></g><path
     id="path78"
     class="st0"
     d="M-1237.5 2541.1h-381v299.3h381v-299.3z" /><g
     style="opacity:0.5"
     class="st1"
     transform="matrix(-1,0,0,1,-1183.841,16.083)"
     id="g80"><path
       style="fill:#03bd5b"
       inkscape:connector-curvature="0"
       d="m 72,2540.7 344.3,0 0,267.3 -344.3,0 0,-267.3 z"
       class="st2"
       id="path82" /></g><g
     id="g4244"><g
       id="g84"
       transform="matrix(-1,0,0,1,-1183.841,16.083)"
       class="st1"
       style="opacity:0.5"><linearGradient
         id="path93_1_"
         gradientUnits="userSpaceOnUse"
         x1="2514.739"
         y1="2783.281"
         x2="2665.939"
         y2="2783.281"
         gradientTransform="matrix(-1,0,0,1,2693.13,-99.797)"><stop
           offset="0"
           stop-color="gray"
           stop-opacity=".25"
           id="stop67" /><stop
           offset=".54"
           stop-color="gray"
           stop-opacity=".12"
           id="stop69" /><stop
           offset="1"
           stop-color="gray"
           stop-opacity=".1"
           id="stop71" /></linearGradient><path
         id="path93"
         d="m 324.2,2758.1 5.6,0 -1.7,-17.8 -0.2,0 c 1.1,-10.9 2.6,-59.1 -49.2,-78.3 l -4.6,-3.1 -0.3,0.3 0,-13 c 3.4,-3 6.3,-6.7 8.3,-10.8 l 0,1.3 c 4.6,-4.9 8.3,-10.5 11.2,-16.6 -2.7,5 -6,9.7 -9.9,13.9 l 0,-0.1 c 6.5,-7.4 33.1,-41.9 -9.3,-66.7 -47.8,-27.9 -56.8,18.9 -56.8,18.9 l 3.8,5.1 c 0,0 -9.2,18.5 -9.2,27.3 0,15.7 9.9,29.8 24.8,35 l 0,11.1 c -3.4,1.3 -51.4,19.8 -51.4,75.6 l -6.7,17.8 2.2,1 0,49.6 109,0 c 0,0 6.7,-52.8 4.5,-70.6 l 6.7,4.4 0,15.6 1.5,0 0,0.4 -0.4,0 0.4,1.4 0,47.7 21.9,0 0,-47.7 0.2,-1.4 -0.2,0 -0.2,-0.3 z m -123.7,4.1 0.2,-4.1 -0.2,4.1 z"
         style="fill:url(#path93_1_)"
         inkscape:connector-curvature="0" /></g><path
       id="path95"
       class="st4"
       d="m -1421.073,2663.583 -35.6,0 0,52.2 35.6,0 0,-52.2 z"
       inkscape:connector-curvature="0"
       style="fill:#fda57d" /><path
       id="path97"
       class="st5"
       d="m -1422.273,2671.883 c -3.7,1.3 -5.3,2.4 -9.5,2.4 -8.8,0 -17.2,-3.2 -23.7,-9.1 l 0,-0.4 33.2,0 0,7.1 z"
       inkscape:connector-curvature="0"
       style="enable-background:new" /><circle
       id="circle99"
       class="st4"
       cx="-1432.973"
       cy="2637.4829"
       r="35.599998"
       style="fill:#fda57d" /><path
       id="path101"
       d="m -1435.373,2620.183 -29.3,11.5 0,22 c 0,0 -38.2,-38.5 7.6,-65.3 41.2,-24 48.6,4.9 53.8,10.5 0.5,0.5 0.5,1.4 -0.1,1.9 -5,4.7 -9.3,23.9 -32,19.4 z"
       inkscape:connector-curvature="0"
       style="fill:#4d4545" /><path
       id="path103"
       class="st4"
       d="m -1484.173,2771.183 -21,0 0,52.2 21,0 0,-52.2 z"
       inkscape:connector-curvature="0"
       style="fill:#fda57d" /><path
       id="path105"
       class="st8"
       d="m -1482.673,2756.283 0,14.9 -27.8,0 1.7,-17.1 26.1,2.2 z"
       inkscape:connector-curvature="0"
       style="fill:#ffffff" /><path
       id="path107"
       class="st4"
       d="m -1367.573,2771.183 0,53.3 -17,0 -2,-49.4 19,-3.9 z"
       inkscape:connector-curvature="0"
       style="fill:#fda57d" /><path
       id="path109"
       d="m -1433.673,2696.583 12.4,-14.9 c 0,0 49.4,17.1 49.4,72.5 l -14.9,17.1 2.1,53.3 -87.4,0 c 0,0 -6.4,-55.4 -4.3,-72.5 l -6.4,4.3 -25.6,0 c 0,0 -9.8,-59.7 52,-78.9 l 22.7,19.1 z"
       inkscape:connector-curvature="0"
       style="fill:#235067" /><path
       id="path111"
       class="st8"
       d="m -1371.773,2754.083 6.4,17.1 -21,9.6 -0.4,-9.6 15,-17.1 z"
       inkscape:connector-curvature="0"
       style="fill:#ffffff" /><path
       id="path113"
       class="st5"
       d="m -1412.473,2687.583 -8.4,18.8 -12,-9.9 11.6,-13.6 8.8,4.7 z"
       inkscape:connector-curvature="0"
       style="enable-background:new" /><path
       id="path115"
       class="st8"
       d="m -1412.473,2686.283 -8.4,18.8 -12,-9.8 11.6,-13.7 8.8,4.7 z"
       inkscape:connector-curvature="0"
       style="fill:#ffffff" /><path
       id="path117"
       class="st5"
       d="m -1456.973,2677.383 -7.7,5.1 21.6,20.4 7.6,-6.6 -21.5,-18.9 z"
       inkscape:connector-curvature="0"
       style="enable-background:new" /><path
       id="path119"
       class="st8"
       d="m -1456.973,2676.183 -7.7,5.1 21.6,20.3 7.6,-6.6 -21.5,-18.8 z"
       inkscape:connector-curvature="0"
       style="fill:#ffffff" /><path
       id="path121"
       class="st5"
       d="m -1388.273,2766.483 c 0,-16.5 -5.3,-32.6 -15.3,-45.8 m -70,33.1 0,-7.7 -7.6,5.1 5.1,-1.2 2.5,3.8 z m -10.2,17.8 -0.4,1.4 -20.9,0 -0.3,-1.4 21.6,0 z m 116.2,0.6 0,1.4 -18.7,8.1 0.5,-1.2 18.2,-8.3 z m -107.8,-133.1 c 2.6,4.8 5.8,9.3 9.5,13.3 l 0,-22 29.3,-11.5 c 21.9,4.4 25.4,-13.2 31.5,-18.9 0.5,-0.5 1.4,-0.5 1.9,0.1 0.5,0.5 0.5,1.4 -0.1,1.9 -5.1,4.8 -9.4,24 -32.1,19.4 l -29.3,11.5 0,22 c -4.4,-4.7 -8,-10 -10.7,-15.8 z"
       inkscape:connector-curvature="0"
       style="enable-background:new" /><ellipse
       id="ellipse123"
       class="st4"
       cx="-1465.973"
       cy="2637.4829"
       rx="3.5999999"
       ry="5.9000001"
       style="fill:#fda57d" /></g></svg>