<svg version="1.1" id="_x37_47ad91c-18bb-4936-b655-cddf352f94cc" xmlns="http://www.w3.org/2000/svg" x="0" y="0" viewBox="-958 1169.4 1081.9 469.9" xml:space="preserve"><style>.st0{opacity:.5}.st2{fill:#fff}.st3{fill:#6c63ff}.st5{fill:#fda57d}.st6{opacity:5.000000e-02;enable-background:new}.st7{fill:#ff0}.st8{opacity:5.000000e-02}.st9{fill:#4d8af0}.st10{opacity:.1;fill:#fff;enable-background:new}.st11{fill:#e0e0e0}.st18{fill:#3ad29f}</style><g class="st0"><linearGradient id="SVGID_1_" gradientUnits="userSpaceOnUse" x1="-94.24" y1="1405.8" x2="-94.24" y2="1833.41" gradientTransform="matrix(1 0 0 -1 0 3002.82)"><stop offset="0" stop-color="gray" stop-opacity=".25"/><stop offset=".54" stop-color="gray" stop-opacity=".12"/><stop offset="1" stop-color="gray" stop-opacity=".1"/></linearGradient><path fill="url(#SVGID_1_)" d="M-312.4 1169.4H124V1597h-436.4z"/></g><path class="st2" d="M-310.2 1172.7h432v421h-432z"/><g class="st0"><path class="st3" d="M-266.4 1207.7H77.9V1475h-344.3z"/></g><g class="st0"><linearGradient id="SVGID_2_" gradientUnits="userSpaceOnUse" x1="-104.168" y1="1525.547" x2="31.67" y2="1525.547" gradientTransform="matrix(1 0 0 -1 -59.03 2884.12)"><stop offset="0" stop-color="gray" stop-opacity=".25"/><stop offset=".54" stop-color="gray" stop-opacity=".12"/><stop offset="1" stop-color="gray" stop-opacity=".1"/></linearGradient><path d="M-29 1391.7c-.2-10.5-4.5-20.6-12-28-6.8-6.6-15.8-14.3-25.7-18.9h-.1c-4.2-2-8.6-3.4-13.2-4v-16.4c3.4-3 6.1-6.6 8.2-10.6v1.3s15.7-15.8 15.3-34.4c.2-11.2-5.1-23.5-23.2-34-41.8-24.4-57.8 11.1-60.9 19.3-.2.4-.3.8-.4 1.2l-.1.4c-.1.4-.1.8 0 1.2v.7c0 2.7 2.3 5.3 6.3 7.3-11.2 16.8-6.8 39.5 10 50.7 2.6 1.7 5.3 3.1 8.2 4.1v10.5l-.8-1.5s-5.6 3.3-12.8 8.5c-12.1 8.6-28.7 22.2-31.2 33.5-4 18 0 94.2 0 94.2l134.1 2-1.7-87.1zm-41.4-79.3zm-1.3 1.4zm.1-.1zm.2-.2zm-69.5-44zm.1.6zm.3.6zm.3.6zm.4.5l.1.1-.1-.1zm.5.6l.1.1-.1-.1zm.5.5l.1.1-.1-.1zm4.5 3l.1.1-.1-.1zm-3.9-2.4l.2.1-.2-.1zm.6.5l.2.1-.2-.1zm.8.5l.2.2-.2-.2zm.8.5l.3.2-.3-.2zm.8.5l.3.2-.3-.2z" fill="url(#SVGID_2_)"/></g><path class="st5" d="M-116 1325h35.6v52.2H-116z"/><path class="st6" d="M-114.8 1333.3c3.7 1.3 5.3 2.4 9.5 2.4 8.8 0 17.2-3.2 23.7-9.1v-.4h-33.2v7.1z"/><circle class="st5" cx="-104.2" cy="1298.9" r="35.6"/><ellipse cx="-108.1" cy="1270.7" rx="31.8" ry="12.1"/><path d="M-101.7 1275.2l29.3 17.8v22s38.2-38.6-7.6-65.3c-45.8-26.7-59.8 20.4-59.8 20.4s12.6 10.2 38.1 5.1z"/><ellipse class="st5" cx="-71.1" cy="1298.9" rx="3.6" ry="5.9"/><g class="st8"><path d="M-72.4 1293l-19.5-11.8c-5.3 1.1-10.7 1.7-16.1 1.7-17.1 0-31-5.1-31.8-11.6v.7c0 6.7 14.2 12.1 31.8 12.1 5.4 0 10.8-.5 16.2-1.7l19.5 11.8-.1-1.2zM-72.4 1315.1v1.3s15.2-15.4 14.9-33.5c-.4 17.4-14.9 32.2-14.9 32.2z"/></g><path class="st9" d="M-116.8 1341.2s-38.9 23.4-42.8 40.9 0 91.6 0 91.6l130.4 2-1.7-84.8c-.2-10.3-4.4-20-11.7-27.2-9.7-9.6-24.5-21.3-39.2-22.4l-17.5 33.1-17.5-33.2z"/><path class="st6" d="M-134.8 1380.8s-10.2 53.4-1.3 70M-61 1380.8s10.2 53.4 1.3 70"/><path class="st2" d="M-117 1341.4l37-.6-24.2 61.6z"/><path class="st2" d="M-117 1337.5v3.9h36.9l.1-3.9z"/><path d="M-101.7 1337.5h5.1v5.1h-5.1z"/><path class="st9" d="M-117 1341.4l-7.6 7.6 16.5 28.2zM-81.4 1343.9l6.4 6.4-19.1 25.4z"/><path class="st10" d="M-117 1341.4l-7.6 7.6 16.5 28.2zM-81.4 1343.9l6.4 6.4-19.1 25.4z"/><path d="M-99.2 1340.1l-20.3 85.8 12.7 19.1 16.5-19.1z"/><path class="st11" d="M-242 1512.5H62v14h-304zM-193.5 1540.5h207v14h-207z"/><g class="st0"><linearGradient id="SVGID_3_" gradientUnits="userSpaceOnUse" x1="-739.81" y1="1403.31" x2="-739.81" y2="1830.92" gradientTransform="matrix(1 0 0 -1 0 3002.82)"><stop offset="0" stop-color="gray" stop-opacity=".25"/><stop offset=".54" stop-color="gray" stop-opacity=".12"/><stop offset="1" stop-color="gray" stop-opacity=".1"/></linearGradient><path fill="url(#SVGID_3_)" d="M-958 1171.9h436.4v427.6H-958z"/></g><path class="st2" d="M-955.8 1175.2h432v421h-432z"/><g class="st0"><path class="st3" d="M-912 1210.1h344.3v267.3H-912z"/></g><g class="st0"><linearGradient id="SVGID_4_" gradientUnits="userSpaceOnUse" x1="-746.58" y1="1531.092" x2="-595.26" y2="1531.092" gradientTransform="matrix(1 0 0 -1 -59.03 2884.12)"><stop offset="0" stop-color="gray" stop-opacity=".25"/><stop offset=".54" stop-color="gray" stop-opacity=".12"/><stop offset="1" stop-color="gray" stop-opacity=".1"/></linearGradient><path d="M-659.8 1427.5h5.6l-1.7-17.8h-.2c1.1-10.9 2.6-59.1-49.2-78.3l-4.6-3.1-.3.3v-13c3.4-3 6.3-6.7 8.3-10.8v1.3c4.6-4.9 8.3-10.5 11.2-16.6-2.7 5-6 9.7-9.9 13.9v-.1c6.5-7.4 33.1-41.9-9.3-66.7-47.8-27.9-56.8 18.9-56.8 18.9l3.8 5.1s-9.2 18.5-9.2 27.3c0 15.7 9.9 29.8 24.8 35v11.1c-3.4 1.3-51.4 19.8-51.4 75.6l-6.7 17.8 2.2 1v49.6h109s6.7-52.8 4.5-70.6l6.7 4.4v15.6h1.5v.4h-.4l.4 1.4v47.7h21.9v-47.7l.2-1.4h-.2l-.2-.3zm-123.7 4.1l.2-4.1-.2 4.1z" fill="url(#SVGID_4_)"/></g><path class="st5" d="M-746.8 1316.9h35.6v52.2h-35.6z"/><path class="st6" d="M-745.6 1325.2c3.7 1.3 5.3 2.4 9.5 2.4 8.8 0 17.2-3.2 23.7-9.1v-.4h-33.2v7.1z"/><circle class="st5" cx="-734.9" cy="1290.8" r="35.6"/><path d="M-732.5 1273.5l29.3 11.5v22s38.2-38.5-7.6-65.3c-41.2-24-48.6 4.9-53.8 10.5-.5.5-.5 1.4.1 1.9 5 4.7 9.3 23.9 32 19.4z" fill="#4d4545"/><path class="st5" d="M-683.7 1424.5h21v52.2h-21z"/><path class="st2" d="M-685.2 1409.6v14.9h27.8l-1.7-17.1z"/><path class="st5" d="M-800.3 1424.5v53.3h17l2-49.4z"/><path d="M-734.2 1349.9l-12.4-14.9s-49.4 17.1-49.4 72.5l14.9 17.1-2.1 53.3h87.4s6.4-55.4 4.3-72.5l6.4 4.3h25.6s9.8-59.7-52-78.9l-22.7 19.1z" fill="#235067"/><path class="st2" d="M-796.1 1407.4l-6.4 17.1 21 9.6.4-9.6z"/><path class="st6" d="M-755.4 1340.9l8.4 18.8 12-9.9-11.6-13.6z"/><path class="st2" d="M-755.4 1339.6l8.4 18.8 12-9.8-11.6-13.7z"/><path class="st6" d="M-710.9 1330.7l7.7 5.1-21.6 20.4-7.6-6.6z"/><path class="st2" d="M-710.9 1329.5l7.7 5.1-21.6 20.3-7.6-6.6z"/><path class="st6" d="M-779.6 1419.8c0-16.5 5.3-32.6 15.3-45.8M-694.3 1407.1v-7.7l7.6 5.1-5.1-1.2zM-684.1 1424.9l.4 1.4h20.9l.3-1.4zM-800.3 1425.5v1.4l18.7 8.1-.5-1.2zM-692.5 1292.4c-2.6 4.8-5.8 9.3-9.5 13.3v-22l-29.3-11.5c-21.9 4.4-25.4-13.2-31.5-18.9-.5-.5-1.4-.5-1.9.1-.5.5-.5 1.4.1 1.9 5.1 4.8 9.4 24 32.1 19.4l29.3 11.5v22c4.4-4.7 8-10 10.7-15.8z"/><ellipse class="st5" cx="-701.9" cy="1290.8" rx="3.6" ry="5.9"/><path class="st11" d="M-899 1509.4h304v14h-304zM-850.5 1537.4h207v14h-207z"/><g><g class="st0"><linearGradient id="SVGID_5_" gradientUnits="userSpaceOnUse" x1="-430.325" y1="1363.525" x2="-430.325" y2="1791.135" gradientTransform="matrix(1 0 0 -1 0 3002.82)"><stop offset="0" stop-color="gray" stop-opacity=".25"/><stop offset=".54" stop-color="gray" stop-opacity=".12"/><stop offset="1" stop-color="gray" stop-opacity=".1"/></linearGradient><path fill="url(#SVGID_5_)" d="M-648.5 1211.7h436.4v427.6h-436.4z"/></g><path class="st2" d="M-646.3 1215h432v421h-432z"/><g class="st0"><path class="st3" d="M-602.5 1249.9h344.3v267.3h-344.3z"/></g><g class="st0"><linearGradient id="SVGID_6_" gradientUnits="userSpaceOnUse" x1="-446.975" y1="1498.305" x2="-271.765" y2="1498.305" gradientTransform="matrix(1 0 0 -1 -59.03 2884.12)"><stop offset="0" stop-color="gray" stop-opacity=".25"/><stop offset=".54" stop-color="gray" stop-opacity=".12"/><stop offset="1" stop-color="gray" stop-opacity=".1"/></linearGradient><path d="M-400 1416.8l1-.8 1.4-1.1 66.8-49.6-23-91.8v-.3c.2-2.8 1.3-24.5-10.5-20.6-11.4 3.8-7.2 19.8-6.4 22.5l.1.4 14.6 77.2-46.4 27.1-6.4-.7c7.3-10.1 11.2-22.2 11.1-34.7 0-28.8-19.6-52.2-43.8-52.2s-43.8 23.3-43.8 52.2c0 21.6 11 40.1 26.7 48l-16.6 8.3v.1c-4.8-1-22.8-.7-15.5 65.6 1.8 16.1-2 32.2-10.8 45.8l-4.6 6.4 114.3.7h.3c.2.1-16-25.9-8.5-102.5z" fill="url(#SVGID_6_)"/></g><path class="st18" d="M-473.1 1401.4s-23.6-10.2-16.7 59.8c1.9 18.7-2.7 37.4-12.9 53.2l-1.5 2.2h21.9l16.5-17.5-7.3-97.7zM-355.2 1276.2v-.3l-16.5 1.9.1.4 14.3 75.7-49.1 28.6 2 36.8 71.6-53.2-22.4-89.9z"/><ellipse class="st7" cx="-441.1" cy="1345.7" rx="42.9" ry="51.1"/><path class="st5" d="M-450.3 1363.1h30.7v45h-30.7z"/><path class="st18" d="M-441.1 1401l-8.2-12.3-24.5 12.3v20.3s-8.9 15.7-1.7 33.8c-2 26.6-7.4 61.4-7.4 61.4l90.9.7s-16.4-26.2-8.2-103.9l-2-32.7-18.4-2-20.5 22.4z"/><path class="st6" d="M-402.3 1380.5l2.1 2.1 2 32.2-2.4 1.8zM-449.3 1370.3c3.2 1.1 4.6 2 8.2 2 7.6 0 14.8-2.8 20.5-7.9v-.3h-28.6v6.2z"/><circle class="st5" cx="-440.1" cy="1340.6" r="30.7"/><ellipse class="st5" cx="-409.4" cy="1340.6" rx="3.1" ry="5.1"/><path class="st6" d="M-466.9 1331v1.5h52.7v1.4h-53.4z"/><path class="st7" d="M-467.7 1306.9h53.2v26.6h-53.2z"/><path class="st5" d="M-365.5 1255.8c-11.2 3.7-7.1 19.4-6.3 22.1l16.5-1.9c.3-2.8 1.3-24.1-10.2-20.2z"/><g class="st8"><path d="M-481.1 1516.5s5.4-34.8 7.4-61.4c-7.2-18 1.7-33.8 1.7-33.8V1401l22.9-11.4-.5-.8-24.5 12.3v20.3s-8.9 15.8-1.7 33.8c-2 26.6-7.4 61.4-7.4 61.4l90.9.7-88.8-.8zM-439.3 1401l20.3-22.3-2-.2-19.2 21.1z"/></g><path class="st6" d="M-457 1393.7l15.7 36.2 28.8-49.4-8-1.1-19.7 19.8-8.8-9.9z"/><path class="st2" d="M-457 1392.6l15.7 36.2 28.8-49.4-8-1.1-19.7 19.8-8.8-9.9z"/><path class="st11" d="M-581.5 1545.8h304v14h-304zM-533 1573.8h207v14h-207z"/></g></svg>