<?xml version="1.0" encoding="UTF-8" standalone="no"?>
<svg
   xmlns:dc="http://purl.org/dc/elements/1.1/"
   xmlns:cc="http://creativecommons.org/ns#"
   xmlns:rdf="http://www.w3.org/1999/02/22-rdf-syntax-ns#"
   xmlns:svg="http://www.w3.org/2000/svg"
   xmlns="http://www.w3.org/2000/svg"
   xmlns:sodipodi="http://sodipodi.sourceforge.net/DTD/sodipodi-0.dtd"
   xmlns:inkscape="http://www.inkscape.org/namespaces/inkscape"
   version="1.1"
   id="_x37_47ad91c-18bb-4936-b655-cddf352f94cc"
   x="0"
   y="0"
   viewBox="-958 1169.4 1029.7232 340.3794"
   xml:space="preserve"
   inkscape:version="0.91 r13725"
   sodipodi:docname="intro.svg"
   width="1029.7233"
   height="340.37939"><metadata
     id="metadata191"><rdf:RDF><cc:Work
         rdf:about=""><dc:format>image/svg+xml</dc:format><dc:type
           rdf:resource="http://purl.org/dc/dcmitype/StillImage" /><dc:title /></cc:Work></rdf:RDF></metadata><defs
     id="defs189" /><sodipodi:namedview
     pagecolor="#ffffff"
     bordercolor="#666666"
     borderopacity="1"
     objecttolerance="10"
     gridtolerance="10"
     guidetolerance="10"
     inkscape:pageopacity="0"
     inkscape:pageshadow="2"
     inkscape:window-width="1215"
     inkscape:window-height="1000"
     id="namedview187"
     showgrid="false"
     inkscape:zoom="0.68398187"
     inkscape:cx="507.66123"
     inkscape:cy="250.61521"
     inkscape:window-x="65"
     inkscape:window-y="24"
     inkscape:window-maximized="1"
     inkscape:current-layer="_x37_47ad91c-18bb-4936-b655-cddf352f94cc"
     fit-margin-top="0"
     fit-margin-left="0"
     fit-margin-right="0"
     fit-margin-bottom="0" /><style
     id="style3">.st0{opacity:.5}.st2{fill:#fff}.st3{fill:#6c63ff}.st5{fill:#fda57d}.st6{opacity:5.000000e-02;enable-background:new}.st7{fill:#ff0}.st8{opacity:5.000000e-02}.st9{fill:#4d8af0}.st10{opacity:.1;fill:#fff;enable-background:new}.st11{fill:#e0e0e0}.st18{fill:#3ad29f}</style><path
     style="fill:#f0f0f0;fill-opacity:1"
     inkscape:connector-curvature="0"
     class="st2"
     d="m 71.72327,1169.4 -380.99874,0 0,299.2924 380.99874,0 z"
     id="path78-0-6" /><path
     style="fill:#f0f0f0;fill-opacity:1"
     inkscape:connector-curvature="0"
     class="st2"
     d="m -577.00126,1171.6377 -380.99874,0 0,299.2924 380.99874,0 z"
     id="path78-0" /><g
     id="g4420"
     transform="translate(-24.5261,-24.203776)"><g
       id="g5"
       class="st0"
       style="opacity:0.5"><linearGradient
         gradientTransform="matrix(1,0,0,-1,0,3002.82)"
         y2="1833.41"
         x2="-94.239998"
         y1="1405.8"
         x1="-94.239998"
         gradientUnits="userSpaceOnUse"
         id="SVGID_1_"><stop
           id="stop8"
           stop-opacity=".25"
           stop-color="gray"
           offset="0" /><stop
           id="stop10"
           stop-opacity=".12"
           stop-color="gray"
           offset=".54" /><stop
           id="stop12"
           stop-opacity=".1"
           stop-color="gray"
           offset="1" /></linearGradient></g><g
       id="g18"
       class="st0"
       style="opacity:0.5"><path
         id="path20"
         d="m -266.4,1207.7 344.3,0 0,267.3 -344.3,0 z"
         class="st3"
         inkscape:connector-curvature="0"
         style="fill:#03bd5b;fill-opacity:1" /></g><g
       id="g22"
       class="st0"
       style="opacity:0.5"><linearGradient
         gradientTransform="matrix(1,0,0,-1,-59.03,2884.12)"
         y2="1525.547"
         x2="31.67"
         y1="1525.547"
         x1="-104.168"
         gradientUnits="userSpaceOnUse"
         id="SVGID_2_"><stop
           id="stop25"
           stop-opacity=".25"
           stop-color="gray"
           offset="0" /><stop
           id="stop27"
           stop-opacity=".12"
           stop-color="gray"
           offset=".54" /><stop
           id="stop29"
           stop-opacity=".1"
           stop-color="gray"
           offset="1" /></linearGradient><path
         id="path31"
         d="m -29,1391.7 c -0.2,-10.5 -4.5,-20.6 -12,-28 -6.8,-6.6 -15.8,-14.3 -25.7,-18.9 l -0.1,0 c -4.2,-2 -8.6,-3.4 -13.2,-4 l 0,-16.4 c 3.4,-3 6.1,-6.6 8.2,-10.6 l 0,1.3 c 0,0 15.7,-15.8 15.3,-34.4 0.2,-11.2 -5.1,-23.5 -23.2,-34 -41.8,-24.4 -57.8,11.1 -60.9,19.3 -0.2,0.4 -0.3,0.8 -0.4,1.2 l -0.1,0.4 c -0.1,0.4 -0.1,0.8 0,1.2 l 0,0.7 c 0,2.7 2.3,5.3 6.3,7.3 -11.2,16.8 -6.8,39.5 10,50.7 2.6,1.7 5.3,3.1 8.2,4.1 l 0,10.5 -0.8,-1.5 c 0,0 -5.6,3.3 -12.8,8.5 -12.1,8.6 -28.7,22.2 -31.2,33.5 -4,18 0,94.2 0,94.2 l 134.1,2 -1.7,-87.1 z m -41.4,-79.3 z m -1.3,1.4 z m 0.1,-0.1 z m 0.2,-0.2 z m -69.5,-44 z m 0.1,0.6 z m 0.3,0.6 z m 0.3,0.6 z m 0.4,0.5 0.1,0.1 -0.1,-0.1 z m 0.5,0.6 0.1,0.1 -0.1,-0.1 z m 0.5,0.5 0.1,0.1 -0.1,-0.1 z m 4.5,3 0.1,0.1 -0.1,-0.1 z m -3.9,-2.4 0.2,0.1 -0.2,-0.1 z m 0.6,0.5 0.2,0.1 -0.2,-0.1 z m 0.8,0.5 0.2,0.2 -0.2,-0.2 z m 0.8,0.5 0.3,0.2 -0.3,-0.2 z m 0.8,0.5 0.3,0.2 -0.3,-0.2 z"
         style="fill:url(#SVGID_2_)"
         inkscape:connector-curvature="0" /></g><path
       id="path33"
       d="m -116,1325 35.6,0 0,52.2 -35.6,0 z"
       class="st5"
       inkscape:connector-curvature="0"
       style="fill:#a0616a;fill-opacity:1" /><path
       id="path35"
       d="m -114.8,1333.3 c 3.7,1.3 5.3,2.4 9.5,2.4 8.8,0 17.2,-3.2 23.7,-9.1 l 0,-0.4 -33.2,0 0,7.1 z"
       class="st6"
       inkscape:connector-curvature="0" /><circle
       id="circle37"
       r="35.599998"
       cy="1298.9"
       cx="-104.2"
       class="st5"
       style="fill:#a0616a;fill-opacity:1" /><ellipse
       id="ellipse39"
       ry="12.1"
       rx="31.799999"
       cy="1270.7"
       cx="-108.1" /><path
       id="path41"
       d="m -101.7,1275.2 29.3,17.8 0,22 c 0,0 38.2,-38.6 -7.6,-65.3 -45.8,-26.7 -59.8,20.4 -59.8,20.4 0,0 12.6,10.2 38.1,5.1 z"
       inkscape:connector-curvature="0" /><ellipse
       id="ellipse43"
       ry="5.9000001"
       rx="3.5999999"
       cy="1298.9"
       cx="-71.099998"
       class="st5"
       style="fill:#a0616a;fill-opacity:1" /><g
       id="g45"
       class="st8"><path
         id="path47"
         d="m -72.4,1293 -19.5,-11.8 c -5.3,1.1 -10.7,1.7 -16.1,1.7 -17.1,0 -31,-5.1 -31.8,-11.6 l 0,0.7 c 0,6.7 14.2,12.1 31.8,12.1 5.4,0 10.8,-0.5 16.2,-1.7 l 19.5,11.8 -0.1,-1.2 z m 0,22.1 0,1.3 c 0,0 15.2,-15.4 14.9,-33.5 -0.4,17.4 -14.9,32.2 -14.9,32.2 z"
         inkscape:connector-curvature="0" /></g><path
       id="path49"
       d="m -116.8,1341.2 c 0,0 -38.9,23.4 -42.8,40.9 -3.9,17.5 0,91.6 0,91.6 l 130.4,2 -1.7,-84.8 c -0.2,-10.3 -4.4,-20 -11.7,-27.2 -9.7,-9.6 -24.5,-21.3 -39.2,-22.4 l -17.5,33.1 -17.5,-33.2 z"
       class="st9"
       inkscape:connector-curvature="0"
       style="fill:#4d8af0" /><path
       id="path51"
       d="m -134.8,1380.8 c 0,0 -10.2,53.4 -1.3,70 m 75.1,-70 c 0,0 10.2,53.4 1.3,70"
       class="st6"
       inkscape:connector-curvature="0" /><path
       id="path53"
       d="m -117,1341.4 37,-0.6 -24.2,61.6 z"
       class="st2"
       inkscape:connector-curvature="0"
       style="fill:#ffffff" /><path
       id="path55"
       d="m -117,1337.5 0,3.9 36.9,0 0.1,-3.9 z"
       class="st2"
       inkscape:connector-curvature="0"
       style="fill:#ffffff" /><path
       id="path57"
       d="m -101.7,1337.5 5.1,0 0,5.1 -5.1,0 z"
       inkscape:connector-curvature="0" /><path
       id="path59"
       d="m -117,1341.4 -7.6,7.6 16.5,28.2 z m 35.6,2.5 6.4,6.4 -19.1,25.4 z"
       class="st9"
       inkscape:connector-curvature="0"
       style="fill:#4d8af0" /><path
       id="path61"
       d="m -117,1341.4 -7.6,7.6 16.5,28.2 z m 35.6,2.5 6.4,6.4 -19.1,25.4 z"
       class="st10"
       inkscape:connector-curvature="0"
       style="opacity:0.1;fill:#ffffff;enable-background:new" /><path
       id="path63"
       d="m -99.2,1340.1 -20.3,85.8 12.7,19.1 16.5,-19.1 z"
       inkscape:connector-curvature="0" /></g><g
     style="opacity:0.5"
     id="g129"
     class="st0"
     transform="matrix(-1,0,0,1,-1197.8506,-63.31622)"><linearGradient
       gradientTransform="matrix(1,0,0,-1,0,3002.82)"
       y2="1791.135"
       x2="-430.32501"
       y1="1363.525"
       x1="-430.32501"
       gradientUnits="userSpaceOnUse"
       id="SVGID_5_"><stop
         id="stop132"
         stop-opacity=".25"
         stop-color="gray"
         offset="0" /><stop
         id="stop134"
         stop-opacity=".12"
         stop-color="gray"
         offset=".54" /><stop
         id="stop136"
         stop-opacity=".1"
         stop-color="gray"
         offset="1" /></linearGradient></g><g
     style="opacity:0.5"
     id="g142"
     class="st0"
     transform="matrix(-1,0,0,1,-1197.8506,-63.31622)"><path
       style="fill:#03bd5b;fill-opacity:1"
       inkscape:connector-curvature="0"
       id="path144"
       d="m -602.5,1249.9 344.3,0 0,267.3 -344.3,0 z"
       class="st3" /></g><g
     id="g5008"><g
       transform="matrix(-1,0,0,1,-1197.8506,-63.31622)"
       class="st0"
       id="g146"
       style="opacity:0.5"><linearGradient
         id="SVGID_6_"
         gradientUnits="userSpaceOnUse"
         x1="-446.97501"
         y1="1498.3051"
         x2="-271.76501"
         y2="1498.3051"
         gradientTransform="matrix(1,0,0,-1,-59.03,2884.12)"><stop
           offset="0"
           stop-color="gray"
           stop-opacity=".25"
           id="stop149" /><stop
           offset=".54"
           stop-color="gray"
           stop-opacity=".12"
           id="stop151" /><stop
           offset="1"
           stop-color="gray"
           stop-opacity=".1"
           id="stop153" /></linearGradient><path
         d="m -400,1416.8 1,-0.8 1.4,-1.1 66.8,-49.6 -23,-91.8 0,-0.3 c 0.2,-2.8 1.3,-24.5 -10.5,-20.6 -11.4,3.8 -7.2,19.8 -6.4,22.5 l 0.1,0.4 14.6,77.2 -46.4,27.1 -6.4,-0.7 c 7.3,-10.1 11.2,-22.2 11.1,-34.7 0,-28.8 -19.6,-52.2 -43.8,-52.2 -24.2,0 -43.8,23.3 -43.8,52.2 0,21.6 11,40.1 26.7,48 l -16.6,8.3 0,0.1 c -4.8,-1 -22.8,-0.7 -15.5,65.6 1.8,16.1 -2,32.2 -10.8,45.8 l -4.6,6.4 114.3,0.7 0.3,0 c 0.2,0.1 -16,-25.9 -8.5,-102.5 z"
         id="path155"
         style="fill:url(#SVGID_6_)"
         inkscape:connector-curvature="0" /></g><path
       class="st18"
       d="m -724.7506,1338.0838 c 0,0 23.6,-10.2 16.7,59.8 -1.9,18.7 2.7,37.4 12.9,53.2 l 1.5,2.2 -21.9,0 -16.5,-17.5 7.3,-97.7 z m -117.9,-125.2 0,-0.3 16.5,1.9 -0.1,0.4 -14.3,75.7 49.1,28.6 -2,36.8 -71.6,-53.2 22.4,-89.9 z"
       id="path157"
       inkscape:connector-curvature="0"
       style="fill:#248c69;fill-opacity:1" /><ellipse
       transform="scale(-1,1)"
       class="st7"
       cx="756.75061"
       cy="1282.3838"
       rx="42.900002"
       ry="51.099998"
       id="ellipse159"
       style="fill:#ffff00" /><path
       class="st5"
       d="m -747.5506,1299.7838 -30.7,0 0,45 30.7,0 z"
       id="path161"
       inkscape:connector-curvature="0"
       style="fill:#c68642;fill-opacity:1" /><path
       class="st18"
       d="m -756.7506,1337.6838 8.2,-12.3 24.5,12.3 0,20.3 c 0,0 8.9,15.7 1.7,33.8 2,26.6 7.4,61.4 7.4,61.4 l -90.9,0.7 c 0,0 16.4,-26.2 8.2,-103.9 l 2,-32.7 18.4,-2 20.5,22.4 z"
       id="path163"
       inkscape:connector-curvature="0"
       style="fill:#248c69;fill-opacity:1" /><path
       class="st6"
       d="m -795.5506,1317.1838 -2.1,2.1 -2,32.2 2.4,1.8 z m 47,-10.2 c -3.2,1.1 -4.6,2 -8.2,2 -7.6,0 -14.8,-2.8 -20.5,-7.9 l 0,-0.3 28.6,0 0,6.2 z"
       id="path165"
       inkscape:connector-curvature="0" /><circle
       transform="scale(-1,1)"
       class="st5"
       cx="757.75061"
       cy="1277.2838"
       r="30.700001"
       id="circle167"
       style="fill:#c68642;fill-opacity:1" /><ellipse
       transform="scale(-1,1)"
       class="st5"
       cx="788.45062"
       cy="1277.2838"
       rx="3.0999999"
       ry="5.0999999"
       id="ellipse169"
       style="fill:#c68642;fill-opacity:1" /><path
       class="st6"
       d="m -730.9506,1267.6838 0,1.5 -52.7,0 0,1.4 53.4,0 z"
       id="path171"
       inkscape:connector-curvature="0" /><path
       class="st7"
       d="m -730.1506,1243.5838 -53.2,0 0,26.6 53.2,0 z"
       id="path173"
       inkscape:connector-curvature="0"
       style="fill:#ffff00" /><path
       class="st5"
       d="m -832.3506,1192.4838 c 11.2,3.7 7.1,19.4 6.3,22.1 l -16.5,-1.9 c -0.3,-2.8 -1.3,-24.1 10.2,-20.2 z"
       id="path175"
       inkscape:connector-curvature="0"
       style="fill:#c68642;fill-opacity:1" /><g
       transform="matrix(-1,0,0,1,-1197.8506,-63.31622)"
       class="st8"
       id="g177"><path
         d="m -481.1,1516.5 c 0,0 5.4,-34.8 7.4,-61.4 -7.2,-18 1.7,-33.8 1.7,-33.8 l 0,-20.3 22.9,-11.4 -0.5,-0.8 -24.5,12.3 0,20.3 c 0,0 -8.9,15.8 -1.7,33.8 -2,26.6 -7.4,61.4 -7.4,61.4 l 90.9,0.7 -88.8,-0.8 z m 41.8,-115.5 20.3,-22.3 -2,-0.2 -19.2,21.1 z"
         id="path179"
         inkscape:connector-curvature="0" /></g><path
       class="st6"
       d="m -740.8506,1330.3838 -15.7,36.2 -28.8,-49.4 8,-1.1 19.7,19.8 8.8,-9.9 z"
       id="path181"
       inkscape:connector-curvature="0" /><path
       class="st2"
       d="m -740.8506,1329.2838 -15.7,36.2 -28.8,-49.4 8,-1.1 19.7,19.8 8.8,-9.9 z"
       id="path183"
       inkscape:connector-curvature="0"
       style="fill:#ffffff" /></g><flowRoot
     xml:space="preserve"
     id="flowRoot4404"
     style="font-style:normal;font-variant:normal;font-weight:bold;font-stretch:normal;font-size:15px;line-height:125%;font-family:Sans;-inkscape-font-specification:'Sans, Bold';text-align:start;letter-spacing:0px;word-spacing:0px;writing-mode:lr-tb;text-anchor:start;fill:#000000;fill-opacity:1;stroke:none;stroke-width:1px;stroke-linecap:butt;stroke-linejoin:miter;stroke-opacity:1"
     transform="translate(-984.9415,1146.3411)"><flowRegion
       id="flowRegion4406"><rect
         id="rect4408"
         width="319.91696"
         height="239.93773"
         x="306.00754"
         y="613.6308" /></flowRegion><flowPara
       id="flowPara4410" /></flowRoot><flowRoot
     xml:space="preserve"
     id="flowRoot4412"
     style="font-style:normal;font-variant:normal;font-weight:bold;font-stretch:normal;font-size:15px;line-height:125%;font-family:Sans;-inkscape-font-specification:'Sans, Bold';text-align:start;letter-spacing:0px;word-spacing:0px;writing-mode:lr-tb;text-anchor:start;fill:#000000;fill-opacity:1;stroke:none;stroke-width:1px;stroke-linecap:butt;stroke-linejoin:miter;stroke-opacity:1"
     transform="translate(-984.9415,1146.3411)"><flowRegion
       id="flowRegion4414"><rect
         id="rect4416"
         width="252.68805"
         height="290.939"
         x="714.01758"
         y="613.6308" /></flowRegion><flowPara
       id="flowPara4418" /></flowRoot><g
     style="opacity:0.5"
     class="st0"
     id="g67"
     transform="matrix(-1,0,0,1,-1186.1097,16.741143)"><linearGradient
       id="SVGID_3_"
       gradientUnits="userSpaceOnUse"
       x1="-739.81"
       y1="1403.3101"
       x2="-739.81"
       y2="1830.92"
       gradientTransform="matrix(1,0,0,-1,0,3002.82)"><stop
         offset="0"
         stop-color="gray"
         stop-opacity=".25"
         id="stop70" /><stop
         offset=".54"
         stop-color="gray"
         stop-opacity=".12"
         id="stop72" /><stop
         offset="1"
         stop-color="gray"
         stop-opacity=".1"
         id="stop74" /></linearGradient></g><path
     style="fill:#f0f0f0;fill-opacity:1"
     inkscape:connector-curvature="0"
     class="st2"
     d="m -253.49209,1210.487 -380.99874,0 0,299.2924 380.99874,0 z"
     id="path78" /><g
     id="g4956"
     transform="translate(-24.67326,-23.716795)"><g
       transform="matrix(-1,0,0,1,-1159.1682,39.800019)"
       id="g80"
       class="st0"
       style="opacity:0.5"><path
         id="path82"
         d="m -912,1210.1 344.3,0 0,267.3 -344.3,0 z"
         class="st3"
         inkscape:connector-curvature="0"
         style="fill:#03bd5b;fill-opacity:1" /></g><g
       transform="matrix(-1,0,0,1,-1159.1682,39.800019)"
       id="g84"
       class="st0"
       style="opacity:0.5"><linearGradient
         gradientTransform="matrix(1,0,0,-1,-59.03,2884.12)"
         y2="1531.092"
         x2="-595.26001"
         y1="1531.092"
         x1="-746.58002"
         gradientUnits="userSpaceOnUse"
         id="SVGID_4_"><stop
           id="stop87"
           stop-opacity=".25"
           stop-color="gray"
           offset="0" /><stop
           id="stop89"
           stop-opacity=".12"
           stop-color="gray"
           offset=".54" /><stop
           id="stop91"
           stop-opacity=".1"
           stop-color="gray"
           offset="1" /></linearGradient><path
         id="path93"
         d="m -659.8,1427.5 5.6,0 -1.7,-17.8 -0.2,0 c 1.1,-10.9 2.6,-59.1 -49.2,-78.3 l -4.6,-3.1 -0.3,0.3 0,-13 c 3.4,-3 6.3,-6.7 8.3,-10.8 l 0,1.3 c 4.6,-4.9 8.3,-10.5 11.2,-16.6 -2.7,5 -6,9.7 -9.9,13.9 l 0,-0.1 c 6.5,-7.4 33.1,-41.9 -9.3,-66.7 -47.8,-27.9 -56.8,18.9 -56.8,18.9 l 3.8,5.1 c 0,0 -9.2,18.5 -9.2,27.3 0,15.7 9.9,29.8 24.8,35 l 0,11.1 c -3.4,1.3 -51.4,19.8 -51.4,75.6 l -6.7,17.8 2.2,1 0,49.6 109,0 c 0,0 6.7,-52.8 4.5,-70.6 l 6.7,4.4 0,15.6 1.5,0 0,0.4 -0.4,0 0.4,1.4 0,47.7 21.9,0 0,-47.7 0.2,-1.4 -0.2,0 -0.2,-0.3 z m -123.7,4.1 0.2,-4.1 -0.2,4.1 z"
         style="fill:url(#SVGID_4_)"
         inkscape:connector-curvature="0" /></g><path
       id="path95"
       d="m -412.3682,1356.7 -35.6,0 0,52.2 35.6,0 z"
       class="st5"
       inkscape:connector-curvature="0"
       style="fill:#fda57d" /><path
       id="path97"
       d="m -413.5682,1365 c -3.7,1.3 -5.3,2.4 -9.5,2.4 -8.8,0 -17.2,-3.2 -23.7,-9.1 l 0,-0.4 33.2,0 0,7.1 z"
       class="st6"
       inkscape:connector-curvature="0" /><circle
       transform="scale(-1,1)"
       id="circle99"
       r="35.599998"
       cy="1330.6001"
       cx="424.26819"
       class="st5"
       style="fill:#fda57d" /><path
       id="path101"
       d="m -426.6682,1313.3 -29.3,11.5 0,22 c 0,0 -38.2,-38.5 7.6,-65.3 41.2,-24 48.6,4.9 53.8,10.5 0.5,0.5 0.5,1.4 -0.1,1.9 -5,4.7 -9.3,23.9 -32,19.4 z"
       inkscape:connector-curvature="0"
       style="fill:#4d4545" /><path
       id="path103"
       d="m -475.4682,1464.3 -21,0 0,52.2 21,0 z"
       class="st5"
       inkscape:connector-curvature="0"
       style="fill:#fda57d" /><path
       id="path105"
       d="m -473.9682,1449.4 0,14.9 -27.8,0 1.7,-17.1 z"
       class="st2"
       inkscape:connector-curvature="0"
       style="fill:#ffffff" /><path
       id="path107"
       d="m -358.8682,1464.3 0,53.3 -17,0 -2,-49.4 z"
       class="st5"
       inkscape:connector-curvature="0"
       style="fill:#fda57d" /><path
       id="path109"
       d="m -424.9682,1389.7 12.4,-14.9 c 0,0 49.4,17.1 49.4,72.5 l -14.9,17.1 2.1,53.3 -87.4,0 c 0,0 -6.4,-55.4 -4.3,-72.5 l -6.4,4.3 -25.6,0 c 0,0 -9.8,-59.7 52,-78.9 l 22.7,19.1 z"
       inkscape:connector-curvature="0"
       style="fill:#235067" /><path
       id="path111"
       d="m -363.0682,1447.2 6.4,17.1 -21,9.6 -0.4,-9.6 z"
       class="st2"
       inkscape:connector-curvature="0"
       style="fill:#ffffff" /><path
       id="path113"
       d="m -403.7682,1380.7 -8.4,18.8 -12,-9.9 11.6,-13.6 z"
       class="st6"
       inkscape:connector-curvature="0" /><path
       id="path115"
       d="m -403.7682,1379.4 -8.4,18.8 -12,-9.8 11.6,-13.7 z"
       class="st2"
       inkscape:connector-curvature="0"
       style="fill:#ffffff" /><path
       id="path117"
       d="m -448.2682,1370.5 -7.7,5.1 21.6,20.4 7.6,-6.6 z"
       class="st6"
       inkscape:connector-curvature="0" /><path
       id="path119"
       d="m -448.2682,1369.3 -7.7,5.1 21.6,20.3 7.6,-6.6 z"
       class="st2"
       inkscape:connector-curvature="0"
       style="fill:#ffffff" /><path
       id="path121"
       d="m -379.5682,1459.6 c 0,-16.5 -5.3,-32.6 -15.3,-45.8 m -70,33.1 0,-7.7 -7.6,5.1 5.1,-1.2 z m -10.2,17.8 -0.4,1.4 -20.9,0 -0.3,-1.4 z m 116.2,0.6 0,1.4 -18.7,8.1 0.5,-1.2 z m -107.8,-133.1 c 2.6,4.8 5.8,9.3 9.5,13.3 l 0,-22 29.3,-11.5 c 21.9,4.4 25.4,-13.2 31.5,-18.9 0.5,-0.5 1.4,-0.5 1.9,0.1 0.5,0.5 0.5,1.4 -0.1,1.9 -5.1,4.8 -9.4,24 -32.1,19.4 l -29.3,11.5 0,22 c -4.4,-4.7 -8,-10 -10.7,-15.8 z"
       class="st6"
       inkscape:connector-curvature="0" /><ellipse
       transform="scale(-1,1)"
       id="ellipse123"
       ry="5.9000001"
       rx="3.5999999"
       cy="1330.6001"
       cx="457.26819"
       class="st5"
       style="fill:#fda57d" /></g></svg>