<svg version="1.1" id="_x37_47ad91c-18bb-4936-b655-cddf352f94cc" xmlns="http://www.w3.org/2000/svg" x="0" y="0" viewBox="-1942 2500 1029.7 340.4" xml:space="preserve"><style>.st0{fill:#f0f0f0}.st1{opacity:.5}.st2{fill:#03bd5b}.st4{fill:#fda57d}.st5{enable-background:new}.st5,.st6{opacity:5.000000e-02}.st7{fill:#4d8af0}.st8{fill:#fff}.st11{fill:#3ad29f}.st12{fill:#ff0}</style><path id="path78-0-6" class="st0" d="M-912.3 2500h-381v299.3h381V2500z"/><path id="path78-0" class="st0" d="M-1561.8 2502.3h-381v299.3h381v-299.3z"/><g id="g4420" transform="translate(-24.526 -24.204)"><g id="g18" class="st1"><path id="path20" class="st2" d="M-1250.4 2538.3h344.3v267.3h-344.3v-267.3z"/></g><g id="g22" class="st1"><linearGradient id="path31_1_" gradientUnits="userSpaceOnUse" x1="-1063.622" y1="2829.239" x2="-927.744" y2="2829.239" gradientTransform="translate(-83.556 -140.084)"><stop offset="0" stop-color="gray" stop-opacity=".25"/><stop offset=".54" stop-color="gray" stop-opacity=".12"/><stop offset="1" stop-color="gray" stop-opacity=".1"/></linearGradient><path id="path31" d="M-1013 2722.3c-.2-10.5-4.5-20.6-12-28-6.8-6.6-15.8-14.3-25.7-18.9h-.1c-4.2-2-8.6-3.4-13.2-4V2655c3.4-3 6.1-6.6 8.2-10.6v1.3s15.7-15.8 15.3-34.4c.2-11.2-5.1-23.5-23.2-34-41.8-24.4-57.8 11.1-60.9 19.3-.2.4-.3.8-.4 1.2l-.1.4c-.1.4-.1.8 0 1.2v.7c0 2.7 2.3 5.3 6.3 7.3-11.2 16.8-6.8 39.5 10 50.7 2.6 1.7 5.3 3.1 8.2 4.1v10.5l-.8-1.5s-5.6 3.3-12.8 8.5c-12.1 8.6-28.7 22.2-31.2 33.5-4 18 0 94.2 0 94.2l134.1 2-1.7-87.1zm-110.8-119.9l.1.1-.1-.1zm.5.6l.1.1-.1-.1zm.5.5l.1.1-.1-.1zm4.5 3l.1.1-.1-.1zm-3.9-2.4l.2.1-.2-.1zm.6.5l.2.1-.2-.1zm.8.5l.2.2-.2-.2zm.8.5l.3.2-.3-.2zm.8.5l.3.2-.3-.2z" fill="url(#path31_1_)"/></g><path id="path33" class="st4" d="M-1100 2655.6h35.6v52.2h-35.6v-52.2z"/><path id="path35" class="st5" d="M-1098.8 2663.9c3.7 1.3 5.3 2.4 9.5 2.4 8.8 0 17.2-3.2 23.7-9.1v-.4h-33.2v7.1z"/><circle id="circle37" class="st4" cx="-1088.2" cy="2629.5" r="35.6"/><ellipse id="ellipse39" cx="-1092.1" cy="2601.3" rx="31.8" ry="12.1"/><path id="path41" d="M-1085.7 2605.8l29.3 17.8v22s38.2-38.6-7.6-65.3c-45.8-26.7-59.8 20.4-59.8 20.4s12.6 10.2 38.1 5.1z"/><ellipse id="ellipse43" class="st4" cx="-1055.1" cy="2629.5" rx="3.6" ry="5.9"/><g id="g45" class="st6"><path id="path47" d="M-1056.4 2623.6l-19.5-11.8c-5.3 1.1-10.7 1.7-16.1 1.7-17.1 0-31-5.1-31.8-11.6v.7c0 6.7 14.2 12.1 31.8 12.1 5.4 0 10.8-.5 16.2-1.7l19.5 11.8-.1-1.2zm0 22.1v1.3s15.2-15.4 14.9-33.5c-.4 17.4-14.9 32.2-14.9 32.2z"/></g><path id="path49" class="st7" d="M-1100.8 2671.8s-38.9 23.4-42.8 40.9c-3.9 17.5 0 91.6 0 91.6l130.4 2-1.7-84.8c-.2-10.3-4.4-20-11.7-27.2-9.7-9.6-24.5-21.3-39.2-22.4l-17.5 33.1-17.5-33.2z"/><path id="path51" class="st5" d="M-1118.8 2711.4s-10.2 53.4-1.3 70m75.1-70s10.2 53.4 1.3 70"/><path id="path53" class="st8" d="M-1101 2672l37-.6-24.2 61.6-12.8-61z"/><path id="path55" class="st8" d="M-1101 2668.1v3.9h36.9l.1-3.9h-37z"/><path id="path57" d="M-1085.7 2668.1h5.1v5.1h-5.1v-5.1z"/><path id="path59" class="st7" d="M-1101 2672l-7.6 7.6 16.5 28.2-8.9-35.8zm35.6 2.5l6.4 6.4-19.1 25.4 12.7-31.8z"/><path id="path61" d="M-1101 2672l-7.6 7.6 16.5 28.2-8.9-35.8zm35.6 2.5l6.4 6.4-19.1 25.4 12.7-31.8z" opacity=".1" fill="#fff"/><path id="path63" d="M-1083.2 2670.7l-20.3 85.8 12.7 19.1 16.5-19.1-8.9-85.8z"/></g><g id="g142" transform="matrix(-1 0 0 1 -1197.85 -63.316)" class="st1"><path id="path144" class="st2" d="M380.5 2580.5h344.3v267.3H380.5v-267.3z"/></g><g id="g5008"><g id="g146" transform="matrix(-1 0 0 1 -1197.85 -63.316)" class="st1"><linearGradient id="path155_1_" gradientUnits="userSpaceOnUse" x1="2201.22" y1="2895.533" x2="2376.52" y2="2895.533" gradientTransform="matrix(-1 0 0 1 2679.12 -179.196)"><stop offset="0" stop-color="gray" stop-opacity=".25"/><stop offset=".54" stop-color="gray" stop-opacity=".12"/><stop offset="1" stop-color="gray" stop-opacity=".1"/></linearGradient><path id="path155" d="M584 2747.4l1-.8 1.4-1.1 66.8-49.6-23-91.8v-.3c.2-2.8 1.3-24.5-10.5-20.6-11.4 3.8-7.2 19.8-6.4 22.5l.1.4 14.6 77.2-46.4 27.1-6.4-.7c7.3-10.1 11.2-22.2 11.1-34.7 0-28.8-19.6-52.2-43.8-52.2-24.2 0-43.8 23.3-43.8 52.2 0 21.6 11 40.1 26.7 48l-16.6 8.3v.1c-4.8-1-22.8-.7-15.5 65.6 1.8 16.1-2 32.2-10.8 45.8l-4.6 6.4 114.3.7h.3c.2.1-16-25.9-8.5-102.5z" fill="url(#path155_1_)"/></g><path id="path157" class="st11" d="M-1708.8 2668.7s23.6-10.2 16.7 59.8c-1.9 18.7 2.7 37.4 12.9 53.2l1.5 2.2h-21.9l-16.5-17.5 7.3-97.7zm-117.9-125.2v-.3l16.5 1.9-.1.4-14.3 75.7 49.1 28.6-2 36.8-71.6-53.2 22.4-89.9z"/><ellipse id="ellipse159" class="st12" cx="-1740.8" cy="2613" rx="42.9" ry="51.1"/><path id="path161" class="st4" d="M-1731.6 2630.4h-30.7v45h30.7v-45z"/><path id="path163" class="st11" d="M-1740.8 2668.3l8.2-12.3 24.5 12.3v20.3s8.9 15.7 1.7 33.8c2 26.6 7.4 61.4 7.4 61.4l-90.9.7s16.4-26.2 8.2-103.9l2-32.7 18.4-2 20.5 22.4z"/><path id="path165" class="st5" d="M-1779.6 2647.8l-2.1 2.1-2 32.2 2.4 1.8 1.7-36.1zm47-10.2c-3.2 1.1-4.6 2-8.2 2-7.6 0-14.8-2.8-20.5-7.9v-.3h28.6l.1 6.2z"/><circle id="circle167" class="st4" cx="-1741.8" cy="2607.9" r="30.7"/><ellipse id="ellipse169" class="st4" cx="-1772.5" cy="2607.9" rx="3.1" ry="5.1"/><path id="path171" class="st5" d="M-1714.9 2598.3v1.5h-52.7v1.4h53.4l-.7-2.9z"/><path id="path173" class="st12" d="M-1714.2 2574.2h-53.2v26.6h53.2v-26.6z"/><path id="path175" class="st4" d="M-1816.3 2523.1c11.2 3.7 7.1 19.4 6.3 22.1l-16.5-1.9c-.3-2.8-1.3-24.1 10.2-20.2z"/><g id="g177" transform="matrix(-1 0 0 1 -1197.85 -63.316)" class="st6"><path id="path179" d="M502.9 2847.1s5.4-34.8 7.4-61.4c-7.2-18 1.7-33.8 1.7-33.8v-20.3l22.9-11.4-.5-.8-24.5 12.3v20.3s-8.9 15.8-1.7 33.8c-2 26.6-7.4 61.4-7.4 61.4l90.9.7-88.8-.8zm41.8-115.5l20.3-22.3-2-.2-19.2 21.1.9 1.4z"/></g><path id="path181" class="st5" d="M-1724.8 2661l-15.7 36.2-28.8-49.4 8-1.1 19.7 19.8 8.8-9.9 8 4.4z"/><path id="path183" class="st8" d="M-1724.8 2659.9l-15.7 36.2-28.8-49.4 8-1.1 19.7 19.8 8.8-9.9 8 4.4z"/></g><path id="path78" class="st0" d="M-1237.5 2541.1h-381v299.3h381v-299.3z"/><g id="g4956" transform="translate(-24.673 -23.717)"><g id="g80" transform="matrix(-1 0 0 1 -1159.168 39.8)" class="st1"><path id="path82" class="st2" d="M72 2540.7h344.3V2808H72v-267.3z"/></g><g id="g84" transform="matrix(-1 0 0 1 -1159.168 39.8)" class="st1"><linearGradient id="path93_1_" gradientUnits="userSpaceOnUse" x1="2514.739" y1="2783.281" x2="2665.939" y2="2783.281" gradientTransform="matrix(-1 0 0 1 2693.13 -99.797)"><stop offset="0" stop-color="gray" stop-opacity=".25"/><stop offset=".54" stop-color="gray" stop-opacity=".12"/><stop offset="1" stop-color="gray" stop-opacity=".1"/></linearGradient><path id="path93" d="M324.2 2758.1h5.6l-1.7-17.8h-.2c1.1-10.9 2.6-59.1-49.2-78.3l-4.6-3.1-.3.3v-13c3.4-3 6.3-6.7 8.3-10.8v1.3c4.6-4.9 8.3-10.5 11.2-16.6-2.7 5-6 9.7-9.9 13.9v-.1c6.5-7.4 33.1-41.9-9.3-66.7-47.8-27.9-56.8 18.9-56.8 18.9l3.8 5.1s-9.2 18.5-9.2 27.3c0 15.7 9.9 29.8 24.8 35v11.1c-3.4 1.3-51.4 19.8-51.4 75.6l-6.7 17.8 2.2 1v49.6h109s6.7-52.8 4.5-70.6l6.7 4.4v15.6h1.5v.4h-.4l.4 1.4v47.7h21.9v-47.7l.2-1.4h-.2l-.2-.3zm-123.7 4.1l.2-4.1-.2 4.1z" fill="url(#path93_1_)"/></g><path id="path95" class="st4" d="M-1396.4 2687.3h-35.6v52.2h35.6v-52.2z"/><path id="path97" class="st5" d="M-1397.6 2695.6c-3.7 1.3-5.3 2.4-9.5 2.4-8.8 0-17.2-3.2-23.7-9.1v-.4h33.2v7.1z"/><circle id="circle99" class="st4" cx="-1408.3" cy="2661.2" r="35.6"/><path id="path101" d="M-1410.7 2643.9l-29.3 11.5v22s-38.2-38.5 7.6-65.3c41.2-24 48.6 4.9 53.8 10.5.5.5.5 1.4-.1 1.9-5 4.7-9.3 23.9-32 19.4z" fill="#4d4545"/><path id="path103" class="st4" d="M-1459.5 2794.9h-21v52.2h21v-52.2z"/><path id="path105" class="st8" d="M-1458 2780v14.9h-27.8l1.7-17.1 26.1 2.2z"/><path id="path107" class="st4" d="M-1342.9 2794.9v53.3h-17l-2-49.4 19-3.9z"/><path id="path109" d="M-1409 2720.3l12.4-14.9s49.4 17.1 49.4 72.5l-14.9 17.1 2.1 53.3h-87.4s-6.4-55.4-4.3-72.5l-6.4 4.3h-25.6s-9.8-59.7 52-78.9l22.7 19.1z" fill="#235067"/><path id="path111" class="st8" d="M-1347.1 2777.8l6.4 17.1-21 9.6-.4-9.6 15-17.1z"/><path id="path113" class="st5" d="M-1387.8 2711.3l-8.4 18.8-12-9.9 11.6-13.6 8.8 4.7z"/><path id="path115" class="st8" d="M-1387.8 2710l-8.4 18.8-12-9.8 11.6-13.7 8.8 4.7z"/><path id="path117" class="st5" d="M-1432.3 2701.1l-7.7 5.1 21.6 20.4 7.6-6.6-21.5-18.9z"/><path id="path119" class="st8" d="M-1432.3 2699.9l-7.7 5.1 21.6 20.3 7.6-6.6-21.5-18.8z"/><path id="path121" class="st5" d="M-1363.6 2790.2c0-16.5-5.3-32.6-15.3-45.8m-70 33.1v-7.7l-7.6 5.1 5.1-1.2 2.5 3.8zm-10.2 17.8l-.4 1.4h-20.9l-.3-1.4h21.6zm116.2.6v1.4l-18.7 8.1.5-1.2 18.2-8.3zm-107.8-133.1c2.6 4.8 5.8 9.3 9.5 13.3v-22l29.3-11.5c21.9 4.4 25.4-13.2 31.5-18.9.5-.5 1.4-.5 1.9.1.5.5.5 1.4-.1 1.9-5.1 4.8-9.4 24-32.1 19.4l-29.3 11.5v22c-4.4-4.7-8-10-10.7-15.8z"/><ellipse id="ellipse123" class="st4" cx="-1441.3" cy="2661.2" rx="3.6" ry="5.9"/></g></svg>