<?xml version="1.0" encoding="UTF-8" standalone="no"?>
<svg
   xmlns:dc="http://purl.org/dc/elements/1.1/"
   xmlns:cc="http://creativecommons.org/ns#"
   xmlns:rdf="http://www.w3.org/1999/02/22-rdf-syntax-ns#"
   xmlns:svg="http://www.w3.org/2000/svg"
   xmlns="http://www.w3.org/2000/svg"
   xmlns:sodipodi="http://sodipodi.sourceforge.net/DTD/sodipodi-0.dtd"
   xmlns:inkscape="http://www.inkscape.org/namespaces/inkscape"
   inkscape:version="1.0 (4035a4f, 2020-05-01)"
   sodipodi:docname="jeune.svg"
   version="1.1"
   width="500"
   viewBox="0 0 500 518.56152"
   height="518.56152"
   enable-background="new 0 0 512 512"
   id="Layer_1">
  <metadata
     id="metadata75">
    <rdf:RDF>
      <cc:Work
         rdf:about="">
        <dc:format>image/svg+xml</dc:format>
        <dc:type
           rdf:resource="http://purl.org/dc/dcmitype/StillImage" />
      </cc:Work>
    </rdf:RDF>
  </metadata>
  <defs
     id="defs73" />
  <sodipodi:namedview
     inkscape:current-layer="Layer_1"
     inkscape:window-maximized="1"
     inkscape:window-y="24"
     inkscape:window-x="65"
     inkscape:cy="172.96318"
     inkscape:cx="-215.50669"
     inkscape:zoom="0.70158251"
     showgrid="false"
     id="namedview71"
     inkscape:window-height="1000"
     inkscape:window-width="1215"
     inkscape:pageshadow="2"
     inkscape:pageopacity="0"
     guidetolerance="10"
     gridtolerance="10"
     objecttolerance="10"
     borderopacity="1"
     bordercolor="#666666"
     pagecolor="#ffffff" />
  <path
     sodipodi:nodetypes="cccssczzc"
     style="fill:#66cedb;fill-opacity:1;stroke:#000000;stroke-width:10;stroke-miterlimit:4;stroke-dasharray:none;stroke-opacity:1"
     id="path2"
     fill="#64c0f4"
     d="m 168.67907,501.38431 c 83.51328,30.77442 178.91342,-4.97752 197.32856,-18.06194 41.60896,-26.7625 93.34943,-78.3537 105.41232,-111.35182 C 486.53138,340.1529 495,304.5678 495,267.00102 495,131.69102 385.31,22.001015 250,22.001015 114.69,22.001015 5,131.69102 5,267.00102 c 0,38.764 24.860974,107.60894 25.045,108 0.184026,0.39106 27.201388,52.70541 48.110157,70.34369 20.90877,17.63827 26.479533,31.15677 90.523913,56.0396 z" />
  <path
     sodipodi:nodetypes="ccccc"
     id="path4"
     fill="#0f3e4c"
     d="m 175.139,250.06502 h 20.781 v 15.244 h -20.781 z" />
  <path
     sodipodi:nodetypes="ccccc"
     id="path6"
     fill="#0f3e4c"
     d="m 304.098,250.06502 h 20.781 v 15.244 h -20.781 z" />
  <path
     sodipodi:nodetypes="cccccsccsscc"
     id="path8"
     fill="#ebf0f2"
     d="m 178.457,263.76702 c -10.946,16.523 -6.699,36.726 -1.134,50.866 19.444,49.4 71.833,67.94 72.36,68.122 l 0.326,0.112 0.326,-0.112 c 0.527,-0.182 52.917,-18.722 72.361,-68.122 5.564,-14.136 9.81,-34.334 -1.128,-50.855 l -0.164,-0.072 c -7.168,-3.136 -14.908,-4.755 -22.732,-4.755 H 201.33 c -7.824,0 -15.564,1.619 -22.732,4.755 z" />
  <path
     sodipodi:nodetypes="cccccccccccc"
     id="path10"
     fill="#c2d4e6"
     d="m 178.597,263.70602 -0.14,0.061 c -10.947,16.523 -6.699,36.726 -1.135,50.866 19.444,49.4 71.833,67.94 72.361,68.122 l 0.326,0.112 0.326,-0.112 c 0.025,-0.009 0.176,-0.062 0.436,-0.159 -0.254,-0.262 -0.498,-0.524 -0.762,-0.787 -35.707,-35.707 -11.6,-68.535 -11.6,-68.535 l -24.581,-54.324 h -12.499 c -7.825,0.001 -15.564,1.62 -22.732,4.756 z" />
  <path
     sodipodi:nodetypes="cccccccscccccssssccc"
     id="path12"
     fill="#2c2c42"
     d="m 446.111,324.15402 c -5.337,-9.534 -13.807,-16.921 -23.98,-20.907 l -28.23,-11.063 c 3.043,12.015 -3.18,26.801 -18.517,43.96 -22.294,24.941 -55.176,37.523 -78.834,43.686 -25.694,6.693 -46.369,7.473 -46.506,7.48 -0.206,-0.008 -20.841,-0.782 -46.53,-7.469 -23.673,-6.162 -56.574,-18.745 -78.878,-43.698 -15.34,-17.162 -21.563,-31.951 -18.516,-43.968 l -28.249,11.071 c -10.173,3.987 -18.643,11.373 -23.98,20.907 -7.869,14.055 -16.3,31.734 -24.343,49.848 24.49,50.364 65.732,91.072 116.475,114.893 v -25.009 c 0,-6.003 4.911,-10.914 10.914,-10.914 h 186.8 c 6.003,0 10.914,4.911 10.914,10.914 v 24.692 c 50.434,-23.865 91.418,-64.437 115.8,-114.577 -8.042,-18.113 -16.473,-35.792 -24.34,-49.846 z" />
  <path
     sodipodi:nodetypes="sccccccccs"
     id="path14"
     fill="#212135"
     d="m 124.645,342.23202 c 1.271,-0.63 2.352,-1.575 3.142,-2.73 -1.069,-1.097 -2.126,-2.21 -3.152,-3.358 -15.34,-17.162 -21.563,-31.951 -18.516,-43.968 l -28.249,11.071 c -10.173,3.987 -18.643,11.373 -23.98,20.907 -7.868,14.054 -16.299,31.733 -24.342,49.847 12.547,25.803 29.501,49.062 49.867,68.824 4.13,-18.044 10.482,-45.573 14.87,-63.543 5.532,-22.654 23.194,-33.498 30.36,-37.05 z" />
  <path
     style="fill:#f0bc5e;fill-opacity:1"
     sodipodi:nodetypes="scsssscs"
     id="path16"
     fill="#fbcc68"
     d="m 250,512.00102 c 37.834,0 73.663,-8.577 105.652,-23.892 v -26.224 c 0,-6.003 -4.911,-10.914 -10.914,-10.914 H 155.937 c -6.003,0 -10.914,4.911 -10.914,10.914 v 26.54 c 31.818,15.114 67.408,23.576 104.977,23.576 z" />
  <path
     sodipodi:nodetypes="ccsscccc"
     id="path18"
     fill="#efaa42"
     d="m 232.716,475.47102 c 0,-11.588 7.836,-21.427 18.469,-24.5 h -95.247 c -6.003,0 -10.914,4.911 -10.914,10.914 v 26.54 c 26.895,12.775 56.491,20.773 87.693,22.95 v -35.904 z" />
  <path
     sodipodi:nodetypes="cccsscccsc"
     id="path20"
     fill="#c2d4e6"
     d="m 334.483,268.89802 -11.625,-4.556 -1.455,-0.637 c -7.168,-3.136 -14.908,-4.755 -22.732,-4.755 h -97.342 c -7.824,0 -15.564,1.619 -22.732,4.755 l -1.455,0.637 -11.625,4.556 c 9.458,37.861 43.693,65.908 84.483,65.908 40.79,0 75.025,-28.047 84.483,-65.908 z" />
  <path
     sodipodi:nodetypes="cccccccccc"
     id="path22"
     fill="#99b8da"
     d="m 184.679,262.36402 c 0.648,-0.158 1.296,-0.319 1.949,-0.47 0.413,-0.414 0.823,-0.849 1.228,-1.303 -3.161,0.773 -6.262,1.803 -9.259,3.114 l -1.455,0.637 -11.625,4.556 c 7.946,31.809 33.384,56.683 65.502,63.825 1.817,-11.854 7.39,-19.449 7.39,-19.449 l -0.991,-2.19 c -25.53,-4.802 -45.996,-23.928 -52.739,-48.72 z" />
  <path
     sodipodi:nodetypes="csscsc"
     id="path24"
     fill="#e0d3cd"
     d="m 315.998,261.66402 c -5.589,-1.793 -11.434,-2.713 -17.327,-2.713 h -97.342 c -5.893,0 -11.738,0.92 -17.327,2.713 6.868,30.119 33.798,52.602 65.998,52.602 32.2,0 59.13,-22.483 65.998,-52.602 z" />
  <path
     sodipodi:nodetypes="cccccccccsccc"
     style="stroke:#000000;stroke-width:4.1;stroke-miterlimit:4;stroke-dasharray:none;stroke-opacity:1"
     id="path26"
     fill="#ffaa7b"
     d="m 298.039,233.81902 c -8.422,11.921 -19.716,23.061 -34.779,30.347 -4.098,1.982 -8.597,3.076 -13.149,3.085 h -0.102 -0.074 c -4.572,-0.007 -9.088,-1.115 -13.202,-3.108 -15.057,-7.294 -26.344,-18.441 -34.761,-30.366 -3.027,11.208 -8.643,23.416 -15.345,30.117 -0.653,0.151 -1.3,0.311 -1.949,0.47 7.821,28.752 34.092,49.902 65.321,49.902 31.229,0 57.5,-21.15 65.32,-49.902 -0.648,-0.158 -1.296,-0.319 -1.949,-0.47 -6.691,-6.692 -12.302,-18.879 -15.331,-30.075 z" />
  <path
     sodipodi:nodetypes="cccccccccc"
     id="path28"
     fill="#f7996b"
     d="m 254.112,266.69602 c -0.682,0.05 -1.366,0.084 -2.052,0.085 h -0.102 -0.074 c -4.572,-0.007 -9.088,-1.115 -13.202,-3.108 -15.057,-7.294 -28.10778,-13.90557 -36.52478,-25.83057 -3.55497,11.25103 -8.18083,19.85808 -13.7072,26.46346 -0.653,0.151 -1.04904,1.19289 -1.69704,1.35189 6.831,25.113 27.61202,42.66022 53.60402,47.14622 8.441,-14.789 12.168,-32.049 13.755,-46.108 z" />
  <path
     sodipodi:nodetypes="scccccccscccccccccscccs"
     style="stroke:#000000;stroke-width:5.2;stroke-miterlimit:4;stroke-dasharray:none;stroke-opacity:1"
     id="path34"
     fill="#ffbb99"
     d="m 322.694,129.56702 c -0.843,-2.199 -1.905,-4.426 -3.244,-6.527 -2.268,-3.558 -3.265,-7.766 -2.961,-11.962 0.874,-12.068005 0.405,-35.671005 -15.437,-42.800005 -13.46,-6.057 -29.971,-2.55 -40.5,0.952 -6.838,2.274 -14.247,2.274 -21.084,0 -10.529,-3.501 -27.04,-7.008 -40.5,-0.952 -15.888,7.149 -16.314,30.867 -15.43,42.903005 0.306,4.164 -0.719,8.329 -2.969,11.86 -1.24,1.946 -2.243,4 -3.054,6.04 -2.804,7.054 -20.32685,13.32765 -19.29485,20.84865 l 8.76163,28.35099 c -1.20166,6.42987 11.33725,7.65182 13.45553,8.68823 4.42057,18.26487 18.4894,60.85869 56.29669,79.17513 4.114,1.993 8.63,3.101 13.202,3.108 h 0.074 0.102 c 4.552,-0.009 9.051,-1.103 13.149,-3.085 39.54708,-19.12868 53.13979,-64.80785 56.88174,-81.50417 0.75516,-3.36946 9.30488,-1.28249 9.39002,-1.83478 0,-0.05 4.63438,-5.8004 4.63438,-5.8504 L 325.084,151.12802 c 0.997,-7.273 0.24,-14.7 -2.39,-21.561 z" />
  <path
     sodipodi:nodetypes="cccccccc"
     style="stroke:#000000;stroke-width:5.6;stroke-miterlimit:4;stroke-dasharray:none;stroke-opacity:1"
     id="path30"
     fill="#ffaa7b"
     d="m 339.146,137.59102 c -3.685,-3.377 -11.024,-1.665 -14.198,0.403 0.695,4.329 -5.67907,9.11534 -6.28007,13.48834 l -4.38566,25.84965 c 0,2.199 5.79773,5.42501 5.66973,7.54401 9.132,2.754 14.856,-5.444 15.62,-11.07 0.329,-2.422 0.867,-4.809 1.613,-7.138 2.43,-7.586 11.193,-20.616 1.961,-29.077 z" />
  <path
     sodipodi:nodetypes="cccccccc"
     style="stroke:#000000;stroke-width:5.6;stroke-miterlimit:4;stroke-dasharray:none;stroke-opacity:1"
     id="path32"
     fill="#f7996b"
     d="m 160.873,137.59102 c 3.685,-3.377 11.025,-1.665 14.198,0.403 -0.695,4.329 22.07057,7.33365 22.67157,11.70665 l -10.22415,32.62006 c 0,2.199 -7.33442,0.43629 -7.20742,2.55529 -9.132,2.754 -15.1,-5.444 -15.865,-11.07 -0.329,-2.422 -0.867,-4.809 -1.613,-7.138 -2.429,-7.586 -11.192,-20.616 -1.96,-29.077 z" />
  <path
     sodipodi:nodetypes="cccccccccscccccccccc"
     id="path36"
     fill="#ffaa7b"
     d="m 233.35534,175.19498 -2.367,-27.047 c -0.658,-7.521 -0.164,-15.219 1.623,-22.274 0.517,-2.04 1.156,-4.094 1.946,-6.04 1.434,-3.531 2.087,-7.696 1.892,-11.86 -0.522,-11.151 -0.321,-32.317 7.761,-41.057 -1.116,-0.247 -2.227,-0.531 -3.319,-0.894 -10.529,-3.501 -27.039,-7.008 -40.499,-0.952 -15.888,7.149 -16.314,30.867 -15.43,42.903 0.306,4.164 -0.719,8.329 -2.969,11.86 -1.24,1.946 -2.243,4 -3.054,6.04 -2.805,7.054 -3.579,14.753 -2.547,22.274 3.83799,5.91156 -2.17183,-7.17294 2.28865,23.83996 0,0 10.67335,67.30504 59.47735,90.94904 4.114,1.993 8.63,3.101 13.202,3.108 h 0.074 0.101 c 4.552,-0.009 9.051,-1.103 13.149,-3.085 1.186,-0.574 2.341,-1.177 3.481,-1.797 -29.19,-24.912 -34.81,-85.968 -34.81,-85.968 z" />
  <g
     transform="translate(-6,0.00101536)"
     id="g44"
     fill="#404051">
    <path
       sodipodi:nodetypes="ccccscscccccccccccscccccccscsccccccc"
       id="path38"
       d="m 357.101,84.053 c 4.637,-0.706 9.742,-4.356 12.55,-6.635 1.01,-0.82 0.801,-2.392 -0.367,-2.964 -21.943,-10.737 -35.126,-45.543 -52.964,-56.591 -15.267,-9.456 -28.432,-4.01 -32.576,-1.812 -0.771,0.409 -1.733,0.185 -2.241,-0.524 -5.894,-8.215 -15.677,-13.09 -21.424,-15.394 -1.534,-0.615 -2.997,1.004 -2.231,2.469 2.538,4.856 3.607,8.811 4.054,11.42 0.242,1.416 -1.236,2.51 -2.524,1.873 -19.243,-9.511 -53.461,-2.74 -74.35,22.801 -17.38,21.251 -30.772,24.437 -35.6,24.842 -1.093,0.092 -1.84,1.148 -1.559,2.208 1.871,7.066 9.088,11.643 12.143,13.302 0.849,0.461 1.203,1.538 0.718,2.373 -1.45,2.497 -4.549,4.011 -6.368,4.72 -0.811,0.316 -1.262,1.175 -1.071,2.024 1.755,7.813 10.035,43.237 18.801,56.97 6.111,9.574 5.88863,0.41409 7.54963,8.88809 0.236,1.204 5.19603,-1.04202 5.28203,-2.26602 0.652,-9.245 1.95434,-0.0851 2.32334,-14.20607 0.453,-17.324 15.587,-27.505 22.483,-31.254 1.331,-0.724 2.895,0.465 2.568,1.944 l -0.942,4.267 c -0.27,1.224 0.785,2.339 2.02,2.133 51.692,-8.649 70.674,-26.509 77.605,-37.641 0.484,-0.778 1.428,-1.124 2.301,-0.844 0.798,0.256 1.34,0.988 1.381,1.825 1.616,33.261 27.332,37.314 31.042,52.069 3.044,12.106 6.18534,2.8064 5.59934,13.6444 -0.08,1.482 -0.634,1.342 0,0 8.063,-17.056 5.57466,-7.6994 18.38766,-23.2854 10.411,-12.664 15.255,-20.972 17.098,-24.502 0.509,-0.974 -0.01,-2.139 -1.055,-2.478 -4.68,-1.514 -7.845,-4.324 -9.715,-6.484 -0.906,-1.047 -0.291,-2.683 1.081,-2.892 z" />
    <path
       id="path40"
       d="m 374.375,268.267 c -2.888,-0.98 -5.375,-2.902 -7.027,-5.465 -5.727,-8.883 -22.785,-27.978 -57.249,-12.738 0,0 37.167,14.658 17.667,64.201 -19.5,49.543 -71.756,67.543 -71.756,67.543 v 6.5 c 0,0 82.62,-2.833 126.12,-51.5 41.595,-46.536 5.877,-63.914 -7.755,-68.541 z" />
    <path
       id="path42"
       d="m 137.643,268.267 c 2.888,-0.98 5.375,-2.902 7.027,-5.465 5.728,-8.883 22.785,-27.978 57.25,-12.738 0,0 -37.167,14.658 -17.667,64.201 19.5,49.543 71.756,67.543 71.756,67.543 v 6.5 c 0,0 -82.62,-2.833 -126.12,-51.5 -41.596,-46.536 -5.878,-63.914 7.754,-68.541 z" />
  </g>
  <path
     sodipodi:nodetypes="ccccccccc"
     id="path46"
     fill="#2c2c42"
     d="m 127.167,340.30202 c 0.642,-0.724 1.158,-1.558 1.502,-2.478 6.108,-16.363 20.38,-7.976 27.95,-21.493 8,-14.284 19.11,-9.299 19.11,-9.299 -13.311,-43.748 20.192,-56.967 20.192,-56.967 -34.465,-15.24 -51.522,3.855 -57.25,12.738 -1.652,2.563 -4.139,4.485 -7.027,5.465 -13.632,4.626 -49.35,22.005 -7.754,68.541 1.067,1.195 2.164,2.353 3.277,3.493 z" />
  <path
     sodipodi:nodetypes="sccsss"
     id="path48"
     fill="#212135"
     d="m 370.652,416.64002 v 63.637 c 5.118,-2.902 10.12,-5.985 15,-9.236 v -54.401 c 0,-4.143 -3.358,-7.5 -7.5,-7.5 -4.142,0 -7.5,3.358 -7.5,7.5 z" />
  <path
     sodipodi:nodetypes="sssccs"
     id="path50"
     fill="#212135"
     d="m 130.023,416.64002 c 0,-4.143 -3.358,-7.5 -7.5,-7.5 -4.142,0 -7.5,3.357 -7.5,7.5 v 54.851 c 4.88,3.228 9.884,6.282 15,9.162 z" />
  <circle
     id="circle52"
     r="13.759"
     fill="#2c2c42"
     cy="356.177"
     cx="324.271" />
  <circle
     id="circle54"
     r="13.759"
     fill="#2c2c42"
     cy="356.177"
     cx="175.728" />
  <path
     sodipodi:nodetypes="sssssss"
     id="path56"
     fill="#545460"
     d="m 324.271,351.78402 c -4.142,0 -7.5,3.357 -7.5,7.5 v 109.692 c 0,4.143 3.358,7.5 7.5,7.5 4.142,0 7.5,-3.357 7.5,-7.5 v -109.692 c 0,-4.142 -3.358,-7.5 -7.5,-7.5 z" />
  <path
     sodipodi:nodetypes="sssssss"
     id="path58"
     fill="#ebf0f2"
     d="m 324.271,446.43602 c -5.688,0 -10.3,4.611 -10.3,10.3 v 16.234 c 0,5.689 4.611,10.3 10.3,10.3 5.688,0 10.3,-4.611 10.3,-10.3 v -16.234 c 0,-5.689 -4.612,-10.3 -10.3,-10.3 z" />
  <path
     sodipodi:nodetypes="sssssss"
     id="path60"
     fill="#545460"
     d="m 175.728,351.78402 c -4.142,0 -7.5,3.357 -7.5,7.5 v 109.692 c 0,4.143 3.358,7.5 7.5,7.5 4.142,0 7.5,-3.357 7.5,-7.5 v -109.692 c 0,-4.142 -3.358,-7.5 -7.5,-7.5 z" />
  <path
     sodipodi:nodetypes="sssssss"
     id="path62"
     fill="#ebf0f2"
     d="m 175.728,446.43602 c -5.688,0 -10.3,4.611 -10.3,10.3 v 16.234 c 0,5.689 4.611,10.3 10.3,10.3 5.689,0 10.3,-4.611 10.3,-10.3 v -16.234 c 0,-5.689 -4.611,-10.3 -10.3,-10.3 z" />
  <path
     sodipodi:nodetypes="scssscs"
     id="path64"
     fill="#c2d4e6"
     d="m 324.271,467.26902 c -5.688,0 -10.3,-4.611 -10.3,-10.3 v 16 c 0,5.689 4.612,10.3 10.3,10.3 5.689,0 10.3,-4.611 10.3,-10.3 v -16 c 0,5.69 -4.612,10.3 -10.3,10.3 z" />
  <path
     sodipodi:nodetypes="scssscs"
     id="path66"
     fill="#c2d4e6"
     d="m 175.728,467.26902 c -5.688,0 -10.3,-4.611 -10.3,-10.3 v 16 c 0,5.689 4.611,10.3 10.3,10.3 5.689,0 10.3,-4.611 10.3,-10.3 v -16 c 0,5.69 -4.611,10.3 -10.3,10.3 z" />
  <path
     sodipodi:nodetypes="ccccccccccscccccccc"
     id="path68"
     fill="#2c2c42"
     d="m 235.118,48.948015 c -25.434,-20.282 18.26,-33.051 18.26,-33.051 -19.243,-9.5109996 -53.461,-2.74 -74.35,22.801 -17.38,21.251 -30.772,24.437 -35.6,24.842 -1.093,0.092 -1.84,1.148 -1.559,2.208 1.871,7.066 9.088,11.643 12.143,13.302 0.849,0.461 1.203,1.538 0.718,2.373 -1.45,2.497 -4.549,4.011 -6.368,4.72 -0.811,0.316 -1.262,1.175 -1.071,2.024 1.755,7.813 10.035,43.237005 18.801,56.970005 6.111,9.574 6.6013,0.77043 8.2623,9.24443 0.236,1.204 5.55237,-0.68569 5.63837,-1.90969 0.652,-9.245 0.88533,-0.79774 1.25333,-14.91874 0.453,-17.324 15.587,-27.505 22.483,-31.254 1.331,-0.724 2.895,0.465 2.568,1.944 l -0.942,4.267 c -0.27,1.224 0.785,2.339 2.021,2.133 10.472,-1.752 19.581,-3.887 27.54,-6.262 -11.018,-27.716005 25.633,-39.153005 0.202,-59.433005 z" />
  <path
     d="m 237.74648,126.19539 -1.44695,21.62085 c -2.82891,7.01376 -1.21884,15.74693 3.82455,44.06726 -0.53195,15.84281 -0.34198,10.41512 8.75075,29.70358 1.17307,19.13205 2.95025,6.74426 8.38928,23.77556 4.552,-0.009 7.26931,14.2195 11.36731,12.2375 39.54708,-19.12868 47.08206,-63.02616 50.82401,-79.72248 0.75516,-3.36946 3.60348,-14.82331 3.68862,-15.3756 0,-0.05 1.93995,-11.32404 1.93995,-11.37404 l -0.136,-13.134 C 319.10035,114.471 262.31997,84.024898 237.74648,126.19539 Z"
     fill="#ffbb99"
     id="path34-3"
     style="stroke:none;stroke-width:5.2;stroke-miterlimit:4;stroke-dasharray:none;stroke-opacity:1"
     sodipodi:nodetypes="ccccccscccc" />
</svg>
