<svg height="512" viewBox="0 0 58 58" width="512" xmlns="http://www.w3.org/2000/svg"><g id="Page-1" fill="none" fill-rule="evenodd"><g id="015---User-Network" fill-rule="nonzero"><g fill="#35495e"><path id="Rectangle-path" d="m12.172 42h5.657v2h-5.657z" transform="matrix(.707 -.707 .707 .707 -26.012 23.201)"/><path id="Rectangle-path" d="m42.001 40.172h2v5.657h-2z" transform="matrix(.707 -.707 .707 .707 -17.811 43.001)"/><path id="Rectangle-path" d="m40.172 14h5.657v2h-5.657z" transform="matrix(.707 -.707 .707 .707 1.988 34.799)"/><path id="Rectangle-path" d="m14.001 12.172h2v5.657h-2z" transform="matrix(.707 -.707 .707 .707 -6.213 15.001)"/></g><circle id="Oval" cx="29" cy="29" fill="#285680" r="18"/><path id="Shape" d="m37.98 44.6c-5.5590452 3.2000171-12.4009548 3.2000171-17.96 0 .2083821-2.5964374 2.3752148-4.5979295 4.98-4.6h8c2.6047852.0020705 4.7716179 2.0035626 4.98 4.6z" fill="#955ba5"/><path id="Shape" d="m33 40c-.6033251 1.6908883-2.2046994 2.8197618-4 2.8197618s-3.3966749-1.1288735-4-2.8197618c.8246401-.8576118 1.410691-1.9159508 1.7-3.07.1082144-.4045474.1917021-.815307.25-1.23h4.1c.0582979.414693.1417856.8254526.25 1.23.289309 1.1540492.8753599 2.2123882 1.7 3.07z" fill="#fdd7ad"/><path id="Shape" d="m31.3 36.93c-1.4914841.5066312-3.1085159.5066312-4.6 0 .1082144-.4045474.1917021-.815307.25-1.23h4.1c.0582979.414693.1417856.8254526.25 1.23z" fill="#f9c795"/><path id="Shape" d="m37 29c-.0032948 1.1032019-.8967981 1.9967052-2 2 0 2.76-2.69 5-6 5s-6-2.24-6-5c-1.1045695 0-2-.8954305-2-2s.8954305-2 2-2c-2.56-1.38 11.9-7.97 12.99-4 .3030647 1.413054-.0580692 2.8870699-.98 4 1.1006623.0055034 1.9900138.899324 1.99 2z" fill="#fdd7ad"/><path id="Shape" d="m35.76 25.74c-1.8942447-1.0453863-4.2206406-.909226-5.98.35-2.68 1.63-5.26 1.61-6.78.91-2.56-1.38-3-4.84-3-7.05-.003218-.6519399.0368702-1.3033738.12-1.95 0 0 2.04 2 7.25 2 4.09 0 7.53-.97 8.62 3 .233967.913183.1529283 1.8786002-.23 2.74z" fill="#a56a43"/><circle id="Oval" cx="8" cy="8" fill="#ff5364" r="8"/><circle id="Oval" cx="8" cy="7" fill="#fdd7ad" r="3"/><circle id="Oval" cx="50" cy="8" fill="#ff5364" r="8"/><circle id="Oval" cx="50" cy="7" fill="#fdd7ad" r="3"/><circle id="Oval" cx="8" cy="50" fill="#ff5364" r="8"/><circle id="Oval" cx="8" cy="49" fill="#fdd7ad" r="3"/><circle id="Oval" cx="50" cy="50" fill="#ff5364" r="8"/><circle id="Oval" cx="50" cy="49" fill="#fdd7ad" r="3"/><path id="Shape" d="m12 14v.92c-2.4721303 1.440505-5.5278697 1.440505-8 0v-.92c.00000003-2.209139 1.79086102-3.9999999 4-3.9999999 2.209139 0 4 1.7908609 4 3.9999999z" fill="#f0c419"/><path id="Shape" d="m54 14v.92c-2.4721303 1.440505-5.5278697 1.440505-8 0v-.92c0-2.209139 1.790861-4 4-4s4 1.790861 4 4z" fill="#f0c419"/><path id="Shape" d="m12 56v.92c-2.4721303 1.440505-5.5278697 1.440505-8 0v-.92c.00000003-2.209139 1.79086102-3.9999999 4-3.9999999 2.209139 0 4 1.7908609 4 3.9999999z" fill="#f0c419"/><path id="Shape" d="m54 56v.92c-2.4721303 1.440505-5.5278697 1.440505-8 0v-.92c0-2.209139 1.790861-4 4-4s4 1.790861 4 4z" fill="#f0c419"/></g></g></svg>