<?xml version="1.0" encoding="UTF-8" standalone="no"?>
<svg
   xmlns:dc="http://purl.org/dc/elements/1.1/"
   xmlns:cc="http://creativecommons.org/ns#"
   xmlns:rdf="http://www.w3.org/1999/02/22-rdf-syntax-ns#"
   xmlns:svg="http://www.w3.org/2000/svg"
   xmlns="http://www.w3.org/2000/svg"
   xmlns:sodipodi="http://sodipodi.sourceforge.net/DTD/sodipodi-0.dtd"
   xmlns:inkscape="http://www.inkscape.org/namespaces/inkscape"
   inkscape:version="1.0 (4035a4f, 2020-05-01)"
   sodipodi:docname="jeune2.svg"
   id="svg47"
   version="1.1"
   width="522.34882"
   viewBox="0 0 59.172327 59.0656"
   height="521.40668">
  <metadata
     id="metadata53">
    <rdf:RDF>
      <cc:Work
         rdf:about="">
        <dc:format>image/svg+xml</dc:format>
        <dc:type
           rdf:resource="http://purl.org/dc/dcmitype/StillImage" />
        <dc:title></dc:title>
      </cc:Work>
    </rdf:RDF>
  </metadata>
  <defs
     id="defs51" />
  <sodipodi:namedview
     inkscape:current-layer="svg47"
     inkscape:window-maximized="1"
     inkscape:window-y="24"
     inkscape:window-x="65"
     inkscape:cy="352.51032"
     inkscape:cx="264.12687"
     inkscape:zoom="1.3534466"
     showgrid="false"
     id="namedview49"
     inkscape:window-height="1000"
     inkscape:window-width="1215"
     inkscape:pageshadow="2"
     inkscape:pageopacity="0"
     guidetolerance="10"
     gridtolerance="10"
     objecttolerance="10"
     borderopacity="1"
     bordercolor="#666666"
     pagecolor="#ffffff" />
  <g
     transform="translate(0.5,0.56553698)"
     fill-rule="evenodd"
     fill="none"
     id="Page-1">
    <g
       fill-rule="nonzero"
       id="015---User-Network">
      <g
         id="g9"
         fill="#35495e">
        <path
           style="fill:#000000;fill-opacity:1"
           transform="matrix(0.707,-0.707,0.707,0.707,-26.012,23.201)"
           d="m 12.172,42 h 5.657 v 2 h -5.657 z"
           id="Rectangle-path" />
        <path
           style="fill:#000000;fill-opacity:1"
           transform="matrix(0.707,-0.707,0.707,0.707,-17.811,43.001)"
           d="m 42.001,40.172 h 2 v 5.657 h -2 z"
           id="path3" />
        <path
           style="fill:#000000;fill-opacity:1"
           transform="matrix(0.707,-0.707,0.707,0.707,1.988,34.799)"
           d="m 40.172,14 h 5.657 v 2 h -5.657 z"
           id="path5" />
        <path
           style="fill:#000000;fill-opacity:1"
           transform="matrix(0.707,-0.707,0.707,0.707,-6.213,15.001)"
           d="m 14.001,12.172 h 2 v 5.657 h -2 z"
           id="path7" />
      </g>
      <circle
         style="stroke:#000000;stroke-opacity:1;fill:#66cedb;fill-opacity:1"
         r="18"
         fill="#285680"
         cy="29"
         cx="29"
         id="Oval" />
      <path
         style="fill:#f0bc5e;fill-opacity:1;stroke:#000000;stroke-opacity:1"
         sodipodi:nodetypes="ccccc"
         fill="#955ba5"
         d="M 37.98,44.055961 C 32.420955,47.255978 25.788291,47.297827 20.229246,44.09781 20.437628,41.501373 22.395215,40.002071 25,40 h 8 c 2.604785,0.0021 4.771618,1.459524 4.98,4.055961 z"
         id="Shape" />
      <path
         style="stroke:#000000;stroke-opacity:1"
         fill="#fdd7ad"
         d="m 33,40 c -0.603325,1.690888 -2.204699,2.819762 -4,2.819762 -1.795301,0 -3.396675,-1.128874 -4,-2.819762 0.82464,-0.857612 1.410691,-1.915951 1.7,-3.07 0.108214,-0.404547 0.191702,-0.815307 0.25,-1.23 h 4.1 c 0.0583,0.414693 0.141786,0.825453 0.25,1.23 0.289309,1.154049 0.87536,2.212388 1.7,3.07 z"
         id="path13" />
      <path
         style="stroke:#000000;stroke-opacity:1"
         fill="#fdd7ad"
         d="m 37,29 c -0.0033,1.103202 -0.896798,1.996705 -2,2 0,2.76 -2.69,5 -6,5 -3.31,0 -6,-2.24 -6,-5 -1.10457,0 -2,-0.895431 -2,-2 0,-1.10457 0.89543,-2 2,-2 -2.56,-1.38 11.9,-7.97 12.99,-4 0.303065,1.413054 -0.05807,2.88707 -0.98,4 1.100662,0.0055 1.990014,0.899324 1.99,2 z"
         id="path17" />
      <path
         style="stroke:#000000;stroke-opacity:1"
         fill="#a56a43"
         d="M 35.76,25.74 C 33.865755,24.694614 31.539359,24.830774 29.78,26.09 27.1,27.72 24.52,27.7 23,27 20.44,25.62 20,22.16 20,19.95 19.9968,19.29806 20.03687,18.646626 20.12,18 c 0,0 2.04,2 7.25,2 4.09,0 7.53,-0.97 8.62,3 0.233967,0.913183 0.152928,1.8786 -0.23,2.74 z"
         id="path19" />
      <circle
         style="fill:#f0bc5e;fill-opacity:1;stroke:#000000;stroke-opacity:1"
         r="8"
         fill="#ff5364"
         cy="50"
         cx="8"
         id="circle29" />
      <circle
         style="fill:#66cedb;fill-opacity:1;stroke:#000000;stroke-opacity:1"
         r="3"
         fill="#fdd7ad"
         cy="49"
         cx="8"
         id="circle31" />
      <path
         style="fill:#66cedb;fill-opacity:1;stroke:#000000;stroke-opacity:1"
         fill="#f0c419"
         d="m 12,56 v 0.92 c -2.4721303,1.440505 -5.5278697,1.440505 -8,0 V 56 c 0,-2.209139 1.790861,-4 4,-4 2.209139,0 4,1.790861 4,4 z"
         id="path41" />
    </g>
  </g>
  <circle
     id="circle29-3"
     cx="50.658798"
     cy="8.578476"
     fill="#ff5364"
     r="8"
     style="fill:#f0bc5e;fill-opacity:1;stroke:#000000;stroke-width:1;stroke-opacity:1" />
  <circle
     id="circle31-6"
     cx="50.658798"
     cy="7.578476"
     fill="#fdd7ad"
     r="3"
     style="fill:#66cedb;fill-opacity:1;stroke:#000000;stroke-width:1;stroke-opacity:1" />
  <path
     id="path41-7"
     d="m 54.658797,14.578478 v 0.92 c -2.47213,1.440505 -5.52787,1.440505 -8,0 v -0.92 c 0,-2.20914 1.790861,-4 4,-4 2.209139,0 4,1.79086 4,4 z"
     fill="#f0c419"
     style="fill:#66cedb;fill-opacity:1;stroke:#000000;stroke-width:1;stroke-opacity:1" />
  <circle
     id="circle29-5"
     cx="8.7913094"
     cy="8.5"
     fill="#ff5364"
     r="8"
     style="fill:#f0bc5e;fill-opacity:1;stroke:#000000;stroke-width:1;stroke-opacity:1" />
  <circle
     id="circle31-3"
     cx="8.7913094"
     cy="7.5"
     fill="#fdd7ad"
     r="3"
     style="fill:#66cedb;fill-opacity:1;stroke:#000000;stroke-width:1;stroke-opacity:1" />
  <path
     id="path41-5"
     d="m 12.791311,14.499997 v 0.92 c -2.472132,1.440505 -5.5278715,1.440505 -8.0000018,0 v -0.92 c 0,-2.20914 1.790861,-3.999998 4,-3.999998 2.2091398,0 4.0000018,1.790858 4.0000018,3.999998 z"
     fill="#f0c419"
     style="fill:#66cedb;fill-opacity:1;stroke:#000000;stroke-width:1;stroke-opacity:1" />
  <circle
     id="circle29-6"
     cx="50.672325"
     cy="50.516525"
     fill="#ff5364"
     r="8"
     style="fill:#f0bc5e;fill-opacity:1;stroke:#000000;stroke-width:1;stroke-opacity:1" />
  <circle
     id="circle31-2"
     cx="50.672325"
     cy="49.516525"
     fill="#fdd7ad"
     r="3"
     style="fill:#66cedb;fill-opacity:1;stroke:#000000;stroke-width:1;stroke-opacity:1" />
  <path
     id="path41-9"
     d="m 54.672321,56.516526 v 0.92 c -2.47213,1.440505 -5.527869,1.440505 -8,0 v -0.92 c 0,-2.20914 1.790861,-4 4,-4 2.209139,0 4,1.79086 4,4 z"
     fill="#f0c419"
     style="fill:#66cedb;fill-opacity:1;stroke:#000000;stroke-width:1;stroke-opacity:1" />
</svg>
