<?xml version="1.0" encoding="UTF-8" standalone="no"?>
<svg
   xmlns:dc="http://purl.org/dc/elements/1.1/"
   xmlns:cc="http://creativecommons.org/ns#"
   xmlns:rdf="http://www.w3.org/1999/02/22-rdf-syntax-ns#"
   xmlns:svg="http://www.w3.org/2000/svg"
   xmlns="http://www.w3.org/2000/svg"
   xmlns:sodipodi="http://sodipodi.sourceforge.net/DTD/sodipodi-0.dtd"
   xmlns:inkscape="http://www.inkscape.org/namespaces/inkscape"
   version="1.1"
   id="Calque_12"
   x="0px"
   y="0px"
   width="1600px"
   height="1300px"
   viewBox="0 0 1600 1300"
   enable-background="new 0 0 1600 1300"
   xml:space="preserve"
   sodipodi:docname="jeune.svg"
   inkscape:version="1.0 (4035a4f, 2020-05-01)"><metadata
   id="metadata71"><rdf:RDF><cc:Work
       rdf:about=""><dc:format>image/svg+xml</dc:format><dc:type
         rdf:resource="http://purl.org/dc/dcmitype/StillImage" /></cc:Work></rdf:RDF></metadata><defs
   id="defs69" /><sodipodi:namedview
   inkscape:document-rotation="0"
   pagecolor="#ffffff"
   bordercolor="#666666"
   borderopacity="1"
   objecttolerance="10"
   gridtolerance="10"
   guidetolerance="10"
   inkscape:pageopacity="0"
   inkscape:pageshadow="2"
   inkscape:window-width="1215"
   inkscape:window-height="1000"
   id="namedview67"
   showgrid="false"
   inkscape:zoom="1.5630769"
   inkscape:cx="480.07325"
   inkscape:cy="474.95024"
   inkscape:window-x="65"
   inkscape:window-y="24"
   inkscape:window-maximized="1"
   inkscape:current-layer="Calque_12" />
<g
   id="g12">
	<path
   fill="#FFC291"
   d="M869.782,577.754L869.782,577.754C869.814,577.779,869.799,577.767,869.782,577.754z"
   id="path2" />
	<path
   fill="#7D4E5B"
   d="M1331.98,1217H1434V898h-102.916C1331.301,1009.516,1331.867,1182.736,1331.98,1217z"
   id="path4"
   style="fill:#0f0689;fill-opacity:1" />
	<path
   style="fill:#0f0689;fill-opacity:1"
   fill="#FF9947"
   d="M1410.789,673.343C1394.41,697.36,1331,792.804,1331,830.667c0,15.226,0.025,35.699,0.069,59.333H1434   v-94.638C1431.877,768.749,1428.153,718.805,1410.789,673.343z"
   id="path6" />
	<path
   fill="#FFC291"
   d="M869.781,577.754L869.781,577.754C869.766,577.741,869.748,577.729,869.781,577.754z"
   id="path8" />
	<path
   sodipodi:nodetypes="ccccscccccccccccccccccccccccccccccccccsc"
   style="fill:#0f0689;fill-opacity:1"
   fill="#FF9947"
   d="m 1407.188,664.45 c -6.672,-15.546 -15.082,-30.333 -25.743,-43.19 -2.854,-3.443 -7.013,-6.738 -10.19,-9.883 -21.166,-20.931 -47.141,-31.611 -77.612,-33.219 -3.354,-0.211 -6.76,-0.322 -10.224,-0.314 -0.834,0.002 -2.635,0.007 -4.68,0.013 -3.081,-0.049 -6.33,-0.103 -7.629,-0.103 -0.017,0.013 -0.021,0.016 -0.02,0.014 0,10e-4 0,-10e-4 0.02,-0.014 l -44.547,-0.104 c -1.703,-0.052 -3.417,-0.084 -5.146,-0.079 -1.65,0.003 -7.076,0.021 -10.722,0.031 l 0.258,0.269 c -1.882,0.005 -3.54,0.009 -4.392,0.009 -25.988,18.703 -53.782,30.426 -81.425,39.389 -18.778,6.087 -37.501,9.771 -55.614,10.476 -18.113,-0.704 -36.836,-4.389 -55.614,-10.476 -20.659,-6.699 -41.403,-14.941 -61.415,-26.485 -5.076,-3.094 -10.107,-6.401 -15.076,-9.973 l -0.301,0.313 c -1.55,-1.059 -3.095,-2.137 -4.633,-3.243 -0.688,0 -1.907,-0.003 -3.34,-0.006 l 0.263,-0.273 c -3.597,-0.01 -8.396,-0.027 -9.932,-0.029 -1.729,-0.005 -3.442,0.027 -5.146,0.079 l -44.546,0.104 c 0.017,0.013 0.032,0.025 -0.001,0 -2.429,0 -11.698,0 -13.905,-0.004 -7.862,-0.02 -15.438,0.545 -22.728,1.691 -24.511,3.674 -45.814,13.736 -63.646,30.542 -3.17,2.989 -7.29,6.122 -10.137,9.396 -10.76979,12.37947 -25.91367,41.6259 -25.91367,41.6259 0,0 28.54187,23.19719 41.99089,35.8601 2.729,2.699 6.274,5.528 8.725,8.484 37.229,44.897 42.432,117.174 45.069,149.458 V 1217 h 1 l 493.74378,0 c -0.142,-42.646 -0.98,-299.58 -0.98,-386.333 0,-43.813 74.748,-152.649 84.188,-166.217 z"
   id="path10" />
</g>
<g
   id="g20">
	<g
   id="g18">
		<g
   id="g16">
			<path
   sodipodi:nodetypes="cccccsccssccccccccccc"
   fill="#0f0689"
   d="m 724.536,311.998 c -4.437,-14.029 -11.128,-27.471 -18.384,-39.483 -0.549,-1.117 -1.199,-2.165 -1.927,-3.141 -9.096,-14.56 -18.822,-26.805 -25.956,-35.091 -2.816,-3.355 -5.772,-6.623 -8.862,-9.799 -0.851,-0.888 -1.412,-1.455 -1.632,-1.675 l -0.069,-0.069 c -0.031,-0.03 -0.046,-0.045 -0.046,-0.045 v 0 C 629.381,184.403 571.489,160 506.701,160 c -50.81,0 -97.375,15.011 -133.567,39.958 -0.003,0.001 -0.005,0.002 -0.008,0.004 C 369.57,201.87 328.539,231 304.992,272.517 223.145,439.077 229.145,533 243.145,572 c 10.561,29.418 54.913,60.77 142,78 12.9,0.496 -80.521,-85.672 -43.852,-241.38 61.72597,-9.4747 100.01081,-89.5237 108.15604,-89.19518 C 493.59938,380.89093 570.19507,401.68266 670.192,410.063 705.948,564.861 613.14,650.495 626,650 713.087,632.77 757.439,601.418 768,572 780.853,536.196 786.952,454.091 724.536,311.998 Z"
   id="path14" />
		</g>
	</g>
</g>

<path
   sodipodi:nodetypes="cccccccccssccccccscccccc"
   fill="#F2C3B1"
   d="m 646.49725,565.80289 c 26.857,-39.572 16.59756,-143.66775 16.59756,-143.66775 -86.93834,-12.28877 -151.51482,-16.98001 -214.79968,-83.45608 -50.29716,76.95483 -97.68234,79.1455 -98.03328,79.07152 0,0 -14.90885,113.90642 12.03815,153.60942 13.263,19.541 30.108,36.876 48.721,50.93 30.905,23.112 66.599,37.151 98.808,37.151 51.874,-0.002 101.29425,-41.51811 136.66825,-93.63811 z M 562.376,554 c -2.902,6.586 -18.645,41 -51.266,41 h -0.27 c -32.621,0 -48.359,-34.414 -51.265,-41 -0.266,-0.601 -0.139,-0.407 -0.139,-0.407 0.052,-0.254 0.529,-0.647 0.529,-0.647 l 6.753,-4.571 c 0,0 0.409,-0.196 0.644,-0.157 0.107,0.02 0.429,0.027 0.806,0.503 3.002,3.779 16.195,18.191 42.808,18.191 26.613,0 39.807,-14.413 42.809,-18.192 0.381,-0.477 0.703,-0.477 0.806,-0.497 0.238,-0.04 0.643,0.167 0.643,0.167 l 6.754,4.582 c 0,0 0.48,0.367 0.528,0.621 -10e-4,0 0.126,-0.194 -0.14,0.407 z"
   id="path32"
   style="fill:#0f0689;fill-opacity:1" />
<path
   sodipodi:nodetypes="scccccccscccccsccccccsscc"
   fill="#7D4E5B"
   d="m 1070.782,567.439 c 40.414,0 86.323,-22.096 121.365,-56.502 9.805,-9.669 18.752,-20.303 26.479,-31.688 26.857,-39.572 29.109,-136.933 29.109,-136.933 -9.3265,-4.72762 -154.3436,8.12033 -254.8072,-89.57396 1.92433,3.34805 -60.17838,79.61482 -99.2178,89.55796 0,35.585 1.373,75.044 14.738,109.52 3.725,9.479 8.363,18.576 14.148,27.101 35.374,52.116 96.307,88.518 148.186,88.518 z M 1020.051,461.84 c 0.051,-0.254 0.528,-0.606 0.528,-0.606 l 6.753,-4.55 c 0,0 0.409,-0.186 0.644,-0.147 0.107,0.02 0.429,0.032 0.806,0.508 3.002,3.779 16.195,18.194 42.809,18.194 26.614,0 39.807,-14.412 42.809,-18.191 0.381,-0.477 0.702,-0.476 0.806,-0.496 0.237,-0.04 0.643,0.167 0.643,0.167 l 6.754,4.582 c 0,0 0.48,0.284 0.528,0.539 0,0 0.127,-0.276 -0.139,0.325 -2.902,6.586 -18.646,40.835 -51.266,40.835 h -0.27 c -32.621,0 -48.359,-34.25 -51.266,-40.835 -0.266,-0.601 -0.139,-0.325 -0.139,-0.325 z"
   id="path34"
   style="fill:#0f0689;fill-opacity:1" />
<path
   fill="#4545CE"
   d="M1076.784,302.05"
   id="path36" />
<path
   fill="#4545CE"
   d="M1076.784,302.05"
   id="path38" />
<path
   fill="#39B54A"
   d="M245.064,699.564"
   id="path40" />
<g
   id="g46">
	<g
   id="g44">
		
	</g>
</g>
<g
   id="g58">
	<path
   fill="#CFCFF7"
   d="M772.932,705.35c-2.45-2.956-5.996-5.785-8.725-8.484c-19.784-19.563-44.539-28.817-73.768-28.821   c-0.116-0.119-65.761-0.169-66.498-0.169c-1.792,1.353-3.596,2.65-5.406,3.924c-8.979,6.317-18.182,11.688-27.502,16.354   c-0.167,0.084-0.333,0.169-0.499,0.252c-1.115,0.555-2.232,1.096-3.35,1.631c-0.3,0.144-0.6,0.289-0.899,0.431   c-1.032,0.489-2.066,0.968-3.101,1.44c-0.393,0.18-0.785,0.359-1.178,0.536c-0.964,0.436-1.93,0.863-2.896,1.286   c-0.472,0.206-0.945,0.411-1.418,0.614c-0.905,0.39-1.812,0.774-2.718,1.153c-0.541,0.226-1.081,0.448-1.622,0.67   c-0.849,0.349-1.699,0.695-2.548,1.035c-0.619,0.247-1.238,0.489-1.857,0.731c-0.78,0.306-1.559,0.612-2.339,0.911   c-0.717,0.274-1.435,0.542-2.152,0.812c-0.691,0.259-1.382,0.521-2.073,0.774c-0.866,0.318-1.732,0.628-2.598,0.938   c-0.551,0.198-1.103,0.399-1.653,0.595c-1.422,0.502-2.845,0.996-4.267,1.479c-1.611,0.548-3.221,1.068-4.831,1.572   c-0.231,0.072-0.462,0.146-0.693,0.219c-1.542,0.477-3.084,0.932-4.625,1.368c-0.268,0.075-0.536,0.15-0.803,0.225   c-1.555,0.434-3.109,0.849-4.661,1.238c-0.186,0.047-0.371,0.091-0.556,0.137c-3.261,0.809-6.513,1.521-9.753,2.133   c-0.189,0.035-0.378,0.073-0.567,0.107c-1.564,0.29-3.125,0.555-4.683,0.797c-0.216,0.033-0.432,0.066-0.648,0.099   c-1.578,0.238-3.153,0.456-4.723,0.645c-0.119,0.015-0.239,0.026-0.358,0.04c-1.641,0.193-3.278,0.363-4.91,0.5h-0.001   c-2.025,0.171-4.043,0.299-6.052,0.381c-2.041-0.083-4.091-0.215-6.149-0.39c-1.659-0.141-3.323-0.313-4.991-0.511   c-0.072-0.009-0.143-0.016-0.214-0.024c-1.593-0.191-3.191-0.413-4.792-0.656c-0.192-0.029-0.385-0.058-0.577-0.088   c-1.568-0.244-3.14-0.512-4.714-0.804c-0.183-0.034-0.366-0.07-0.549-0.104c-3.241-0.612-6.494-1.326-9.756-2.136   c-0.178-0.045-0.356-0.087-0.534-0.132c-1.547-0.389-3.096-0.803-4.646-1.234c-0.274-0.076-0.548-0.153-0.822-0.23   c-1.532-0.434-3.064-0.887-4.598-1.36c-0.238-0.074-0.476-0.15-0.713-0.225c-1.602-0.502-3.204-1.021-4.807-1.565   c-1.426-0.485-2.853-0.98-4.28-1.484c-0.509-0.18-1.018-0.366-1.527-0.549c-0.912-0.327-1.824-0.653-2.736-0.988   c-0.652-0.239-1.303-0.486-1.955-0.73c-0.759-0.284-1.519-0.568-2.277-0.858c-0.745-0.285-1.489-0.578-2.233-0.87   c-0.658-0.257-1.316-0.515-1.973-0.777c-0.816-0.326-1.632-0.66-2.448-0.994c-0.577-0.236-1.153-0.474-1.729-0.714   c-0.879-0.368-1.758-0.741-2.636-1.119c-0.5-0.215-1.001-0.432-1.501-0.65c-0.941-0.412-1.882-0.829-2.822-1.253   c-0.422-0.19-0.843-0.383-1.265-0.575c-1.01-0.463-2.019-0.93-3.026-1.407c-0.328-0.155-0.655-0.313-0.983-0.47   c-1.093-0.523-2.185-1.053-3.274-1.596c-0.2-0.1-0.4-0.201-0.6-0.302c-9.311-4.667-18.503-10.036-27.473-16.352   c-1.788-1.259-3.57-2.542-5.34-3.878c-0.939,0-3.013,0.072-5.182,0.066c-2.35-0.008-61.18,0.001-61.288,0.146   c-29.192,0.022-54.016,9.234-73.78,28.778c-2.728,2.699-6.282,5.527-8.732,8.483c-9.12,10.999-16.318,23.642-22.028,36.937   C236.442,770.173,290,850.499,290,887v330h153c45.368-0.004,152.278,0.496,197.745,0.5c1.208,0,2.389-0.179,3.55-0.5H722V887   c0-36.5,53.561-116.826,72.955-144.714C789.245,728.992,782.052,716.349,772.932,705.35z"
   id="path48"
   style="fill:#0f0689;fill-opacity:1" />
	<path
   fill="#CFCFF7"
   d="M798.542,751.221C777.594,781.803,730,854.825,730,887v56h88v-88.191   C816.152,832.188,813.043,789.935,798.542,751.221z"
   id="path50"
   style="fill:#0f0689;fill-opacity:1" />
	<rect
   x="730"
   y="951"
   fill="#F2C3B1"
   width="88"
   height="266"
   id="rect52"
   style="fill:#0f0689;fill-opacity:1" />
	<path
   fill="#CFCFF7"
   d="M194,854.809V943h88v-56c0-32.175-47.593-105.197-68.542-135.779   C198.957,789.935,195.848,832.188,194,854.809z"
   id="path54"
   style="fill:#0f0689;fill-opacity:1" />
	<rect
   x="194"
   y="951"
   fill="#F2C3B1"
   width="88"
   height="266"
   id="rect56"
   style="fill:#0f0689;fill-opacity:1" />
</g>
<g
   id="g64">
	<g
   id="g62">
		<path
   d="M1070.802,98c-1.588,0-3.157,0.022-4.717,0.054c-0.049,0.001-0.099,0.002-0.147,0.003    c-67.906,1.455-85.604,10.276-159.604-7.058c-0.301,25.116,3.468,46.699,11.333,59.333    c-18.452,20.801-18.678,45.894-22.167,67.167c-4.331,26.401-2.5,107.071-2.5,107.071c0.432-0.056,0.859-0.1,1.298-0.175    c0.015-0.002,0.03-0.005,0.045-0.007c17.43-3.018,40.958-23.056,60.574-44.405c0.008-0.009,0.016-0.017,0.023-0.025    c0.582-0.634,1.16-1.269,1.735-1.905c0.05-0.055,0.1-0.11,0.149-0.165c0.545-0.603,1.085-1.205,1.622-1.808    c0.078-0.088,0.157-0.177,0.236-0.265c0.515-0.579,1.025-1.158,1.533-1.738c0.098-0.111,0.194-0.222,0.292-0.333    c0.491-0.562,0.979-1.123,1.463-1.684c0.111-0.13,0.224-0.259,0.335-0.389c0.467-0.543,0.931-1.084,1.391-1.626    c0.126-0.148,0.252-0.296,0.377-0.445c0.45-0.531,0.897-1.062,1.34-1.591c0.127-0.151,0.252-0.302,0.378-0.453    c0.437-0.524,0.87-1.046,1.3-1.568c0.129-0.157,0.257-0.313,0.386-0.47c0.425-0.518,0.847-1.034,1.264-1.549    c0.127-0.156,0.251-0.312,0.377-0.467c0.413-0.511,0.823-1.021,1.228-1.529c0.126-0.158,0.249-0.314,0.374-0.471    c0.405-0.511,0.81-1.02,1.206-1.526c0.1-0.127,0.197-0.253,0.297-0.38c0.415-0.532,0.829-1.063,1.235-1.589    c0.066-0.086,0.131-0.172,0.197-0.258c1.852-2.407,3.6-4.754,5.226-7.017c0.054-0.075,0.11-0.151,0.163-0.225    c0.288-0.402,0.567-0.796,0.848-1.192c0.151-0.215,0.307-0.432,0.456-0.645c0.244-0.347,0.479-0.687,0.717-1.029    c0.177-0.255,0.357-0.513,0.53-0.766c0.218-0.316,0.427-0.626,0.639-0.938c0.185-0.271,0.37-0.544,0.55-0.812    c0.197-0.293,0.387-0.581,0.578-0.87c0.185-0.278,0.369-0.556,0.548-0.829c0.185-0.282,0.362-0.558,0.541-0.835    c0.175-0.271,0.35-0.542,0.52-0.808c0.17-0.268,0.335-0.531,0.5-0.794c0.169-0.27,0.337-0.539,0.501-0.804    c0.154-0.251,0.306-0.499,0.455-0.745c0.161-0.266,0.321-0.53,0.477-0.791c0.142-0.239,0.281-0.474,0.418-0.708    c0.15-0.258,0.299-0.513,0.443-0.765c0.13-0.227,0.258-0.451,0.382-0.673c0.141-0.249,0.276-0.494,0.409-0.737    c0.117-0.213,0.232-0.425,0.344-0.633c0.13-0.241,0.254-0.477,0.376-0.711c0.104-0.2,0.207-0.398,0.306-0.593    c0.116-0.229,0.227-0.453,0.335-0.675c0.092-0.188,0.185-0.377,0.271-0.56c0.104-0.217,0.198-0.427,0.294-0.636    c0.079-0.175,0.16-0.352,0.234-0.521c0.09-0.208,0.171-0.406,0.253-0.604c0.065-0.159,0.134-0.32,0.194-0.474    c0.077-0.199,0.145-0.387,0.214-0.577c0.051-0.141,0.106-0.285,0.151-0.42c0.065-0.191,0.118-0.37,0.173-0.551    c0.036-0.121,0.078-0.247,0.109-0.362c0.053-0.192,0.092-0.37,0.132-0.549c0.021-0.09,0.048-0.188,0.064-0.275    c0.051-0.259,0.088-0.504,0.108-0.733c0,0,59.653,97.407,253.598,98.104c0.763,0.003,1.525,0.006,2.288,0.009    c0,0,1.573-86.978-4.886-113.501C1226.114,141.693,1153.794,98,1070.802,98z"
   id="path60"
   style="fill:#0f0689;fill-opacity:1" />
	</g>
</g>
</svg>
