<?xml version="1.0" encoding="utf-8"?>
<!-- Generator: Adobe Illustrator 16.0.0, SVG Export Plug-In . SVG Version: 6.00 Build 0)  -->
<!DOCTYPE svg PUBLIC "-//W3C//DTD SVG 1.1//EN" "http://www.w3.org/Graphics/SVG/1.1/DTD/svg11.dtd">
<svg version="1.1" id="Calque_1" xmlns="http://www.w3.org/2000/svg" xmlns:xlink="http://www.w3.org/1999/xlink" x="0px" y="0px"
	 width="2120.16px" height="989.276px" viewBox="0 0 2120.16 989.276" enable-background="new 0 0 2120.16 989.276"
	 xml:space="preserve">
<rect fill="none" width="2120.16" height="989.276"/>
<rect x="181.708" y="-0.001" fill="#FFF" width="34.361" height="155.991"/>
<rect y="182.22" fill="#FFF" width="155.992" height="34.362"/>
<rect x="1904.091" y="833.284" fill="#FFF" width="34.361" height="155.992"/>
<rect x="1964.169" y="773.686" fill="#FFF" width="155.991" height="34.361"/>
<g>
	<defs>
		<rect id="SVGID_1_" width="2120.16" height="989.276"/>
	</defs>
	<clipPath id="SVGID_2_">
		<use xlink:href="#SVGID_1_"  overflow="visible"/>
	</clipPath>
	<path clip-path="url(#SVGID_2_)" fill="#FFF" d="M296.215,257.494c-11.243,11.974-34.443,16.848-60.279,16.848v-31.457
		c34.823,0,60.644-10.115,79.001-33.316h17.96v252.343h-36.682V257.494z"/>
	<path clip-path="url(#SVGID_2_)" fill="#FFF" d="M430.238,257.494c-11.242,11.974-34.442,16.848-60.278,16.848v-31.457
		c34.823,0,60.644-10.115,79.001-33.316h17.96v252.343h-36.683V257.494z"/>
	<path clip-path="url(#SVGID_2_)" fill="#FFF" d="M513.353,336.114c0-84.622,57.279-131.054,120.924-131.054
		c74.126,0,120.939,46.432,120.939,131.054c0,83.86-56.166,131.785-120.939,131.785
		C560.896,467.899,513.353,419.974,513.353,336.114 M716.278,336.114c0-65.52-33.316-99.216-82.002-99.216
		c-46.051,0-81.987,33.696-81.987,99.216c0,64.772,34.062,99.581,81.987,99.581C681.073,435.695,716.278,400.886,716.278,336.114"/>
	<path clip-path="url(#SVGID_2_)" fill="#FFF" d="M329.393,766.353l-5.605,15.34h-28.456V503.514h37.443v95.088
		c6.353-13.467,26.948-26.583,56.517-26.583c50.94,0,82.382,28.837,82.382,102.964c0,74.126-40.429,112.697-90.608,112.697
		C357.483,787.68,338.747,779.073,329.393,766.353 M332.774,739.39c9.72,14.974,29.187,18.341,44.178,18.341
		c37.809,0,56.531-33.331,56.531-80.875c0-47.924-15.355-74.507-53.165-74.507c-22.835,0-40.811,9.354-47.544,23.582V739.39z"/>
	<path clip-path="url(#SVGID_2_)" fill="#FFF" d="M512.454,529.716c0-12.735,6.748-19.834,20.596-19.834
		c13.847,0,21.707,7.099,21.707,19.834c0,12.354-7.86,19.103-21.707,19.103C519.202,548.819,512.454,542.071,512.454,529.716
		 M514.327,577.64h37.444v204.053h-37.444V577.64z"/>
	<path clip-path="url(#SVGID_2_)" fill="#FFF" d="M597.441,767.846v-36.698c11.227,13.482,28.821,25.837,58.771,25.837
		c31.076,0,44.573-13.848,44.573-31.076c0-18.357-9.368-24.725-34.823-29.203l-13.863-2.62
		c-35.189-6.368-56.151-23.582-56.151-60.294c0-34.428,25.836-61.772,75.619-61.772c28.456,0,49.418,8.607,59.532,19.85v36.683
		c-11.226-15.722-30.314-26.202-58.77-26.202c-28.837,0-42.319,11.242-42.319,28.456c0,17.595,8.988,25.09,34.077,29.584
		l13.848,2.62c37.078,6.733,59.167,21.326,59.167,58.771c0,34.458-25.837,65.9-79.763,65.9
		C627.024,787.68,607.175,777.946,597.441,767.846"/>
	<polygon clip-path="url(#SVGID_2_)" fill="#FFF" points="855.955,211.355 878.23,211.355 878.23,338.673 937.631,338.673 
		937.631,357.892 855.955,357.892 	"/>
	<path clip-path="url(#SVGID_2_)" fill="#FFF" d="M951.827,327.318c0-24.022,18.344-32.976,52.193-38.654l19.218-3.276
		c0-23.804-9.608-31.884-29.481-31.884c-19,0-32.758,10.046-37.782,22.494v-22.931c3.932-6.988,15.943-17.47,41.276-17.47
		c31.665,0,47.826,15.942,47.826,50.009v72.286h-20.092l-1.528-12.012c-3.713,6.989-14.196,15.506-32.103,15.506
		C969.298,361.386,951.827,350.903,951.827,327.318 M1023.238,300.02l-17.689,3.712c-23.367,4.805-32.321,10.483-32.321,22.931
		c0,12.447,8.517,18.344,21.62,18.344c14.195,0,24.459-6.551,28.39-12.666V300.02z"/>
	<path clip-path="url(#SVGID_2_)" fill="#FFF" d="M1094.869,348.938l-3.275,8.953h-16.598V195.632h21.839v55.47
		c3.713-7.862,15.724-15.506,32.976-15.506c29.7,0,48.046,16.816,48.046,60.056s-23.587,65.733-52.85,65.733
		C1111.248,361.385,1100.329,356.362,1094.869,348.938 M1096.835,333.214c5.678,8.735,17.034,10.701,25.771,10.701
		c22.056,0,32.975-19.436,32.975-47.171c0-27.953-8.954-43.459-31.011-43.459c-13.321,0-23.804,5.46-27.734,13.759V333.214z"/>
	<path clip-path="url(#SVGID_2_)" fill="#FFF" d="M1249.048,300.237c0-43.24,21.401-64.641,52.412-64.641
		c9.172,0,22.493,1.747,28.39,9.391v-49.355h21.839v162.259h-20.311l-1.528-11.793c-4.148,7.643-14.85,15.287-32.539,15.287
		C1269.357,361.385,1249.048,343.259,1249.048,300.237 M1329.85,263.549c-5.021-8.299-17.034-10.701-25.987-10.701
		c-22.057,0-32.538,19.218-32.538,47.389c0,27.735,8.952,43.241,31.009,43.241c13.759,0,24.241-5.46,27.517-13.54V263.549z"/>
	<path clip-path="url(#SVGID_2_)" fill="#FFF" d="M1376.149,298.491c0-43.895,27.298-62.895,54.159-62.895
		c26.206,0,50.446,12.012,50.446,55.251v14.85h-82.112c1.092,22.494,13.104,37.344,38.217,37.344
		c20.747,0,32.977-8.735,38.873-16.815v20.309c-5.896,6.771-18.345,14.85-40.838,14.85
		C1399.08,361.385,1376.149,341.731,1376.149,298.491 M1459.354,290.192v-3.057c0-22.93-10.701-33.631-29.264-33.631
		c-17.907,0-30.355,14.85-31.229,36.688H1459.354z"/>
	<path clip-path="url(#SVGID_2_)" fill="#FFF" d="M853.771,546.571V409.426h21.62v134.961c0,8.953,3.276,12.885,10.7,12.885
		c5.897,0,9.827-3.058,12.23-6.771v17.689c-2.184,3.058-7.862,6.988-18.126,6.988C862.289,575.179,853.771,564.697,853.771,546.571"
		/>
	<path clip-path="url(#SVGID_2_)" fill="#FFF" d="M910.553,462.493c3.058-5.896,7.425-17.034,8.298-26.206
		c-4.804-1.965-7.206-6.333-7.206-11.574c0-7.644,5.46-12.885,13.102-12.885c7.644,0,12.667,5.241,12.667,13.977
		c0,16.16-10.92,32.102-17.253,38.435L910.553,462.493z"/>
	<path clip-path="url(#SVGID_2_)" fill="#FFF" d="M950.518,512.285c0-43.895,27.297-62.895,54.159-62.895
		c26.206,0,50.446,12.012,50.446,55.251v14.851h-82.112c1.091,22.493,13.103,37.343,38.216,37.343
		c20.748,0,32.977-8.734,38.874-16.815v20.31c-5.897,6.771-18.345,14.851-40.838,14.851
		C973.447,575.179,950.518,555.525,950.518,512.285 M1033.722,503.986v-3.058c0-22.93-10.702-33.63-29.264-33.63
		c-17.907,0-30.356,14.85-31.229,36.688H1033.722z M1017.998,409.426h20.965l-27.08,28.171h-19.436L1017.998,409.426z"/>
	<path clip-path="url(#SVGID_2_)" fill="#FFF" d="M1073.467,514.032c0-43.24,21.402-64.642,52.412-64.642
		c9.172,0,22.494,1.747,28.39,9.391v-49.355h21.839v162.259h-20.31l-1.529-11.793c-4.149,7.644-14.85,15.287-32.539,15.287
		C1093.776,575.179,1073.467,557.053,1073.467,514.032 M1154.269,477.343c-5.022-8.299-17.034-10.701-25.987-10.701
		c-22.057,0-32.539,19.218-32.539,47.39c0,27.734,8.953,43.24,31.01,43.24c13.759,0,24.242-5.46,27.517-13.54V477.343z"/>
	<path clip-path="url(#SVGID_2_)" fill="#FFF" d="M1206.246,526.698v-74.032h21.62v69.882c0,24.678,4.805,35.597,25.77,35.597
		c15.068,0,23.366-7.425,26.643-13.539v-91.94h21.62v119.019h-20.31l-1.311-11.356c-4.368,7.426-15.724,14.851-32.103,14.851
		C1216.073,575.179,1206.246,558.801,1206.246,526.698"/>
	<path clip-path="url(#SVGID_2_)" fill="#FFF" d="M1326.795,512.285c0-43.021,25.77-62.895,55.906-62.895
		c16.815,0,29.045,5.678,34.286,12.23v21.838c-6.77-10.264-16.815-15.286-32.539-15.286c-21.838,0-35.159,15.505-35.159,44.113
		c0,28.608,13.103,44.113,34.941,44.113c16.16,0,27.079-6.77,33.631-16.16v20.31c-5.022,6.77-17.689,14.633-35.815,14.633
		C1349.289,575.18,1326.795,555.525,1326.795,512.285"/>
	<path clip-path="url(#SVGID_2_)" fill="#FFF" d="M1435.987,541.112c0-24.022,18.345-32.977,52.193-38.654l19.218-3.275
		c0-23.804-9.607-31.885-29.48-31.885c-19,0-32.759,10.046-37.782,22.494v-22.93c3.932-6.988,15.942-17.471,41.275-17.471
		c31.665,0,47.826,15.942,47.826,50.01v72.285h-20.092l-1.528-12.011c-3.713,6.988-14.195,15.505-32.103,15.505
		C1453.459,575.179,1435.987,564.697,1435.987,541.112 M1507.398,513.813l-17.689,3.713c-23.366,4.805-32.32,10.482-32.32,22.931
		c0,12.447,8.517,18.344,21.62,18.344c14.194,0,24.459-6.552,28.39-12.666V513.813z"/>
	<path clip-path="url(#SVGID_2_)" fill="#FFF" d="M1564.18,543.077v-72.722h-15.287v-6.333l12.885-11.356l16.597-27.735h7.426
		v27.735h30.356v17.689H1585.8v71.411c0,10.046,3.712,15.506,12.447,15.506c8.518,0,14.851-4.586,18.126-11.138v19.654
		c-3.275,4.586-10.919,9.392-22.931,9.392C1573.133,575.18,1564.18,563.605,1564.18,543.077"/>
	<path clip-path="url(#SVGID_2_)" fill="#FFF" d="M1637.774,424.713c0-7.425,3.93-11.575,12.011-11.575
		c8.08,0,12.666,4.15,12.666,11.575c0,7.207-4.586,11.137-12.666,11.137C1641.704,435.85,1637.774,431.92,1637.774,424.713
		 M1638.865,452.666h21.839v119.019h-21.839V452.666z"/>
	<path clip-path="url(#SVGID_2_)" fill="#FFF" d="M1685.6,512.285c0-43.021,25.988-62.895,56.78-62.895
		c32.103,0,54.159,19.874,54.159,62.895c0,43.24-25.988,62.896-56.78,62.896C1707.875,575.18,1685.6,555.525,1685.6,512.285
		 M1774.482,512.285c0-27.953-11.355-44.987-33.194-44.987c-21.62,0-33.194,17.034-33.194,44.987s11.138,44.769,32.757,44.769
		C1762.689,557.053,1774.482,540.238,1774.482,512.285"/>
	<path clip-path="url(#SVGID_2_)" fill="#FFF" d="M1821.217,452.666h20.311l1.528,11.356c4.367-7.425,16.16-14.632,32.976-14.632
		c30.355,0,42.804,15.068,42.804,46.953v75.342h-21.62v-71.193c0-24.459-7.645-34.286-26.425-34.286
		c-15.068,0-24.459,7.425-27.734,13.54v91.939h-21.839V452.666z"/>
	<path clip-path="url(#SVGID_2_)" fill="#FFF" d="M853.989,666.459H874.3l1.528,11.356c4.367-7.425,16.16-14.632,32.975-14.632
		c30.356,0,42.804,15.068,42.804,46.952v75.343h-21.62v-71.193c0-24.459-7.644-34.286-26.425-34.286
		c-15.068,0-24.459,7.425-27.734,13.54v91.939h-21.839V666.459z"/>
	<path clip-path="url(#SVGID_2_)" fill="#FFF" d="M975.193,754.905c0-24.021,18.344-32.976,52.193-38.652l19.218-3.277
		c0-23.804-9.609-31.884-29.481-31.884c-19,0-32.758,10.046-37.781,22.495v-22.932c3.931-6.988,15.942-17.471,41.275-17.471
		c31.665,0,47.825,15.943,47.825,50.01v72.285h-20.091l-1.528-12.011c-3.713,6.988-14.196,15.505-32.103,15.505
		C992.665,788.973,975.193,778.491,975.193,754.905 M1046.604,727.607l-17.689,3.713c-23.368,4.805-32.321,10.482-32.321,22.931
		c0,12.447,8.517,18.344,21.62,18.344c14.195,0,24.459-6.551,28.39-12.666V727.607z"/>
	<path clip-path="url(#SVGID_2_)" fill="#FFF" d="M1103.386,756.871v-72.722h-15.287v-6.333l12.885-11.356l16.597-27.735h7.426
		v27.735h30.355v17.689h-30.355v71.411c0,10.046,3.712,15.506,12.447,15.506c8.518,0,14.851-4.586,18.126-11.138v19.654
		c-3.275,4.586-10.919,9.391-22.93,9.391C1112.339,788.973,1103.386,777.399,1103.386,756.871"/>
	<path clip-path="url(#SVGID_2_)" fill="#FFF" d="M1176.98,638.506c0-7.425,3.931-11.574,12.011-11.574
		s12.666,4.149,12.666,11.574c0,7.207-4.586,11.138-12.666,11.138S1176.98,645.713,1176.98,638.506 M1178.071,666.459h21.839V785.48
		h-21.839V666.459z"/>
	<path clip-path="url(#SVGID_2_)" fill="#FFF" d="M1224.806,726.079c0-43.021,25.988-62.895,56.78-62.895
		c32.103,0,54.159,19.873,54.159,62.895c0,43.24-25.988,62.895-56.78,62.895C1247.082,788.973,1224.806,769.319,1224.806,726.079
		 M1313.688,726.079c0-27.953-11.356-44.987-33.194-44.987c-21.619,0-33.194,17.034-33.194,44.987s11.137,44.769,32.757,44.769
		C1301.896,770.847,1313.688,754.032,1313.688,726.079"/>
	<path clip-path="url(#SVGID_2_)" fill="#FFF" d="M1360.423,666.459h20.312l1.527,11.356c4.367-7.425,16.16-14.632,32.976-14.632
		c30.355,0,42.804,15.068,42.804,46.952v75.343h-21.62v-71.193c0-24.459-7.644-34.286-26.425-34.286
		c-15.068,0-24.459,7.425-27.734,13.54v91.939h-21.839V666.459z"/>
	<path clip-path="url(#SVGID_2_)" fill="#FFF" d="M1481.627,754.905c0-24.021,18.344-32.976,52.193-38.652l19.218-3.277
		c0-23.804-9.608-31.884-29.481-31.884c-19,0-32.758,10.046-37.78,22.495v-22.932c3.931-6.988,15.941-17.471,41.274-17.471
		c31.665,0,47.825,15.943,47.825,50.01v72.285h-20.091l-1.528-12.011c-3.713,6.988-14.195,15.505-32.103,15.505
		C1499.098,788.973,1481.627,778.491,1481.627,754.905 M1553.038,727.607l-17.688,3.713c-23.368,4.805-32.321,10.482-32.321,22.931
		c0,12.447,8.517,18.344,21.62,18.344c14.194,0,24.459-6.551,28.39-12.666V727.607z"/>
	<path clip-path="url(#SVGID_2_)" fill="#FFF" d="M1604.578,760.365V623.22h21.62v134.961c0,8.955,3.276,12.885,10.7,12.885
		c5.896,0,9.827-3.058,12.229-6.771v17.689c-2.184,3.058-7.861,6.988-18.126,6.988
		C1613.096,788.973,1604.578,778.491,1604.578,760.365"/>
	<path clip-path="url(#SVGID_2_)" fill="#FFF" d="M1661.356,726.079c0-43.896,27.298-62.895,54.159-62.895
		c26.206,0,50.446,12.011,50.446,55.251v14.851h-82.112c1.092,22.493,13.104,37.344,38.217,37.344
		c20.747,0,32.977-8.736,38.873-16.816v20.311c-5.896,6.77-18.345,14.85-40.838,14.85
		C1684.287,788.973,1661.356,769.319,1661.356,726.079 M1744.561,717.78v-3.057c0-22.931-10.701-33.631-29.264-33.631
		c-17.907,0-30.355,14.85-31.229,36.688H1744.561z"/>
</g>
</svg>
