<svg id="Layer_1" data-name="Layer 1" xmlns="http://www.w3.org/2000/svg" viewBox="0 0 119.75 94.33"><defs><clipPath id="clip-path"><path fill="none" d="M-48.24-47.87h595.28v841.89H-48.24z"/></clipPath><style>.cls-2{fill:#1d1e1c}</style></defs><path class="cls-2" d="M.03 18.02h2.31l2.19 3.72 2.18-3.72h2.32v9.05H7.19v-6.44l-2.02 3.33H3.88l-2.02-3.33v6.44H.03v-9.05zM11.55 18.02h1.84v9.05h-1.84zM15.91 18.02h2.36l4.04 6.48v-6.48h1.84v9.05H21.8l-4.05-6.5v6.5h-1.84v-9.05zM26.68 18.02h1.83v9.05h-1.83z"/><g clip-path="url(#clip-path)"><path class="cls-2" d="M31.57 24.58a2.6 2.6 0 002 1.12 1 1 0 001.16-1.05c0-1.62-4.13-1.26-4.13-4.27a2.7 2.7 0 012.89-2.62 4 4 0 013.17 1.52l-1.35 1.21a2.38 2.38 0 00-1.81-1.13 1 1 0 00-1 .95c0 1.61 4.13 1.24 4.13 4.3a2.76 2.76 0 01-3 2.71 4.09 4.09 0 01-3.36-1.51zM37.52 18.02h7.42v1.67h-2.79v7.38h-1.83v-7.38h-2.8v-1.67zM46.56 18h5.27v1.56h-3.44v2.1h2.93v1.56h-2.93v2.28h3.44v1.56h-5.27zm.15-2.52h1.89l1.46 1.74h-1.68zM54 18h2.77c2 0 3.22 1 3.22 2.7a2.47 2.47 0 01-1.45 2.34l2.84 4h-2.23l-2.41-3.65h-.94v3.65H54zm1.84 1.56v2.26h1a1.13 1.13 0 100-2.26zM62.48 18.02h5.27v1.56h-3.43v2.1h2.92v1.56h-2.92v2.26h3.43v1.57h-5.27v-9.05zM0 31.06h3.58a4.53 4.53 0 110 9.05H0zm1.83 1.67v5.71h1.78a2.86 2.86 0 100-5.71zM10.16 31.06h5.28v1.57H12v2.09h2.92v1.56H12v2.27h3.44v1.56h-5.28v-9.05zM20.93 31.06h1.83v7.38h3.44v1.67h-5.27v-9.05zM25.82 34.79l1.16-3.73h1.86l-1.5 3.73h-1.52zM30.26 31.06h5.27v1.57H32.1v2.09H35v1.56h-2.9v2.27h3.43v1.56h-5.27zm1.74-.77l1.46-1.75h1.89l-1.68 1.75zM37.67 31.06h3.55a4.53 4.53 0 110 9.05h-3.55zm1.83 1.67v5.71h1.75a2.86 2.86 0 100-5.71zM53.14 31.06H55v5.51a3.67 3.67 0 11-7.33 0v-5.51h1.84v5.66a1.83 1.83 0 103.66 0zM63.75 37.41l1.45 1.11a4.66 4.66 0 01-3.82 1.85 4.79 4.79 0 113.82-7.73l-1.45 1.12a2.85 2.85 0 00-2.37-1.24 3.07 3.07 0 000 6.13 2.83 2.83 0 002.37-1.24M69 31.06h2.4l3.43 9.05h-2L72 37.76h-3.6l-.86 2.35h-2zm2.44 5.13l-1.24-3.4-1.2 3.4zM74.4 31.06h7.42v1.67h-2.79v7.38h-1.84v-7.38H74.4v-1.67zM83.43 31.06h1.84v9.05h-1.84zM96.63 35.59a4.81 4.81 0 11-4.8-4.79 4.7 4.7 0 014.8 4.79m-1.89 0a2.92 2.92 0 10-2.91 3.06 2.91 2.91 0 002.91-3.06M98.39 31.06h2.35l4.04 6.48v-6.48h1.84v9.05h-2.35l-4.05-6.5v6.5h-1.83v-9.05zM.03 44.11h2.35l4.05 6.48v-6.48h1.83v9.05H5.91l-4.05-6.5v6.5H.03v-9.05zM13.08 44.11h2.41l3.42 9H17l-.87-2.36h-3.65l-.87 2.36H9.66zm2.45 5.13l-1.24-3.4-1.29 3.4zM18.47 44.11h7.42v1.67H23.1v7.38h-1.83v-7.38h-2.8v-1.67zM27.51 44.11h1.84v9.05h-1.84zM40.7 48.63a4.8 4.8 0 11-4.79-4.78 4.69 4.69 0 014.79 4.78m-1.88 0a2.92 2.92 0 10-2.91 3.06 2.91 2.91 0 002.91-3.06M42.46 44.11h2.35l4.05 6.48v-6.48h1.83v9.05h-2.35l-4.04-6.5v6.5h-1.84v-9.05zM55.52 44.11h2.4l3.42 9h-2l-.86-2.36h-3.57L54 53.16h-1.91zM58 49.24l-1.24-3.4-1.24 3.4zM62.74 44.11h1.84v7.38h3.43v1.67h-5.27v-9.05zM69.63 44.11h5.27v1.56h-3.44v2.1h2.93v1.56h-2.93v2.26h3.44v1.57h-5.27v-9.05zM.03 57.16H5.3v1.56H1.86v2.09h2.93v1.57H1.86v2.26H5.3v1.56H.03v-9.04zM6.7 57.16h7.42v1.66h-2.79v7.38H9.49v-7.38H6.7v-1.66zM19.09 57.15h3.56a4.53 4.53 0 110 9.05h-3.56zm1.84 1.67v5.71h1.74a2.86 2.86 0 100-5.71zM29.23 57.16h5.27v1.56h-3.44v2.09h2.92v1.57h-2.92v2.26h3.44v1.56h-5.27v-9.04zM39.99 57.16h1.84v7.37h3.44v1.67h-5.28v-9.04zM49.56 57.15H52l3.43 9.05h-2l-.86-2.35H49l-.87 2.35h-2zM52 62.28l-1.24-3.39-1.24 3.39zM59.3 68.45a3 3 0 01-.72 0v-1.67a2.07 2.07 0 00.46 0c.82 0 1.24-.35 1.24-1.28v-8.35h1.84v8.3c0 2-.93 3-2.82 3M64.65 57.16h5.27v1.56h-3.43v2.09h2.92v1.57h-2.92v2.26h3.43v1.56h-5.27v-9.04zM77.34 57.15h1.84v5.51a3.67 3.67 0 11-7.33 0v-5.51h1.84v5.66a1.83 1.83 0 103.65 0zM81.45 57.16h2.36l4.04 6.47v-6.47h1.84v9.04h-2.35l-4.05-6.5v6.5h-1.84v-9.04zM92.22 57.16h5.27v1.56h-3.43v2.09h2.92v1.57h-2.92v2.26h3.43v1.56h-5.27v-9.04zM100.14 63.72a2.62 2.62 0 002 1.11 1 1 0 001.16-1c0-1.61-4.14-1.25-4.14-4.26a2.7 2.7 0 012.9-2.62 4 4 0 013.17 1.52l-1.35 1.2a2.39 2.39 0 00-1.81-1.12 1 1 0 00-1 .94c0 1.62 4.13 1.24 4.13 4.31a2.76 2.76 0 01-3 2.71A4.1 4.1 0 0198.81 65zM107.52 63.72a2.62 2.62 0 002 1.11 1 1 0 001.16-1c0-1.61-4.14-1.25-4.14-4.26a2.7 2.7 0 012.9-2.62 4 4 0 013.17 1.52l-1.35 1.2a2.39 2.39 0 00-1.81-1.12 1 1 0 00-1 .94c0 1.62 4.13 1.24 4.13 4.31a2.76 2.76 0 01-3 2.71 4.1 4.1 0 01-3.39-1.51zM114.48 57.16h5.27v1.56h-3.44v2.09h2.92v1.57h-2.92v2.26h3.44v1.56h-5.27v-9.04zM29.47 91.21c.24 0 .46.18.35.66l-1.15.26c.2-.53.53-.92.8-.92m.63 1.84h-.23a1.38 1.38 0 01-.89.6c-.31 0-.47-.19-.47-.6a2.76 2.76 0 010-.51l1.84-.6c.36-.85-.07-1.22-.58-1.22-.77 0-1.77 1.45-1.77 2.72 0 .57.28.89.7.89s1-.49 1.44-1.28m-.36-2.67L31 89.17V89h-.7l-.79 1.35zm-4 .85h.61l-1 2.65a.31.31 0 00.27.45A2.26 2.26 0 0027.43 93h-.18a2.41 2.41 0 01-1.12.68l.87-2.45h.91l.11-.38h-.88l.34-.95h-.35l-.63.95-.75.11zM25 91.1a.27.27 0 00-.22-.38 1.73 1.73 0 00-1.42 1.15h.18a1.34 1.34 0 01.73-.57l-1 2.64a.27.27 0 00.22.39 1.68 1.68 0 001.34-1.15h-.23a1.32 1.32 0 01-.73.56zm.18-1.32a.44.44 0 10-.44-.44.44.44 0 00.44.44m-5.84 4.06c-.13.29 0 .49.3.49a.29.29 0 00.33-.24l.7-1.87a2.62 2.62 0 011.26-.82c.19 0 .17.16 0 .4l-1.08 2.08a.3.3 0 00.27.45 1.71 1.71 0 001.41-1.15h-.17a1.38 1.38 0 01-.74.56l.93-1.87a1.53 1.53 0 00.18-.65.46.46 0 00-.49-.5c-.46 0-.92.52-1.48 1.15v-.49c0-.35-.11-.66-.43-.66s-.39.17-.57.42v.06c.35 0 .5.5.25 1zm0-2.31c.12-.43 0-.81-.28-.81s-.49.3-.89 1.15v-.49c0-.35-.11-.66-.43-.66s-.71.58-1 1.15h.18c.18-.26.34-.42.48-.42s.24.25 0 .79l-.72 1.6c-.13.29 0 .49.3.49a.29.29 0 00.33-.24l.7-1.87c.2-.24.38-.45.61-.69zm-4.08-.32c.25 0 .46.18.35.66l-1.14.26c.2-.53.53-.92.79-.92m.63 1.84h-.22a1.4 1.4 0 01-.9.6c-.31 0-.47-.19-.47-.6a2.76 2.76 0 010-.51l1.84-.6c.36-.85-.07-1.22-.58-1.22-.87 0-1.85 1.45-1.85 2.72 0 .57.27.89.69.89s1-.49 1.44-1.28m-4.34-1.82h.61l-1 2.65a.31.31 0 00.27.45A2.26 2.26 0 0013.16 93H13a2.51 2.51 0 01-1.12.68l.88-2.49h.91l.12-.38h-.89l.34-.95h-.35l-.63.95-.76.19zm-3.35 2.06c0-.81.91-1.92 1.42-1.92a1 1 0 01.31 0l-.53 1.41c-.3.37-.77.82-1 .82s-.21-.1-.21-.35m2.79-2.72h-.27l-.32.3h-.06a3.2 3.2 0 00-2.82 2.93.5.5 0 00.54.55c.39 0 .78-.56 1.21-1.16v.21c0 .61.13 1 .45 1s.71-.58 1-1.15h-.17c-.18.26-.35.41-.48.41s-.24-.25 0-.79zm-3.22 1c.13-.43.06-.81-.27-.81S7 91 6.56 91.87v-.49c0-.35-.11-.66-.43-.66s-.71.58-1 1.15h.17c.18-.26.35-.42.48-.42s.25.25 0 .79l-.72 1.6c-.13.29 0 .49.3.49a.29.29 0 00.33-.24l.71-1.87c.2-.24.38-.45.6-.69zm-5.07 2.66l.07-.2c-.89-.17-1-.17-.65-1.13l.36-1h1c.43 0 .44.18.37.66H4l.58-1.6h-.22c-.22.38-.39.66-.87.66h-1L3 90.19c.16-.45.25-.54.85-.54h.42c.62 0 .69.17.69.79h.25l.2-1.09H1.79l-.07.21c.71.14.78.21.45 1.12l-.8 2.18C1 93.77.9 93.84.09 94l-.06.2zM20.59 82.92c.24 0 .46.18.34.65l-1.14.27c.2-.53.53-.92.8-.92m.63 1.84H21a1.38 1.38 0 01-.89.6c-.31 0-.47-.19-.47-.6a2.76 2.76 0 01.05-.51l1.84-.6c.36-.85-.08-1.22-.58-1.22-.87 0-1.86 1.45-1.86 2.72 0 .57.27.89.7.89s1-.49 1.44-1.28m-.37-2.67l1.3-1.21v-.14h-.7l-.8 1.35zm-4 .85h.61l-1 2.64a.31.31 0 00.26.46 2.29 2.29 0 001.76-1.29h-.18a2.41 2.41 0 01-1.12.68l.89-2.49h.91l.11-.38h-.88l.34-1h-.35l-.63 1-.75.11zm-.83-.13a.27.27 0 00-.21-.38 1.69 1.69 0 00-1.42 1.14h.17a1.43 1.43 0 01.74-.56l-1 2.64a.26.26 0 00.21.39 1.68 1.68 0 001.35-1.15h-.17a1.35 1.35 0 01-.74.56zm.19-1.32a.44.44 0 10-.44-.44.44.44 0 00.44.44m-3.53 4l1.85-4.85-.06-.07-1.16.13v.14l.23.17c.2.16.14.32-.05.81l-1.45 3.8a.32.32 0 00.27.46 1.65 1.65 0 001.35-1.15h-.18a1.48 1.48 0 01-.8.56M9.21 85c0-.82.9-1.92 1.42-1.92a1.06 1.06 0 01.31 0l-.53 1.41c-.31.37-.78.82-1 .82s-.2-.1-.2-.35M12 82.27h-.28l-.31.31h-.07a3.2 3.2 0 00-2.82 2.93.5.5 0 00.55.55c.39 0 .77-.56 1.2-1.16v.21c-.05.61.14 1 .45 1s.71-.58 1-1.15h-.22c-.18.26-.34.41-.48.41s-.24-.25 0-.79zm-6.75 4.41c0-.35.33-.57.82-.76a7.45 7.45 0 00.71.27c.51.16.7.23.7.38 0 .33-.55.57-1.3.57s-.93-.13-.93-.46m1.37-2.14c-.22 0-.31-.19-.31-.4 0-.59.32-1.46.82-1.46.22 0 .3.18.3.4 0 .59-.31 1.46-.81 1.46m1.44 1.81c0-.42-.38-.57-1-.76s-.77-.21-.77-.38.12-.3.34-.42a1.55 1.55 0 001.43-1.49.8.8 0 00-.06-.36h.74l.11-.38H7.67a.85.85 0 00-.47-.13 1.54 1.54 0 00-1.52 1.46.85.85 0 00.71.88c-.43.2-.67.42-.67.69a.42.42 0 00.18.36c-1 .29-1.39.62-1.39 1.09s.6.65 1.32.65c1.21 0 2.23-.66 2.23-1.21m-4.64-2.84c.44 0 .45.18.38.66h.25l.59-1.6h-.26c-.22.38-.39.66-.86.66h-1L3 81.9c.16-.45.25-.53.85-.53h.42c.62 0 .69.16.69.78h.25l.2-1.09H1.79l-.07.21c.71.14.78.21.45 1.12l-.8 2.18C1 85.48.9 85.55.09 85.7l-.09.2h4.1l.73-1.15h-.28a2.68 2.68 0 01-1.87.85c-1.08 0-1 0-.62-1l.39-1.06zM4 80.74l1.3-.89v-.14h-.84l-.71 1zM20.16 74.63c.24 0 .45.18.34.65l-1.14.27c.2-.53.53-.92.8-.92m.63 1.83h-.23a1.37 1.37 0 01-.89.61c-.32 0-.48-.19-.48-.61a2.07 2.07 0 01.06-.5l1.84-.6c.35-.85-.08-1.22-.58-1.22-.87 0-1.86 1.45-1.86 2.72 0 .57.27.88.7.88s1-.48 1.44-1.28m-.37-2.66l1.29-1.21v-.14H21l-.8 1.35zm-3.8.85h.49l-1 2.64a.3.3 0 00.26.45 2.25 2.25 0 001.75-1.28H18a2.36 2.36 0 01-1.12.67l.89-2.48h.91l.11-.38h-.88l.34-1h-.35l-.63 1-.63.1zm-.48.29c.13-.43.06-.8-.27-.8s-.49.29-.89 1.15v-.49c0-.35-.11-.66-.43-.66s-.71.57-1 1.14h.17c.18-.26.35-.41.48-.41s.25.25 0 .79l-.71 1.59c-.14.3 0 .49.3.49a.3.3 0 00.33-.23l.7-1.87c.2-.24.38-.46.6-.7zm-4.07-.31c.25 0 .46.18.35.65l-1.14.27c.19-.53.53-.92.79-.92m.63 1.83h-.22a1.38 1.38 0 01-.9.61c-.31 0-.47-.19-.47-.61a2.73 2.73 0 01.05-.5l1.84-.6c.36-.85-.07-1.22-.58-1.22-.87 0-1.85 1.45-1.85 2.72 0 .57.27.88.69.88s1-.48 1.44-1.28m-4.5.75c-.18 0-.44-.17-.44-.32a4.11 4.11 0 01.18-.51l.3-.79c.32-.37.8-.78 1.07-.78s.29.11.29.35c0 .73-.67 2-1.4 2m2.09-2.34c0-.54-.2-.73-.57-.73s-.91.49-1.34 1.08l1.1-2.91-.06-.07-1.16.13v.14l.23.17c.2.16.14.33-.05.8l-1.19 3.13a3 3 0 00-.19.57c0 .31.43.61.82.61.9 0 2.41-1.62 2.41-2.87m-3.61-.35c.07-.25-.09-.38-.22-.38a1.69 1.69 0 00-1.41 1.14h.17a1.36 1.36 0 01.78-.56l-1 2.64a.26.26 0 00.22.38 1.69 1.69 0 001.29-1.14h-.18a1.37 1.37 0 01-.73.56zm.18-1.33a.44.44 0 00.44-.43.44.44 0 00-.44-.44.44.44 0 00-.43.44.43.43 0 00.43.43m-2.67-.42H1.78l-.07.2c.71.15.78.22.44 1.13l-.78 2.18c-.33.91-.47 1-1.28 1.13l-.07.2H3.7l.8-1.42h-.28a2.53 2.53 0 01-1.8 1.12c-.62 0-.69-.1-.36-1l.78-2.18c.33-.91.48-1 1.29-1.13z"/><path d="M13.66 10.59c.13-.12.26-.26.39-.4a6.91 6.91 0 01.76-.77 2 2 0 01.25-.2v-.09c0-.02-.18.13-.29.18s-.05 0 0-.05l.23-.18c-.3 0-.52.16-.73.34h-.11c-.34.12-.59.41-.93.55v-.12a3.47 3.47 0 01-.41.16 2.23 2.23 0 01-.57 0 5.86 5.86 0 00-.82.14 1.85 1.85 0 00-.42.17.61.61 0 01-.15.13 2.18 2.18 0 00-.38.3l-.48.45h-.09l.06-.09.07-.11a1.13 1.13 0 01.1-.13 2.47 2.47 0 01.38-.28.21.21 0 010-.06l-.11.08c-.05 0-.1.15-.18.14v-.1a.51.51 0 01.16-.13c.09 0 .17-.1.26-.15a1.22 1.22 0 00-.36.18.06.06 0 01-.06 0s.09-.07.13-.11c.73-.57 1.72-.43 2.56-.73l.21-.13c.11-.05.2-.16.34-.23a.92.92 0 00.38-.52.12.12 0 000-.05 3.28 3.28 0 01-1 .75 4.28 4.28 0 01-1.49.28h.11c.05 0 0-.09.09-.14h.16c-.03 0-.2.06-.31 0 0 0 0-.12.06-.14h.1a.19.19 0 010-.09c.34-.2.66-.36 1-.55-.07 0-.12.07-.19 0s0-.07.05-.07c.25-.07.45-.21.7-.3-.09 0-.16.07-.25 0s.07-.06.14-.06V8s.09 0 .14-.07-.07 0-.07 0a.5.5 0 01.29-.14h-.09.05-.05V7.7a1.41 1.41 0 00.2-.55 1.86 1.86 0 01-.93.43h-.06a.43.43 0 01-.38 0c-.09-.05-.14-.12-.23-.18a2.32 2.32 0 00-.57-.28 5.13 5.13 0 00-1.74-.25 4.2 4.2 0 01.79-.22 3.33 3.33 0 011.16-.23.89.89 0 00-.23 0 3.73 3.73 0 00-1 .14c-.23 0-.44.13-.66.18s-.21.18-.37.16v-.29a1.31 1.31 0 01.9-.61 4 4 0 011.2 0 6.19 6.19 0 01.86.15c.12 0 .14.19.23.21s.27 0 .41.09 0-.09 0-.14.2 0 .29 0-.16-.32-.25-.48a2.35 2.35 0 00.54.45c.11.05.39.12.34 0a3.62 3.62 0 00-.52-.68v-.08h-.07v-.14c-.09 0-.07-.13-.11-.2s0-.28-.07-.41a1.83 1.83 0 01-.02-.39c-.07-.38-.16-.72-.21-1.09a2.09 2.09 0 01.46-1.15 1.92 1.92 0 01.63-.73 2 2 0 01.44-.73A1.9 1.9 0 0115 .23a5.87 5.87 0 01.6-.23H0v12h11a9.53 9.53 0 011.47-.75 5.56 5.56 0 001.16-.67M10.17 9h-.12c.02 0 .18-.12.28-.16s.11-.07.15 0 .12 0 .16.09c-.13.14-.31.07-.47.14m-3.48-.5a.08.08 0 010-.05 7.15 7.15 0 00.71-1.25 3.13 3.13 0 00.77-.64 4.45 4.45 0 011.27-1 .92.92 0 01.59 0c-.07.1-.18.07-.27.14a.08.08 0 01-.07 0 .1.1 0 000-.07c-.22.25-.54.36-.72.66s-.23.52-.53.59c-.09 0 0-.07 0 0a7.91 7.91 0 00-1.75 1.52M8.58 7s-.05 0-.07.09a.16.16 0 01-.09.09h-.05a.27.27 0 01.19-.2m1.05 3.4a.18.18 0 01-.05.07.52.52 0 01-.18.12l-.09.08h-.11l.17-.16.09-.09v-.05h.12m-.41-.19l-.15.2-.3.15a1 1 0 00-.23.18h-.1l-.37.23a.86.86 0 00-.13.14L7.84 11l.16-.23v-.05-.05a.47.47 0 01.09-.12l-.09.07s-.07 0 0 0l.06-.05a1.31 1.31 0 01.11-.12l.07-.05v-.06c.21-.21.58-.2.87-.33h.36a.36.36 0 01.2 0c-.2.11-.39.24-.58.35m.47-1.57h.09-.05l-.37.09c-.16 0-.29.16-.47.2s-.48.02-.76.12.11-.09.16-.16a4.1 4.1 0 01.66-.59v-.16C8.85 8.2 9 8.15 9 8a.4.4 0 01.23-.21s-.07 0-.07-.06-.18 0-.27 0A.39.39 0 019 7.66s0-.1.11-.11a.78.78 0 00.27-.09h-.5a1.21 1.21 0 01.57-.68h.07a.23.23 0 01-.19.22 2.12 2.12 0 01.54.13h-.09c-.02 0 .25 0 .36.11-.06.07-.13 0-.2 0A6 6 0 0112 8a6.55 6.55 0 01-1.56.48.42.42 0 01-.19 0v.07a.32.32 0 00-.22 0 .32.32 0 01-.3 0" fill="#000091"/><path d="M33 0H20.11l.12.06.33.17a1.08 1.08 0 01.44.36c.05.07.12.21.07.3s-.07.29-.18.34a.78.78 0 01-.48 0 1.26 1.26 0 01-.27 0 1.81 1.81 0 01.89.61s.11.07.2.07 0 0 0 .07-.09.07-.06.13h.06c.12 0 .09-.27.25-.2a.26.26 0 01.1.34l-.28.23a.22.22 0 000 .16.8.8 0 01.12.27c.06.16.09.34.16.5a3 3 0 01.15 1c0 .18-.09.34 0 .52a2.19 2.19 0 00.25.48 3.9 3.9 0 01.25.36c.14.23.39.46.27.73s-.31.13-.47.23 0 .29 0 .4-.13.34-.29.41c0 .07.13.05.16.09s.13.18.06.3-.36.2-.22.41a.59.59 0 010 .5.56.56 0 01-.41.34 1 1 0 01-.43 0 .35.35 0 00-.13-.05A11.54 11.54 0 0019.61 9a1.5 1.5 0 00-.32.1 1.55 1.55 0 00-.27.24v.06a2.11 2.11 0 00-.18.27 2.09 2.09 0 00-.17.41 1.35 1.35 0 000 1.08s.75.25 1.25.47l.54.27H33z" fill="#e1000f"/><path d="M20.88 4.38c.09 0 .23 0 .23.07s-.32.23-.46.41h-.06c-.07 0-.05.16-.12.16a.28.28 0 00-.2 0 .4.4 0 00.34.14.1.1 0 01.07.09h.05v.09c-.07.09-.18 0-.28.07a1.18 1.18 0 00.53 0c.13 0 0-.28.09-.39s0-.07-.05-.07.09-.11.14-.13a.21.21 0 00.14-.07s-.1-.07-.07-.12.25-.22.2-.36-.2-.07-.32-.11a.71.71 0 00-.38 0 1.89 1.89 0 00-.34.09 1.61 1.61 0 00-.43.23 3.15 3.15 0 01.49-.14 1.7 1.7 0 01.39 0" fill="#9c9c9a"/></g></svg>