<?xml version="1.0" encoding="UTF-8" standalone="no"?>
<svg
   xmlns:dc="http://purl.org/dc/elements/1.1/"
   xmlns:cc="http://creativecommons.org/ns#"
   xmlns:rdf="http://www.w3.org/1999/02/22-rdf-syntax-ns#"
   xmlns:svg="http://www.w3.org/2000/svg"
   xmlns="http://www.w3.org/2000/svg"
   xmlns:sodipodi="http://sodipodi.sourceforge.net/DTD/sodipodi-0.dtd"
   xmlns:inkscape="http://www.inkscape.org/namespaces/inkscape"
   version="1.1"
   id="_x37_47ad91c-18bb-4936-b655-cddf352f94cc"
   x="0"
   y="0"
   viewBox="-958 1169.4 175.29999 267.16782"
   xml:space="preserve"
   inkscape:version="0.91 r13725"
   sodipodi:docname="MLDS.svg"
   width="175.3"
   height="267.16782"><metadata
     id="metadata191"><rdf:RDF><cc:Work
         rdf:about=""><dc:format>image/svg+xml</dc:format><dc:type
           rdf:resource="http://purl.org/dc/dcmitype/StillImage" /><dc:title></dc:title></cc:Work></rdf:RDF></metadata><defs
     id="defs189" /><sodipodi:namedview
     pagecolor="#ffffff"
     bordercolor="#666666"
     borderopacity="1"
     objecttolerance="10"
     gridtolerance="10"
     guidetolerance="10"
     inkscape:pageopacity="0"
     inkscape:pageshadow="2"
     inkscape:window-width="1215"
     inkscape:window-height="1000"
     id="namedview187"
     showgrid="false"
     inkscape:zoom="0.68398187"
     inkscape:cx="423.05905"
     inkscape:cy="196.81986"
     inkscape:window-x="65"
     inkscape:window-y="24"
     inkscape:window-maximized="1"
     inkscape:current-layer="_x37_47ad91c-18bb-4936-b655-cddf352f94cc"
     fit-margin-top="0"
     fit-margin-left="0"
     fit-margin-right="0"
     fit-margin-bottom="0" /><style
     id="style3">.st0{opacity:.5}.st2{fill:#fff}.st3{fill:#6c63ff}.st5{fill:#fda57d}.st6{opacity:5.000000e-02;enable-background:new}.st7{fill:#ff0}.st8{opacity:5.000000e-02}.st9{fill:#4d8af0}.st10{opacity:.1;fill:#fff;enable-background:new}.st11{fill:#e0e0e0}.st18{fill:#3ad29f}</style><g
     style="opacity:0.5"
     id="g129"
     class="st0"
     transform="matrix(-1,0,0,1,-1288.8001,-82.732443)"><linearGradient
       gradientTransform="matrix(1,0,0,-1,0,3002.82)"
       y2="1791.135"
       x2="-430.32501"
       y1="1363.525"
       x1="-430.32501"
       gradientUnits="userSpaceOnUse"
       id="SVGID_5_"><stop
         id="stop132"
         stop-opacity=".25"
         stop-color="gray"
         offset="0" /><stop
         id="stop134"
         stop-opacity=".12"
         stop-color="gray"
         offset=".54" /><stop
         id="stop136"
         stop-opacity=".1"
         stop-color="gray"
         offset="1" /></linearGradient></g><g
     id="g5008"
     transform="translate(-90.949461,-19.416223)"><g
       transform="matrix(-1,0,0,1,-1197.8506,-63.31622)"
       class="st0"
       id="g146"
       style="opacity:0.5"><linearGradient
         id="SVGID_6_"
         gradientUnits="userSpaceOnUse"
         x1="-446.97501"
         y1="1498.3051"
         x2="-271.76501"
         y2="1498.3051"
         gradientTransform="matrix(1,0,0,-1,-59.03,2884.12)"><stop
           offset="0"
           stop-color="gray"
           stop-opacity=".25"
           id="stop149" /><stop
           offset=".54"
           stop-color="gray"
           stop-opacity=".12"
           id="stop151" /><stop
           offset="1"
           stop-color="gray"
           stop-opacity=".1"
           id="stop153" /></linearGradient><path
         d="m -400,1416.8 1,-0.8 1.4,-1.1 66.8,-49.6 -23,-91.8 0,-0.3 c 0.2,-2.8 1.3,-24.5 -10.5,-20.6 -11.4,3.8 -7.2,19.8 -6.4,22.5 l 0.1,0.4 14.6,77.2 -46.4,27.1 -6.4,-0.7 c 7.3,-10.1 11.2,-22.2 11.1,-34.7 0,-28.8 -19.6,-52.2 -43.8,-52.2 -24.2,0 -43.8,23.3 -43.8,52.2 0,21.6 11,40.1 26.7,48 l -16.6,8.3 0,0.1 c -4.8,-1 -22.8,-0.7 -15.5,65.6 1.8,16.1 -2,32.2 -10.8,45.8 l -4.6,6.4 114.3,0.7 0.3,0 c 0.2,0.1 -16,-25.9 -8.5,-102.5 z"
         id="path155"
         style="fill:url(#SVGID_6_)"
         inkscape:connector-curvature="0" /></g><path
       class="st18"
       d="m -724.7506,1338.0838 c 0,0 23.6,-10.2 16.7,59.8 -1.9,18.7 2.7,37.4 12.9,53.2 l 1.5,2.2 -21.9,0 -16.5,-17.5 7.3,-97.7 z m -117.9,-125.2 0,-0.3 16.5,1.9 -0.1,0.4 -14.3,75.7 49.1,28.6 -2,36.8 -71.6,-53.2 22.4,-89.9 z"
       id="path157"
       inkscape:connector-curvature="0"
       style="fill:#248c69;fill-opacity:1" /><path
       transform="scale(-1,1)"
       style="fill:#ffff00"
       d="m 799.65061,1282.3838 a 42.900002,51.099998 0 0 1 -42.9,51.1 42.900002,51.099998 0 0 1 -42.9,-51.1 42.900002,51.099998 0 0 1 42.9,-51.1 42.900002,51.099998 0 0 1 42.9,51.1 z"
       id="ellipse159"
       inkscape:connector-curvature="0" /><path
       class="st5"
       d="m -747.5506,1299.7838 -30.7,0 0,45 30.7,0 z"
       id="path161"
       inkscape:connector-curvature="0"
       style="fill:#c68642;fill-opacity:1" /><path
       class="st18"
       d="m -756.7506,1337.6838 8.2,-12.3 24.5,12.3 0,20.3 c 0,0 8.9,15.7 1.7,33.8 2,26.6 7.4,61.4 7.4,61.4 l -90.9,0.7 c 0,0 16.4,-26.2 8.2,-103.9 l 2,-32.7 18.4,-2 20.5,22.4 z"
       id="path163"
       inkscape:connector-curvature="0"
       style="fill:#248c69;fill-opacity:1" /><path
       class="st6"
       d="m -795.5506,1317.1838 -2.1,2.1 -2,32.2 2.4,1.8 z m 47,-10.2 c -3.2,1.1 -4.6,2 -8.2,2 -7.6,0 -14.8,-2.8 -20.5,-7.9 l 0,-0.3 28.6,0 0,6.2 z"
       id="path165"
       inkscape:connector-curvature="0" /><path
       transform="scale(-1,1)"
       style="fill:#c68642;fill-opacity:1"
       d="m 788.45061,1277.2838 a 30.700001,30.700001 0 0 1 -30.7,30.7 30.700001,30.700001 0 0 1 -30.7,-30.7 30.700001,30.700001 0 0 1 30.7,-30.7 30.700001,30.700001 0 0 1 30.7,30.7 z"
       id="circle167"
       inkscape:connector-curvature="0" /><path
       transform="scale(-1,1)"
       style="fill:#c68642;fill-opacity:1"
       d="m 791.55062,1277.2838 a 3.0999999,5.0999999 0 0 1 -3.1,5.1 3.0999999,5.0999999 0 0 1 -3.1,-5.1 3.0999999,5.0999999 0 0 1 3.1,-5.1 3.0999999,5.0999999 0 0 1 3.1,5.1 z"
       id="ellipse169"
       inkscape:connector-curvature="0" /><path
       class="st6"
       d="m -730.9506,1267.6838 0,1.5 -52.7,0 0,1.4 53.4,0 z"
       id="path171"
       inkscape:connector-curvature="0" /><path
       class="st7"
       d="m -730.1506,1243.5838 -53.2,0 0,26.6 53.2,0 z"
       id="path173"
       inkscape:connector-curvature="0"
       style="fill:#ffff00" /><path
       class="st5"
       d="m -832.3506,1192.4838 c 11.2,3.7 7.1,19.4 6.3,22.1 l -16.5,-1.9 c -0.3,-2.8 -1.3,-24.1 10.2,-20.2 z"
       id="path175"
       inkscape:connector-curvature="0"
       style="fill:#c68642;fill-opacity:1" /><g
       transform="matrix(-1,0,0,1,-1197.8506,-63.31622)"
       class="st8"
       id="g177"><path
         d="m -481.1,1516.5 c 0,0 5.4,-34.8 7.4,-61.4 -7.2,-18 1.7,-33.8 1.7,-33.8 l 0,-20.3 22.9,-11.4 -0.5,-0.8 -24.5,12.3 0,20.3 c 0,0 -8.9,15.8 -1.7,33.8 -2,26.6 -7.4,61.4 -7.4,61.4 l 90.9,0.7 -88.8,-0.8 z m 41.8,-115.5 20.3,-22.3 -2,-0.2 -19.2,21.1 z"
         id="path179"
         inkscape:connector-curvature="0" /></g><path
       class="st6"
       d="m -740.8506,1330.3838 -15.7,36.2 -28.8,-49.4 8,-1.1 19.7,19.8 8.8,-9.9 z"
       id="path181"
       inkscape:connector-curvature="0" /><path
       class="st2"
       d="m -740.8506,1329.2838 -15.7,36.2 -28.8,-49.4 8,-1.1 19.7,19.8 8.8,-9.9 z"
       id="path183"
       inkscape:connector-curvature="0"
       style="fill:#ffffff" /></g><flowRoot
     xml:space="preserve"
     id="flowRoot4404"
     style="font-style:normal;font-variant:normal;font-weight:bold;font-stretch:normal;font-size:15px;line-height:125%;font-family:Sans;-inkscape-font-specification:'Sans, Bold';text-align:start;letter-spacing:0px;word-spacing:0px;writing-mode:lr-tb;text-anchor:start;fill:#000000;fill-opacity:1;stroke:none;stroke-width:1px;stroke-linecap:butt;stroke-linejoin:miter;stroke-opacity:1"
     transform="translate(-1075.891,1126.9249)"><flowRegion
       id="flowRegion4406"><rect
         id="rect4408"
         width="319.91696"
         height="239.93773"
         x="306.00754"
         y="613.6308" /></flowRegion><flowPara
       id="flowPara4410"></flowPara></flowRoot><flowRoot
     xml:space="preserve"
     id="flowRoot4412"
     style="font-style:normal;font-variant:normal;font-weight:bold;font-stretch:normal;font-size:15px;line-height:125%;font-family:Sans;-inkscape-font-specification:'Sans, Bold';text-align:start;letter-spacing:0px;word-spacing:0px;writing-mode:lr-tb;text-anchor:start;fill:#000000;fill-opacity:1;stroke:none;stroke-width:1px;stroke-linecap:butt;stroke-linejoin:miter;stroke-opacity:1"
     transform="translate(-1075.891,1126.9249)"><flowRegion
       id="flowRegion4414"><rect
         id="rect4416"
         width="252.68805"
         height="290.939"
         x="714.01758"
         y="613.6308" /></flowRegion><flowPara
       id="flowPara4418"></flowPara></flowRoot><g
     style="opacity:0.5"
     class="st0"
     id="g67"
     transform="matrix(-1,0,0,1,-1277.0592,-2.6750799)"><linearGradient
       id="SVGID_3_"
       gradientUnits="userSpaceOnUse"
       x1="-739.81"
       y1="1403.3101"
       x2="-739.81"
       y2="1830.92"
       gradientTransform="matrix(1,0,0,-1,0,3002.82)"><stop
         offset="0"
         stop-color="gray"
         stop-opacity=".25"
         id="stop70" /><stop
         offset=".54"
         stop-color="gray"
         stop-opacity=".12"
         id="stop72" /><stop
         offset="1"
         stop-color="gray"
         stop-opacity=".1"
         id="stop74" /></linearGradient></g></svg>