<?xml version="1.0" encoding="utf-8"?>
<!-- Generator: Adobe Illustrator 16.0.0, SVG Export Plug-In . SVG Version: 6.00 Build 0)  -->
<!DOCTYPE svg PUBLIC "-//W3C//DTD SVG 1.1//EN" "http://www.w3.org/Graphics/SVG/1.1/DTD/svg11.dtd">
<svg version="1.1" id="Calque_11" xmlns="http://www.w3.org/2000/svg" xmlns:xlink="http://www.w3.org/1999/xlink" x="0px" y="0px"
	 width="1600px" height="1300px" viewBox="0 0 1600 1300" enable-background="new 0 0 1600 1300" xml:space="preserve">
<path fill="#22B573" stroke="#000000" stroke-miterlimit="10" d="M865.438,1151.789"/>
<path fill="#22B573" stroke="#000000" stroke-miterlimit="10" d="M1066.196,864.961"/>
<path fill="#FFC291" d="M1456,499.231c0,0-441.099,245.232-470.684,261.685c-24.064-2.831-101.936-26.9-171.307-26.9
	c-69.374,0-84.139,25.599-86.363,27.146c-2.525,1.759-68.777,80.436-84.948,105.937c-2.83,5.664,1.417,39.642,63.711,8.494
	c34.49-21.216,52.551-51.927,75.203-67.46c24.374-0.604,151.322,52.595,277.325,179.309C1118.998,936.999,1456,798.921,1456,798.921
	V499.231z"/>
<path fill="#FFC291" d="M543.952,980.936c-6.784,0.753-13.122,4.235-17.391,9.576l-18.926,25.105
	c-4.271,5.345-6.27,12.287-5.513,19.08c1.584,14.211,14.438,24.487,28.652,22.904c6.782-0.754,13.124-4.237,17.394-9.583
	l18.927-25.107c4.266-5.339,6.266-12.293,5.511-19.074C571.02,989.625,558.167,979.347,543.952,980.936z"/>
<path fill="#FFC291" d="M620.402,1004.59c-6.782,0.751-13.121,4.233-17.388,9.574l-50.074,67.578
	c-4.271,5.348-6.269,12.289-5.514,19.081c1.586,14.21,14.439,24.487,28.653,22.904c6.782-0.755,13.124-4.236,17.393-9.582
	l50.075-67.581c4.264-5.341,6.264-12.294,5.51-19.074C647.472,1013.277,634.619,1002.998,620.402,1004.59z"/>
<path fill="#FFC291" d="M680.866,1052.725c-6.783,0.754-13.122,4.233-17.391,9.576l-50.074,67.578
	c-4.27,5.346-6.27,12.29-5.514,19.08c1.587,14.21,14.439,24.487,28.653,22.902c6.781-0.753,13.123-4.234,16.395-8.58l50.073-67.582
	c5.266-6.34,7.266-13.292,6.511-20.072C707.935,1061.414,695.081,1051.136,680.866,1052.725z"/>
<path fill="#FFC291" d="M733.002,1114.188c-6.783,0.752-13.123,4.235-17.39,9.575l-38.75,50.59
	c-4.27,5.347-6.268,12.289-5.512,19.078c1.586,14.213,14.438,24.491,28.653,22.906c6.782-0.756,13.124-4.235,17.394-9.582
	l38.747-50.591c4.267-5.339,6.266-12.294,5.512-19.076C760.071,1122.875,747.219,1112.599,733.002,1114.188z"/>
<path fill="#FF9947" d="M616.155,754.19c0,0,25.387,13.478,63.356,7.965c6.664-0.968,11.02,0.165,11.798,1.712
	c-13.438,20.82-68.643,78.133-69.137,102.523c-2.31,30.728,21.678,40.705,35.571,42.828c13.893,2.123,75.276-12.225,112.087-62.486
	c11.6-15.137,16.248-17.108,18.834-17.039c5.898-0.239,16.41,3.46,19.002,4.64c44.667,20.333,140.842,77.009,242.307,172.093
	c7.837,8.612,4.763,18.671,1.776,22.324c-2.82,3.45-11.391,12.645-15.75,16.25c-1.322,1.094-8.916,6.856-20.243-1.637
	c-11.325-8.494-94.973-62.06-136.622-87.779c-2.595,0-6.698,5.138-6.698,5.138s-5.453,5.247-4.629,6.896
	c2.124,4.955,134.854,90.078,134.854,90.078s13.804,7.611,8.14,18.938c-5.662,11.326-20.093,19.555-23.635,22.032
	c-1.22,0.662-12.666,6-26.833-4c-17.958-14.54-103.852-66.168-121.548-80.327c-2.286-1.006-7.078,4.955-7.078,4.955
	s-3.541,5.372-2.126,7.08c4.955,7.078,113.145,79.308,122.747,84.587c17.063,9.384-8.079,35.288-19.072,35.961
	c-5.696,0.349-23.895,2.321-41.257-8.423c-18.269-11.305-59.75-34.75-97.103-58.327c-2.398-1.506-4.633,2.75-5.607,4.206
	c-1.281,1.914-4.791,6.622-2.179,8.953c46.542,35.038,90.078,56.631,114.146,70.435c17.343,8.317-14.335,33.21-44.774,24.714
	c-30.438-8.496-75.212-38.935-75.212-36.103s2.877-31.734-17.52-48.137c-17.166-13.804-35.395-10.617-35.395-10.617
	s10.954-28.249-16.605-51.874c-16.723-14.334-40.912-7.767-40.912-7.767s3.208-26.049-20.351-41.943
	c-29.376-19.819-57.339-2.299-57.339-2.299S582,965.318,561.118,960.363c-30.613-7.264-50.792,12.593-50.792,12.593l-19.111-36.483
	L616.155,754.19z"/>
<g>
	<g>
		<polygon fill="#FF9947" points="613.685,707.825 147,444.686 147,769.844 462.91,937.181 		"/>
	</g>
</g>
<g>
	<path fill="#CFCFF7" d="M1008.09,475.404c29.047,35.03,32.91,91.421,34.91,116.609v7v61.924v0.059v20.002l293.865-162.234
		c-1.951-23.447-3.53-53.305-26.013-80.42c-1.623-1.958-3.843-3.833-5.649-5.621c-13.16-13.013-29.57-19.272-49.035-19.225
		c-1.254,0.002-6.31,0.02-7.69,0.02c-0.038,0.029-0.062,0.056-0.1,0.084l-25.324-0.06c-0.97-0.03-1.938-0.048-2.922-0.045
		c-1.254,0.002-6.341,0.02-7.721,0.02c-14.817,11.188-30.663,18.201-46.423,23.562c-10.705,3.641-21.379,5.846-31.706,6.266
		c-10.327-0.42-20.999-2.625-31.706-6.266c-15.76-5.361-31.604-12.374-46.423-23.562c-1.381,0-6.469-0.018-7.725-0.02
		c-0.982-0.003-1.957,0.015-2.926,0.045l-25.331,0.06c-0.039-0.029-0.076-0.056-0.115-0.084c-1.381,0-6.469-0.018-7.724-0.02
		c-19.466-0.048-35.937,6.212-49.098,19.225c-1.806,1.788-4.155,3.662-5.778,5.621c-2.13,2.568-4.085,5.284-5.909,8.094
		c19.493,1.492,36.178,8.816,49.862,22.348C1003.537,470.891,1006.178,473.098,1008.09,475.404z"/>
	<path fill="#CFCFF7" d="M591.49,475.404c1.911-2.307,4.842-4.514,6.971-6.619c14.993-14.827,33.729-22.187,55.684-22.603
		c-2.846-5.266-6.083-10.267-9.874-14.839c-1.623-1.958-3.793-3.833-5.601-5.621c-13.159-13.013-29.543-19.272-49.008-19.225
		c-1.254,0.002-6.297,0.02-7.679,0.02c-0.038,0.029-0.054,0.056-0.092,0.084l-25.321-0.06c-0.968-0.03-1.937-0.048-2.919-0.045
		c-1.254,0.002-6.34,0.02-7.721,0.02c-14.817,11.188-30.663,18.201-46.422,23.562c-10.705,3.641-21.378,5.846-31.706,6.266
		c-10.327-0.42-21-2.625-31.706-6.266c-15.76-5.361-31.605-12.374-46.423-23.562c-1.38,0-6.469-0.018-7.724-0.02
		c-0.983-0.003-1.957,0.015-2.926,0.045l-25.332,0.06c-0.039-0.029-0.077-0.056-0.115-0.084c-1.381,0-6.469-0.018-7.724-0.02
		c-19.465-0.048-35.937,6.212-49.098,19.225c-1.806,1.788-4.156,3.662-5.779,5.621c-10.9,13.146-12.881,17.603-17.176,33.98
		L556,626.825v-34.811C558,566.825,562.445,510.435,591.49,475.404z"/>
	<path fill="#6161E5" d="M1008.09,475.404c-1.912-2.307-4.553-4.514-6.68-6.619c-13.685-13.532-30.369-20.856-49.862-22.348
		c-1.324-0.101-2.661-0.177-4.011-0.225c-1.286-0.045-2.597-0.073-3.906-0.07c-1.477,0.002-7.43,0.023-9.058,0.023
		c-0.044,0.034-0.07,0.066-0.114,0.1l-29.826-0.07c-1.142-0.036-2.283-0.056-3.441-0.053c-1.478,0.002-7.468,0.023-9.094,0.023
		c-17.452,13.177-36.115,21.436-54.676,27.75c-12.608,4.289-25.18,6.885-37.343,7.38c-12.162-0.496-24.733-3.092-37.342-7.38
		c-18.563-6.314-37.225-14.574-54.676-27.75c-1.626,0-7.62-0.021-9.097-0.023c-1.158-0.003-2.306,0.018-3.446,0.053l-29.835,0.07
		c-0.045-0.034-0.09-0.066-0.134-0.1c-1.627,0-7.62-0.021-9.098-0.023c-0.749-0.002-1.482,0.025-2.224,0.04
		c-21.955,0.416-40.609,7.776-55.602,22.603c-2.128,2.105-5.224,4.313-7.135,6.619C562.445,510.435,558,566.825,556,592.014v34.811
		l169.998,88.144c1.306-1.46,22.638-25.953,92.012-25.953c61.414,0,131.751,18.861,164.696,25.153L1043,680.998v-20.002
		l-0.242,0.053l0.242-0.111v-61.924v-7C1041,566.825,1037.137,510.435,1008.09,475.404z"/>
</g>
<path fill="#FF0000" d="M947.506,453.212"/>
<path fill="#6161E5" d="M799.945,95.729c-76.271,0-138.322,75.346-138.322,167.958c0,35.501,1.755,75.962,22.708,106.836
	c27.598,40.661,75.139,69.063,115.614,69.063c40.476,0,88.017-28.398,115.616-69.063c20.954-30.875,22.711-71.335,22.711-106.836
	C938.272,171.074,876.22,95.729,799.945,95.729z M839.336,357.508c-2.534,5.043-14.106,24.84-39.713,24.84
	c-25.488,0-36.298-20.207-38.525-25.063c-0.292-0.637-0.276-0.775-0.276-0.938c0.001-0.178,0.511-0.359,0.511-0.359l4.626-1.746
	c0,0,0.384-0.098,0.477-0.029c0.076,0.057,0.181,0.203,0.374,0.637c1.79,4.023,10.755,21.273,32.814,21.273
	c21.846,0,32.001-17.236,34.106-21.338c0.273-0.531,0.409-0.662,0.43-0.682c0.133-0.146,0.566,0.063,0.566,0.063l4.63,1.996
	c0,0,0.399,0.154,0.396,0.324C839.747,356.611,839.644,356.893,839.336,357.508z"/>
<path fill="#CFCFF7" d="M1134.168,108.977c-64.758,0-117.443,63.972-117.443,142.605c0,30.143,1.489,64.496,19.28,90.71
	c23.433,34.524,63.798,58.638,98.163,58.638c34.366,0,74.731-24.111,98.164-58.638c17.792-26.214,19.284-60.567,19.284-90.71
	C1251.616,172.949,1198.93,108.977,1134.168,108.977z M1167.853,331.141c-2.144,4.264-11.927,21.001-33.577,21.001
	c-21.55,0-30.688-17.084-32.572-21.19c-0.247-0.538-0.232-0.655-0.232-0.792c0-0.15,0.431-0.303,0.431-0.303l3.912-1.477
	c0,0,0.324-0.083,0.402-0.025c0.063,0.048,0.152,0.172,0.317,0.538c1.513,3.402,9.092,17.986,27.742,17.986
	c18.471,0,27.057-14.573,28.836-18.04c0.231-0.45,0.347-0.56,0.363-0.577c0.113-0.123,0.479,0.053,0.479,0.053l3.915,1.688
	c0,0,0.337,0.13,0.334,0.273C1168.2,330.382,1168.112,330.62,1167.853,331.141z"/>
<path fill="#CFCFF7" d="M467.689,108.977c-64.758,0-117.444,63.972-117.444,142.605c0,30.143,1.49,64.496,19.281,90.71
	c23.432,34.524,63.797,58.638,98.164,58.638c34.365,0,74.73-24.111,98.163-58.638c17.792-26.214,19.284-60.567,19.284-90.71
	C585.136,172.949,532.451,108.977,467.689,108.977z M501.853,331.141c-2.144,4.264-11.927,21.001-33.577,21.001
	c-21.55,0-30.688-17.084-32.572-21.19c-0.247-0.538-0.232-0.655-0.232-0.792c0-0.15,0.431-0.303,0.431-0.303l3.912-1.477
	c0,0,0.324-0.083,0.402-0.025c0.063,0.048,0.152,0.172,0.317,0.538c1.513,3.402,9.092,17.986,27.742,17.986
	c18.471,0,27.057-14.573,28.836-18.04c0.231-0.45,0.347-0.56,0.363-0.577c0.113-0.123,0.479,0.053,0.479,0.053l3.915,1.688
	c0,0,0.337,0.13,0.334,0.273C502.2,330.382,502.112,330.62,501.853,331.141z"/>
</svg>
