<?xml version="1.0" encoding="UTF-8" standalone="no"?>
<svg
   xmlns:dc="http://purl.org/dc/elements/1.1/"
   xmlns:cc="http://creativecommons.org/ns#"
   xmlns:rdf="http://www.w3.org/1999/02/22-rdf-syntax-ns#"
   xmlns:svg="http://www.w3.org/2000/svg"
   xmlns="http://www.w3.org/2000/svg"
   xmlns:sodipodi="http://sodipodi.sourceforge.net/DTD/sodipodi-0.dtd"
   xmlns:inkscape="http://www.inkscape.org/namespaces/inkscape"
   inkscape:version="1.0 (4035a4f, 2020-05-01)"
   sodipodi:docname="parcours-symbol-blue.svg"
   xml:space="preserve"
   style="enable-background:new 0 0 511.626 511.626;"
   viewBox="0 0 511.626 511.626"
   height="511.626px"
   width="511.626px"
   y="0px"
   x="0px"
   id="Capa_1"
   version="1.1"><metadata
   id="metadata57"><rdf:RDF><cc:Work
       rdf:about=""><dc:format>image/svg+xml</dc:format><dc:type
         rdf:resource="http://purl.org/dc/dcmitype/StillImage" /><dc:title></dc:title></cc:Work></rdf:RDF></metadata><defs
   id="defs55" /><sodipodi:namedview
   inkscape:current-layer="Capa_1"
   inkscape:window-maximized="1"
   inkscape:window-y="24"
   inkscape:window-x="65"
   inkscape:cy="255.813"
   inkscape:cx="255.813"
   inkscape:zoom="0.99291278"
   showgrid="false"
   id="namedview53"
   inkscape:window-height="1000"
   inkscape:window-width="1215"
   inkscape:pageshadow="2"
   inkscape:pageopacity="0"
   guidetolerance="10"
   gridtolerance="10"
   objecttolerance="10"
   borderopacity="1"
   bordercolor="#666666"
   pagecolor="#ffffff" />
<g
   id="g20">
	<g
   id="g18">
		<path
   style="fill:#013b80;fill-opacity:1"
   id="path2"
   d="M63.953,164.453H9.135c-2.474,0-4.615,0.9-6.423,2.709C0.903,168.972,0,171.114,0,173.589v54.817    c0,2.473,0.903,4.619,2.712,6.424c1.809,1.803,3.949,2.712,6.423,2.712h54.818c2.474,0,4.615-0.905,6.423-2.712    c1.809-1.809,2.712-3.951,2.712-6.424v-54.817c0-2.475-0.904-4.617-2.712-6.427C68.568,165.356,66.427,164.453,63.953,164.453z" />
		<path
   style="fill:#013b80;fill-opacity:1"
   id="path4"
   d="M63.953,383.722H9.135c-2.474,0-4.615,0.896-6.423,2.707C0.903,388.238,0,390.378,0,392.854v54.82    c0,2.471,0.903,4.609,2.712,6.42c1.809,1.813,3.949,2.714,6.423,2.714h54.818c2.474,0,4.615-0.903,6.423-2.714    c1.809-1.807,2.712-3.949,2.712-6.42v-54.82c0-2.477-0.904-4.616-2.712-6.426C68.568,384.625,66.427,383.722,63.953,383.722z" />
		<path
   style="fill:#013b80;fill-opacity:1"
   id="path6"
   d="M63.953,274.082H9.135c-2.474,0-4.615,0.91-6.423,2.714S0,280.749,0,283.22v54.815c0,2.478,0.903,4.62,2.712,6.427    c1.809,1.808,3.949,2.707,6.423,2.707h54.818c2.474,0,4.615-0.896,6.423-2.707c1.809-1.807,2.712-3.949,2.712-6.427V283.22    c0-2.471-0.904-4.613-2.712-6.424C68.568,274.989,66.427,274.082,63.953,274.082z" />
		<path
   style="fill:#013b80;fill-opacity:1"
   id="path8"
   d="M63.953,54.817H9.135c-2.474,0-4.615,0.903-6.423,2.712S0,61.479,0,63.953v54.817c0,2.475,0.903,4.615,2.712,6.424    s3.949,2.712,6.423,2.712h54.818c2.474,0,4.615-0.9,6.423-2.712c1.809-1.809,2.712-3.949,2.712-6.424V63.953    c0-2.475-0.904-4.615-2.712-6.424C68.568,55.725,66.427,54.817,63.953,54.817z" />
		<path
   style="fill:#013b80;fill-opacity:1"
   id="path10"
   d="M502.49,383.722H118.771c-2.474,0-4.615,0.896-6.423,2.707c-1.809,1.81-2.712,3.949-2.712,6.426v54.82    c0,2.471,0.903,4.609,2.712,6.42c1.809,1.813,3.946,2.714,6.423,2.714H502.49c2.478,0,4.616-0.903,6.427-2.714    c1.81-1.811,2.71-3.949,2.71-6.42v-54.82c0-2.477-0.903-4.616-2.71-6.426C507.106,384.625,504.967,383.722,502.49,383.722z" />
		<path
   style="fill:#013b80;fill-opacity:1"
   id="path12"
   d="M502.49,274.082H118.771c-2.474,0-4.615,0.91-6.423,2.714s-2.712,3.953-2.712,6.424v54.815    c0,2.478,0.903,4.62,2.712,6.427c1.809,1.808,3.946,2.707,6.423,2.707H502.49c2.478,0,4.616-0.896,6.427-2.707    c1.81-1.807,2.71-3.949,2.71-6.427V283.22c0-2.471-0.903-4.613-2.71-6.424C507.106,274.992,504.967,274.082,502.49,274.082z" />
		<path
   style="fill:#013b80;fill-opacity:1"
   id="path14"
   d="M508.917,57.529c-1.811-1.805-3.949-2.712-6.427-2.712H118.771c-2.474,0-4.615,0.903-6.423,2.712    s-2.712,3.949-2.712,6.424v54.817c0,2.475,0.903,4.615,2.712,6.424s3.946,2.712,6.423,2.712H502.49c2.478,0,4.616-0.9,6.427-2.712    c1.81-1.809,2.71-3.949,2.71-6.424V63.953C511.626,61.479,510.723,59.338,508.917,57.529z" />
		<path
   style="fill:#013b80;fill-opacity:1"
   id="path16"
   d="M502.49,164.453H118.771c-2.474,0-4.615,0.9-6.423,2.709c-1.809,1.81-2.712,3.952-2.712,6.427v54.817    c0,2.473,0.903,4.615,2.712,6.424c1.809,1.803,3.946,2.712,6.423,2.712H502.49c2.478,0,4.616-0.905,6.427-2.712    c1.81-1.809,2.71-3.951,2.71-6.424v-54.817c0-2.475-0.903-4.617-2.71-6.427C507.106,165.356,504.967,164.453,502.49,164.453z" />
	</g>
</g>
<g
   id="g22">
</g>
<g
   id="g24">
</g>
<g
   id="g26">
</g>
<g
   id="g28">
</g>
<g
   id="g30">
</g>
<g
   id="g32">
</g>
<g
   id="g34">
</g>
<g
   id="g36">
</g>
<g
   id="g38">
</g>
<g
   id="g40">
</g>
<g
   id="g42">
</g>
<g
   id="g44">
</g>
<g
   id="g46">
</g>
<g
   id="g48">
</g>
<g
   id="g50">
</g>
</svg>
