<?xml version="1.0" encoding="utf-8"?>
<!-- Generator: Adobe Illustrator 24.0.1, SVG Export Plug-In . SVG Version: 6.00 Build 0)  -->
<svg version="1.1" xmlns="http://www.w3.org/2000/svg" xmlns:xlink="http://www.w3.org/1999/xlink" x="0px" y="0px"
	 viewBox="0 0 639 495.8" style="enable-background:new 0 0 639 495.8;" xml:space="preserve">
<style type="text/css">
	.st0{display:none;}
	.st1{display:inline;fill:#0F0689;}
	.st2{display:inline;}
	.st3{fill:#0053B3;}
	.st4{fill:#4545CE;}
	.st5{fill:#FF9947;}
	.st6{fill:#6161E5;}
	.st7{fill:#0F0689;}
	.st8{fill:#9F9FF7;}
</style>
<g id="svg1891" xmlns:cc="http://creativecommons.org/ns#" xmlns:dc="http://purl.org/dc/elements/1.1/" xmlns:inkscape="http://www.inkscape.org/namespaces/inkscape" xmlns:rdf="http://www.w3.org/1999/02/22-rdf-syntax-ns#" xmlns:sodipodi="http://sodipodi.sourceforge.net/DTD/sodipodi-0.dtd" xmlns:svg="http://www.w3.org/2000/svg">
	
		<sodipodi:namedview  bordercolor="#666666" borderopacity="1" gridtolerance="10" guidetolerance="10" id="namedview1893" inkscape:current-layer="svg1891" inkscape:cx="319.08182" inkscape:cy="246.32494" inkscape:document-rotation="0" inkscape:pageopacity="0" inkscape:pageshadow="2" inkscape:window-height="1000" inkscape:window-maximized="1" inkscape:window-width="1215" inkscape:window-x="65" inkscape:window-y="24" inkscape:zoom="0.85956007" objecttolerance="10" pagecolor="#ffffff" showgrid="false">
		</sodipodi:namedview>
	<g id="Calque_2_1_" transform="translate(-47.596,-48.971)" class="st0">
		<rect id="rect1882" x="686.4" y="463.1" class="st1" width="47.4" height="47.4"/>
		<rect id="rect1884" x="0.2" y="410.9" class="st1" width="47.4" height="47.4"/>
		<rect id="rect1886" x="435.8" y="543.6" class="st1" width="47.4" height="47.4"/>
		<rect id="rect1888" x="392.6" y="0.8" class="st1" width="47.4" height="47.4"/>
	</g>
</g>
<g id="Calque_3" class="st0">
	<g id="g1829" class="st2">
		<g id="g1827">
			<path id="path1789" class="st3" d="M0,385.6v-37.3h16.1c1.7,0,3.3,0.2,4.8,1c1.4,0.7,2.7,1.6,3.7,2.9c1,1.2,1.9,2.5,2.5,4.1
				c0.6,1.5,0.9,3.1,0.9,4.6c0,1.7-0.3,3.3-0.8,4.8c-0.6,1.5-1.3,2.9-2.4,4.1c-1,1.2-2.2,2.2-3.7,2.9c-1.4,0.7-3,1.1-4.8,1.1H8.5
				v11.9L0,385.6z M8.5,365.2h7.3c1,0,1.8-0.1,2.6-1c0.7-0.9,1.1-2,1.1-3.7c0-0.9-0.1-1.6-0.3-2.2c-0.2-0.6-0.5-1.1-0.9-1.6
				c-0.4-0.4-0.8-1-1.3-1.2c-0.5-0.2-1-0.6-1.4-0.6h-7L8.5,365.2z"/>
			<path id="path1791" class="st3" d="M40.6,348.3h7.6l13.2,37.3h-8.6l-2.8-8.5H38.7l-2.8,8.5h-8.6L40.6,348.3z M48.6,372l-4.2-13.4
				L40,372H48.6z"/>
			<path id="path1793" class="st3" d="M66.1,385.6v-37.3h15.8c1.7,0,3.3,0.2,4.7,1c1.4,0.7,2.7,1.6,3.8,2.9c1.1,1.2,1.9,2.5,2.5,4.1
				c0.6,1.5,0.9,3.1,0.9,4.6c0,1.2-0.1,2.3-0.4,3.4c-0.3,1.1-0.7,2.1-1.2,3.1c-0.5,1-1.1,1.8-1.9,2.6c-0.7,0.8-1.6,1.3-2.5,1.8
				l8,13.9h-9.5l-6.9-11.9h-4.9v11.9H66.1z M74.6,365.2h7.1c1,0,1.8-0.1,2.6-1.1c0.7-1,1.1-2,1.1-3.6c0-1.6-0.4-3-1.2-3.9
				c-0.8-0.9-1.7-1.6-2.7-1.6h-6.8L74.6,365.2z"/>
			<path id="path1795" class="st3" d="M98.3,366.6c0-2.3,0.4-4.5,1.2-6.8c0.8-2.3,2-4.3,3.6-6c1.6-1.8,3.5-3.2,5.7-4.3
				c2.2-1.1,4.8-1.6,7.7-1.6c3.4,0,6.4,0.8,8.9,2.3c2.5,1.5,4.4,3.5,5.6,6l-6.4,4.7c-0.4-1-0.9-1.8-1.6-2.5
				c-0.6-0.7-1.3-1.2-2.1-1.6c-0.7-0.4-1.5-0.7-2.3-0.8c-0.8-0.2-1.6-0.2-2.3-0.2c-1.6,0-3,0.3-4.2,1c-1.2,0.7-2.2,1.5-3,2.6
				c-0.8,1.1-1.4,2.3-1.7,3.6c-0.4,1.4-0.6,2.7-0.6,4.1c0,1.5,0.2,2.9,0.7,4.3c0.4,1.4,1.1,2.6,1.9,3.7c0.8,1.1,1.8,1.9,3,2.5
				c1.2,0.6,2.5,0.9,4,0.9c0.7,0,1.5-0.1,2.3-0.3c0.8-0.2,1.6-0.5,2.3-0.9c0.7-0.4,1.4-0.9,2-1.6c0.6-0.7,1.1-1.5,1.5-2.4l6.8,4.2
				c-0.5,1.4-1.4,2.6-2.4,3.7c-1.1,1.1-2.3,2-3.7,2.8c-1.4,0.7-2.9,1.3-4.4,1.7c-1.6,0.4-3.1,0.6-4.6,0.6c-2.6,0-5-0.6-7.2-1.7
				c-2.2-1.1-4.1-2.6-5.7-4.4c-1.6-1.8-2.8-3.9-3.7-6.3C98.8,371.4,98.3,369,98.3,366.6L98.3,366.6z"/>
			<path id="path1797" class="st3" d="M151.8,386.1c-2.7,0-5.1-0.5-7.4-1.6c-2.2-1.1-4.1-2.5-5.7-4.3c-1.6-1.8-2.8-3.8-3.7-6.2
				c-0.9-2.3-1.3-4.7-1.3-7.1c0-2.5,0.4-4.9,1.4-7.2c0.9-2.3,2.2-4.3,3.8-6.1c1.6-1.8,3.5-3.2,5.8-4.2c2.2-1,4.6-1.6,7.3-1.6
				c2.7,0,5.1,0.6,7.4,1.6c2.2,1.1,4.1,2.6,5.7,4.4c1.6,1.8,2.8,3.9,3.6,6.2c0.9,2.3,1.3,4.6,1.3,7c0,2.5-0.5,4.9-1.4,7.2
				c-0.9,2.3-2.2,4.3-3.8,6.1c-1.6,1.8-3.5,3.2-5.7,4.2C156.8,385.6,154.4,386.1,151.8,386.1L151.8,386.1z M142.3,366.9
				c0,1.5,0.2,2.9,0.6,4.2c0.4,1.4,1,2.6,1.8,3.6c0.8,1.1,1.8,1.9,3,2.6c1.2,0.6,2.6,1,4.1,1c1.6,0,3-0.3,4.2-1
				c1.2-0.7,2.2-1.6,3-2.6c0.8-1.1,1.4-2.3,1.8-3.7c0.4-1.4,0.6-2.8,0.6-4.2c0-1.5-0.2-2.9-0.6-4.2c-0.4-1.4-1-2.6-1.8-3.6
				c-0.8-1-1.8-1.9-3-2.5c-1.2-0.6-2.5-0.9-4.1-0.9c-1.6,0-3,0.3-4.2,1c-1.2,0.7-2.2,1.5-3,2.6c-0.8,1.1-1.4,2.3-1.8,3.6
				C142.5,364.1,142.3,365.5,142.3,366.9L142.3,366.9z"/>
			<path id="path1799" class="st3" d="M190.9,378.3c1.4,0,2.6-0.3,3.6-0.9c1-0.6,1.8-1.4,2.4-2.5c0.6-1,0.9-2.2,1.1-3.5
				c0.3-1.3,0.2-2.7,0.2-4.1v-19h8.5v19c0,2.6-0.2,5.1-0.8,7.3c-0.6,2.3-1.5,4.3-2.9,6c-1.3,1.7-3,3-5,4c-2,1-4.4,1.5-7.2,1.5
				c-2.9,0-5.4-0.5-7.4-1.5c-2-1-3.7-2.4-5-4.1c-1.3-1.7-2.3-3.7-2.9-6c-0.6-2.3-1-4.7-1-7.1v-19h8.5v19c0,1.5,0.2,2.8,0.5,4.2
				c0.3,1.3,0.8,2.5,1.4,3.5c0.6,1,1.4,1.8,2.4,2.4C188.3,378,189.5,378.3,190.9,378.3L190.9,378.3z"/>
			<path id="path1801" class="st3" d="M213.6,385.6v-37.3h16.9c1.7,0,3.3,0.2,4.7,1c1.4,0.7,2.7,1.6,3.8,2.9
				c1.1,1.2,1.9,2.5,2.5,4.1c0.6,1.5,0.9,3.1,0.9,4.6c0,1.2-0.1,2.3-0.4,3.4c-0.3,1.1-0.7,2.1-1.2,3.1s-1.1,1.8-1.9,2.6
				c-0.7,0.8-1.6,1.3-2.5,1.8l8,13.9h-9.5l-6.9-11.9H222v11.9H213.6z M222,365.2h8.1c1,0,1.8-0.1,2.6-1.1c0.7-1,1.1-2,1.1-3.6
				c0-1.6-0.4-3-1.2-3.9c-0.8-0.9-1.7-1.6-2.7-1.6H222L222,365.2z"/>
			<path id="path1803" class="st3" d="M270.7,359.1c-0.1-0.1-0.5-0.4-1.1-0.8c-0.6-0.4-1.4-0.8-2.3-1.2c-0.9-0.4-1.9-0.8-3-1.1
				c-1.1-0.3-2.2-0.5-3.3-0.5c-3,0-4.5,1-4.5,3.1c0,0.6,0.2,1.2,0.5,1.6c0.3,0.4,0.8,0.8,1.4,1.1c0.6,0.3,1.4,0.6,2.4,0.9
				c1,0.3,2.1,0.6,3.3,1c1.7,0.5,3.3,1,4.7,1.6c1.4,0.6,2.6,1.3,3.6,2.2c1,0.9,1.7,1.9,2.3,3.2c0.5,1.2,0.8,2.7,0.8,4.5
				c0,2.1-0.4,3.9-1.1,5.4c-0.8,1.5-1.8,2.7-3,3.6c-1.3,0.9-2.7,1.6-4.3,2c-1.6,0.4-3.3,0.6-5.1,0.6c-1.3,0-2.7-0.1-4.1-0.3
				c-1.4-0.2-2.8-0.5-4.1-0.9c-1.3-0.4-2.6-0.9-3.9-1.5c-1.2-0.6-2.4-1.2-3.4-2l3.7-7.6c0.1,0.2,0.6,0.5,1.3,1
				c0.7,0.5,1.7,1,2.8,1.5c1.1,0.5,2.3,0.9,3.7,1.3c1.4,0.4,2.7,0.6,4.1,0.6c3,0,4.4-0.9,4.4-2.8c0-0.7-0.2-1.3-0.7-1.8
				c-0.4-0.5-1.1-0.9-1.8-1.2c-0.8-0.4-1.7-0.7-2.8-1c-1.1-0.3-2.2-0.7-3.5-1.1c-1.7-0.5-3.1-1.1-4.3-1.7c-1.2-0.6-2.2-1.3-3-2.2
				c-0.8-0.8-1.4-1.8-1.8-2.8c-0.4-1.1-0.6-2.3-0.6-3.7c0-2,0.4-3.7,1.1-5.3c0.7-1.5,1.7-2.8,2.9-3.9c1.2-1,2.7-1.8,4.3-2.4
				c1.6-0.5,3.3-0.8,5.1-0.8c1.3,0,2.5,0.1,3.7,0.4c1.2,0.2,2.4,0.6,3.5,1c1.1,0.4,2.2,0.8,3.1,1.3c1,0.5,1.9,1,2.7,1.5L270.7,359.1
				z"/>
			<path id="path1805" class="st3" d="M315.3,359.1c-0.1-0.1-0.5-0.4-1.1-0.8c-0.6-0.4-1.4-0.8-2.3-1.2c-0.9-0.4-1.9-0.8-3-1.1
				c-1.1-0.3-2.2-0.5-3.3-0.5c-3,0-4.5,1-4.5,3.1c0,0.6,0.2,1.2,0.5,1.6c0.3,0.4,0.8,0.8,1.4,1.1c0.6,0.3,1.4,0.6,2.4,0.9
				c1,0.3,2.1,0.6,3.3,1c1.7,0.5,3.3,1,4.7,1.6c1.4,0.6,2.6,1.3,3.5,2.2c1,0.9,1.7,1.9,2.3,3.2c0.5,1.2,0.8,2.7,0.8,4.5
				c0,2.1-0.4,3.9-1.1,5.4c-0.8,1.5-1.8,2.7-3,3.6c-1.3,0.9-2.7,1.6-4.3,2c-1.6,0.4-3.3,0.6-5.1,0.6c-1.3,0-2.7-0.1-4.1-0.3
				c-1.4-0.2-2.8-0.5-4.1-0.9c-1.3-0.4-2.6-0.9-3.9-1.5c-1.2-0.6-2.4-1.2-3.4-2l3.7-7.6c0.1,0.2,0.6,0.5,1.3,1
				c0.8,0.5,1.7,1,2.8,1.5c1.1,0.5,2.3,0.9,3.7,1.3c1.4,0.4,2.7,0.6,4.1,0.6c3,0,4.4-0.9,4.4-2.8c0-0.7-0.2-1.3-0.7-1.8
				c-0.4-0.5-1.1-0.9-1.8-1.2c-0.8-0.4-1.7-0.7-2.8-1c-1.1-0.3-2.2-0.7-3.5-1.1c-1.7-0.5-3.1-1.1-4.3-1.7c-1.2-0.6-2.2-1.3-3-2.2
				c-0.8-0.8-1.4-1.8-1.8-2.8c-0.4-1.1-0.6-2.3-0.6-3.7c0-2,0.4-3.7,1.1-5.3c0.7-1.5,1.7-2.8,2.9-3.9c1.2-1,2.7-1.8,4.3-2.4
				c1.6-0.5,3.3-0.8,5.1-0.8c1.3,0,2.5,0.1,3.7,0.4c1.2,0.2,2.4,0.6,3.5,1c1.1,0.4,2.2,0.8,3.1,1.3s1.9,1,2.7,1.5L315.3,359.1z"/>
			<path id="path1807" class="st3" d="M341.5,386.1c-2.7,0-5.1-0.5-7.4-1.6c-2.2-1.1-4.1-2.5-5.7-4.3c-1.6-1.8-2.8-3.8-3.7-6.2
				c-0.9-2.3-1.3-4.7-1.3-7.1c0-2.5,0.5-4.9,1.4-7.2c0.9-2.3,2.2-4.3,3.8-6.1c1.6-1.8,3.5-3.2,5.7-4.2c2.2-1,4.6-1.6,7.3-1.6
				c2.7,0,5.1,0.6,7.4,1.6c2.2,1.1,4.1,2.6,5.7,4.4c1.6,1.8,2.8,3.9,3.6,6.2c0.9,2.3,1.3,4.6,1.3,7c0,2.5-0.5,4.9-1.4,7.2
				c-0.9,2.3-2.2,4.3-3.8,6.1c-1.6,1.8-3.5,3.2-5.7,4.2C346.5,385.6,344.1,386.1,341.5,386.1L341.5,386.1z M332,366.9
				c0,1.5,0.2,2.9,0.6,4.2c0.4,1.4,1,2.6,1.8,3.6c0.8,1.1,1.8,1.9,3,2.6c1.2,0.6,2.6,1,4.1,1c1.6,0,3-0.3,4.2-1
				c1.2-0.7,2.2-1.6,3-2.6c0.8-1.1,1.4-2.3,1.8-3.7c0.4-1.4,0.6-2.8,0.6-4.2c0-1.5-0.2-2.9-0.6-4.2c-0.4-1.4-1-2.6-1.8-3.6
				c-0.8-1-1.8-1.9-3-2.5c-1.2-0.6-2.5-0.9-4.1-0.9c-1.6,0-3,0.3-4.2,1c-1.2,0.7-2.2,1.5-3,2.6c-0.8,1.1-1.4,2.3-1.8,3.6
				C332.2,364.1,332,365.5,332,366.9z"/>
			<path id="path1809" class="st3" d="M364.4,385.6v-37.3h8.5v30.5h18.6v6.8H364.4z"/>
			<path id="path1811" class="st3" d="M394.9,385.6v-37.3h8.5v37.3H394.9z"/>
			<path id="path1813" class="st3" d="M411.9,385.6v-37.3H425c3,0,5.6,0.4,7.9,1.3c2.2,1,4.1,2.3,5.6,4c1.5,1.7,2.7,3.7,3.4,6
				c0.8,2.3,1.1,4.7,1.1,7.3c0,2.9-0.4,5.5-1.3,7.8c-0.9,2.3-2.1,4.3-3.7,6c-1.6,1.6-3.5,2.8-5.7,3.7c-2.2,0.9-4.7,1.2-7.4,1.2
				L411.9,385.6L411.9,385.6z M434.6,366.8c0-1.7-0.2-3.2-0.6-4.6c-0.4-1.4-1-2.5-1.9-3.5c-0.8-1-1.8-2-3-2.6
				c-1.2-0.5-2.5-1.1-4-1.1h-4.7v23.7h4.7c1.5,0,2.9-0.6,4.1-1.2c1.2-0.6,2.2-1.5,3-2.5c0.8-1,1.4-2.3,1.8-3.7
				C434.4,370.1,434.6,368.5,434.6,366.8L434.6,366.8z"/>
			<path id="path1815" class="st3" d="M457.3,348.3h7.6l13.2,37.3h-8.6l-2.8-8.5h-11.3l-2.8,8.5H444L457.3,348.3z M465.3,372
				l-4.2-13.4l-4.3,13.4H465.3z"/>
			<path id="path1817" class="st3" d="M483.1,385.6v-37.3h6.8v37.3H483.1z"/>
			<path id="path1819" class="st3" d="M498.3,385.6v-37.3h16.3c1.7,0,3.3,0.2,4.7,1c1.4,0.7,2.7,1.6,3.8,2.9
				c1.1,1.2,1.9,2.5,2.5,4.1c0.6,1.5,0.9,3.1,0.9,4.6c0,1.2-0.1,2.3-0.4,3.4c-0.3,1.1-0.7,2.1-1.2,3.1s-1.1,1.8-1.9,2.6
				c-0.7,0.8-1.6,1.3-2.5,1.8l8,13.9H519l-6.9-11.9h-5.3v11.9H498.3z M506.8,365.2h7.5c1,0,1.8-0.1,2.6-1.1c0.7-1,1.1-2,1.1-3.6
				c0-1.6-0.4-3-1.2-3.9c-0.8-0.9-1.7-1.6-2.7-1.6h-7.2V365.2z"/>
			<path id="path1821" class="st3" d="M559.3,378.8v6.8h-25.4v-37.3h23.7v6.8h-16.9v8.5h15.3v6.8h-15.3v8.5H559.3z"/>
			<path id="path1823" class="st3" d="M576.3,385.6v-37.3h14.1c3,0,5.6,0.4,7.9,1.3c2.2,1,4.1,2.3,5.6,4c1.5,1.7,2.7,3.7,3.4,6
				c0.8,2.3,1.2,4.7,1.2,7.3c0,2.9-0.4,5.5-1.3,7.8c-0.9,2.3-2.1,4.3-3.7,6c-1.6,1.6-3.5,2.8-5.7,3.7c-2.2,0.9-4.7,1.2-7.4,1.2
				L576.3,385.6L576.3,385.6z M599.9,366.8c0-1.7-0.2-3.2-0.6-4.6c-0.4-1.4-1-2.5-1.9-3.5c-0.8-1-1.8-2-3-2.6
				c-1.2-0.5-2.5-1.1-4-1.1h-5.6v23.7h5.6c1.5,0,2.9-0.6,4.1-1.2c1.2-0.6,2.2-1.5,3-2.5c0.8-1,1.4-2.3,1.8-3.7
				C599.7,370.1,599.9,368.5,599.9,366.8L599.9,366.8z"/>
			<path id="path1825" class="st3" d="M639,378.8v6.8h-25.4v-37.3H639v6.8h-17v8.5h15.3v6.8H622v8.5H639z"/>
		</g>
	</g>
	<g id="g1851" class="st2">
		<g id="g1849">
			<path id="path1831" class="st3" d="M0,494.1v-79.7h52.5v17H18.6v16.9h28.8v15.3H18.6v30.5H0z"/>
			<path id="path1833" class="st3" d="M95.9,495.8c-5.7,0-11-1.2-15.7-3.5c-4.7-2.3-8.8-5.4-12.1-9.2c-3.3-3.8-5.9-8.2-7.8-13.1
				c-1.9-4.9-2.8-10-2.8-15.2c0-5.3,1-10.4,2.9-15.3c1.9-4.9,4.6-9.2,8.1-13c3.4-3.7,7.5-6.7,12.2-9c4.7-2.2,9.9-3.4,15.5-3.4
				c5.7,0,11,1.2,15.7,3.5c4.7,2.3,8.7,5.4,12.1,9.3c3.3,3.9,5.9,8.2,7.7,13.2c1.8,4.9,2.7,9.9,2.7,15c0,5.3-1,10.4-2.9,15.3
				c-1.9,4.9-4.6,9.2-8,13c-3.4,3.7-7.5,6.7-12.2,9C106.6,494.7,101.5,495.8,95.9,495.8L95.9,495.8z M75.7,455c0,3.1,0.4,6.1,1.3,9
				c0.9,2.9,2.2,5.5,3.9,7.8c1.7,2.3,3.8,4.1,6.4,5.4c2.5,1.4,5.4,2,8.7,2c3.4,0,6.4-0.7,8.9-2.2c2.5-1.4,4.6-3.3,6.3-5.6
				c1.7-2.3,2.9-4.9,3.8-7.8c0.8-2.9,1.2-5.9,1.2-8.9c0-3.1-0.4-6.1-1.3-9c-0.9-2.9-2.2-5.5-3.9-7.7c-1.7-2.2-3.9-4-6.4-5.3
				c-2.5-1.3-5.4-2-8.7-2c-3.4,0-6.4,0.7-8.9,2.1c-2.5,1.4-4.6,3.2-6.3,5.5c-1.7,2.3-3,4.9-3.8,7.8C76.1,449,75.7,451.9,75.7,455
				L75.7,455z"/>
			<path id="path1835" class="st3" d="M145.8,494.1v-79.7h35.5c3.6,0,7,0.9,10.1,2.5c3.1,1.6,5.8,3.7,8,6.3c2.2,2.6,4,5.5,5.3,8.8
				c1.3,3.3,1.9,6.6,1.9,9.9c0,2.5-0.3,4.9-0.9,7.2c-0.6,2.3-1.4,4.5-2.5,6.5c-1.1,2-2.4,3.9-4,5.5c-1.6,1.6-3.3,2.5-5.3,3.6
				l17,29.4h-20.1l-14.8-25.4h-11.5v25.4L145.8,494.1z M164.4,453.4h16.2c2.1,0,3.9-1.3,5.4-3.3c1.5-2.1,2.3-4.9,2.3-8.1
				c0-3.3-0.9-5.8-2.6-7.8c-1.7-2-3.6-2.8-5.7-2.8h-15.6V453.4z"/>
			<path id="path1837" class="st3" d="M281.4,494.1v-47.1l-16.1,35.3h-9.6L239,446.9v47.1h-18.6v-79.7h20l20,42.1l20.1-42.1H300
				v79.7H281.4z"/>
			<path id="path1839" class="st3" d="M337.3,414.4h16.1l28.2,79.7h-18.3l-6-17h-24.1l-5.9,17h-18.3L337.3,414.4z M354.4,463.5
				l-9-28.5l-9.3,28.5H354.4z"/>
			<path id="path1841" class="st3" d="M442.4,431.3h-23.7v62.7h-16.9v-62.7H378v-17h64.4L442.4,431.3L442.4,431.3z"/>
			<path id="path1843" class="st3" d="M452.6,494.1v-79.7h16.9v79.7H452.6z"/>
			<path id="path1845" class="st3" d="M520.7,495.8c-5.7,0-11-1.2-15.7-3.5c-4.7-2.3-8.8-5.4-12.1-9.2c-3.3-3.8-5.9-8.2-7.8-13.1
				c-1.8-4.9-2.8-10-2.8-15.2c0-5.3,1-10.4,2.9-15.3c1.9-4.9,4.6-9.2,8.1-13c3.4-3.7,7.5-6.7,12.3-9c4.7-2.2,9.9-3.4,15.5-3.4
				c5.7,0,11,1.2,15.7,3.5c4.7,2.3,8.8,5.4,12.1,9.3c3.3,3.9,5.9,8.2,7.7,13.2c1.8,4.9,2.7,9.9,2.7,15c0,5.3-1,10.4-2.9,15.3
				c-1.9,4.9-4.6,9.2-8,13c-3.4,3.7-7.5,6.7-12.2,9C531.4,494.7,526.3,495.8,520.7,495.8L520.7,495.8z M500.5,455
				c0,3.1,0.4,6.1,1.3,9c0.9,2.9,2.2,5.5,3.9,7.8c1.7,2.3,3.8,4.1,6.4,5.4c2.5,1.4,5.4,2,8.7,2c3.4,0,6.4-0.7,8.9-2.2
				c2.5-1.4,4.6-3.3,6.3-5.6c1.7-2.3,2.9-4.9,3.8-7.8c0.8-2.9,1.2-5.9,1.2-8.9c0-3.1-0.4-6.1-1.3-9c-0.9-2.9-2.2-5.5-3.9-7.7
				c-1.7-2.2-3.9-4-6.4-5.3c-2.5-1.3-5.4-2-8.7-2c-3.4,0-6.4,0.7-8.9,2.1c-2.5,1.4-4.6,3.2-6.3,5.5c-1.7,2.3-3,4.9-3.8,7.8
				C501,449,500.5,451.9,500.5,455L500.5,455z"/>
			<path id="path1847" class="st3" d="M589.8,449.1v45h-18.6v-79.7h14l35.2,47.5v-47.5H639v79.7h-14.3L589.8,449.1z"/>
		</g>
	</g>
</g>
<g id="Calque_2">
	<path class="st4" d="M516.4,105.4"/>
	<path class="st4" d="M503.7,79.7"/>
	<path class="st4" d="M516.4,105.4"/>
	<path class="st4" d="M503.7,79.7"/>
	<g>
		<path class="st5" d="M384.5,0c-28.3,0-51.4,28-51.4,62.4c0,13.2,0.7,28.2,8.4,39.7c10.3,15.1,27.9,25.7,43,25.7
			c15,0,32.7-10.6,43-25.7c7.8-11.5,8.4-26.5,8.4-39.7C435.9,28,412.9,0,384.5,0z M399.4,97.1c-0.8,1.9-5.4,11.8-14.8,11.8h-0.1
			c-9.4,0-14-9.9-14.8-11.8c-0.1-0.2,0-0.1,0-0.1c0-0.1,0.2-0.2,0.2-0.2l2-1.3c0,0,0.1-0.1,0.2,0c0,0,0.1,0,0.2,0.1
			c0.9,1.1,4.7,5.3,12.4,5.3c7.7,0,11.5-4.2,12.4-5.3c0.1-0.1,0.2-0.1,0.2-0.1c0.1,0,0.2,0,0.2,0l2,1.3c0,0,0.1,0.1,0.2,0.2
			C399.4,97,399.5,96.9,399.4,97.1z"/>
	</g>
	<g>
		<path class="st6" d="M617.9,127c1.9,1,4.5,3.4,6.2,5.8l4.2-2.1c-11.5-22.4-33.9-34.3-46-40c-22.3-10.2-42.4-9.8-42.6-9.8l-0.1,0
			l-36,0c-0.8,0-3.2,0.2-4.6,1.5c-0.7,0.7-1.1,1.6-1.1,2.9c0,1,0.2,1.7,0.8,2.3c0.4,0.4,0.9,0.6,1.4,0.9c0.1,0,0.1,0,0.2,0.1
			c0,0,0,0,0,0c1.1,0.4,2.2,0.5,2.7,0.5l12.9,0v2.3v1.2v1.2l-31.7,0c-0.8,0-3.1,0.2-4.4,1.5c-0.7,0.7-1,1.6-1,2.9
			c0,1,0.3,1.7,0.8,2.3c0.4,0.4,1,0.7,1.6,1c1.1,0.4,2.3,0.5,2.8,0.5l0.7,0l31.1,0v3.5v1.2l-36.9,0c-0.8,0-3.1,0.2-4.4,1.5
			c-0.7,0.7-1,1.6-1,2.9c0,1,0.3,1.7,0.9,2.3c0.2,0.2,0.5,0.4,0.8,0.6c1.4,0.7,3,0.8,3.7,0.8l0.6,0l36.4,0v0v2.3v1.9v0v0.4l0.2,0
			l0.2,0l-31.9,0c-0.8,0-3.2,0.2-4.5,1.5c-0.7,0.7-1,1.7-1,2.9c0,1,0.3,1.7,0.8,2.3c1.4,1.5,4.5,1.6,5.3,1.6h27.3c0.2,0,0.4,0,0.5,0
			h17.7v0.7v3.5v0.3l-17.9,0.2c0,0,0,0,0,0h-0.3c-1.8,0-3.1,0.4-4.2,1.5c-0.7,0.7-1,1.5-1,2.7c0,1,0.3,1.6,0.8,2.2
			c1.4,1.4,4.5,1.2,5.3,1.2h32.9c1.9-0.6,11.1-4.8,18.6-13.4l0.9-0.9l0.3,0.1l1.1,0.2c0.4,0.1,0.8,0.2,1.2,0.3
			c0.3,0.1,0.6,0.1,0.9,0.2c0.2,0,0.3,0.1,0.5,0.1c0.6,0.1,1.1,0.3,1.6,0.5c0,0,0.1,0,0.1,0c6.5,2,11.2,5.2,14.5,8.5
			C588.2,131.6,602.3,118.7,617.9,127z"/>
	</g>
	<g>
		<path class="st5" d="M468.7,242.7c-0.6,0.8-1.6,1.6-2.6,2.5c-0.1,0-0.2,0.1-0.2,0.1v0c-0.6,0.9-2.1,1.8-3.5,2.7l19.1,0
			c0.5-0.6,1.4-1.4,2-2.3v-35.2h-0.3c-0.3,1.8-0.9,3.9-2.4,5.3c-1.4,1.3-3.2,2.1-5.4,2.1c-1.9,0-3.2-0.8-4.4-1.7
			c0,8.9,0.1,21.3,0.1,22.9C470.9,240.1,469.8,241.5,468.7,242.7z"/>
		<path class="st5" d="M538.8,269.2V268v-2.3V265l37.2,0c0.8,0,3.2-0.2,4.6-1.5c0.7-0.7,1.1-1.6,1.1-2.9c0-1-0.2-1.8-0.8-2.3
			c-1.6-1.4-4.4-1.3-5.3-1.3h-4.6c0,0-0.1,0-0.1,0c0,0,0,0-0.1,0l-32-0.1v-0.4v-1.4v-2.2v-0.8l31.9,0c0.8,0,3.2-0.2,4.6-1.5
			c0.7-0.7,1.1-1.6,1.1-2.9c0-1-0.3-1.8-0.8-2.3c-1.2-1.2-4.5-1.4-5.3-1.4h-18.9h-8.4c-0.2,0-0.4,0-0.5,0h-18.3v-0.4v-3.5v-0.7h20.4
			c1.3,0,2.3-0.7,2.8-1.2c0.7-0.7,0.8-1.9,0.8-3.2c0-1-0.3-1.8-0.8-2.4c-1.2-1.2-3.7-1.5-4.4-1.5h-0.5h-33h-0.3
			c-1.3,0.6-5.7,2.5-10.7,6.2c-2.6,2-5.3,4.4-7.9,7.3c-1.2,1.5-5.5,6.4-6.3,7.3l-0.5,0.7l-88.9,0.1c-0.8,0-8.9,0.2-17.7-2.9
			c-12.2-4.3-19.7-13-21.7-24.9l4.6-0.8c4.1,24.7,34.2,23.9,34.5,23.9l0.1,0l39.4,0c-0.5-0.3-1-0.7-1.5-1.1
			c-1.3-1.1-3.2-3.2-4.3-5.3c0-0.5,0-16.4,0-16.4c-1.2,0.9-2.5,1.3-4.2,1.3c-2.4,0-4.6-0.8-6.1-2.3c-2.7-2.8-2.7-7-2.7-7.5v-35.9
			c0-0.4-0.9-12.1,2.9-26.9c1.8-7.1,4-14.4,8.9-23.2l-6.7-0.5c-6.5,4.7-13.5,8.1-20.5,10.4c-5.2,1.8-10.4,2.7-15.5,2.7
			c-5,0-10.2-1-15.5-2.8c-6.9-2.3-13.8-5.4-20.3-10.3c-0.6,0-2.8,0-3.4,0c-8.5,0-15.7,2.7-21.5,8.4c-0.8,0.8-1.8,1.6-2.5,2.5
			c-10.8,13-12.4,34-13,43.3v17v23.7v6.7v1.8c0,0.8,0.3,20.4,5,30.9c5.5,12.2,14.3,19,26.6,22.2c7.8,2,27.3,3.6,27.3,3.6h179.7
			c1.9,0,4.9,0,5.2,0h0c0,0,2.8-0.3,3.8-1.3c0.7-0.7,1.1-1.6,1.1-2.9c0-1-0.2-1.7-0.8-2.3c-1.2-1.2-3.7-1.4-4.5-1.5l-13.1,0V282
			v-1.9v-1.6v0v-0.8l31.9,0c0.8,0,3.2-0.2,4.6-1.5c0.7-0.7,1.1-1.6,1.1-2.9c0-1-0.3-1.7-0.8-2.3c-1.2-1.2-3.6-1.5-4.4-1.5l-0.9,0
			l-31.4,0V269.2L538.8,269.2z"/>
	</g>
	<g>
		<path class="st7" d="M466.5,101.4c1-1.9,3.4-4.5,5.8-6.2l-2.1-4.2c-22.4,11.5-34.3,33.9-40,46c-10.2,22.3-9.8,42.4-9.8,42.6l0,0.1
			l0,36c0,0.8,0.2,3.2,1.5,4.6c0.7,0.7,1.6,1.1,2.9,1.1c1,0,1.7-0.2,2.3-0.8c0.4-0.4,0.6-0.9,0.9-1.4c0-0.1,0-0.1,0.1-0.2
			c0,0,0,0,0,0c0.4-1.1,0.5-2.2,0.5-2.6l0-12.8h2.3h1.2h1.2l0,31.6c0,0.8,0.2,3.1,1.5,4.4c0.7,0.7,1.6,1,2.9,1c1,0,1.7-0.3,2.3-0.9
			c0.4-0.4,0.7-1,1-1.6c0.4-1.1,0.5-2.3,0.5-2.8l0-0.7l0-31.1h3.5h1.2l0,36.9c0,0.8,0.2,3.1,1.5,4.4c0.7,0.7,1.6,1,2.9,1
			c1,0,1.7-0.3,2.3-0.9c0.2-0.2,0.4-0.5,0.6-0.8c0.7-1.4,0.8-3,0.8-3.7l0-0.6l0-36.4h0h2.3h1.9h0h0.4l0-0.3l0-0.2l0,31.9
			c0,0.8,0.2,3.2,1.5,4.5c0.7,0.7,1.7,1,2.9,1c1,0,1.6-0.3,2.2-0.8c1.5-1.4,1.6-4.5,1.6-5.3v-27.3c0-0.2,0-0.4,0-0.5v-17.7h0.8h3.5
			h0.3l0.1,17.9c0,0,0,0,0,0v0.3c0,1.8,0.5,3.1,1.6,4.2c0.7,0.7,1.5,1,2.8,1c1,0,1.6-0.3,2.1-0.8c1.4-1.4,1.2-4.5,1.2-5.3v-32.9
			c-0.6-1.9-4.8-11.1-13.4-18.6l-0.9-0.9l0.1-0.3l0.2-1.1c0.1-0.4,0.2-0.8,0.3-1.2c0.1-0.3,0.1-0.6,0.2-0.9c0-0.2,0.1-0.3,0.1-0.5
			c0.1-0.6,0.3-1.1,0.5-1.6c0,0,0-0.1,0-0.1c2-6.5,5.2-11.2,8.5-14.5C471.1,131.2,458.1,117,466.5,101.4z"/>
	</g>
	<path class="st8" d="M639,200.7L639,200.7l0-36.1c0-0.8-0.2-3.2-1.5-4.6c-0.7-0.7-1.6-1.1-2.9-1.1c-1,0-1.7,0.2-2.3,0.8
		c-0.4,0.4-0.6,0.9-0.9,1.4c0,0.1,0,0.1-0.1,0.2c0,0,0,0,0,0c-0.4,1.1-0.5,2.3-0.5,2.8l0,13h-2.3h-1.2h-1.2l0-31.8
		c0-0.8-0.2-3.1-1.5-4.4c-0.7-0.7-1.6-1-2.9-1c-1,0-1.7,0.3-2.3,0.8c-0.4,0.4-0.7,1-1,1.6c-0.4,1.1-0.5,2.3-0.5,2.8l0,0.8l0,31.2
		h-3.5h-1.2l0-37c0-0.8-0.2-3.1-1.5-4.4c-0.7-0.7-1.6-1-2.9-1c-1,0-1.7,0.3-2.3,0.9c-0.2,0.2-0.4,0.5-0.6,0.8
		c-0.7,1.4-0.8,3-0.8,3.7l0,0.7l0,36.5h0h-2.3h-1.9h0h-0.4l0,0.1l0,0.1l0-31.9c0-0.8-0.2-3-1.5-4.4c-0.7-0.7-1.7-1-2.9-1
		c-1,0-1.7,0.3-2.3,0.8c-1.5,1.4-1.6,4.3-1.6,5.1v27.3c0,0.2,0,0.4,0,0.5v17.9h-0.1l-4.1,0h-0.3l-0.2-18.1c0,0,0,0,0,0v-0.3
		c0-1.8-0.4-3.1-1.6-4.2c-0.7-0.7-1.5-1-2.7-1c-1,0-1.9,0.3-2.4,0.8c-1.4,1.4-1.5,4.5-1.5,5.3v32.9c0.6,1.9,5.1,11.1,13.7,18.6
		l1,0.9l0,0.3l-0.2,1.1c-0.1,0.4-0.2,0.8-0.2,1.2c-0.1,0.3-0.1,0.6-0.2,0.9c0,0.2-0.1,0.3-0.1,0.5c-2.3,10.7-8.9,13.4-9,13.6
		c7.9,8.9,7.8,18.6,8,21.2c0.7,11-6.2,18.7-9.1,20.1l1,4.7c1.6,0,4.8-1.3,5.5-1.6c16.7-8.8,27.5-23,34.3-34.9
		c2.1-3.8,3.9-7.3,5.2-10.2C639.4,221.1,639,201,639,200.7z"/>
	<g>
		<path class="st7" d="M-0.2,361.7c0-2.7,0.5-5.4,1.5-8c1-2.6,2.5-5.1,4.5-7.2c2-2.2,4.4-3.9,7.2-5.2c2.8-1.3,6-1.9,9.5-1.9
			c4.2,0,7.9,0.9,11,2.7c3.1,1.8,5.5,4.2,7,7.1l-8.1,5.7c-0.6-1.6-1.5-2.9-2.6-3.8c-1.1-0.9-2.4-1.5-3.7-1.9
			c-1.3-0.4-2.6-0.5-3.9-0.5c-2,0-3.7,0.4-5.2,1.2c-1.5,0.8-2.7,1.8-3.7,3.1c-1,1.3-1.7,2.8-2.2,4.4c-0.5,1.6-0.7,3.2-0.7,4.8
			c0,1.8,0.3,3.6,0.9,5.2c0.6,1.7,1.4,3.1,2.4,4.4c1,1.3,2.3,2.3,3.8,3c1.5,0.7,3.1,1.1,4.9,1.1c1.3,0,2.6-0.2,3.9-0.6
			c1.3-0.4,2.5-1.1,3.7-2c1.1-0.9,2-2.2,2.6-3.7l8.6,5.1c-0.9,2.2-2.4,4.1-4.5,5.7c-2,1.6-4.3,2.8-6.9,3.6c-2.5,0.8-5.1,1.2-7.6,1.2
			c-3.3,0-6.3-0.7-9-2c-2.7-1.3-5.1-3.1-7.1-5.3c-2-2.2-3.5-4.7-4.6-7.5C0.4,367.4-0.2,364.6-0.2,361.7z"/>
		<path class="st7" d="M47.1,384.7v-45.1h10.4v36h21.9v9.2H47.1z"/>
		<path class="st7" d="M96.7,339.6h11.2l15.6,45.1h-10.7l-3.1-10.1H94.8l-3.1,10.1H81.1L96.7,339.6z M107.6,367.5l-5.3-17.4
			L97,367.5H107.6z"/>
		<path class="st7" d="M146.4,385.1c-3.6,0-6.7-0.6-9.2-1.8c-2.5-1.2-4.6-2.9-6.2-5s-2.8-4.5-3.5-7.2c-0.7-2.7-1.1-5.5-1.1-8.4
			v-23.1h10.4v23c0,1.7,0.2,3.4,0.5,5c0.3,1.6,0.9,3,1.6,4.2c0.7,1.2,1.7,2.2,3,2.9c1.2,0.7,2.7,1.1,4.5,1.1c1.8,0,3.3-0.4,4.5-1.1
			c1.2-0.7,2.2-1.7,3-3c0.7-1.3,1.3-2.7,1.7-4.3c0.4-1.6,0.5-3.2,0.5-4.8v-23h10.4v23.1c0,3.1-0.4,6-1.2,8.7c-0.8,2.7-2,5.1-3.6,7.1
			c-1.6,2.1-3.7,3.7-6.2,4.8C153,384.5,150,385.1,146.4,385.1z"/>
		<path class="st7" d="M202.6,352.8c-0.1-0.1-0.6-0.4-1.4-0.9c-0.8-0.5-1.7-1-2.9-1.5c-1.1-0.5-2.4-0.9-3.7-1.3
			c-1.4-0.4-2.7-0.5-4.1-0.5c-1.8,0-3.2,0.3-4.1,0.9c-1,0.6-1.5,1.6-1.5,2.8c0,1,0.4,1.8,1.1,2.4c0.7,0.6,1.8,1.1,3.2,1.6
			c1.4,0.4,3.1,0.9,5.2,1.5c2.9,0.8,5.4,1.7,7.5,2.8c2.1,1.1,3.7,2.4,4.9,4.1c1.1,1.7,1.7,3.9,1.7,6.7c0,2.5-0.5,4.6-1.4,6.4
			c-0.9,1.8-2.2,3.2-3.8,4.3c-1.6,1.1-3.5,1.9-5.5,2.3c-2,0.5-4.1,0.7-6.3,0.7c-2.2,0-4.5-0.2-6.8-0.7c-2.3-0.5-4.5-1.1-6.6-2
			c-2.1-0.8-4.1-1.8-5.9-2.9l4.5-9.2c0.2,0.3,0.8,0.7,1.7,1.2c0.9,0.6,2.1,1.1,3.5,1.7c1.4,0.6,2.9,1.2,4.6,1.7
			c1.7,0.5,3.4,0.7,5.1,0.7c1.9,0,3.3-0.3,4.2-0.9c0.9-0.6,1.4-1.4,1.4-2.4c0-1.1-0.5-2-1.4-2.6c-1-0.7-2.2-1.2-3.9-1.8
			c-1.6-0.5-3.5-1.1-5.6-1.7c-2.8-0.9-5-1.8-6.8-2.9c-1.8-1-3.1-2.3-4-3.8c-0.9-1.5-1.3-3.4-1.3-5.6c0-3.2,0.8-5.9,2.3-8.1
			c1.5-2.2,3.5-3.8,6.1-4.9c2.5-1.1,5.3-1.7,8.3-1.7c2.2,0,4.2,0.3,6.2,0.8c2,0.5,3.8,1.1,5.5,1.9c1.7,0.8,3.2,1.5,4.5,2.4
			L202.6,352.8z"/>
		<path class="st7" d="M247.3,375.6v9.2h-31.7v-45.1h31.2v9.2H226v8.8h17.8v8.5H226v9.6H247.3z"/>
		<path class="st7" d="M297.5,352.8c-0.1-0.1-0.6-0.4-1.4-0.9c-0.8-0.5-1.7-1-2.9-1.5c-1.1-0.5-2.4-0.9-3.7-1.3
			c-1.4-0.4-2.7-0.5-4.1-0.5c-1.8,0-3.2,0.3-4.1,0.9c-1,0.6-1.5,1.6-1.5,2.8c0,1,0.4,1.8,1.1,2.4c0.7,0.6,1.8,1.1,3.2,1.6
			c1.4,0.4,3.1,0.9,5.2,1.5c2.9,0.8,5.4,1.7,7.5,2.8c2.1,1.1,3.7,2.4,4.9,4.1c1.1,1.7,1.7,3.9,1.7,6.7c0,2.5-0.5,4.6-1.4,6.4
			c-0.9,1.8-2.2,3.2-3.8,4.3c-1.6,1.1-3.5,1.9-5.5,2.3c-2,0.5-4.1,0.7-6.3,0.7c-2.2,0-4.5-0.2-6.8-0.7c-2.3-0.5-4.5-1.1-6.6-2
			c-2.1-0.8-4.1-1.8-5.9-2.9l4.5-9.2c0.2,0.3,0.8,0.7,1.7,1.2c0.9,0.6,2.1,1.1,3.5,1.7c1.4,0.6,2.9,1.2,4.6,1.7
			c1.7,0.5,3.4,0.7,5.1,0.7c1.9,0,3.3-0.3,4.2-0.9c0.9-0.6,1.4-1.4,1.4-2.4c0-1.1-0.5-2-1.4-2.6c-1-0.7-2.2-1.2-3.9-1.8
			c-1.6-0.5-3.5-1.1-5.6-1.7c-2.8-0.9-5-1.8-6.8-2.9c-1.8-1-3.1-2.3-4-3.8c-0.9-1.5-1.3-3.4-1.3-5.6c0-3.2,0.8-5.9,2.3-8.1
			c1.5-2.2,3.5-3.8,6.1-4.9c2.5-1.1,5.3-1.7,8.3-1.7c2.2,0,4.2,0.3,6.2,0.8c2,0.5,3.8,1.1,5.5,1.9c1.7,0.8,3.2,1.5,4.5,2.4
			L297.5,352.8z"/>
		<path class="st7" d="M330.2,385.1c-3.3,0-6.3-0.6-9.1-1.9c-2.7-1.3-5.1-3-7.1-5.2c-2-2.2-3.5-4.6-4.6-7.4
			c-1.1-2.7-1.6-5.6-1.6-8.5c0-3,0.6-5.9,1.7-8.6c1.1-2.7,2.7-5.1,4.7-7.3c2-2.1,4.4-3.8,7.2-5.1c2.8-1.2,5.8-1.8,9-1.8
			c3.3,0,6.4,0.6,9.1,1.9c2.7,1.3,5.1,3,7.1,5.2c2,2.2,3.5,4.7,4.5,7.4c1.1,2.7,1.6,5.5,1.6,8.4c0,3-0.6,5.9-1.7,8.6
			c-1.1,2.7-2.7,5.1-4.7,7.3c-2,2.1-4.4,3.8-7.2,5.1C336.5,384.4,333.5,385.1,330.2,385.1z M318.4,362.2c0,1.7,0.3,3.4,0.8,5.1
			c0.5,1.6,1.3,3.1,2.3,4.4c1,1.3,2.2,2.3,3.7,3.1c1.5,0.8,3.2,1.1,5.2,1.1c1.9,0,3.7-0.4,5.2-1.2c1.5-0.8,2.7-1.8,3.7-3.2
			s1.7-2.8,2.2-4.4c0.5-1.6,0.7-3.3,0.7-5c0-1.7-0.3-3.4-0.8-5c-0.5-1.6-1.3-3.1-2.3-4.4c-1-1.3-2.2-2.3-3.7-3
			c-1.5-0.7-3.2-1.1-5-1.1c-2,0-3.7,0.4-5.2,1.1c-1.5,0.8-2.7,1.8-3.7,3.1c-1,1.3-1.7,2.8-2.2,4.4
			C318.6,358.8,318.4,360.4,318.4,362.2z"/>
		<path class="st7" d="M357.1,361.7c0-2.7,0.5-5.4,1.5-8c1-2.6,2.5-5.1,4.5-7.2c2-2.2,4.4-3.9,7.2-5.2c2.8-1.3,6-1.9,9.5-1.9
			c4.2,0,7.9,0.9,11,2.7c3.1,1.8,5.5,4.2,7,7.1l-8.1,5.7c-0.6-1.6-1.5-2.9-2.6-3.8c-1.1-0.9-2.4-1.5-3.7-1.9
			c-1.3-0.4-2.6-0.5-3.9-0.5c-2,0-3.7,0.4-5.2,1.2c-1.5,0.8-2.7,1.8-3.7,3.1c-1,1.3-1.7,2.8-2.2,4.4c-0.5,1.6-0.7,3.2-0.7,4.8
			c0,1.8,0.3,3.6,0.9,5.2c0.6,1.7,1.4,3.1,2.4,4.4c1,1.3,2.3,2.3,3.8,3c1.5,0.7,3.1,1.1,4.9,1.1c1.3,0,2.6-0.2,3.9-0.6
			c1.3-0.4,2.5-1.1,3.7-2c1.1-0.9,2-2.2,2.6-3.7l8.6,5.1c-0.9,2.2-2.4,4.1-4.5,5.7c-2,1.6-4.3,2.8-6.9,3.6c-2.5,0.8-5.1,1.2-7.6,1.2
			c-3.3,0-6.3-0.7-9-2c-2.7-1.3-5.1-3.1-7.1-5.3c-2-2.2-3.5-4.7-4.6-7.5C357.7,367.4,357.1,364.6,357.1,361.7z"/>
		<path class="st7" d="M404.4,384.7v-45.1h10.4v45.1H404.4z"/>
		<path class="st7" d="M435.8,339.6H447l15.6,45.1H452l-3.1-10.1H434l-3.1,10.1h-10.7L435.8,339.6z M446.8,367.5l-5.3-17.4
			l-5.3,17.4H446.8z"/>
		<path class="st7" d="M468,384.7v-45.1h10.4v36h21.9v9.2H468z"/>
		<path class="st7" d="M537.9,375.6v9.2h-31.7v-45.1h31.2v9.2h-20.7v8.8h17.8v8.5h-17.8v9.6H537.9z"/>
		<path class="st7" d="M561,384.7v-45.1h16.9c5,0,9.1,1,12.5,3c3.3,2,5.9,4.7,7.5,8.1c1.7,3.4,2.5,7.2,2.5,11.4
			c0,4.6-0.9,8.6-2.8,12c-1.9,3.4-4.5,6-7.9,7.9c-3.4,1.9-7.3,2.8-11.9,2.8H561z M589.7,362.1c0-2.6-0.5-4.9-1.4-7
			c-0.9-2-2.3-3.6-4.1-4.7c-1.8-1.1-3.9-1.7-6.4-1.7h-6.4v26.8h6.4c2.5,0,4.7-0.6,6.5-1.7c1.8-1.2,3.1-2.8,4-4.8
			C589.3,366.9,589.7,364.6,589.7,362.1z"/>
		<path class="st7" d="M639.2,375.6v9.2h-31.7v-45.1h31.2v9.2h-20.7v8.8h17.8v8.5h-17.8v9.6H639.2z"/>
	</g>
	<g>
		<path class="st7" d="M0,495.6v-78.9h53.5v16H18.2v16.9h29.1v15H18.2v31H0z"/>
		<path class="st7" d="M95.9,496.1c-5.8,0-11.1-1.1-15.8-3.4c-4.8-2.3-8.9-5.3-12.4-9.1c-3.5-3.8-6.2-8.1-8-12.9
			c-1.9-4.8-2.8-9.7-2.8-14.8c0-5.3,1-10.3,2.9-15c2-4.7,4.7-9,8.2-12.7c3.5-3.7,7.7-6.7,12.5-8.8c4.8-2.1,10.1-3.2,15.8-3.2
			c5.9,0,11.2,1.1,15.9,3.4c4.8,2.3,8.9,5.3,12.3,9.2c3.4,3.9,6.1,8.2,7.9,12.9c1.9,4.8,2.8,9.7,2.8,14.6c0,5.3-1,10.3-2.9,15
			c-1.9,4.7-4.7,9-8.2,12.7c-3.6,3.7-7.7,6.7-12.5,8.9C107,495,101.7,496.1,95.9,496.1z M75.4,456.1c0,3,0.5,6,1.4,8.8
			c0.9,2.9,2.3,5.4,4,7.6c1.7,2.2,3.9,4,6.4,5.3c2.6,1.3,5.6,2,9.1,2c3.4,0,6.4-0.7,9-2.1c2.6-1.4,4.7-3.2,6.4-5.6
			c1.7-2.3,3-4.9,3.8-7.7c0.9-2.8,1.3-5.7,1.3-8.7c0-3-0.5-6-1.4-8.8c-0.9-2.8-2.3-5.4-4-7.6c-1.7-2.3-3.9-4-6.5-5.3
			c-2.6-1.3-5.5-1.9-8.8-1.9c-3.5,0-6.5,0.7-9.1,2c-2.6,1.3-4.7,3.2-6.4,5.4c-1.7,2.3-3,4.8-3.9,7.6
			C75.8,450.2,75.4,453.1,75.4,456.1z"/>
		<path class="st7" d="M145.9,495.6v-78.9h35.5c3.8,0,7.3,0.8,10.4,2.3c3.2,1.6,5.9,3.6,8.2,6.1c2.3,2.5,4,5.4,5.3,8.6
			c1.3,3.2,1.9,6.4,1.9,9.8c0,3.2-0.5,6.3-1.6,9.2c-1.1,3-2.6,5.6-4.5,7.9c-1.9,2.3-4.2,4.2-6.8,5.7l17.3,29.3h-20.1l-15.1-25.5
			h-12.3v25.5H145.9z M164.2,454.1h16.8c1.4,0,2.7-0.4,3.8-1.3c1.1-0.9,2.1-2.1,2.8-3.8c0.7-1.6,1.1-3.5,1.1-5.6
			c0-2.2-0.4-4.1-1.3-5.7c-0.9-1.6-1.9-2.8-3.2-3.7c-1.3-0.9-2.6-1.3-3.9-1.3h-16.1V454.1z"/>
		<path class="st7" d="M282.7,495.6v-47.1l-17.1,34.2h-9.9l-17-34.2v47.1h-18.2v-78.9h19.8l20.5,41.2l20.5-41.2h19.8v78.9H282.7z"/>
		<path class="st7" d="M335.9,416.6h19.6l27.3,78.9h-18.7l-5.3-17.7h-26.1l-5.4,17.7h-18.7L335.9,416.6z M355,465.4l-9.2-30.5
			l-9.3,30.5H355z"/>
		<path class="st7" d="M443.3,432.7h-24v62.9H401v-62.9h-24.1v-16h66.4V432.7z"/>
		<path class="st7" d="M452.2,495.6v-78.9h18.2v78.9H452.2z"/>
		<path class="st7" d="M520,496.1c-5.8,0-11.1-1.1-15.8-3.4c-4.8-2.3-8.9-5.3-12.4-9.1c-3.5-3.8-6.2-8.1-8-12.9
			c-1.9-4.8-2.8-9.7-2.8-14.8c0-5.3,1-10.3,2.9-15c2-4.7,4.7-9,8.2-12.7c3.5-3.7,7.7-6.7,12.5-8.8c4.8-2.1,10.1-3.2,15.8-3.2
			c5.9,0,11.2,1.1,15.9,3.4c4.8,2.3,8.9,5.3,12.3,9.2c3.4,3.9,6.1,8.2,7.9,12.9c1.9,4.8,2.8,9.7,2.8,14.6c0,5.3-1,10.3-2.9,15
			c-1.9,4.7-4.7,9-8.2,12.7c-3.6,3.7-7.7,6.7-12.5,8.9C531,495,525.7,496.1,520,496.1z M499.4,456.1c0,3,0.5,6,1.4,8.8
			c0.9,2.9,2.3,5.4,4,7.6c1.7,2.2,3.9,4,6.4,5.3c2.6,1.3,5.6,2,9.1,2c3.4,0,6.4-0.7,9-2.1c2.6-1.4,4.7-3.2,6.4-5.6
			c1.7-2.3,3-4.9,3.8-7.7c0.9-2.8,1.3-5.7,1.3-8.7c0-3-0.5-6-1.4-8.8c-0.9-2.8-2.3-5.4-4-7.6c-1.7-2.3-3.9-4-6.5-5.3
			c-2.6-1.3-5.5-1.9-8.8-1.9c-3.5,0-6.5,0.7-9.1,2c-2.6,1.3-4.7,3.2-6.4,5.4c-1.7,2.3-3,4.8-3.9,7.6
			C499.8,450.2,499.4,453.1,499.4,456.1z"/>
		<path class="st7" d="M588.2,450.3v45.2H570v-78.9h14.4l36.6,46.5v-46.5h18.1v78.9h-14.8L588.2,450.3z"/>
	</g>
</g>
</svg>
