<?xml version="1.0" encoding="UTF-8" standalone="no"?>
<svg
   xmlns:dc="http://purl.org/dc/elements/1.1/"
   xmlns:cc="http://creativecommons.org/ns#"
   xmlns:rdf="http://www.w3.org/1999/02/22-rdf-syntax-ns#"
   xmlns:svg="http://www.w3.org/2000/svg"
   xmlns="http://www.w3.org/2000/svg"
   xmlns:sodipodi="http://sodipodi.sourceforge.net/DTD/sodipodi-0.dtd"
   xmlns:inkscape="http://www.inkscape.org/namespaces/inkscape"
   inkscape:version="1.0 (4035a4f, 2020-05-01)"
   sodipodi:docname="PSF-logo-hauteur-betagouv.svg"
   id="svg1891"
   xml:space="preserve"
   enable-background="new 0 0 733 591"
   viewBox="0 0 639 495.79999"
   height="495.79999"
   width="639"
   y="0px"
   x="0px"
   version="1.1"><metadata
   id="metadata1897"><rdf:RDF><cc:Work
       rdf:about=""><dc:format>image/svg+xml</dc:format><dc:type
         rdf:resource="http://purl.org/dc/dcmitype/StillImage" /></cc:Work></rdf:RDF></metadata><defs
   id="defs1895" /><sodipodi:namedview
   inkscape:current-layer="svg1891"
   inkscape:window-maximized="1"
   inkscape:window-y="24"
   inkscape:window-x="65"
   inkscape:cy="246.529"
   inkscape:cx="318.904"
   inkscape:zoom="0.85956007"
   showgrid="false"
   id="namedview1893"
   inkscape:window-height="1000"
   inkscape:window-width="1215"
   inkscape:pageshadow="2"
   inkscape:pageopacity="0"
   guidetolerance="10"
   gridtolerance="10"
   objecttolerance="10"
   borderopacity="1"
   bordercolor="#666666"
   pagecolor="#ffffff" />
<g
   transform="translate(-47.596,-48.971)"
   id="Calque_1">
	<g
   id="g1829">
		<g
   id="g1827">
			<path
   id="path1789"
   d="m 47.596,434.548 v -37.292 h 16.065 c 1.735,0 3.329,0.224 4.776,0.971 1.445,0.744 2.689,1.645 3.73,2.851 1.039,1.21 1.859,2.536 2.451,4.063 0.598,1.526 0.897,3.051 0.897,4.616 0,1.668 -0.283,3.251 -0.846,4.778 -0.562,1.524 -1.347,2.891 -2.353,4.095 -1,1.208 -2.221,2.221 -3.652,2.932 -1.431,0.707 -3.015,1.12 -4.752,1.12 h -7.846 v 11.866 z m 8.472,-20.34 h 7.336 c 0.986,0 1.84,-0.073 2.554,-0.961 0.715,-0.885 1.073,-1.995 1.073,-3.698 0,-0.889 -0.109,-1.557 -0.331,-2.196 -0.222,-0.638 -0.521,-1.124 -0.896,-1.554 -0.377,-0.422 -0.803,-1.003 -1.275,-1.197 -0.48,-0.195 -0.955,-0.566 -1.435,-0.566 h -7.026 z"
   fill="#0f0689" />
			<path
   id="path1791"
   d="m 88.191,397.256 h 7.563 l 13.237,37.292 h -8.587 l -2.811,-8.479 H 86.3 l -2.763,8.479 h -8.585 z m 8.024,23.731 -4.241,-13.361 -4.347,13.361 z"
   fill="#0f0689" />
			<path
   id="path1793"
   d="m 113.696,434.548 v -37.292 h 15.845 c 1.701,0 3.276,0.224 4.724,0.971 1.447,0.744 2.698,1.645 3.757,2.851 1.057,1.21 1.884,2.536 2.479,4.063 0.596,1.526 0.892,3.051 0.892,4.616 0,1.171 -0.135,2.288 -0.407,3.366 -0.274,1.085 -0.663,2.102 -1.175,3.059 -0.514,0.957 -1.135,1.816 -1.867,2.58 -0.731,0.766 -1.557,1.305 -2.475,1.838 l 7.969,13.948 h -9.455 l -6.949,-11.866 h -4.861 v 11.866 z m 8.476,-20.34 h 7.059 c 0.986,0 1.836,-0.118 2.557,-1.095 0.716,-0.978 1.072,-2.041 1.072,-3.564 0,-1.563 -0.409,-3.006 -1.227,-3.927 -0.818,-0.925 -1.701,-1.587 -2.658,-1.587 h -6.803 z"
   fill="#0f0689" />
			<path
   id="path1795"
   d="m 145.941,415.537 c 0,-2.271 0.412,-4.532 1.229,-6.787 0.815,-2.253 2.009,-4.269 3.579,-6.043 1.564,-1.772 3.473,-3.209 5.722,-4.313 2.249,-1.098 4.806,-1.649 7.669,-1.649 3.402,0 6.359,0.764 8.866,2.287 2.503,1.528 4.369,3.514 5.595,5.965 l -6.439,4.687 c -0.408,-0.996 -0.928,-1.819 -1.559,-2.474 -0.63,-0.658 -1.322,-1.191 -2.07,-1.603 -0.748,-0.408 -1.516,-0.689 -2.299,-0.849 -0.783,-0.16 -1.551,-0.241 -2.299,-0.241 -1.605,0 -2.998,0.34 -4.191,1.011 -1.195,0.675 -2.18,1.548 -2.963,2.607 -0.787,1.067 -1.363,2.277 -1.742,3.622 -0.375,1.351 -0.557,2.717 -0.557,4.101 0,1.491 0.215,2.926 0.657,4.313 0.448,1.383 1.085,2.607 1.923,3.675 0.831,1.063 1.836,1.903 3.013,2.525 1.177,0.623 2.498,0.93 3.96,0.93 0.749,0 1.525,-0.092 2.324,-0.291 0.801,-0.195 1.568,-0.495 2.305,-0.906 0.732,-0.403 1.404,-0.938 2.019,-1.595 0.61,-0.656 1.105,-1.466 1.479,-2.423 l 6.846,4.208 c -0.539,1.385 -1.351,2.624 -2.425,3.728 -1.073,1.099 -2.308,2.02 -3.708,2.767 -1.395,0.746 -2.876,1.313 -4.439,1.701 -1.572,0.393 -3.104,0.585 -4.605,0.585 -2.624,0 -5.032,-0.556 -7.232,-1.674 -2.192,-1.122 -4.084,-2.601 -5.67,-4.446 -1.582,-1.842 -2.811,-3.941 -3.684,-6.282 -0.869,-2.343 -1.304,-4.721 -1.304,-7.136 z"
   fill="#0f0689" />
			<path
   id="path1797"
   d="m 199.354,435.074 c -2.695,0 -5.146,-0.547 -7.363,-1.645 -2.213,-1.104 -4.105,-2.547 -5.67,-4.34 -1.567,-1.795 -2.784,-3.843 -3.658,-6.152 -0.865,-2.305 -1.297,-4.684 -1.297,-7.132 0,-2.483 0.447,-4.881 1.352,-7.19 0.903,-2.303 2.164,-4.337 3.783,-6.093 1.619,-1.758 3.533,-3.159 5.75,-4.206 2.213,-1.047 4.635,-1.571 7.253,-1.571 2.695,0 5.147,0.552 7.364,1.649 2.213,1.104 4.104,2.555 5.674,4.367 1.565,1.812 2.773,3.869 3.625,6.173 0.854,2.31 1.283,4.648 1.283,7.029 0,2.485 -0.455,4.879 -1.357,7.188 -0.905,2.305 -2.158,4.337 -3.76,6.097 -1.601,1.754 -3.508,3.165 -5.723,4.229 -2.215,1.067 -4.637,1.597 -7.256,1.597 z M 189.9,415.911 c 0,1.453 0.203,2.867 0.612,4.232 0.409,1.37 1.009,2.582 1.813,3.65 0.8,1.061 1.796,1.913 2.993,2.553 1.189,0.636 2.551,0.954 4.086,0.954 1.601,0 2.996,-0.332 4.189,-1.007 1.191,-0.676 2.18,-1.553 2.967,-2.641 0.779,-1.078 1.371,-2.302 1.765,-3.667 0.39,-1.367 0.587,-2.762 0.587,-4.181 0,-1.457 -0.207,-2.867 -0.613,-4.232 -0.41,-1.367 -1.026,-2.573 -1.844,-3.622 -0.816,-1.047 -1.813,-1.882 -2.988,-2.501 -1.176,-0.621 -2.529,-0.933 -4.063,-0.933 -1.603,0 -2.99,0.326 -4.168,0.985 -1.172,0.656 -2.16,1.519 -2.963,2.582 -0.8,1.065 -1.397,2.28 -1.788,3.647 -0.389,1.369 -0.585,2.763 -0.585,4.181 z"
   fill="#0f0689" />
			<path
   id="path1799"
   d="m 238.505,427.301 c 1.427,0 2.64,-0.307 3.626,-0.93 0.988,-0.622 1.787,-1.445 2.4,-2.473 0.617,-1.03 0.896,-2.211 1.145,-3.543 0.259,-1.327 0.231,-2.688 0.231,-4.071 v -19.028 h 8.474 v 19.028 c 0,2.626 -0.205,5.074 -0.838,7.348 -0.63,2.272 -1.545,4.261 -2.857,5.962 -1.309,1.701 -2.953,3.045 -4.98,4.019 -2.027,0.978 -4.425,1.462 -7.219,1.462 -2.896,0 -5.355,-0.512 -7.4,-1.54 -2.047,-1.031 -3.702,-2.405 -4.979,-4.13 -1.278,-1.718 -2.329,-3.715 -2.925,-5.984 -0.596,-2.275 -1.006,-4.654 -1.006,-7.136 v -19.028 h 8.475 v 19.028 c 0,1.456 0.201,2.84 0.476,4.153 0.276,1.312 0.753,2.483 1.365,3.514 0.61,1.027 1.418,1.848 2.39,2.447 0.972,0.602 2.187,0.902 3.622,0.902 z"
   fill="#0f0689" />
			<path
   id="path1801"
   d="m 261.162,434.548 v -37.292 h 16.902 c 1.699,0 3.275,0.224 4.723,0.971 1.449,0.744 2.701,1.645 3.754,2.851 1.06,1.21 1.886,2.536 2.484,4.063 0.595,1.526 0.895,3.051 0.895,4.616 0,1.171 -0.137,2.288 -0.412,3.366 -0.271,1.085 -0.66,2.102 -1.174,3.059 -0.514,0.957 -1.133,1.816 -1.864,2.58 -0.733,0.766 -1.561,1.305 -2.479,1.838 l 7.973,13.948 h -9.457 l -6.947,-11.866 h -5.926 v 11.866 z m 8.471,-20.34 h 8.123 c 0.986,0 1.838,-0.118 2.554,-1.095 0.715,-0.978 1.075,-2.041 1.075,-3.564 0,-1.563 -0.414,-3.006 -1.229,-3.927 -0.818,-0.925 -1.707,-1.587 -2.656,-1.587 h -7.867 z"
   fill="#0f0689" />
			<path
   id="path1803"
   d="m 318.332,408.032 c -0.1,-0.143 -0.457,-0.408 -1.07,-0.799 -0.61,-0.391 -1.383,-0.799 -2.297,-1.225 -0.923,-0.429 -1.926,-0.798 -3.018,-1.12 -1.09,-0.315 -2.186,-0.477 -3.271,-0.477 -3.001,0 -4.497,1.047 -4.497,3.141 0,0.637 0.157,1.17 0.482,1.598 0.324,0.426 0.801,0.808 1.435,1.144 0.627,0.338 1.421,0.648 2.372,0.929 0.953,0.288 2.064,0.608 3.324,0.963 1.737,0.497 3.305,1.034 4.701,1.622 1.399,0.585 2.584,1.313 3.551,2.183 0.974,0.869 1.719,1.928 2.252,3.168 0.525,1.241 0.79,2.735 0.79,4.474 0,2.13 -0.382,3.933 -1.147,5.401 -0.768,1.473 -1.783,2.664 -3.045,3.566 -1.258,0.903 -2.707,1.563 -4.342,1.972 -1.637,0.408 -3.321,0.612 -5.061,0.612 -1.327,0 -2.691,-0.109 -4.086,-0.317 -1.4,-0.216 -2.764,-0.526 -4.092,-0.933 -1.326,-0.409 -2.611,-0.898 -3.859,-1.465 -1.242,-0.566 -2.392,-1.227 -3.449,-1.974 l 3.682,-7.611 c 0.135,0.176 0.577,0.516 1.33,1.015 0.748,0.495 1.672,0.994 2.781,1.487 1.109,0.499 2.344,0.943 3.705,1.33 1.367,0.396 2.744,0.585 4.143,0.585 2.965,0 4.448,-0.938 4.448,-2.819 0,-0.707 -0.225,-1.296 -0.667,-1.756 -0.442,-0.463 -1.057,-0.878 -1.838,-1.25 -0.786,-0.373 -1.711,-0.722 -2.789,-1.038 -1.07,-0.318 -2.24,-0.674 -3.499,-1.065 -1.669,-0.533 -3.116,-1.109 -4.342,-1.73 -1.229,-0.621 -2.242,-1.339 -3.042,-2.158 -0.801,-0.813 -1.398,-1.756 -1.787,-2.819 -0.395,-1.063 -0.592,-2.306 -0.592,-3.729 0,-1.986 0.357,-3.74 1.074,-5.27 0.716,-1.524 1.688,-2.809 2.91,-3.863 1.23,-1.042 2.655,-1.837 4.27,-2.364 1.619,-0.536 3.33,-0.799 5.14,-0.799 1.259,0 2.5,0.124 3.726,0.373 1.23,0.246 2.403,0.568 3.529,0.953 1.125,0.396 2.174,0.837 3.143,1.334 0.974,0.497 1.867,0.998 2.683,1.489 z"
   fill="#0f0689" />
			<path
   id="path1805"
   d="m 362.902,408.032 c -0.102,-0.143 -0.461,-0.408 -1.074,-0.799 -0.613,-0.391 -1.381,-0.799 -2.297,-1.225 -0.924,-0.429 -1.927,-0.798 -3.02,-1.12 -1.089,-0.315 -2.182,-0.477 -3.271,-0.477 -2.999,0 -4.497,1.047 -4.497,3.141 0,0.637 0.162,1.17 0.484,1.598 0.325,0.426 0.802,0.808 1.432,1.144 0.629,0.338 1.422,0.648 2.377,0.929 0.955,0.288 2.063,0.608 3.323,0.963 1.735,0.497 3.306,1.034 4.702,1.622 1.396,0.585 2.582,1.313 3.55,2.183 0.972,0.869 1.722,1.928 2.251,3.168 0.528,1.241 0.791,2.735 0.791,4.474 0,2.13 -0.383,3.933 -1.148,5.401 -0.766,1.473 -1.782,2.664 -3.043,3.566 -1.261,0.903 -2.711,1.563 -4.342,1.972 -1.639,0.408 -3.324,0.612 -5.06,0.612 -1.332,0 -2.693,-0.109 -4.091,-0.317 -1.396,-0.216 -2.758,-0.526 -4.09,-0.933 -1.326,-0.409 -2.613,-0.898 -3.859,-1.465 -1.24,-0.566 -2.391,-1.227 -3.446,-1.974 l 3.677,-7.611 c 0.139,0.176 0.582,0.516 1.33,1.015 0.751,0.495 1.678,0.994 2.787,1.487 1.107,0.499 2.34,0.943 3.705,1.33 1.361,0.396 2.741,0.585 4.139,0.585 2.965,0 4.446,-0.938 4.446,-2.819 0,-0.707 -0.222,-1.296 -0.663,-1.756 -0.444,-0.463 -1.057,-0.878 -1.839,-1.25 -0.782,-0.373 -1.716,-0.722 -2.788,-1.038 -1.072,-0.318 -2.24,-0.674 -3.502,-1.065 -1.668,-0.533 -3.115,-1.109 -4.345,-1.73 -1.224,-0.621 -2.236,-1.339 -3.038,-2.158 -0.799,-0.813 -1.398,-1.756 -1.789,-2.819 -0.394,-1.063 -0.586,-2.306 -0.586,-3.729 0,-1.986 0.355,-3.74 1.07,-5.27 0.714,-1.524 1.686,-2.809 2.912,-3.863 1.229,-1.042 2.651,-1.837 4.267,-2.364 1.622,-0.536 3.331,-0.799 5.139,-0.799 1.259,0 2.503,0.124 3.733,0.373 1.226,0.246 2.402,0.568 3.521,0.953 1.121,0.396 2.18,0.837 3.149,1.334 0.969,0.497 1.864,0.998 2.681,1.489 z"
   fill="#0f0689" />
			<path
   id="path1807"
   d="m 389.066,435.074 c -2.689,0 -5.145,-0.547 -7.357,-1.645 -2.217,-1.104 -4.108,-2.547 -5.67,-4.34 -1.57,-1.795 -2.789,-3.843 -3.655,-6.152 -0.87,-2.305 -1.305,-4.684 -1.305,-7.132 0,-2.483 0.453,-4.881 1.356,-7.19 0.898,-2.303 2.161,-4.337 3.78,-6.093 1.617,-1.758 3.536,-3.159 5.747,-4.206 2.215,-1.047 4.636,-1.571 7.26,-1.571 2.689,0 5.146,0.552 7.358,1.649 2.215,1.104 4.106,2.555 5.674,4.367 1.565,1.812 2.775,3.869 3.627,6.173 0.854,2.31 1.279,4.648 1.279,7.029 0,2.485 -0.452,4.879 -1.354,7.188 -0.9,2.305 -2.154,4.337 -3.758,6.097 -1.6,1.754 -3.508,3.165 -5.724,4.229 -2.212,1.067 -4.633,1.597 -7.258,1.597 z m -9.452,-19.163 c 0,1.453 0.201,2.867 0.616,4.232 0.407,1.37 1.008,2.582 1.811,3.65 0.801,1.061 1.797,1.913 2.99,2.553 1.192,0.636 2.556,0.954 4.087,0.954 1.603,0 3.001,-0.332 4.19,-1.007 1.193,-0.676 2.182,-1.553 2.965,-2.641 0.785,-1.078 1.371,-2.302 1.766,-3.667 0.391,-1.367 0.586,-2.762 0.586,-4.181 0,-1.457 -0.205,-2.867 -0.611,-4.232 -0.411,-1.367 -1.023,-2.573 -1.838,-3.622 -0.819,-1.047 -1.818,-1.882 -2.994,-2.501 -1.176,-0.621 -2.528,-0.933 -4.063,-0.933 -1.601,0 -2.989,0.326 -4.163,0.985 -1.176,0.656 -2.166,1.519 -2.969,2.582 -0.799,1.065 -1.396,2.28 -1.781,3.647 -0.395,1.369 -0.592,2.763 -0.592,4.181 z"
   fill="#0f0689" />
			<path
   id="path1809"
   d="m 412.013,434.548 v -37.292 h 8.474 v 30.513 h 18.645 v 6.779 z"
   fill="#0f0689" />
			<path
   id="path1811"
   d="m 442.521,434.548 v -37.292 h 8.473 v 37.292 z"
   fill="#0f0689" />
			<path
   id="path1813"
   d="m 459.471,434.548 v -37.292 h 13.16 c 2.999,0 5.621,0.352 7.871,1.344 2.247,0.994 4.133,2.266 5.645,3.971 1.52,1.703 2.662,3.662 3.43,5.953 0.764,2.288 1.147,4.709 1.147,7.3 0,2.876 -0.43,5.464 -1.275,7.79 -0.854,2.326 -2.069,4.305 -3.655,5.959 -1.586,1.65 -3.493,2.819 -5.725,3.726 -2.234,0.901 -4.713,1.25 -7.438,1.25 h -13.16 z m 22.717,-18.742 c 0,-1.669 -0.211,-3.188 -0.637,-4.554 -0.426,-1.367 -1.049,-2.544 -1.865,-3.542 -0.817,-0.995 -1.826,-2.046 -3.018,-2.582 -1.193,-0.527 -2.54,-1.093 -4.037,-1.093 h -4.687 v 23.733 h 4.687 c 1.531,0 2.893,-0.623 4.088,-1.193 1.189,-0.568 2.191,-1.527 2.992,-2.536 0.798,-1.014 1.414,-2.286 1.84,-3.652 0.426,-1.364 0.637,-2.949 0.637,-4.581 z"
   fill="#0f0689" />
			<path
   id="path1815"
   d="m 504.88,397.256 h 7.565 l 13.234,37.292 h -8.584 l -2.811,-8.479 H 502.99 l -2.763,8.479 h -8.587 z m 8.027,23.731 -4.245,-13.361 -4.344,13.361 z"
   fill="#0f0689" />
			<path
   id="path1817"
   d="m 530.657,434.548 v -37.292 h 6.781 v 37.292 z"
   fill="#0f0689" />
			<path
   id="path1819"
   d="m 545.914,434.548 v -37.292 h 16.259 c 1.703,0 3.278,0.224 4.729,0.971 1.449,0.744 2.699,1.645 3.756,2.851 1.057,1.21 1.885,2.536 2.477,4.063 0.598,1.526 0.896,3.051 0.896,4.616 0,1.171 -0.136,2.288 -0.409,3.366 -0.271,1.085 -0.664,2.102 -1.176,3.059 -0.512,0.957 -1.131,1.816 -1.867,2.58 -0.732,0.766 -1.557,1.305 -2.476,1.838 l 7.973,13.948 h -9.456 l -6.949,-11.866 h -5.279 v 11.866 z m 8.477,-20.34 h 7.475 c 0.987,0 1.841,-0.118 2.559,-1.095 0.715,-0.978 1.072,-2.041 1.072,-3.564 0,-1.563 -0.408,-3.006 -1.228,-3.927 -0.816,-0.925 -1.702,-1.587 -2.66,-1.587 h -7.218 z"
   fill="#0f0689" />
			<path
   id="path1821"
   d="m 606.933,427.769 v 6.779 h -25.425 v -37.292 h 23.729 v 6.779 h -16.949 v 8.478 h 15.254 v 6.777 h -15.254 v 8.479 z"
   fill="#0f0689" />
			<path
   id="path1823"
   d="m 623.881,434.548 v -37.292 h 14.086 c 3,0 5.623,0.352 7.873,1.344 2.249,0.994 4.133,2.266 5.645,3.971 1.516,1.703 2.66,3.662 3.426,5.953 0.766,2.288 1.153,4.709 1.153,7.3 0,2.876 -0.43,5.464 -1.281,7.79 -0.851,2.326 -2.07,4.305 -3.653,5.959 -1.586,1.65 -3.491,2.819 -5.727,3.726 -2.23,0.901 -4.709,1.25 -7.436,1.25 h -14.086 z m 23.646,-18.742 c 0,-1.669 -0.215,-3.188 -0.639,-4.554 -0.428,-1.367 -1.049,-2.544 -1.864,-3.542 -0.82,-0.995 -1.827,-2.046 -3.019,-2.582 -1.195,-0.527 -2.538,-1.093 -4.039,-1.093 h -5.609 v 23.733 h 5.609 c 1.531,0 2.895,-0.623 4.088,-1.193 1.193,-0.568 2.191,-1.527 2.992,-2.536 0.8,-1.014 1.414,-2.286 1.842,-3.652 0.425,-1.364 0.639,-2.949 0.639,-4.581 z"
   fill="#0f0689" />
			<path
   id="path1825"
   d="m 686.596,427.769 v 6.779 H 661.17 v -37.292 h 25.426 v 6.779 h -16.95 v 8.478 h 15.257 v 6.777 h -15.257 v 8.479 z"
   fill="#0f0689" />
		</g>
	</g>
	<g
   id="g1851">
		<g
   id="g1849">
			<path
   id="path1831"
   d="M 47.596,543.023 V 463.36 h 52.544 v 16.95 h -33.9 v 16.946 h 28.814 v 15.257 H 66.24 v 30.51 z"
   fill="#0f0689" />
			<path
   id="path1833"
   d="m 143.463,544.771 c -5.734,0 -10.96,-1.171 -15.678,-3.514 -4.724,-2.347 -8.75,-5.427 -12.086,-9.25 -3.344,-3.815 -5.939,-8.183 -7.79,-13.1 -1.851,-4.914 -2.775,-9.982 -2.775,-15.203 0,-5.292 0.958,-10.397 2.884,-15.313 1.922,-4.914 4.611,-9.245 8.061,-12.991 3.447,-3.742 7.529,-6.729 12.248,-8.957 4.72,-2.231 9.878,-3.35 15.468,-3.35 5.73,0 10.96,1.172 15.682,3.516 4.716,2.349 8.747,5.449 12.088,9.307 3.337,3.854 5.915,8.239 7.733,13.153 1.809,4.923 2.719,9.911 2.719,14.979 0,5.292 -0.959,10.397 -2.887,15.314 -1.925,4.915 -4.589,9.244 -8,12.986 -3.412,3.742 -7.481,6.748 -12.199,9.02 -4.724,2.266 -9.876,3.403 -15.468,3.403 z m -20.145,-40.835 c 0,3.1 0.439,6.105 1.307,9.015 0.87,2.914 2.158,5.504 3.869,7.773 1.701,2.268 3.826,4.082 6.369,5.443 2.537,1.359 5.444,2.041 8.713,2.041 3.41,0 6.385,-0.718 8.929,-2.156 2.54,-1.433 4.646,-3.31 6.317,-5.613 1.67,-2.308 2.922,-4.915 3.758,-7.828 0.832,-2.909 1.25,-5.881 1.25,-8.906 0,-3.103 -0.437,-6.107 -1.305,-9.016 -0.875,-2.911 -2.182,-5.482 -3.925,-7.716 -1.739,-2.227 -3.864,-4.007 -6.37,-5.33 -2.506,-1.324 -5.387,-1.984 -8.654,-1.984 -3.415,0 -6.373,0.696 -8.877,2.096 -2.507,1.404 -4.608,3.233 -6.314,5.504 -1.707,2.268 -2.98,4.857 -3.816,7.771 -0.833,2.91 -1.251,5.876 -1.251,8.906 z"
   fill="#0f0689" />
			<path
   id="path1835"
   d="M 193.361,543.023 V 463.36 h 35.484 c 3.629,0 6.986,0.889 10.072,2.479 3.084,1.584 5.754,3.713 8.004,6.286 2.247,2.572 4.012,5.507 5.28,8.754 1.271,3.253 1.905,6.557 1.905,9.884 0,2.498 -0.291,4.903 -0.869,7.207 -0.583,2.31 -1.414,4.486 -2.506,6.529 -1.088,2.039 -2.412,3.876 -3.972,5.5 -1.561,1.632 -3.324,2.476 -5.284,3.607 l 16.99,29.417 h -20.15 L 223.508,517.6 h -11.504 v 25.423 z m 18.645,-40.68 h 16.182 c 2.109,0 3.924,-1.265 5.445,-3.344 1.527,-2.078 2.288,-4.861 2.288,-8.111 0,-3.326 -0.87,-5.818 -2.611,-7.786 -1.743,-1.961 -3.634,-2.791 -5.667,-2.791 h -15.637 z"
   fill="#0f0689" />
			<path
   id="path1837"
   d="m 328.956,543.023 v -47.146 l -16.149,35.281 h -9.586 l -16.636,-35.281 v 47.146 H 267.941 V 463.36 h 20.035 l 20.041,42.087 20.143,-42.087 h 19.441 v 79.663 z"
   fill="#0f0689" />
			<path
   id="path1839"
   d="m 384.896,463.36 h 16.118 l 28.207,79.663 h -18.295 l -5.992,-16.951 h -24.067 l -5.88,16.951 h -18.293 z m 17.098,49.154 -9.039,-28.472 -9.256,28.472 z"
   fill="#0f0689" />
			<path
   id="path1841"
   d="m 489.98,480.311 h -23.73 v 62.713 h -16.947 v -62.713 h -23.731 v -16.95 h 64.409 v 16.95 z"
   fill="#0f0689" />
			<path
   id="path1843"
   d="M 500.15,543.023 V 463.36 h 16.95 v 79.663 z"
   fill="#0f0689" />
			<path
   id="path1845"
   d="m 568.285,544.771 c -5.738,0 -10.964,-1.171 -15.682,-3.514 -4.724,-2.347 -8.75,-5.427 -12.09,-9.25 -3.338,-3.815 -5.938,-8.183 -7.787,-13.1 -1.85,-4.914 -2.778,-9.982 -2.778,-15.203 0,-5.292 0.962,-10.397 2.888,-15.313 1.92,-4.914 4.609,-9.245 8.062,-12.991 3.442,-3.742 7.53,-6.729 12.251,-8.957 4.714,-2.231 9.871,-3.35 15.462,-3.35 5.734,0 10.964,1.172 15.681,3.516 4.716,2.349 8.75,5.449 12.087,9.307 3.341,3.854 5.921,8.239 7.733,13.153 1.813,4.923 2.725,9.911 2.725,14.979 0,5.292 -0.963,10.397 -2.885,15.314 -1.923,4.915 -4.596,9.244 -8.006,12.986 -3.412,3.742 -7.478,6.748 -12.197,9.02 -4.724,2.266 -9.876,3.403 -15.464,3.403 z m -20.148,-40.835 c 0,3.1 0.438,6.105 1.309,9.015 0.868,2.914 2.158,5.504 3.865,7.773 1.703,2.268 3.83,4.082 6.371,5.443 2.539,1.359 5.444,2.041 8.711,2.041 3.412,0 6.385,-0.718 8.931,-2.156 2.538,-1.433 4.646,-3.31 6.317,-5.613 1.668,-2.308 2.922,-4.915 3.758,-7.828 0.83,-2.909 1.25,-5.881 1.25,-8.906 0,-3.103 -0.438,-6.107 -1.309,-9.016 -0.869,-2.911 -2.176,-5.482 -3.918,-7.716 -1.742,-2.227 -3.869,-4.007 -6.371,-5.33 -2.504,-1.324 -5.391,-1.984 -8.658,-1.984 -3.413,0 -6.369,0.696 -8.873,2.096 -2.506,1.404 -4.613,3.233 -6.316,5.504 -1.707,2.268 -2.979,4.857 -3.811,7.771 -0.838,2.91 -1.256,5.876 -1.256,8.906 z"
   fill="#0f0689" />
			<path
   id="path1847"
   d="m 637.441,498.035 v 44.988 H 618.795 V 463.36 h 13.955 l 35.201,47.492 V 463.36 h 18.645 v 79.663 h -14.313 z"
   fill="#0f0689" />
		</g>
	</g>
	<path
   id="path1853"
   d="M 559.689,158.054"
   fill="#4545ce" />
	<path
   id="path1855"
   d="M 546.492,131.495"
   fill="#4545ce" />
	<path
   id="path1857"
   d="M 559.689,158.054"
   fill="#4545ce" />
	<path
   id="path1859"
   d="M 546.492,131.495"
   fill="#4545ce" />
	<g
   id="g1863">
		<path
   id="path1861"
   d="m 423.201,48.971 c -29.334,0 -53.198,28.979 -53.198,64.597 0,13.653 0.674,29.215 8.732,41.089 10.616,15.638 28.897,26.562 44.466,26.562 15.567,0 33.852,-10.922 44.466,-26.562 8.06,-11.875 8.733,-27.436 8.733,-41.089 0,-35.618 -23.863,-64.597 -53.199,-64.597 z m 15.371,100.42 c -0.865,1.971 -5.574,12.19 -15.33,12.19 h -0.081 c -9.756,0 -14.462,-10.219 -15.332,-12.19 -0.079,-0.178 -0.043,-0.084 -0.043,-0.084 0.017,-0.077 0.159,-0.175 0.159,-0.175 l 2.02,-1.358 c 0,0 0.123,-0.055 0.192,-0.042 0.032,0.005 0.129,0.011 0.241,0.153 0.898,1.129 4.845,5.441 12.803,5.441 7.961,0 11.905,-4.311 12.803,-5.439 0.116,-0.144 0.21,-0.144 0.24,-0.15 0.072,-0.012 0.194,0.05 0.194,0.05 l 2.019,1.371 c 0,0 0.143,0.072 0.16,0.149 0,0 0.037,-0.094 -0.045,0.084 z"
   fill="#ff9947" />
	</g>
	<g
   id="g1867">
		<path
   id="path1865"
   d="m 664.715,180.411 c 1.942,1.041 4.646,3.555 6.449,6.024 l 4.342,-2.192 C 663.652,161.109 640.448,148.721 627.919,142.839 604.83,132.27 584.085,132.712 583.785,132.718 l -0.075,0.002 -37.3,-0.003 c -0.838,-0.022 -3.35,0.208 -4.72,1.54 -0.731,0.709 -1.099,1.69 -1.099,2.999 0,1.027 0.25,1.778 0.849,2.366 0.389,0.384 0.884,0.67 1.403,0.889 0.061,0.025 0.122,0.049 0.183,0.072 0.01,0.005 0.02,0.008 0.03,0.012 1.152,0.433 2.408,0.539 2.913,0.535 l 13.47,0.004 v 2.431 1.211 1.224 l -32.924,-0.002 c -0.847,-0.039 -3.245,0.208 -4.619,1.542 -0.729,0.709 -1.098,1.689 -1.098,2.997 0,1.026 0.26,1.779 0.859,2.368 0.457,0.448 1.057,0.723 1.675,0.948 1.14,0.413 2.34,0.474 2.847,0.474 h 0.717 l 32.543,0.087 v 3.642 1.223 l -38.354,0.003 c -0.833,-0.03 -3.244,0.212 -4.616,1.546 -0.73,0.709 -1.095,1.701 -1.095,3.008 0,1.028 0.275,1.803 0.874,2.39 0.231,0.228 0.501,0.423 0.792,0.592 1.416,0.704 3.139,0.871 3.832,0.863 l 0.77,10e-4 37.797,0.002 v 0.007 2.432 2 0.004 0.428 l 0.082,0.002 0.098,0.002 -33.007,0.002 c -0.841,-0.024 -3.347,0.216 -4.718,1.548 -0.729,0.71 -1.088,1.709 -1.088,3.017 0,1.021 0.295,1.933 0.866,2.536 1.438,1.509 4.609,1.87 5.468,1.87 h 28.257 c 0.252,0 0.45,0 0.556,0 h 17.996 v 0.322 3.648 0.328 l -18.212,0.236 c -0.02,0 -0.02,0 -0.02,0 h -0.322 c -1.862,0 -3.191,0.402 -4.388,1.566 -0.73,0.71 -0.984,1.515 -0.984,2.821 0,1.021 0.276,1.792 0.864,2.377 1.411,1.404 4.633,1.397 5.471,1.397 h 34.078 c 2.007,-0.907 11.491,-5.124 19.2,-14.011 l 0.927,-1.005 0.275,0.028 1.105,0.204 c 0.411,0.08 0.803,0.168 1.199,0.257 0.309,0.069 0.624,0.131 0.929,0.205 0.175,0.042 0.339,0.089 0.512,0.133 0.572,0.148 1.137,0.301 1.686,0.466 0.031,0.01 0.062,0.02 0.092,0.029 6.773,2.074 11.589,5.406 14.988,8.829 2.589,-4.163 17.26,-17.586 33.366,-8.951 z"
   fill="#6161e5" />
	</g>
	<g
   id="g1873">
		<path
   id="path1869"
   d="m 510.32,300.12 c -0.651,0.776 -1.477,1.678 -2.531,2.621 -0.051,0.048 -0.043,0.081 -0.043,0.081 v -0.004 c -0.906,0.922 -2.342,1.877 -3.73,2.791 l 19.773,0.002 c 0.511,-0.577 1.188,-1.447 2.096,-2.335 v -36.497 h -0.546 c -0.261,1.813 -0.91,4.062 -2.52,5.5 -1.488,1.333 -3.362,2.197 -5.541,2.197 -1.919,0 -3.343,-0.844 -4.521,-1.703 0.04,9.193 0.093,22.09 0.099,23.705 -0.248,0.936 -1.385,2.377 -2.536,3.642 z"
   fill="#ff9947" />
		<path
   id="path1871"
   d="m 583.018,327.563 v -1.252 -2.338 -0.785 l 38.379,0.01 c 0.838,0.029 3.295,-0.197 4.666,-1.53 0.729,-0.709 1.082,-1.674 1.082,-2.98 0,-1.022 -0.246,-1.879 -0.866,-2.432 -1.636,-1.454 -4.616,-1.41 -5.472,-1.41 h -4.723 c -0.021,0 -0.053,0 -0.074,0 -0.029,0 -0.045,0 -0.068,0 l -32.924,-0.072 v -0.433 -1.404 -2.242 -0.783 l 32.945,0.008 c 0.842,0.022 3.294,-0.203 4.664,-1.536 0.729,-0.712 1.084,-1.68 1.084,-2.983 0,-1.025 -0.278,-1.973 -0.871,-2.56 -1.27,-1.264 -4.625,-1.598 -5.471,-1.598 h -19.608 -8.656 c -0.249,0 -0.44,0 -0.546,0 h -18.957 v -0.16 -3.647 -0.727 h 21.173 c 1.313,0 2.422,-0.782 2.886,-1.258 0.709,-0.73 0.83,-1.99 0.83,-3.295 0,-1.027 -0.277,-1.658 -0.877,-2.247 -1.293,-1.271 -3.779,-1.362 -4.557,-1.362 h -0.517 -34.201 -0.264 c -1.321,0 -5.886,2.366 -11.05,6.277 -2.673,2.021 -5.502,4.472 -8.125,7.496 -1.249,1.521 -5.662,6.602 -6.531,7.503 l -0.522,0.668 -91.983,0.051 c -0.779,0.024 -9.212,0.181 -18.27,-3.046 -12.626,-4.5 -20.396,-13.414 -22.432,-25.773 l 4.787,-0.793 c 4.215,25.562 35.413,24.758 35.721,24.744 l 0.084,-0.002 40.771,0.004 c -0.477,-0.356 -0.929,-0.737 -1.392,-1.147 -1.328,-1.17 -3.475,-3.344 -4.383,-5.534 0,-0.518 0,-16.976 0,-16.976 -1.814,0.904 -2.713,1.37 -4.449,1.37 -2.498,0 -4.807,-0.807 -6.34,-2.402 -2.752,-2.858 -2.813,-7.254 -2.813,-7.771 v -37.178 c 0,-0.407 -0.92,-12.545 3.044,-27.821 1.904,-7.346 4.109,-14.852 9.202,-23.971 l -6.896,-0.5 c -6.771,4.864 -13.997,8.34 -21.208,10.791 -5.415,1.841 -10.81,2.761 -15.989,2.761 -5.179,0 -10.576,-1.033 -15.993,-2.875 -7.137,-2.428 -14.313,-5.605 -21.024,-10.673 -0.628,0 -2.934,-0.008 -3.502,-0.01 -8.817,-0.021 -16.278,2.814 -22.238,8.708 -0.82,0.81 -1.829,1.66 -2.564,2.546 -11.171,13.473 -12.563,35.16 -13.47,44.848 v 17.566 24.537 6.977 1.907 c 0,0.859 0.258,21.158 5.158,32.027 5.707,12.658 14.779,19.657 27.502,22.992 8.042,2.112 28.302,3.457 28.302,3.457 h 185.994 c 1.931,0 5.157,0 5.157,0 0,0 2.986,-0.089 4.023,-1.097 0.73,-0.714 1.176,-1.692 1.176,-3 0,-1.027 -0.226,-1.78 -0.824,-2.366 -1.291,-1.273 -3.719,-1.498 -4.504,-1.51 l -13.475,-0.004 v -0.489 -1.941 -1.645 -0.004 -0.785 l 32.947,0.004 c 0.829,0.02 3.295,-0.208 4.664,-1.542 0.729,-0.712 1.086,-1.691 1.086,-2.999 0,-1.023 -0.272,-1.771 -0.864,-2.357 -1.269,-1.264 -3.711,-1.515 -4.565,-1.515 l -0.86,-0.004 -32.407,-0.002 v -0.432 -0.054 z"
   fill="#ff9947" />
	</g>
	<g
   id="g1877">
		<path
   id="path1875"
   d="m 507.993,153.958 c 1.04,-1.942 3.558,-4.647 6.024,-6.449 l -2.194,-4.341 c -23.134,11.854 -35.521,35.058 -41.402,47.585 -10.57,23.087 -10.126,43.833 -10.12,44.132 l 0.002,0.076 -0.002,37.299 c -0.023,0.84 0.207,3.349 1.538,4.722 0.71,0.729 1.691,1.098 2.999,1.098 1.026,0 1.779,-0.251 2.366,-0.848 0.382,-0.39 0.672,-0.884 0.889,-1.404 0.026,-0.061 0.05,-0.122 0.073,-0.183 0.003,-0.012 0.007,-0.021 0.01,-0.032 0.432,-1.15 0.539,-2.262 0.535,-2.765 l 0.004,-13.324 h 2.432 1.21 1.224 l -0.002,32.774 c -0.038,0.849 0.207,3.178 1.541,4.548 0.712,0.73 1.691,1.061 3,1.061 1.027,0 1.777,-0.277 2.365,-0.875 0.448,-0.457 0.766,-1.064 0.99,-1.684 0.416,-1.139 0.514,-2.349 0.516,-2.857 l 0.002,-0.732 0.002,-32.234 h 3.643 1.223 l 0.005,38.208 c -0.032,0.832 0.213,3.172 1.548,4.543 0.707,0.73 1.699,1.056 3.006,1.056 1.027,0 1.803,-0.294 2.389,-0.892 0.23,-0.23 0.317,-0.508 0.485,-0.8 0.706,-1.415 0.757,-3.142 0.757,-3.835 v -0.594 l 0.218,-37.686 h 0.006 2.434 2.001 0.004 0.425 l 0.004,-0.229 v -0.169 l 0.004,32.972 c -0.025,0.836 0.218,3.326 1.55,4.696 0.71,0.732 1.709,1.079 3.017,1.079 1.021,0 1.7,-0.296 2.304,-0.868 1.512,-1.441 1.64,-4.614 1.64,-5.473 v -28.26 c 0,-0.251 0,-0.447 0,-0.554 v -18.612 h 0.783 3.649 0.326 l -0.225,18.827 c 0,0.02 0,0.02 0,0.02 v 0.323 c 0,1.862 0.635,3.194 1.798,4.388 0.71,0.732 1.629,0.984 2.936,0.984 1.022,0 1.618,-0.275 2.204,-0.864 1.404,-1.412 1.224,-4.634 1.224,-5.471 v -34.079 c -0.905,-2.006 -4.891,-11.493 -13.779,-19.202 l -0.89,-0.923 0.086,-0.278 0.233,-1.106 c 0.082,-0.409 0.183,-0.799 0.272,-1.197 0.068,-0.311 0.137,-0.627 0.209,-0.928 0.043,-0.175 0.095,-0.34 0.141,-0.512 0.146,-0.575 0.304,-1.138 0.466,-1.688 0.01,-0.03 0.021,-0.06 0.031,-0.091 2.073,-6.771 5.405,-11.588 8.829,-14.987 -4.17,-2.587 -17.59,-17.26 -8.958,-33.365 z"
   fill="#0f0689" />
	</g>
	<path
   id="path1879"
   d="m 686.402,256.699 v -0.078 -37.299 c 0,-0.84 -0.132,-3.35 -1.464,-4.722 -0.71,-0.73 -1.65,-1.099 -2.958,-1.099 -1.027,0 -1.76,0.251 -2.348,0.849 -0.383,0.388 -0.66,0.883 -0.879,1.404 -0.025,0.06 -0.045,0.121 -0.067,0.182 -0.004,0.011 -0.006,0.021 -0.011,0.032 -0.431,1.152 -0.537,2.391 -0.533,2.896 l -0.002,13.454 h -2.432 -1.206 -1.228 l 0.002,-32.905 c 0.039,-0.849 -0.206,-3.241 -1.541,-4.613 -0.71,-0.731 -1.691,-1.094 -2.997,-1.094 -1.026,0 -1.782,0.261 -2.367,0.859 -0.447,0.456 -0.767,1.056 -0.992,1.678 -0.413,1.137 -0.512,2.345 -0.516,2.851 l -0.002,0.861 -0.002,32.363 h -3.64 -1.223 l -0.004,-38.338 c 0.03,-0.834 -0.213,-3.237 -1.547,-4.608 -0.711,-0.73 -1.702,-1.088 -3.008,-1.088 -1.028,0 -1.804,0.277 -2.392,0.875 -0.228,0.231 -0.247,0.502 -0.417,0.793 -0.705,1.415 -0.689,3.136 -0.689,3.83 v 0.711 l -0.352,37.826 h -0.006 -2.431 -2.003 -0.002 -0.429 l -0.002,0.098 -0.002,0.104 -0.004,-33.002 c 0.023,-0.84 -0.215,-3.345 -1.549,-4.716 -0.711,-0.73 -1.709,-1.085 -3.017,-1.085 -1.021,0 -2.088,0.293 -2.69,0.867 -1.51,1.438 -2.024,4.609 -2.024,5.468 v 28.259 c 0,0.251 0,0.447 0,0.554 v 18.87 h -0.012 -3.647 -0.327 l -0.549,-19.084 c 0,-0.02 0,-0.02 0,-0.02 v -0.323 c 0,-1.861 -0.248,-3.192 -1.411,-4.389 -0.71,-0.73 -1.437,-0.984 -2.741,-0.984 -1.023,0 -1.911,0.275 -2.498,0.866 -1.403,1.411 -1.512,4.634 -1.512,5.469 v 34.08 c 0.906,2.005 5.279,11.492 14.168,19.201 l 1.082,0.926 0.012,0.276 -0.187,1.106 c -0.081,0.408 -0.157,0.8 -0.247,1.195 -0.071,0.311 -0.124,0.629 -0.199,0.931 -0.043,0.175 -0.096,0.337 -0.135,0.512 -2.422,11.031 -9.182,13.887 -9.344,14.044 8.216,9.221 8.092,19.275 8.266,21.987 0.775,11.336 -6.384,19.354 -9.412,20.812 l 1.081,4.859 c 1.686,0 5.006,-1.332 5.724,-1.66 17.262,-9.081 28.503,-23.801 35.463,-36.13 2.224,-3.937 3.939,-7.567 5.352,-10.577 10.574,-23.089 10.047,-43.836 10.047,-44.134 z"
   fill="#9f9ff7" />
</g>
<g
   transform="translate(-47.596,-48.971)"
   display="none"
   id="Calque_2">
	<rect
   id="rect1882"
   height="47.388"
   width="47.388"
   fill="#0f0689"
   display="inline"
   y="463.09399"
   x="686.40601" />
	<rect
   id="rect1884"
   height="47.388"
   width="47.388"
   fill="#0f0689"
   display="inline"
   y="410.854"
   x="0.208" />
	<rect
   id="rect1886"
   height="47.388"
   width="47.388"
   fill="#0f0689"
   display="inline"
   y="543.612"
   x="435.77701" />
	<rect
   id="rect1888"
   height="47.388"
   width="47.388"
   fill="#0f0689"
   display="inline"
   y="0.84299999"
   x="392.63101" />
</g>
</svg>
