<svg xmlns="http://www.w3.org/2000/svg" width="1355.356" height="885.899">
    <g fill="#0f0689">
        <path d="M.911 652.696V572.57h32.827c3.684 0 7.059.79 10.13 2.37 3.069 1.58 5.705 3.65 7.909 6.208 2.201 2.558 3.936 5.456 5.2 8.688 1.263 3.237 1.896 6.51 1.896 9.819 0 3.538-.596 6.923-1.788 10.158-1.191 3.236-2.854 6.132-4.983 8.689-2.131 2.558-4.713 4.59-7.747 6.094-3.033 1.506-6.392 2.257-10.076 2.257H18.678v25.843H.911zm17.767-41.981h14.518c2.094 0 3.9-.941 5.417-2.822 1.516-1.88 2.274-4.627 2.274-8.238 0-1.88-.235-3.498-.704-4.852-.47-1.354-1.102-2.483-1.896-3.386-.795-.903-1.698-1.561-2.708-1.974-1.013-.413-2.022-.621-3.034-.621H18.677v21.893zM85.738 572.57h16.035l28.06 80.126h-18.2l-5.958-17.943H81.732l-5.851 17.943h-18.2l28.057-80.126zM102.749 622l-8.993-28.326L84.548 622h18.201zM138.718 652.696V572.57h34.668c3.611 0 6.951.79 10.021 2.37a26.784 26.784 0 017.963 6.208 29.286 29.286 0 015.254 8.688c1.263 3.237 1.897 6.51 1.897 9.819 0 2.483-.291 4.873-.867 7.167a28.632 28.632 0 01-2.492 6.489 24.447 24.447 0 01-3.955 5.474 23.696 23.696 0 01-5.254 4.119l16.9 29.793h-20.042l-14.735-25.843h-11.592v25.843h-17.766zm17.766-41.981h16.251c2.094 0 3.9-1.034 5.417-3.104 1.516-2.068 2.275-4.721 2.275-7.957 0-3.31-.867-5.942-2.601-7.9-1.733-1.955-3.612-2.934-5.633-2.934h-15.71v21.895zM208.162 611.956c0-4.814.867-9.61 2.601-14.39 1.733-4.775 4.26-9.045 7.584-12.808 3.321-3.762 7.366-6.81 12.133-9.142 4.768-2.331 10.183-3.498 16.25-3.498 7.223 0 13.489 1.618 18.798 4.853 5.309 3.236 9.264 7.448 11.864 12.639l-13.651 9.932c-.867-2.107-1.97-3.855-3.305-5.25-1.339-1.39-2.8-2.52-4.388-3.385-1.59-.864-3.215-1.466-4.876-1.805a24.436 24.436 0 00-4.875-.507c-3.396 0-6.356.715-8.884 2.143-2.529 1.43-4.622 3.274-6.284 5.53-1.661 2.258-2.89 4.817-3.683 7.675a32.22 32.22 0 00-1.192 8.69c0 3.159.469 6.207 1.408 9.14.938 2.936 2.293 5.53 4.063 7.788a19.776 19.776 0 006.392 5.36c2.492 1.317 5.291 1.975 8.396 1.975 1.589 0 3.231-.206 4.929-.621a19.414 19.414 0 004.876-1.918c1.552-.864 2.979-1.993 4.279-3.385 1.3-1.392 2.347-3.104 3.143-5.135l14.517 8.916c-1.156 2.934-2.871 5.568-5.146 7.899-2.274 2.333-4.894 4.288-7.854 5.868a40.887 40.887 0 01-9.426 3.61c-3.321.828-6.573 1.243-9.75 1.243-5.562 0-10.671-1.186-15.329-3.555-4.659-2.37-8.668-5.511-12.026-9.424-3.358-3.911-5.959-8.351-7.801-13.316-1.841-4.966-2.763-10.004-2.763-15.122zM321.378 653.373c-5.707 0-10.908-1.166-15.602-3.5-4.696-2.33-8.705-5.396-12.025-9.196-3.323-3.8-5.907-8.144-7.747-13.036a42.557 42.557 0 01-2.763-15.122c0-5.265.957-10.344 2.871-15.235 1.913-4.89 4.585-9.197 8.017-12.921 3.431-3.724 7.493-6.695 12.188-8.916 4.694-2.22 9.822-3.33 15.385-3.33 5.704 0 10.905 1.168 15.6 3.499 4.696 2.333 8.704 5.417 12.025 9.254 3.322 3.837 5.888 8.202 7.693 13.09 1.804 4.893 2.708 9.857 2.708 14.898 0 5.267-.957 10.345-2.872 15.235-1.913 4.893-4.565 9.197-7.962 12.922-3.395 3.725-7.438 6.714-12.134 8.972-4.695 2.257-9.821 3.386-15.382 3.386zm-20.044-40.627c0 3.086.433 6.077 1.301 8.972.866 2.898 2.146 5.474 3.846 7.73 1.695 2.257 3.809 4.063 6.337 5.418 2.528 1.354 5.417 2.03 8.666 2.03 3.396 0 6.357-.713 8.885-2.143 2.528-1.43 4.623-3.291 6.284-5.586 1.66-2.294 2.906-4.89 3.737-7.79a32.026 32.026 0 001.246-8.857c0-3.084-.434-6.075-1.299-8.972-.866-2.896-2.167-5.455-3.901-7.675a19.528 19.528 0 00-6.338-5.304c-2.492-1.315-5.363-1.974-8.614-1.974-3.396 0-6.336.695-8.828 2.087a19.943 19.943 0 00-6.283 5.474c-1.699 2.257-2.962 4.835-3.792 7.73a31.95 31.95 0 00-1.247 8.86zM404.364 636.897c3.033 0 5.597-.658 7.692-1.975 2.093-1.316 3.791-3.065 5.093-5.247 1.299-2.182 2.22-4.684 2.761-7.505a45.49 45.49 0 00.814-8.633V572.57h17.768v40.966c0 5.568-.669 10.759-2.004 15.573-1.338 4.816-3.397 9.028-6.175 12.64-2.782 3.612-6.324 6.452-10.618 8.52-4.299 2.07-9.41 3.104-15.331 3.104-6.141 0-11.375-1.09-15.708-3.272-4.337-2.182-7.854-5.097-10.564-8.746-2.708-3.648-4.694-7.88-5.96-12.696-1.264-4.814-1.894-9.855-1.894-15.122v-40.966h17.767v40.966c0 3.085.286 6.02.865 8.802.581 2.784 1.519 5.267 2.818 7.448 1.301 2.183 2.979 3.913 5.037 5.19 2.06 1.28 4.606 1.919 7.639 1.919zM453.55 652.696V572.57h34.668c3.611 0 6.95.79 10.022 2.37a26.784 26.784 0 017.963 6.208c2.238 2.558 3.989 5.456 5.253 8.688 1.263 3.237 1.896 6.51 1.896 9.819 0 2.483-.289 4.873-.866 7.167a28.582 28.582 0 01-2.491 6.489 24.533 24.533 0 01-3.953 5.474 23.812 23.812 0 01-5.254 4.119l16.9 29.793h-20.045l-14.732-25.843h-11.593v25.843H453.55zm17.767-41.981h16.25c2.095 0 3.901-1.034 5.417-3.104 1.518-2.068 2.274-4.721 2.274-7.957 0-3.31-.866-5.942-2.599-7.9-1.734-1.955-3.611-2.934-5.636-2.934h-15.707v21.895zM573.591 596.043c-.218-.3-.975-.863-2.276-1.692-1.301-.828-2.927-1.693-4.874-2.597-1.951-.903-4.082-1.693-6.393-2.37a24.57 24.57 0 00-6.935-1.015c-6.355 0-9.533 2.22-9.533 6.658 0 1.354.343 2.483 1.028 3.386s1.697 1.713 3.035 2.426c1.334.716 3.015 1.374 5.038 1.976 2.02.603 4.369 1.28 7.041 2.03 3.684 1.056 7.004 2.2 9.966 3.442 2.963 1.242 5.474 2.785 7.531 4.627 2.057 1.845 3.646 4.083 4.767 6.716 1.118 2.634 1.681 5.794 1.681 9.479 0 4.515-.814 8.334-2.438 11.455-1.626 3.123-3.775 5.643-6.448 7.56-2.671 1.919-5.74 3.313-9.206 4.176a44.21 44.21 0 01-10.727 1.298c-2.818 0-5.707-.226-8.668-.677a60.345 60.345 0 01-8.667-1.975 66.733 66.733 0 01-8.179-3.104 45.061 45.061 0 01-7.313-4.175l7.8-16.138c.289.377 1.228 1.092 2.815 2.145 1.588 1.054 3.557 2.106 5.905 3.159 2.347 1.055 4.966 1.995 7.854 2.822a31.665 31.665 0 008.776 1.24c6.283 0 9.428-1.992 9.428-5.98 0-1.504-.473-2.746-1.41-3.725-.94-.977-2.24-1.862-3.899-2.652-1.663-.79-3.63-1.524-5.905-2.201a698.432 698.432 0 01-7.422-2.257c-3.539-1.13-6.607-2.35-9.207-3.668-2.602-1.315-4.75-2.84-6.448-4.571a16.678 16.678 0 01-3.792-5.981c-.829-2.257-1.246-4.89-1.246-7.9 0-4.212.759-7.936 2.277-11.172 1.516-3.234 3.574-5.961 6.173-8.181 2.602-2.22 5.615-3.895 9.048-5.022 3.43-1.13 7.057-1.693 10.889-1.693 2.672 0 5.307.264 7.908.79a58.012 58.012 0 017.476 2.03c2.384.83 4.604 1.77 6.662 2.824a89.302 89.302 0 015.688 3.159l-7.8 15.348zM668.06 596.043c-.217-.3-.976-.863-2.275-1.692-1.3-.828-2.925-1.693-4.874-2.597-1.951-.903-4.082-1.693-6.395-2.37a24.542 24.542 0 00-6.931-1.015c-6.358 0-9.534 2.22-9.534 6.658 0 1.354.34 2.483 1.028 3.386s1.696 1.713 3.034 2.426c1.335.716 3.015 1.374 5.039 1.976 2.018.603 4.368 1.28 7.041 2.03 3.684 1.056 7.005 2.2 9.965 3.442 2.963 1.242 5.473 2.785 7.53 4.627 2.058 1.845 3.646 4.083 4.769 6.716 1.119 2.634 1.679 5.794 1.679 9.479 0 4.515-.813 8.334-2.438 11.455-1.625 3.123-3.774 5.643-6.445 7.56-2.674 1.919-5.743 3.313-9.21 4.176a44.171 44.171 0 01-10.726 1.298 57.54 57.54 0 01-8.667-.677 60.375 60.375 0 01-8.667-1.975 66.857 66.857 0 01-8.179-3.104 44.976 44.976 0 01-7.313-4.175l7.8-16.138c.289.377 1.227 1.092 2.817 2.145 1.588 1.054 3.557 2.106 5.905 3.159 2.347 1.055 4.965 1.995 7.854 2.822a31.65 31.65 0 008.776 1.24c6.282 0 9.425-1.992 9.425-5.98 0-1.504-.473-2.746-1.409-3.725-.939-.977-2.24-1.862-3.899-2.652-1.662-.79-3.631-1.524-5.905-2.201a691.63 691.63 0 01-7.421-2.257c-3.54-1.13-6.608-2.35-9.209-3.668-2.6-1.315-4.75-2.84-6.447-4.571a16.676 16.676 0 01-3.791-5.981c-.83-2.256-1.247-4.89-1.247-7.9 0-4.212.76-7.936 2.278-11.172 1.515-3.234 3.574-5.961 6.172-8.181 2.601-2.22 5.616-3.895 9.048-5.022 3.43-1.13 7.058-1.693 10.888-1.693 2.672 0 5.309.264 7.909.79 2.6.528 5.091 1.205 7.475 2.03 2.384.83 4.605 1.77 6.663 2.824a89.614 89.614 0 015.689 3.159l-7.802 15.348zM723.528 653.373c-5.707 0-10.906-1.166-15.601-3.5-4.695-2.33-8.707-5.396-12.026-9.196-3.323-3.8-5.904-8.144-7.747-13.036a42.555 42.555 0 01-2.762-15.122c0-5.265.958-10.344 2.87-15.235 1.915-4.89 4.587-9.197 8.02-12.921 3.429-3.724 7.492-6.695 12.186-8.916 4.694-2.22 9.823-3.33 15.385-3.33 5.705 0 10.905 1.168 15.603 3.499 4.692 2.333 8.701 5.417 12.023 9.254 3.322 3.837 5.887 8.202 7.693 13.09 1.805 4.893 2.709 9.857 2.709 14.898 0 5.267-.958 10.345-2.873 15.235-1.913 4.893-4.566 9.197-7.962 12.922-3.396 3.725-7.44 6.714-12.133 8.972-4.697 2.257-9.823 3.386-15.385 3.386zm-20.044-40.627c0 3.086.434 6.077 1.301 8.972.867 2.898 2.147 5.474 3.845 7.73a19.142 19.142 0 006.339 5.418c2.526 1.354 5.419 2.03 8.668 2.03 3.395 0 6.354-.713 8.883-2.143 2.529-1.43 4.623-3.291 6.285-5.586 1.66-2.294 2.905-4.89 3.736-7.79a32.026 32.026 0 001.246-8.857 31.16 31.16 0 00-1.3-8.972c-.867-2.896-2.167-5.455-3.899-7.675a19.567 19.567 0 00-6.34-5.304c-2.49-1.315-5.361-1.974-8.611-1.974-3.395 0-6.338.695-8.83 2.087a19.958 19.958 0 00-6.284 5.474c-1.697 2.257-2.961 4.835-3.791 7.73a31.95 31.95 0 00-1.248 8.86zM773.471 652.696V572.57h17.768v63.875h37.27v16.25h-55.038zM838.149 652.696V572.57h17.769v80.126h-17.769zM871.949 652.696V572.57h28.711c6.355 0 11.917 1.055 16.684 3.16 4.768 2.107 8.758 4.965 11.972 8.578 3.212 3.61 5.634 7.842 7.26 12.695 1.624 4.853 2.437 10.027 2.437 15.518 0 6.094-.903 11.606-2.707 16.533-1.809 4.929-4.388 9.14-7.749 12.639-3.357 3.499-7.403 6.207-12.132 8.126-4.732 1.919-9.986 2.877-15.764 2.877h-28.712zm48.971-40.176c0-3.535-.452-6.752-1.355-9.65-.903-2.894-2.221-5.396-3.954-7.504-1.731-2.104-3.864-3.724-6.391-4.853-2.531-1.128-5.382-1.692-8.56-1.692h-10.943v47.625h10.943c3.249 0 6.138-.602 8.666-1.806 2.527-1.203 4.64-2.878 6.337-5.022 1.696-2.145 2.998-4.664 3.901-7.562.904-2.895 1.356-6.074 1.356-9.536zM969.024 572.57h16.031l28.062 80.126h-18.202l-5.958-17.943h-23.943l-5.849 17.943h-18.203l28.062-80.126zM986.031 622l-8.993-28.326L967.832 622h18.199zM1022 652.696V572.57h17.767v80.126H1022zM1055.799 652.696V572.57h34.67c3.611 0 6.951.79 10.021 2.37a26.759 26.759 0 017.963 6.208 29.265 29.265 0 015.254 8.688c1.264 3.237 1.896 6.51 1.896 9.819 0 2.483-.289 4.873-.868 7.167a28.396 28.396 0 01-2.491 6.489 24.474 24.474 0 01-3.954 5.474 23.69 23.69 0 01-5.253 4.119l16.9 29.793h-20.044l-14.732-25.843h-11.595v25.843h-17.767zm17.767-41.981h16.252c2.096 0 3.9-1.034 5.417-3.104 1.517-2.068 2.275-4.721 2.275-7.957 0-3.31-.867-5.942-2.601-7.9-1.733-1.955-3.612-2.934-5.633-2.934h-15.711v21.895zM1183.748 636.445v16.25h-54.061v-80.126h53.086v16.25h-35.318v15.575h30.334v15.009h-30.334v17.04h36.293zM1222.422 652.696V572.57h28.711c6.355 0 11.918 1.055 16.685 3.16 4.767 2.107 8.758 4.965 11.972 8.578 3.213 3.61 5.634 7.842 7.259 12.695 1.625 4.853 2.437 10.027 2.437 15.518 0 6.094-.903 11.606-2.708 16.533-1.806 4.929-4.387 9.14-7.745 12.639-3.36 3.499-7.406 6.207-12.135 8.126-4.731 1.919-9.986 2.877-15.764 2.877h-28.712zm48.972-40.176c0-3.535-.452-6.752-1.356-9.65-.901-2.894-2.22-5.396-3.955-7.504-1.731-2.104-3.863-3.724-6.39-4.853-2.53-1.128-5.382-1.692-8.56-1.692h-10.942v47.625h10.942c3.25 0 6.137-.602 8.668-1.806 2.526-1.203 4.64-2.878 6.336-5.022 1.697-2.145 2.999-4.664 3.9-7.562.904-2.895 1.357-6.074 1.357-9.536zM1355.356 636.445v16.25h-54.061v-80.126h53.086v16.25h-35.32v15.575h30.336v15.009h-30.336v17.04h36.295z"/>
    </g>
    <g fill="#0f0689">
        <path d="M0 884.455V713.729h111.266v34.624H37.858v36.794h60.481v31.979H37.858v67.329H0zM202.91 885.899c-12.158 0-23.239-2.482-33.241-7.454-10.006-4.967-18.546-11.501-25.624-19.597-7.08-8.094-12.581-17.353-16.504-27.774-3.925-10.42-5.888-21.161-5.888-32.223 0-11.22 2.039-22.04 6.118-32.462 4.076-10.418 9.771-19.598 17.082-27.533 7.308-7.935 15.965-14.265 25.97-18.995 10.003-4.727 20.928-7.095 32.781-7.095 12.155 0 23.236 2.487 33.241 7.455 10.002 4.97 18.544 11.543 25.624 19.717 7.077 8.177 12.541 17.476 16.391 27.896 3.844 10.42 5.771 21.002 5.771 31.74 0 11.223-2.043 22.042-6.118 32.46-4.079 10.426-9.735 19.6-16.967 27.534-7.236 7.936-15.854 14.309-25.854 19.117-10.008 4.809-20.933 7.214-32.782 7.214zm-42.706-86.566c0 6.575.923 12.947 2.771 19.117 1.846 6.173 4.577 11.66 8.195 16.47 3.614 4.81 8.114 8.658 13.503 11.542 5.385 2.887 11.542 4.329 18.468 4.329 7.232 0 13.541-1.521 18.929-4.57 5.385-3.041 9.848-7.01 13.389-11.902 3.539-4.888 6.193-10.418 7.965-16.591a68.235 68.235 0 002.654-18.877c0-6.571-.924-12.942-2.77-19.117-1.848-6.167-4.618-11.621-8.312-16.35a41.624 41.624 0 00-13.504-11.302c-5.31-2.804-11.427-4.208-18.352-4.208-7.236 0-13.504 1.484-18.814 4.448-5.31 2.968-9.775 6.853-13.389 11.662-3.618 4.808-6.311 10.302-8.08 16.473a68.157 68.157 0 00-2.653 18.876zM310.019 884.455V713.729h73.873c7.691 0 14.811 1.683 21.353 5.05 6.538 3.365 12.194 7.777 16.967 13.225 4.767 5.452 8.501 11.625 11.194 18.516 2.692 6.895 4.04 13.868 4.04 20.92 0 5.29-.616 10.382-1.846 15.269-1.235 4.894-3.002 9.5-5.311 13.829-2.308 4.326-5.118 8.217-8.426 11.66a50.43 50.43 0 01-11.194 8.776l36.011 63.482h-42.706l-31.396-55.065h-24.699v55.065h-37.86zm37.86-89.45h34.626c4.462 0 8.312-2.201 11.543-6.613 3.231-4.408 4.848-10.06 4.848-16.953 0-7.052-1.849-12.661-5.54-16.831-3.695-4.167-7.697-6.255-12.004-6.255h-33.473v46.652zM597.418 884.455V782.26l-35.549 74.304h-20.313l-35.55-74.304v102.195h-37.858V713.729h41.09l42.477 89.21 42.703-89.21h40.861v170.727h-37.861zM714.686 713.729h34.164l59.789 170.727h-38.781l-12.698-38.234h-51.017l-12.464 38.234h-38.782l59.789-170.727zm36.242 105.32l-19.16-60.354-19.621 60.355h38.781zM936.99 748.353h-49.863v136.103H849.27V748.353h-50.094v-34.624H936.99v34.624zM958.916 884.455V713.729h37.858v170.727h-37.858zM1103.422 885.899c-12.16 0-23.24-2.482-33.242-7.454-10.007-4.967-18.547-11.501-25.624-19.597-7.08-8.094-12.582-17.353-16.506-27.774-3.924-10.42-5.888-21.161-5.888-32.223 0-11.22 2.037-22.04 6.117-32.462 4.078-10.418 9.771-19.598 17.084-27.533 7.307-7.935 15.965-14.265 25.971-18.995 10-4.727 20.926-7.095 32.779-7.095 12.155 0 23.235 2.487 33.242 7.455 10.002 4.97 18.542 11.543 25.623 19.717 7.076 8.177 12.543 17.476 16.388 27.896 3.848 10.42 5.772 21.002 5.772 31.74 0 11.223-2.04 22.042-6.116 32.46-4.081 10.426-9.735 19.6-16.968 27.534-7.234 7.936-15.852 14.309-25.855 19.117-10.004 4.809-20.93 7.214-32.777 7.214zm-42.706-86.566c0 6.575.921 12.947 2.77 19.117 1.847 6.173 4.575 11.66 8.194 16.47 3.614 4.81 8.116 8.658 13.503 11.542 5.386 2.887 11.544 4.329 18.47 4.329 7.23 0 13.539-1.521 18.929-4.57 5.384-3.041 9.848-7.01 13.388-11.902 3.538-4.888 6.195-10.418 7.966-16.591a68.234 68.234 0 002.653-18.877c0-6.571-.924-12.942-2.769-19.117-1.848-6.167-4.618-11.621-8.311-16.35a41.624 41.624 0 00-13.507-11.302c-5.309-2.804-11.424-4.208-18.35-4.208-7.236 0-13.504 1.484-18.814 4.448-5.309 2.968-9.775 6.853-13.389 11.662-3.619 4.808-6.313 10.302-8.08 16.473a68.194 68.194 0 00-2.653 18.876zM1248.39 786.828v97.627h-37.859V713.729h29.549l76.409 100.27V713.73h37.858v170.727h-30.473l-75.484-97.628z"/>
    </g>
    <g>
        <g fill="#efb600">
            <path d="M928.192 431.984l-.726-.075.063-66.782c-.005.264-.03 8.408 4.5 12.467 2.447 2.194 5.316 3.533 8.906 3.533 3.331 0 5.511-.575 7.511-2.061v34.053c0 7.78 4.321 11.397 5.44 12.53 2.308 2.342 5.246 3.534 8.836 3.534 3.546 0 6.531-.995 8.906-2.952.388 1.963 1.117 4.324 2.496 6.425-25.846.874-41.785-.303-45.932-.672z"/>
            <path d="M832.446 463.35l-63.177.002c-.039.004-5.443.13-8.477-2.811-1.409-1.366-2.094-3.216-2.094-5.653 0-1.948.568-3.455 1.738-4.605 2.828-2.78 8.138-2.763 8.215-2.767l1.46-.003 62.335-.003v-6l-54.237-.027c-.04.002-5.44.104-8.474-2.84-1.409-1.366-2.094-3.274-2.094-5.713 0-1.941.564-3.562 1.725-4.712 2.313-2.29 6.61-3.018 8.168-3.018H857.446v-6h-31.594c-1.324 0-5.518-.081-8.06-2.548-1.409-1.366-2.094-2.957-2.094-5.396 0-1.948.57-3.408 1.74-4.561 2.823-2.775 8.127-2.658 8.214-2.675l1.464.18h56.254c2.961 1 19.078 8.162 32.141 23.22l9.837 10.307 1.1.122 1.53.144.27.022.72.059c.231.019.923.07 1.014.077l1.121.079 1.198.078 1.5.09c.441.025 1.48.08 1.53.084l1.705.083c.522.024 1.85.08 1.963.085.586.023 1.873.07 1.902.07.604.022 2.106.068 2.225.072.652.019 1.323.037 2.012.054.131.003 5.25.169 5.397.169.775.01 1.57-.021 2.38-.016.153 0 .31-.017.463-.016.853.005 1.72-.001 2.61-.001 16.73 0 41.087.96 70.268-2.232-.712-4.232-.358-2.339-1.563-7.788a713.736 713.736 0 01-28.176 2.528c.945-1.66 1.525-3.41 1.886-4.984 2.16 1.776 4.772 2.678 7.895 2.678 4.108 0 7.365-1.33 9.89-3.95 4.525-4.703 4.257-11.933 4.257-12.782v-18.11c2 1.489 4.67 2.255 7.526 2.255 4.108 0 7.615-1.33 10.14-3.951 4.524-4.701 4.334-11.93 4.334-12.781v-61.15c0-.671.268-18.95-6.25-44.075-3.134-12.083-8.498-26.984-16.875-42.438h100.698c11.14 8.46 23.042 14.967 34.905 19 8.906 3.028 17.79 4.667 26.308 4.667 8.52 0 17.403-1.637 26.31-4.667 11.741-3.994 23.521-10.414 34.562-18.75 1.028 0 50.109.002 51.043 0 14.504-.035 26.805 4.863 36.609 14.558a57.594 57.594 0 013.832 4.192c18.375 22.16 21.344 57.839 21.769 73.77v55.812c.026 4.583-1.164 46.824-.738 47.76 1.237 2.72-.78 31.892-7.656 43.518-9.792 21.61-34.085 37.41-46.8 35.78-20.496 3.067-209.26-.769-256.742-.642H810.863l-.058-.081c-.04-.003-5.45.049-8.483-2.893-1.409-1.365-2.094-3.215-2.094-5.653 0-1.948.567-3.455 1.738-4.606 2.644-2.6 7.512-2.765 8.144-2.767h22.336v-6.008l-54.236.002c-.048 0-5.44.132-8.475-2.811-1.409-1.367-2.094-3.217-2.094-5.655 0-1.948.568-3.455 1.738-4.606 2.822-2.774 8.183-2.774 8.211-2.765l1.466-.004 53.39-.003v-2.15z"/>
        </g>
        <path d="M1183.95.04c58.547 1.584 104.888 50.52 103.303 109.085-.607 22.45-2.646 47.998-19.259 67.086-21.879 25.142-58.86 42.114-89.928 41.273-31.068-.84-67.077-19.787-87.567-46.075-15.557-19.96-16.211-45.582-15.604-68.03C1076.48 44.812 1125.402-1.546 1183.95.038zm-5.619 188.205c22.202.6 36.24-19.169 36.735-19.624l-5.26-3.188c-.415.377-11.936 7.504-30.706 6.996-19.86-.537-26.661-8.048-27.006-8.44l-5.648 2.656c.417.484 8.305 20.962 31.885 21.6z"
              fill="#efb600"/>
        <path d="M713.722 232.048c3.59 0 6.578 1.188 8.883 3.533 2.425 2.465 3.536 5.763 4.05 8.36 2.374-1.957 5.361-2.951 8.907-2.951 3.591 0 6.328 1.192 8.637 3.533 1.118 1.134 5.238 4.75 5.238 12.531v34.053c2.458-1.486 4.38-2.06 7.711-2.06 3.59 0 6.562 1.338 9.01 3.532 4.53 4.06 4.554 12.203 4.549 12.467l.033 58.795-.176.512c-.29.774-7.147 18.688-23.943 33.863 3.205 14.437 10.041 23.606 16.6 29.34-2.106 7.622-3.27 17.067-3.475 15.245-.056-2.391-8.427 4.1-6.632 13.035-11.84 19.968-18.788 18.665-42.388 24.437-29.725-28.015-43.203-61.537-49.217-84.725-6.518-25.126-6.068-43.417-6.068-44.088v-61.15c0-.852.012-8.08 4.537-12.781 2.523-2.622 5.93-3.951 10.037-3.951 2.857 0 5.426.766 7.426 2.255v-18.11c0-.85-.067-8.08 4.459-12.782 2.524-2.622 5.882-3.951 9.99-3.951 3.123 0 5.788.9 7.946 2.677.566-2.467 1.683-5.368 3.896-7.668 2.523-2.622 5.886-3.95 9.994-3.95z"
              fill="#7676f4"/>
        <path d="M655.446 351.73v-61.15c0-.851.011-8.08 4.536-12.78 2.523-2.622 5.93-3.951 10.038-3.951 2.857 0 5.426.766 7.426 2.255v-18.111c0-.85-.067-8.08 4.46-12.782 2.523-2.622 5.881-3.951 9.99-3.951 3.122 0 5.786.9 7.944 2.678.566-2.467 1.684-5.368 3.897-7.668 2.523-2.622 5.885-3.951 9.993-3.951 3.59 0 6.58 1.188 8.884 3.533 2.425 2.465 3.535 5.763 4.048 8.36 2.375-1.957 5.362-2.952 8.908-2.952 3.591 0 6.328 1.192 8.637 3.533 1.118 1.134 5.238 4.75 5.238 12.532v34.053c2.458-1.486 4.381-2.061 7.712-2.061 3.59 0 6.56 1.339 9.008 3.533 4.53 4.059 4.554 12.203 4.55 12.467l.033 58.795-.176.51c-.29.775-7.147 18.69-23.943 33.865 3.205 14.437 10.041 23.606 16.6 29.34-.825 1.669-1.253 3.556-1.253 5.679 0 .36.018.713.038 1.063-8.419-6.407-17.869-17.577-21.615-36.592l-.336-1.707 1.314-1.14c15.06-13.063 22.18-29.18 23.402-32.141l-.002-57.708c.015-1.495-.456-5.891-2.78-8.24-1.149-1.16-2.65-1.724-4.592-1.724-2.438 0-4.538.685-5.904 2.094-2.476 2.553-2.057 6.242-2.057 8.117V337.2h-6V257.09c.001-.053-.365-5.266-3.143-8.091-1.15-1.17-2.72-1.74-4.67-1.74-2.439 0-4.32.685-5.686 2.094-2.942 3.034-2.658 8.438-2.656 8.48l.157 54.245v.12h-6.337l-.004-62.4-.002-1.483c.015-1.496-.456-5.907-2.782-8.256-1.149-1.161-2.65-1.732-4.59-1.732-2.439 0-4.288.68-5.654 2.089-2.943 3.034-2.812 8.499-2.81 8.542l.001 63.24h-6l-.003-53.456-.003-1.49c.015-1.495-.455-5.905-2.78-8.253-1.149-1.161-2.65-1.732-4.592-1.732-2.438 0-4.288.682-5.654 2.09-2.942 3.034-2.813 8.498-2.81 8.54l.001 54.302h-6l-.006-22.326c.015-1.495-.458-5.921-2.784-8.27-1.149-1.161-2.65-1.74-4.592-1.74-2.438 0-4.288.677-5.653 2.085-2.942 3.034-2.81 8.436-2.809 8.479l.002.056v61.345c-.024.72-1.655 72.59 53.261 124.347l-4.115 4.367c-29.725-28.015-43.204-61.537-49.218-84.725-6.518-25.126-6.067-43.416-6.067-44.087z"/>
        <g>
            <path d="M951.359 198.992c0 3.59-1.188 6.578-3.533 8.883-2.465 2.425-5.763 3.535-8.36 4.048 1.957 2.375 2.951 5.363 2.951 8.909 0 3.59-1.192 6.327-3.533 8.636-1.134 1.118-4.75 5.239-12.531 5.239H892.3c1.486 2.458 2.06 4.38 2.06 7.71 0 3.59-1.339 6.562-3.533 9.01-4.059 4.53-12.202 4.554-12.466 4.55l-58.795.032-.512-.176c-.774-.29-18.688-7.147-33.863-23.943-14.437 3.205-23.606 10.042-29.34 16.6-7.622-2.106-9.032-1.34-7.21-1.546 3.662-1.072-7.65-12.98-19.463-8.882-1.692-4.047-2.487-8.347-11.953-9.22-8.946-8.018-9.732-15.025-14.091-32.847 28.015-29.725 61.537-43.202 84.725-49.216 25.126-6.518 43.417-6.069 44.088-6.069h61.15c.852 0 8.08.012 12.781 4.537 2.622 2.523 3.951 5.93 3.951 10.038 0 2.857-.766 5.425-2.255 7.425h18.11c.85 0 8.08-.067 12.782 4.46 2.622 2.523 3.951 5.882 3.951 9.99 0 3.123-.9 5.787-2.677 7.945 2.467.566 5.368 1.683 7.668 3.896 2.622 2.523 3.95 5.886 3.95 9.994z"
                  fill="#4545ce"/>
            <path d="M831.676 140.716h61.15c.852 0 8.08.01 12.781 4.536 2.622 2.523 3.951 5.93 3.951 10.038 0 2.857-.766 5.426-2.255 7.426h18.111c.849 0 8.079-.067 12.782 4.459 2.622 2.524 3.951 5.882 3.951 9.99 0 3.123-.901 5.787-2.678 7.945 2.467.566 5.368 1.684 7.668 3.897 2.622 2.523 3.951 5.885 3.951 9.993 0 3.59-1.188 6.579-3.533 8.884-2.465 2.425-5.763 3.535-8.36 4.048 1.957 2.375 2.952 5.362 2.952 8.908 0 3.59-1.192 6.328-3.533 8.637-1.134 1.118-4.75 5.238-12.532 5.238h-34.053c1.486 2.458 2.061 4.38 2.061 7.712 0 3.59-1.339 6.56-3.533 9.008-4.059 4.53-12.203 4.554-12.467 4.549l-58.795.034-.511-.176c-.774-.291-18.689-7.147-33.864-23.943-14.437 3.205-23.606 10.04-29.34 16.599-1.669-.824-3.556-1.252-5.679-1.252-.361 0-.713.018-1.063.038 6.407-8.42 17.577-17.87 36.592-21.615l1.707-.336 1.14 1.314c13.063 15.059 29.18 22.179 32.141 23.402l57.708-.002c1.495.015 5.891-.456 8.239-2.781 1.16-1.148 1.725-2.65 1.725-4.591 0-2.438-.685-4.538-2.094-5.904-2.553-2.476-6.242-2.057-8.117-2.057h-31.672v-6h80.109c.053 0 5.266-.365 8.091-3.143 1.17-1.151 1.74-2.721 1.74-4.67 0-2.44-.685-4.32-2.094-5.686-3.034-2.942-8.438-2.658-8.481-2.656l-54.244.157h-.121v-6.337l62.401-.004 1.483-.002c1.496.015 5.907-.456 8.256-2.782 1.161-1.15 1.732-2.651 1.732-4.591 0-2.438-.681-4.287-2.089-5.653-3.034-2.943-8.499-2.812-8.542-2.811l-63.241.002v-6l53.457-.003 1.49-.003c1.495.015 5.905-.455 8.253-2.78 1.161-1.15 1.732-2.651 1.732-4.592 0-2.438-.682-4.288-2.09-5.654-3.034-2.942-8.498-2.813-8.541-2.811l-54.301.002v-6l22.326-.006c1.495.015 5.921-.458 8.27-2.784 1.161-1.15 1.74-2.651 1.74-4.592 0-2.438-.677-4.288-2.085-5.653-3.034-2.942-8.436-2.811-8.479-2.81l-.056.003-61.345-.001c-.72-.023-72.591-1.654-124.347 53.262L702.864 196c28.015-29.725 61.537-43.204 84.725-49.218 25.126-6.518 43.416-6.067 44.087-6.067z"/>
        </g>
        <g>
            <path d="M984.893 438.627c-3.59 0-6.577-1.188-8.882-3.533-2.425-2.465-3.536-5.763-4.05-8.36-2.374 1.957-5.361 2.951-8.907 2.951-3.591 0-6.328-1.192-8.637-3.533-1.118-1.134-5.238-4.75-5.238-12.531v-34.053c-2.458 1.486-4.38 2.06-7.711 2.06-3.59 0-6.562-1.338-9.01-3.532-4.53-4.06-4.554-12.203-4.549-12.467l-.033-58.795.176-.512c.29-.774 7.147-18.688 23.943-33.863-3.205-14.437-10.041-23.606-16.6-29.34 2.106-7.622 1.34-9.032 1.546-7.21 1.072 3.662 12.98-7.65 8.882-19.463 4.047-1.691 8.347-2.487 9.22-11.953 8.018-8.946 15.025-9.732 32.847-14.09 29.725 28.014 43.203 61.536 49.217 84.724 6.518 25.126 6.068 43.417 6.068 44.088v61.15c0 .852-.012 8.08-4.537 12.781-2.523 2.622-5.93 3.952-10.037 3.952-2.857 0-5.426-.767-7.426-2.256v18.11c0 .85.067 8.08-4.459 12.782-2.524 2.622-5.882 3.951-9.99 3.951-3.123 0-5.788-.9-7.946-2.677-.566 2.467-1.683 5.368-3.896 7.668-2.523 2.622-5.886 3.95-9.994 3.95z"
                  fill="#0f0689"/>
            <path d="M1043.056 319.171v61.15c0 .852-.011 8.08-4.536 12.781-2.523 2.622-5.93 3.951-10.038 3.951-2.857 0-5.426-.766-7.426-2.255v18.111c0 .85.067 8.08-4.46 12.782-2.523 2.622-5.881 3.951-9.99 3.951-3.122 0-5.786-.9-7.944-2.678-.566 2.467-1.684 5.368-3.897 7.668-2.523 2.622-5.885 3.951-9.993 3.951-3.59 0-6.58-1.188-8.884-3.533-2.425-2.465-3.535-5.763-4.048-8.36-2.375 1.957-5.362 2.952-8.908 2.952-3.591 0-6.328-1.192-8.637-3.533-1.118-1.134-5.238-4.75-5.238-12.532v-34.053c-2.458 1.486-4.381 2.061-7.712 2.061-3.59 0-6.56-1.339-9.008-3.533-4.53-4.059-4.554-12.203-4.55-12.467l-.033-58.795.176-.51c.29-.775 7.147-18.69 23.943-33.865-3.205-14.437-10.041-23.606-16.6-29.34.6-3.02 1.197-3.888 1.253-5.679.011-.36-.018-.713-.038-1.063 8.419 6.407 17.869 17.577 21.615 36.592l.336 1.707-1.314 1.14c-15.06 13.063-22.18 29.18-23.402 32.141l.002 57.708c-.015 1.495.456 5.891 2.78 8.24 1.149 1.16 2.65 1.724 4.592 1.724 2.438 0 4.538-.685 5.904-2.094 2.476-2.553 2.057-6.242 2.057-8.117v-31.672h6v80.109c-.001.053.365 5.266 3.143 8.091 1.15 1.17 2.72 1.74 4.67 1.74 2.439 0 4.32-.685 5.686-2.094 2.942-3.034 2.658-8.438 2.656-8.48l-.157-54.245v-.12h6.337l.004 62.4.002 1.483c-.015 1.496.456 5.907 2.782 8.256 1.149 1.161 2.65 1.732 4.59 1.732 2.439 0 4.288-.68 5.654-2.089 2.943-3.034 2.812-8.499 2.81-8.542l-.001-63.24h6l.003 53.456.003 1.49c-.015 1.495.455 5.905 2.78 8.253 1.149 1.161 2.65 1.732 4.592 1.732 2.438 0 4.288-.682 5.654-2.09 2.942-3.034 2.813-8.498 2.81-8.54l-.001-54.302h6l.006 22.326c-.015 1.495.458 5.921 2.784 8.27 1.149 1.161 2.65 1.74 4.592 1.74 2.438 0 4.288-.677 5.653-2.085 2.942-3.034 2.81-8.436 2.809-8.479l-.002-.056v-61.345c.024-.72 1.655-72.59-53.261-124.347-6.388-6.437 2.3-3.695 4.115-4.367 29.725 28.015 43.204 61.537 49.218 84.725 6.518 25.126 6.067 43.416 6.067 44.087z"
                  fill="#fff" stroke="#fff"/>
        </g>
    </g>
</svg>