<?xml version="1.0" encoding="UTF-8" standalone="no"?>
<!-- Generator: Adobe Illustrator 22.1.0, SVG Export Plug-In . SVG Version: 6.00 Build 0)  -->

<svg
   xmlns:dc="http://purl.org/dc/elements/1.1/"
   xmlns:cc="http://creativecommons.org/ns#"
   xmlns:rdf="http://www.w3.org/1999/02/22-rdf-syntax-ns#"
   xmlns:svg="http://www.w3.org/2000/svg"
   xmlns="http://www.w3.org/2000/svg"
   xmlns:sodipodi="http://sodipodi.sourceforge.net/DTD/sodipodi-0.dtd"
   xmlns:inkscape="http://www.inkscape.org/namespaces/inkscape"
   version="1.1"
   x="0px"
   y="0px"
   viewBox="0 0 137.7 160.5"
   xml:space="preserve"
   id="svg2"
   inkscape:version="0.91 r13725"
   sodipodi:docname="services_du_premier_ministre.svg"
   width="137.7"
   height="160.5"><metadata
     id="metadata21"><rdf:RDF><cc:Work
         rdf:about=""><dc:format>image/svg+xml</dc:format><dc:type
           rdf:resource="http://purl.org/dc/dcmitype/StillImage" /><dc:title></dc:title></cc:Work></rdf:RDF></metadata><defs
     id="defs19" /><sodipodi:namedview
     pagecolor="#ffffff"
     bordercolor="#666666"
     borderopacity="1"
     objecttolerance="10"
     gridtolerance="10"
     guidetolerance="10"
     inkscape:pageopacity="0"
     inkscape:pageshadow="2"
     inkscape:window-width="1215"
     inkscape:window-height="1000"
     id="namedview17"
     showgrid="false"
     fit-margin-top="0"
     fit-margin-left="0"
     fit-margin-right="0"
     fit-margin-bottom="0"
     inkscape:zoom="1.0870566"
     inkscape:cx="68.899997"
     inkscape:cy="80.249997"
     inkscape:window-x="65"
     inkscape:window-y="24"
     inkscape:window-maximized="1"
     inkscape:current-layer="svg2" /><style
     type="text/css"
     id="style4">
	.st0{fill:#FFFFFF;}
	.st1{fill:#000091;}
	.st2{fill:#E1000F;}
	.st3{fill:#9C9B9B;}
</style><g
     id="Fond"
     transform="translate(-28.3,-28.3)"><rect
       x="0"
       class="st0"
       width="194.39999"
       height="217.10001"
       id="rect7"
       y="0"
       style="fill:#ffffff" /></g><g
     id="Calque_1"
     transform="translate(-28.3,-28.3)"><path
       id="Devise_Républicaine_1_"
       d="m 97.5,181.4 c 0.6,0 1.1,0.4 0.8,1.5 l -2.7,0.6 c 0.5,-1.1 1.3,-2.1 1.9,-2.1 m 1.5,4.4 -0.5,0 c -0.7,0.8 -1.4,1.4 -2.1,1.4 -0.7,0 -1.1,-0.4 -1.1,-1.4 0,-0.4 0,-0.8 0.1,-1.2 l 4.3,-1.4 c 0.8,-2 -0.2,-2.9 -1.4,-2.9 -2,0 -4.4,3.4 -4.4,6.4 0,1.3 0.6,2.1 1.6,2.1 1.3,0 2.5,-1.2 3.5,-3 m -0.9,-6.3 3,-2.8 0,-0.3 -1.6,0 -1.9,3.2 0.5,0 z m -9.3,2 1.4,0 -2.3,6.2 c -0.2,0.5 0.1,1.1 0.6,1.1 1.3,0 3.4,-1.3 4.1,-3 l -0.4,0 c -0.6,0.6 -1.7,1.4 -2.6,1.6 l 2.1,-5.8 2.1,0 0.3,-0.9 -2.1,0 0.8,-2.2 -0.8,0 -1.5,2.2 -1.8,0.2 0,0.6 z m -1.9,-0.3 c 0.2,-0.6 -0.2,-0.9 -0.5,-0.9 -1.2,0 -2.7,1.1 -3.3,2.7 l 0.4,0 c 0.4,-0.6 1.1,-1.2 1.7,-1.3 l -2.4,6.2 c -0.2,0.6 0.2,0.9 0.5,0.9 1.2,0 2.6,-1.1 3.2,-2.7 l -0.4,0 c -0.4,0.6 -1.1,1.2 -1.7,1.3 l 2.5,-6.2 z m 0.4,-3.1 c 0.6,0 1,-0.5 1,-1 0,-0.6 -0.5,-1 -1,-1 -0.6,0 -1,0.5 -1,1 0,0.5 0.4,1 1,1 m -13.7,9.5 c -0.3,0.7 0,1.2 0.7,1.2 0.4,0 0.6,-0.1 0.8,-0.6 l 1.7,-4.4 c 0.8,-0.9 2.3,-1.9 3,-1.9 0.5,0 0.4,0.4 0.1,0.9 l -2.5,4.9 c -0.2,0.5 0.1,1.1 0.6,1.1 1.2,0 2.7,-1.1 3.3,-2.7 l -0.4,0 c -0.4,0.6 -1.1,1.2 -1.7,1.3 l 2.2,-4.4 c 0.3,-0.6 0.4,-1.1 0.4,-1.5 0,-0.7 -0.4,-1.2 -1.2,-1.2 -1.1,0 -2.2,1.2 -3.5,2.7 l 0,-1.2 c 0,-0.8 -0.3,-1.6 -1,-1.6 -0.5,0 -0.9,0.4 -1.3,1 l 0,0.2 c 0.8,0 1.2,1.2 0.6,2.4 l -1.8,3.8 z m 0,-5.4 c 0.3,-1 0.1,-1.9 -0.6,-1.9 -0.9,0 -1.2,0.7 -2.1,2.7 l 0,-1.2 c 0,-0.8 -0.3,-1.6 -1,-1.6 -0.9,0 -1.7,1.4 -2.3,2.7 l 0.4,0 c 0.4,-0.6 0.8,-1 1.1,-1 0.4,0 0.6,0.6 0,1.9 l -1.7,3.7 c -0.3,0.7 0,1.2 0.7,1.2 0.4,0 0.6,-0.1 0.8,-0.6 l 1.7,-4.4 c 0.5,-0.6 0.9,-1.1 1.4,-1.6 l 1.6,0 z M 64,181.4 c 0.6,0 1.1,0.4 0.8,1.5 l -2.7,0.6 c 0.5,-1.1 1.3,-2.1 1.9,-2.1 m 1.5,4.4 -0.5,0 c -0.7,0.8 -1.4,1.4 -2.1,1.4 -0.7,0 -1.1,-0.4 -1.1,-1.4 0,-0.4 0,-0.8 0.1,-1.2 l 4.3,-1.4 c 0.8,-2 -0.2,-2.9 -1.4,-2.9 -2,0 -4.4,3.4 -4.4,6.4 0,1.3 0.6,2.1 1.6,2.1 1.3,0 2.5,-1.2 3.5,-3 m -10.2,-4.3 1.4,0 -2.3,6.2 c -0.2,0.5 0.1,1.1 0.6,1.1 1.3,0 3.4,-1.3 4.1,-3 l -0.4,0 c -0.6,0.6 -1.7,1.4 -2.6,1.6 l 2.1,-5.8 2.1,0 0.3,-0.9 -2.1,0 0.8,-2.2 -0.8,0 -1.5,2.2 -1.8,0.2 0,0.6 z m -7.9,4.8 c 0,-1.9 2.1,-4.5 3.3,-4.5 0.3,0 0.5,0 0.7,0.1 l -1.2,3.3 c -0.7,0.9 -1.8,1.9 -2.3,1.9 -0.3,0.1 -0.5,-0.2 -0.5,-0.8 m 6.6,-6.4 -0.7,0 -0.7,0.7 -0.2,0 c -3.6,0 -6.6,4 -6.6,6.9 0,0.8 0.5,1.3 1.3,1.3 0.9,0 1.8,-1.3 2.8,-2.7 l 0,0.5 c -0.1,1.4 0.3,2.2 1.1,2.2 0.9,0 1.7,-1.4 2.3,-2.7 l -0.4,0 c -0.4,0.6 -0.8,1 -1.1,1 -0.3,0 -0.6,-0.6 0,-1.9 l 2.2,-5.3 z m -7.6,2.3 c 0.3,-1 0.1,-1.9 -0.6,-1.9 -0.9,0 -1.2,0.7 -2.1,2.7 l 0,-1.2 c 0,-0.8 -0.3,-1.6 -1,-1.6 -0.9,0 -1.7,1.4 -2.3,2.7 l 0.4,0 c 0.4,-0.6 0.8,-1 1.1,-1 0.4,0 0.6,0.6 0,1.9 l -1.7,3.7 c -0.3,0.7 0,1.2 0.7,1.2 0.4,0 0.6,-0.1 0.8,-0.6 l 1.7,-4.4 c 0.5,-0.6 0.9,-1.1 1.4,-1.6 l 1.6,0 z m -11.9,6.2 0.2,-0.5 c -2.1,-0.4 -2.3,-0.4 -1.5,-2.6 l 0.8,-2.3 2.3,0 c 1,0 1,0.4 0.9,1.5 l 0.6,0 1.4,-3.8 -0.6,0 c -0.5,0.9 -0.9,1.5 -2,1.5 l -2.3,0 1.2,-3.3 c 0.4,-1 0.6,-1.3 2,-1.3 l 1,0 c 1.4,0 1.6,0.4 1.6,1.9 l 0.6,0 0.5,-2.6 -8.6,0 -0.2,0.5 c 1.7,0.3 1.8,0.5 1,2.6 l -1.9,5.1 c -0.8,2.1 -1.1,2.3 -3,2.6 l -0.1,0.5 6.1,0 z M 76.6,162 c 0.6,0 1.1,0.4 0.8,1.5 l -2.7,0.6 c 0.5,-1.2 1.3,-2.1 1.9,-2.1 m 1.5,4.3 -0.5,0 c -0.7,0.8 -1.4,1.4 -2.1,1.4 -0.7,0 -1.1,-0.4 -1.1,-1.4 0,-0.4 0,-0.8 0.1,-1.2 l 4.3,-1.4 c 0.8,-2 -0.2,-2.9 -1.4,-2.9 -2,0 -4.4,3.4 -4.4,6.4 0,1.3 0.6,2.1 1.6,2.1 1.3,0 2.5,-1.1 3.5,-3 m -0.8,-6.3 3,-2.8 0,-0.3 -1.6,0 -1.9,3.2 0.5,0 z m -9.3,2 1.4,0 -2.3,6.2 c -0.2,0.5 0.1,1.1 0.6,1.1 1.3,0 3.4,-1.3 4.1,-3 l -0.4,0 c -0.6,0.6 -1.7,1.4 -2.6,1.6 l 2.1,-5.8 2.1,0 0.3,-0.9 -2.1,0 0.8,-2.2 -0.8,0 -1.5,2.2 -1.8,0.2 0,0.6 z m -2,-0.3 c 0.2,-0.6 -0.2,-0.9 -0.5,-0.9 -1.2,0 -2.7,1.1 -3.3,2.7 l 0.4,0 c 0.4,-0.6 1.1,-1.2 1.7,-1.3 l -2.4,6.2 c -0.2,0.6 0.2,0.9 0.5,0.9 1.2,0 2.6,-1.1 3.2,-2.7 l -0.4,0 c -0.4,0.6 -1.1,1.2 -1.7,1.3 l 2.5,-6.2 z m 0.5,-3.1 c 0.6,0 1,-0.5 1,-1 0,-0.6 -0.5,-1 -1,-1 -0.6,0 -1,0.5 -1,1 -0.1,0.6 0.4,1 1,1 m -8.3,9.3 4.3,-11.4 -0.1,-0.2 -2.7,0.3 0,0.3 0.5,0.4 c 0.5,0.4 0.3,0.7 -0.1,1.9 l -3.4,8.9 c -0.2,0.5 0.1,1.1 0.6,1.1 1.2,0 2.6,-1.1 3.2,-2.7 l -0.4,0 c -0.4,0.7 -1.3,1.3 -1.9,1.4 m -8.3,-1 c 0,-1.9 2.1,-4.5 3.3,-4.5 0.3,0 0.5,0 0.7,0.1 l -1.2,3.3 c -0.7,0.9 -1.8,1.9 -2.3,1.9 -0.3,0 -0.5,-0.3 -0.5,-0.8 m 6.6,-6.4 -0.7,0 -0.7,0.7 -0.2,0 c -3.6,0 -6.6,4 -6.6,6.9 0,0.8 0.5,1.3 1.3,1.3 0.9,0 1.8,-1.3 2.8,-2.7 l 0,0.5 c -0.1,1.4 0.3,2.2 1.1,2.2 0.9,0 1.7,-1.4 2.3,-2.7 l -0.4,0 c -0.4,0.6 -0.8,1 -1.1,1 -0.3,0 -0.6,-0.6 0,-1.9 l 2.2,-5.3 z m -15.9,10.3 c 0,-0.8 0.8,-1.3 1.9,-1.8 0.4,0.2 0.9,0.4 1.7,0.6 1.2,0.4 1.6,0.5 1.6,0.9 0,0.8 -1.3,1.3 -3.1,1.3 -1.4,0.1 -2.1,-0.2 -2.1,-1 m 3.2,-5 c -0.5,0 -0.7,-0.4 -0.7,-0.9 0,-1.4 0.7,-3.4 1.9,-3.4 0.5,0 0.7,0.4 0.7,0.9 0.1,1.3 -0.7,3.4 -1.9,3.4 m 3.4,4.2 c 0,-1 -0.9,-1.4 -2.3,-1.8 -1.2,-0.4 -1.8,-0.5 -1.8,-0.9 0,-0.3 0.3,-0.7 0.8,-1 2,-0.1 3.4,-1.9 3.4,-3.5 0,-0.3 -0.1,-0.6 -0.2,-0.9 l 1.7,0 0.3,-0.9 -2.7,0 c -0.3,-0.2 -0.7,-0.3 -1.1,-0.3 -2.2,0 -3.6,1.9 -3.6,3.4 0,1.2 0.7,1.9 1.7,2.1 -1,0.5 -1.6,1 -1.6,1.6 0,0.4 0.1,0.6 0.4,0.8 -2.3,0.7 -3.3,1.5 -3.3,2.6 0,1.1 1.4,1.5 3.1,1.5 2.8,0.2 5.2,-1.4 5.2,-2.7 m -10.9,-6.6 c 1,0 1,0.4 0.9,1.5 l 0.6,0 1.4,-3.8 -0.6,0 c -0.5,0.9 -0.9,1.5 -2,1.5 l -2.3,0 1.1,-3.1 c 0.4,-1 0.6,-1.2 2,-1.2 l 1,0 c 1.4,0 1.6,0.4 1.6,1.8 l 0.6,0 0.5,-2.6 -8.6,0 -0.2,0.5 c 1.7,0.3 1.8,0.5 1,2.6 l -1.9,5.1 c -0.8,2.1 -1.1,2.3 -3,2.6 l -0.1,0.5 9.6,0 1.7,-2.7 -0.6,0 c -1.1,1 -2.5,2 -4.4,2 -2.5,0 -2.3,-0.1 -1.5,-2.4 l 0.9,-2.5 2.3,0 z m 1.3,-6.6 3,-2.1 0,-0.3 -1.8,0 -1.7,2.4 0.5,0 z m 38,-14.3 c 0.6,0 1.1,0.4 0.8,1.5 l -2.7,0.6 c 0.5,-1.2 1.3,-2.1 1.9,-2.1 m 1.5,4.3 -0.5,0 c -0.7,0.8 -1.4,1.4 -2.1,1.4 -0.7,0 -1.1,-0.4 -1.1,-1.4 0,-0.4 0,-0.8 0.1,-1.2 l 4.3,-1.4 c 0.8,-2 -0.2,-2.9 -1.4,-2.9 -2,0 -4.4,3.4 -4.4,6.4 0,1.3 0.6,2.1 1.6,2.1 1.3,0 2.5,-1.1 3.5,-3 m -0.8,-6.3 3,-2.8 0,-0.3 -1.6,0 -1.9,3.2 0.5,0 z m -9,2 1.1,0 -2.3,6.2 c -0.2,0.5 0.1,1.1 0.6,1.1 1.3,0 3.4,-1.3 4.1,-3 l -0.4,0 c -0.6,0.6 -1.7,1.4 -2.6,1.6 l 2.1,-5.8 2.1,0 0.3,-0.9 -2.1,0 0.8,-2.2 -0.8,0 -1.5,2.2 -1.5,0.2 0,0.6 z m -1.1,0.7 c 0.3,-1 0.1,-1.9 -0.6,-1.9 -0.9,0 -1.2,0.7 -2.1,2.7 l 0,-1.2 c 0,-0.8 -0.3,-1.6 -1,-1.6 -0.9,0 -1.7,1.4 -2.3,2.7 l 0.4,0 c 0.4,-0.6 0.8,-1 1.1,-1 0.4,0 0.6,0.6 0,1.9 l -1.7,3.7 c -0.3,0.7 0,1.2 0.7,1.2 0.4,0 0.6,-0.1 0.8,-0.6 l 1.7,-4.4 c 0.5,-0.6 0.9,-1.1 1.4,-1.6 l 1.6,0 z m -9.6,-0.7 c 0.6,0 1.1,0.4 0.8,1.5 l -2.7,0.6 c 0.5,-1.2 1.3,-2.1 1.9,-2.1 m 1.5,4.3 -0.5,0 c -0.7,0.8 -1.4,1.4 -2.1,1.4 -0.7,0 -1.1,-0.4 -1.1,-1.4 0,-0.4 0,-0.8 0.1,-1.2 l 4.3,-1.4 c 0.8,-2 -0.2,-2.9 -1.4,-2.9 -2,0 -4.4,3.4 -4.4,6.4 0,1.3 0.6,2.1 1.6,2.1 1.3,0 2.5,-1.1 3.5,-3 m -10.6,1.8 c -0.4,0 -1,-0.4 -1,-0.7 0,-0.1 0.2,-0.6 0.4,-1.2 l 0.7,-1.9 c 0.7,-0.9 1.9,-1.8 2.5,-1.8 0.4,0 0.7,0.2 0.7,0.8 0.1,1.7 -1.5,4.8 -3.3,4.8 m 5,-5.5 c 0,-1.3 -0.5,-1.7 -1.3,-1.7 -1.1,0 -2.1,1.2 -3.1,2.6 l 2.6,-6.8 -0.1,-0.2 -2.7,0.3 0,0.3 0.5,0.4 c 0.5,0.4 0.3,0.8 -0.1,1.9 l -2.8,7.2 c -0.2,0.5 -0.5,1.2 -0.5,1.3 0,0.7 1,1.4 1.9,1.4 2,0 5.6,-3.8 5.6,-6.7 M 44,142.2 c 0.2,-0.6 -0.2,-0.9 -0.5,-0.9 -1.2,0 -2.7,1.1 -3.3,2.7 l 0.4,0 c 0.4,-0.6 1.1,-1.2 1.7,-1.3 l -2.4,6.2 c -0.2,0.6 0.2,0.9 0.5,0.9 1.2,0 2.6,-1.1 3.2,-2.7 l -0.4,0 c -0.4,0.6 -1.1,1.2 -1.7,1.3 l 2.5,-6.2 z m 0.4,-3.1 c 0.6,0 1,-0.5 1,-1 0,-0.6 -0.5,-1 -1,-1 -0.6,0 -1,0.5 -1,1 0,0.6 0.4,1 1,1 m -6.3,-1 -5.7,0 -0.2,0.5 c 1.7,0.3 1.8,0.5 1,2.6 l -1.8,5.1 c -0.8,2.1 -1.1,2.3 -3,2.6 l -0.1,0.5 8.7,0 1.9,-3.3 -0.7,0 c -1.1,1.2 -2.3,2.6 -4.2,2.6 -1.4,0 -1.6,-0.2 -0.8,-2.4 l 1.8,-5.1 c 0.8,-2.1 1.1,-2.3 3,-2.6 l 0.1,-0.5 z"
       inkscape:connector-curvature="0" /><path
       id="Texte"
       d="m 28.4,91.5 0,-20.6 6.8,0 c 2.3,0 4,0.6 5.4,1.7 1.3,1.1 2,2.6 2,4.5 0,1.9 -0.7,3.4 -2,4.5 -1.3,1.1 -3.1,1.7 -5.4,1.7 l -2.6,0 0,8.3 -4.2,0 z m 6.9,-17.1 -2.8,0 0,5.2 2.8,0 c 0.9,0 1.6,-0.2 2.1,-0.7 0.5,-0.5 0.8,-1.1 0.8,-1.9 0,-0.8 -0.3,-1.4 -0.8,-1.9 -0.5,-0.4 -1.2,-0.7 -2.1,-0.7 z m 10.6,17.1 0,-20.6 6.3,0 c 2.3,0 4.1,0.6 5.4,1.7 1.3,1.1 2,2.6 2,4.5 0,1.2 -0.3,2.3 -0.9,3.2 -0.6,0.9 -1.4,1.6 -2.4,2.1 l 6.5,9.1 -5,0 -5.5,-8.3 -2.2,0 0,8.3 -4.2,0 z m 6.6,-17.1 -2.4,0 0,5.2 2.4,0 c 0.9,0 1.6,-0.2 2.1,-0.7 0.5,-0.5 0.7,-1.1 0.7,-1.9 0,-0.8 -0.2,-1.4 -0.7,-1.9 -0.5,-0.4 -1.2,-0.7 -2.1,-0.7 z m 12.9,17.1 0,-20.6 12,0 0,3.6 -7.8,0 0,4.8 6.7,0 0,3.6 -6.7,0 0,5.2 7.8,0 0,3.6 -12,0 z m 16.9,0 0,-20.6 5.3,0 5,8.5 5,-8.5 5.3,0 0,20.7 -4.2,0 0,-14.8 -4.7,7.6 -3,0 -4.6,-7.6 0,14.7 -4.1,0 z m 26.3,0 0,-20.6 4.2,0 0,20.7 -4.2,0 z m 9.9,0 0,-20.6 12,0 0,3.6 -7.8,0 0,4.8 6.7,0 0,3.6 -6.7,0 0,5.2 7.8,0 0,3.6 -12,0 z m 16.9,0 0,-20.6 6.3,0 c 2.3,0 4.1,0.6 5.4,1.7 1.3,1.1 2,2.6 2,4.5 0,1.2 -0.3,2.3 -0.9,3.2 -0.6,0.9 -1.4,1.6 -2.4,2.1 l 6.5,9.1 -5,0 -5.5,-8.3 -2.2,0 0,8.3 -4.2,0 z m 6.6,-17.1 -2.4,0 0,5.2 2.4,0 c 0.9,0 1.6,-0.2 2.1,-0.7 0.5,-0.5 0.7,-1.1 0.7,-1.9 0,-0.8 -0.2,-1.4 -0.7,-1.9 -0.5,-0.4 -1.2,-0.7 -2.1,-0.7 z m -113.6,48.3 0,-20.7 5.3,0 5,8.5 5,-8.5 5.3,0 0,20.7 -4.2,0 0,-14.7 -4.6,7.6 -2.9,0 -4.6,-7.6 0,14.7 -4.3,0 z m 26.2,0 0,-20.7 4.2,0 0,20.7 -4.2,0 z m 10,0 0,-20.7 5.4,0 9.2,14.8 0,-14.8 4.2,0 0,20.7 -5.4,0 -9.2,-14.8 0,14.8 -4.2,0 z m 24.6,0 0,-20.7 4.2,0 0,20.7 -4.2,0 z m 8.1,-2.8 3,-2.8 c 0.6,0.8 1.3,1.4 2.1,1.9 0.8,0.5 1.6,0.7 2.5,0.7 0.8,0 1.5,-0.2 1.9,-0.6 0.5,-0.4 0.7,-1 0.7,-1.8 0,-0.9 -0.5,-1.6 -1.5,-2.1 -1,-0.5 -2.1,-1 -3.2,-1.6 -1.2,-0.6 -2.3,-1.3 -3.2,-2.2 -0.9,-0.9 -1.5,-2.2 -1.5,-3.9 0,-0.8 0.2,-1.6 0.5,-2.3 0.3,-0.7 0.8,-1.4 1.4,-1.9 0.6,-0.5 1.3,-1 2.1,-1.3 0.8,-0.3 1.7,-0.5 2.7,-0.5 1.5,0 2.9,0.3 4.1,1 1.2,0.6 2.2,1.5 3.1,2.5 l -3.1,2.7 c -0.6,-0.8 -1.3,-1.4 -1.9,-1.9 -0.7,-0.5 -1.4,-0.7 -2.2,-0.7 -0.7,0 -1.3,0.2 -1.7,0.6 -0.4,0.4 -0.6,0.9 -0.6,1.5 0,0.9 0.5,1.6 1.5,2.1 1,0.5 2.1,1 3.2,1.6 1.2,0.6 2.3,1.3 3.2,2.2 1,0.9 1.5,2.2 1.5,4 0,1 -0.2,1.8 -0.6,2.6 -0.4,0.8 -0.9,1.4 -1.5,1.9 -0.6,0.5 -1.3,0.9 -2.2,1.2 -0.8,0.3 -1.7,0.4 -2.7,0.4 -1.7,0 -3.2,-0.3 -4.5,-0.9 -1.1,-0.5 -2.2,-1.4 -3.1,-2.4 z m 16.6,-14 0,-3.8 16.9,0 0,3.8 -6.4,0 0,16.8 -4.2,0 0,-16.8 -6.3,0 z m 20.7,16.8 0,-20.7 6.3,0 c 2.3,0 4.1,0.6 5.4,1.7 1.3,1.1 2,2.6 2,4.5 0,1.2 -0.3,2.3 -0.9,3.2 -0.6,0.9 -1.4,1.6 -2.4,2.1 l 6.5,9.1 -5,0 -5.5,-8.3 -2.2,0 0,8.3 -4.2,0 z m 6.5,-17.1 -2.4,0 0,5.2 2.4,0 c 0.9,0 1.6,-0.2 2.1,-0.7 0.5,-0.5 0.7,-1.1 0.7,-1.9 0,-0.8 -0.2,-1.4 -0.7,-1.9 -0.5,-0.4 -1.2,-0.7 -2.1,-0.7 z m 12.9,17.1 0,-20.7 12,0 0,3.6 -7.8,0 0,4.8 6.7,0 0,3.6 -6.7,0 0,5.2 7.8,0 0,3.6 -12,0 z"
       inkscape:connector-curvature="0" /><g
       id="Marianne"><path
         id="Fond_2_"
         class="st0"
         d="m 60.6,53.3 c 0.3,-0.3 0.6,-0.6 0.9,-1 l 0,0 c 0.6,-0.6 1.1,-1.3 1.8,-1.8 0.2,-0.2 0.4,-0.3 0.6,-0.5 0.1,-0.1 0.1,-0.2 0.1,-0.2 -0.3,0.1 -0.4,0.3 -0.7,0.4 -0.1,0 -0.1,-0.1 -0.1,-0.1 0.2,-0.1 0.4,-0.3 0.6,-0.4 0,0 0,0 0,0 -0.1,0 -0.1,-0.1 -0.1,-0.1 -0.7,0 -1.2,0.4 -1.7,0.9 -0.1,0.1 -0.2,-0.1 -0.3,-0.1 -0.8,0.3 -1.4,1 -2.2,1.3 l 0,-0.1 c -0.3,0.1 -0.6,0.3 -1,0.4 -0.5,0.1 -0.9,0.1 -1.3,0.1 -0.6,0.1 -1.3,0.2 -1.9,0.3 0,0 0,0 -0.1,0 -0.3,0.1 -0.7,0.2 -1,0.4 0,0 0,0 0,0 0,0 -0.1,0.1 -0.1,0.1 -0.1,0.1 -0.2,0.2 -0.4,0.3 -0.3,0.2 -0.6,0.5 -0.9,0.7 0,0 -0.1,0 -0.1,0 -0.3,0.3 -0.6,0.6 -0.9,0.8 0,0 -0.1,0 -0.2,0 0,0 0,0 0,0 0,0 0,0 0,-0.1 0,-0.1 0.1,-0.2 0.1,-0.2 0.1,-0.1 0.1,-0.2 0.2,-0.2 0.1,-0.1 0.1,-0.2 0.2,-0.3 0,0 0,-0.1 0,-0.1 0,0 0,0 -0.1,0 0.3,-0.3 0.6,-0.5 0.9,-0.7 l 0,0 c 0,0 -0.1,0 -0.1,-0.1 0,0 0.1,-0.1 0.1,-0.1 0,0 0,0 0,0 0,0 0,0 0,0 0.1,0 0,0.1 0,0.1 -0.1,0.1 -0.2,0.4 -0.4,0.3 0,0 -0.1,0 -0.1,0 0,0 0,0 -0.1,0 0,0 0,0 0,0 0,0 0,0 0,0 0,0 0,0 0,0 0,0 0,0 0,0 0,0 0,0 0,0 0,0 0,0 0,0 0,0 0,0 0,-0.1 0,0 0,0 0,0 0,0 0,-0.1 0.1,-0.1 0,0 0,0 0,-0.1 0,0 0,-0.1 0.1,-0.1 0,0 0,-0.1 0,-0.1 0.1,-0.1 0.2,-0.2 0.4,-0.3 l 0,0 c 0.2,-0.1 0.4,-0.2 0.6,-0.3 0,0 0.1,-0.1 0.1,-0.1 -0.3,0.1 -0.6,0.2 -0.9,0.4 0,0 -0.1,0 -0.1,0 0,0 -0.1,0 -0.1,0 0,0 0,0 0,0 0.1,-0.1 0.2,-0.2 0.3,-0.3 0.1,0 0.1,0 0.1,0.1 1.7,-1.3 4.1,-1 6.1,-1.7 0.2,-0.1 0.3,-0.2 0.5,-0.3 0.3,-0.1 0.5,-0.4 0.8,-0.5 0.4,-0.3 0.7,-0.7 0.9,-1.2 0,-0.1 -0.1,-0.1 -0.1,-0.1 -0.7,0.8 -1.5,1.3 -2.4,1.8 -1.1,0.6 -2.4,0.5 -3.5,0.6 0.1,-0.1 0.2,-0.1 0.3,-0.1 0,-0.2 0.1,-0.2 0.2,-0.3 l 0.2,0 c 0.1,0 0.1,-0.1 0.1,-0.1 0.1,0 0.3,-0.1 0.2,-0.1 -0.2,-0.2 -0.5,0.2 -0.8,0 0.1,-0.1 0.1,-0.3 0.2,-0.3 l 0.2,0 c 0,-0.1 0.1,-0.2 0.1,-0.2 0.8,-0.5 1.6,-0.9 2.3,-1.3 -0.2,0 -0.3,0.2 -0.4,0.1 0.1,0 0,-0.2 0.1,-0.2 0.6,-0.2 1.1,-0.5 1.7,-0.7 -0.2,0 -0.4,0.2 -0.6,0 0.1,-0.1 0.2,-0.2 0.3,-0.2 l 0,-0.2 c 0,-0.1 0.1,-0.1 0.1,-0.1 -0.1,0 -0.1,-0.1 -0.1,-0.1 0.1,-0.1 0.2,-0.1 0.3,-0.2 -0.1,0 -0.2,0 -0.2,-0.1 0.2,-0.2 0.4,-0.3 0.7,-0.3 -0.1,-0.1 -0.2,0 -0.2,-0.1 0,-0.1 0.1,-0.1 0.1,-0.1 l 0,0 c -0.1,-0.1 -0.1,-0.2 -0.1,-0.2 0.3,-0.4 0.3,-0.9 0.5,-1.3 -0.1,0 -0.1,0 -0.1,-0.1 -0.5,0.6 -1.4,0.8 -2.2,1 l -0.3,0 C 57.5,45.8 57.2,45.8 56.9,45.6 56.7,45.5 56.6,45.3 56.4,45.2 56,44.9 55.5,44.7 55.1,44.6 53.8,44.2 52.4,44 51,44 c 0.6,-0.3 1.2,-0.3 1.9,-0.5 0.9,-0.3 1.8,-0.6 2.7,-0.5 -0.2,-0.1 -0.4,0 -0.5,0 -0.8,-0.1 -1.5,0.2 -2.3,0.3 -0.5,0.1 -1,0.3 -1.6,0.4 -0.3,0.1 -0.5,0.4 -0.9,0.4 l 0,-0.2 c 0.5,-0.6 1.2,-1.3 2,-1.3 1,-0.2 1.9,0 2.8,0.1 0.7,0.1 1.3,0.2 2,0.4 0.3,0 0.3,0.4 0.5,0.5 0.3,0.1 0.6,0 1,0.2 0,-0.1 -0.1,-0.2 0,-0.3 0.2,-0.2 0.5,0.1 0.7,-0.1 0.4,-0.3 -0.4,-0.7 -0.6,-1.1 0,-0.1 0.1,-0.1 0.1,-0.1 0.4,0.4 0.7,0.8 1.3,1.1 0.3,0.1 0.9,0.3 0.8,-0.1 -0.3,-0.6 -0.8,-1.1 -1.2,-1.6 l 0,-0.2 c -0.1,0 -0.1,-0.1 -0.2,-0.1 l 0,-0.3 C 59.3,40.9 59.3,40.7 59.2,40.5 59,40.2 59.1,39.9 59,39.5 59,39.3 59,39 58.9,38.7 58.7,37.8 58.5,37 58.4,36.1 c -0.1,-1 0.6,-1.8 1.1,-2.7 0.4,-0.6 0.8,-1.3 1.5,-1.7 0.2,-0.6 0.6,-1.2 1,-1.7 0.4,-0.5 1.1,-0.8 1.7,-1.1 0.7,-0.3 1.4,-0.5 1.4,-0.5 l 10.7,0 c 0,0 0.1,0 0.3,0.1 0.2,0.1 0.6,0.3 0.8,0.4 0.4,0.2 0.8,0.5 1,0.9 0.1,0.2 0.3,0.5 0.2,0.7 -0.1,0.3 -0.2,0.7 -0.4,0.8 -0.3,0.2 -0.7,0.2 -1.1,0.1 -0.2,0 -0.4,-0.1 -0.6,-0.1 0.8,0.3 1.6,0.7 2.1,1.4 0.1,0.1 0.3,0.2 0.5,0.2 0.1,0 0.1,0.1 0.1,0.2 -0.1,0.1 -0.2,0.2 -0.2,0.3 l 0.2,0 c 0.3,-0.1 0.2,-0.6 0.6,-0.5 0.3,0.2 0.4,0.5 0.2,0.8 -0.2,0.2 -0.4,0.4 -0.6,0.5 -0.1,0.1 -0.1,0.3 0,0.4 0.2,0.2 0.2,0.4 0.3,0.6 0.2,0.4 0.2,0.8 0.4,1.2 0.2,0.8 0.4,1.6 0.4,2.4 0,0.4 -0.2,0.8 -0.1,1.2 0.1,0.4 0.4,0.8 0.6,1.1 0.2,0.3 0.4,0.5 0.6,0.9 0.3,0.5 0.9,1.1 0.6,1.7 -0.2,0.4 -0.8,0.3 -1.1,0.5 -0.3,0.3 -0.1,0.7 0.1,1 0.3,0.5 -0.3,0.8 -0.7,1 0.1,0.2 0.3,0.1 0.4,0.2 0.1,0.3 0.3,0.4 0.2,0.7 -0.2,0.3 -0.9,0.5 -0.5,1 0.2,0.4 0.1,0.8 -0.1,1.2 -0.2,0.5 -0.6,0.7 -1,0.8 -0.3,0.1 -0.7,0.1 -1,0.1 C 77.6,50 77.5,50 77.4,50 c -0.9,-0.1 -1.8,-0.4 -2.7,-0.4 -0.3,0.1 -0.5,0.1 -0.7,0.2 -0.2,0.2 -0.5,0.4 -0.6,0.6 0,0 0,0 0,0 0,0 -0.1,0.1 -0.1,0.1 0,0 0,0.1 -0.1,0.1 0,0 0,0 0,0.1 -0.2,0.2 -0.3,0.4 -0.4,0.6 0,0 0,0 0,0 0,0 0,0.1 0,0.1 -0.2,0.3 -0.3,0.7 -0.4,1 -0.4,1.2 -0.2,2.3 0.1,2.5 0.1,0.1 1.8,0.6 2.9,1.1 0.6,0.2 0.9,0.4 1.3,0.6 l -22,0 c 1,-0.7 2,-1.1 3.5,-1.8 0.3,-0.2 1.9,-0.9 2.4,-1.5 m -8.3,-3.8 c -0.1,0 -0.3,0.1 -0.3,-0.1 0.1,-0.3 0.4,-0.3 0.6,-0.4 0.1,-0.1 0.3,-0.2 0.4,-0.1 0.1,0.2 0.3,0.1 0.4,0.2 -0.3,0.4 -0.7,0.3 -1.1,0.4 m -8.2,-1.2 c 0,0 -0.1,-0.1 -0.1,-0.1 0.7,-0.9 1.2,-1.8 1.7,-2.7 0.7,-0.4 1.3,-0.9 1.8,-1.5 0.9,-1 1.9,-1.8 3,-2.4 0.4,-0.2 1,-0.1 1.4,0.1 -0.2,0.2 -0.4,0.2 -0.6,0.3 -0.1,0 -0.1,0 -0.2,-0.1 0.1,-0.1 0.1,-0.1 0.1,-0.2 -0.5,0.6 -1.3,0.9 -1.7,1.6 -0.3,0.5 -0.5,1.2 -1.2,1.4 -0.2,0.1 0.1,-0.2 -0.1,-0.1 -1.6,1.1 -2.8,2.3 -4.1,3.7 m 4.5,-3.5 c -0.1,0.1 -0.1,0.1 -0.2,0.2 -0.1,0.1 -0.1,0.2 -0.2,0.2 -0.1,0 -0.1,0 -0.1,-0.1 0.1,-0.2 0.2,-0.4 0.4,-0.5 0.1,0.1 0.1,0.1 0.1,0.2 m 2.5,8 c 0,0.1 -0.1,0.1 -0.1,0.2 0.1,0 0.1,0 0.1,0.1 -0.1,0.1 -0.2,0.2 -0.4,0.3 0,0 0,0 -0.1,0 -0.1,0.1 -0.1,0.1 -0.2,0.2 -0.1,0.1 -0.4,0 -0.3,-0.1 0.1,-0.1 0.3,-0.3 0.4,-0.4 0.1,-0.1 0.2,-0.1 0.2,-0.2 0,0 0.1,-0.1 0.1,-0.1 0,-0.1 0.3,-0.1 0.3,0 m -1,-0.4 c 0,0 0,0 0,0 -0.2,0.2 -0.4,0.3 -0.6,0.4 -0.2,0.1 -0.5,0.2 -0.7,0.3 0,0 0,0 0,0 0,0 -0.1,0 -0.1,0 -0.2,0.1 -0.4,0.3 -0.5,0.4 0,0 0,0 -0.1,0.1 0,0 0,0 0,0 0,0 0,0 0,0 0,0 -0.1,0.1 -0.1,0.1 0,0 0,0 0,0 0,0 0,0 0,0 0,0 -0.1,0.1 -0.1,0.1 0,0 0,0.1 -0.1,0.1 0,0 -0.1,0 -0.1,0 0,0 0,0 0,0 0,0 -0.1,0 -0.1,0 0,0 -0.1,0 -0.1,0 0,0 0,0 0,0 0,0 0,0 0,0 -0.1,0.1 -0.1,0.1 -0.2,0.2 -0.1,0.1 -0.2,0.2 -0.3,0.3 0,0 0,0 0,0 0,0 0,0 0,0 0,0 0,0 0,0 0,0 0,0 0,0 0,0 0,0 0,0 0,0 0,0 0,0.1 l 0,0 c 0,0 0,0 0,0 0,0 0,0 0,0 0,0 0,0 0,0 0,0 0,-0.1 0,-0.1 l 0,0 c 0,0 0,0 0,0 0.1,-0.1 0.1,-0.1 0.2,-0.2 0,0 0,0 0,0 0,0 0,0 0.1,-0.1 0,0 0.1,-0.1 0.1,-0.1 0,0 0,0 0,0 0.1,-0.1 0.1,-0.2 0.2,-0.2 0,0 0,0 0,0 0,0 0,0 0,0 0,0 0.1,-0.1 0.1,-0.1 0,0 0,-0.1 0.1,-0.1 0,0 0,0 0,0 0,0 0,0 0,0 0,0 0,0 0,0 0,0 0,-0.1 0.1,-0.1 0,0 0,0 0,0 0,0 0,0 0,0 0,0 0,0 0,-0.1 0,0 0,0 0,0 0,0 0,-0.1 0,-0.1 0,0 0,0 0,0 0.1,-0.1 0.1,-0.2 0.2,-0.3 0,0 0,0 0,0 -0.1,0 -0.1,0.1 -0.2,0.2 -0.1,0 -0.2,0 -0.1,-0.1 0,0 0.1,-0.1 0.1,-0.1 0,0 0,0 0,0 0.1,-0.1 0.2,-0.2 0.3,-0.3 0.1,0 0.1,-0.1 0.2,-0.1 0,0 0,0 0,0 0,0 0.1,-0.1 0.1,-0.1 0,0 0,0 0,0 0.5,-0.5 1.4,-0.5 2.1,-0.8 0.3,-0.1 0.6,0.1 0.9,0 0.2,0 0.3,0 0.5,0.1 -1,0 -1.4,0.3 -1.9,0.6 m 1.1,-3.7 c -0.1,-0.1 0.2,0 0.2,-0.1 l -0.4,0 c -0.1,0 -0.1,-0.1 -0.1,-0.1 -0.3,0.1 -0.6,0.2 -0.9,0.2 -0.4,0.1 -0.7,0.4 -1.1,0.5 -0.6,0.2 -1.1,0.7 -1.7,0.9 -0.1,0 -0.1,-0.1 -0.1,-0.1 0.1,-0.2 0.3,-0.2 0.4,-0.4 0,-0.1 0,-0.1 -0.1,-0.1 0.4,-0.6 1,-0.9 1.6,-1.4 l 0,-0.2 c 0.2,-0.2 0.4,-0.3 0.5,-0.6 0.1,-0.2 0.3,-0.4 0.5,-0.5 -0.1,-0.1 -0.2,-0.1 -0.2,-0.2 -0.2,0 -0.4,0.1 -0.6,-0.1 0.1,-0.1 0.2,-0.2 0.3,-0.2 0,0 -0.1,0 -0.1,-0.1 -0.1,-0.1 0.1,-0.2 0.3,-0.3 0.2,-0.1 0.5,-0.1 0.6,-0.2 -0.4,-0.1 -0.8,0.1 -1.2,-0.1 0.3,-0.7 0.7,-1.3 1.3,-1.6 0.1,0 0.2,0 0.2,0.1 0,0.3 -0.2,0.5 -0.4,0.5 0.4,0.1 0.9,0.1 1.3,0.3 -0.1,0.1 -0.2,0.1 -0.2,0.1 0.3,0.2 0.6,0.1 0.9,0.3 -0.2,0.2 -0.3,0 -0.5,0 1.7,0.5 3.4,0.9 4.8,1.9 -1.2,0.6 -2.4,0.9 -3.7,1.1 -0.2,0 -0.3,0 -0.4,-0.1 0,0.1 0,0.2 -0.1,0.2 -0.2,0 -0.4,0 -0.5,0.1 -0.1,0.3 -0.4,0.3 -0.6,0.2"
         inkscape:connector-curvature="0"
         style="fill:#ffffff" /><path
         id="Rouge_1_"
         class="st1"
         d="m 60.6,53.3 c 0.3,-0.3 0.6,-0.6 0.9,-1 l 0,0 c 0.6,-0.6 1.1,-1.3 1.8,-1.8 0.2,-0.2 0.4,-0.3 0.6,-0.5 0.1,-0.1 0.1,-0.2 0.1,-0.2 -0.3,0.1 -0.4,0.3 -0.7,0.4 -0.1,0 -0.1,-0.1 -0.1,-0.1 0.2,-0.1 0.4,-0.3 0.6,-0.4 0,0 0,0 0,0 -0.1,0 -0.1,-0.1 -0.1,-0.1 -0.7,0 -1.2,0.4 -1.7,0.9 -0.1,0.1 -0.2,-0.1 -0.3,-0.1 -0.8,0.3 -1.4,1 -2.2,1.3 l 0,-0.1 c -0.3,0.1 -0.6,0.3 -1,0.4 -0.5,0.1 -0.9,0.1 -1.3,0.1 -0.6,0.1 -1.3,0.2 -1.9,0.3 0,0 0,0 -0.1,0 -0.3,0.1 -0.7,0.2 -1,0.4 0,0 0,0 0,0 0,0 -0.1,0.1 -0.1,0.1 -0.1,0.1 -0.2,0.2 -0.4,0.3 -0.3,0.2 -0.6,0.5 -0.9,0.7 0,0 -0.1,0 -0.1,0 -0.3,0.3 -0.6,0.6 -0.9,0.8 0,0 -0.1,0 -0.2,0 0,0 0,0 0,0 0,0 0,0 0,-0.1 0,-0.1 0.1,-0.2 0.1,-0.2 0.1,-0.1 0.1,-0.2 0.2,-0.2 0.1,-0.1 0.1,-0.2 0.2,-0.3 0,0 0,-0.1 0,-0.1 0,0 0,0 -0.1,0 0.3,-0.3 0.6,-0.5 0.9,-0.7 l 0,0 c 0,0 -0.1,0 -0.1,-0.1 0,0 0.1,-0.1 0.1,-0.1 0,0 0,0 0,0 0,0 0,0 0,0 0.1,0 0,0.1 0,0.1 -0.1,0.1 -0.2,0.4 -0.4,0.3 0,0 -0.1,0 -0.1,0 0,0 0,0 -0.1,0 0,0 0,0 0,0 0,0 0,0 0,0 0,0 0,0 0,0 0,0 0,0 0,0 0,0 0,0 0,0 0,0 0,0 0,0 0,0 0,0 0,-0.1 0,0 0,0 0,0 0,0 0,-0.1 0.1,-0.1 0,0 0,0 0,-0.1 0,0 0,-0.1 0.1,-0.1 0,0 0,-0.1 0,-0.1 0.1,-0.1 0.2,-0.2 0.4,-0.3 l 0,0 c 0.2,-0.1 0.4,-0.2 0.6,-0.3 0,0 0.1,-0.1 0.1,-0.1 -0.3,0.1 -0.6,0.2 -0.9,0.4 0,0 -0.1,0 -0.1,0 0,0 -0.1,0 -0.1,0 0,0 0,0 0,0 0.1,-0.1 0.2,-0.2 0.3,-0.3 0.1,0 0.1,0 0.1,0.1 1.7,-1.3 4.1,-1 6.1,-1.7 0.2,-0.1 0.3,-0.2 0.5,-0.3 0.3,-0.1 0.5,-0.4 0.8,-0.5 0.4,-0.3 0.7,-0.7 0.9,-1.2 0,-0.1 -0.1,-0.1 -0.1,-0.1 -0.7,0.8 -1.5,1.3 -2.4,1.8 -1.1,0.6 -2.4,0.5 -3.5,0.6 0.1,-0.1 0.2,-0.1 0.3,-0.1 0,-0.2 0.1,-0.2 0.2,-0.3 l 0.2,0 c 0.1,0 0.1,-0.1 0.1,-0.1 0.1,0 0.3,-0.1 0.2,-0.1 -0.2,-0.2 -0.5,0.2 -0.8,0 0.1,-0.1 0.1,-0.3 0.2,-0.3 l 0.2,0 c 0,-0.1 0.1,-0.2 0.1,-0.2 0.8,-0.5 1.6,-0.9 2.3,-1.3 -0.2,0 -0.3,0.2 -0.4,0.1 0.1,0 0,-0.2 0.1,-0.2 0.6,-0.2 1.1,-0.5 1.7,-0.7 -0.2,0 -0.4,0.2 -0.6,0 0.1,-0.1 0.2,-0.2 0.3,-0.2 l 0,-0.2 c 0,-0.1 0.1,-0.1 0.1,-0.1 -0.1,0 -0.1,-0.1 -0.1,-0.1 0.1,-0.1 0.2,-0.1 0.3,-0.2 -0.1,0 -0.2,0 -0.2,-0.1 0.2,-0.2 0.4,-0.3 0.7,-0.3 -0.1,-0.1 -0.2,0 -0.2,-0.1 0,-0.1 0.1,-0.1 0.1,-0.1 l 0,0 c -0.1,-0.1 -0.1,-0.2 -0.1,-0.2 0.3,-0.4 0.3,-0.9 0.5,-1.3 -0.1,0 -0.1,0 -0.1,-0.1 -0.5,0.6 -1.4,0.8 -2.2,1 l -0.3,0 C 57.5,45.8 57.2,45.8 56.9,45.6 56.7,45.5 56.6,45.3 56.4,45.2 56,44.9 55.5,44.7 55.1,44.6 53.7,44.2 52.3,44 51,44 c 0.6,-0.3 1.2,-0.3 1.9,-0.5 0.9,-0.3 1.8,-0.6 2.7,-0.5 -0.2,-0.1 -0.4,0 -0.5,0 -0.8,-0.1 -1.5,0.2 -2.3,0.3 -0.5,0.1 -1,0.3 -1.6,0.4 -0.3,0.1 -0.5,0.4 -0.9,0.4 l 0,-0.2 c 0.5,-0.6 1.2,-1.3 2,-1.3 1,-0.2 1.9,0 2.8,0.1 0.7,0.1 1.3,0.2 2,0.4 0.3,0 0.3,0.4 0.5,0.5 0.3,0.1 0.6,0 1,0.2 0,-0.1 -0.1,-0.2 0,-0.3 0.2,-0.2 0.5,0.1 0.7,-0.1 0.4,-0.3 -0.4,-0.7 -0.6,-1.1 0,-0.1 0.1,-0.1 0.1,-0.1 0.4,0.4 0.7,0.8 1.3,1.1 0.3,0.1 0.9,0.3 0.8,-0.1 -0.3,-0.6 -0.8,-1.1 -1.2,-1.6 l 0,-0.2 c -0.1,0 -0.1,-0.1 -0.2,-0.1 l 0,-0.3 C 59.3,40.9 59.3,40.7 59.2,40.5 59,40.2 59.1,39.9 59,39.5 59,39.3 59,39 58.9,38.7 58.7,37.8 58.5,37 58.4,36.1 c -0.1,-1 0.6,-1.8 1.1,-2.7 0.4,-0.6 0.8,-1.3 1.5,-1.7 0.2,-0.6 0.6,-1.2 1,-1.7 0.4,-0.5 1.1,-0.8 1.7,-1.1 0.7,-0.3 1.4,-0.5 1.4,-0.5 l -36.7,0 0,28.3 26,0 c 1,-0.7 2,-1.1 3.5,-1.8 0.6,-0.3 2.2,-1 2.7,-1.6 m -8.3,-3.8 c -0.1,0 -0.3,0.1 -0.3,-0.1 0.1,-0.3 0.4,-0.3 0.6,-0.4 0.1,-0.1 0.3,-0.2 0.4,-0.1 0.1,0.2 0.3,0.1 0.4,0.2 -0.3,0.4 -0.7,0.3 -1.1,0.4 m -8.2,-1.2 c 0,0 -0.1,-0.1 -0.1,-0.1 0.7,-0.9 1.2,-1.8 1.7,-2.7 0.7,-0.4 1.3,-0.9 1.8,-1.5 0.9,-1 1.9,-1.8 3,-2.4 0.4,-0.2 1,-0.1 1.4,0.1 -0.2,0.2 -0.4,0.2 -0.6,0.3 -0.1,0 -0.1,0 -0.2,-0.1 0.1,-0.1 0.1,-0.1 0.1,-0.2 -0.5,0.6 -1.3,0.9 -1.7,1.6 -0.3,0.5 -0.5,1.2 -1.2,1.4 -0.2,0.1 0.1,-0.2 -0.1,-0.1 -1.6,1.1 -2.8,2.3 -4.1,3.7 m 4.5,-3.5 c -0.1,0.1 -0.1,0.1 -0.2,0.2 -0.1,0.1 -0.1,0.2 -0.2,0.2 -0.1,0 -0.1,0 -0.1,-0.1 0.1,-0.2 0.2,-0.4 0.4,-0.5 0.1,0.1 0.1,0.1 0.1,0.2 m 2.5,8 c 0,0.1 -0.1,0.1 -0.1,0.2 0.1,0 0.1,0 0.1,0.1 -0.1,0.1 -0.2,0.2 -0.4,0.3 0,0 0,0 -0.1,0 -0.1,0.1 -0.1,0.1 -0.2,0.2 -0.1,0.1 -0.4,0 -0.3,-0.1 0.1,-0.1 0.3,-0.3 0.4,-0.4 0.1,-0.1 0.2,-0.1 0.2,-0.2 0,0 0.1,-0.1 0.1,-0.1 0,-0.1 0.3,-0.1 0.3,0 m -1,-0.4 c 0,0 0,0 0,0 -0.2,0.2 -0.4,0.3 -0.6,0.4 -0.2,0.1 -0.5,0.2 -0.7,0.3 0,0 0,0 0,0 0,0 -0.1,0 -0.1,0 -0.2,0.1 -0.4,0.3 -0.5,0.4 0,0 0,0 -0.1,0.1 0,0 0,0 0,0 0,0 0,0 0,0 0,0 -0.1,0.1 -0.1,0.1 0,0 0,0 0,0 0,0 0,0 0,0 0,0 -0.1,0.1 -0.1,0.1 0,0 0,0.1 -0.1,0.1 0,0 -0.1,0 -0.1,0 0,0 0,0 0,0 0,0 -0.1,0 -0.1,0 0,0 -0.1,0 -0.1,0 0,0 0,0 0,0 0,0 0,0 0,0 -0.1,0.1 -0.1,0.1 -0.2,0.2 -0.1,0.1 -0.2,0.2 -0.3,0.3 0,0 0,0 0,0 0,0 0,0 0,0 0,0 0,0 0,0 0,0 0,0 0,0 0,0 0,0 0,0 0,0 0,0 0,0.1 l 0,0 c 0,0 0,0 0,0 0,0 0,0 0,0 0,0 0,0 0,0 0,0 0,-0.1 0,-0.1 l 0,0 c 0,0 0,0 0,0 0.1,-0.1 0.1,-0.1 0.2,-0.2 0,0 0,0 0,0 0,0 0,0 0.1,-0.1 0,0 0.1,-0.1 0.1,-0.1 0,0 0,0 0,0 0.1,-0.1 0.1,-0.2 0.2,-0.2 0,0 0,0 0,0 0,0 0,0 0,0 0,0 0.1,-0.1 0.1,-0.1 0,0 0,-0.1 0.1,-0.1 0,0 0,0 0,0 0,0 0,0 0,0 0,0 0,0 0,0 0,0 0,-0.1 0.1,-0.1 0,0 0,0 0,0 0,0 0,0 0,0 0,0 0,0 0,-0.1 0,0 0,0 0,0 0,0 0,-0.1 0,-0.1 0,0 0,0 0,0 0.1,-0.1 0.1,-0.2 0.2,-0.3 0,0 0,0 0,0 -0.1,0 -0.1,0.1 -0.2,0.2 -0.1,0 -0.2,0 -0.1,-0.1 0,0 0.1,-0.1 0.1,-0.1 0,0 0,0 0,0 0.1,-0.1 0.2,-0.2 0.3,-0.3 0.1,0 0.1,-0.1 0.2,-0.1 0,0 0,0 0,0 0,0 0.1,-0.1 0.1,-0.1 0,0 0,0 0,0 0.5,-0.5 1.4,-0.5 2.1,-0.8 0.3,-0.1 0.6,0.1 0.9,0 0.2,0 0.3,0 0.5,0.1 -1,0 -1.4,0.3 -1.9,0.6 m 1.1,-3.7 c -0.1,-0.1 0.2,0 0.2,-0.1 l -0.4,0 c -0.1,0 -0.1,-0.1 -0.1,-0.1 -0.3,0.1 -0.6,0.2 -0.9,0.2 -0.4,0.1 -0.7,0.4 -1.1,0.5 -0.6,0.2 -1.1,0.7 -1.7,0.9 -0.1,0 -0.1,-0.1 -0.1,-0.1 0.1,-0.2 0.3,-0.2 0.4,-0.4 0,-0.1 0,-0.1 -0.1,-0.1 0.4,-0.6 1,-0.9 1.6,-1.4 l 0,-0.2 c 0.2,-0.2 0.4,-0.3 0.5,-0.6 0.1,-0.2 0.3,-0.4 0.5,-0.5 -0.1,-0.1 -0.2,-0.1 -0.2,-0.2 -0.2,0 -0.4,0.1 -0.6,-0.1 0.1,-0.1 0.2,-0.2 0.3,-0.2 0,0 -0.1,0 -0.1,-0.1 -0.1,-0.1 0.1,-0.2 0.3,-0.3 0.2,-0.1 0.5,-0.1 0.6,-0.2 -0.4,-0.1 -0.8,0.1 -1.2,-0.1 0.3,-0.7 0.7,-1.3 1.3,-1.6 0.1,0 0.2,0 0.2,0.1 0,0.3 -0.2,0.5 -0.4,0.5 0.4,0.1 0.9,0.1 1.3,0.3 -0.1,0.1 -0.2,0.1 -0.2,0.1 0.3,0.2 0.6,0.1 0.9,0.3 -0.2,0.2 -0.3,0 -0.5,0 1.7,0.5 3.4,0.9 4.8,1.9 -1.2,0.6 -2.4,0.9 -3.7,1.1 -0.2,0 -0.3,0 -0.4,-0.1 0,0.1 0,0.2 -0.1,0.2 -0.2,0 -0.4,0 -0.5,0.1 -0.1,0.3 -0.4,0.3 -0.6,0.2"
         inkscape:connector-curvature="0"
         style="fill:#000091" /><path
         id="Bleu_1_"
         class="st2"
         d="m 106.3,28.3 -30.5,0 c 0,0 0.1,0 0.3,0.1 0.2,0.1 0.6,0.3 0.8,0.4 0.4,0.2 0.8,0.5 1,0.9 0.1,0.2 0.3,0.5 0.2,0.7 -0.1,0.3 -0.2,0.7 -0.4,0.8 -0.3,0.2 -0.7,0.2 -1.1,0.1 -0.2,0 -0.4,-0.1 -0.6,-0.1 0.8,0.3 1.6,0.7 2.1,1.4 0.1,0.1 0.3,0.2 0.5,0.2 0.1,0 0.1,0.1 0.1,0.2 -0.1,0.1 -0.2,0.2 -0.2,0.3 l 0.2,0 c 0.3,-0.1 0.2,-0.6 0.6,-0.5 0.3,0.2 0.4,0.5 0.2,0.8 -0.2,0.2 -0.4,0.4 -0.6,0.5 -0.1,0.1 -0.1,0.3 0,0.4 0.2,0.2 0.2,0.4 0.3,0.6 0.2,0.4 0.2,0.8 0.4,1.2 0.2,0.8 0.4,1.6 0.4,2.4 0,0.4 -0.2,0.8 -0.1,1.2 0.1,0.4 0.4,0.8 0.6,1.1 0.2,0.3 0.4,0.5 0.6,0.9 0.3,0.5 0.9,1.1 0.6,1.7 -0.2,0.4 -0.8,0.3 -1.1,0.5 -0.3,0.3 -0.1,0.7 0.1,1 0.3,0.5 -0.3,0.8 -0.7,1 0.1,0.2 0.3,0.1 0.4,0.2 0.1,0.3 0.3,0.4 0.2,0.7 -0.2,0.3 -0.9,0.5 -0.5,1 0.2,0.4 0.1,0.8 -0.1,1.2 -0.2,0.5 -0.6,0.7 -1,0.8 -0.3,0.1 -0.7,0.1 -1,0.1 C 77.6,50 77.5,50 77.4,50 c -0.9,-0.1 -1.8,-0.4 -2.7,-0.4 -0.3,0.1 -0.5,0.1 -0.7,0.2 -0.2,0.2 -0.5,0.4 -0.6,0.6 0,0 0,0 0,0 0,0 -0.1,0.1 -0.1,0.1 0,0 0,0.1 -0.1,0.1 0,0 0,0 0,0.1 -0.2,0.2 -0.3,0.4 -0.4,0.6 0,0 0,0 0,0 0,0 0,0.1 0,0.1 -0.2,0.3 -0.3,0.7 -0.4,1 -0.4,1.2 -0.2,2.3 0.1,2.5 0.1,0.1 1.8,0.6 2.9,1.1 0.6,0.2 0.9,0.4 1.3,0.6 l 29.9,0 0,-28.3 z"
         inkscape:connector-curvature="0"
         style="fill:#e1000f" /><path
         id="Yeux_1_"
         class="st3"
         d="m 77.6,38.7 c 0.2,0.1 0.5,0.1 0.5,0.2 -0.1,0.4 -0.7,0.5 -1.1,1 l -0.2,0 c -0.2,0.1 -0.1,0.4 -0.3,0.4 -0.2,-0.1 -0.3,0 -0.5,0.1 0.2,0.2 0.5,0.4 0.8,0.3 0.1,0 0.2,0.1 0.2,0.2 0,0 0.1,0 0.1,-0.1 0.1,0 0.1,0 0.1,0.1 l 0,0.1 c -0.2,0.2 -0.4,0.1 -0.6,0.2 0.4,0.1 0.9,0.1 1.2,0 0.3,-0.1 0,-0.6 0.2,-0.9 -0.1,0 0,-0.2 -0.1,-0.2 0.1,-0.1 0.2,-0.3 0.3,-0.3 0.1,0 0.3,-0.1 0.3,-0.2 0,-0.1 -0.2,-0.2 -0.2,-0.3 0.3,-0.2 0.6,-0.5 0.5,-0.9 -0.1,-0.2 -0.5,-0.2 -0.8,-0.3 -0.3,-0.1 -0.6,0 -0.9,0.1 -0.3,0 -0.5,0.2 -0.8,0.2 -0.4,0.1 -0.7,0.3 -1,0.5 0.4,-0.2 0.8,-0.2 1.2,-0.3 0.5,0.1 0.8,0 1.1,0.1"
         inkscape:connector-curvature="0"
         style="fill:#9c9b9b" /></g></g></svg>