<?xml version="1.0" encoding="utf-8"?>
<!-- Generator: Adobe Illustrator 16.0.0, SVG Export Plug-In . SVG Version: 6.00 Build 0)  -->
<!DOCTYPE svg PUBLIC "-//W3C//DTD SVG 1.1//EN" "http://www.w3.org/Graphics/SVG/1.1/DTD/svg11.dtd">
<svg version="1.1" id="Calque_6" xmlns="http://www.w3.org/2000/svg" xmlns:xlink="http://www.w3.org/1999/xlink" x="0px" y="0px"
	 width="1600px" height="1300px" viewBox="0 0 1600 1300" enable-background="new 0 0 1600 1300" xml:space="preserve">
<path fill="#F2C3B1" d="M799.277,122.203c-76.109,0-138.03,75.186-138.03,167.602c0,35.426,1.751,75.801,22.66,106.61
	c27.54,40.576,74.98,68.917,115.37,68.917c40.389,0,87.83-28.338,115.371-68.917c20.91-30.809,22.664-71.184,22.664-106.61
	C937.313,197.389,875.393,122.203,799.277,122.203z M839.116,383.45c-2.534,5.044-14.106,24.84-39.713,24.84
	c-25.488,0-36.298-20.206-38.525-25.062c-0.292-0.636-0.276-0.775-0.276-0.938c0-0.178,0.51-0.36,0.51-0.36l4.626-1.746
	c0,0,0.383-0.098,0.476-0.029c0.076,0.056,0.181,0.203,0.375,0.636c1.791,4.024,10.755,21.273,32.814,21.275
	c21.846,0,32.001-17.238,34.106-21.339c0.273-0.53,0.409-0.662,0.43-0.681c0.133-0.146,0.566,0.063,0.566,0.063l4.63,1.996
	c0,0,0.399,0.154,0.396,0.324C839.527,382.554,839.424,382.836,839.116,383.45z"/>
<g>
	<g>
		<path fill="#0F0689" d="M869.727,118.81c0,0-24.119-12.472-70.446-12.472s-70.187,12.442-70.187,12.442
			c-73.639,31.925-81.482,114.68-70.434,157.638c26.984,0,78.426-64.553,79.486-76.223c0,0,47.403,77.445,202.197,76.385
			c-0.028-0.17-0.061-0.34-0.092-0.509C951.161,233.084,942.917,150.644,869.727,118.81z"/>
	</g>
</g>
<g>
	<g>
		<path fill="#A0A0EF" d="M901.957,493.083l-16.564-17.685c-16.001,11.139-32.898,18.473-49.714,24.193
			c-10.586,3.601-21.142,5.987-31.453,6.955l27.978,56.624L901.957,493.083z"/>
		<path fill="#A0A0EF" d="M765.565,563.186l28.14-56.526c-10.66-0.896-21.594-3.339-32.558-7.068
			c-16.617-5.652-33.313-12.88-49.146-23.798l-16.31,17.298L765.565,563.186z"/>
		<path fill="#A0A0EF" d="M556,617.438V899h67V638.39c0-24.338-37.913-81.619-52.031-102.104
			C559.355,566.564,556.738,599.729,556,617.438z"/>
		<path fill="#A0A0EF" d="M684.549,493.245l20.129-21.348c-2.436-0.006-6.065-0.019-7.168-0.021
			c-1.156-0.003-2.302,0.018-3.439,0.053l-29.773,0.069c-0.043-0.033-0.088-0.065-0.134-0.098c-1.624,0-7.603-0.022-9.078-0.024
			c-22.878-0.056-42.237,7.301-57.703,22.594c-2.124,2.102-4.636,4.304-6.543,6.606c-6.569,7.922-11.885,16.944-16.208,26.445
			C585.773,543.362,631,609.444,631,638.39V899h164V522.01l-27.237,54.711L684.549,493.245z"/>
		<path fill="#A0A0EF" d="M1026.024,536.296C1011.902,556.79,974,614.063,974,638.39V899h68V617.438
			C1039.182,599.73,1037.123,566.571,1026.024,536.296z"/>
		<path fill="#A0A0EF" d="M1006.572,501.076c-1.906-2.302-4.838-4.504-6.962-6.606c-15.467-15.293-34.911-22.65-57.789-22.594
			c-1.474,0.002-7.495,0.024-9.118,0.024c-0.045,0.033-0.112,0.065-0.156,0.098l-29.782-0.069c-1.139-0.036-2.289-0.056-3.444-0.053
			c-0.973,0.001-3.897,0.012-6.247,0.019l20.003,21.357l-83.092,83.486L803,522.125V899h163V638.39
			c0-29.02,45.458-95.366,56.453-110.988C1018.293,517.944,1013.113,508.965,1006.572,501.076z"/>
	</g>
</g>
<rect x="515" y="851" fill="#E2E2FE" width="568" height="182"/>
<path fill="#FFC291" d="M1478.572,558.076c-1.906-2.302-4.838-4.504-6.962-6.605c-15.467-15.294-34.911-22.65-57.789-22.595
	c-1.474,0.003-3.958,0.024-5.583,0.024c-32.738,46.1-105.484,64.559-135.571,68.433c-16.224,2.089-110.106,5.546-111.581,5.543
	c-22.878-0.056-42.237,7.301-57.703,22.595c-2.124,2.102-4.636,4.304-6.543,6.605c-28.985,34.955-33.793,91.229-34.84,116.362V1033
	l452-1V674.438C1510,649.305,1507.557,593.031,1478.572,558.076z"/>
<g>
	<g>
		<path fill="#FFC291" d="M1415.313,399.102l-0.16-0.013c0.121-4.508,0.16-9.239,0.16-14.284
			c0-92.416-61.92-167.602-138.035-167.602c-70.825,0-120.693,65.112-127.277,148.625v126.341c0,44.342,5.226,66.175,19.785,69.831
			c19.47,4.889,80.298,0,80.298,0c15.3-2.04,32.709-5.309,43.764-8.47C1422.799,516.659,1415.313,399.102,1415.313,399.102z"/>
	</g>
</g>
<path fill="#FFC291" d="M120.428,558.076c1.906-2.302,4.838-4.504,6.962-6.605c15.467-15.294,34.911-22.65,57.789-22.595
	c1.474,0.003,3.958,0.024,5.583,0.024c32.738,46.1,105.484,64.559,135.571,68.433c16.224,2.089,110.106,5.546,111.581,5.543
	c22.878-0.056,42.237,7.301,57.703,22.595c2.124,2.102,4.636,4.304,6.543,6.605c28.985,34.955,33.793,91.229,34.84,116.362V1033
	l-452-1V674.438C89,649.305,91.443,593.031,120.428,558.076z"/>
<g>
	<g>
		<path fill="#FFC291" d="M183.688,399.102l0.16-0.013c-0.121-4.508-0.16-9.239-0.16-14.284c0-92.416,61.92-167.602,138.035-167.602
			c70.825,0,120.693,65.112,127.277,148.625v126.341c0,44.342-5.226,66.175-19.785,69.831c-19.47,4.889-80.298,0-80.298,0
			c-15.3-2.04-32.709-5.309-43.764-8.47C176.201,516.659,183.688,399.102,183.688,399.102z"/>
	</g>
</g>
</svg>
