<?xml version="1.0" encoding="UTF-8" standalone="no"?>
<svg
   xmlns:dc="http://purl.org/dc/elements/1.1/"
   xmlns:cc="http://creativecommons.org/ns#"
   xmlns:rdf="http://www.w3.org/1999/02/22-rdf-syntax-ns#"
   xmlns:svg="http://www.w3.org/2000/svg"
   xmlns="http://www.w3.org/2000/svg"
   xmlns:sodipodi="http://sodipodi.sourceforge.net/DTD/sodipodi-0.dtd"
   xmlns:inkscape="http://www.inkscape.org/namespaces/inkscape"
   version="1.1"
   id="Layer_1"
   x="0px"
   y="0px"
   viewBox="0 0 488 488"
   style="enable-background:new 0 0 488 488;"
   xml:space="preserve"
   sodipodi:docname="structure-accompagnatrice.svg"
   inkscape:version="1.0 (4035a4f, 2020-05-01)"><metadata
   id="metadata1989"><rdf:RDF><cc:Work
       rdf:about=""><dc:format>image/svg+xml</dc:format><dc:type
         rdf:resource="http://purl.org/dc/dcmitype/StillImage" /></cc:Work></rdf:RDF></metadata><defs
   id="defs1987" /><sodipodi:namedview
   inkscape:document-rotation="0"
   pagecolor="#ffffff"
   bordercolor="#666666"
   borderopacity="1"
   objecttolerance="10"
   gridtolerance="10"
   guidetolerance="10"
   inkscape:pageopacity="0"
   inkscape:pageshadow="2"
   inkscape:window-width="1215"
   inkscape:window-height="1000"
   id="namedview1985"
   showgrid="false"
   inkscape:zoom="1.4200095"
   inkscape:cx="237.20175"
   inkscape:cy="80.432306"
   inkscape:window-x="65"
   inkscape:window-y="24"
   inkscape:window-maximized="1"
   inkscape:current-layer="Layer_1" />
<g
   id="g1926">
	<path
   style="fill:#66CEDB;"
   d="M44,360h88v120h48V344h64h64v136h48V360h88c17.672,0,32-14.328,32-32V208c0-17.672-14.328-32-32-32   h-32h-8c-17.672,0-32,14.328-32,32v64h-48h-40v40h-80v-40h-40h-48v-64c0-17.672-14.328-32-32-32h-8H44c-17.672,0-32,14.328-32,32   v120C12,345.672,26.328,360,44,360z"
   id="path1922" />
	<polygon
   style="fill:#66CEDB;"
   points="268,176 244,176 220,176 244,240  "
   id="polygon1924" />
</g>
<path
   style="fill:#f6bf58"
   d="m 204,312 h 80 v -40 h 40 v -48 c 0,-26.512 -21.488,-48 -48,-48 h -8 L 244.65772,177.94448 220,176 h -8 c -26.512,0 -48,21.488 -48,48 v 48 h 40 z"
   id="path1928"
   sodipodi:nodetypes="ccccsscccssccc" />
<circle
   style="fill:#66CEDB;"
   cx="76"
   cy="128"
   r="48"
   id="circle1930" />
<circle
   style="fill:#F6BF58;"
   cx="244"
   cy="128"
   r="48"
   id="circle1932" />
<g
   id="g1938">
	<circle
   style="fill:#66CEDB;"
   cx="412"
   cy="128"
   r="48"
   id="circle1934" />
	<polygon
   style="fill:#66CEDB;"
   points="164,48 204,48 204,8 92,8 92,48 132,48 132,72  "
   id="polygon1936" />
</g>
<g
   id="g1952">
	<path
   style="fill:#010133"
   d="M 36,367.192 V 488 H 52 V 368 h 72 v 112 c 0,4.416 3.584,8 8,8 h 48 c 4.416,0 8,-3.584 8,-8 V 352 h 48 v 120 h -32 v 16 h 80 V 472 H 252 V 352 h 48 v 128 c 0,4.416 3.584,8 8,8 h 48 c 4.416,0 8,-3.584 8,-8 V 368 h 72 v 120 h 16 V 367.192 C 470.232,363.472 484,347.32 484,328 V 208 C 484,188.136 469.408,171.736 450.408,168.648 461.208,158.432 468,144.008 468,128 468,97.12 442.88,72 412,72 c -30.88,0 -56,25.12 -56,56 0,19.648 10.192,36.936 25.544,46.928 C 370.968,182.136 364,194.264 364,208 v 56 H 332 V 224 C 332,195.376 310.4,171.728 282.64,168.432 293.312,158.232 300,143.896 300,128 300,97.12 274.88,72 244,72 c -30.88,0 -56,25.12 -56,56 0,15.896 6.688,30.232 17.36,40.432 C 177.6,171.728 156,195.376 156,224 v 40 h -32 v -56 c 0,-13.736 -6.968,-25.864 -17.544,-33.072 C 121.808,164.936 132,147.648 132,128 132,97.12 106.88,72 76,72 45.12,72 20,97.12 20,128 c 0,16.008 6.792,30.432 17.592,40.648 C 18.592,171.736 4,188.136 4,208 v 120 c 0,19.312 13.768,35.472 32,39.192 z M 300.896,336 H 187.104 c -1.208,-5.896 -3.632,-11.352 -7.12,-16 H 204 h 80 24.016 c -3.488,4.648 -5.912,10.104 -7.12,16 z M 372,128 c 0,-22.056 17.944,-40 40,-40 22.056,0 40,17.944 40,40 0,22.056 -17.944,40 -40,40 -22.056,0 -40,-17.944 -40,-40 z m 0,152 c 4.416,0 8,-3.584 8,-8 v -64 c 0,-13.232 10.768,-24 24,-24 h 40 c 13.232,0 24,10.768 24,24 v 120 c 0,13.232 -10.768,24 -24,24 h -88 c -4.416,0 -8,3.584 -8,8 V 472 H 316 V 344 c 0,-13.232 10.768,-24 24,-24 h 72 c 4.416,0 8,-3.584 8,-8 v -80 h -16 v 72 H 292 V 280 Z M 204,128 c 0,-22.056 17.944,-40 40,-40 22.056,0 40,17.944 40,40 0,22.056 -17.944,40 -40,40 -22.056,0 -40,-17.944 -40,-40 z m -32,96 c 0,-22.056 17.944,-40 40,-40 h 2.456 c 16.23313,0.71707 21.35408,13.49027 59.088,0 H 276 c 22.056,0 40,17.944 40,40 v 40 h -32 c -4.416,0 -8,3.584 -8,8 v 32 h -64 v -32 c 0,-4.416 -3.584,-8 -8,-8 H 172 Z M 36,128 c 0,-22.056 17.944,-40 40,-40 22.056,0 40,17.944 40,40 0,22.056 -17.944,40 -40,40 -22.056,0 -40,-17.944 -40,-40 z m -16,80 c 0,-13.232 10.768,-24 24,-24 h 40 c 13.232,0 24,10.768 24,24 v 64 c 0,4.416 3.584,8 8,8 h 80 v 24 H 84 V 232 H 68 v 80 c 0,4.416 3.584,8 8,8 h 72 c 13.232,0 24,10.768 24,24 V 472 H 140 V 360 c 0,-4.416 -3.584,-8 -8,-8 H 44 C 30.768,352 20,341.232 20,328 Z"
   id="path1940"
   sodipodi:nodetypes="cccccssssccccccccccsssscccccsscssscsccscssscsccscssscssccccccccsssssssssssssssccsssscccccssssssssccsscssccsscsssssssssssscccccssssccsssss" />
	
	<path
   style="fill:#010133;"
   d="M128.424,79.16c1.128,0.56,2.36,0.84,3.576,0.84c1.696,0,3.384-0.544,4.8-1.6L166.664,56H204   c4.416,0,8-3.584,8-8V8c0-4.416-3.584-8-8-8H92c-4.416,0-8,3.584-8,8v40c0,4.416,3.584,8,8,8h32v16   C124,75.032,125.712,77.8,128.424,79.16z M100,40V16h96v24h-32c-1.728,0-3.416,0.56-4.8,1.6L140,56v-8c0-4.416-3.584-8-8-8H100z"
   id="path1944" />
	<rect
   x="284"
   y="24"
   style="fill:#010133;"
   width="16"
   height="16"
   id="rect1946" />
	<rect
   x="316"
   y="24"
   style="fill:#010133;"
   width="16"
   height="16"
   id="rect1948" />
	<rect
   x="348"
   y="24"
   style="fill:#010133;"
   width="16"
   height="16"
   id="rect1950" />
</g>
<g
   id="g1954">
</g>
<g
   id="g1956">
</g>
<g
   id="g1958">
</g>
<g
   id="g1960">
</g>
<g
   id="g1962">
</g>
<g
   id="g1964">
</g>
<g
   id="g1966">
</g>
<g
   id="g1968">
</g>
<g
   id="g1970">
</g>
<g
   id="g1972">
</g>
<g
   id="g1974">
</g>
<g
   id="g1976">
</g>
<g
   id="g1978">
</g>
<g
   id="g1980">
</g>
<g
   id="g1982">
</g>
</svg>
