<?xml version="1.0" encoding="UTF-8" standalone="no"?>
<svg
   xmlns:dc="http://purl.org/dc/elements/1.1/"
   xmlns:cc="http://creativecommons.org/ns#"
   xmlns:rdf="http://www.w3.org/1999/02/22-rdf-syntax-ns#"
   xmlns:svg="http://www.w3.org/2000/svg"
   xmlns="http://www.w3.org/2000/svg"
   xmlns:sodipodi="http://sodipodi.sourceforge.net/DTD/sodipodi-0.dtd"
   xmlns:inkscape="http://www.inkscape.org/namespaces/inkscape"
   version="1.1"
   id="Calque_6"
   x="0px"
   y="0px"
   width="1429"
   height="896.97827"
   viewBox="0 0 1429 896.97827"
   enable-background="new 0 0 1600 1300"
   xml:space="preserve"
   sodipodi:docname="structure-accompagnatrice.svg"
   inkscape:version="1.0 (4035a4f, 2020-05-01)"><metadata
   id="metadata49"><rdf:RDF><cc:Work
       rdf:about=""><dc:format>image/svg+xml</dc:format><dc:type
         rdf:resource="http://purl.org/dc/dcmitype/StillImage" /></cc:Work></rdf:RDF></metadata><defs
   id="defs47" /><sodipodi:namedview
   inkscape:document-rotation="0"
   pagecolor="#ffffff"
   bordercolor="#666666"
   borderopacity="1"
   objecttolerance="10"
   gridtolerance="10"
   guidetolerance="10"
   inkscape:pageopacity="0"
   inkscape:pageshadow="2"
   inkscape:window-width="1215"
   inkscape:window-height="1000"
   id="namedview45"
   showgrid="false"
   inkscape:zoom="0.27631558"
   inkscape:cx="281.95974"
   inkscape:cy="-132.78395"
   inkscape:window-x="65"
   inkscape:window-y="24"
   inkscape:window-maximized="1"
   inkscape:current-layer="Calque_6" />





<g
   id="g34"
   transform="translate(-85,-136.02174)">
	<g
   id="g32">
		<path
   fill="#ffc291"
   d="m 1415.313,399.102 -0.16,-0.013 c 0.121,-4.508 0.16,-9.239 0.16,-14.284 0,-92.416 -61.92,-167.602 -138.035,-167.602 -70.825,0 -120.693,65.112 -127.277,148.625 v 126.341 c 0,4.38174 73.59,-18.65632 70.3178,-20.0587 8.5583,2.6181 -5.4728,20.40946 -70.1223,33.8898 -1.8083,-0.60277 3.4106,51.67214 19.5895,55.9999 19.3926,5.18739 80.298,0 80.298,0 15.3,-2.04 32.709,-5.309 43.764,-8.47 128.951,-36.871 121.465,-154.428 121.465,-154.428 z"
   id="path30"
   sodipodi:nodetypes="ccsscsccsccc" />
	</g>
</g>

<g
   id="g42"
   transform="translate(-85,-136.02174)">
	<g
   id="g40">
		<path
   fill="#ffc291"
   d="m 183.688,399.102 0.16,-0.013 c -0.121,-4.508 -0.16,-9.239 -0.16,-14.284 0,-92.416 61.92,-167.602 138.035,-167.602 70.825,0 120.693,65.112 127.277,148.625 v 126.341 c 0,-5.33274 -35.002,-0.69352 -53.54154,-10.661 -10.89943,5.63866 10.45068,24.63827 52.95699,33.36539 -1.71719,29.22256 -7.38574,44.15974 -19.20045,47.12661 -19.47,4.889 -80.298,0 -80.298,0 -15.3,-2.04 -32.709,-5.309 -43.764,-8.47 C 176.201,516.659 183.688,399.102 183.688,399.102 Z"
   id="path38"
   sodipodi:nodetypes="ccsscscccccc" />
	</g>
</g>
<path
   style="fill:#0f0689;fill-opacity:1;stroke-width:0.671112"
   id="path4-7-0"
   d="m 893.84532,746.96754 h 69.26506 V 535.34967 h -69.87337 c 0.1473,73.97737 0.53168,188.88785 0.60831,211.61787 z"
   fill="#7D4E5B" /><path
   id="path6-9"
   d="m 947.35163,386.31696 c -11.12026,15.93236 -54.17164,79.24797 -54.17164,104.36544 0,10.10061 0.0182,23.68198 0.0476,39.36019 h 69.88348 v -62.7808 c -1.44146,-17.65443 -3.96971,-50.78634 -15.75885,-80.94483 z"
   fill="#FF9947"
   style="fill:#0f0689;fill-opacity:1;stroke-width:0.671112" /><path
   id="path10-2-6"
   d="m 944.90667,380.41762 c -4.52979,-10.31299 -10.2396,-20.12229 -17.47771,-28.65139 -1.93775,-2.28392 -4.76142,-4.46976 -6.91844,-6.55612 -14.37028,-13.88512 -32.00561,-20.97013 -52.69339,-22.03677 -2.27723,-0.14008 -4.58975,-0.21367 -6.94148,-0.20834 -0.56636,0 -1.78913,0.01 -3.17751,0.01 -2.09182,-0.0326 -4.29768,-0.0692 -5.17945,-0.0692 -0.0112,0.01 -0.0142,0.0119 -0.0142,0.01 0,5.9e-4 0,0 0.0142,-0.01 l -30.24467,-0.0692 c -1.15617,-0.0345 -2.3199,-0.0553 -3.49376,-0.0524 -1.12025,0 -4.80418,0.0138 -7.27955,0.0198 l 0.17519,0.1785 c -1.27778,0.01 -2.4034,0.01 -2.98198,0.01 -17.64413,12.40715 -36.51437,20.18411 -55.2822,26.12988 -12.74906,4.03798 -25.46072,6.48184 -37.75828,6.94957 -12.29755,-0.46704 -25.00931,-2.91159 -37.75827,-6.94957 -14.02624,-4.44409 -28.11009,-9.91165 -41.69686,-17.56959 -3.44632,-2.05247 -6.86203,-4.24631 -10.23566,-6.61588 l -0.20441,0.20773 c -1.05235,-0.70263 -2.10134,-1.41771 -3.14547,-2.15146 -0.46707,0 -1.29467,0 -2.26767,-0.01 l 0.17856,-0.18107 c -2.44212,-0.01 -5.70034,-0.0188 -6.74315,-0.0188 -1.1739,0 -2.33688,0.0179 -3.49376,0.0524 l -30.24389,0.0692 c 0.0114,0.01 0.0217,0.0179 -7e-4,0 h -9.44056 c -5.33779,-0.0138 -10.48139,0.36155 -15.43084,1.12186 -16.64143,2.43713 -31.10478,9.1121 -43.21153,20.26088 -2.15227,1.98284 -4.94945,4.06121 -6.8824,6.23312 -7.31199,8.2123 -17.59366,27.61367 -17.59366,27.61367 23.5239,34.68181 49.87302,74.84035 56.9829,108.43802 0.80033,6.30316 1.24591,12.98305 1.29179,20.12624 l -0.30719,240.26983 c 0,0 266.40407,2.54842 342.96316,0 -0.0961,-28.29046 -0.66522,-198.73505 -0.66522,-256.28508 0,-29.06479 50.74896,-101.2641 57.15806,-110.26488 z"
   fill="#FF9947"
   style="fill:#0f0689;fill-opacity:1;stroke-width:0.671112"
   sodipodi:nodetypes="ccccscccccccccccccccccccccccccccccccscc" /><path
   style="fill:#0f0689;fill-opacity:1;stroke-width:0.671112"
   id="path34-3"
   d="m 716.50883,316.06255 c 27.43851,0 58.60771,-14.65799 82.3989,-37.48225 6.657,-6.41419 12.73148,-13.46858 17.97755,-21.02111 18.23424,-26.25129 19.76315,-90.8385 19.76315,-90.8385 -6.33208,-3.13612 -104.78928,5.38686 -172.99757,-59.42144 1.30649,2.221 -40.85723,52.81473 -67.36244,59.41087 0,23.60641 0.9322,49.78263 10.00614,72.65322 2.52904,6.28814 5.67795,12.3229 9.60559,17.97824 24.01665,34.57264 65.38615,58.72097 100.60868,58.72097 z m -34.44307,-70.0521 c 0.0343,-0.16853 0.35849,-0.40205 0.35849,-0.40205 l 4.5849,-3.01836 c 0,0 0.27762,-0.12338 0.43714,-0.0978 0.0728,0.0138 0.29137,0.0208 0.54725,0.33695 2.03823,2.50697 10.99532,12.06952 29.06456,12.06952 18.06914,0 27.02643,-9.56066 29.06456,-12.06745 0.25861,-0.3165 0.47657,-0.3158 0.54724,-0.32914 0.16085,-0.0258 0.43655,0.11084 0.43655,0.11084 l 4.58549,3.0396 c 0,0 0.32594,0.18837 0.3585,0.35759 0,0 0.0859,-0.18314 -0.0941,0.21555 -1.97039,4.36901 -12.65948,27.08914 -34.80632,27.08914 h -0.18329 c -22.14764,0 -32.83278,-22.72083 -34.80642,-27.08914 -0.18055,-0.39869 -0.0941,-0.21555 -0.0941,-0.21555 z"
   fill="#7D4E5B"
   sodipodi:nodetypes="scccccccscccccsccccccsscc" /><path
   style="fill:#0f0689;fill-opacity:1;stroke-width:0.671112"
   id="path60-8"
   d="m 716.52248,4.646585 c -1.07821,0 -2.14348,0.01481 -3.20258,0.03556 -0.0334,0 -0.0677,0 -0.10008,0 C 667.1161,5.647339 655.10031,11.498958 604.85903,0 c -0.20431,16.661479 2.35458,30.979169 7.69442,39.360288 -12.52771,13.798889 -12.68117,30.445061 -15.04997,44.557076 -2.94043,17.514066 -1.69732,71.028756 -1.69732,71.028756 0.29325,-0.0375 0.58319,-0.0662 0.88121,-0.11606 0.0103,0 0.0208,-0.01 0.0303,-0.01 11.83384,-2.00221 27.80774,-15.29493 41.12579,-29.45754 0.01,-0.01 0.0112,-0.0109 0.0152,-0.0168 0.39509,-0.42062 0.78765,-0.84183 1.17789,-1.26372 0.0344,-0.0366 0.0677,-0.0731 0.10119,-0.10955 0.37003,-0.39997 0.73661,-0.79933 1.10126,-1.1993 0.0526,-0.0584 0.10657,-0.11745 0.16025,-0.17583 0.34959,-0.38417 0.69585,-0.76823 1.0408,-1.15298 0.0668,-0.0741 0.13173,-0.14728 0.19826,-0.22088 0.33332,-0.3728 0.66462,-0.74491 0.99329,-1.11711 0.0758,-0.086 0.15204,-0.17179 0.22736,-0.25802 0.31715,-0.36026 0.63216,-0.71923 0.94446,-1.0787 0.086,-0.0977 0.17106,-0.19638 0.25588,-0.29525 0.30562,-0.35217 0.60912,-0.70452 0.90988,-1.05529 0.0859,-0.10026 0.17106,-0.20043 0.25659,-0.30049 0.29672,-0.34773 0.59062,-0.69405 0.88269,-1.04029 0.088,-0.1042 0.17449,-0.20763 0.26194,-0.31174 0.28864,-0.34367 0.57515,-0.68595 0.85822,-1.02764 0.086,-0.10352 0.17045,-0.20694 0.25598,-0.30976 0.28035,-0.33902 0.55877,-0.67736 0.83366,-1.0144 0.0859,-0.1047 0.16913,-0.20823 0.25395,-0.31235 0.2751,-0.33911 0.54997,-0.67665 0.8188,-1.0124 0.0677,-0.0839 0.13385,-0.16774 0.20168,-0.25209 0.28176,-0.35295 0.56282,-0.70501 0.83851,-1.0541 0.0455,-0.0563 0.0889,-0.1141 0.13375,-0.17119 1.25736,-1.59661 2.44416,-3.1536 3.54804,-4.65489 0.0364,-0.0504 0.0749,-0.10016 0.1107,-0.14926 0.19562,-0.26661 0.38498,-0.52799 0.57576,-0.79075 0.10251,-0.14264 0.20845,-0.28656 0.30966,-0.42792 0.1656,-0.23006 0.32513,-0.45558 0.48679,-0.68258 0.1201,-0.16911 0.24232,-0.3403 0.3597,-0.50813 0.14801,-0.20961 0.28995,-0.41527 0.43392,-0.62232 0.12566,-0.17969 0.25122,-0.36085 0.37335,-0.53856 0.13386,-0.1943 0.26286,-0.38544 0.39256,-0.57718 0.12547,-0.18442 0.25042,-0.36885 0.37194,-0.54992 0.12566,-0.18708 0.24578,-0.37013 0.3674,-0.55396 0.11868,-0.17968 0.23757,-0.35946 0.35292,-0.53599 0.11555,-0.177796 0.22747,-0.352156 0.3395,-0.526696 0.11484,-0.1792 0.22878,-0.35759 0.34019,-0.53343 0.10452,-0.16644 0.20775,-0.33101 0.30895,-0.4942 0.10929,-0.17642 0.21797,-0.35156 0.32382,-0.52472 0.0961,-0.15855 0.19087,-0.31443 0.28378,-0.46971 0.10191,-0.17119 0.20301,-0.3402 0.30076,-0.50744 0.088,-0.15064 0.17521,-0.29921 0.25943,-0.4465 0.0961,-0.16516 0.18733,-0.32776 0.27762,-0.48896 0.0788,-0.14116 0.15749,-0.28183 0.23363,-0.41983 0.088,-0.15983 0.17237,-0.31639 0.25516,-0.47168 0.0707,-0.13266 0.14053,-0.26404 0.20787,-0.39334 0.0788,-0.15193 0.15406,-0.3005 0.22746,-0.44778 0.0627,-0.12476 0.12547,-0.25022 0.18391,-0.37152 0.0697,-0.14392 0.13446,-0.28341 0.19957,-0.4219 0.0536,-0.11606 0.10867,-0.23351 0.15891,-0.34564 0.0616,-0.13799 0.11617,-0.26937 0.17177,-0.40065 0.0446,-0.1054 0.091,-0.21228 0.13162,-0.31452 0.0515,-0.13197 0.0981,-0.25663 0.14538,-0.38268 0.0344,-0.0929 0.0719,-0.18907 0.10252,-0.27866 0.0446,-0.12674 0.0799,-0.24547 0.11748,-0.36559 0.0243,-0.081 0.0526,-0.16378 0.0738,-0.24014 0.0354,-0.12733 0.0627,-0.24537 0.09,-0.36411 0.0142,-0.0593 0.0324,-0.12476 0.0434,-0.18245 0.0343,-0.17178 0.0597,-0.33437 0.0738,-0.4862 0,0 40.50046,64.617736 172.17665,65.080136 0.51802,0 1.03534,0.01 1.55327,0.01 0,0 1.06799,-57.699486 -3.31722,-75.294346 C 821.96887,33.627568 772.86831,4.6426 716.52216,4.6426 Z" /><path
   fill="#7D4E5B"
   d="m 536.93231,747.37449 h -69.265 V 535.75657 h 69.87334 c -0.14731,73.97738 -0.53165,188.8879 -0.60834,211.61792 z"
   id="path4-7-0-4"
   style="fill:#0f0689;fill-opacity:1;stroke-width:0.671112" /><rect
   x="430"
   y="714.97827"
   fill="#e2e2fe"
   width="568"
   height="182"
   id="rect26" /><path
   fill="#ffc291"
   d="m 1393.572,422.05426 c -1.906,-2.302 -4.838,-4.504 -6.962,-6.605 -15.467,-15.294 -34.911,-22.65 -57.789,-22.595 -1.474,0.003 -3.958,0.024 -5.583,0.024 -32.738,46.1 -105.484,64.559 -135.571,68.433 -16.224,2.089 -110.106,5.546 -111.581,5.543 -22.878,-0.056 -42.237,7.301 -57.703,22.595 -2.124,2.102 -4.636,4.304 -6.543,6.605 -28.985,34.955 -33.793,91.229 -34.84,116.362 v 284.562 l 452,-1 v -357.562 c -4,-25.133 -6.443,-81.407 -35.428,-116.362 z"
   id="path28" /><path
   fill="#ffc291"
   d="m 35.428,422.05426 c 1.906,-2.302 4.838,-4.504 6.962,-6.605 15.467,-15.294 34.911,-22.65 57.789,-22.595 1.474,0.003 3.958,0.024 5.583,0.024 32.738,46.1 105.484,64.559 135.571,68.433 16.224,2.089 110.106,5.546 111.581,5.543 22.878,-0.056 42.237,7.301 57.703,22.595 2.124,2.102 4.636,4.304 6.543,6.605 28.985,34.955 33.793,91.229 34.84,116.362 v 284.562 l -452,-1 v -357.562 c 4,-25.133 6.443,-81.407 35.428,-116.362 z"
   id="path36" /><path
   style="fill:#0f0689;fill-opacity:1;stroke-width:0.671112"
   fill="#FF9947"
   d="m 483.4261,386.72393 c 11.12024,15.93238 54.17155,79.24797 54.17155,104.36545 0,10.1006 -0.0175,23.68198 -0.0468,39.36026 h -69.88349 v -62.78087 c 1.44137,-17.65453 3.96971,-50.78625 15.75879,-80.94484 z"
   id="path6-9-4" /></svg>
