<?xml version="1.0" encoding="UTF-8" standalone="no"?>
<svg
   xmlns:dc="http://purl.org/dc/elements/1.1/"
   xmlns:cc="http://creativecommons.org/ns#"
   xmlns:rdf="http://www.w3.org/1999/02/22-rdf-syntax-ns#"
   xmlns:svg="http://www.w3.org/2000/svg"
   xmlns="http://www.w3.org/2000/svg"
   xmlns:sodipodi="http://sodipodi.sourceforge.net/DTD/sodipodi-0.dtd"
   xmlns:inkscape="http://www.inkscape.org/namespaces/inkscape"
   inkscape:version="1.0 (4035a4f, 2020-05-01)"
   sodipodi:docname="tuteur-mlds.svg"
   id="svg687"
   xml:space="preserve"
   enable-background="new 0 0 2700 1300"
   viewBox="0 0 1811 965.50098"
   height="965.50098"
   width="1811"
   y="0px"
   x="0px"
   version="1.1"><metadata
   id="metadata693"><rdf:RDF><cc:Work
       rdf:about=""><dc:format>image/svg+xml</dc:format><dc:type
         rdf:resource="http://purl.org/dc/dcmitype/StillImage" /></cc:Work></rdf:RDF></metadata><defs
   id="defs691">
	
	
	
	
	
	
	
	
	
	
	
	
	
	
	
	
	
	
	
	
	
	
	
	
	
	
	
	

		
		
		
		
		
	</defs><sodipodi:namedview
   inkscape:current-layer="svg687"
   inkscape:window-maximized="1"
   inkscape:window-y="24"
   inkscape:window-x="65"
   inkscape:cy="737.03941"
   inkscape:cx="1116.001"
   inkscape:zoom="2.2105246"
   showgrid="false"
   id="namedview689"
   inkscape:window-height="1000"
   inkscape:window-width="1215"
   inkscape:pageshadow="2"
   inkscape:pageopacity="0"
   guidetolerance="10"
   gridtolerance="10"
   objecttolerance="10"
   borderopacity="1"
   bordercolor="#666666"
   pagecolor="#ffffff"
   inkscape:document-rotation="0" />
<g
   transform="translate(-738,-227.499)"
   id="g14">
		<path
   fill="none"
   d="m 1578.84,549.73 c -0.069,-0.159 0,0.022 0,0.022 0,-0.002 0,-0.014 0,-0.022 z"
   id="path2" />
		<path
   fill="none"
   d="m 1893.121,1124.369 c -0.054,-0.023 -0.11,-0.048 -0.164,-0.071 0.011,0.01 0.019,0.012 0.029,0.017 0.023,0.01 0.074,0.029 0.135,0.054 z"
   id="path4" />
		<path
   fill="#0f6d18"
   d="m 1893.184,1124.395 c -0.024,-0.011 -0.042,-0.018 -0.063,-0.025 0.032,0.014 0.068,0.029 0.101,0.044 -0.014,-0.01 -0.025,-0.014 -0.038,-0.019 z"
   id="path6" />
		<path
   fill="#efb600"
   d="m 1578.879,549.695 c -0.011,-0.01 -0.021,-0.022 -0.028,-0.041 0,0.007 -0.01,0.05 -0.011,0.076 0.01,0.01 0.01,0.009 0.011,0.023 0,-0.018 0.02,-0.038 0.028,-0.058 z"
   id="path8" />
		<path
   fill="#efb600"
   d="m 1692.642,545.236 c 0,0.015 0.019,0.027 0.021,0.042 -10e-4,0 0.083,-0.285 -0.021,-0.042 z"
   id="path10" />
		<path
   fill="#ffc29e"
   d="m 1578.851,549.789 c -0.096,-0.224 -0.014,0.031 -0.014,0.031 10e-4,-0.009 0.012,-0.022 0.014,-0.031 z"
   id="path12" />
	</g><g
   transform="translate(-738,-227.499)"
   id="g72">
		<g
   id="g70">
			<path
   fill="#f2c3b1"
   d="m 1605.435,239.727 c -75.229,0 -136.435,85.251 -136.435,190.04 0,40.169 1.73,85.948 22.398,120.883 27.221,46.008 99.112,78.143 139.036,78.143 39.921,0 61.813,-32.132 89.036,-78.143 20.668,-34.935 22.401,-80.714 22.401,-120.883 10e-4,-104.789 -61.203,-190.04 -136.436,-190.04 z m 66.809,295.274 c -2.232,5.804 -14.336,35.999 -39.415,35.999 h -0.207 c -25.079,0 -37.18,-27.195 -39.413,-32.999 -0.048,-0.124 -0.078,-0.198 -0.098,-0.245 0,0.007 -0.01,0.015 -0.01,0.022 0,0 -0.057,-0.177 0.01,-0.022 0.057,-0.226 0.396,-0.55 0.396,-0.55 l 5.191,-4.028 c 0,0 0.315,-0.175 0.495,-0.141 0.083,0.019 0.33,0.024 0.618,0.444 2.309,3.331 12.453,13.032 32.913,13.032 20.461,0 30.604,-12.704 32.912,-16.035 0.293,-0.42 0.54,-0.424 0.62,-0.443 0.182,-0.035 0.493,0.14 0.493,0.14 l 5.193,4.02 c 0,0 0.368,0.289 0.405,0.514 0,0 0.101,-0.238 -0.103,0.292 z"
   id="path66" />
			<path
   fill="#f2c3b1"
   d="m 1593.102,537.778 c 10e-4,-0.007 0.01,-0.015 0.01,-0.022 -0.067,-0.155 -0.01,0.022 -0.01,0.022 z"
   id="path68" />
		</g>
	</g><g
   transform="translate(-738,-227.499)"
   id="g78">
		<g
   id="g76">
			<path
   fill="#6161e5"
   d="m 1607.359,240.564 c -1.235,0 -2.459,0.017 -3.674,0.043 -0.038,0.001 -0.075,0.002 -0.112,0.003 -52.877,1.156 -68.655,8.168 -126.275,-5.61 -0.234,19.965 2.701,37.121 8.824,47.164 -14.367,16.535 -14.544,36.48 -17.262,53.39 -3.371,20.986 -1.944,85.11 -1.944,85.11 0.334,-0.044 0.668,-0.079 1.01,-0.139 0.012,-0.002 0.023,-0.004 0.034,-0.006 13.572,-2.399 33.893,-18.327 49.167,-35.296 0.01,-0.007 0.013,-0.014 0.017,-0.021 0.454,-0.504 0.905,-1.009 1.352,-1.514 0.04,-0.043 0.078,-0.087 0.118,-0.131 0.423,-0.479 0.844,-0.958 1.263,-1.438 0.06,-0.07 0.122,-0.14 0.184,-0.21 0.401,-0.46 0.798,-0.92 1.193,-1.381 0.076,-0.088 0.151,-0.177 0.228,-0.265 0.382,-0.446 0.762,-0.892 1.141,-1.338 0.085,-0.103 0.174,-0.206 0.26,-0.309 0.362,-0.432 0.724,-0.862 1.082,-1.292 0.099,-0.118 0.196,-0.236 0.293,-0.354 0.352,-0.422 0.699,-0.844 1.045,-1.264 0.099,-0.121 0.196,-0.241 0.294,-0.36 0.34,-0.417 0.676,-0.832 1.012,-1.247 0.102,-0.125 0.199,-0.25 0.301,-0.374 0.329,-0.412 0.657,-0.823 0.983,-1.231 0.098,-0.124 0.194,-0.248 0.293,-0.372 0.32,-0.406 0.641,-0.811 0.956,-1.215 0.098,-0.125 0.193,-0.25 0.291,-0.375 0.315,-0.407 0.63,-0.811 0.94,-1.213 0.076,-0.102 0.151,-0.201 0.231,-0.301 0.322,-0.424 0.645,-0.845 0.961,-1.264 0.052,-0.069 0.103,-0.137 0.152,-0.205 1.443,-1.914 2.803,-3.78 4.069,-5.578 0.042,-0.06 0.087,-0.12 0.128,-0.179 0.224,-0.319 0.44,-0.634 0.659,-0.948 0.119,-0.17 0.24,-0.343 0.355,-0.512 0.189,-0.275 0.373,-0.546 0.558,-0.819 0.139,-0.202 0.279,-0.407 0.415,-0.607 0.168,-0.252 0.33,-0.499 0.496,-0.746 0.143,-0.216 0.286,-0.433 0.428,-0.645 0.155,-0.233 0.301,-0.462 0.449,-0.692 0.145,-0.222 0.287,-0.442 0.427,-0.66 0.144,-0.224 0.283,-0.444 0.422,-0.664 0.137,-0.215 0.272,-0.43 0.405,-0.642 0.131,-0.213 0.261,-0.423 0.389,-0.632 0.133,-0.214 0.264,-0.428 0.391,-0.639 0.119,-0.199 0.237,-0.396 0.354,-0.592 0.125,-0.211 0.251,-0.421 0.37,-0.628 0.11,-0.19 0.22,-0.377 0.326,-0.563 0.117,-0.205 0.232,-0.408 0.345,-0.608 0.102,-0.181 0.202,-0.359 0.297,-0.535 0.108,-0.198 0.216,-0.393 0.319,-0.586 0.092,-0.17 0.181,-0.337 0.269,-0.503 0.101,-0.192 0.195,-0.379 0.29,-0.566 0.083,-0.159 0.162,-0.316 0.241,-0.472 0.089,-0.182 0.174,-0.36 0.257,-0.536 0.072,-0.15 0.146,-0.299 0.215,-0.445 0.08,-0.172 0.154,-0.34 0.228,-0.506 0.063,-0.139 0.125,-0.279 0.183,-0.414 0.068,-0.165 0.133,-0.323 0.196,-0.48 0.053,-0.126 0.105,-0.254 0.152,-0.376 0.06,-0.158 0.112,-0.308 0.166,-0.458 0.04,-0.111 0.082,-0.226 0.118,-0.334 0.049,-0.152 0.09,-0.294 0.135,-0.438 0.026,-0.096 0.061,-0.196 0.084,-0.288 0.043,-0.153 0.072,-0.294 0.104,-0.437 0.015,-0.072 0.036,-0.149 0.051,-0.219 0.039,-0.206 0.068,-0.4 0.084,-0.583 0,0 46.448,77.429 197.462,77.982 0.595,0.002 0.979,-69.667 -4.052,-90.75 -13.238,-55.49 -67.523,-89.687 -132.143,-89.687 z"
   id="path74" />
		</g>
	</g><g
   transform="translate(-738,-227.499)"
   id="g84">
		<path
   fill="none"
   d="m 1799.917,1041.436 c -0.01,0.01 -0.012,0.013 -0.018,0.02 -1.791,2.116 -3.42,4.366 -4.931,6.643 -6.234,9.393 -9.963,19.188 -10.317,21.402 -0.666,4.168 -0.396,9.624 4.559,11.708 0.993,0.418 1.949,0.614 2.885,0.614 7.178,0 13.192,-11.562 26.437,-23.396 0.086,0.041 0.174,0.08 0.26,0.121 l 4.15,1.964 c 32.527,15.364 66.806,34.548 77.848,44.441 3.5,3.136 4.511,5.669 4.151,8.009 5.028,-4.516 10.492,-10.204 13.894,-14.626 5.388,-7.004 157.166,-19.887 215.166,-25.892 V 960 959.844 c -51,19.648 -211.382,80.491 -228.315,80.491 -6.1,0 -14.745,-1.403 -24.685,-3.229 v 45.482 c -22.425,-13.631 -54.311,-30.178 -81.084,-41.152 z"
   id="path80" />
		<path
   fill="#f2c3b1"
   d="m 1825.46,1020.783 c 12.711,10e-4 29.8,3.274 46.325,6.44 3.196,0.612 6.232,1.192 9.215,1.746 V 900.598 c -10.607,2.403 -25.117,4.797 -40.883,4.797 -13.727,0 -28.394,-1.822 -42.245,-7.023 0.109,32.076 0.374,98.135 0.798,132.771 5.102,-4.763 10.439,-7.862 15.932,-9.235 3.023,-0.757 6.575,-1.125 10.858,-1.125 z"
   id="path82" />
	</g><g
   transform="translate(-738,-227.499)"
   id="g110">
		<path
   fill="#a1a0f0"
   d="m 1296.949,843.451 c -6.988,-28.02 -7.1,-27.729 -7.949,-42.512 -1.621,-19.85 -4.348,-56.824 -16.951,-90.836 -16.767,25.113 -45.801,71.346 -56.472,99.157 -2.171,6.214 -3.621,11.891 -4.101,16.752 -0.07,2.8 -0.13,6.767 -0.181,11.713 v 41.088 l 68.229,-14.938 z"
   id="path86" />
		<path
   fill="#c5c5fb"
   d="m 816,1061.62 c 0,-16.996 10e-4,-36.143 0,-56.022 z"
   id="path88" />
		<path
   fill="#c5c5fb"
   d="m 815.928,887 c 0.056,34.59 0.069,78.114 0.072,118.598 V 887 Z"
   id="path90" />
		<path
   fill="#c5c5fb"
   d="m 815.501,825.161 c -0.113,-3.976 -1.6,-9.441 -4.079,-15.9 2.171,6.214 3.621,11.891 4.101,16.752 -0.006,-0.296 -0.014,-0.582 -0.022,-0.852 z"
   id="path92" />
		<path
   fill="#c5c5fb"
   d="m 1211.499,825.161 c -0.01,0.27 -0.015,0.556 -0.022,0.852 0.48,-4.861 1.93,-10.538 4.101,-16.752 -2.479,6.459 -3.967,11.925 -4.079,15.9 z"
   id="path94" />
		<path
   fill="#f2c3b1"
   d="m 1016,728.893 c 33.204,-8 72.115,-57.336 92.837,-86.807 -6.644,4.407 -13.411,8.27 -20.252,11.695 -0.147,0.074 -0.293,0.149 -0.44,0.223 -0.984,0.489 -1.971,0.968 -2.958,1.44 -0.265,0.126 -0.529,0.255 -0.794,0.379 -0.911,0.433 -1.824,0.855 -2.738,1.272 -0.346,0.159 -0.692,0.317 -1.04,0.474 -0.852,0.385 -1.704,0.762 -2.558,1.136 -0.417,0.183 -0.834,0.363 -1.252,0.542 -0.799,0.344 -1.599,0.684 -2.4,1.02 -0.478,0.198 -0.955,0.395 -1.433,0.591 -0.75,0.308 -1.5,0.614 -2.25,0.914 -0.546,0.218 -1.093,0.433 -1.64,0.646 -0.688,0.271 -1.377,0.541 -2.066,0.805 -0.633,0.242 -1.266,0.479 -1.9,0.717 -0.61,0.229 -1.22,0.459 -1.831,0.684 -0.764,0.281 -1.529,0.555 -2.294,0.829 -0.487,0.175 -0.974,0.353 -1.46,0.524 -1.256,0.443 -2.512,0.88 -3.767,1.307 -1.422,0.484 -2.844,0.943 -4.266,1.389 -0.204,0.064 -0.409,0.129 -0.612,0.193 -1.362,0.42 -2.724,0.822 -4.083,1.208 -0.236,0.066 -0.473,0.132 -0.709,0.198 -1.373,0.383 -2.745,0.749 -4.115,1.094 -0.164,0.041 -0.328,0.08 -0.491,0.12 -2.88,0.714 -5.751,1.343 -8.612,1.884 -0.167,0.03 -0.334,0.064 -0.501,0.095 -1.381,0.256 -2.76,0.489 -4.135,0.703 -0.191,0.03 -0.381,0.06 -0.572,0.087 -1.394,0.211 -2.785,0.403 -4.171,0.569 -0.105,0.013 -0.21,0.023 -0.315,0.036 -1.449,0.17 -2.895,0.32 -4.336,0.441 h -10e-4 c -1.788,0.15 -3.57,0.264 -5.344,0.336 -1.802,-0.073 -3.613,-0.189 -5.43,-0.344 -1.465,-0.125 -2.935,-0.276 -4.408,-0.451 -0.063,-0.008 -0.125,-0.014 -0.189,-0.021 -1.406,-0.17 -2.817,-0.365 -4.23,-0.58 -0.17,-0.025 -0.34,-0.051 -0.509,-0.077 -1.385,-0.216 -2.772,-0.452 -4.162,-0.71 -0.162,-0.029 -0.324,-0.063 -0.485,-0.092 -2.862,-0.541 -5.734,-1.172 -8.615,-1.887 -0.158,-0.039 -0.314,-0.076 -0.472,-0.115 -1.366,-0.344 -2.734,-0.709 -4.103,-1.09 -0.242,-0.068 -0.484,-0.137 -0.726,-0.204 -1.352,-0.383 -2.706,-0.783 -4.06,-1.202 -0.21,-0.064 -0.42,-0.132 -0.63,-0.197 -1.415,-0.443 -2.83,-0.901 -4.245,-1.383 -1.259,-0.428 -2.519,-0.865 -3.779,-1.311 -0.449,-0.158 -0.899,-0.323 -1.349,-0.484 -0.805,-0.289 -1.61,-0.577 -2.416,-0.873 -0.576,-0.211 -1.151,-0.43 -1.726,-0.645 -0.67,-0.251 -1.341,-0.502 -2.011,-0.758 -0.658,-0.252 -1.315,-0.511 -1.972,-0.77 -0.582,-0.227 -1.163,-0.454 -1.743,-0.686 -0.721,-0.288 -1.441,-0.583 -2.161,-0.878 -0.509,-0.209 -1.019,-0.418 -1.527,-0.63 -0.777,-0.325 -1.552,-0.655 -2.328,-0.988 -0.442,-0.19 -0.884,-0.382 -1.326,-0.575 -0.831,-0.363 -1.662,-0.731 -2.492,-1.106 -0.372,-0.168 -0.745,-0.338 -1.117,-0.508 -0.892,-0.408 -1.782,-0.82 -2.672,-1.242 -0.29,-0.137 -0.579,-0.277 -0.868,-0.415 -0.965,-0.462 -1.929,-0.929 -2.892,-1.409 -0.177,-0.088 -0.353,-0.178 -0.53,-0.266 -3.748,-1.879 -7.472,-3.894 -11.168,-6.05 21.463,29.739 57.668,73.692 88.84,81.203 z"
   id="path96"
   style="fill:#c68642;fill-opacity:1" />
		<path
   fill="#a1a0f0"
   d="m 1016,777.526 c 54.939,-12.881 116.139,-103.083 140.098,-141.6 -11.81,-0.025 -25.79,-0.041 -33.212,-0.047 -18.021,27.182 -64.895,92.263 -106.026,101.121 0,0 -0.618,0.105 -0.859,0.105 -0.241,0 -0.859,-0.105 -0.859,-0.105 -41.133,-8.858 -88.01,-73.944 -106.029,-101.123 -0.909,0.009 -2.58,0.062 -4.331,0.057 -1.065,-0.003 -15.275,-0.003 -28.865,0.015 23.967,38.529 85.154,128.698 140.083,141.577 z"
   id="path98" />
		<path
   fill="#a1a0f0"
   d="m 815.705,837.726 c -0.051,-4.946 -0.111,-8.913 -0.181,-11.713 -0.48,-4.861 -1.93,-10.538 -4.101,-16.752 -10.67,-27.812 -39.705,-74.044 -56.472,-99.157 -12.604,34.012 -15.33,70.986 -16.951,90.836 v 77.874 h 77.705 z"
   id="path100" />
		<path
   fill="#c5c5fb"
   d="m 758.353,701.581 c 6.666,9.586 17.904,26.189 29.144,44.795 -12.175,-20.158 -23.946,-37.845 -28.944,-45.243 -0.065,0.15 -0.136,0.298 -0.2,0.448 z"
   id="path102" />
		<path
   fill="#c5c5fb"
   d="m 816,829.365 c 0,-1.066 -0.066,-2.189 -0.181,-3.353 0.07,2.8 0.181,6.767 0.181,11.713 z"
   id="path104" />
		<path
   fill="#c5c5fb"
   d="m 816,1193 v -128.01 c 0,25.535 -0.437,118.01 -0.473,128.01 z"
   id="path106" />
		<path
   fill="#c5c5fb"
   d="m 1211,837.726 c 0,-4.946 0.111,-8.913 0.181,-11.713 -0.115,1.163 -0.181,2.286 -0.181,3.353 z"
   id="path108" />
	</g><g
   transform="translate(-738,-227.499)"
   id="g114">
		<path
   fill="none"
   d="m 1770.631,1031.348 c -1.295,-0.32 -2.547,-0.604 -3.724,-0.842 -1.239,-0.293 -2.898,-0.633 -3.907,-0.633 -72.162,0 -253.596,10.906 -283.232,18.244 -10.913,2.702 -20.732,6.531 -28.765,10.274 C 1428.279,1010.293 1428,879.966 1428,879 h -8 c 0,5.788 0.284,133.156 23.854,182.923 -8.907,4.659 -14.37,8.503 -14.812,8.817 l 4.635,6.521 c 0.205,-0.146 20.867,-14.657 48.013,-21.379 25.615,-6.342 193.35,-17.24 273.236,-17.97 3.096,-0.297 5.879,-0.357 8.001,-0.04 0.099,0.01 0.256,0.034 0.442,0.067 5.024,0.729 12.075,2.812 20.382,5.842 3.581,1.282 7.357,2.741 11.249,4.315 1.511,-2.276 3.171,-4.526 4.962,-6.643 -10.966,-4.494 -21.08,-8.062 -29.331,-10.105 z"
   id="path112" />
	</g><g
   transform="translate(-738,-227.499)"
   id="g124">
		<path
   d="m 1457.087,1185.499 c 1.163,-0.089 2.303,-0.183 3.426,-0.273 -1.122,0.09 -2.263,0.184 -3.426,0.273 z"
   id="path116" />
		<path
   d="m 1457.075,1186 c 0,0 0.01,-1 0.012,-1 0,0 -0.01,1 -0.012,1 z"
   id="path118" />
		<path
   d="m 1445.832,1186 c 4.043,0 7.745,-0.231 11.243,-0.5 -3.499,0.269 -7.202,0.5 -11.243,0.5 z"
   id="path120" />
		<path
   d="m 1460.601,1185.03 c 1.766,-0.144 3.488,-0.303 5.188,-0.479 -1.7,0.177 -3.424,0.336 -5.188,0.479 z"
   id="path122" />
	</g><g
   transform="translate(-738,-227.499)"
   id="g130">
		<g
   id="g128">
			<path
   fill="#f2c3b1"
   d="m 1298.654,853.341 c -11.999,14.472 -22.992,26.562 -32.453,36.96 -11.42,12.551 -20.534,22.963 -26.91,32.32 -0.01,0.008 0.157,0.007 0.149,0.017 -7.207,9.487 -11.503,20.674 -11.441,29.176 0,0.002 0,0.003 0,0.005 0,9.849 1.167,19.016 4,28.183 3.311,10.712 10.167,21.666 18.43,26.923 5.277,3.285 10.615,4.949 15.966,4.949 20.521,0 44.204,-35.863 50.104,-46.873 1.594,-2.973 3.445,-6.675 5.5,-10.945 v -133.4 c -7.476,11.951 -15.044,22.674 -23.345,32.685 z"
   id="path126"
   style="fill:#c68642;fill-opacity:1" />
		</g>
	</g><g
   transform="translate(-738,-227.499)"
   id="g164">
		<path
   fill="#7f8cdd"
   d="m 1013.821,239.727 c -0.02,0 -0.039,0.001 -0.059,0.001 0.513,0 1.022,0.018 1.534,0.023 -0.492,-0.006 -0.982,-0.024 -1.475,-0.024 z"
   id="path150" />
		<path
   fill="#7f8cdd"
   d="m 1013.821,628.792 c 0.489,0 0.984,-0.026 1.475,-0.035 -0.511,0.008 -1.025,0.033 -1.534,0.033 0.02,0.001 0.04,0.002 0.059,0.002 z"
   id="path152" />
		<path
   fill="#7f8cdd"
   d="m 1059.491,534.407 c -0.041,-0.018 -0.078,-0.034 -0.096,-0.046 l -2.866,-1.236 3.292,1.553 c -0.047,-0.116 -0.219,-0.216 -0.33,-0.271 z"
   id="path154" />
		<path
   fill="#7f8cdd"
   d="m 1042.709,555.316 c 4.631,-3.314 8.234,-7.081 10.919,-10.492 -2.723,3.376 -6.342,7.133 -10.919,10.492 z"
   id="path156" />
		<path
   fill="#f2c3b1"
   d="m 1015.296,239.751 c -0.512,-0.006 -1.021,-0.023 -1.534,-0.023 -79.676,0.042 -144.488,85.276 -144.488,190.039 0,40.169 1.833,93.949 23.73,128.883 28.826,45.987 78.474,70.112 120.758,70.141 0.509,0 1.023,-0.025 1.534,-0.033 41.971,-0.732 90.834,-24.629 119.342,-70.108 21.897,-34.934 23.734,-88.714 23.734,-128.883 0,-104.141 -64.047,-188.97 -143.076,-190.016 z m 44.525,295.733 c -0.755,1.467 -2.772,5.1 -6.193,9.34 -2.686,3.411 -6.289,7.178 -10.919,10.492 -7.18,5.27 -16.723,9.553 -28.924,9.808 -0.35,0.007 -0.697,0.011 -1.042,0.011 -28.816,0 -41.391,-25.199 -43.459,-29.84 -0.198,-0.444 -0.205,-0.418 -0.205,-0.561 0,-0.219 0.285,-0.316 0.285,-0.316 l 2.846,-1.106 -2.57,0.998 c 0.156,-0.087 0.32,-0.148 0.32,-0.148 l 2.25,-0.85 3.824,-1.485 c 0,0 0.264,-0.077 0.357,-0.029 0.059,0.03 0.12,0.079 0.211,0.291 1.27,2.982 9.223,19.898 27.608,24.099 0.091,0.021 0.182,0.043 0.273,0.063 0.656,0.145 1.325,0.273 2.008,0.385 0.023,0.004 0.045,0.009 0.068,0.012 2.211,0.355 4.562,0.529 7.058,0.479 24.81,-0.519 37.002,-21.374 38.998,-25.132 0.187,-0.352 0.244,-0.463 0.416,-0.463 0.213,0 0.62,0.237 0.62,0.237 l 2.877,1.356 2.866,1.236 c 0,0 0.042,0.02 0.096,0.046 0.147,0.065 0.4,0.173 0.509,0.358 0.136,0.229 -10e-4,0.377 -0.178,0.719 z"
   id="path158"
   style="fill:#c68642;fill-opacity:1" />
		<path
   fill="#7f8cdd"
   d="m 1059.395,534.361 c 0.019,0.012 0.055,0.028 0.096,0.046 -0.054,-0.026 -0.096,-0.046 -0.096,-0.046 z"
   id="path160" />
		<path
   fill="#7f8cdd"
   d="m 969.64,534.31 2.57,-0.998 -2.25,0.85 c 0,-0.001 -0.165,0.061 -0.32,0.148 z"
   id="path162" />
	</g><g
   transform="translate(-738,-227.499)"
   id="g184">
		<g
   id="g182">
			<path
   fill="#f2c3b1"
   d="m 1461.553,636.133 3.844,-0.782 c 2.427,9.586 5.466,29.384 6.621,35.607 0.7,2.648 3.649,6.71 7.832,4.554 5.59,-2.882 4.5,-23.107 1.222,-46.692 0,0 -4.336,-10.163 -11.019,-9.358 -4.365,0.526 -5.08,5.148 -7.815,5.63 -3.34,0.588 -6.188,-7.112 -12.654,-6.593 -9.351,0.75 -7.963,7.081 -12.104,7.829 -7.377,1.332 -6.384,-7.339 -17.555,-5.332 -6.494,1.167 -7.37,10.22 -12.666,11.179 -4.418,0.801 -8.658,-5.874 -16.063,-3.858 -7.764,2.112 -6.37,16.249 -5.535,19.658 0,0 18.572,82.942 36.285,79.528 2.962,-0.571 4.066,-1.699 4.978,-2.881 0.746,-0.97 1.962,-1.925 0.5,-7.809 -0.589,-2.365 -0.992,-3.276 -5.285,-17.932 -3.195,-10.903 -9.508,-33.863 -13.328,-52.008 l 3.965,-0.807 c 7.565,29.953 11.697,45.496 14.099,53.25 2.22,7.168 6.128,21.43 9.889,26.191 4.614,5.267 7.027,5.994 10.503,5.058 4.749,-1.283 6.18,-5.933 5.484,-12.628 -1.757,-13.081 -7.849,-35.143 -8.998,-40.454 -2.441,-10.465 -4.809,-22.608 -7.07,-36.286 l 3.887,-0.791 c 5.703,30.25 9.733,47.781 14.436,63.958 1.56,4.454 4.52,7.861 7.763,7.495 9.655,-1.092 9.451,-13.954 3.104,-51.563 -1.84,-10.387 -3.65,-20.452 -4.32,-24.163 z"
   id="path180"
   style="fill:#c68642;fill-opacity:1" />
		</g>
	</g><path
   fill="#100689"
   d="M 395.573,51.761 C 384.035,36.573 368.806,23.445 349.044,14.137 349.044,14.137 323.794,0 275.3,0 c -48.496,0 -73.471,14.103 -73.471,14.103 -19.374,9.095 -34.395,21.83 -45.847,36.573 0,0 -104.666,124.226 -103.706,186.825 1.795,117 85.038,137.333 124.75,147.333 1.208,-15.696 -38.758,-140.46 -12.663,-219.777 23.572,-22.687 46.225,-56.144 46.941,-64.674 0,0 43.344,76.644 181.251,85.708 14.347,78.633 -19.04,184.377 -17.934,198.744 39.713,-10 122.956,-30.334 124.75,-147.334 0.961,-62.599 -103.798,-185.74 -103.798,-185.74 z"
   id="path186" /><g
   transform="translate(-738,-227.499)"
   id="g192">
		<g
   id="g190">
			<path
   fill="#39b54a"
   d="m 1424.087,1185 c 1.163,0 2.304,-0.183 3.426,-0.273 -1.123,0.09 -2.263,0.273 -3.426,0.273 z"
   id="path188" />
		</g>
	</g><g
   transform="translate(-838,-227.499)"
   id="g198">
		<g
   id="g196">
			<path
   fill="#7d4e5b"
   d="m 2456.945,454.48 -0.166,-0.013 c 0.125,-4.712 0.166,-9.657 0.166,-14.93 0,-96.593 -65.038,-175.178 -144.595,-175.178 -74.026,0 -126.796,68.055 -133.351,155.343 v 132.052 c 0,46.347 5.783,69.166 21,72.988 20.35,5.108 84.088,0 84.088,0 15.991,-2.132 34.268,-5.549 45.821,-8.853 134.781,-38.539 127.037,-161.409 127.037,-161.409 z m -232.888,110.451 c -0.293,0 -0.584,-0.003 -0.877,-0.009 -12.592,-0.262 -22.345,-5.926 -26.7,-11.607 -0.146,-0.191 -0.178,-0.291 -0.188,-0.523 0,-0.103 0.207,-0.356 0.207,-0.356 l 5.497,-3.861 c 0,0 0.433,-0.305 0.587,-0.262 0.277,0.077 0.371,0.304 0.567,0.539 3.321,3.978 11.03,7.881 20.195,8.072 8.616,0.185 21.233,-2.771 32.977,-17.709 0.168,-0.214 0.219,-0.363 0.49,-0.402 0.292,-0.042 0.61,0.212 0.61,0.212 l 5.202,3.987 c 0,0 0.375,0.27 0.313,0.53 -0.086,0.356 -0.209,0.47 -0.434,0.755 -10.558,13.341 -24.145,20.634 -38.446,20.634 z"
   id="path194" />
		</g>
	</g><path
   d="m 1668.58,129.828 c 2.034,-1.529 3.988,-3.203 5.84,-5.033 25.414,-25.116 22.633,-69.134 -6.209,-98.319 -28.842,-29.183 -72.824,-32.482 -98.238,-7.367 -1.845,1.823 -3.533,3.749 -5.083,5.756 -119.89,-34.364 -195.908,45.405 -195.855,75.636 116.474,174.333 231.1,184.532 239.345,186.639 26.856,-16.917 68.145,-56.805 60.2,-157.312 z"
   id="path200" /><path
   fill="#a3a6bc"
   d="M 1620.757,373.141"
   id="path202" /><path
   id="path204"
   d="m 503.5,433.975 c -17.469,-17.274 -39.328,-25.446 -65.138,-25.449 -0.028,-0.029 -4.455,-0.054 -10.86,-0.074 -8.628,14.124 -23.648,37.556 -42.113,61.58 -39.643,51.577 -75.484,81.191 -106.53,88.021 0,0 -0.639,0.095 -0.859,0.095 -0.22,0 -0.859,-0.095 -0.859,-0.095 -31.045,-6.83 -66.887,-36.444 -106.53,-88.021 -18.458,-24.015 -33.475,-47.44 -42.104,-61.565 -8.885,0.02 -15.81,0.05 -15.844,0.097 -25.777,0.021 -47.697,8.154 -65.148,25.412 -2.409,2.383 -5.547,4.881 -7.71,7.49 -7.95,9.588 -14.24,20.594 -19.25,32.168 4.998,7.398 16.769,25.085 28.944,45.243 0.25,0.415 0.501,0.833 0.752,1.25 17.137,28.481 34.801,61.508 35.249,77.309 0.884,31.165 0.231,304.353 0.048,362.065 h 379.907 c -0.183,-57.713 -0.836,-330.9 0.048,-362.065 0.774,-27.271 52.825,-105.859 64.948,-123.806 -5.01,-11.573 -11.295,-22.577 -19.245,-32.164 -2.165,-2.61 -5.296,-5.108 -7.706,-7.491 z"
   fill="#a1a0f0" /><path
   id="path206"
   d="m 0,959.501 h 77.54 c 0.038,-22.992 0.101,-99.177 0.166,-122.01 V 659.501 H 0 Z"
   fill="#f2c3b1"
   style="fill:#c68642;fill-opacity:1" /><rect
   id="rect210"
   height="270"
   width="75.544998"
   fill="#7d4e5b"
   y="689.50098"
   x="1260.4551" /><path
   id="path212"
   d="m 1674.455,400.708 c -2.305,-2.415 -28.743,-27.656 -54.279,-27.594 -1.645,0.003 0.581,0.027 -1.232,0.027 -36.544,51.458 -89.748,64.063 -123.332,68.389 -18.109,2.331 -122.906,6.19 -124.553,6.188 -25.537,-0.063 -47.146,8.149 -64.411,25.222 -2.371,2.344 -5.401,4.802 -7.531,7.373 C 1266.763,519.329 1262,577.146 1260,605.2 v 76.301 h 76 8 v 278 h 317 V 708.872 c 0,-53.962 35.12,-105.779 50,-125.312 v -69.813 c -2.051,10.238 2.209,-72.433 -36.545,-113.039 z"
   fill="#ff9947" /><g
   transform="translate(-738,-227.499)"
   id="g228">
		<path
   fill="none"
   d="m 1470.806,619.417 c -0.247,0 -0.498,0.015 -0.753,0.045 -4.365,0.526 -5.08,5.148 -7.815,5.63 -0.123,0.021 -0.245,0.032 -0.367,0.032 -3.079,0 -5.864,-6.65 -11.665,-6.65 -0.204,0 -0.411,0.008 -0.622,0.025 -9.351,0.75 -7.963,7.081 -12.104,7.829 -0.53,0.096 -1.018,0.14 -1.469,0.14 -5.172,0 -5.668,-5.774 -12.957,-5.775 -0.926,0 -1.96,0.093 -3.129,0.303 -6.494,1.167 -7.37,10.22 -12.666,11.179 -0.252,0.046 -0.504,0.067 -0.756,0.067 -3.573,0 -7.156,-4.306 -12.528,-4.306 -0.876,0 -1.8,0.114 -2.779,0.381 -7.764,2.112 -6.37,16.249 -5.535,19.658 0,0 0.344,1.534 0.979,4.168 15.887,-12.106 34.814,-17.984 56.558,-17.931 1.006,0.002 21.391,0.005 38.593,0.009 -0.226,-1.777 -0.464,-3.578 -0.718,-5.401 0,0 -4.013,-9.403 -10.267,-9.403 z"
   id="path222" />
		<g
   id="g226">
			<path
   fill="none"
   d="m 1489.854,634.224 1.932,25.691 c 0.013,-6.724 -0.623,-15.17 -1.932,-25.691 z"
   id="path224" />
		</g>
	</g><g
   transform="translate(-738,-227.499)"
   id="g236">
		<path
   fill="#f2c3b1"
   d="m 1374.539,651.908 c -6.04,-4.068 -13.145,-7.457 -16.79,-4.152 -7.909,7.169 -3.556,14.604 1.957,19.843 3.223,-4.351 8.475,-10.706 14.833,-15.691 z"
   id="path230"
   style="fill:#c68642;fill-opacity:1" />
		<path
   fill="#6e6ab7"
   d="m 1841.284,667.321 c -2.163,-2.609 -5.258,-5.107 -7.667,-7.49 -17.535,-17.341 -39.47,-25.683 -65.41,-25.619 -1.672,0.003 -54.022,0.008 -56.15,0.015 -23.035,27.645 -55.39,42.317 -79.599,42.317 -34.458,0 -83.492,-14.672 -127.225,-42.314 -1.519,-0.002 -7.591,-0.004 -15.379,-0.006 1.309,10.521 1.944,18.968 1.932,25.691 -0.019,9.114 -1.015,18.907 -8.271,22.647 -1.929,0.994 -3.943,1.438 -5.989,1.438 -0.01,0 -0.02,0 -0.029,0 1.739,16 1.02,24.232 -3.239,29.887 -1.752,2.326 -5.012,5.292 -10.596,5.923 -0.455,0.052 -0.918,0.078 -1.376,0.078 -0.47,0 -0.936,-0.027 -1.397,-0.08 0.418,13.689 -7.809,17.474 -11.544,18.483 -1.555,0.419 -2.99,0.623 -4.389,0.623 -5.851,0 -9.985,-3.449 -13.532,-7.369 -1.69,1.574 -4.128,3.073 -7.966,3.813 -0.851,0.164 -1.721,0.247 -2.586,0.247 -11.657,0 -21.142,-13.544 -31.715,-45.287 -2.593,-7.787 -4.848,-15.517 -6.646,-22.111 -1.063,-3.895 -1.968,-7.395 -2.688,-10.273 -0.082,0.063 -0.164,0.127 -0.246,0.19 -2.438,1.899 -4.719,4.059 -6.759,6.222 -5.834,6.188 -9.715,12.387 -9.771,12.478 l -0.098,-0.061 c -26.475,39.7 -30.178,98.164 -32.95,124.499 v 97.357 c 34.376,13.198 75.723,3.487 90.275,-0.711 C 1420.014,887.24 1420,880.256 1420,879 h 8 c 0,0.966 0.279,131.293 23.003,179.392 8.032,-3.743 17.852,-7.572 28.765,-10.274 29.637,-7.338 211.07,-18.244 283.232,-18.244 1.009,0 2.668,0.34 3.907,0.633 1.177,0.238 2.429,0.521 3.724,0.842 5.883,1.457 12.719,3.694 20.128,6.483 -0.629,-42.582 -0.941,-156.629 -0.944,-157.82 l 8,-0.021 c 0,0.206 0.01,3.785 0.029,9.768 29.143,12.124 63.907,7.049 83.156,2.56 v -91.055 c -2,-28.501 -6.851,-94.307 -39.716,-133.943 z"
   id="path232" />
		<path
   fill="#aa492b"
   d="m 1379.577,658.124 c 0.082,-0.063 0.164,-0.128 0.246,-0.19 0,-0.01 -0.01,-0.021 -0.01,-0.03 -0.079,0.074 -0.159,0.147 -0.238,0.22 z"
   id="path234" />
	</g>
<g
   transform="translate(-738,-227.499)"
   id="Calque_2">
	<g
   id="g267">
		<path
   id="path239"
   d="m 1770.617,1155.71 c 2.175,1.162 4.001,2.082 5.879,2.082 0.851,0 1.715,-0.204 2.625,-0.645 0,-10e-4 0.01,0 0.01,0 0.554,-2.334 1.347,-3.994 1.57,-4.435 l 0.12,-0.237 0.072,-0.121 c -0.347,-0.188 -0.693,-0.374 -1.043,-0.564 -0.398,-0.217 -0.798,-0.436 -1.2,-0.656 -0.499,-0.275 -1.003,-0.554 -1.508,-0.835 -0.398,-0.222 -0.796,-0.442 -1.198,-0.668 -0.531,-0.298 -1.067,-0.603 -1.605,-0.907 -0.383,-0.217 -0.765,-0.433 -1.151,-0.653 -0.587,-0.336 -1.181,-0.68 -1.775,-1.023 -0.349,-0.201 -0.692,-0.398 -1.044,-0.603 -0.755,-0.44 -1.52,-0.891 -2.287,-1.345 -0.195,-0.115 -0.388,-0.228 -0.585,-0.344 -0.111,-0.065 -0.226,-0.136 -0.336,-0.201 -1.824,5.192 -0.266,9.171 3.457,11.16 z"
   fill="none" />
		<path
   id="path241"
   d="m 1835.727,1180.928 -0.22,0.358 c -0.14,0.229 -0.302,0.437 -0.449,0.658 0,0.01 0.01,0.01 0.011,0.015 0.85,1.021 2.221,1.964 4.389,2.645 0.893,0.28 2.11,0.561 3.365,0.561 2.259,0 4.64,-0.906 5.471,-4.345 0.676,-1.96 1.333,-3.899 1.951,-5.796 -0.415,0.026 -0.854,0.074 -1.344,0.067 -0.061,-10e-4 -0.119,0.046 -0.18,0.045 -0.131,0 -0.266,0.019 -0.401,0.016 -0.073,0 -0.146,0.01 -0.221,0.01 -0.135,0 -0.272,0 -0.412,-0.01 -0.086,0 -0.172,0 -0.26,-0.01 -0.136,0 -0.274,-0.01 -0.414,-0.016 -0.097,0 -0.193,-0.01 -0.292,-0.012 -0.143,-0.01 -0.287,-0.013 -0.434,-0.021 -0.1,0 -0.2,-0.011 -0.301,-0.017 -0.154,-0.01 -0.31,-0.018 -0.469,-0.027 -0.1,-0.01 -0.202,-0.014 -0.304,-0.021 -0.164,-0.011 -0.328,-0.022 -0.497,-0.035 -0.104,-0.01 -0.21,-0.017 -0.315,-0.025 -0.174,-0.014 -0.347,-0.027 -0.526,-0.043 -0.101,-0.01 -0.206,-0.019 -0.309,-0.028 -0.646,-0.06 -1.326,-0.131 -2.039,-0.216 -0.121,-0.014 -0.241,-0.027 -0.365,-0.043 -0.192,-0.023 -0.391,-0.05 -0.589,-0.076 -0.138,-0.018 -0.273,-0.035 -0.414,-0.055 -0.194,-0.026 -0.394,-0.055 -0.593,-0.084 -0.152,-0.021 -0.304,-0.043 -0.458,-0.066 -0.09,-0.014 -0.183,-0.027 -0.273,-0.041 -0.923,1.987 -1.896,4.055 -2.929,6.229 z"
   fill="none" />
		<path
   id="path243"
   d="m 1789.847,1158.479 -0.329,0.497 c -0.912,1.033 -2.518,1.932 -2.518,2.718 0,0.01 0,0.015 0,0.021 0,2.692 0.77,5.792 4.717,7.786 2.454,1.239 4.437,1.737 6.219,1.737 1.72,0 3.034,-0.472 4.228,-1.178 0.215,-1.583 0.684,-3.141 1.43,-4.635 l 0.09,-0.18 0.099,-0.175 c 0.241,-0.428 0.469,-0.839 0.7,-1.255 -0.274,-0.117 -0.55,-0.234 -0.826,-0.354 -0.366,-0.157 -0.735,-0.318 -1.105,-0.479 -0.344,-0.15 -0.688,-0.301 -1.036,-0.454 -0.385,-0.171 -0.775,-0.346 -1.166,-0.521 -0.342,-0.152 -0.683,-0.306 -1.028,-0.463 -0.413,-0.187 -0.831,-0.38 -1.249,-0.572 -0.333,-0.153 -0.664,-0.305 -1,-0.461 -0.467,-0.218 -0.941,-0.442 -1.414,-0.666 -0.297,-0.14 -0.589,-0.276 -0.889,-0.419 -0.76,-0.362 -1.527,-0.733 -2.305,-1.112 -0.269,-0.132 -0.544,-0.27 -0.814,-0.403 -0.381,-0.188 -0.765,-0.378 -1.148,-0.567 -0.119,0.191 -0.232,0.372 -0.357,0.573 z"
   fill="none" />
		<path
   id="path245"
   d="m 1810.249,1173.675 c 0,0.01 0,0.014 0,0.021 0.713,2.643 3,4.933 5.746,6.306 1.91,0.955 3.734,1.419 5.412,1.419 1.665,0 3.178,-0.472 4.496,-1.355 0.01,0 0.013,-0.01 0.019,-0.014 -0.336,-2.877 0.227,-5.706 1.313,-7.926 0.038,-0.083 0.077,-0.167 0.115,-0.25 -0.118,-0.031 -0.235,-0.063 -0.355,-0.095 -0.265,-0.071 -0.534,-0.146 -0.804,-0.222 -0.235,-0.065 -0.472,-0.131 -0.71,-0.198 -0.271,-0.077 -0.547,-0.156 -0.823,-0.236 -0.243,-0.071 -0.488,-0.143 -0.735,-0.216 -0.277,-0.082 -0.558,-0.166 -0.84,-0.251 -0.255,-0.077 -0.513,-0.156 -0.771,-0.236 -0.284,-0.087 -0.569,-0.176 -0.857,-0.267 -0.264,-0.083 -0.53,-0.169 -0.797,-0.255 -0.29,-0.093 -0.58,-0.186 -0.874,-0.282 -0.279,-0.092 -0.563,-0.187 -0.848,-0.281 -0.29,-0.098 -0.58,-0.193 -0.874,-0.293 -0.298,-0.102 -0.602,-0.207 -0.903,-0.312 -0.289,-0.101 -0.576,-0.198 -0.87,-0.302 -0.363,-0.129 -0.735,-0.264 -1.104,-0.396 -0.29,-0.104 -0.586,-0.213 -0.88,-0.32 -0.043,0.078 -0.081,0.147 -0.131,0.24 -0.708,1.32 -1.925,3.566 -3.93,5.721 z"
   fill="none" />
		<path
   id="path247"
   d="m 1854.69,1155.256 c -2.199,-0.604 -4.547,-1.338 -7.019,-2.252 -0.298,0.92 -0.621,1.867 -0.976,2.852 2.771,1.027 5.376,1.828 7.799,2.479 0.136,-1.111 0.204,-2.142 0.196,-3.079 z"
   fill="none" />
		<path
   id="path249"
   d="m 1816.293,1168.43 c 0.294,0.104 0.581,0.201 0.87,0.302 0.302,0.104 0.605,0.21 0.903,0.312 0.294,0.1 0.584,0.195 0.874,0.293 0.284,0.095 0.568,0.189 0.848,0.281 0.294,0.097 0.584,0.189 0.874,0.282 0.267,0.086 0.533,0.172 0.797,0.255 0.288,0.091 0.573,0.18 0.857,0.267 0.259,0.08 0.517,0.159 0.771,0.236 0.282,0.085 0.563,0.169 0.84,0.251 0.247,0.073 0.492,0.145 0.735,0.216 0.276,0.08 0.552,0.159 0.823,0.236 0.238,0.067 0.475,0.133 0.71,0.198 0.27,0.075 0.539,0.15 0.804,0.222 0.12,0.032 0.237,0.063 0.355,0.095 1.672,-3.647 3.426,-7.446 5.028,-10.917 2.189,-4.741 4.081,-8.837 5.077,-11.057 l 0.121,-0.271 0.141,-0.261 c 1.062,-1.964 2.385,-3.599 3.912,-4.885 10e-4,-0.01 0,-0.016 0,-0.022 1.023,-6.011 -0.513,-9.225 -4.672,-11.07 -0.457,-0.202 -0.941,-0.296 -1.443,-0.296 -1.626,0 -3.443,0.982 -5.152,2.436 0,0 0,0 0,0.01 -0.415,1.662 -0.992,3.387 -1.788,5.228 l -0.048,0.111 -0.052,0.109 c -5.156,11 -10.128,19.669 -13.099,24.848 -0.334,0.582 -0.642,1.118 -0.92,1.606 l -0.025,0.045 -0.032,0.055 c -0.027,0.047 -0.063,0.117 -0.094,0.174 0.294,0.107 0.59,0.216 0.88,0.32 0.371,0.132 0.743,0.267 1.106,0.396 z"
   fill="#f2c3b1" />
		<path
   id="path251"
   d="m 1858.79,1174.927 c 0.246,-0.041 0.478,-0.097 0.717,-0.145 0.362,-0.073 0.727,-0.145 1.072,-0.233 0.238,-0.062 0.464,-0.135 0.695,-0.203 0.322,-0.096 0.646,-0.191 0.952,-0.301 0.225,-0.08 0.439,-0.169 0.656,-0.256 0.29,-0.116 0.579,-0.234 0.854,-0.361 0.208,-0.097 0.408,-0.199 0.607,-0.302 0.263,-0.134 0.521,-0.271 0.77,-0.415 0.19,-0.11 0.374,-0.225 0.556,-0.34 0.237,-0.15 0.47,-0.305 0.693,-0.463 0.171,-0.122 0.338,-0.246 0.501,-0.372 0.214,-0.165 0.421,-0.333 0.621,-0.505 0.152,-0.131 0.302,-0.262 0.446,-0.396 0.192,-0.178 0.375,-0.358 0.554,-0.541 0.134,-0.137 0.267,-0.273 0.394,-0.412 0.171,-0.188 0.332,-0.38 0.489,-0.572 0.115,-0.14 0.231,-0.279 0.34,-0.421 0.151,-0.197 0.29,-0.397 0.429,-0.598 0.097,-0.141 0.197,-0.28 0.288,-0.422 0.132,-0.206 0.251,-0.413 0.371,-0.62 0.078,-0.137 0.162,-0.274 0.235,-0.411 0.115,-0.216 0.217,-0.432 0.318,-0.646 0.061,-0.129 0.128,-0.257 0.184,-0.385 0.104,-0.236 0.191,-0.47 0.279,-0.703 0.039,-0.104 0.085,-0.21 0.121,-0.313 0.116,-0.335 0.218,-0.666 0.303,-0.989 -0.482,-0.747 -1.574,-1.305 -3.027,-1.79 -0.031,-0.01 -0.209,-0.021 -0.209,-0.024 v 0 c -1,-0.535 -3.641,-0.985 -6.149,-1.511 -0.171,-0.036 -0.349,-0.073 -0.522,-0.109 -0.581,4.123 -1.841,8.986 -3.662,14.777 0.041,-0.01 0.084,-0.01 0.124,-0.016 z"
   fill="#f2c3b1" />
		<path
   id="path253"
   d="m 1839.566,1174.428 c 0.199,0.029 0.398,0.058 0.593,0.084 0.141,0.02 0.276,0.037 0.414,0.055 0.198,0.026 0.396,0.053 0.589,0.076 0.124,0.016 0.244,0.029 0.365,0.043 0.713,0.085 1.393,0.156 2.039,0.216 0.103,0.01 0.208,0.02 0.309,0.028 0.18,0.016 0.353,0.029 0.526,0.043 0.105,0.01 0.212,0.018 0.315,0.025 0.169,0.013 0.333,0.024 0.497,0.035 0.102,0.01 0.204,0.015 0.304,0.021 0.159,0.01 0.314,0.019 0.469,0.027 0.101,0.01 0.201,0.012 0.301,0.017 0.146,0.01 0.291,0.014 0.434,0.021 0.099,0.01 0.195,0.01 0.292,0.012 0.14,0.01 0.278,0.011 0.414,0.016 0.088,0 0.174,0 0.26,0.01 0.14,0 0.277,0 0.412,0.01 0.075,0 0.147,-0.01 0.221,-0.01 0.136,0 0.271,-0.018 0.401,-0.016 0.061,10e-4 0.119,-0.046 0.18,-0.045 0.489,0.01 0.929,-0.041 1.344,-0.067 2.064,-6.326 3.703,-12.17 4.251,-16.689 -2.423,-0.65 -5.027,-1.451 -7.799,-2.479 -1.854,5.141 -4.489,11.205 -7.861,18.465 0.091,0.014 0.184,0.027 0.273,0.041 0.154,0.023 0.305,0.044 0.457,0.066 z"
   fill="#f2c3b1" />
		<path
   id="path255"
   d="m 1851.5,1149.4 c -0.438,-0.1 -0.857,-0.146 -1.26,-0.146 -0.547,0 -1.054,0.1 -1.534,0.255 -0.292,1.11 -0.641,2.278 -1.034,3.494 2.472,0.914 4.819,1.648 7.019,2.252 -0.028,-3.221 -0.953,-5.348 -3.191,-5.855 z"
   fill="#f2c3b1" />
		<path
   id="path257"
   d="m 1792.463,1158.314 c 0.777,0.379 1.545,0.75 2.305,1.112 0.3,0.143 0.592,0.279 0.889,0.419 0.473,0.224 0.947,0.448 1.414,0.666 0.336,0.156 0.667,0.308 1,0.461 0.418,0.192 0.836,0.386 1.249,0.572 0.346,0.157 0.687,0.311 1.028,0.463 0.391,0.176 0.781,0.351 1.166,0.521 0.348,0.153 0.692,0.304 1.036,0.454 0.37,0.161 0.739,0.322 1.105,0.479 0.276,0.119 0.552,0.236 0.826,0.354 2.708,-4.869 4.787,-8.979 6.631,-12.63 2.912,-5.766 5.427,-10.745 9.229,-16.454 l 0.119,-0.178 0.128,-0.172 c 0.752,-1.008 1.57,-1.969 2.42,-2.863 10e-4,-0.01 0,-0.017 0,-0.024 0.373,-3.284 -0.561,-5.898 -3.219,-7.598 -1.324,-0.845 -2.821,-1.358 -4.392,-1.358 -2.028,0 -4.178,0.856 -6.234,2.962 -0.195,0.199 -0.384,0.415 -0.576,0.619 -0.01,0.01 -0.012,0.015 -0.019,0.021 -0.448,2.258 -1.22,4.486 -2.298,6.565 -0.816,1.574 -0.991,1.888 -1.906,3.206 -0.642,0.925 -1.971,2.849 -5.331,8.024 -0.852,1.311 -1.469,2.274 -2.024,3.122 -1.635,2.493 -2.54,3.915 -6.514,10.284 0.384,0.189 0.768,0.38 1.148,0.567 0.272,0.137 0.547,0.275 0.816,0.406 z"
   fill="#f2c3b1" />
		<path
   id="path259"
   d="m 1768.08,1145.095 c 0.768,0.454 1.532,0.904 2.287,1.345 0.352,0.204 0.695,0.401 1.044,0.603 0.595,0.344 1.188,0.688 1.775,1.023 0.387,0.221 0.769,0.437 1.151,0.653 0.538,0.305 1.074,0.609 1.605,0.907 0.402,0.226 0.8,0.446 1.198,0.668 0.505,0.281 1.009,0.56 1.508,0.835 0.402,0.221 0.802,0.439 1.2,0.656 0.35,0.19 0.696,0.377 1.043,0.564 l 0.065,-0.108 c 0.272,-0.459 6.714,-11.281 9.427,-15.206 l 1.231,-1.78 c 3.121,-4.527 6.384,-8.836 9.384,-12.641 0,-0.01 0,-0.01 0,-0.013 0,-3.317 -0.785,-6.263 -3.275,-7.38 -1.047,-0.469 -2.096,-0.702 -3.158,-0.702 -6.614,0 -13.871,9.029 -25.732,26.48 -0.729,1.236 -1.279,2.42 -1.675,3.55 0.11,0.065 0.225,0.136 0.336,0.201 0.198,0.117 0.391,0.229 0.586,0.345 z"
   fill="#f2c3b1" />
		<path
   id="path261"
   d="m 1840.03,1149.726 -1.431,2.639 c 2.834,1.403 5.534,2.542 8.097,3.491 0.354,-0.984 0.678,-1.932 0.976,-2.852 -2.432,-0.899 -4.982,-1.968 -7.642,-3.278 z"
   fill="#ffffff" />
		<path
   id="path263"
   d="m 1854.495,1158.334 c 2.877,0.773 5.496,1.34 7.833,1.831 0.148,-1.054 0.26,-2.066 0.317,-3.026 -2.366,-0.498 -5.032,-1.08 -7.955,-1.883 0.01,0.937 -0.06,1.968 -0.195,3.078 z"
   fill="#ffffff" />
		<path
   id="path265"
   d="m 1850.244,1175.023 c 0.129,-0.01 0.266,-0.023 0.388,-0.023 0.01,0 0.015,0 0.021,0 0.382,0 0.731,0.069 1.045,0.065 0.03,-10e-4 0.061,0.077 0.09,0.076 0.082,-10e-4 0.159,-0.034 0.236,-0.035 0.168,0 0.329,-0.065 0.476,-0.065 0.771,0.057 1.519,-0.041 2.238,-0.041 0.014,0 0.025,0 0.038,0 0.145,0 0.277,0.112 0.42,0.109 0.566,-0.01 1.126,0.1 1.661,0.056 0.235,-0.019 0.454,-0.054 0.684,-0.079 0.381,-0.042 0.759,-0.087 1.125,-0.144 1.821,-5.791 3.081,-10.654 3.662,-14.777 -2.337,-0.491 -4.956,-1.058 -7.833,-1.831 -0.548,4.52 -2.186,10.363 -4.251,16.689 z"
   fill="#ffffff" />
	</g>
	<g
   id="g635">
		<path
   id="path269"
   d="m 1839.566,1174.428 c -0.152,-0.021 -0.304,-0.043 -0.458,-0.066 0.155,0.023 0.306,0.044 0.458,0.066 z"
   fill="none" />
		<path
   id="path271"
   d="m 1848.9,1175.185 c -0.061,-10e-4 -0.119,-10e-4 -0.18,0 0.061,10e-4 0.12,10e-4 0.18,0 z"
   fill="none" />
		<path
   id="path273"
   d="m 1838.504,1174.27 c -0.161,-0.025 -0.323,-0.051 -0.486,-0.078 0.164,0.027 0.325,0.052 0.486,0.078 z"
   fill="none" />
		<path
   id="path275"
   d="m 1841.527,1174.686 c -0.121,-0.014 -0.241,-0.027 -0.365,-0.043 0.125,0.015 0.244,0.029 0.365,0.043 z"
   fill="none" />
		<path
   id="path277"
   d="m 1837.396,1174.089 c -0.168,-0.028 -0.338,-0.058 -0.509,-0.087 0.171,0.029 0.341,0.059 0.509,0.087 z"
   fill="none" />
		<path
   id="path279"
   d="m 1835.041,1173.661 c -0.179,-0.035 -0.361,-0.071 -0.543,-0.108 0.182,0.037 0.364,0.073 0.543,0.108 z"
   fill="none" />
		<path
   id="path281"
   d="m 1836.238,1173.887 c -0.172,-0.032 -0.348,-0.064 -0.522,-0.098 0.175,0.033 0.349,0.065 0.522,0.098 z"
   fill="none" />
		<path
   id="path283"
   d="m 1844.717,1174.998 c -0.104,-0.01 -0.21,-0.017 -0.315,-0.025 0.105,0.01 0.211,0.017 0.315,0.025 z"
   fill="none" />
		<path
   id="path285"
   d="m 1847.687,1175.158 c -0.086,0 -0.172,-0.01 -0.26,-0.01 0.088,0 0.174,0.01 0.26,0.01 z"
   fill="none" />
		<path
   id="path287"
   d="m 1847.013,1175.133 c -0.097,0 -0.193,-0.01 -0.292,-0.013 0.098,0.01 0.195,0.01 0.292,0.013 z"
   fill="none" />
		<path
   id="path289"
   d="m 1848.319,1175.175 c -0.073,0 -0.146,0 -0.221,0 0.076,0 0.148,0 0.221,0 z"
   fill="none" />
		<path
   id="path291"
   d="m 1833.801,1173.412 c -0.186,-0.038 -0.375,-0.08 -0.563,-0.12 0.188,0.04 0.377,0.081 0.563,0.12 z"
   fill="none" />
		<path
   id="path293"
   d="m 1843.875,1174.93 c -0.101,-0.01 -0.206,-0.019 -0.309,-0.028 0.103,0.01 0.208,0.019 0.309,0.028 z"
   fill="none" />
		<path
   id="path295"
   d="m 1846.287,1175.099 c -0.1,0 -0.2,-0.011 -0.301,-0.017 0.101,0.01 0.202,0.012 0.301,0.017 z"
   fill="none" />
		<path
   id="path297"
   d="m 1845.518,1175.055 c -0.1,-0.01 -0.202,-0.014 -0.304,-0.021 0.101,0.01 0.204,0.014 0.304,0.021 z"
   fill="none" />
		<path
   id="path299"
   d="m 1840.573,1174.566 c -0.138,-0.018 -0.273,-0.035 -0.414,-0.055 0.141,0.02 0.277,0.038 0.414,0.055 z"
   fill="none" />
		<path
   id="path301"
   d="m 1821.459,1170.154 c -0.264,-0.083 -0.53,-0.169 -0.797,-0.255 0.267,0.086 0.533,0.172 0.797,0.255 z"
   fill="none" />
		<path
   id="path303"
   d="m 1818.066,1169.043 c -0.298,-0.102 -0.602,-0.207 -0.903,-0.312 0.302,0.105 0.606,0.21 0.903,0.312 z"
   fill="none" />
		<path
   id="path305"
   d="m 1819.788,1169.617 c -0.279,-0.092 -0.563,-0.187 -0.848,-0.281 0.285,0.095 0.569,0.189 0.848,0.281 z"
   fill="none" />
		<path
   id="path307"
   d="m 1816.293,1168.43 c -0.363,-0.129 -0.735,-0.264 -1.104,-0.396 0.369,0.132 0.741,0.267 1.104,0.396 z"
   fill="none" />
		<path
   id="path309"
   d="m 1832.516,1173.138 c -0.186,-0.041 -0.375,-0.085 -0.563,-0.127 0.188,0.042 0.377,0.086 0.563,0.127 z"
   fill="none" />
		<path
   id="path311"
   d="m 1811.771,1166.765 c -0.339,-0.13 -0.675,-0.258 -1.019,-0.391 0.344,0.133 0.68,0.261 1.019,0.391 z"
   fill="none" />
		<path
   id="path313"
   d="m 1813.763,1167.514 c -0.362,-0.134 -0.722,-0.266 -1.089,-0.404 0.367,0.138 0.726,0.27 1.089,0.404 z"
   fill="none" />
		<path
   id="path315"
   d="m 1809.804,1166.001 c -0.339,-0.134 -0.677,-0.268 -1.021,-0.405 0.344,0.138 0.682,0.271 1.021,0.405 z"
   fill="none" />
		<path
   id="path317"
   d="m 1827.668,1171.958 c -0.222,-0.059 -0.442,-0.117 -0.668,-0.178 0.226,0.061 0.446,0.119 0.668,0.178 z"
   fill="none" />
		<path
   id="path319"
   d="m 1823.088,1170.657 c -0.255,-0.077 -0.513,-0.156 -0.771,-0.236 0.258,0.08 0.516,0.159 0.771,0.236 z"
   fill="none" />
		<path
   id="path321"
   d="m 1830.381,1172.645 c -0.166,-0.04 -0.328,-0.078 -0.496,-0.119 0.168,0.04 0.33,0.078 0.496,0.119 z"
   fill="none" />
		<path
   id="path323"
   d="m 1829.09,1172.326 c -0.207,-0.053 -0.412,-0.104 -0.623,-0.158 0.211,0.055 0.416,0.105 0.623,0.158 z"
   fill="none" />
		<path
   id="path325"
   d="m 1824.663,1171.124 c -0.243,-0.071 -0.488,-0.143 -0.735,-0.216 0.247,0.073 0.491,0.145 0.735,0.216 z"
   fill="none" />
		<path
   id="path327"
   d="m 1826.196,1171.559 c -0.235,-0.065 -0.472,-0.131 -0.71,-0.198 0.239,0.067 0.475,0.132 0.71,0.198 z"
   fill="none" />
		<path
   id="path329"
   d="m 1850.653,1175 c -0.01,0 -0.015,0 -0.021,0 0.01,0 0.014,0 0.021,0 z"
   fill="none" />
		<path
   id="path331"
   d="m 1894.563,1121.684 c -0.022,-0.01 -0.042,-0.012 -0.063,-0.018 0.021,0.01 0.039,0.011 0.063,0.018 z"
   fill="none" />
		<path
   id="path333"
   d="m 1895.006,1121.782 c -0.021,0 -0.045,-0.01 -0.066,-0.012 0.021,0.01 0.044,0.01 0.066,0.012 z"
   fill="none" />
		<path
   id="path335"
   d="m 1896.181,1121.893 c 0.025,0 0.054,0 0.08,0 -0.048,0 -0.097,0 -0.144,0 0.023,0 0.041,0 0.064,0 z"
   fill="none" />
		<path
   id="path337"
   d="m 1895.531,1121.859 c -0.018,0 -0.032,0 -0.05,-0.01 0.018,0 0.033,0 0.05,0.01 z"
   fill="none" />
		<path
   id="path339"
   d="m 1871.35,1165.992 c -0.102,0.215 -0.203,0.431 -0.318,0.646 0.114,-0.216 0.216,-0.431 0.318,-0.646 z"
   fill="none" />
		<path
   id="path341"
   d="m 1871.813,1164.904 c -0.088,0.233 -0.176,0.467 -0.279,0.703 0.103,-0.236 0.191,-0.469 0.279,-0.703 z"
   fill="none" />
		<path
   id="path343"
   d="m 1807.796,1165.196 c -0.342,-0.139 -0.685,-0.278 -1.031,-0.422 0.346,0.144 0.689,0.284 1.031,0.422 z"
   fill="none" />
		<path
   id="path345"
   d="m 1872.236,1163.602 c -0.085,0.323 -0.187,0.654 -0.303,0.989 0.117,-0.335 0.218,-0.665 0.303,-0.989 z"
   fill="none" />
		<path
   id="path347"
   d="m 1899.293,1121.032 c -0.075,0.045 -0.15,0.089 -0.225,0.13 0.075,-0.041 0.15,-0.085 0.225,-0.13 z"
   fill="none" />
		<path
   id="path349"
   d="m 1899.902,1120.623 c -0.074,0.057 -0.149,0.109 -0.225,0.161 0.076,-0.053 0.151,-0.104 0.225,-0.161 z"
   fill="none" />
		<path
   id="path351"
   d="m 1900.503,1120.115 c -0.064,0.061 -0.13,0.113 -0.195,0.171 0.065,-0.057 0.13,-0.11 0.195,-0.171 z"
   fill="none" />
		<path
   id="path353"
   d="m 1897.986,1121.619 c -0.031,0.01 -0.063,0.022 -0.095,0.031 0.032,-0.01 0.064,-0.021 0.095,-0.031 z"
   fill="none" />
		<path
   id="path355"
   d="m 1897.323,1121.786 c -0.049,0.01 -0.095,0.014 -0.144,0.021 0.05,-0.01 0.095,-0.012 0.144,-0.021 z"
   fill="none" />
		<path
   id="path357"
   d="m 1896.778,1121.861 c -0.06,0.01 -0.116,0.01 -0.175,0.014 0.059,0 0.116,-0.01 0.175,-0.014 z"
   fill="none" />
		<path
   id="path359"
   d="m 1898.672,1121.356 c -0.066,0.03 -0.134,0.063 -0.2,0.09 0.066,-0.027 0.132,-0.059 0.2,-0.09 z"
   fill="none" />
		<path
   id="path361"
   d="m 1870.796,1167.05 c -0.12,0.207 -0.239,0.414 -0.371,0.62 0.132,-0.206 0.251,-0.413 0.371,-0.62 z"
   fill="none" />
		<path
   id="path363"
   d="m 1856.857,1175.165 c -0.535,0.044 -1.095,0.062 -1.661,0.07 0.567,-0.01 1.126,-0.026 1.661,-0.07 z"
   fill="none" />
		<path
   id="path365"
   d="m 1858.79,1174.927 c -0.402,0.067 -0.826,0.112 -1.249,0.159 0.423,-0.047 0.847,-0.092 1.249,-0.159 z"
   fill="none" />
		<path
   id="path367"
   d="m 1860.579,1174.549 c -0.346,0.089 -0.71,0.16 -1.072,0.233 0.363,-0.073 0.726,-0.144 1.072,-0.233 z"
   fill="none" />
		<path
   id="path369"
   d="m 1870.137,1168.092 c -0.139,0.2 -0.277,0.4 -0.429,0.598 0.151,-0.198 0.29,-0.397 0.429,-0.598 z"
   fill="none" />
		<path
   id="path371"
   d="m 1854.738,1175 c 0.014,0 0.025,0 0.038,0 -0.732,0 -1.49,-0.027 -2.276,-0.086 0.771,0.059 1.519,0.086 2.238,0.086 z"
   fill="none" />
		<path
   id="path373"
   d="m 1862.227,1174.045 c -0.307,0.109 -0.63,0.205 -0.952,0.301 0.322,-0.096 0.645,-0.192 0.952,-0.301 z"
   fill="none" />
		<path
   id="path375"
   d="m 1852.5,1175.167 c -0.146,0 -0.308,10e-4 -0.476,0 0.168,0 0.33,0 0.476,0 z"
   fill="none" />
		<path
   id="path377"
   d="m 1851.788,1175.173 c -0.029,10e-4 -0.06,10e-4 -0.09,0 0.031,-10e-4 0.061,-10e-4 0.09,0 z"
   fill="none" />
		<path
   id="path379"
   d="m 1863.737,1173.428 c -0.275,0.127 -0.564,0.245 -0.854,0.361 0.29,-0.116 0.579,-0.234 0.854,-0.361 z"
   fill="none" />
		<path
   id="path381"
   d="m 1868.485,1170.095 c -0.179,0.183 -0.361,0.363 -0.554,0.541 0.193,-0.178 0.376,-0.359 0.554,-0.541 z"
   fill="none" />
		<path
   id="path383"
   d="m 1869.368,1169.11 c -0.157,0.192 -0.318,0.384 -0.489,0.572 0.171,-0.188 0.332,-0.379 0.489,-0.572 z"
   fill="none" />
		<path
   id="path385"
   d="m 1867.485,1171.031 c -0.2,0.172 -0.407,0.34 -0.621,0.505 0.214,-0.165 0.421,-0.333 0.621,-0.505 z"
   fill="none" />
		<path
   id="path387"
   d="m 1865.114,1172.711 c -0.248,0.145 -0.507,0.281 -0.77,0.415 0.263,-0.134 0.522,-0.271 0.77,-0.415 z"
   fill="none" />
		<path
   id="path389"
   d="m 1866.363,1171.908 c -0.224,0.158 -0.456,0.313 -0.693,0.463 0.237,-0.15 0.47,-0.305 0.693,-0.463 z"
   fill="none" />
		<path
   id="path391"
   d="m 1805.746,1164.351 c -0.351,-0.146 -0.703,-0.295 -1.059,-0.446 0.356,0.151 0.709,0.299 1.059,0.446 z"
   fill="none" />
		<path
   id="path393"
   d="m 1778.649,1151.129 c -0.499,-0.275 -1.003,-0.554 -1.508,-0.835 0.505,0.281 1.009,0.56 1.508,0.835 z"
   fill="none" />
		<path
   id="path395"
   d="m 1740.92,1127.778 c -0.76,-0.517 -1.527,-1.044 -2.295,-1.572 0.768,0.528 1.535,1.056 2.295,1.572 z"
   fill="none" />
		<path
   id="path397"
   d="m 1781.307,1152.574 c -0.483,-0.26 -0.969,-0.523 -1.457,-0.789 0.488,0.266 0.973,0.529 1.457,0.789 z"
   fill="none" />
		<path
   id="path399"
   d="m 1744.291,1130.056 c -0.682,-0.457 -1.371,-0.923 -2.061,-1.39 0.69,0.467 1.379,0.933 2.061,1.39 z"
   fill="none" />
		<path
   id="path401"
   d="m 1737.484,1125.424 c -1.151,-0.796 -2.313,-1.603 -3.484,-2.424 1.172,0.821 2.333,1.628 3.484,2.424 z"
   fill="none" />
		<path
   id="path403"
   d="m 1783.92,1153.968 c -0.474,-0.25 -0.949,-0.502 -1.429,-0.758 0.48,0.256 0.954,0.508 1.429,0.758 z"
   fill="none" />
		<path
   id="path405"
   d="m 1786.491,1155.31 c -0.473,-0.244 -0.946,-0.488 -1.425,-0.738 0.479,0.249 0.953,0.493 1.425,0.738 z"
   fill="none" />
		<path
   id="path407"
   d="m 1791.648,1157.911 c -0.529,-0.26 -1.058,-0.521 -1.594,-0.788 0.537,0.268 1.065,0.528 1.594,0.788 z"
   fill="none" />
		<path
   id="path409"
   d="m 1759.617,1037.661 c -0.03,0 -0.065,0 -0.096,0 0.078,0 0.155,10e-4 0.233,10e-4 -0.047,0 -0.089,0 -0.137,0 z"
   fill="none" />
		<path
   id="path411"
   d="m 1794.768,1159.427 c -0.76,-0.362 -1.527,-0.733 -2.305,-1.112 0.777,0.378 1.545,0.749 2.305,1.112 z"
   fill="none" />
		<path
   id="path413"
   d="m 1757.309,1037.73 c 0.047,0 0.092,0 0.138,-0.01 -0.048,0 -0.092,0.01 -0.138,0.01 z"
   fill="none" />
		<path
   id="path415"
   d="m 1763.673,1142.453 c -0.693,-0.42 -1.388,-0.842 -2.09,-1.273 0.702,0.431 1.396,0.853 2.09,1.273 z"
   fill="none" />
		<path
   id="path417"
   d="m 1767.495,1144.751 c -0.964,-0.572 -1.938,-1.155 -2.921,-1.749 0.983,0.594 1.957,1.177 2.921,1.749 z"
   fill="none" />
		<path
   id="path419"
   d="m 1754.08,1136.471 c -0.609,-0.391 -1.222,-0.783 -1.838,-1.181 0.616,0.398 1.229,0.79 1.838,1.181 z"
   fill="none" />
		<path
   id="path421"
   d="m 1775.943,1149.626 c -0.531,-0.298 -1.067,-0.603 -1.605,-0.907 0.538,0.305 1.074,0.609 1.605,0.907 z"
   fill="none" />
		<path
   id="path423"
   d="m 1757.248,1138.48 c -0.606,-0.381 -1.214,-0.764 -1.826,-1.153 0.612,0.389 1.22,0.773 1.826,1.153 z"
   fill="none" />
		<path
   id="path425"
   d="m 1760.41,1140.453 c -0.623,-0.385 -1.245,-0.77 -1.875,-1.163 0.63,0.394 1.252,0.778 1.875,1.163 z"
   fill="none" />
		<path
   id="path427"
   d="m 1747.602,1132.259 c -0.641,-0.423 -1.286,-0.853 -1.934,-1.284 0.647,0.431 1.293,0.861 1.934,1.284 z"
   fill="none" />
		<path
   id="path429"
   d="m 1773.187,1148.065 c -0.587,-0.336 -1.181,-0.68 -1.775,-1.023 0.594,0.344 1.188,0.687 1.775,1.023 z"
   fill="none" />
		<path
   id="path431"
   d="m 1750.865,1134.397 c -0.618,-0.402 -1.24,-0.81 -1.866,-1.22 0.626,0.411 1.248,0.818 1.866,1.22 z"
   fill="none" />
		<path
   id="path433"
   d="m 1770.367,1146.439 c -0.755,-0.44 -1.52,-0.891 -2.287,-1.345 0.768,0.455 1.532,0.905 2.287,1.345 z"
   fill="none" />
		<path
   id="path435"
   d="m 1789.035,1156.608 c -0.481,-0.243 -0.962,-0.485 -1.449,-0.734 0.487,0.249 0.968,0.491 1.449,0.734 z"
   fill="none" />
		<path
   id="path437"
   d="m 1803.655,1163.463 c -0.366,-0.157 -0.735,-0.318 -1.105,-0.479 0.37,0.161 0.739,0.322 1.105,0.479 z"
   fill="none" />
		<path
   id="path439"
   d="m 1797.07,1160.512 c -0.467,-0.218 -0.941,-0.442 -1.414,-0.666 0.473,0.224 0.948,0.448 1.414,0.666 z"
   fill="none" />
		<path
   id="path441"
   d="m 1801.514,1162.529 c -0.385,-0.171 -0.775,-0.346 -1.166,-0.521 0.39,0.176 0.781,0.35 1.166,0.521 z"
   fill="none" />
		<path
   id="path443"
   d="m 1799.319,1161.545 c -0.413,-0.187 -0.831,-0.38 -1.249,-0.572 0.418,0.192 0.836,0.385 1.249,0.572 z"
   fill="none" />
		<path
   id="path445"
   d="m 1761.313,1037.711 c 0.05,0 0.096,0.01 0.146,0.012 -0.051,0 -0.097,-0.01 -0.146,-0.012 z"
   fill="none" />
		<path
   id="path447"
   d="m 1718.292,1120.398 -11.891,2.803 c -68.971,16.246 -231.368,54.396 -249.682,57.747 -0.866,0.159 -1.715,0.312 -2.556,0.462 -0.17,0.031 -0.342,0.062 -0.511,0.092 -0.834,0.148 -1.658,0.293 -2.471,0.434 -0.094,0.017 -0.187,0.032 -0.279,0.048 -0.789,0.136 -1.569,0.269 -2.342,0.396 -0.08,0.014 -0.161,0.027 -0.24,0.04 -0.818,0.136 -1.629,0.267 -2.434,0.394 -0.102,0.017 -0.203,0.032 -0.305,0.048 -1.642,0.258 -3.261,0.499 -4.871,0.723 -0.079,0.011 -0.158,0.022 -0.236,0.033 -1.668,0.23 -3.33,0.442 -5.005,0.638 -0.012,10e-4 -0.024,0 -0.036,0 -0.838,0.098 -1.68,0.19 -2.526,0.279 -0.04,0 -0.08,0.01 -0.12,0.013 -1.699,0.177 -3.422,0.336 -5.188,0.479 -0.029,0 -0.059,0.01 -0.088,0.01 -1.124,0.091 -2.266,0.175 -3.43,0.252 0,0.296 0,0.711 -0.01,0.711 -3.499,0 -7.201,0 -11.243,0 h -10e-4 10e-4 c 4.042,0 7.744,0 11.243,0 0,0 0,-0.415 0.01,-0.711 -3.501,0.232 -7.206,0.406 -11.252,0.522 L 1412,1186 v 1 h 380 v -8.691 c -1.354,-0.417 -2.725,-0.969 -4.107,-1.667 -4.741,-2.396 -7.853,-6.333 -8.914,-11.104 -0.822,0.155 -1.65,0.255 -2.482,0.255 -3.986,0 -7.259,-1.749 -9.648,-3.026 -3.909,-2.088 -6.697,-5.505 -7.853,-9.62 -0.349,-1.245 -0.598,-2.78 -0.592,-4.553 -9.306,-5.679 -18.978,-12.023 -28.994,-19.041 -4.321,-3.029 -7.92,-6.176 -11.118,-9.155 z"
   fill="#6e6ab7" />
		<g
   id="g455">
			<path
   id="path449"
   d="m 1896.181,1121.893 c 0.025,0 0.054,0 0.08,0 -0.048,0 -0.097,0 -0.144,0 0.023,0 0.041,0 0.064,0 z"
   fill="none" />
			<path
   id="path451"
   d="m 1759.617,1037.661 c -0.03,0 -0.065,0 -0.096,0 0.078,0 0.155,10e-4 0.233,10e-4 -0.047,0 -0.089,0 -0.137,0 z"
   fill="none" />
			<path
   id="path453"
   d="m 1855.196,1175.109 c -0.143,0 -0.275,-0.109 -0.42,-0.109 -0.013,0 -0.024,0 -0.038,0 -0.72,0 -1.467,0.098 -2.238,0.041 -0.146,0 -0.308,0.063 -0.476,0.065 -0.077,10e-4 -0.154,0.034 -0.236,0.035 -0.029,10e-4 -0.06,-0.077 -0.09,-0.076 -0.313,0 -0.663,-0.065 -1.045,-0.065 -0.01,0 -0.015,0 -0.021,0 -0.514,0 -1.091,0.1 -1.731,0.091 -0.061,-10e-4 -0.119,0.046 -0.18,0.045 -0.131,0 -0.266,0.019 -0.401,0.016 -0.073,0 -0.146,0.01 -0.221,0.01 -0.135,0 -0.272,0 -0.412,-0.01 -0.086,0 -0.172,0 -0.26,-0.01 -0.136,0 -0.274,-0.01 -0.414,-0.016 -0.097,0 -0.193,-0.01 -0.292,-0.012 -0.143,-0.01 -0.287,-0.013 -0.434,-0.021 0.146,0.01 0.291,0.015 0.434,0.021 0.099,0.01 0.195,0.01 0.292,0.013 0.14,0.01 0.278,0.012 0.414,0.017 0.088,0 0.174,0.01 0.26,0.01 0.139,0 0.277,0.01 0.412,0.012 0.075,0 0.147,0 0.221,0 0.136,0 0.271,0.01 0.401,0.01 0.061,10e-4 0.119,10e-4 0.18,0 0.33,0.01 0.646,-0.087 0.942,-0.087 0.278,0 0.54,-0.098 0.789,-0.098 0.01,0 0.015,0 0.021,0 0.388,0 0.729,0.085 1.045,0.081 0.03,-10e-4 0.061,0.046 0.09,0.045 0.079,-10e-4 0.161,0.021 0.236,0.021 0.168,0 0.33,0.01 0.476,0.01 0.786,0.059 1.544,0.092 2.276,0.091 0.145,-10e-4 0.277,-0.011 0.42,-0.014 0.566,-0.01 1.126,-0.025 1.661,-0.068 -0.535,0.042 -1.094,-0.064 -1.661,-0.056 z"
   fill="#ffffff" />
		</g>
		<path
   id="path457"
   d="m 1748.999,1133.178 c -0.464,-0.305 -0.929,-0.609 -1.397,-0.919 0.468,0.309 0.933,0.614 1.397,0.919 z"
   fill="#ffffff" />
		<path
   id="path459"
   d="m 1899.678,1120.784 c -0.129,0.089 -0.256,0.173 -0.385,0.248 0.129,-0.076 0.256,-0.159 0.385,-0.248 z"
   fill="#ffffff" />
		<path
   id="path461"
   d="m 1866.864,1171.536 c -0.163,0.126 -0.33,0.25 -0.501,0.372 0.171,-0.122 0.338,-0.246 0.501,-0.372 z"
   fill="#ffffff" />
		<path
   id="path463"
   d="m 1868.879,1169.683 c -0.127,0.139 -0.26,0.275 -0.394,0.412 0.134,-0.137 0.267,-0.273 0.394,-0.412 z"
   fill="#ffffff" />
		<path
   id="path465"
   d="m 1867.932,1170.636 c -0.145,0.134 -0.294,0.265 -0.446,0.396 0.152,-0.132 0.301,-0.262 0.446,-0.396 z"
   fill="#ffffff" />
		<path
   id="path467"
   d="m 1859.507,1174.782 c -0.239,0.048 -0.471,0.104 -0.717,0.145 0.247,-0.041 0.478,-0.097 0.717,-0.145 z"
   fill="#ffffff" />
		<path
   id="path469"
   d="m 1755.422,1137.327 c -0.445,-0.283 -0.894,-0.569 -1.342,-0.856 0.448,0.287 0.897,0.573 1.342,0.856 z"
   fill="#ffffff" />
		<path
   id="path471"
   d="m 1862.883,1173.789 c -0.217,0.087 -0.432,0.176 -0.656,0.256 0.224,-0.08 0.439,-0.169 0.656,-0.256 z"
   fill="#ffffff" />
		<path
   id="path473"
   d="m 1865.67,1172.371 c -0.182,0.115 -0.365,0.229 -0.556,0.34 0.191,-0.11 0.374,-0.225 0.556,-0.34 z"
   fill="#ffffff" />
		<path
   id="path475"
   d="m 1745.668,1130.975 c -0.458,-0.305 -0.915,-0.609 -1.377,-0.919 0.462,0.309 0.919,0.614 1.377,0.919 z"
   fill="#ffffff" />
		<path
   id="path477"
   d="m 1861.274,1174.346 c -0.231,0.068 -0.457,0.142 -0.695,0.203 0.239,-0.062 0.464,-0.135 0.695,-0.203 z"
   fill="#ffffff" />
		<path
   id="path479"
   d="m 1901.09,1119.499 c -0.193,0.227 -0.389,0.429 -0.587,0.616 0.198,-0.187 0.393,-0.389 0.587,-0.616 z"
   fill="#ffffff" />
		<path
   id="path481"
   d="m 1900.308,1120.286 c -0.135,0.119 -0.27,0.233 -0.405,0.337 0.136,-0.103 0.27,-0.218 0.405,-0.337 z"
   fill="#ffffff" />
		<path
   id="path483"
   d="m 1864.345,1173.126 c -0.199,0.103 -0.399,0.205 -0.607,0.302 0.207,-0.097 0.407,-0.199 0.607,-0.302 z"
   fill="#ffffff" />
		<path
   id="path485"
   d="m 1752.242,1135.29 c -0.457,-0.296 -0.916,-0.593 -1.377,-0.893 0.461,0.3 0.92,0.597 1.377,0.893 z"
   fill="#ffffff" />
		<path
   id="path487"
   d="m 1761.458,1037.723 c 0.517,0.034 1.011,0.082 1.469,0.15 -0.458,-0.068 -0.952,-0.116 -1.469,-0.15 z"
   fill="#ffffff" />
		<path
   id="path489"
   d="m 1894.939,1121.771 c -0.144,-0.028 -0.271,-0.059 -0.377,-0.087 0.108,0.028 0.233,0.058 0.377,0.087 z"
   fill="#ffffff" />
		<path
   id="path491"
   d="m 1895.481,1121.853 c -0.173,-0.019 -0.331,-0.043 -0.476,-0.07 0.145,0.027 0.304,0.051 0.476,0.07 z"
   fill="#ffffff" />
		<path
   id="path493"
   d="m 1758.535,1139.29 c -0.426,-0.267 -0.857,-0.539 -1.287,-0.81 0.43,0.271 0.861,0.543 1.287,0.81 z"
   fill="#ffffff" />
		<path
   id="path495"
   d="m 1897.892,1121.65 c -0.193,0.057 -0.383,0.101 -0.568,0.136 0.185,-0.035 0.374,-0.079 0.568,-0.136 z"
   fill="#ffffff" />
		<path
   id="path497"
   d="m 1894.5,1121.666 c -0.096,-0.027 -0.182,-0.053 -0.238,-0.072 0.056,0.019 0.141,0.045 0.238,0.072 z"
   fill="#ffffff" />
		<path
   id="path499"
   d="m 1754.926,1037.913 c 0.819,-0.078 1.614,-0.14 2.383,-0.183 -0.769,0.043 -1.564,0.104 -2.383,0.183 z"
   fill="#ffffff" />
		<path
   id="path501"
   d="m 1757.446,1037.725 c 0.719,-0.038 1.412,-0.059 2.075,-0.061 -0.663,0 -1.356,0.023 -2.075,0.061 z"
   fill="#ffffff" />
		<path
   id="path503"
   d="m 1759.755,1037.665 c 0.54,0 1.063,0.016 1.558,0.046 -0.496,-0.03 -1.018,-0.043 -1.558,-0.046 z"
   fill="#ffffff" />
		<path
   id="path505"
   d="m 1808.783,1165.596 c -0.326,-0.13 -0.656,-0.265 -0.987,-0.399 0.331,0.134 0.661,0.269 0.987,0.399 z"
   fill="#ffffff" />
		<path
   id="path507"
   d="m 1897.18,1121.808 c -0.136,0.022 -0.271,0.042 -0.401,0.054 0.13,-0.012 0.265,-0.032 0.401,-0.054 z"
   fill="#ffffff" />
		<path
   id="path509"
   d="m 1896.117,1121.89 c -0.206,0 -0.404,-0.013 -0.586,-0.03 0.182,0.017 0.379,0.027 0.586,0.03 z"
   fill="#ffffff" />
		<path
   id="path511"
   d="m 1870.425,1167.67 c -0.091,0.142 -0.191,0.281 -0.288,0.422 0.096,-0.141 0.197,-0.279 0.288,-0.422 z"
   fill="#ffffff" />
		<path
   id="path513"
   d="m 1742.23,1128.666 c -0.437,-0.296 -0.871,-0.588 -1.311,-0.888 0.44,0.3 0.875,0.592 1.311,0.888 z"
   fill="#ffffff" />
		<path
   id="path515"
   d="m 1848.9,1175.185 c 0.641,0.01 1.218,0.01 1.731,0 -0.249,0 -0.511,0 -0.789,0 -0.295,-10e-4 -0.612,0 -0.942,-0.01 z"
   fill="#ffffff" />
		<path
   id="path517"
   d="m 1899.068,1121.162 c -0.133,0.071 -0.266,0.135 -0.396,0.194 0.132,-0.059 0.264,-0.123 0.396,-0.194 z"
   fill="#ffffff" />
		<path
   id="path519"
   d="m 1871.934,1164.591 c -0.036,0.104 -0.082,0.209 -0.121,0.313 0.039,-0.104 0.084,-0.21 0.121,-0.313 z"
   fill="#ffffff" />
		<path
   id="path521"
   d="m 1871.031,1166.639 c -0.073,0.137 -0.157,0.274 -0.235,0.411 0.079,-0.138 0.162,-0.274 0.235,-0.411 z"
   fill="#ffffff" />
		<path
   id="path523"
   d="m 1896.604,1121.875 c -0.117,0.01 -0.231,0.013 -0.343,0.014 0.111,-10e-4 0.225,-0.01 0.343,-0.014 z"
   fill="#ffffff" />
		<path
   id="path525"
   d="m 1898.472,1121.446 c -0.163,0.066 -0.325,0.123 -0.485,0.173 0.159,-0.05 0.321,-0.106 0.485,-0.173 z"
   fill="#ffffff" />
		<path
   id="path527"
   d="m 1738.625,1126.206 c -0.381,-0.262 -0.758,-0.519 -1.141,-0.782 0.383,0.264 0.76,0.52 1.141,0.782 z"
   fill="#ffffff" />
		<path
   id="path529"
   d="m 1871.533,1165.607 c -0.056,0.128 -0.123,0.256 -0.184,0.385 0.061,-0.129 0.129,-0.257 0.184,-0.385 z"
   fill="#ffffff" />
		<path
   id="path531"
   d="m 1869.708,1168.689 c -0.108,0.142 -0.225,0.281 -0.34,0.421 0.115,-0.139 0.232,-0.279 0.34,-0.421 z"
   fill="#ffffff" />
		<path
   id="path533"
   d="m 1828.467,1172.168 c -0.263,-0.067 -0.531,-0.139 -0.799,-0.21 0.268,0.071 0.536,0.143 0.799,0.21 z"
   fill="#ffffff" />
		<path
   id="path535"
   d="m 1857.541,1175.086 c -0.229,0.025 -0.448,0.061 -0.684,0.079 0.236,-0.019 0.455,-0.054 0.684,-0.079 z"
   fill="#ffffff" />
		<path
   id="path537"
   d="m 1827,1171.78 c -0.265,-0.071 -0.534,-0.146 -0.804,-0.222 0.27,0.076 0.539,0.151 0.804,0.222 z"
   fill="#ffffff" />
		<path
   id="path539"
   d="m 1823.928,1170.908 c -0.277,-0.082 -0.558,-0.166 -0.84,-0.251 0.282,0.085 0.562,0.169 0.84,0.251 z"
   fill="#ffffff" />
		<path
   id="path541"
   d="m 1829.885,1172.525 c -0.261,-0.064 -0.529,-0.133 -0.795,-0.199 0.265,0.067 0.534,0.135 0.795,0.199 z"
   fill="#ffffff" />
		<path
   id="path543"
   d="m 1795.656,1159.846 c -0.297,-0.14 -0.589,-0.276 -0.889,-0.419 0.3,0.142 0.592,0.279 0.889,0.419 z"
   fill="#ffffff" />
		<path
   id="path545"
   d="m 1825.486,1171.36 c -0.271,-0.077 -0.547,-0.156 -0.823,-0.236 0.276,0.08 0.551,0.159 0.823,0.236 z"
   fill="#ffffff" />
		<path
   id="path547"
   d="m 1834.498,1173.553 c -0.231,-0.046 -0.462,-0.092 -0.697,-0.141 0.235,0.049 0.466,0.095 0.697,0.141 z"
   fill="#ffffff" />
		<path
   id="path549"
   d="m 1787.586,1155.874 c -0.362,-0.186 -0.729,-0.376 -1.095,-0.564 0.365,0.188 0.733,0.378 1.095,0.564 z"
   fill="#ffffff" />
		<path
   id="path551"
   d="m 1831.953,1173.011 c -0.515,-0.116 -1.038,-0.238 -1.572,-0.366 0.534,0.127 1.057,0.25 1.572,0.366 z"
   fill="#ffffff" />
		<path
   id="path553"
   d="m 1833.237,1173.292 c -0.239,-0.051 -0.478,-0.101 -0.722,-0.154 0.245,0.053 0.483,0.103 0.722,0.154 z"
   fill="#ffffff" />
		<path
   id="path555"
   d="m 1790.055,1157.123 c -0.337,-0.169 -0.68,-0.344 -1.02,-0.515 0.34,0.171 0.682,0.346 1.02,0.515 z"
   fill="#ffffff" />
		<path
   id="path557"
   d="m 1822.316,1170.421 c -0.284,-0.087 -0.569,-0.176 -0.857,-0.267 0.288,0.091 0.573,0.18 0.857,0.267 z"
   fill="#ffffff" />
		<path
   id="path559"
   d="m 1804.688,1163.904 c -0.342,-0.146 -0.687,-0.292 -1.032,-0.441 0.345,0.149 0.69,0.296 1.032,0.441 z"
   fill="#ffffff" />
		<path
   id="path561"
   d="m 1812.674,1167.109 c -0.298,-0.112 -0.603,-0.229 -0.903,-0.345 0.3,0.116 0.605,0.233 0.903,0.345 z"
   fill="#ffffff" />
		<path
   id="path563"
   d="m 1815.188,1168.033 c -0.471,-0.169 -0.946,-0.343 -1.426,-0.52 0.48,0.177 0.956,0.351 1.426,0.52 z"
   fill="#ffffff" />
		<path
   id="path565"
   d="m 1810.752,1166.374 c -0.313,-0.122 -0.631,-0.248 -0.948,-0.373 0.317,0.125 0.635,0.251 0.948,0.373 z"
   fill="#ffffff" />
		<path
   id="path567"
   d="m 1802.55,1162.983 c -0.344,-0.15 -0.688,-0.301 -1.036,-0.454 0.347,0.154 0.692,0.304 1.036,0.454 z"
   fill="#ffffff" />
		<path
   id="path569"
   d="m 1806.765,1164.774 c -0.337,-0.139 -0.677,-0.28 -1.019,-0.424 0.342,0.144 0.682,0.286 1.019,0.424 z"
   fill="#ffffff" />
		<path
   id="path571"
   d="m 1817.163,1168.731 c -0.289,-0.101 -0.576,-0.198 -0.87,-0.302 0.294,0.104 0.58,0.202 0.87,0.302 z"
   fill="#ffffff" />
		<path
   id="path573"
   d="m 1820.662,1169.899 c -0.29,-0.093 -0.58,-0.186 -0.874,-0.282 0.294,0.097 0.584,0.19 0.874,0.282 z"
   fill="#ffffff" />
		<path
   id="path575"
   d="m 1835.716,1173.789 c -0.224,-0.042 -0.447,-0.084 -0.675,-0.128 0.228,0.044 0.451,0.086 0.675,0.128 z"
   fill="#ffffff" />
		<path
   id="path577"
   d="m 1798.07,1160.973 c -0.333,-0.153 -0.664,-0.305 -1,-0.461 0.336,0.156 0.667,0.307 1,0.461 z"
   fill="#ffffff" />
		<path
   id="path579"
   d="m 1818.94,1169.336 c -0.29,-0.098 -0.58,-0.193 -0.874,-0.293 0.295,0.1 0.584,0.195 0.874,0.293 z"
   fill="#ffffff" />
		<path
   id="path581"
   d="m 1800.348,1162.008 c -0.342,-0.152 -0.683,-0.306 -1.028,-0.463 0.345,0.157 0.686,0.309 1.028,0.463 z"
   fill="#ffffff" />
		<path
   id="path583"
   d="m 1792.463,1158.314 c -0.269,-0.132 -0.544,-0.27 -0.814,-0.403 0.27,0.134 0.545,0.272 0.814,0.403 z"
   fill="#ffffff" />
		<path
   id="path585"
   d="m 1848.099,1175.17 c -0.135,0 -0.273,-0.01 -0.412,-0.012 0.139,0 0.277,0.01 0.412,0.012 z"
   fill="#ffffff" />
		<path
   id="path587"
   d="m 1848.721,1175.183 c -0.131,0 -0.266,0 -0.401,-0.01 0.135,0 0.27,0.01 0.401,0.01 z"
   fill="#ffffff" />
		<path
   id="path589"
   d="m 1768.08,1145.095 c -0.195,-0.115 -0.388,-0.228 -0.585,-0.344 0.197,0.116 0.39,0.228 0.585,0.344 z"
   fill="#ffffff" />
		<path
   id="path591"
   d="m 1771.411,1147.042 c -0.349,-0.201 -0.692,-0.398 -1.044,-0.603 0.352,0.205 0.696,0.402 1.044,0.603 z"
   fill="#ffffff" />
		<path
   id="path593"
   d="m 1846.721,1175.12 c -0.143,-0.01 -0.287,-0.014 -0.434,-0.021 0.147,0.01 0.291,0.014 0.434,0.021 z"
   fill="#ffffff" />
		<path
   id="path595"
   d="m 1847.427,1175.149 c -0.136,0 -0.274,-0.011 -0.414,-0.017 0.139,0.01 0.278,0.013 0.414,0.017 z"
   fill="#ffffff" />
		<path
   id="path597"
   d="m 1851.698,1175.175 c -0.316,0 -0.657,0.01 -1.045,0.013 0.382,0 0.732,-0.01 1.045,-0.013 z"
   fill="#ffffff" />
		<path
   id="path599"
   d="m 1774.338,1148.719 c -0.383,-0.217 -0.765,-0.433 -1.151,-0.653 0.386,0.22 0.768,0.436 1.151,0.653 z"
   fill="#ffffff" />
		<path
   id="path601"
   d="m 1836.887,1174.002 c -0.214,-0.038 -0.43,-0.076 -0.648,-0.115 0.218,0.039 0.434,0.077 0.648,0.115 z"
   fill="#ffffff" />
		<path
   id="path603"
   d="m 1855.196,1175.235 c -0.143,0 -0.275,0.016 -0.42,0.017 0.145,-10e-4 0.278,-0.014 0.42,-0.017 z"
   fill="#ffffff" />
		<path
   id="path605"
   d="m 1852.024,1175.17 c -0.075,10e-4 -0.157,0 -0.236,0 0.082,-10e-4 0.159,0 0.236,0 z"
   fill="#ffffff" />
		<path
   id="path607"
   d="m 1764.574,1143.002 c -0.298,-0.18 -0.602,-0.366 -0.901,-0.549 0.3,0.182 0.603,0.369 0.901,0.549 z"
   fill="#ffffff" />
		<path
   id="path609"
   d="m 1761.583,1141.18 c -0.388,-0.239 -0.782,-0.484 -1.173,-0.727 0.391,0.242 0.785,0.487 1.173,0.727 z"
   fill="#ffffff" />
		<path
   id="path611"
   d="m 1782.491,1153.21 c -0.394,-0.21 -0.788,-0.422 -1.185,-0.636 0.397,0.214 0.792,0.426 1.185,0.636 z"
   fill="#ffffff" />
		<path
   id="path613"
   d="m 1839.108,1174.361 c -0.198,-0.029 -0.401,-0.061 -0.604,-0.092 0.203,0.032 0.406,0.063 0.604,0.092 z"
   fill="#ffffff" />
		<path
   id="path615"
   d="m 1841.162,1174.643 c -0.192,-0.023 -0.391,-0.05 -0.589,-0.076 0.198,0.026 0.397,0.052 0.589,0.076 z"
   fill="#ffffff" />
		<path
   id="path617"
   d="m 1845.986,1175.082 c -0.154,-0.01 -0.31,-0.018 -0.469,-0.027 0.16,0.01 0.315,0.018 0.469,0.027 z"
   fill="#ffffff" />
		<path
   id="path619"
   d="m 1785.066,1154.571 c -0.38,-0.198 -0.764,-0.401 -1.146,-0.604 0.383,0.203 0.767,0.406 1.146,0.604 z"
   fill="#ffffff" />
		<path
   id="path621"
   d="m 1838.018,1174.191 c -0.205,-0.033 -0.413,-0.067 -0.622,-0.103 0.209,0.036 0.417,0.07 0.622,0.103 z"
   fill="#ffffff" />
		<path
   id="path623"
   d="m 1840.159,1174.512 c -0.194,-0.026 -0.394,-0.055 -0.593,-0.084 0.2,0.029 0.399,0.057 0.593,0.084 z"
   fill="#ffffff" />
		<path
   id="path625"
   d="m 1845.214,1175.033 c -0.164,-0.011 -0.328,-0.022 -0.497,-0.035 0.169,0.013 0.333,0.024 0.497,0.035 z"
   fill="#ffffff" />
		<path
   id="path627"
   d="m 1777.142,1150.294 c -0.398,-0.222 -0.796,-0.442 -1.198,-0.668 0.402,0.226 0.799,0.446 1.198,0.668 z"
   fill="#ffffff" />
		<path
   id="path629"
   d="m 1844.401,1174.973 c -0.174,-0.014 -0.347,-0.027 -0.526,-0.043 0.18,0.015 0.353,0.029 0.526,0.043 z"
   fill="#ffffff" />
		<path
   id="path631"
   d="m 1843.566,1174.901 c -0.646,-0.06 -1.326,-0.131 -2.039,-0.216 0.713,0.086 1.393,0.157 2.039,0.216 z"
   fill="#ffffff" />
		<path
   id="path633"
   d="m 1779.85,1151.785 c -0.398,-0.217 -0.798,-0.436 -1.2,-0.656 0.402,0.221 0.801,0.439 1.2,0.656 z"
   fill="#ffffff" />
	</g>
	<g
   id="g655">
		<path
   id="path637"
   d="m 1763.369,1037.94 c -0.187,-0.033 -0.344,-0.058 -0.442,-0.067 -0.458,-0.068 -0.952,-0.116 -1.469,-0.15 -0.05,0 -0.096,-0.01 -0.146,-0.012 -0.495,-0.03 -1.018,-0.043 -1.558,-0.046 -0.048,0 -0.09,0 -0.138,0 -0.03,0 -0.065,0 -0.096,0 -0.663,0 -1.356,0.022 -2.075,0.061 -0.046,0 -0.091,0 -0.138,0.01 -0.769,0.043 -1.563,0.104 -2.383,0.183 -79.887,0.729 -247.621,11.628 -273.236,17.97 -27.146,6.722 -47.808,21.232 -48.013,21.379 l -4.635,-6.521 c 0.441,-0.314 5.904,-4.158 14.812,-8.817 -17.229,-36.38 -22.015,-114.218 -23.344,-155.728 -10.197,2.86 -29.163,7.199 -50.393,7.199 -13.025,0 -26.898,-1.638 -40.117,-6.249 v 77.944 c 2.58,21.589 6.902,52.738 13.291,83.65 14.561,70.447 33.636,109.249 53.711,109.26 0.116,0 0.236,0 0.353,0 25.858,0 37.992,-1.455 56.926,-4.921 18.643,-3.412 195.521,-45 249.287,-57.665 l 16.892,-3.98 c 3.861,3.691 8.154,7.792 13.541,11.566 1.172,0.821 2.333,1.628 3.484,2.424 0.383,0.264 0.76,0.521 1.141,0.782 0.768,0.528 1.535,1.056 2.295,1.572 0.439,0.3 0.874,0.592 1.311,0.888 0.689,0.467 1.379,0.933 2.061,1.39 0.462,0.31 0.919,0.614 1.377,0.919 0.647,0.432 1.293,0.861 1.934,1.284 0.469,0.31 0.934,0.614 1.397,0.919 0.626,0.41 1.248,0.817 1.866,1.22 0.461,0.3 0.92,0.597 1.377,0.893 0.616,0.397 1.229,0.79 1.838,1.181 0.448,0.287 0.896,0.573 1.342,0.856 0.612,0.39 1.22,0.772 1.826,1.153 0.43,0.271 0.861,0.543 1.287,0.81 0.63,0.394 1.252,0.778 1.875,1.163 0.391,0.242 0.785,0.487 1.173,0.727 0.702,0.432 1.396,0.854 2.09,1.273 0.3,0.183 0.604,0.369 0.901,0.549 0.982,0.594 1.957,1.177 2.921,1.749 0.197,0.116 0.39,0.229 0.585,0.344 0.768,0.454 1.532,0.904 2.287,1.345 0.352,0.204 0.695,0.401 1.044,0.603 0.595,0.344 1.188,0.688 1.775,1.023 0.387,0.221 0.769,0.437 1.151,0.653 0.538,0.305 1.074,0.609 1.605,0.907 0.402,0.226 0.8,0.446 1.198,0.668 0.505,0.281 1.009,0.56 1.508,0.835 0.402,0.221 0.802,0.439 1.2,0.656 0.488,0.266 0.974,0.529 1.457,0.789 0.396,0.214 0.791,0.426 1.185,0.636 0.479,0.256 0.955,0.508 1.429,0.758 0.383,0.202 0.767,0.405 1.146,0.604 0.479,0.25 0.952,0.494 1.425,0.738 0.365,0.188 0.732,0.379 1.095,0.564 0.487,0.249 0.968,0.491 1.449,0.734 0.34,0.171 0.683,0.346 1.02,0.515 0.536,0.268 1.064,0.528 1.594,0.788 0.271,0.134 0.546,0.271 0.814,0.403 0.777,0.379 1.545,0.75 2.305,1.112 0.3,0.143 0.592,0.279 0.889,0.419 0.473,0.224 0.947,0.448 1.414,0.666 0.336,0.156 0.667,0.308 1,0.461 0.418,0.192 0.836,0.386 1.249,0.572 0.346,0.157 0.687,0.311 1.028,0.463 0.391,0.176 0.781,0.351 1.166,0.521 0.348,0.153 0.692,0.304 1.036,0.454 0.37,0.161 0.739,0.322 1.105,0.479 0.346,0.149 0.69,0.296 1.032,0.441 0.355,0.151 0.708,0.3 1.059,0.446 0.342,0.144 0.682,0.285 1.019,0.424 0.347,0.144 0.689,0.283 1.031,0.422 0.331,0.135 0.661,0.27 0.987,0.399 0.344,0.138 0.682,0.271 1.021,0.405 0.317,0.125 0.636,0.251 0.948,0.373 0.344,0.133 0.68,0.261 1.019,0.391 0.301,0.115 0.605,0.232 0.903,0.345 0.367,0.139 0.727,0.271 1.089,0.404 0.479,0.177 0.955,0.351 1.426,0.52 0.369,0.133 0.741,0.268 1.104,0.396 0.294,0.104 0.581,0.201 0.87,0.302 0.302,0.104 0.605,0.21 0.903,0.312 0.294,0.1 0.584,0.195 0.874,0.293 0.284,0.095 0.568,0.189 0.848,0.281 0.294,0.097 0.584,0.189 0.874,0.282 0.267,0.086 0.533,0.172 0.797,0.255 0.288,0.091 0.573,0.18 0.857,0.267 0.259,0.08 0.517,0.159 0.771,0.236 0.282,0.085 0.563,0.169 0.84,0.251 0.247,0.073 0.492,0.145 0.735,0.216 0.276,0.08 0.552,0.159 0.823,0.236 0.238,0.067 0.475,0.133 0.71,0.198 0.27,0.075 0.539,0.15 0.804,0.222 0.226,0.061 0.446,0.119 0.668,0.178 0.268,0.071 0.536,0.143 0.799,0.21 0.211,0.055 0.416,0.105 0.623,0.158 0.266,0.066 0.534,0.135 0.795,0.199 0.168,0.041 0.33,0.079 0.496,0.119 0.534,0.128 1.058,0.25 1.572,0.366 0.188,0.042 0.377,0.086 0.563,0.127 0.244,0.054 0.482,0.104 0.722,0.154 0.188,0.04 0.378,0.082 0.563,0.12 0.235,0.049 0.466,0.095 0.697,0.141 0.182,0.037 0.364,0.073 0.543,0.108 0.228,0.044 0.451,0.086 0.675,0.128 0.175,0.033 0.351,0.065 0.522,0.098 0.219,0.039 0.435,0.077 0.648,0.115 0.171,0.029 0.341,0.059 0.509,0.087 0.209,0.035 0.417,0.069 0.622,0.103 0.163,0.027 0.325,0.053 0.486,0.078 0.203,0.031 0.406,0.063 0.604,0.092 0.154,0.023 0.306,0.045 0.458,0.066 0.199,0.029 0.398,0.058 0.593,0.084 0.141,0.02 0.276,0.037 0.414,0.055 0.198,0.026 0.396,0.053 0.589,0.076 0.124,0.016 0.244,0.029 0.365,0.043 0.713,0.085 1.393,0.156 2.039,0.216 0.103,0.01 0.208,0.02 0.309,0.028 0.18,0.016 0.353,0.029 0.526,0.043 0.105,0.01 0.212,0.018 0.315,0.025 0.169,0.013 0.333,0.024 0.497,0.035 0.102,0.01 0.204,0.015 0.304,0.021 0.159,0.01 0.314,0.019 0.469,0.027 0.101,0.01 0.201,0.012 0.301,0.017 0.146,0.01 0.291,0.015 0.434,0.021 0.099,0.01 0.195,0.01 0.292,0.012 0.14,0.01 0.278,0.011 0.414,0.017 0.088,0 0.174,0 0.26,0.01 0.139,0 0.277,0.01 0.412,0.01 0.075,0 0.147,0 0.221,-10e-4 0.136,0 0.271,-0.01 0.401,0 0.061,0 0.119,-0.022 0.18,-0.021 0.33,0.01 0.646,-0.04 0.942,-0.04 0.278,0 0.54,-0.098 0.789,-0.098 0.01,0 0.015,0 0.021,0 0.388,0 0.729,0.085 1.045,0.081 0.03,-10e-4 0.061,0.093 0.09,0.092 0.079,-10e-4 0.161,0 0.236,0 0.168,0 0.33,0 0.476,0 0.786,0.059 1.544,0.086 2.276,0.085 0.145,-10e-4 0.277,-0.014 0.42,-0.017 0.566,-0.01 1.126,-0.026 1.661,-0.07 0.235,-0.019 0.454,-0.054 0.684,-0.079 0.423,-0.047 0.847,-0.092 1.249,-0.159 0.246,-0.041 0.478,-0.097 0.717,-0.145 0.362,-0.073 0.727,-0.145 1.072,-0.233 0.238,-0.062 0.464,-0.135 0.695,-0.203 0.322,-0.096 0.646,-0.191 0.952,-0.301 0.225,-0.08 0.439,-0.169 0.656,-0.256 0.29,-0.116 0.579,-0.234 0.854,-0.361 0.208,-0.097 0.408,-0.199 0.607,-0.302 0.263,-0.134 0.521,-0.271 0.77,-0.415 0.19,-0.11 0.374,-0.225 0.556,-0.34 0.237,-0.15 0.47,-0.305 0.693,-0.463 0.171,-0.122 0.338,-0.246 0.501,-0.372 0.214,-0.165 0.421,-0.333 0.621,-0.505 0.152,-0.131 0.302,-0.262 0.446,-0.396 0.192,-0.178 0.375,-0.358 0.554,-0.541 0.134,-0.137 0.267,-0.273 0.394,-0.412 0.171,-0.188 0.332,-0.38 0.489,-0.572 0.115,-0.14 0.231,-0.279 0.34,-0.421 0.151,-0.197 0.29,-0.397 0.429,-0.598 0.097,-0.141 0.197,-0.28 0.288,-0.422 0.132,-0.206 0.251,-0.413 0.371,-0.62 0.078,-0.137 0.162,-0.274 0.235,-0.411 0.115,-0.216 0.217,-0.432 0.318,-0.646 0.061,-0.129 0.128,-0.257 0.184,-0.385 0.104,-0.236 0.191,-0.47 0.279,-0.703 0.039,-0.104 0.085,-0.21 0.121,-0.313 0.116,-0.335 0.218,-0.666 0.303,-0.989 -0.482,-0.747 -1.574,-1.305 -3.027,-1.79 -0.031,-0.01 -0.209,-0.021 -0.209,-0.024 v 0 c -1,-0.535 -3.641,-0.985 -6.149,-1.511 -6.185,-1.294 -14.439,-3.053 -24.251,-7.91 l 1.431,-2.639 c 9.444,4.652 17.562,6.357 23.564,7.612 2.592,0.543 4.766,1.01 6.552,1.595 v -0.011 c 0.049,0.016 3.131,0.957 6.921,1.415 7.458,-0.935 11.257,-7.211 11.061,-12.68 -0.484,-1.162 -1.211,-2.207 -2.295,-2.922 -1.629,-1.074 -5.042,-1.914 -9.358,-2.978 -7.031,-1.733 -16.431,-4.057 -27.094,-9.28 l 1.429,-2.634 c 10.327,5.043 19.463,7.31 26.329,9.001 3.275,0.807 5.857,1.464 7.857,2.233 v 0 c 0,0.017 2.904,0.988 6.144,1 4.883,-3.093 6.961,-10.188 4.238,-16.302 -0.22,-0.198 -0.444,-0.39 -0.685,-0.56 -0.389,-0.274 -0.883,-0.548 -1.476,-0.8 -0.032,-0.015 -0.068,-0.03 -0.101,-0.044 -0.062,-0.025 -0.112,-0.045 -0.135,-0.055 -0.011,0 -0.019,-0.012 -0.029,-0.017 -10.183,-4.419 -32.375,-14.026 -34.826,-14.882 l 0.988,-2.832 c 2.581,0.9 24.96,10.59 35.143,15.01 0.057,0.02 0.143,0.045 0.238,0.072 0.021,0.01 0.04,0.012 0.063,0.018 0.106,0.028 0.233,0.059 0.377,0.087 0.021,0 0.045,0.01 0.066,0.012 0.145,0.027 0.303,0.052 0.476,0.07 0.018,0 0.032,0.01 0.05,0.01 0.182,0.018 0.38,0.027 0.586,0.03 0.022,0 0.041,0 0.063,0 0.025,0 0.054,0 0.08,0 0.111,-10e-4 0.226,-0.01 0.343,-0.014 0.059,0 0.115,-0.01 0.175,-0.014 0.131,-0.012 0.266,-0.031 0.401,-0.054 0.049,-0.01 0.095,-0.013 0.144,-0.021 0.186,-0.035 0.375,-0.079 0.568,-0.136 0.031,-0.01 0.063,-0.021 0.095,-0.031 0.16,-0.05 0.322,-0.106 0.485,-0.173 0.066,-0.027 0.134,-0.06 0.2,-0.09 0.131,-0.06 0.264,-0.123 0.396,-0.194 0.074,-0.041 0.149,-0.085 0.225,-0.13 0.129,-0.075 0.256,-0.159 0.385,-0.248 0.075,-0.052 0.15,-0.104 0.225,-0.161 0.136,-0.104 0.271,-0.218 0.405,-0.337 0.065,-0.058 0.131,-0.11 0.195,-0.171 0.198,-0.188 0.394,-0.39 0.587,-0.616 1.909,-2.24 3.509,-4.304 3.852,-6.544 0.017,-0.112 0.028,-0.226 0.039,-0.339 0.017,-0.182 0.028,-0.364 0.028,-0.548 0,-0.105 -0.01,-0.21 -0.013,-0.315 -0.012,-0.198 -0.029,-0.398 -0.063,-0.601 -0.016,-0.092 -0.037,-0.186 -0.057,-0.278 -0.047,-0.22 -0.102,-0.44 -0.175,-0.665 -0.026,-0.078 -0.058,-0.157 -0.087,-0.236 -0.09,-0.243 -0.19,-0.488 -0.314,-0.738 -0.03,-0.063 -0.066,-0.126 -0.1,-0.188 -0.143,-0.271 -0.299,-0.543 -0.481,-0.821 -0.03,-0.046 -0.064,-0.092 -0.095,-0.137 -0.203,-0.299 -0.425,-0.602 -0.678,-0.912 -0.023,-0.028 -0.051,-0.057 -0.074,-0.086 -0.271,-0.328 -0.568,-0.662 -0.9,-1.004 -0.012,-0.012 -0.025,-0.024 -0.037,-0.036 -0.349,-0.358 -0.729,-0.724 -1.146,-1.098 -11.042,-9.894 -45.32,-29.077 -77.848,-44.441 -1.472,-0.704 -2.94,-1.396 -4.407,-2.084 -14.97,13.376 -20.7,26.406 -29.316,22.781 -4.954,-2.084 -5.217,-7.54 -4.551,-11.708 0.354,-2.215 4.099,-12.01 10.333,-21.402 -3.892,-1.574 -7.668,-3.033 -11.249,-4.315 -8.303,-3.028 -15.353,-5.11 -20.378,-5.84 z"
   fill="none" />
		<path
   id="path639"
   d="m 1903.72,1108.225 c 0.183,0.278 0.339,0.551 0.481,0.821 -0.141,-0.27 -0.299,-0.543 -0.481,-0.821 z"
   fill="#ffffff" />
		<path
   id="path641"
   d="m 1904.702,1110.209 c 0.073,0.225 0.128,0.445 0.175,0.665 -0.046,-0.22 -0.102,-0.44 -0.175,-0.665 z"
   fill="#ffffff" />
		<path
   id="path643"
   d="m 1902.947,1107.176 c 0.253,0.311 0.475,0.613 0.678,0.912 -0.203,-0.299 -0.426,-0.602 -0.678,-0.912 z"
   fill="#ffffff" />
		<path
   id="path645"
   d="m 1901.973,1106.086 c 0.332,0.342 0.629,0.676 0.9,1.004 -0.271,-0.328 -0.569,-0.662 -0.9,-1.004 z"
   fill="#ffffff" />
		<path
   id="path647"
   d="m 1818.793,1058.547 c -0.086,-0.041 -0.172,-0.08 -0.258,-0.121 0,0 0,0 -10e-4,10e-4 1.467,0.688 2.936,1.38 4.407,2.084 z"
   fill="#ffffff" />
		<path
   id="path649"
   d="m 1900.789,1104.952 c 0.418,0.374 0.798,0.739 1.146,1.098 -0.348,-0.359 -0.728,-0.724 -1.146,-1.098 z"
   fill="#ffffff" />
		<path
   id="path651"
   d="m 1904.934,1111.152 c 0.033,0.202 0.051,0.402 0.063,0.601 -0.013,-0.198 -0.03,-0.399 -0.063,-0.601 z"
   fill="#ffffff" />
		<path
   id="path653"
   d="m 1905.009,1112.068 c 0,0.184 -0.012,0.366 -0.028,0.548 0.017,-0.181 0.028,-0.364 0.028,-0.548 z"
   fill="#ffffff" />
	</g>
	<path
   id="path657"
   d="m 1836.967,1133.393 c -0.457,-0.202 -0.941,-0.296 -1.443,-0.296 -1.626,0 -3.443,0.982 -5.152,2.436 -1.216,1.034 -2.377,2.304 -3.371,3.636 -6.107,9.168 -8.764,16.554 -16.25,29.832 -0.805,1.611 -0.896,3.209 -0.496,4.695 0.713,2.643 3,4.933 5.746,6.306 1.91,0.955 3.734,1.419 5.412,1.419 1.665,0 3.178,-0.472 4.496,-1.355 1.064,-0.715 2.004,-1.691 2.772,-2.949 7.47,-15.72 11.813,-25.934 12.958,-32.652 1.023,-6.013 -0.513,-9.227 -4.672,-11.072 z"
   fill="#7d4e5b" />
	<path
   id="path659"
   d="m 1823.013,1131.495 c 0.373,-3.284 -0.561,-5.898 -3.219,-7.598 -1.324,-0.845 -2.821,-1.358 -4.392,-1.358 -2.028,0 -4.178,0.856 -6.235,2.962 -0.195,0.199 -0.384,0.415 -0.576,0.619 -4.001,4.247 -7.555,9.579 -11.628,15.467 -2.589,3.743 -9.13,14.743 -9.13,14.743 0,0 -1.244,2.45 -1.267,5.385 -0.021,2.692 0.986,5.792 4.934,7.786 2.454,1.239 4.545,1.737 6.327,1.737 1.722,0 3.146,-0.473 4.34,-1.18 3.126,-1.852 4.621,-5.36 5.343,-6.581 2.691,-4.722 8.124,-13.938 13.726,-25.888 0.957,-2.215 1.569,-4.258 1.777,-6.094 z"
   fill="#7d4e5b" />
	<path
   id="path661"
   d="m 1851.5,1149.4 c -0.438,-0.1 -0.857,-0.146 -1.26,-0.146 -0.552,0 -1.063,0.101 -1.548,0.259 -1.739,0.568 -3.053,2.035 -3.933,3.662 -1.778,3.964 -6.301,13.673 -10.301,22.399 0,0 -1.79,3.503 0.609,6.384 0.85,1.021 2.221,1.964 4.389,2.645 0.893,0.28 2.11,0.561 3.365,0.561 2.259,0 4.64,-0.906 5.471,-4.345 5.392,-15.624 9.541,-29.985 3.208,-31.419 z"
   fill="#7d4e5b" />
	<path
   id="path663"
   d="m 1799.171,1129.022 c 1.06,-2.043 1.687,-4.308 1.824,-6.421 0.216,-3.317 -0.782,-6.263 -3.273,-7.38 -1.046,-0.469 -2.093,-0.702 -3.155,-0.702 -6.614,0 -13.871,9.029 -25.732,26.48 -4.084,6.922 -2.75,12.288 1.783,14.71 2.175,1.162 4.001,2.082 5.879,2.082 0.851,0 1.715,-0.204 2.625,-0.645 1.268,-0.614 2.625,-1.701 4.18,-3.464 5.756,-9.229 5.598,-8.842 9.014,-14.103 6.855,-10.557 5.458,-7.865 6.855,-10.557 z"
   fill="#7d4e5b" />
	<path
   id="path665"
   d="M 1822.813,1060.511"
   fill="#7d4e5b" />
	<path
   sodipodi:nodetypes="ccscccccccsccccc"
   id="path667"
   d="M 1899.8019,1026.2395 1881,1037.061 c 0,0 -51.355,-10.638 -64.333,-7.393 -6.148,1.537 -11.64,5.936 -16.271,11.287 0,-10e-4 0,0 0,0 -0.066,0.078 -3.828,4.516 -5.135,6.551 -6.234,9.393 -9.979,19.188 -10.333,21.402 -0.666,4.168 -0.403,9.624 4.551,11.708 8.077,3.397 13.618,-7.839 26.609,-20.276 0.834,-0.775 4.592,-4.008 11.642,-6.411 29.07,13.808 65.568,33.567 78.403,45.067 2.693,2.413 4.595,4.926 5.71,7.518 2.893,-2.837 5.595,-5.705 7.496,-8.177 2.8113,-3.6545 71.1514,-22.2627 71.1514,-22.2627 l 0.066,-116.03125 z"
   fill="#7d4e5b" />
	<g
   id="g675">
		<path
   id="path669"
   d="m 1827.725,1053.927 c 29.07,13.808 65.568,33.567 78.403,45.067 2.693,2.413 4.595,4.926 5.71,7.518 2.893,-2.837 5.095,-5.705 6.996,-8.177 5.388,-7.004 112.166,-34.887 170.166,-40.892 V 960 959.844 c -51,19.648 -166.382,80.491 -183.315,80.491 -6.151,0 -14.89,-1.427 -24.935,-3.274 -18.561,-3.415 -40.664,-8.276 -55.29,-8.277 -3.433,0 -6.451,0.268 -8.918,0.885 -6.148,1.537 -11.577,5.936 -16.209,11.287 0,-10e-4 0.024,0 0.026,0 -0.066,0.079 -3.813,4.516 -5.119,6.551 -0.121,0.183 -0.234,0.365 -0.354,0.548 7.521,3.04 15.517,6.562 23.646,10.374 1.941,-1.329 4.973,-3.062 9.193,-4.5 z"
   fill="none" />
		<path
   id="path671"
   d="m 1848.319,1073.088 c 0.509,0.264 1.018,0.527 1.524,0.792 -0.507,-0.265 -1.015,-0.528 -1.524,-0.792 z"
   fill="none" />
		<path
   id="path673"
   d="m 1850.464,1074.203 c 22.575,11.805 42.414,23.661 50.325,30.749 -8.6,-7.705 -29.072,-19.656 -50.325,-30.749 z"
   fill="none" />
	</g>
	<path
   id="path677"
   d="m 1900.789,1104.952 c -7.911,-7.088 -27.75,-18.944 -50.325,-30.749 -0.207,-0.107 -0.414,-0.216 -0.62,-0.323 -0.507,-0.265 -1.016,-0.528 -1.524,-0.792 -7.064,-3.659 -14.173,-7.205 -20.923,-10.451 -3.668,1.633 -5.578,3.297 -5.841,3.535 -3.513,3.368 -6.515,6.718 -9.165,9.675 -6.437,7.181 -11.994,13.382 -20.036,13.382 -2.016,0 -4.03,-0.417 -5.986,-1.24 -7.396,-3.11 -10.892,-10.716 -9.353,-20.346 0.341,-2.128 1.858,-6.427 4.24,-11.494 l 6.86,-10.757 c -1.481,-0.56 -2.938,-1.099 -4.365,-1.609 -8.307,-3.03 -15.357,-5.112 -20.382,-5.842 -0.187,-0.033 -0.344,-0.058 -0.442,-0.067 -0.458,-0.068 -0.952,-0.116 -1.469,-0.15 -0.05,0 -0.096,-0.01 -0.146,-0.012 -0.495,-0.03 -1.018,-0.043 -1.558,-0.046 -0.078,0 -0.155,-10e-4 -0.233,-10e-4 -0.663,0 -1.356,0.022 -2.075,0.061 -0.046,0 -0.091,0 -0.138,0.01 -0.769,0.043 -1.563,0.104 -2.383,0.183 -79.887,0.729 -247.621,11.628 -273.236,17.97 -27.146,6.722 -47.808,21.232 -48.013,21.379 l -4.635,-6.521 c 0.441,-0.314 5.904,-4.158 14.812,-8.817 -17.229,-36.38 -22.015,-114.218 -23.344,-155.728 -10.197,2.86 -29.163,7.199 -50.393,7.199 -13.025,0 -26.898,-1.638 -40.117,-6.249 v 77.944 c 2.58,21.589 6.902,52.738 13.291,83.65 14.561,70.447 33.636,109.249 53.711,109.26 0.116,0 0.236,0 0.353,0 25.858,0 37.992,-1.455 56.926,-4.921 18.643,-3.412 195.521,-45 249.287,-57.665 l 16.892,-3.98 c 3.861,3.691 8.154,7.792 13.541,11.566 1.172,0.821 2.333,1.628 3.484,2.424 0.383,0.264 0.76,0.521 1.141,0.782 0.768,0.528 1.535,1.056 2.295,1.572 0.439,0.3 0.874,0.592 1.311,0.888 0.689,0.467 1.379,0.933 2.061,1.39 0.462,0.31 0.919,0.614 1.377,0.919 0.647,0.432 1.293,0.861 1.934,1.284 0.469,0.31 0.934,0.614 1.397,0.919 0.626,0.41 1.248,0.817 1.866,1.22 0.461,0.3 0.92,0.597 1.377,0.893 0.616,0.397 1.229,0.79 1.838,1.181 0.448,0.287 0.896,0.573 1.342,0.856 0.612,0.39 1.22,0.772 1.826,1.153 0.43,0.271 0.861,0.543 1.287,0.81 0.566,0.354 1.126,0.7 1.686,1.046 0.467,-1.093 1.028,-2.225 1.723,-3.401 l 0.131,-0.22 0.144,-0.212 c 12.31,-18.111 21.212,-29.983 32.349,-29.983 2.189,0 4.352,0.472 6.429,1.402 3.554,1.594 6.05,4.563 7.239,8.389 2.698,-1.396 5.232,-1.771 7.168,-1.771 3.007,0 6.014,0.904 8.7,2.618 3.383,2.162 5.586,5.234 6.502,8.927 1.635,-0.649 3.277,-0.987 4.919,-0.987 1.636,0 3.21,0.329 4.688,0.983 4.641,2.059 9.72,6.346 9.711,15.188 0.105,0 0.212,-0.013 0.317,-0.013 1.009,0 2.03,0.116 3.026,0.343 3.256,0.737 5.949,2.76 7.583,5.694 1.487,2.672 2.033,5.882 1.796,9.847 0.32,0.067 0.64,0.135 0.949,0.199 2.592,0.543 4.766,1.01 6.552,1.595 v -0.011 c 0.049,0.016 3.131,0.957 6.921,1.415 7.458,-0.935 11.257,-7.211 11.061,-12.68 -0.484,-1.162 -1.211,-2.207 -2.295,-2.922 -1.629,-1.074 -5.042,-1.914 -9.358,-2.978 -7.031,-1.733 -16.431,-4.057 -27.094,-9.28 l 1.429,-2.634 c 10.327,5.043 19.463,7.31 26.329,9.001 3.275,0.807 5.857,1.464 7.857,2.233 v 0 c 0,0.017 2.904,0.988 6.144,1 4.883,-3.093 6.961,-10.188 4.238,-16.302 -0.22,-0.198 -0.444,-0.39 -0.685,-0.56 -0.389,-0.274 -0.883,-0.548 -1.476,-0.8 -0.032,-0.015 -0.068,-0.03 -0.101,-0.044 -0.062,-0.025 -0.112,-0.045 -0.135,-0.055 -0.011,-0.01 -0.019,-0.012 -0.029,-0.017 -10.183,-4.419 -32.375,-14.026 -34.826,-14.882 l 0.988,-2.832 c 2.581,0.9 24.96,10.59 35.143,15.01 0.057,0.02 0.143,0.045 0.238,0.072 0.021,0.01 0.04,0.012 0.063,0.018 0.106,0.028 0.233,0.059 0.377,0.087 0.021,0.01 0.045,0.01 0.066,0.012 0.145,0.027 0.303,0.052 0.476,0.07 0.018,0 0.032,0 0.05,0.01 0.182,0.018 0.38,0.027 0.586,0.03 0.047,0 0.096,0 0.144,-10e-4 0.111,0 0.226,-0.01 0.343,-0.014 0.059,0 0.115,-0.01 0.175,-0.014 0.131,-0.012 0.266,-0.031 0.401,-0.054 0.049,-0.01 0.095,-0.013 0.144,-0.021 0.186,-0.035 0.375,-0.079 0.568,-0.136 0.031,-0.01 0.063,-0.021 0.095,-0.031 0.16,-0.05 0.322,-0.106 0.485,-0.173 0.066,-0.027 0.134,-0.06 0.2,-0.09 0.131,-0.06 0.264,-0.123 0.396,-0.194 0.074,-0.041 0.149,-0.085 0.225,-0.13 0.129,-0.075 0.256,-0.159 0.385,-0.248 0.075,-0.052 0.15,-0.104 0.225,-0.161 0.136,-0.104 0.271,-0.218 0.405,-0.337 0.065,-0.058 0.131,-0.11 0.195,-0.171 0.198,-0.188 0.394,-0.39 0.587,-0.616 2.801,-3.287 4.933,-6.193 3.393,-9.838 -0.657,-1.516 -1.899,-3.1 -3.696,-4.71 z"
   fill="#f2c3b1" />
	<g
   id="g681">
		<path
   id="path679"
   d="m 1223.86,933.278 c 6.326,-16.745 23.359,-33.748 46.34,-59.313 l -49.674,10.864 c 1.276,17.423 2.571,35.775 3.334,48.449 z"
   fill="#f2c3b1"
   style="fill:#c68642;fill-opacity:1" />
	</g>
</g>
<g
   transform="translate(-738,-227.499)"
   display="none"
   id="Calque_3">
	<path
   id="path684"
   d="m 1906.185,1040.335 c -6.151,0 -15.14,-1.427 -25.185,-3.274 -22.916,-4.217 -51.355,-10.638 -64.333,-7.393 -6.34,1.585 -11.984,6.21 -16.705,11.787 -1.791,2.116 -3.451,4.366 -4.962,6.643 -6.234,9.393 -9.979,19.188 -10.333,21.402 -0.666,4.168 -0.403,9.624 4.551,11.708 8.616,3.625 14.347,-9.405 29.317,-22.782 0.086,0.041 0.172,0.08 0.258,0.121 l 4.148,1.964 c 32.527,15.364 66.806,34.548 77.848,44.441 3.5,3.136 4.511,5.669 4.151,8.009 5.028,-4.516 10.992,-10.204 14.394,-14.626 5.388,-7.004 112.493,-34.887 170.666,-40.892 v -97.755 c -51.285,19.648 -166.882,80.647 -183.815,80.647 z"
   fill="#7d4e5b"
   display="inline" />
</g>
</svg>
