<?xml version="1.0" encoding="UTF-8" standalone="no"?>
<!-- Generator: Adobe Illustrator 22.1.0, SVG Export Plug-In . SVG Version: 6.00 Build 0)  -->

<svg
   xmlns:dc="http://purl.org/dc/elements/1.1/"
   xmlns:cc="http://creativecommons.org/ns#"
   xmlns:rdf="http://www.w3.org/1999/02/22-rdf-syntax-ns#"
   xmlns:svg="http://www.w3.org/2000/svg"
   xmlns="http://www.w3.org/2000/svg"
   xmlns:sodipodi="http://sodipodi.sourceforge.net/DTD/sodipodi-0.dtd"
   xmlns:inkscape="http://www.inkscape.org/namespaces/inkscape"
   version="1.1"
   x="0px"
   y="0px"
   viewBox="0 0 283.60001 202.9"
   xml:space="preserve"
   id="svg2"
   inkscape:version="0.91 r13725"
   sodipodi:docname="ministere-economie-et-finances.svg"
   width="283.60001"
   height="202.89999"><metadata
     id="metadata18"><rdf:RDF><cc:Work
         rdf:about=""><dc:format>image/svg+xml</dc:format><dc:type
           rdf:resource="http://purl.org/dc/dcmitype/StillImage" /><dc:title></dc:title></cc:Work></rdf:RDF></metadata><defs
     id="defs16" /><sodipodi:namedview
     pagecolor="#ffffff"
     bordercolor="#666666"
     borderopacity="1"
     objecttolerance="10"
     gridtolerance="10"
     guidetolerance="10"
     inkscape:pageopacity="0"
     inkscape:pageshadow="2"
     inkscape:window-width="1215"
     inkscape:window-height="1000"
     id="namedview14"
     showgrid="false"
     fit-margin-top="0"
     fit-margin-left="0"
     fit-margin-right="0"
     fit-margin-bottom="0"
     inkscape:zoom="0.95857028"
     inkscape:cx="-103.75084"
     inkscape:cy="101.6"
     inkscape:window-x="65"
     inkscape:window-y="24"
     inkscape:window-maximized="1"
     inkscape:current-layer="svg2" /><style
     type="text/css"
     id="style4">
	.st0{fill:#FFFFFF;}
	.st1{fill:#000091;}
	.st2{fill:#E1000F;}
	.st3{fill:#9C9B9B;}
</style><g
     id="Calque_1"
     transform="translate(-30.2,-21.8)"><path
       id="DEVISE_REPUBLICAINE"
       d="m 103.9,216.9 c 0.6,0 1.1,0.5 0.9,1.6 l -2.8,0.6 c 0.4,-1.2 1.3,-2.2 1.9,-2.2 m 1.6,4.6 -0.6,0 c -0.7,0.9 -1.5,1.5 -2.2,1.5 -0.7,0 -1.2,-0.5 -1.2,-1.5 0,-0.4 0,-0.9 0.1,-1.2 l 4.6,-1.5 c 0.9,-2.1 -0.1,-3.1 -1.5,-3.1 -2.2,0 -4.7,3.6 -4.7,6.8 0,1.5 0.7,2.2 1.7,2.2 1.5,0 2.7,-1.3 3.8,-3.2 m -1,-6.7 3.2,-3 0,-0.4 -1.7,0 -2,3.3 0.5,0 z m -9.9,2.1 1.5,0 -2.5,6.7 c -0.2,0.6 0.1,1.1 0.6,1.1 1.4,0 3.6,-1.4 4.3,-3.2 l -0.4,0 c -0.6,0.6 -1.9,1.5 -2.8,1.7 l 2.2,-6.2 2.2,0 0.2,-1 -2.2,0 0.9,-2.3 -0.9,0 -1.6,2.3 -1.9,0.2 0,0.6 0.4,0 z m -1.9,-0.3 c 0.1,-0.6 -0.2,-1 -0.5,-1 -1.4,0 -2.8,1.2 -3.6,2.8 l 0.4,0 c 0.4,-0.6 1.1,-1.2 1.9,-1.4 l -2.6,6.6 c -0.2,0.6 0.2,1 0.5,1 1.2,0 2.7,-1.2 3.3,-2.8 l -0.4,0 c -0.4,0.6 -1.1,1.2 -1.9,1.4 l 2.9,-6.6 z m 0.3,-3.3 c 0.6,0 1.1,-0.5 1.1,-1.1 0,-0.6 -0.5,-1.1 -1.1,-1.1 -0.6,0 -1.1,0.5 -1.1,1.1 0,0.6 0.5,1.1 1.1,1.1 m -14.5,10.1 c -0.4,0.7 0,1.2 0.7,1.2 0.5,0 0.6,-0.1 0.9,-0.6 l 1.7,-4.7 c 0.9,-1 2.5,-2.1 3.2,-2.1 0.5,0 0.4,0.4 0.1,1 l -2.7,5.2 c -0.2,0.5 0.1,1.1 0.6,1.1 1.4,0 3,-1.2 3.6,-2.8 l -0.4,0 c -0.4,0.6 -1.1,1.2 -1.9,1.4 l 2.3,-4.7 c 0.2,-0.6 0.5,-1.1 0.5,-1.6 0,-0.7 -0.4,-1.2 -1.2,-1.2 -1.1,0 -2.3,1.2 -3.7,2.8 l 0,-1.2 c 0,-0.9 -0.2,-1.6 -1.1,-1.6 -0.5,0 -1,0.4 -1.5,1 l 0,0.1 c 0.9,0 1.2,1.2 0.6,2.6 l -1.7,4.1 z m 0,-5.8 c 0.4,-1.1 0.1,-2 -0.7,-2 -1,0 -1.2,0.7 -2.2,2.8 l 0,-1.2 c 0,-0.9 -0.2,-1.6 -1.1,-1.6 -1,0 -1.7,1.5 -2.5,2.8 l 0.4,0 c 0.5,-0.6 0.9,-1 1.2,-1 0.3,0 0.6,0.6 0,2 l -1.9,4 c -0.4,0.7 0,1.2 0.7,1.2 0.5,0 0.6,-0.1 0.9,-0.6 l 1.7,-4.7 c 0.5,-0.6 1,-1.1 1.5,-1.7 l 2,0 z m -10.3,-0.7 c 0.6,0 1.1,0.5 0.9,1.6 l -2.8,0.6 c 0.4,-1.2 1.3,-2.2 1.9,-2.2 m 1.6,4.6 -0.6,0 c -0.7,0.9 -1.5,1.5 -2.2,1.5 -0.7,0 -1.2,-0.5 -1.2,-1.5 0,-0.4 0,-0.9 0.1,-1.2 l 4.6,-1.5 c 0.9,-2.1 -0.1,-3.1 -1.5,-3.1 -2.2,0 -4.7,3.6 -4.7,6.8 0,1.5 0.7,2.2 1.7,2.2 1.5,0 2.7,-1.3 3.8,-3.2 m -10.9,-4.6 1.5,0 -2.5,6.7 c -0.2,0.6 0.1,1.1 0.6,1.1 1.4,0 3.6,-1.4 4.3,-3.2 l -0.4,0 c -0.6,0.6 -1.9,1.5 -2.8,1.7 l 2.2,-6.2 2.2,0 0.2,-1 -2.2,0 0.9,-2.3 -0.6,0 -1.6,2.3 -1.9,0.2 0,0.7 z m -8.3,5.2 c 0,-2.1 2.2,-4.8 3.6,-4.8 0.2,0 0.5,0 0.7,0.1 l -1.4,3.6 c -0.7,1 -2,2.1 -2.5,2.1 -0.2,-0.2 -0.4,-0.4 -0.4,-1 m 7,-6.8 -0.7,0 -0.7,0.7 -0.2,0 c -3.8,0 -7,4.2 -7,7.3 0,0.9 0.5,1.4 1.4,1.4 1,0 2,-1.4 3,-2.8 l 0,0.5 c -0.1,1.5 0.4,2.3 1.1,2.3 1,0 1.7,-1.5 2.5,-2.8 l -0.4,0 c -0.5,0.6 -0.9,1 -1.2,1 -0.3,0 -0.6,-0.6 0,-2 l 2.2,-5.6 z m -8.1,2.3 c 0.4,-1.1 0.1,-2 -0.7,-2 -1,0 -1.2,0.7 -2.2,2.8 l 0,-1.2 c 0,-0.9 -0.2,-1.6 -1.1,-1.6 -1,0 -1.7,1.5 -2.5,2.8 l 0.4,0 c 0.5,-0.6 0.9,-1 1.2,-1 0.3,0 0.6,0.6 0,2 l -1.9,4 c -0.4,0.7 0,1.2 0.7,1.2 0.5,0 0.6,-0.1 0.9,-0.6 l 1.7,-4.7 c 0.5,-0.6 1,-1.1 1.5,-1.7 l 2,0 z m -12.7,6.7 0.1,-0.5 c -2.2,-0.4 -2.5,-0.4 -1.6,-2.8 l 0.9,-2.5 2.5,0 c 1.1,0 1.1,0.5 1,1.6 l 0.6,0 1.5,-4 -0.6,0 c -0.5,1 -1,1.6 -2.2,1.6 l -2.3,0 1.2,-3.5 c 0.4,-1.1 0.6,-1.4 2.1,-1.4 l 1,0 c 1.5,0 1.7,0.4 1.7,2 l 0.6,0 0.5,-2.7 -9.1,0 -0.1,0.5 c 1.7,0.4 2,0.5 1.1,2.8 l -2,5.4 c -0.9,2.2 -1.2,2.5 -3.2,2.8 l -0.2,0.5 6.5,0 z m 44.9,-28.2 c 0.6,0 1.1,0.5 0.9,1.6 l -2.8,0.6 c 0.4,-1.2 1.3,-2.2 1.9,-2.2 m 1.6,4.6 -0.6,0 c -0.7,0.9 -1.5,1.5 -2.2,1.5 -0.7,0 -1.2,-0.5 -1.2,-1.5 0,-0.4 0,-0.9 0.1,-1.2 L 84,198 c 0.9,-2.1 -0.1,-3.1 -1.5,-3.1 -2.2,0 -4.7,3.6 -4.7,6.8 0,1.5 0.7,2.2 1.7,2.2 1.4,0 2.7,-1.2 3.8,-3.2 m -0.9,-6.7 3.2,-3 0,-0.4 -1.7,0 -2,3.3 0.5,0 z m -10,2.1 1.5,0 -2.5,6.7 c -0.2,0.6 0.1,1.1 0.6,1.1 1.4,0 3.6,-1.4 4.3,-3.2 l -0.3,0 c -0.6,0.6 -1.9,1.5 -2.8,1.7 l 2.2,-6.2 2.2,0 0.2,-1 -1.8,0 0.9,-2.3 -0.9,0 -1.6,2.3 -1.9,0.2 0,0.6 -0.1,0 z m -2,-0.2 c 0.1,-0.6 -0.2,-1 -0.5,-1 -1.4,0 -2.8,1.2 -3.6,2.8 l 0.4,0 c 0.4,-0.6 1.1,-1.2 1.9,-1.4 l -2.6,6.6 c -0.2,0.6 0.2,1 0.5,1 1.2,0 2.7,-1.2 3.3,-2.8 l -0.4,0 c -0.4,0.6 -1.1,1.2 -1.9,1.4 l 2.9,-6.6 z m 0.4,-3.4 c 0.6,0 1.1,-0.5 1.1,-1.1 0,-0.6 -0.5,-1.1 -1.1,-1.1 -0.6,0 -1.1,0.5 -1.1,1.1 0.1,0.6 0.5,1.1 1.1,1.1 m -8.8,9.9 4.6,-12.1 -0.1,-0.1 -2.8,0.4 0,0.4 0.6,0.4 c 0.5,0.4 0.4,0.7 -0.1,2 l -3.6,9.5 c -0.2,0.5 0.1,1.1 0.6,1.1 1.4,0 2.7,-1.2 3.3,-2.8 l -0.4,0 c -0.5,0.5 -1.3,1.1 -2.1,1.2 m -8.8,-1.1 c 0,-2.1 2.2,-4.8 3.6,-4.8 0.2,0 0.5,0 0.7,0.1 l -1.4,3.6 c -0.7,1 -2,2.1 -2.5,2.1 -0.2,-0.1 -0.4,-0.4 -0.4,-1 m 7,-6.8 -0.7,0 -0.7,0.7 -0.1,0 c -3.8,0 -7,4.2 -7,7.3 0,0.9 0.5,1.4 1.4,1.4 1,0 2,-1.4 3,-2.8 l 0,0.5 c -0.1,1.5 0.4,2.3 1.1,2.3 1,0 1.7,-1.5 2.5,-2.8 l -0.7,0 c -0.5,0.6 -0.9,1 -1.2,1 -0.4,0 -0.6,-0.6 0,-2 l 2.4,-5.6 z m -16.9,11 c 0,-0.9 0.9,-1.5 2.1,-1.9 0.4,0.2 1,0.4 1.7,0.7 1.2,0.4 1.7,0.6 1.7,1 0,0.9 -1.4,1.5 -3.2,1.5 -1.5,-0.2 -2.3,-0.4 -2.3,-1.3 m 3.4,-5.3 c -0.5,0 -0.7,-0.5 -0.7,-1 0,-1.5 0.7,-3.7 2.1,-3.7 0.5,0 0.7,0.5 0.7,1 0,1.5 -0.8,3.7 -2.1,3.7 m 3.7,4.4 c 0,-1.1 -1,-1.5 -2.5,-1.9 -1.4,-0.4 -2,-0.5 -2,-1 0,-0.4 0.2,-0.7 0.9,-1.1 2.2,-0.1 3.6,-2.1 3.6,-3.7 0,-0.4 -0.1,-0.6 -0.1,-0.9 l 1.9,0 0.2,-1 -3,0 c -0.4,-0.2 -0.7,-0.4 -1.2,-0.4 -2.3,0 -3.8,2 -3.8,3.7 0,1.2 0.7,2 1.7,2.2 -1.1,0.5 -1.7,1 -1.7,1.7 0,0.4 0.1,0.6 0.5,0.9 -2.5,0.7 -3.5,1.6 -3.5,2.7 0,1.1 1.5,1.6 3.3,1.6 3.1,0.3 5.7,-1.3 5.7,-2.8 m -11.6,-7 c 1.1,0 1.1,0.5 1,1.6 l 0.6,0 1.5,-4 -0.7,0 c -0.5,1 -1,1.6 -2.2,1.6 l -2.3,0 1.2,-3.3 c 0.4,-1.1 0.6,-1.4 2.1,-1.4 l 1,0 c 1.5,0 1.7,0.4 1.7,2 l 0.6,0 0.5,-2.7 -9.1,0 -0.1,0.5 c 1.7,0.4 2,0.5 1.1,2.8 l -2.1,5.4 c -0.9,2.2 -1.2,2.5 -3.2,2.8 l -0.1,0.5 10.1,0 1.9,-2.8 -0.6,0 c -1.1,1.1 -2.6,2.1 -4.7,2.1 -2.7,0 -2.5,-0.1 -1.6,-2.6 l 1,-2.6 2.4,0.1 0,0 z m 1.3,-6.9 3.2,-2.2 0,-0.4 -2,0 -1.7,2.6 0.5,0 z m 40.6,-15.3 c 0.6,0 1.1,0.5 0.9,1.6 l -2.8,0.6 c 0.3,-1.3 1.1,-2.2 1.9,-2.2 m 1.5,4.5 -0.6,0 c -0.7,0.9 -1.5,1.5 -2.2,1.5 -0.7,0 -1.2,-0.5 -1.2,-1.5 0,-0.5 0,-0.9 0.1,-1.2 l 4.6,-1.5 c 0.9,-2.1 -0.1,-3.1 -1.5,-3.1 -2.2,0 -4.7,3.6 -4.7,6.8 0,1.5 0.7,2.2 1.7,2.2 1.4,0 2.8,-1.2 3.8,-3.2 m -0.9,-6.6 3.2,-3 0,-0.4 -1.7,0 -2,3.3 0.5,0 z m -9.5,2.1 1.2,0 -2.5,6.7 c -0.2,0.6 0.1,1.1 0.6,1.1 1.4,0 3.6,-1.4 4.3,-3.2 l -0.4,0 c -0.6,0.6 -1.7,1.5 -2.8,1.7 l 2.2,-6.2 2.2,0 0.2,-1 -2.2,0 0.9,-2.3 -0.9,0 -1.6,2.3 -1.6,0.2 0,0.6 0.4,0 z m -1.3,0.7 c 0.4,-1.1 0.1,-2 -0.7,-2 -1,0 -1.2,0.7 -2.2,2.8 l 0,-1.2 c 0,-0.9 -0.2,-1.6 -1.1,-1.6 -1,0 -1.7,1.5 -2.5,2.8 l 0.4,0 c 0.5,-0.6 0.9,-1 1.2,-1 0.3,0 0.6,0.6 0,2 l -1.7,4 c -0.4,0.7 0,1.2 0.7,1.2 0.5,0 0.6,-0.1 0.9,-0.6 l 1.9,-4.6 c 0.5,-0.6 1,-1.1 1.5,-1.7 l 1.7,0 0,-0.1 z m -10.1,-0.7 c 0.6,0 1.1,0.5 0.9,1.6 l -2.8,0.6 c 0.4,-1.3 1.2,-2.2 1.9,-2.2 m 1.6,4.5 -0.6,0 c -0.7,0.9 -1.5,1.5 -2.2,1.5 -0.7,0 -1.2,-0.5 -1.2,-1.5 0,-0.5 0,-0.9 0.1,-1.2 l 4.6,-1.5 c 0.9,-2.1 -0.1,-3.1 -1.5,-3.1 -2.2,0 -4.7,3.6 -4.7,6.8 0,1.5 0.7,2.2 1.7,2.2 1.5,0 2.7,-1.2 3.8,-3.2 m -11.4,1.9 c -0.5,0 -1.1,-0.4 -1.1,-0.7 0,-0.1 0.2,-0.6 0.5,-1.2 l 0.7,-2 c 0.7,-1 2,-2 2.7,-2 0.4,0 0.7,0.2 0.7,0.9 0.1,1.8 -1.6,5 -3.5,5 M 56,176 c 0,-1.4 -0.5,-1.9 -1.5,-1.9 -1.1,0 -2.2,1.2 -3.3,2.7 l 2.7,-7.3 -0.1,-0.1 -2.8,0.4 0,0.4 0.6,0.4 c 0.5,0.4 0.4,0.9 -0.1,2 l -3,7.7 c -0.2,0.6 -0.5,1.2 -0.5,1.4 0,0.7 1.1,1.5 2.1,1.5 2,-0.1 5.9,-4.1 5.9,-7.2 m -9.1,-0.9 c 0.1,-0.6 -0.2,-1 -0.5,-1 -1.4,0 -2.8,1.2 -3.6,2.8 l 0.4,0 c 0.4,-0.6 1.1,-1.2 1.9,-1.4 l -2.6,6.6 c -0.2,0.6 0.2,1 0.5,1 1.2,0 2.7,-1.2 3.3,-2.8 l -0.4,0 c -0.4,0.6 -1.1,1.2 -1.9,1.4 l 2.9,-6.6 z m 0.4,-3.3 c 0.6,0 1.1,-0.5 1.1,-1.1 0,-0.6 -0.5,-1.1 -1.1,-1.1 -0.6,0 -1.1,0.5 -1.1,1.1 0.1,0.6 0.5,1.1 1.1,1.1 m -6.7,-1.1 -6.1,0 -0.1,0.5 c 1.7,0.4 2,0.5 1.1,2.8 l -2,5.4 c -0.9,2.2 -1.2,2.5 -3.2,2.8 l -0.1,0.5 9.1,0 2,-3.6 -0.6,0 c -1.1,1.2 -2.5,2.8 -4.5,2.8 -1.5,0 -1.7,-0.2 -0.9,-2.6 l 2,-5.4 c 0.9,-2.2 1.2,-2.5 3.2,-2.8 l 0,-0.4 z"
       inkscape:connector-curvature="0" /><path
       id="Fond_2_"
       class="st0"
       d="m 64.4,48.4 c 0.4,-0.4 0.6,-0.6 1,-1 l 0,0 c 0.6,-0.7 1.2,-1.4 1.9,-2 0.2,-0.2 0.4,-0.4 0.6,-0.5 0,0 0,-0.1 0.1,-0.2 -0.2,0.1 -0.5,0.4 -0.7,0.5 0,0 -0.1,0 0,-0.1 0.2,-0.1 0.4,-0.2 0.6,-0.5 l 0,0 c 0,0 0,0 0,-0.1 -0.7,-0.1 -1.4,0.4 -1.9,0.9 -0.1,0 -0.2,0 -0.2,0 -0.9,0.2 -1.5,1 -2.3,1.4 l 0,-0.1 c -0.4,0.1 -0.6,0.4 -1,0.4 -0.5,0.1 -1,0 -1.4,0 -0.7,0.1 -1.4,0.2 -2.1,0.4 l 0,0 c -0.4,0.1 -0.7,0.2 -1.1,0.4 l 0,0 c 0,0 0,0.1 -0.1,0.1 -0.1,0.1 -0.2,0.2 -0.4,0.4 -0.4,0.1 -0.6,0.5 -1,0.7 0,0 0,0 -0.1,0 -0.2,0.2 -0.6,0.6 -0.9,0.9 l -0.1,0 0,0 0,0 c 0,-0.1 0.1,-0.1 0.1,-0.2 0,-0.1 0.1,-0.1 0.1,-0.2 0.1,-0.1 0.1,-0.2 0.2,-0.4 0,0 0,0 0,-0.1 0,0 0,0 -0.1,0 0.2,-0.2 0.6,-0.5 1,-0.7 l 0,0 -0.1,0 0.1,-0.1 0,0 0,0 c -0.1,0 -0.2,0.1 -0.2,0.2 -0.1,0.1 -0.2,0.4 -0.5,0.4 0,0 0,0 -0.1,0 l 0,0 0,0 0,0 0,0 0,0 0,0 0,0 c 0,0 0,0 0,-0.1 l 0,0 c 0,0 0,-0.1 0.1,-0.1 l 0,0 0,-0.1 0,-0.6 c 0.1,-0.1 0.2,-0.2 0.4,-0.4 l 0,0 c 0.2,-0.1 0.5,-0.2 0.6,-0.4 0,0 0.1,0 0.1,-0.1 -0.4,0.1 -0.6,0.2 -0.9,0.5 l -0.1,0 -0.1,0 0,0 c 0,-0.1 0.2,-0.1 0.4,-0.2 l 0.1,0 c 1.9,-1.4 4.3,-1.1 6.4,-1.9 0.1,-0.1 0.4,-0.2 0.5,-0.4 0.2,-0.1 0.5,-0.4 0.9,-0.6 0.5,-0.4 0.7,-0.7 1,-1.4 l 0,-0.1 c -0.7,0.7 -1.6,1.4 -2.5,1.9 -1.2,0.6 -2.5,0.5 -3.7,0.7 0,-0.1 0.1,-0.1 0.2,-0.1 0,-0.1 0.1,-0.2 0.2,-0.4 l 0.1,0 c 0,0 0,-0.1 0.1,-0.1 0.1,0 0.2,0 0.2,0 -0.1,-0.2 -0.5,0.1 -0.7,0 0.1,-0.1 0,-0.2 0.1,-0.4 l 0.2,0 c 0,-0.1 0.1,-0.2 0.1,-0.2 0.9,-0.5 1.6,-0.9 2.5,-1.4 -0.1,0 -0.2,0.1 -0.5,0 0.1,0 0,-0.1 0.1,-0.1 0.6,-0.1 1.1,-0.5 1.7,-0.7 -0.2,0 -0.4,0.1 -0.6,0 0.1,0 0.1,-0.1 0.4,-0.1 l 0,-0.1 c 0,0 0,0 0.1,0 l -0.1,0 c 0,-0.1 0.2,0 0.4,-0.1 l -0.1,0 c 0.1,-0.2 0.5,-0.2 0.7,-0.4 0,-0.1 -0.2,0 -0.2,-0.1 0,0 0,0 0.1,0 l 0,0 c -0.1,0 0,-0.1 0,-0.2 0.4,-0.4 0.4,-0.9 0.5,-1.4 l -0.1,0 c -0.6,0.6 -1.5,0.9 -2.3,1.1 l -0.2,0 c -0.2,0.1 -0.7,0.1 -1,0 -0.2,-0.1 -0.4,-0.2 -0.6,-0.5 -0.5,-0.2 -0.9,-0.5 -1.4,-0.7 -1.4,-0.5 -2.8,-0.7 -4.3,-0.6 0.6,-0.4 1.4,-0.4 2,-0.6 1,-0.2 1.9,-0.6 2.8,-0.6 -0.1,0 -0.4,0 -0.6,0 -0.7,0 -1.6,0.1 -2.5,0.4 -0.6,0.1 -1.1,0.4 -1.6,0.5 -0.4,0.1 -0.5,0.5 -0.9,0.4 l 0,-0.1 c 0.6,-0.7 1.2,-1.4 2.1,-1.4 1,-0.1 2,0 3,0.1 0.7,0 1.4,0.2 2.1,0.4 0.2,0 0.4,0.5 0.6,0.5 0.4,0.1 0.7,0 1,0.2 0,-0.1 0,-0.2 0,-0.4 0.2,-0.2 0.5,0 0.7,0 0.5,-0.2 -0.4,-0.7 -0.6,-1.2 l 0,-0.3 c 0.5,0.4 0.7,0.9 1.4,1.1 0.2,0.1 1,0.2 0.9,0 -0.2,-0.6 -0.9,-1.1 -1.4,-1.7 l 0,-0.2 c -0.1,0 -0.1,0 -0.1,-0.1 l 0,-0.2 c -0.2,-0.1 -0.1,-0.4 -0.2,-0.5 -0.1,-0.2 0,-0.7 -0.1,-1 -0.1,-0.4 -0.1,-0.6 -0.2,-1 -0.1,-1 -0.4,-1.9 -0.5,-2.7 -0.1,-1.1 0.6,-2 1.1,-2.8 0.4,-0.7 0.9,-1.4 1.6,-1.9 0.1,-0.7 0.6,-1.2 1.1,-1.9 0.5,-0.5 1.2,-0.9 1.7,-1.1 0.7,-0.9 1.4,-1.1 1.4,-1.1 l 11.4,0 c 0,0 0,0 0.2,0.1 0.2,0.1 0.6,0.4 0.9,0.5 0.4,0.2 0.9,0.5 1.1,0.9 0.1,0.1 0.2,0.5 0.1,0.7 -0.1,0.2 -0.1,0.7 -0.5,0.9 -0.6,0 -0.9,0 -1.4,0 -0.2,0 -0.5,0 -0.7,-0.1 0.9,0.4 1.6,0.7 2.2,1.5 0,0.1 0.2,0.1 0.5,0.1 l 0,0.1 C 83,26.7 82.9,26.7 83,27 l 0.4,0 c 0.2,-0.1 0.2,-0.7 0.6,-0.5 0.2,0.1 0.4,0.6 0.2,0.9 -0.2,0.2 -0.5,0.4 -0.7,0.6 0,0.1 0,0.2 0,0.4 0.1,0.2 0.2,0.5 0.2,0.7 0.1,0.4 0.2,0.9 0.4,1.2 0.4,0.9 0.6,1.7 0.5,2.6 0,0.5 -0.2,0.9 0,1.4 0.1,0.5 0.4,0.7 0.6,1.2 0.2,0.4 0.5,0.6 0.6,0.9 0.4,0.6 1,1.1 0.7,1.9 -0.1,0.4 -0.7,0.4 -1.2,0.6 -0.4,0.2 0,0.7 0.1,1 0.2,0.5 -0.4,0.9 -0.7,1 0.1,0.1 0.4,0.1 0.4,0.2 0,0.2 0.4,0.5 0.1,0.7 -0.2,0.4 -0.9,0.5 -0.6,1 0.2,0.4 0.1,0.9 0,1.2 -0.1,0.5 -0.6,0.7 -1,0.9 -0.4,0.1 -0.7,0.1 -1.1,0 -0.1,0 -0.2,-0.1 -0.4,-0.1 -1,-0.1 -2,-0.4 -2.8,-0.4 -0.2,0 -0.6,0.1 -0.7,0.2 -0.2,0.2 -0.5,0.4 -0.7,0.6 l 0,0 -0.1,0.1 c 0,0 0,0 -0.1,0.1 l 0,0 c -0.1,0.2 -0.4,0.4 -0.5,0.6 l 0,0 c 0,0 0,0 0,0.1 -0.2,0.4 -0.4,0.7 -0.4,1 -0.4,1.4 -0.2,2.5 0,2.7 0.1,0.1 1.9,0.6 3.1,1.2 0.6,0.2 1,0.5 1.4,0.6 l -23.5,0 c 1.1,-0.7 2.1,-1.1 3.7,-1.9 0.8,-0.1 2.4,-0.8 2.9,-1.3 m -8.7,-4.1 c -0.1,0 -0.4,0 -0.2,0 0,-0.2 0.5,-0.2 0.7,-0.4 0.1,0 0.2,-0.1 0.4,-0.1 0.1,0.1 0.2,0.1 0.4,0.2 -0.4,0.3 -0.9,0 -1.3,0.3 m -8.8,-1.4 0,0 c 0.7,-1.1 1.2,-2 1.7,-3 0.7,-0.4 1.4,-1 2,-1.6 1,-1 2,-2 3.2,-2.5 0.5,-0.1 1,-0.1 1.5,0 -0.1,0.2 -0.5,0.1 -0.7,0.4 l -0.1,0 0,-0.1 c -0.6,0.6 -1.4,0.9 -1.9,1.6 -0.4,0.6 -0.6,1.4 -1.4,1.5 -0.2,0 0,-0.1 0,-0.1 -1.5,1.1 -2.8,2.4 -4.3,3.8 m 4.9,-3.7 c 0,0.1 -0.1,0.1 -0.1,0.2 0,0.1 -0.1,0.1 -0.2,0.2 l -0.1,0 c -0.1,-0.1 0,-0.4 0.4,-0.4 0,-0.1 0,0 0,0 m 2.6,8.6 c 0,0.1 -0.1,0.1 -0.1,0.1 0.1,0 0.1,0 0.1,0.1 -0.1,0.1 -0.2,0.2 -0.4,0.2 0,0 0,0 -0.1,0 -0.1,0.1 -0.1,0.1 -0.2,0.2 -0.1,0 -0.4,0 -0.2,-0.1 0.1,-0.1 0.2,-0.2 0.4,-0.4 0.1,-0.1 0.1,-0.1 0.2,-0.2 l 0.1,-0.1 c -0.1,0 0.2,0 0.2,0.2 m -1,-0.5 0,0 c -0.2,0.1 -0.5,0.4 -0.6,0.5 -0.2,0.1 -0.5,0.2 -0.7,0.4 l 0,0 c 0,0 0,0 -0.1,0 -0.2,0.1 -0.4,0.2 -0.6,0.5 0,0 0,0 -0.1,0.1 l 0,0 0,0 c 0,0 0,0 -0.1,0.1 l 0,0 0,0 -0.3,0.1 c 0,0 0,0 -0.1,0.1 l -0.1,0 0,0 -0.1,0 c 0,0 0,0 -0.1,0 l 0,0 0,0 c -0.1,0 -0.1,0.1 -0.2,0.1 -0.1,0.1 -0.2,0.2 -0.4,0.4 l 0,0 0,0 0,0 0,0 0,0 0,0 0,0 0,0 0,0 0,0 c 0,0 0,0 0,-0.1 l 0,0 0,0 c 0,-0.1 0.1,-0.1 0.1,-0.2 l 0,0 c 0,0 0,0 0,-0.1 l 0,-0.2 0,0 c 0.1,-0.1 0.1,-0.1 0.1,-0.2 l 0,0 0,0 c 0,0 0,-0.1 0.1,-0.1 0,0 0,-0.1 0.1,-0.1 l 0,0 0,0 0,0 0,-0.1 0,0 0,0 c 0,0 0,0 0,-0.1 l 0,0 c 0,0 0,0 0,-0.1 l 0,0 c 0.1,-0.1 0.1,-0.2 0.2,-0.2 l 0,0 c -0.1,0 -0.1,0.1 -0.2,0.1 0,0 -0.1,0 -0.1,-0.1 l 0.1,-0.1 0,0 c 0.1,-0.1 0.1,-0.2 0.2,-0.2 0.1,0 0.1,-0.1 0.1,-0.1 l 0,0 0.1,-0.1 0,0 c 0.5,-0.5 1.5,-0.5 2.2,-0.9 0.2,-0.1 0.6,0 0.9,0 0.1,0 0.4,0 0.5,0.1 -0.1,-0.2 -0.6,0.2 -0.9,0.5 m 1.1,-4 c 0,0 0.1,0 0.2,-0.1 l -0.5,0 c 0,0 0,0 0,-0.1 -0.2,0 -0.6,0.1 -0.9,0.2 -0.4,0.1 -0.7,0.4 -1.2,0.5 -0.6,0.2 -1.1,0.7 -1.9,1 0,0 0,0 0,-0.1 0,-0.1 0.2,-0.2 0.4,-0.4 l 0,-0.1 c 0.5,-0.6 1.1,-1 1.6,-1.5 l 0,-0.1 c 0.1,-0.2 0.5,-0.4 0.6,-0.6 0,-0.1 0.2,-0.4 0.6,-0.5 0,0 -0.1,0 -0.1,-0.1 -0.2,0 -0.5,0.1 -0.7,0 0.1,-0.1 0.2,-0.1 0.4,-0.2 0,0 -0.1,0 -0.1,-0.1 0,-0.1 0.1,-0.2 0.2,-0.2 0.2,0 0.5,0 0.7,-0.2 -0.4,0 -0.9,0.1 -1.2,-0.1 0.2,-0.7 0.7,-1.4 1.5,-1.7 l 0.1,0 c 0,0.2 -0.1,0.5 -0.5,0.6 0.5,0.1 0.9,0.1 1.4,0.4 0,0.1 -0.1,0 -0.2,0 0.2,0.1 0.6,0 0.9,0.2 -0.1,0.1 -0.4,0 -0.5,0 1.7,0.5 3.6,0.9 5.1,2.1 -1.2,0.6 -2.6,0.9 -4,1.2 -0.1,0 -0.2,0 -0.5,0 l 0,0.1 c -0.2,0 -0.4,0 -0.6,0.1 -0.3,-0.2 -0.6,0 -0.8,-0.3"
       inkscape:connector-curvature="0"
       style="fill:#ffffff" /><path
       id="Rouge_1_"
       class="st1"
       d="m 64.4,48.4 c 0.4,-0.4 0.6,-0.6 1,-1 l 0,0 c 0.6,-0.7 1.2,-1.4 1.9,-2 0.2,-0.2 0.4,-0.4 0.6,-0.5 0,0 0,-0.1 0.1,-0.2 -0.2,0.1 -0.5,0.4 -0.7,0.5 0,0 -0.1,0 0,-0.1 0.2,-0.1 0.4,-0.2 0.6,-0.5 l 0,0 c 0,0 0,0 0,-0.1 -0.7,-0.1 -1.4,0.4 -1.9,0.9 -0.1,0 -0.2,0 -0.2,0 -0.9,0.2 -1.5,1 -2.3,1.4 l 0,-0.1 c -0.4,0.1 -0.6,0.4 -1,0.4 -0.5,0.1 -1,0 -1.4,0 -0.7,0.1 -1.4,0.2 -2.1,0.4 l 0,0 c -0.4,0.1 -0.7,0.2 -1.1,0.4 l 0,0 c 0,0 0,0.1 -0.1,0.1 -0.1,0.1 -0.2,0.2 -0.4,0.4 -0.4,0.1 -0.6,0.5 -1,0.7 0,0 0,0 -0.1,0 -0.2,0.2 -0.6,0.6 -0.9,0.9 l -0.1,0 0,0 0,0 c 0,-0.1 0.1,-0.1 0.1,-0.2 0,-0.1 0.1,-0.1 0.1,-0.2 0.1,-0.1 0.1,-0.2 0.2,-0.4 0,0 0,0 0,-0.1 0,0 0,0 -0.1,0 0.2,-0.2 0.6,-0.5 1,-0.7 l 0,0 -0.1,0 0.1,-0.1 0,0 0,0 c -0.1,0 -0.2,0.1 -0.2,0.2 -0.1,0.1 -0.2,0.4 -0.5,0.4 0,0 0,0 -0.1,0 l 0,0 0,0 0,0 0,0 0,0 0,0 0,0 c 0,0 0,0 0,-0.1 l 0,0 c 0,0 0,-0.1 0.1,-0.1 l 0,0 0,-0.1 0,-0.6 c 0.1,-0.1 0.2,-0.2 0.4,-0.4 l 0,0 c 0.2,-0.1 0.5,-0.2 0.6,-0.4 0,0 0.1,0 0.1,-0.1 -0.4,0.1 -0.6,0.2 -0.9,0.5 l -0.1,0 -0.1,0 0,0 c 0,-0.1 0.2,-0.1 0.4,-0.2 l 0.1,0 c 1.9,-1.4 4.3,-1.1 6.4,-1.9 0.1,-0.1 0.4,-0.2 0.5,-0.4 0.2,-0.1 0.5,-0.4 0.9,-0.6 0.5,-0.4 0.7,-0.7 1,-1.4 l 0,-0.1 c -0.7,0.7 -1.6,1.4 -2.5,1.9 -1.2,0.6 -2.5,0.5 -3.7,0.7 0,-0.1 0.1,-0.1 0.2,-0.1 0,-0.1 0.1,-0.2 0.2,-0.4 l 0.1,0 c 0,0 0,-0.1 0.1,-0.1 0.1,0 0.2,0 0.2,0 -0.1,-0.2 -0.5,0.1 -0.7,0 0.1,-0.1 0,-0.2 0.1,-0.4 l 0.2,0 c 0,-0.1 0.1,-0.2 0.1,-0.2 0.9,-0.5 1.6,-0.9 2.5,-1.4 -0.1,0 -0.2,0.1 -0.5,0 0.1,0 0,-0.1 0.1,-0.1 0.6,-0.1 1.1,-0.5 1.7,-0.7 -0.2,0 -0.4,0.1 -0.6,0 0.1,0 0.1,-0.1 0.4,-0.1 l 0,-0.1 c 0,0 0,0 0.1,0 l -0.1,0 c 0,-0.1 0.2,0 0.4,-0.1 l -0.1,0 c 0.1,-0.2 0.5,-0.2 0.7,-0.4 0,-0.1 -0.2,0 -0.2,-0.1 0,0 0,0 0.1,0 l 0,0 c -0.1,0 0,-0.1 0,-0.2 0.4,-0.4 0.4,-0.9 0.5,-1.4 l -0.1,0 c -0.6,0.6 -1.5,0.9 -2.3,1.1 l -0.2,0 c -0.2,0.1 -0.7,0.1 -1,0 -0.2,-0.1 -0.4,-0.2 -0.6,-0.5 -0.5,-0.2 -0.9,-0.5 -1.4,-0.7 -1.4,-0.5 -2.8,-0.7 -4.3,-0.6 0.6,-0.4 1.4,-0.4 2,-0.6 1,-0.2 1.9,-0.6 2.8,-0.6 -0.1,0 -0.4,0 -0.6,0 -0.7,0 -1.6,0.1 -2.5,0.4 -0.6,0.1 -1.1,0.4 -1.6,0.5 -0.4,0.1 -0.5,0.5 -0.9,0.4 l 0,-0.1 c 0.6,-0.7 1.2,-1.4 2.1,-1.4 1,-0.1 2,0 3,0.1 0.7,0 1.4,0.2 2.1,0.4 0.2,0 0.4,0.5 0.6,0.5 0.4,0.1 0.7,0 1,0.2 0,-0.1 0,-0.2 0,-0.4 0.2,-0.2 0.5,0 0.7,0 0.5,-0.2 -0.4,-0.7 -0.6,-1.2 l 0,-0.3 c 0.5,0.4 0.7,0.9 1.4,1.1 0.2,0.1 1,0.2 0.9,0 -0.2,-0.6 -0.9,-1.1 -1.4,-1.7 l 0,-0.2 c -0.1,0 -0.1,0 -0.1,-0.1 l 0,-0.2 c -0.2,-0.1 -0.1,-0.4 -0.2,-0.5 -0.1,-0.2 0,-0.7 -0.1,-1 -0.1,-0.4 -0.1,-0.6 -0.2,-1 -0.1,-1 -0.4,-1.9 -0.5,-2.7 -0.1,-1.1 0.6,-2 1.1,-2.8 0.4,-0.7 0.9,-1.4 1.6,-1.9 0.1,-0.7 0.6,-1.2 1.1,-1.9 0.5,-0.5 1.2,-0.9 1.7,-1.1 0.7,-0.9 1.4,-1.1 1.4,-1.1 l -39.2,0 0,30 27.6,0 c 1.1,-0.7 2.1,-1.1 3.7,-1.9 0.8,-0.4 2.4,-1.1 2.9,-1.6 m -8.7,-4.1 c -0.1,0 -0.4,0 -0.2,0 0,-0.2 0.5,-0.2 0.7,-0.4 0.1,0 0.2,-0.1 0.4,-0.1 0.1,0.1 0.2,0.1 0.4,0.2 -0.4,0.3 -0.9,0 -1.3,0.3 m -8.6,-1.4 c 0,0 -0.2,0 0,0 0.7,-1.1 1.2,-2 1.7,-3 0.7,-0.4 1.4,-1 2,-1.6 1,-1 2,-2 3.2,-2.5 0.5,-0.1 1,-0.1 1.5,0 -0.1,0.2 -0.5,0.1 -0.7,0.4 l -0.1,0 0,-0.1 c -0.6,0.6 -1.4,0.9 -1.9,1.6 -0.4,0.6 -0.6,1.4 -1.4,1.5 -0.2,0 0,-0.1 0,-0.1 -1.7,1.1 -3,2.4 -4.3,3.8 m 4.7,-3.7 c 0,0.1 -0.1,0.1 -0.1,0.2 0,0.1 -0.1,0.1 -0.2,0.2 l -0.1,0 c -0.1,-0.1 0,-0.4 0.4,-0.4 0,-0.1 0,0 0,0 m 2.6,8.6 c 0,0.1 -0.1,0.1 -0.1,0.1 0.1,0 0.1,0 0.1,0.1 -0.1,0.1 -0.2,0.2 -0.4,0.2 0,0 0,0 -0.1,0 -0.1,0.1 -0.1,0.1 -0.2,0.2 -0.1,0 -0.4,0 -0.2,-0.1 0.1,-0.1 0.2,-0.2 0.4,-0.4 0.1,-0.1 0.1,-0.1 0.2,-0.2 l 0.1,-0.1 c -0.1,0 0.2,0 0.2,0.2 m -1,-0.5 0,0 c -0.2,0.1 -0.5,0.4 -0.6,0.5 -0.2,0.1 -0.5,0.2 -0.7,0.4 l 0,0 c 0,0 0,0 -0.1,0 -0.2,0.1 -0.4,0.2 -0.6,0.5 0,0 0,0 -0.1,0.1 l 0,0 0,0 c 0,0 0,0 -0.1,0.1 l 0,0 0,0 -0.3,0.1 c 0,0 0,0 -0.1,0.1 l -0.1,0 0,0 -0.1,0 c 0,0 0,0 -0.1,0 l 0,0 0,0 c -0.1,0 -0.1,0.1 -0.2,0.1 -0.1,0.1 -0.2,0.2 -0.4,0.4 l 0,0 0,0 0,0 0,0 0,0 0,0 0,0 0,0 0,0 0,0 c 0,0 0,0 0,-0.1 l 0,0 0,0 c 0,-0.1 0.1,-0.1 0.1,-0.2 l 0,0 c 0,0 0,0 0,-0.1 l 0,-0.2 0,0 c 0.1,-0.1 0.1,-0.1 0.1,-0.2 l 0,0 0,0 c 0,0 0,-0.1 0.1,-0.1 0,0 0,-0.1 0.1,-0.1 l 0,0 0,0 0,0 0,-0.1 0,0 0,0 c 0,0 0,0 0,-0.1 l 0,0 c 0,0 0,0 0,-0.1 l 0,0 c 0.1,-0.1 0.1,-0.2 0.2,-0.2 l 0,0 c -0.1,0 -0.1,0.1 -0.2,0.1 0,0 -0.1,0 -0.1,-0.1 l 0.1,-0.1 0,0 c 0.1,-0.1 0.1,-0.2 0.2,-0.2 0.1,0 0.1,-0.1 0.1,-0.1 l 0,0 0.1,-0.1 0,0 c 0.5,-0.5 1.5,-0.5 2.2,-0.9 0.2,-0.1 0.6,0 0.9,0 0.1,0 0.4,0 0.5,0.1 -0.1,-0.2 -0.4,0.2 -0.9,0.5 m 1.1,-4 c 0,0 0.1,0 0.2,-0.1 l -0.5,0 c 0,0 0,0 0,-0.1 -0.2,0 -0.6,0.1 -0.9,0.2 -0.4,0.1 -0.7,0.4 -1.2,0.5 -0.6,0.2 -1.1,0.7 -1.9,1 0,0 0,0 0,-0.1 0,-0.1 0.2,-0.2 0.4,-0.4 l 0,-0.1 c 0.5,-0.6 1.1,-1 1.6,-1.5 l 0,-0.1 c 0.1,-0.2 0.5,-0.4 0.6,-0.6 0,-0.1 0.2,-0.4 0.6,-0.5 0,0 -0.1,0 -0.1,-0.1 -0.2,0 -0.5,0.1 -0.7,0 0.1,-0.1 0.2,-0.1 0.4,-0.2 0,0 -0.1,0 -0.1,-0.1 0,-0.1 0.1,-0.2 0.2,-0.2 0.2,0 0.5,0 0.7,-0.2 -0.4,0 -0.9,0.1 -1.2,-0.1 0.2,-0.7 0.7,-1.4 1.5,-1.7 l 0.1,0 c 0,0.2 -0.1,0.5 -0.5,0.6 0.5,0.1 0.9,0.1 1.4,0.4 0,0.1 -0.1,0 -0.2,0 0.2,0.1 0.6,0 0.9,0.2 -0.1,0.1 -0.4,0 -0.5,0 1.7,0.5 3.6,0.9 5.1,2.1 -1.2,0.6 -2.6,0.9 -4,1.2 -0.1,0 -0.2,0 -0.5,0 l 0,0.1 c -0.2,0 -0.4,0 -0.6,0.1 -0.3,-0.2 -0.6,0 -0.8,-0.3"
       inkscape:connector-curvature="0"
       style="fill:#000091" /><path
       id="Bleu_1_"
       class="st2"
       d="m 112.9,21.8 -32.3,0 c 0,0 0,0 0.2,0.1 0.2,0.1 0.6,0.4 0.9,0.5 0.4,0.2 0.9,0.5 1.1,0.9 0.1,0.1 0.2,0.5 0.1,0.7 -0.1,0.2 -0.1,0.7 -0.5,0.9 C 82,25 81.7,25 81.2,25 c -0.2,0 -0.5,0 -0.7,-0.1 0.9,0.4 1.6,0.7 2.2,1.5 0,0.1 0.2,0.1 0.5,0.1 l 0,0.1 C 83,26.7 82.9,26.7 83,27 l 0.4,0 c 0.2,-0.1 0.2,-0.7 0.6,-0.5 0.2,0.1 0.4,0.6 0.2,0.9 -0.2,0.2 -0.5,0.4 -0.7,0.6 0,0.1 0,0.2 0,0.4 0.1,0.2 0.2,0.5 0.2,0.7 0.1,0.4 0.2,0.9 0.4,1.2 0.4,0.9 0.6,1.7 0.5,2.6 0,0.5 -0.2,0.9 0,1.4 0.1,0.5 0.4,0.7 0.6,1.2 0.2,0.4 0.5,0.6 0.6,0.9 0.4,0.6 1,1.1 0.7,1.9 -0.1,0.4 -0.7,0.4 -1.2,0.6 -0.4,0.2 0,0.7 0.1,1 0.2,0.5 -0.4,0.9 -0.7,1 0.1,0.1 0.4,0.1 0.4,0.2 0,0.2 0.4,0.5 0.1,0.7 -0.2,0.4 -0.9,0.5 -0.6,1 0.2,0.4 0.1,0.9 0,1.2 -0.1,0.5 -0.6,0.7 -1,0.9 -0.4,0.1 -0.7,0.1 -1.1,0 -0.1,0 -0.2,-0.1 -0.4,-0.1 -1,-0.1 -2,-0.4 -2.8,-0.4 -0.2,0 -0.6,0.1 -0.7,0.2 -0.2,0.2 -0.5,0.4 -0.7,0.6 l 0,0 -0.1,0.1 c 0,0 0,0 -0.1,0.1 l 0,0 c -0.1,0.2 -0.4,0.4 -0.5,0.6 l 0,0 c 0,0 0,0 0,0.1 -0.2,0.4 -0.4,0.7 -0.4,1 -0.4,1.4 -0.2,2.5 0,2.7 0.1,0.1 1.9,0.6 3.1,1.2 0.6,0.2 1,0.5 1.4,0.6 l 31.8,0 0,-29.8 z"
       inkscape:connector-curvature="0"
       style="fill:#e1000f" /><path
       id="Yeux_1_"
       class="st3"
       d="m 82.5,32.8 c 0.2,0 0.6,0 0.6,0.1 -0.1,0.5 -0.7,0.6 -1.1,1 l -0.1,0 c -0.1,0.1 -0.1,0.4 -0.2,0.4 -0.1,0 -0.4,0 -0.5,0 0.2,0.2 0.5,0.4 0.9,0.4 0,0 0.1,0.1 0.1,0.2 0,0 0,0 0.1,0 l 0.1,0 0,0.2 c -0.1,0.2 -0.5,0.1 -0.7,0.1 0.5,0.1 0.9,0.1 1.4,0 0.4,-0.1 0,-0.7 0.2,-1 -0.1,0 0,-0.1 -0.1,-0.1 0.1,-0.1 0.2,-0.2 0.4,-0.4 0.1,0 0.2,0 0.4,-0.1 0,-0.1 -0.2,-0.1 -0.1,-0.2 0.4,-0.2 0.6,-0.6 0.5,-0.9 0,-0.1 -0.5,-0.1 -0.7,-0.2 -0.2,-0.1 -0.6,0 -1,0 -0.2,0 -0.6,0.1 -0.9,0.2 -0.7,0.1 -1,0.4 -1.4,0.5 0.4,-0.1 0.7,-0.2 1.2,-0.4 0.3,0.2 0.6,0.1 0.9,0.2"
       inkscape:connector-curvature="0"
       style="fill:#9c9b9b" /><path
       id="TEXTE"
       d="m 30.2,89.5 0,-22.5 5.8,0 5.4,9.3 5.4,-9.3 5.8,0 0,22.5 -4.6,0 0,-16 -5,8.3 -3.2,0 -5,-8.3 0,16 -4.6,0 z m 29,0 0,-22.5 4.6,0 0,22.5 -4.6,0 z m 11.2,0 0,-22.5 5.8,0 10.1,16.1 0,-16.1 4.6,0 0,22.5 -5.9,0 -10,-16.2 0,16.2 -4.6,0 z m 27.1,0 0,-22.5 4.6,0 0,22.5 -4.6,0 z m 9.1,-3.1 3.3,-3.1 c 0.7,0.9 1.4,1.5 2.3,2 0.9,0.5 1.8,0.7 2.7,0.7 0.9,0 1.6,-0.2 2.1,-0.7 0.5,-0.5 0.8,-1.1 0.8,-1.9 0,-1 -0.5,-1.8 -1.6,-2.3 -1.1,-0.5 -2.3,-1.1 -3.5,-1.7 -1.3,-0.6 -2.5,-1.4 -3.5,-2.4 -1.1,-1 -1.6,-2.4 -1.6,-4.2 0,-0.9 0.2,-1.7 0.5,-2.5 0.4,-0.8 0.8,-1.5 1.5,-2.1 0.6,-0.6 1.4,-1.1 2.3,-1.4 0.9,-0.3 1.9,-0.5 2.9,-0.5 1.7,0 3.2,0.3 4.5,1 1.3,0.7 2.4,1.6 3.4,2.7 l -3.3,3 c -0.7,-0.9 -1.4,-1.5 -2.1,-2 -0.7,-0.5 -1.5,-0.8 -2.4,-0.8 -0.8,0 -1.4,0.2 -1.9,0.7 -0.5,0.5 -0.7,1 -0.7,1.7 0,1 0.5,1.8 1.6,2.3 1.1,0.5 2.2,1.1 3.5,1.7 1.3,0.6 2.5,1.4 3.5,2.4 1.1,1 1.6,2.4 1.6,4.3 0,1.1 -0.2,2 -0.6,2.8 -0.4,0.8 -0.9,1.5 -1.6,2.1 -0.7,0.6 -1.4,1 -2.3,1.3 -0.9,0.3 -1.9,0.5 -2.9,0.5 -1.9,0 -3.5,-0.3 -4.9,-1 -1.4,-0.5 -2.6,-1.4 -3.6,-2.6 z m 18.5,-15.2 0,-4.2 18.4,0 0,4.1 -6.9,0 0,18.4 -4.6,0 0,-18.3 -6.9,0 z m 22.8,18.3 0,-22.5 13.1,0 0,3.9 -8.5,0 0,5.2 7.3,0 0,3.9 -7.3,0 0,5.6 8.5,0 0,3.9 -13.1,0 z m 4.5,-24.4 -4.1,-4.3 4.7,0 3.6,4.3 -4.2,0 z m 14.2,24.4 0,-22.5 6.9,0 c 2.5,0 4.4,0.6 5.8,1.8 1.4,1.2 2.2,2.8 2.2,4.9 0,1.4 -0.3,2.5 -0.9,3.5 -0.6,1 -1.5,1.8 -2.7,2.3 l 7.1,10 -5.5,0 -6,-9.1 -2.3,0 0,9.1 -4.6,0 z m 7.1,-18.6 -2.6,0 0,5.6 2.6,0 c 1,0 1.7,-0.2 2.2,-0.7 0.5,-0.5 0.8,-1.2 0.8,-2.1 0,-0.9 -0.3,-1.5 -0.8,-2 -0.4,-0.5 -1.2,-0.8 -2.2,-0.8 z m 14.4,18.6 0,-22.5 13.1,0 0,3.9 -8.5,0 0,5.2 7.3,0 0,3.9 -7.3,0 0,5.6 8.5,0 0,3.9 -13.1,0 z m -157.9,32.4 0,-22.5 8.8,0 c 1.8,0 3.4,0.3 4.9,0.9 1.5,0.6 2.7,1.4 3.8,2.4 1,1 1.8,2.2 2.4,3.6 0.6,1.4 0.9,2.8 0.9,4.3 0,1.5 -0.3,3 -0.9,4.3 -0.6,1.4 -1.4,2.6 -2.4,3.6 -1,1 -2.3,1.8 -3.8,2.4 -1.5,0.6 -3.1,0.9 -4.9,0.9 l -8.8,0 z m 8.9,-18.4 -4.3,0 0,14.2 4.3,0 c 1,0 2,-0.2 2.9,-0.5 0.9,-0.3 1.6,-0.9 2.3,-1.5 0.6,-0.6 1.1,-1.4 1.5,-2.3 0.4,-0.9 0.5,-1.8 0.5,-2.8 0,-1 -0.2,-1.9 -0.5,-2.8 -0.4,-0.9 -0.9,-1.6 -1.5,-2.3 -0.6,-0.6 -1.4,-1.1 -2.3,-1.5 -0.8,-0.3 -1.8,-0.5 -2.9,-0.5 z m 16.7,18.4 0,-22.5 13.1,0 0,3.9 -8.5,0 0,5.2 7.3,0 0,3.9 -7.3,0 0,5.6 8.5,0 0,3.9 -13.1,0 z m 27.4,0 0,-22.5 4.6,0 0,18.4 8.5,0 0,4.1 -13.1,0 z m 16.2,-13.2 -3.8,0 2.9,-9.3 4.6,0 -3.7,9.3 z m 7.6,13.2 0,-22.5 13.1,0 0,3.9 -8.5,0 0,5.2 7.3,0 0,3.9 -7.3,0 0,5.6 8.5,0 0,3.9 -13.1,0 z m 8.6,-24.4 -4.1,0 3.6,-4.3 4.7,0 -4.2,4.3 z m 19.7,20.8 c 1.3,0 2.4,-0.3 3.4,-0.9 1,-0.6 1.8,-1.3 2.5,-2.2 l 3.6,2.8 c -1,1.4 -2.4,2.5 -4,3.3 -1.6,0.8 -3.5,1.3 -5.5,1.3 -1.8,0 -3.4,-0.3 -4.9,-1 -1.5,-0.6 -2.7,-1.5 -3.8,-2.6 -1.1,-1.1 -1.9,-2.3 -2.4,-3.8 -0.6,-1.4 -0.9,-3 -0.9,-4.6 0,-1.6 0.3,-3.1 0.9,-4.6 0.6,-1.4 1.4,-2.7 2.4,-3.8 1,-1.1 2.3,-1.9 3.8,-2.6 1.5,-0.6 3.1,-1 4.9,-1 2,0 3.9,0.4 5.5,1.3 1.6,0.8 3,1.9 4,3.3 l -3.6,2.8 c -0.6,-0.9 -1.5,-1.7 -2.5,-2.2 -1,-0.6 -2.1,-0.9 -3.4,-0.9 -1.1,0 -2,0.2 -2.9,0.6 -0.9,0.4 -1.7,0.9 -2.3,1.6 -0.6,0.7 -1.1,1.5 -1.5,2.4 -0.4,0.9 -0.5,1.9 -0.5,3 0,1.1 0.2,2.1 0.5,3 0.4,0.9 0.9,1.7 1.5,2.4 0.6,0.7 1.4,1.2 2.3,1.6 0.9,0.6 1.8,0.8 2.9,0.8 z m 23.6,-19.5 c 1.8,0 3.4,0.3 4.8,1 1.5,0.6 2.7,1.5 3.8,2.6 1.1,1.1 1.9,2.3 2.4,3.8 0.6,1.4 0.9,3 0.9,4.6 0,1.6 -0.3,3.1 -0.9,4.6 -0.6,1.4 -1.4,2.7 -2.4,3.8 -1.1,1.1 -2.3,1.9 -3.8,2.6 -1.5,0.6 -3.1,1 -4.8,1 -1.8,0 -3.4,-0.3 -4.9,-1 -1.5,-0.6 -2.7,-1.5 -3.8,-2.6 -1.1,-1.1 -1.9,-2.3 -2.4,-3.8 -0.6,-1.4 -0.9,-3 -0.9,-4.6 0,-1.6 0.3,-3.1 0.9,-4.6 0.6,-1.4 1.4,-2.7 2.4,-3.8 1.1,-1.1 2.3,-1.9 3.8,-2.6 1.5,-0.7 3.1,-1 4.9,-1 z m 0,19.5 c 1,0 2,-0.2 2.9,-0.6 0.9,-0.4 1.7,-0.9 2.3,-1.6 0.6,-0.7 1.1,-1.5 1.5,-2.4 0.4,-0.9 0.5,-1.9 0.5,-3 0,-1.1 -0.2,-2.1 -0.5,-3 -0.4,-0.9 -0.9,-1.7 -1.5,-2.4 -0.6,-0.7 -1.4,-1.2 -2.3,-1.6 -0.9,-0.4 -1.9,-0.6 -2.9,-0.6 -1.1,0 -2,0.2 -2.9,0.6 -0.9,0.4 -1.7,0.9 -2.3,1.6 -0.6,0.7 -1.1,1.5 -1.5,2.4 -0.4,0.9 -0.5,1.9 -0.5,3 0,1.1 0.2,2.1 0.5,3 0.4,0.9 0.9,1.7 1.5,2.4 0.6,0.7 1.4,1.2 2.3,1.6 0.9,0.4 1.8,0.6 2.9,0.6 z m 16.6,3.6 0,-22.5 5.8,0 10.1,16.1 0,-16.1 4.6,0 0,22.5 -5.8,0 -10.1,-16.2 0,16.2 -4.6,0 z m 37.1,-23.1 c 1.8,0 3.4,0.3 4.8,1 1.5,0.6 2.7,1.5 3.8,2.6 1.1,1.1 1.9,2.3 2.4,3.8 0.6,1.4 0.9,3 0.9,4.6 0,1.6 -0.3,3.1 -0.9,4.6 -0.6,1.4 -1.4,2.7 -2.4,3.8 -1.1,1.1 -2.3,1.9 -3.8,2.6 -1.5,0.6 -3.1,1 -4.8,1 -1.8,0 -3.4,-0.3 -4.9,-1 -1.5,-0.6 -2.7,-1.5 -3.8,-2.6 -1.1,-1.1 -1.9,-2.3 -2.4,-3.8 -0.6,-1.4 -0.9,-3 -0.9,-4.6 0,-1.6 0.3,-3.1 0.9,-4.6 0.6,-1.4 1.4,-2.7 2.4,-3.8 1.1,-1.1 2.3,-1.9 3.8,-2.6 1.6,-0.7 3.2,-1 4.9,-1 z m 0,19.5 c 1,0 2,-0.2 2.9,-0.6 0.9,-0.4 1.7,-0.9 2.3,-1.6 0.6,-0.7 1.1,-1.5 1.5,-2.4 0.4,-0.9 0.5,-1.9 0.5,-3 0,-1.1 -0.2,-2.1 -0.5,-3 -0.4,-0.9 -0.9,-1.7 -1.5,-2.4 -0.6,-0.7 -1.4,-1.2 -2.3,-1.6 -0.9,-0.4 -1.9,-0.6 -2.9,-0.6 -1.1,0 -2,0.2 -2.9,0.6 -0.9,0.4 -1.7,0.9 -2.3,1.6 -0.6,0.7 -1.1,1.5 -1.5,2.4 -0.4,0.9 -0.5,1.9 -0.5,3 0,1.1 0.2,2.1 0.5,3 0.4,0.9 0.9,1.7 1.5,2.4 0.6,0.7 1.4,1.2 2.3,1.6 0.9,0.4 1.9,0.6 2.9,0.6 z m 16.7,3.6 0,-22.5 5.8,0 5.4,9.3 5.4,-9.3 5.8,0 0,22.5 -4.6,0 0,-16 -5,8.3 -3.2,0 -5,-8.3 0,16 -4.6,0 z m 28.9,0 0,-22.5 4.6,0 0,22.5 -4.6,0 z m 11.2,0 0,-22.5 13.1,0 0,3.9 -8.5,0 0,5.2 7.3,0 0,3.9 -7.3,0 0,5.6 8.5,0 0,3.9 -13.1,0 z m -239.2,32.4 0,-22.5 13.1,0 0,3.9 -8.5,0 0,5.2 7.3,0 0,3.9 -7.3,0 0,5.6 8.5,0 0,3.9 -13.1,0 z m 17,-18.4 0,-4.1 18.4,0 0,4.1 -6.9,0 0,18.4 -4.6,0 0,-18.4 -6.9,0 z m 31.4,18.4 0,-22.5 8.8,0 c 1.8,0 3.4,0.3 4.9,0.9 1.5,0.6 2.7,1.4 3.8,2.4 1,1 1.8,2.2 2.4,3.6 0.6,1.4 0.9,2.8 0.9,4.3 0,1.5 -0.3,3 -0.9,4.3 -0.6,1.4 -1.4,2.6 -2.4,3.6 -1,1 -2.3,1.8 -3.8,2.4 -1.5,0.6 -3.1,0.9 -4.9,0.9 l -8.8,0 z m 8.9,-18.4 -4.3,0 0,14.2 4.3,0 c 1.1,0 2,-0.2 2.9,-0.5 0.9,-0.4 1.6,-0.9 2.3,-1.5 0.6,-0.6 1.1,-1.4 1.5,-2.3 0.4,-0.9 0.5,-1.8 0.5,-2.8 0,-1 -0.2,-1.9 -0.5,-2.8 -0.4,-0.9 -0.9,-1.6 -1.5,-2.2 -0.6,-0.6 -1.4,-1.1 -2.3,-1.5 -0.9,-0.4 -1.8,-0.6 -2.9,-0.6 z m 16.6,18.4 0,-22.5 13.1,0 0,3.9 -8.5,0 0,5.2 7.3,0 0,3.9 -7.3,0 0,5.6 8.5,0 0,3.9 -13.1,0 z m 16.7,-3.1 3.3,-3.1 c 0.7,0.9 1.4,1.5 2.3,2 0.9,0.5 1.8,0.7 2.7,0.7 0.9,0 1.6,-0.2 2.1,-0.7 0.5,-0.5 0.8,-1.1 0.8,-1.9 0,-1 -0.5,-1.8 -1.6,-2.3 -1.1,-0.5 -2.3,-1.1 -3.5,-1.7 -1.3,-0.6 -2.5,-1.4 -3.5,-2.4 -1.1,-1 -1.6,-2.4 -1.6,-4.2 0,-0.9 0.2,-1.7 0.5,-2.5 0.4,-0.8 0.8,-1.5 1.5,-2.1 0.6,-0.6 1.4,-1.1 2.3,-1.4 0.9,-0.3 1.9,-0.5 2.9,-0.5 1.7,0 3.2,0.3 4.5,1 1.3,0.7 2.4,1.6 3.4,2.7 l -3.3,3 c -0.7,-0.9 -1.4,-1.5 -2.1,-2 -0.7,-0.5 -1.5,-0.8 -2.4,-0.8 -0.8,0 -1.4,0.2 -1.9,0.7 -0.5,0.5 -0.7,1 -0.7,1.7 0,1 0.5,1.8 1.6,2.3 1.1,0.5 2.2,1.1 3.5,1.7 1.3,0.6 2.5,1.4 3.5,2.4 1.1,1 1.6,2.4 1.6,4.3 0,1.1 -0.2,2 -0.6,2.8 -0.4,0.8 -0.9,1.5 -1.6,2.1 -0.7,0.6 -1.4,1 -2.3,1.3 -0.9,0.3 -1.9,0.5 -2.9,0.5 -1.9,0 -3.5,-0.3 -4.9,-1 -1.4,-0.7 -2.6,-1.5 -3.6,-2.6 z m 29.6,3.1 0,-22.5 13.1,0 0,3.9 -8.5,0 0,5.2 7.3,0 0,3.9 -7.3,0 0,9.5 -4.6,0 z m 17.5,0 0,-22.5 4.6,0 0,22.5 -4.6,0 z m 11.2,0 0,-22.5 5.8,0 10.1,16.1 0,-16.1 4.6,0 0,22.5 -5.8,0 -10.1,-16.2 0,16.2 -4.6,0 z m 24.2,0 8.5,-22.5 6,0 8.5,22.5 -4.9,0 -2.2,-5.8 -9,0 -2.2,5.8 -4.7,0 z m 8.5,-9.8 6.2,0 -3.1,-8.5 -3.1,8.5 z m 18.3,9.8 0,-22.5 5.8,0 10.1,16.1 0,-16.1 4.6,0 0,22.5 -5.8,0 -10.1,-16.2 0,16.2 -4.6,0 z m 37.2,-3.6 c 1.3,0 2.4,-0.3 3.4,-0.9 1,-0.6 1.8,-1.3 2.5,-2.2 l 3.6,2.8 c -1,1.4 -2.4,2.5 -4,3.3 -1.6,0.8 -3.5,1.3 -5.5,1.3 -1.8,0 -3.4,-0.3 -4.9,-1 -1.5,-0.6 -2.7,-1.5 -3.8,-2.6 -1.1,-1.1 -1.9,-2.3 -2.4,-3.8 -0.6,-1.4 -0.9,-3 -0.9,-4.6 0,-1.6 0.3,-3.1 0.9,-4.6 0.6,-1.4 1.4,-2.7 2.4,-3.8 1.1,-1.1 2.3,-1.9 3.8,-2.6 1.5,-0.6 3.1,-1 4.9,-1 2,0 3.9,0.4 5.5,1.3 1.6,0.8 3,1.9 4,3.3 l -3.6,2.8 c -0.6,-0.9 -1.5,-1.7 -2.5,-2.2 -1,-0.6 -2.1,-0.9 -3.4,-0.9 -1.1,0 -2,0.2 -2.9,0.6 -0.9,0.4 -1.7,0.9 -2.3,1.6 -0.6,0.7 -1.1,1.5 -1.5,2.4 -0.4,0.9 -0.5,1.9 -0.5,3 0,1.1 0.2,2.1 0.5,3 0.4,0.9 0.9,1.7 1.5,2.4 0.6,0.7 1.4,1.2 2.3,1.6 0.8,0.6 1.8,0.8 2.9,0.8 z m 13.7,3.6 0,-22.5 13.1,0 0,3.9 -8.5,0 0,5.2 7.3,0 0,3.9 -7.3,0 0,5.6 8.5,0 0,3.9 -13.1,0 z m 16.7,-3.1 3.3,-3.1 c 0.7,0.9 1.4,1.5 2.3,2 0.9,0.5 1.8,0.7 2.7,0.7 0.9,0 1.6,-0.2 2.1,-0.7 0.5,-0.5 0.8,-1.1 0.8,-1.9 0,-1 -0.5,-1.8 -1.6,-2.3 -1.1,-0.5 -2.3,-1.1 -3.5,-1.7 -1.3,-0.6 -2.5,-1.4 -3.5,-2.4 -1.1,-1 -1.6,-2.4 -1.6,-4.2 0,-0.9 0.2,-1.7 0.5,-2.5 0.4,-0.8 0.8,-1.5 1.5,-2.1 0.6,-0.6 1.4,-1.1 2.3,-1.4 0.9,-0.3 1.9,-0.5 2.9,-0.5 1.7,0 3.2,0.3 4.5,1 1.3,0.7 2.4,1.6 3.4,2.7 l -3.3,3 c -0.7,-0.9 -1.4,-1.5 -2.1,-2 -0.7,-0.5 -1.5,-0.8 -2.4,-0.8 -0.8,0 -1.4,0.2 -1.9,0.7 -0.5,0.5 -0.7,1 -0.7,1.7 0,1 0.5,1.8 1.6,2.3 1.1,0.5 2.3,1.1 3.5,1.7 1.3,0.6 2.5,1.4 3.5,2.4 1.1,1 1.6,2.4 1.6,4.3 0,1.1 -0.2,2 -0.6,2.8 -0.4,0.8 -0.9,1.5 -1.6,2.1 -0.7,0.6 -1.4,1 -2.3,1.3 -0.9,0.3 -1.9,0.5 -2.9,0.5 -1.9,0 -3.5,-0.3 -4.9,-1 -1.4,-0.5 -2.6,-1.5 -3.6,-2.6 z"
       inkscape:connector-curvature="0" /></g><g
     id="Calque_2"
     transform="translate(-30.2,-21.8)" /></svg>