<svg xmlns="http://www.w3.org/2000/svg" xmlns:xlink="http://www.w3.org/1999/xlink" width="300" height="293.7" viewBox="0 0 300 293.7"><defs><style>.a{fill:url(#a);}.b{fill:url(#b);}.c{fill:url(#c);}.d{fill:url(#d);}.e{fill:#f08f00;}.f{fill:#9b9c9e;}</style><linearGradient id="a" x1="-516.68" y1="267.06" x2="-515.46" y2="267.06" gradientTransform="translate(5989.83 11567.41) rotate(90) scale(21.87)" gradientUnits="userSpaceOnUse"><stop offset="0" stop-color="#f08f00"/><stop offset="0.27" stop-color="#f09100"/><stop offset="0.38" stop-color="#ee9800"/><stop offset="0.47" stop-color="#eca500"/><stop offset="0.54" stop-color="#e9b700"/><stop offset="0.58" stop-color="#e6c400"/><stop offset="0.6" stop-color="#e4c300"/><stop offset="0.74" stop-color="#dcbd00"/><stop offset="1" stop-color="#dabb00"/></linearGradient><linearGradient id="b" x1="-528.06" y1="287.72" x2="-526.83" y2="287.72" gradientTransform="translate(45699.37 83838.51) rotate(90) scale(158.59)" gradientUnits="userSpaceOnUse"><stop offset="0" stop-color="#637280"/><stop offset="0.46" stop-color="#637280"/><stop offset="0.52" stop-color="#637280"/><stop offset="0.52" stop-color="#62717f"/><stop offset="0.59" stop-color="#4b5866"/><stop offset="0.65" stop-color="#394552"/><stop offset="0.73" stop-color="#2d3744"/><stop offset="0.83" stop-color="#252f3c"/><stop offset="1" stop-color="#232d3a"/></linearGradient><linearGradient id="c" x1="-528.06" y1="287.66" x2="-526.83" y2="287.66" gradientTransform="translate(45803.4 83838.51) rotate(90) scale(158.59)" xlink:href="#b"/><linearGradient id="d" x1="-528.1" y1="287.39" x2="-526.88" y2="287.39" gradientTransform="translate(47081.42 86110.53) rotate(90) scale(162.88)" xlink:href="#b"/></defs><title>logo</title><path class="a" d="M187.49,290.65c-1.1-2-15.9-21.66-15.9-21.66s-2.32-3.54-5.14-3.54h-58l17.86,28.25h59.45S189.08,293.58,187.49,290.65Z"/><path class="b" d="M129,290.65c-1.1-2-13-21.66-13-21.66s-2.32-3.54-5.26-3.54H57.46s-4-.13-4-5.39v-55.9h47.83c6.24,0,3.67-3.55,3.67-3.55L93.3,181.29s-2.44-3.8-6.24-3.8H53.42V122.08h59.94l-13-23a7.86,7.86,0,0,0-7-4.28H20.27c-8.56,0-8.19,8.32-8.19,8.32V286c0,7.46,7.58,7.7,7.58,7.7H127.31S130.61,293.58,129,290.65Z"/><path class="c" d="M184,201c12-5.38,21.4-13.09,28.25-23.24a58.31,58.31,0,0,0,10.28-33.52q0-49.35-60.55-49.3H110.86a13.52,13.52,0,0,1,3.73,4.16c3.42,5.88,13.45,23,13.45,23h12.85c26.79,0,40.12,8.93,40.12,26.67,0,24.22-15,36.45-45,36.45h-2.81c-3.18,0-.12,4-.12,4L204,287.83s3.62,5.06,8.67,5.87h45.18Z"/><path class="d" d="M283.15,124.77H249.39V285.51c0,8.07,8.56,8.19,8.56,8.19h32.79V135.41S292.33,124.77,283.15,124.77Z"/><path class="e" d="M258,112.78s-8.56-.12-8.56-8.19v-11h33.76c9.3,0,7.59,11.25,7.59,11.25v8Z"/><path class="f" d="M150.06,14.8h.25c90,0,148.38,33.15,148.38,33.15s4.65,0-3.55-5.87C274.1,27.4,218.44,0,150.18,0h-.61C81.44,0,25.78,27.4,4.86,42.2c-8.2,5.75-3.55,5.87-3.55,5.87S59.66,14.92,149.69,14.92h.37Z"/></svg>